<svg width="375" height="376" viewBox="0 0 375 376" fill="none" xmlns="http://www.w3.org/2000/svg">
<rect width="375" height="375" transform="translate(0 0.543396)" fill="#FAFAFA"/>
<g clip-path="url(#clip0)">
<rect x="28.4191" y="28.5434" width="319" height="319" rx="3" fill="#E6F3FF"/>
<path d="M117.919 447.543C228.1 447.543 317.419 358.224 317.419 248.043C317.419 137.863 228.1 48.5434 117.919 48.5434C7.73825 48.5434 -81.5809 137.863 -81.5809 248.043C-81.5809 358.224 7.73825 447.543 117.919 447.543Z" fill="#80C4FF"/>
<path d="M317.03 234.614C271.68 234.614 210.662 234.614 206.964 234.614C178.353 234.614 155.192 257.775 155.192 286.386V306.726C155.192 324.243 162.101 340.981 174.558 353.438C186.625 365.505 193.729 381.465 193.924 400.734C194.021 411.147 197.427 420.879 203.169 428.761C270.707 396.647 317.419 327.843 317.419 248.141C317.419 243.567 317.322 239.09 317.03 234.614Z" fill="#B3DCFF"/>
<path d="M212.511 123.283L223.703 132.723C230.71 138.562 233.337 148.099 230.223 156.663C228.569 161.334 225.163 164.935 221.075 167.076C215.82 169.898 212.317 175.153 212.317 181.089C212.317 189.945 219.518 197.147 228.374 197.147H310.899C295.912 140.411 256.596 93.4066 204.337 68.2988C204.337 80.2688 204.337 97.0073 204.434 100.9C204.823 112.578 207.062 118.709 212.511 123.283Z" fill="#B3DCFF"/>
<path d="M155.873 52.2431C33.9344 28.6924 -78.7587 120.657 -81.5809 243.374L-35.55 289.405C-27.6673 297.287 -27.6673 310.133 -35.55 318.016L-58.7114 341.177C-41.097 374.557 -14.2375 402.39 18.3637 421.172C87.0353 383.621 101.893 330.74 17.2932 307.408C7.46417 297.579 -1.29435 290.962 -1.29435 276.364C-1.29435 268.384 1.91711 260.696 7.5615 255.052L37.4378 225.175L38.3137 224.3C38.411 224.202 38.5083 224.202 38.5083 224.105C38.5083 224.105 38.5083 224.105 38.5083 224.008V224.105C44.542 218.266 53.5925 216.612 61.3778 220.018L74.321 225.662C79.0895 227.803 82.7876 231.696 85.1232 236.464C87.7508 242.011 93.4925 245.807 100.11 245.515C108.382 245.125 115.097 237.632 115.097 229.36V190.239C115.097 167.856 122.298 146.057 135.631 128.053C148.963 110.049 156.165 88.2504 156.165 65.8675V52.2431C155.97 52.2431 155.97 52.2431 155.873 52.2431Z" fill="#B3DCFF"/>
<path d="M120.338 220.544L190.338 184.544" stroke="white" stroke-width="3.5" stroke-linecap="round" stroke-dasharray="0.1 7"/>
<path d="M56.4191 163.543L85.4191 209.543" stroke="white" stroke-width="3.5" stroke-linecap="round" stroke-dasharray="0.1 7"/>
<path d="M28.4191 129.543L32.9191 135.043" stroke="white" stroke-width="3.5" stroke-linecap="round" stroke-dasharray="0.1 7"/>
<path d="M36.4191 161.543L28.4191 171.543" stroke="white" stroke-width="3.5" stroke-linecap="round" stroke-dasharray="0.1 7"/>
<path d="M84.9191 250.043L59.4191 308.543" stroke="white" stroke-width="3.5" stroke-linecap="round" stroke-dasharray="0.1 7"/>
<path d="M152.419 276.543L115.919 246.043" stroke="white" stroke-width="3.5" stroke-linecap="round" stroke-dasharray="0.1 7"/>
<path d="M263.838 311.544L193.338 296.544" stroke="white" stroke-width="3.5" stroke-linecap="round" stroke-dasharray="0.1 7"/>
<path d="M68.9191 321.044L147.919 296.044" stroke="white" stroke-width="3.5" stroke-linecap="round" stroke-dasharray="0.1 7"/>
<path d="M178.338 268.544L201.838 195.544" stroke="white" stroke-width="3.5" stroke-linecap="round" stroke-dasharray="0.1 7"/>
<path d="M272.338 300.043L216.338 194.543" stroke="white" stroke-width="3.5" stroke-linecap="round" stroke-dasharray="0.1 7"/>
<path d="M282.338 298.543L294.338 207.043" stroke="white" stroke-width="3.5" stroke-linecap="round" stroke-dasharray="0.1 7"/>
<path d="M227.338 100.044L287.838 181.044" stroke="white" stroke-width="3.5" stroke-linecap="round" stroke-dasharray="0.1 7"/>
<path d="M281.838 190.044L227.338 180.544" stroke="white" stroke-width="3.5" stroke-linecap="round" stroke-dasharray="0.1 7"/>
<path d="M210.338 158.544L215.338 103.044" stroke="white" stroke-width="3.5" stroke-linecap="round" stroke-dasharray="0.1 7"/>
<path d="M117.338 62.5434L203.338 84.5434" stroke="white" stroke-width="3.5" stroke-linecap="round" stroke-dasharray="0.1 7"/>
<path d="M93.4191 70.5434L57.9191 130.543" stroke="white" stroke-width="3.5" stroke-linecap="round" stroke-dasharray="0.1 7"/>
<path d="M88.8381 63.0434L31.8381 83.0434" stroke="white" stroke-width="3.5" stroke-linecap="round" stroke-dasharray="0.1 7"/>
<path d="M113.338 70.5434L195.338 164.043" stroke="white" stroke-width="3.5" stroke-linecap="round" stroke-dasharray="0.1 7"/>
<path d="M108.919 176.043L102.919 205.543" stroke="white" stroke-width="3.5" stroke-linecap="round" stroke-dasharray="0.1 7"/>
<path d="M73.4191 227.043L32.4191 221.543" stroke="white" stroke-width="3.5" stroke-linecap="round" stroke-dasharray="0.1 7"/>
<path d="M274.419 330.043L269.919 344.543" stroke="white" stroke-width="3.5" stroke-linecap="round" stroke-dasharray="0.1 7"/>
<path d="M234.919 347.544L265.838 324.044" stroke="white" stroke-width="3.5" stroke-linecap="round" stroke-dasharray="0.1 7"/>
<path d="M177.419 343.543L172.919 314.043" stroke="white" stroke-width="3.5" stroke-linecap="round" stroke-dasharray="0.1 7"/>
<circle cx="208.405" cy="177.544" r="15" fill="#00BF9F"/>
<path fill-rule="evenodd" clip-rule="evenodd" d="M203.405 167.761C202.925 167.761 202.536 168.151 202.536 168.631V187.109C202.536 187.589 202.925 187.979 203.405 187.979H213.405C213.885 187.979 214.275 187.589 214.275 187.109V168.631C214.275 168.151 213.885 167.761 213.405 167.761H203.405ZM208.405 179.5C209.305 179.5 210.035 178.77 210.035 177.87C210.035 176.97 209.305 176.24 208.405 176.24C207.505 176.24 206.775 176.97 206.775 177.87C206.775 178.77 207.505 179.5 208.405 179.5ZM203.84 173.663C203.84 173.285 204.146 172.979 204.524 172.979H212.286C212.664 172.979 212.97 173.285 212.97 173.663V174.251C212.97 174.629 212.664 174.935 212.286 174.935H204.524C204.146 174.935 203.84 174.629 203.84 174.251V173.663ZM204.524 184.066C204.146 184.066 203.84 184.372 203.84 184.75V185.338C203.84 185.716 204.146 186.022 204.524 186.022H212.286C212.664 186.022 212.97 185.716 212.97 185.338V184.75C212.97 184.372 212.664 184.066 212.286 184.066H204.524ZM203.84 170.402C203.84 170.024 204.146 169.718 204.524 169.718H212.286C212.664 169.718 212.97 170.024 212.97 170.402V170.99C212.97 171.368 212.664 171.674 212.286 171.674H204.524C204.146 171.674 203.84 171.368 203.84 170.99V170.402ZM204.524 180.805C204.146 180.805 203.84 181.111 203.84 181.489V182.077C203.84 182.455 204.146 182.761 204.524 182.761H212.286C212.664 182.761 212.97 182.455 212.97 182.077V181.489C212.97 181.111 212.664 180.805 212.286 180.805H204.524Z" fill="white"/>
<circle cx="280.096" cy="314.762" r="12.5" fill="#00BF9F"/>
<path fill-rule="evenodd" clip-rule="evenodd" d="M276.074 306.609C275.594 306.609 275.204 306.999 275.204 307.479V322.588C275.204 323.068 275.594 323.457 276.074 323.457H284.117C284.598 323.457 284.987 323.068 284.987 322.588V307.479C284.987 306.999 284.598 306.609 284.117 306.609H276.074ZM280.096 316.392C280.846 316.392 281.454 315.784 281.454 315.033C281.454 314.283 280.846 313.675 280.096 313.675C279.345 313.675 278.737 314.283 278.737 315.033C278.737 315.784 279.345 316.392 280.096 316.392ZM276.291 311.642C276.291 311.264 276.598 310.957 276.976 310.957H283.216C283.594 310.957 283.9 311.264 283.9 311.642V311.903C283.9 312.281 283.594 312.588 283.216 312.588H276.976C276.598 312.588 276.291 312.281 276.291 311.903V311.642ZM276.976 320.196C276.598 320.196 276.291 320.503 276.291 320.881V321.143C276.291 321.52 276.598 321.827 276.976 321.827H283.216C283.594 321.827 283.9 321.52 283.9 321.143V320.881C283.9 320.503 283.594 320.196 283.216 320.196H276.976ZM276.291 308.924C276.291 308.546 276.598 308.24 276.976 308.24H283.216C283.594 308.24 283.9 308.546 283.9 308.924V309.186C283.9 309.564 283.594 309.87 283.216 309.87H276.976C276.598 309.87 276.291 309.564 276.291 309.186V308.924ZM276.976 317.479C276.598 317.479 276.291 317.786 276.291 318.163V318.425C276.291 318.803 276.598 319.11 276.976 319.11H283.216C283.594 319.11 283.9 318.803 283.9 318.425V318.163C283.9 317.786 283.594 317.479 283.216 317.479H276.976Z" fill="white"/>
<circle cx="296.629" cy="192.544" r="11" fill="#00BF9F"/>
<path fill-rule="evenodd" clip-rule="evenodd" d="M293.064 185.37C292.656 185.37 292.325 185.701 292.325 186.109V199.457C292.325 199.865 292.656 200.196 293.064 200.196H300.194C300.602 200.196 300.933 199.865 300.933 199.457V186.109C300.933 185.701 300.602 185.37 300.194 185.37H293.064ZM296.629 193.979C297.289 193.979 297.825 193.443 297.825 192.783C297.825 192.123 297.289 191.587 296.629 191.587C295.969 191.587 295.433 192.123 295.433 192.783C295.433 193.443 295.969 193.979 296.629 193.979ZM293.281 189.778C293.281 189.456 293.542 189.196 293.863 189.196H299.395C299.716 189.196 299.977 189.456 299.977 189.778V190.049C299.977 190.37 299.716 190.631 299.395 190.631H293.863C293.542 190.631 293.281 190.37 293.281 190.049V189.778ZM293.863 197.326C293.542 197.326 293.281 197.587 293.281 197.908V198.18C293.281 198.501 293.542 198.761 293.863 198.761H299.395C299.716 198.761 299.977 198.501 299.977 198.18V197.908C299.977 197.587 299.716 197.326 299.395 197.326H293.863ZM293.281 187.386C293.281 187.065 293.541 186.805 293.863 186.805H299.395C299.716 186.805 299.977 187.065 299.977 187.386V187.658C299.977 187.979 299.716 188.24 299.395 188.24H293.863C293.541 188.24 293.281 187.979 293.281 187.658V187.386ZM293.863 194.935C293.542 194.935 293.281 195.196 293.281 195.517V195.788C293.281 196.11 293.542 196.37 293.863 196.37H299.395C299.716 196.37 299.977 196.11 299.977 195.788V195.517C299.977 195.196 299.716 194.935 299.395 194.935H293.863Z" fill="white"/>
<circle cx="217.767" cy="88.5439" r="11" fill="#00BF9F"/>
<path fill-rule="evenodd" clip-rule="evenodd" d="M214.202 81.37C213.793 81.37 213.463 81.7009 213.463 82.1091V95.457C213.463 95.8652 213.793 96.1961 214.202 96.1961H221.332C221.74 96.1961 222.071 95.8652 222.071 95.457V82.1091C222.071 81.7009 221.74 81.37 221.332 81.37H214.202ZM217.767 89.9787C218.427 89.9787 218.963 89.4434 218.963 88.783C218.963 88.1227 218.427 87.5874 217.767 87.5874C217.107 87.5874 216.571 88.1227 216.571 88.783C216.571 89.4434 217.107 89.9787 217.767 89.9787ZM214.419 85.7778C214.419 85.4565 214.679 85.1961 215.001 85.1961H220.533C220.854 85.1961 221.115 85.4565 221.115 85.7778V86.0491C221.115 86.3704 220.854 86.6308 220.533 86.6308H215.001C214.679 86.6308 214.419 86.3704 214.419 86.0491V85.7778ZM215.001 93.3265C214.679 93.3265 214.419 93.587 214.419 93.9082V94.1796C214.419 94.5009 214.679 94.7613 215.001 94.7613H220.533C220.854 94.7613 221.115 94.5009 221.115 94.1796V93.9082C221.115 93.587 220.854 93.3265 220.533 93.3265H215.001ZM214.419 83.3865C214.419 83.0652 214.679 82.8048 215.001 82.8048H220.533C220.854 82.8048 221.115 83.0652 221.115 83.3865V83.6578C221.115 83.9791 220.854 84.2395 220.533 84.2395H215.001C214.679 84.2395 214.419 83.9791 214.419 83.6578V83.3865ZM215.001 90.9353C214.679 90.9353 214.419 91.1957 214.419 91.517V91.7883C214.419 92.1096 214.679 92.37 215.001 92.37H220.533C220.854 92.37 221.115 92.1096 221.115 91.7883V91.517C221.115 91.1957 220.854 90.9353 220.533 90.9353H215.001Z" fill="white"/>
<circle cx="103.044" cy="59.5473" r="11" fill="#00BF9F"/>
<path fill-rule="evenodd" clip-rule="evenodd" d="M99.4789 52.3734C99.0707 52.3734 98.7397 52.7043 98.7397 53.1125V66.4604C98.7397 66.8686 99.0707 67.1995 99.4789 67.1995H106.609C107.018 67.1995 107.348 66.8686 107.348 66.4604V53.1125C107.348 52.7043 107.018 52.3734 106.609 52.3734H99.4789ZM103.044 60.9821C103.704 60.9821 104.24 60.4468 104.24 59.7864C104.24 59.1261 103.704 58.5908 103.044 58.5908C102.384 58.5908 101.848 59.1261 101.848 59.7864C101.848 60.4468 102.384 60.9821 103.044 60.9821ZM99.6963 56.7812C99.6963 56.4599 99.9567 56.1995 100.278 56.1995H105.81C106.131 56.1995 106.392 56.4599 106.392 56.7812V57.0526C106.392 57.3738 106.131 57.6343 105.81 57.6343H100.278C99.9567 57.6343 99.6963 57.3738 99.6963 57.0526V56.7812ZM100.278 64.3299C99.9567 64.3299 99.6963 64.5904 99.6963 64.9116V65.183C99.6963 65.5043 99.9567 65.7647 100.278 65.7647H105.81C106.131 65.7647 106.392 65.5043 106.392 65.183V64.9116C106.392 64.5904 106.131 64.3299 105.81 64.3299H100.278ZM99.6962 54.3899C99.6962 54.0686 99.9567 53.8082 100.278 53.8082H105.81C106.131 53.8082 106.392 54.0686 106.392 54.3899V54.6613C106.392 54.9825 106.131 55.243 105.81 55.243H100.278C99.9567 55.243 99.6962 54.9825 99.6962 54.6613V54.3899ZM100.278 61.9387C99.9567 61.9387 99.6963 62.1991 99.6963 62.5204V62.7918C99.6963 63.113 99.9567 63.3735 100.278 63.3735H105.81C106.131 63.3735 106.392 63.113 106.392 62.7918V62.5204C106.392 62.1991 106.131 61.9387 105.81 61.9387H100.278Z" fill="white"/>
<circle cx="97.9191" cy="229.761" r="20" fill="#00BF9F"/>
<path fill-rule="evenodd" clip-rule="evenodd" d="M91.093 216.717C90.5407 216.717 90.093 217.165 90.093 217.717V242.674C90.093 243.226 90.5407 243.674 91.093 243.674H104.745C105.297 243.674 105.745 243.226 105.745 242.674V217.717C105.745 217.165 105.297 216.717 104.745 216.717H91.093ZM97.9191 232.369C99.1197 232.369 100.093 231.396 100.093 230.195C100.093 228.995 99.1197 228.021 97.9191 228.021C96.7185 228.021 95.7452 228.995 95.7452 230.195C95.7452 231.396 96.7185 232.369 97.9191 232.369ZM91.8321 224.461C91.8321 224.026 92.1845 223.674 92.6192 223.674H103.219C103.654 223.674 104.006 224.026 104.006 224.461V225.495C104.006 225.93 103.654 226.282 103.219 226.282H92.6192C92.1845 226.282 91.8321 225.93 91.8321 225.495V224.461ZM92.6192 238.456C92.1845 238.456 91.8322 238.809 91.8322 239.243V240.278C91.8322 240.713 92.1845 241.065 92.6192 241.065H103.219C103.654 241.065 104.006 240.713 104.006 240.278V239.243C104.006 238.809 103.654 238.456 103.219 238.456H92.6192ZM91.8321 220.113C91.8321 219.678 92.1845 219.326 92.6192 219.326H103.219C103.654 219.326 104.006 219.678 104.006 220.113V221.147C104.006 221.582 103.654 221.934 103.219 221.934H92.6192C92.1845 221.934 91.8321 221.582 91.8321 221.147V220.113ZM92.6192 234.109C92.1845 234.109 91.8322 234.461 91.8322 234.896V235.93C91.8322 236.365 92.1845 236.717 92.6192 236.717H103.219C103.654 236.717 104.006 236.365 104.006 235.93V234.896C104.006 234.461 103.654 234.109 103.219 234.109H92.6192Z" fill="white"/>
<circle cx="48.1582" cy="146.543" r="14" fill="#00BF9F"/>
<path fill-rule="evenodd" clip-rule="evenodd" d="M43.5495 137.413C43.0692 137.413 42.6799 137.802 42.6799 138.283V155.413C42.6799 155.893 43.0692 156.283 43.5495 156.283H52.7669C53.2471 156.283 53.6365 155.893 53.6365 155.413V138.283C53.6365 137.802 53.2471 137.413 52.7669 137.413H43.5495ZM48.1583 148.369C48.9988 148.369 49.6801 147.688 49.6801 146.848C49.6801 146.007 48.9988 145.326 48.1583 145.326C47.3179 145.326 46.6366 146.007 46.6366 146.848C46.6366 147.688 47.3179 148.369 48.1583 148.369ZM43.8975 142.967C43.8975 142.589 44.2039 142.282 44.5818 142.282H51.7348C52.1128 142.282 52.4192 142.589 52.4192 142.967V143.424C52.4192 143.802 52.1128 144.109 51.7348 144.109H44.5818C44.2039 144.109 43.8975 143.802 43.8975 143.424V142.967ZM44.5818 152.63C44.2039 152.63 43.8975 152.937 43.8975 153.315V153.772C43.8975 154.15 44.2039 154.456 44.5818 154.456H51.7348C52.1128 154.456 52.4192 154.15 52.4192 153.772V153.315C52.4192 152.937 52.1128 152.63 51.7348 152.63H44.5818ZM43.8974 139.923C43.8974 139.545 44.2038 139.239 44.5817 139.239H51.7348C52.1127 139.239 52.4191 139.545 52.4191 139.923V140.381C52.4191 140.759 52.1127 141.065 51.7348 141.065H44.5817C44.2038 141.065 43.8974 140.759 43.8974 140.381V139.923ZM44.5818 149.587C44.2039 149.587 43.8975 149.893 43.8975 150.271V150.729C43.8975 151.107 44.2039 151.413 44.5818 151.413H51.7348C52.1128 151.413 52.4192 151.107 52.4192 150.729V150.271C52.4192 149.893 52.1128 149.587 51.7348 149.587H44.5818Z" fill="white"/>
<circle cx="49.4191" cy="326.543" r="16" fill="#00BF9F"/>
<path fill-rule="evenodd" clip-rule="evenodd" d="M44.0278 316.109C43.5475 316.109 43.1582 316.498 43.1582 316.978V336.804C43.1582 337.285 43.5475 337.674 44.0278 337.674H54.8104C55.2906 337.674 55.6799 337.285 55.6799 336.804V316.978C55.6799 316.498 55.2906 316.109 54.8104 316.109H44.0278ZM49.419 328.63C50.3795 328.63 51.1581 327.852 51.1581 326.891C51.1581 325.931 50.3795 325.152 49.419 325.152C48.4585 325.152 47.6799 325.931 47.6799 326.891C47.6799 327.852 48.4585 328.63 49.419 328.63ZM44.5494 322.358C44.5494 321.98 44.8558 321.674 45.2338 321.674H53.6042C53.9822 321.674 54.2886 321.98 54.2886 322.358V323.076C54.2886 323.454 53.9822 323.761 53.6042 323.761H45.2338C44.8558 323.761 44.5494 323.454 44.5494 323.076V322.358ZM45.2338 333.5C44.8558 333.5 44.5494 333.806 44.5494 334.184V334.903C44.5494 335.281 44.8558 335.587 45.2338 335.587H53.6042C53.9822 335.587 54.2886 335.281 54.2886 334.903V334.184C54.2886 333.806 53.9822 333.5 53.6042 333.5H45.2338ZM44.5494 318.88C44.5494 318.502 44.8558 318.196 45.2338 318.196H53.6042C53.9822 318.196 54.2886 318.502 54.2886 318.88V319.598C54.2886 319.976 53.9822 320.283 53.6042 320.283H45.2338C44.8558 320.283 44.5494 319.976 44.5494 319.598V318.88ZM45.2338 330.022C44.8558 330.022 44.5494 330.328 44.5494 330.706V331.424C44.5494 331.802 44.8558 332.109 45.2338 332.109H53.6042C53.9822 332.109 54.2886 331.802 54.2886 331.424V330.706C54.2886 330.328 53.9822 330.022 53.6042 330.022H45.2338Z" fill="white"/>
<circle cx="170.669" cy="290.544" r="19" fill="#00BF9F"/>
<path fill-rule="evenodd" clip-rule="evenodd" d="M164.104 278.153C163.624 278.153 163.234 278.542 163.234 279.022V302.892C163.234 303.372 163.624 303.761 164.104 303.761H177.234C177.715 303.761 178.104 303.372 178.104 302.892V279.022C178.104 278.542 177.715 278.153 177.234 278.153H164.104ZM170.669 293.022C171.81 293.022 172.734 292.097 172.734 290.957C172.734 289.816 171.81 288.892 170.669 288.892C169.529 288.892 168.604 289.816 168.604 290.957C168.604 292.097 169.529 293.022 170.669 293.022ZM164.887 285.446C164.887 285.068 165.193 284.761 165.571 284.761H175.767C176.145 284.761 176.452 285.068 176.452 285.446V286.555C176.452 286.933 176.145 287.239 175.767 287.239H165.571C165.193 287.239 164.887 286.933 164.887 286.555V285.446ZM165.571 298.805C165.193 298.805 164.887 299.111 164.887 299.489V300.599C164.887 300.977 165.193 301.283 165.571 301.283H175.767C176.145 301.283 176.452 300.977 176.452 300.599V299.489C176.452 299.111 176.145 298.805 175.767 298.805H165.571ZM164.887 281.315C164.887 280.937 165.193 280.631 165.571 280.631H175.767C176.145 280.631 176.452 280.937 176.452 281.315V282.425C176.452 282.803 176.145 283.109 175.767 283.109H165.571C165.193 283.109 164.887 282.803 164.887 282.425V281.315ZM165.571 294.674C165.193 294.674 164.887 294.981 164.887 295.359V296.468C164.887 296.846 165.193 297.153 165.571 297.153H175.767C176.145 297.153 176.452 296.846 176.452 296.468V295.359C176.452 294.981 176.145 294.674 175.767 294.674H165.571Z" fill="white"/>
<circle cx="114.044" cy="155.544" r="17" fill="#248FF2"/>
<path fill-rule="evenodd" clip-rule="evenodd" d="M105.175 147.783C105.175 147.579 105.34 147.413 105.544 147.413H123.284C123.488 147.413 123.653 147.579 123.653 147.783V159.979H123.653L125.512 162.457C125.66 162.654 125.519 162.935 125.273 162.935H103.554C103.308 162.935 103.168 162.654 103.316 162.457L105.175 159.979H105.175V147.783ZM122.175 148.892H106.653V159.092C106.653 159.173 106.719 159.24 106.801 159.24H122.027C122.109 159.24 122.175 159.173 122.175 159.092V148.892Z" fill="white"/>
<path fill-rule="evenodd" clip-rule="evenodd" d="M41.4191 93.2153C39.7622 93.2153 38.4191 94.5584 38.4191 96.2153V122.215C38.4191 123.872 39.7622 125.215 41.4191 125.215H108.237C109.09 125.215 109.848 125.755 110.127 126.561L112.123 132.325C112.583 133.655 114.456 133.676 114.946 132.357L117.118 126.518C117.41 125.735 118.157 125.215 118.993 125.215H186.669C188.326 125.215 189.669 123.872 189.669 122.215V96.2153C189.669 94.5584 188.326 93.2153 186.669 93.2153H41.4191Z" fill="#248FF2"/>
<path d="M57.8246 106.793C58.2319 106.793 58.5786 106.867 58.8646 107.014C59.1593 107.153 59.3976 107.339 59.5796 107.573C59.7703 107.807 59.9089 108.076 59.9956 108.379C60.0823 108.683 60.1256 108.995 60.1256 109.315V113.215H58.5656V109.783C58.5656 109.601 58.5526 109.415 58.5266 109.224C58.5006 109.025 58.4443 108.847 58.3576 108.691C58.2796 108.527 58.1626 108.392 58.0066 108.288C57.8593 108.184 57.6599 108.132 57.4086 108.132C57.1573 108.132 56.9406 108.18 56.7586 108.275C56.5766 108.371 56.4249 108.501 56.3036 108.665C56.1823 108.821 56.0913 108.999 56.0306 109.198C55.9699 109.398 55.9396 109.601 55.9396 109.809V113.215H54.3796V103.387H55.9396V107.846H55.9656C56.0263 107.716 56.1129 107.591 56.2256 107.469C56.3469 107.339 56.4856 107.227 56.6416 107.131C56.7976 107.027 56.9753 106.945 57.1746 106.884C57.3739 106.824 57.5906 106.793 57.8246 106.793ZM61.0484 108.223V106.975H62.1404V105.168H63.6744V106.975H65.2344V108.223H63.6744V111.122C63.6744 111.4 63.7221 111.629 63.8174 111.811C63.9214 111.993 64.1467 112.084 64.4934 112.084C64.5974 112.084 64.7101 112.076 64.8314 112.058C64.9527 112.032 65.0611 111.998 65.1564 111.954L65.2084 113.176C65.0697 113.228 64.9051 113.267 64.7144 113.293C64.5237 113.328 64.3417 113.345 64.1684 113.345C63.7524 113.345 63.4144 113.289 63.1544 113.176C62.8944 113.055 62.6864 112.895 62.5304 112.695C62.3831 112.487 62.2791 112.253 62.2184 111.993C62.1664 111.725 62.1404 111.439 62.1404 111.135V108.223H61.0484ZM65.2759 108.223V106.975H66.3679V105.168H67.9019V106.975H69.4619V108.223H67.9019V111.122C67.9019 111.4 67.9496 111.629 68.0449 111.811C68.1489 111.993 68.3743 112.084 68.7209 112.084C68.8249 112.084 68.9376 112.076 69.0589 112.058C69.1803 112.032 69.2886 111.998 69.3839 111.954L69.4359 113.176C69.2973 113.228 69.1326 113.267 68.9419 113.293C68.7513 113.328 68.5693 113.345 68.3959 113.345C67.9799 113.345 67.6419 113.289 67.3819 113.176C67.1219 113.055 66.9139 112.895 66.7579 112.695C66.6106 112.487 66.5066 112.253 66.4459 111.993C66.3939 111.725 66.3679 111.439 66.3679 111.135V108.223H65.2759ZM72.0859 106.975V107.846H72.1249C72.2029 107.725 72.3026 107.604 72.4239 107.482C72.5539 107.352 72.7099 107.24 72.8919 107.144C73.0739 107.04 73.2776 106.958 73.5029 106.897C73.7369 106.828 73.9969 106.793 74.2829 106.793C74.7249 106.793 75.1322 106.88 75.5049 107.053C75.8776 107.218 76.1982 107.448 76.4669 107.742C76.7356 108.037 76.9436 108.384 77.0909 108.782C77.2382 109.181 77.3119 109.61 77.3119 110.069C77.3119 110.529 77.2382 110.962 77.0909 111.369C76.9522 111.768 76.7486 112.119 76.4799 112.422C76.2199 112.717 75.8992 112.955 75.5179 113.137C75.1452 113.311 74.7206 113.397 74.2439 113.397C73.8019 113.397 73.3946 113.306 73.0219 113.124C72.6579 112.942 72.3762 112.695 72.1769 112.383H72.1509V116.335H70.5909V106.975H72.0859ZM75.7259 110.069C75.7259 109.827 75.6869 109.588 75.6089 109.354C75.5396 109.112 75.4312 108.895 75.2839 108.704C75.1366 108.514 74.9502 108.362 74.7249 108.249C74.4996 108.128 74.2352 108.067 73.9319 108.067C73.6459 108.067 73.3902 108.128 73.1649 108.249C72.9396 108.371 72.7446 108.527 72.5799 108.717C72.4239 108.908 72.3026 109.125 72.2159 109.367C72.1379 109.61 72.0989 109.853 72.0989 110.095C72.0989 110.338 72.1379 110.581 72.2159 110.823C72.3026 111.057 72.4239 111.27 72.5799 111.46C72.7446 111.651 72.9396 111.807 73.1649 111.928C73.3902 112.041 73.6459 112.097 73.9319 112.097C74.2352 112.097 74.4996 112.037 74.7249 111.915C74.9502 111.794 75.1366 111.638 75.2839 111.447C75.4312 111.257 75.5396 111.04 75.6089 110.797C75.6869 110.555 75.7259 110.312 75.7259 110.069ZM82.2365 108.639C82.0978 108.457 81.9071 108.301 81.6645 108.171C81.4218 108.033 81.1575 107.963 80.8715 107.963C80.6201 107.963 80.3905 108.015 80.1825 108.119C79.9745 108.223 79.8705 108.397 79.8705 108.639C79.8705 108.882 79.9831 109.055 80.2085 109.159C80.4425 109.255 80.7805 109.354 81.2225 109.458C81.4565 109.51 81.6905 109.58 81.9245 109.666C82.1671 109.753 82.3838 109.87 82.5745 110.017C82.7738 110.156 82.9341 110.334 83.0555 110.55C83.1768 110.758 83.2375 111.014 83.2375 111.317C83.2375 111.699 83.1638 112.024 83.0165 112.292C82.8778 112.552 82.6871 112.765 82.4445 112.929C82.2105 113.094 81.9331 113.211 81.6125 113.28C81.3005 113.358 80.9755 113.397 80.6375 113.397C80.1521 113.397 79.6798 113.311 79.2205 113.137C78.7611 112.955 78.3798 112.7 78.0765 112.37L79.1035 111.408C79.2768 111.634 79.5021 111.82 79.7795 111.967C80.0568 112.115 80.3645 112.188 80.7025 112.188C80.8151 112.188 80.9278 112.175 81.0405 112.149C81.1618 112.123 81.2701 112.084 81.3655 112.032C81.4695 111.972 81.5518 111.894 81.6125 111.798C81.6731 111.703 81.7035 111.586 81.7035 111.447C81.7035 111.187 81.5821 111.001 81.3395 110.888C81.1055 110.776 80.7501 110.663 80.2735 110.55C80.0395 110.498 79.8098 110.433 79.5845 110.355C79.3678 110.269 79.1728 110.16 78.9995 110.03C78.8261 109.892 78.6875 109.723 78.5835 109.523C78.4795 109.324 78.4275 109.077 78.4275 108.782C78.4275 108.436 78.4968 108.137 78.6355 107.885C78.7828 107.634 78.9735 107.43 79.2075 107.274C79.4415 107.11 79.7058 106.988 80.0005 106.91C80.2951 106.832 80.5985 106.793 80.9105 106.793C81.3611 106.793 81.7988 106.871 82.2235 107.027C82.6568 107.183 82.9991 107.422 83.2505 107.742L82.2365 108.639ZM84.5678 112.305C84.5678 112.028 84.6675 111.79 84.8668 111.59C85.0748 111.391 85.3218 111.291 85.6078 111.291C85.8852 111.291 86.1278 111.387 86.3358 111.577C86.5438 111.768 86.6478 112.002 86.6478 112.279C86.6478 112.557 86.5438 112.795 86.3358 112.994C86.1365 113.194 85.8938 113.293 85.6078 113.293C85.4692 113.293 85.3348 113.267 85.2048 113.215C85.0835 113.163 84.9752 113.094 84.8798 113.007C84.7845 112.921 84.7065 112.817 84.6458 112.695C84.5938 112.574 84.5678 112.444 84.5678 112.305ZM84.5678 107.911C84.5678 107.634 84.6675 107.396 84.8668 107.196C85.0748 106.997 85.3218 106.897 85.6078 106.897C85.8852 106.897 86.1278 106.993 86.3358 107.183C86.5438 107.374 86.6478 107.608 86.6478 107.885C86.6478 108.163 86.5438 108.401 86.3358 108.6C86.1365 108.8 85.8938 108.899 85.6078 108.899C85.4692 108.899 85.3348 108.873 85.2048 108.821C85.0835 108.769 84.9752 108.7 84.8798 108.613C84.7845 108.527 84.7065 108.423 84.6458 108.301C84.5938 108.18 84.5678 108.05 84.5678 107.911ZM88.5173 113.839L87.4383 113.449L91.4943 103.361L92.5733 103.777L88.5173 113.839ZM93.57 113.839L92.491 113.449L96.547 103.361L97.626 103.777L93.57 113.839ZM100.092 106.975V107.846H100.131C100.209 107.725 100.308 107.604 100.43 107.482C100.56 107.352 100.716 107.24 100.898 107.144C101.08 107.04 101.283 106.958 101.509 106.897C101.743 106.828 102.003 106.793 102.289 106.793C102.731 106.793 103.138 106.88 103.511 107.053C103.883 107.218 104.204 107.448 104.473 107.742C104.741 108.037 104.949 108.384 105.097 108.782C105.244 109.181 105.318 109.61 105.318 110.069C105.318 110.529 105.244 110.962 105.097 111.369C104.958 111.768 104.754 112.119 104.486 112.422C104.226 112.717 103.905 112.955 103.524 113.137C103.151 113.311 102.726 113.397 102.25 113.397C101.808 113.397 101.4 113.306 101.028 113.124C100.664 112.942 100.382 112.695 100.183 112.383H100.157V116.335H98.5968V106.975H100.092ZM103.732 110.069C103.732 109.827 103.693 109.588 103.615 109.354C103.545 109.112 103.437 108.895 103.29 108.704C103.142 108.514 102.956 108.362 102.731 108.249C102.505 108.128 102.241 108.067 101.938 108.067C101.652 108.067 101.396 108.128 101.171 108.249C100.945 108.371 100.75 108.527 100.586 108.717C100.43 108.908 100.308 109.125 100.222 109.367C100.144 109.61 100.105 109.853 100.105 110.095C100.105 110.338 100.144 110.581 100.222 110.823C100.308 111.057 100.43 111.27 100.586 111.46C100.75 111.651 100.945 111.807 101.171 111.928C101.396 112.041 101.652 112.097 101.938 112.097C102.241 112.097 102.505 112.037 102.731 111.915C102.956 111.794 103.142 111.638 103.29 111.447C103.437 111.257 103.545 111.04 103.615 110.797C103.693 110.555 103.732 110.312 103.732 110.069ZM106.823 106.975H108.318V108.015H108.344C108.518 107.651 108.76 107.357 109.072 107.131C109.384 106.906 109.748 106.793 110.164 106.793C110.225 106.793 110.29 106.798 110.359 106.806C110.429 106.806 110.489 106.815 110.541 106.832V108.262C110.437 108.236 110.346 108.219 110.268 108.21C110.199 108.202 110.13 108.197 110.06 108.197C109.705 108.197 109.419 108.262 109.202 108.392C108.986 108.522 108.817 108.678 108.695 108.86C108.574 109.042 108.492 109.229 108.448 109.419C108.405 109.61 108.383 109.762 108.383 109.874V113.215H106.823V106.975ZM110.966 110.069C110.966 109.575 111.053 109.129 111.226 108.73C111.408 108.323 111.651 107.976 111.954 107.69C112.257 107.404 112.617 107.183 113.033 107.027C113.449 106.871 113.891 106.793 114.359 106.793C114.827 106.793 115.269 106.871 115.685 107.027C116.101 107.183 116.461 107.404 116.764 107.69C117.067 107.976 117.306 108.323 117.479 108.73C117.661 109.129 117.752 109.575 117.752 110.069C117.752 110.563 117.661 111.014 117.479 111.421C117.306 111.829 117.067 112.18 116.764 112.474C116.461 112.76 116.101 112.986 115.685 113.15C115.269 113.315 114.827 113.397 114.359 113.397C113.891 113.397 113.449 113.315 113.033 113.15C112.617 112.986 112.257 112.76 111.954 112.474C111.651 112.18 111.408 111.829 111.226 111.421C111.053 111.014 110.966 110.563 110.966 110.069ZM112.552 110.069C112.552 110.312 112.587 110.555 112.656 110.797C112.734 111.04 112.847 111.257 112.994 111.447C113.141 111.638 113.328 111.794 113.553 111.915C113.778 112.037 114.047 112.097 114.359 112.097C114.671 112.097 114.94 112.037 115.165 111.915C115.39 111.794 115.577 111.638 115.724 111.447C115.871 111.257 115.98 111.04 116.049 110.797C116.127 110.555 116.166 110.312 116.166 110.069C116.166 109.827 116.127 109.588 116.049 109.354C115.98 109.112 115.871 108.895 115.724 108.704C115.577 108.514 115.39 108.362 115.165 108.249C114.94 108.128 114.671 108.067 114.359 108.067C114.047 108.067 113.778 108.128 113.553 108.249C113.328 108.362 113.141 108.514 112.994 108.704C112.847 108.895 112.734 109.112 112.656 109.354C112.587 109.588 112.552 109.827 112.552 110.069ZM125.609 106.975V112.656C125.609 113.22 125.539 113.727 125.401 114.177C125.262 114.637 125.045 115.022 124.751 115.334C124.465 115.655 124.101 115.902 123.659 116.075C123.217 116.249 122.692 116.335 122.086 116.335C121.834 116.335 121.566 116.314 121.28 116.27C121.002 116.227 120.725 116.162 120.448 116.075C120.179 115.989 119.919 115.88 119.668 115.75C119.416 115.62 119.191 115.473 118.992 115.308L119.889 114.099C120.192 114.385 120.534 114.602 120.916 114.749C121.297 114.905 121.683 114.983 122.073 114.983C122.445 114.983 122.757 114.927 123.009 114.814C123.269 114.71 123.472 114.563 123.62 114.372C123.776 114.182 123.884 113.956 123.945 113.696C124.014 113.436 124.049 113.15 124.049 112.838V112.383H124.023C123.797 112.687 123.507 112.921 123.152 113.085C122.805 113.241 122.415 113.319 121.982 113.319C121.514 113.319 121.089 113.233 120.708 113.059C120.326 112.886 120.001 112.652 119.733 112.357C119.473 112.063 119.269 111.72 119.122 111.33C118.974 110.932 118.901 110.511 118.901 110.069C118.901 109.619 118.97 109.194 119.109 108.795C119.256 108.397 119.46 108.05 119.72 107.755C119.988 107.461 120.309 107.227 120.682 107.053C121.063 106.88 121.488 106.793 121.956 106.793C122.398 106.793 122.809 106.884 123.191 107.066C123.572 107.248 123.875 107.53 124.101 107.911H124.127V106.975H125.609ZM122.281 108.067C121.995 108.067 121.739 108.119 121.514 108.223C121.297 108.327 121.111 108.47 120.955 108.652C120.807 108.826 120.69 109.034 120.604 109.276C120.526 109.519 120.487 109.779 120.487 110.056C120.487 110.308 120.526 110.55 120.604 110.784C120.69 111.018 120.807 111.231 120.955 111.421C121.111 111.603 121.297 111.751 121.514 111.863C121.739 111.976 121.99 112.032 122.268 112.032C122.554 112.032 122.809 111.98 123.035 111.876C123.269 111.764 123.464 111.616 123.62 111.434C123.784 111.252 123.91 111.044 123.997 110.81C124.083 110.568 124.127 110.316 124.127 110.056C124.127 109.788 124.083 109.532 123.997 109.289C123.91 109.047 123.784 108.834 123.62 108.652C123.464 108.47 123.273 108.327 123.048 108.223C122.822 108.119 122.567 108.067 122.281 108.067ZM131.353 112.422H131.314C131.158 112.7 130.906 112.929 130.56 113.111C130.213 113.285 129.819 113.371 129.377 113.371C129.125 113.371 128.861 113.337 128.584 113.267C128.315 113.207 128.064 113.103 127.83 112.955C127.604 112.799 127.414 112.6 127.258 112.357C127.11 112.106 127.037 111.798 127.037 111.434C127.037 110.966 127.167 110.594 127.427 110.316C127.695 110.039 128.038 109.827 128.454 109.679C128.87 109.532 129.329 109.437 129.832 109.393C130.343 109.341 130.841 109.315 131.327 109.315V109.159C131.327 108.769 131.184 108.483 130.898 108.301C130.62 108.111 130.287 108.015 129.897 108.015C129.567 108.015 129.251 108.085 128.948 108.223C128.644 108.362 128.393 108.531 128.194 108.73L127.388 107.781C127.743 107.452 128.15 107.205 128.61 107.04C129.078 106.876 129.55 106.793 130.027 106.793C130.581 106.793 131.036 106.871 131.392 107.027C131.756 107.183 132.042 107.387 132.25 107.638C132.458 107.89 132.601 108.171 132.679 108.483C132.765 108.795 132.809 109.107 132.809 109.419V113.215H131.353V112.422ZM131.327 110.368H130.976C130.724 110.368 130.46 110.381 130.183 110.407C129.905 110.425 129.65 110.472 129.416 110.55C129.182 110.62 128.987 110.724 128.831 110.862C128.675 110.992 128.597 111.174 128.597 111.408C128.597 111.556 128.627 111.681 128.688 111.785C128.757 111.881 128.844 111.959 128.948 112.019C129.052 112.08 129.169 112.123 129.299 112.149C129.429 112.175 129.559 112.188 129.689 112.188C130.226 112.188 130.633 112.045 130.911 111.759C131.188 111.473 131.327 111.083 131.327 110.589V110.368ZM133.602 108.223V106.975H134.694V105.168H136.228V106.975H137.788V108.223H136.228V111.122C136.228 111.4 136.276 111.629 136.371 111.811C136.475 111.993 136.7 112.084 137.047 112.084C137.151 112.084 137.264 112.076 137.385 112.058C137.506 112.032 137.615 111.998 137.71 111.954L137.762 113.176C137.623 113.228 137.459 113.267 137.268 113.293C137.077 113.328 136.895 113.345 136.722 113.345C136.306 113.345 135.968 113.289 135.708 113.176C135.448 113.055 135.24 112.895 135.084 112.695C134.937 112.487 134.833 112.253 134.772 111.993C134.72 111.725 134.694 111.439 134.694 111.135V108.223H133.602ZM143.311 109.471C143.311 109.272 143.281 109.081 143.22 108.899C143.168 108.717 143.081 108.557 142.96 108.418C142.839 108.28 142.683 108.171 142.492 108.093C142.31 108.007 142.093 107.963 141.842 107.963C141.374 107.963 140.975 108.106 140.646 108.392C140.325 108.67 140.148 109.029 140.113 109.471H143.311ZM144.871 110.173C144.871 110.243 144.871 110.312 144.871 110.381C144.871 110.451 144.867 110.52 144.858 110.589H140.113C140.13 110.815 140.187 111.023 140.282 111.213C140.386 111.395 140.52 111.556 140.685 111.694C140.85 111.824 141.036 111.928 141.244 112.006C141.452 112.084 141.669 112.123 141.894 112.123C142.284 112.123 142.613 112.054 142.882 111.915C143.151 111.768 143.372 111.569 143.545 111.317L144.585 112.149C143.97 112.981 143.077 113.397 141.907 113.397C141.422 113.397 140.975 113.324 140.568 113.176C140.161 113.02 139.805 112.804 139.502 112.526C139.207 112.249 138.973 111.911 138.8 111.512C138.635 111.105 138.553 110.646 138.553 110.134C138.553 109.632 138.635 109.177 138.8 108.769C138.973 108.353 139.207 108.002 139.502 107.716C139.797 107.422 140.143 107.196 140.542 107.04C140.949 106.876 141.387 106.793 141.855 106.793C142.288 106.793 142.687 106.867 143.051 107.014C143.424 107.153 143.744 107.365 144.013 107.651C144.282 107.929 144.49 108.28 144.637 108.704C144.793 109.12 144.871 109.61 144.871 110.173ZM146.096 112.305C146.096 112.028 146.196 111.79 146.395 111.59C146.603 111.391 146.85 111.291 147.136 111.291C147.413 111.291 147.656 111.387 147.864 111.577C148.072 111.768 148.176 112.002 148.176 112.279C148.176 112.557 148.072 112.795 147.864 112.994C147.665 113.194 147.422 113.293 147.136 113.293C146.997 113.293 146.863 113.267 146.733 113.215C146.612 113.163 146.503 113.094 146.408 113.007C146.313 112.921 146.235 112.817 146.174 112.695C146.122 112.574 146.096 112.444 146.096 112.305ZM154.023 108.704C153.902 108.531 153.72 108.388 153.477 108.275C153.234 108.154 152.987 108.093 152.736 108.093C152.45 108.093 152.199 108.154 151.982 108.275C151.765 108.388 151.583 108.54 151.436 108.73C151.297 108.921 151.193 109.138 151.124 109.38C151.055 109.614 151.02 109.853 151.02 110.095C151.02 110.338 151.055 110.581 151.124 110.823C151.202 111.057 151.315 111.27 151.462 111.46C151.609 111.651 151.791 111.807 152.008 111.928C152.233 112.041 152.493 112.097 152.788 112.097C153.031 112.097 153.273 112.05 153.516 111.954C153.759 111.859 153.954 111.72 154.101 111.538L155.076 112.526C154.816 112.804 154.482 113.02 154.075 113.176C153.676 113.324 153.243 113.397 152.775 113.397C152.316 113.397 151.878 113.324 151.462 113.176C151.055 113.029 150.695 112.812 150.383 112.526C150.08 112.24 149.837 111.894 149.655 111.486C149.482 111.079 149.395 110.615 149.395 110.095C149.395 109.593 149.482 109.138 149.655 108.73C149.837 108.323 150.08 107.976 150.383 107.69C150.686 107.404 151.037 107.183 151.436 107.027C151.843 106.871 152.277 106.793 152.736 106.793C153.195 106.793 153.637 106.88 154.062 107.053C154.495 107.227 154.838 107.465 155.089 107.768L154.023 108.704ZM155.743 110.069C155.743 109.575 155.829 109.129 156.003 108.73C156.185 108.323 156.427 107.976 156.731 107.69C157.034 107.404 157.394 107.183 157.81 107.027C158.226 106.871 158.668 106.793 159.136 106.793C159.604 106.793 160.046 106.871 160.462 107.027C160.878 107.183 161.237 107.404 161.541 107.69C161.844 107.976 162.082 108.323 162.256 108.73C162.438 109.129 162.529 109.575 162.529 110.069C162.529 110.563 162.438 111.014 162.256 111.421C162.082 111.829 161.844 112.18 161.541 112.474C161.237 112.76 160.878 112.986 160.462 113.15C160.046 113.315 159.604 113.397 159.136 113.397C158.668 113.397 158.226 113.315 157.81 113.15C157.394 112.986 157.034 112.76 156.731 112.474C156.427 112.18 156.185 111.829 156.003 111.421C155.829 111.014 155.743 110.563 155.743 110.069ZM157.329 110.069C157.329 110.312 157.363 110.555 157.433 110.797C157.511 111.04 157.623 111.257 157.771 111.447C157.918 111.638 158.104 111.794 158.33 111.915C158.555 112.037 158.824 112.097 159.136 112.097C159.448 112.097 159.716 112.037 159.942 111.915C160.167 111.794 160.353 111.638 160.501 111.447C160.648 111.257 160.756 111.04 160.826 110.797C160.904 110.555 160.943 110.312 160.943 110.069C160.943 109.827 160.904 109.588 160.826 109.354C160.756 109.112 160.648 108.895 160.501 108.704C160.353 108.514 160.167 108.362 159.942 108.249C159.716 108.128 159.448 108.067 159.136 108.067C158.824 108.067 158.555 108.128 158.33 108.249C158.104 108.362 157.918 108.514 157.771 108.704C157.623 108.895 157.511 109.112 157.433 109.354C157.363 109.588 157.329 109.827 157.329 110.069ZM171.49 106.793C171.897 106.793 172.244 106.867 172.53 107.014C172.825 107.153 173.063 107.339 173.245 107.573C173.436 107.807 173.574 108.076 173.661 108.379C173.748 108.683 173.791 108.995 173.791 109.315V113.215H172.231V109.757C172.231 109.575 172.218 109.385 172.192 109.185C172.166 108.986 172.11 108.808 172.023 108.652C171.936 108.488 171.815 108.353 171.659 108.249C171.512 108.145 171.312 108.093 171.061 108.093C170.818 108.093 170.61 108.145 170.437 108.249C170.264 108.353 170.121 108.488 170.008 108.652C169.895 108.817 169.813 109.003 169.761 109.211C169.709 109.411 169.683 109.61 169.683 109.809V113.215H168.123V109.445C168.123 109.055 168.028 108.735 167.837 108.483C167.655 108.223 167.365 108.093 166.966 108.093C166.732 108.093 166.528 108.145 166.355 108.249C166.182 108.345 166.039 108.47 165.926 108.626C165.822 108.782 165.74 108.964 165.679 109.172C165.627 109.372 165.601 109.575 165.601 109.783V113.215H164.041V106.975H165.523V107.976H165.549C165.618 107.82 165.709 107.673 165.822 107.534C165.943 107.396 166.082 107.27 166.238 107.157C166.403 107.045 166.589 106.958 166.797 106.897C167.005 106.828 167.235 106.793 167.486 106.793C167.971 106.793 168.374 106.902 168.695 107.118C169.016 107.335 169.263 107.621 169.436 107.976C169.644 107.595 169.921 107.305 170.268 107.105C170.615 106.897 171.022 106.793 171.49 106.793Z" fill="white"/>
<path fill-rule="evenodd" clip-rule="evenodd" d="M283.511 290.275C283.611 290.005 283.857 289.816 284.143 289.78C300.084 287.789 312.419 274.189 312.419 257.708C312.419 239.856 297.947 225.384 280.096 225.384C262.244 225.384 247.772 239.856 247.772 257.708C247.772 274.09 259.96 287.626 275.763 289.743C276.052 289.782 276.298 289.978 276.394 290.254L278.462 296.227C278.922 297.557 280.795 297.578 281.285 296.259L283.511 290.275Z" fill="#2490F2"/>
<path fill-rule="evenodd" clip-rule="evenodd" d="M265.82 237.162C264.672 237.162 263.742 238.093 263.742 239.241V275.968C263.742 277.116 264.672 278.047 265.82 278.047H294.371C295.519 278.047 296.449 277.116 296.449 275.968V239.241C296.449 239.235 296.449 239.229 296.449 239.223V249.464L283.954 237.162H265.82Z" fill="white"/>
<path d="M283.964 237.162L296.45 249.453L286.042 249.453C284.894 249.453 283.964 248.522 283.964 247.374L283.964 237.162Z" fill="#80C4FF"/>
<path d="M267.184 255.495H268.444V258.355H271.754V255.495H273.014V262.575H271.754V259.435H268.444V262.575H267.184V255.495ZM276.007 256.595H273.837V255.495H279.437V256.595H277.267V262.575H276.007V256.595ZM280.26 255.495H282.23L284.07 260.525H284.1L285.92 255.495H287.9V262.575H286.65V256.885H286.63L284.48 262.575H283.6L281.48 256.885H281.46V262.575H280.26V255.495ZM289.46 255.495H290.72V261.455H293.73V262.575H289.46V255.495Z" fill="#3099F2"/>
</g>
<path d="M35.8144 341.431L31.5237 345.655" stroke="white" stroke-width="3.5" stroke-linecap="round" stroke-dasharray="0.1 7"/>
<path d="M33.4191 314.543L28.4191 310.543" stroke="white" stroke-width="3.5" stroke-linecap="round" stroke-dasharray="0.1 7"/>
<defs>
<clipPath id="clip0">
<rect x="28.4191" y="28.5434" width="319" height="319" rx="3" fill="white"/>
</clipPath>
</defs>
</svg>
