<svg width="375" height="376" viewBox="0 0 375 376" fill="none" xmlns="http://www.w3.org/2000/svg">
<rect width="375" height="375" transform="translate(0 0.543396)" fill="#FAFAFA"/>
<g clip-path="url(#clip0)">
<rect x="28.4189" y="28.5434" width="319" height="319" rx="3" fill="#E6F3FF"/>
<path d="M117.919 447.543C228.1 447.543 317.419 358.224 317.419 248.043C317.419 137.863 228.1 48.5434 117.919 48.5434C7.73813 48.5434 -81.5811 137.863 -81.5811 248.043C-81.5811 358.224 7.73813 447.543 117.919 447.543Z" fill="#80C4FF"/>
<path d="M317.03 234.614C271.68 234.614 210.662 234.614 206.964 234.614C178.353 234.614 155.191 257.775 155.191 286.386V306.726C155.191 324.243 162.101 340.981 174.558 353.438C186.625 365.505 193.729 381.465 193.924 400.734C194.021 411.147 197.427 420.879 203.169 428.761C270.707 396.647 317.419 327.843 317.419 248.141C317.419 243.567 317.322 239.09 317.03 234.614Z" fill="#B3DCFF"/>
<path d="M212.511 123.283L223.703 132.723C230.71 138.562 233.337 148.099 230.223 156.663C228.569 161.334 225.163 164.935 221.075 167.076C215.82 169.898 212.317 175.153 212.317 181.089C212.317 189.945 219.518 197.147 228.374 197.147H310.899C295.912 140.411 256.596 93.4066 204.337 68.2988C204.337 80.2688 204.337 97.0073 204.434 100.9C204.823 112.578 207.062 118.709 212.511 123.283Z" fill="#B3DCFF"/>
<path d="M155.873 52.2431C33.9343 28.6924 -78.7589 120.657 -81.5811 243.374L-35.5501 289.405C-27.6674 297.287 -27.6674 310.133 -35.5501 318.016L-58.7115 341.177C-41.0972 374.557 -14.2377 402.39 18.3636 421.172C87.0351 383.621 101.893 330.741 17.2931 307.408C7.46405 297.579 -1.29448 290.962 -1.29448 276.364C-1.29448 268.384 1.91698 260.696 7.56137 255.052L37.4377 225.175L38.3136 224.3C38.4109 224.202 38.5082 224.202 38.5082 224.105C38.5082 224.105 38.5082 224.105 38.5082 224.008V224.105C44.5419 218.266 53.5923 216.612 61.3777 220.018L74.3209 225.662C79.0894 227.803 82.7875 231.696 85.1231 236.464C87.7506 242.011 93.4923 245.807 100.11 245.515C108.382 245.125 115.097 237.632 115.097 229.36V190.239C115.097 167.856 122.298 146.057 135.631 128.053C148.963 110.049 156.165 88.2504 156.165 65.8675V52.2431C155.97 52.2431 155.97 52.2431 155.873 52.2431Z" fill="#B3DCFF"/>
<path fill-rule="evenodd" clip-rule="evenodd" d="M191.894 183.743C192.336 184.603 191.998 185.658 191.138 186.1L191.094 186.123C190.234 186.565 189.179 186.227 188.737 185.367C188.295 184.508 188.633 183.453 189.493 183.011L189.538 182.988C190.397 182.546 191.452 182.884 191.894 183.743ZM185.575 186.993C186.017 187.853 185.679 188.908 184.82 189.35L184.73 189.396C183.87 189.838 182.815 189.499 182.373 188.64C181.931 187.78 182.27 186.725 183.129 186.283L183.219 186.237C184.078 185.795 185.133 186.134 185.575 186.993ZM179.212 190.266C179.654 191.125 179.315 192.18 178.456 192.622L178.366 192.669C177.507 193.111 176.452 192.772 176.01 191.913C175.568 191.053 175.906 189.998 176.766 189.556L176.855 189.51C177.715 189.068 178.77 189.406 179.212 190.266ZM172.848 193.539C173.29 194.398 172.952 195.453 172.092 195.895L172.003 195.941C171.143 196.383 170.088 196.045 169.646 195.185C169.204 194.326 169.542 193.271 170.402 192.829L170.492 192.783C171.351 192.341 172.406 192.679 172.848 193.539ZM166.485 196.811C166.927 197.671 166.588 198.726 165.729 199.168L165.639 199.214C164.78 199.656 163.724 199.318 163.282 198.458C162.84 197.599 163.179 196.544 164.038 196.102L164.128 196.055C164.987 195.613 166.043 195.952 166.485 196.811ZM160.121 200.084C160.563 200.944 160.225 201.999 159.365 202.441L159.275 202.487C158.416 202.929 157.361 202.59 156.919 201.731C156.477 200.871 156.815 199.816 157.675 199.374L157.764 199.328C158.624 198.886 159.679 199.225 160.121 200.084ZM153.757 203.357C154.199 204.216 153.861 205.271 153.001 205.713L152.912 205.759C152.052 206.202 150.997 205.863 150.555 205.004C150.113 204.144 150.452 203.089 151.311 202.647L151.401 202.601C152.26 202.159 153.315 202.497 153.757 203.357ZM147.394 206.63C147.836 207.489 147.497 208.544 146.638 208.986L146.548 209.032C145.689 209.474 144.634 209.136 144.191 208.276C143.749 207.417 144.088 206.362 144.947 205.92L145.037 205.874C145.897 205.432 146.952 205.77 147.394 206.63ZM141.03 209.902C141.472 210.762 141.134 211.817 140.274 212.259L140.184 212.305C139.325 212.747 138.27 212.409 137.828 211.549C137.386 210.69 137.724 209.634 138.584 209.192L138.673 209.146C139.533 208.704 140.588 209.043 141.03 209.902ZM134.666 213.175C135.108 214.034 134.77 215.09 133.91 215.532L133.821 215.578C132.961 216.02 131.906 215.681 131.464 214.822C131.022 213.962 131.361 212.907 132.22 212.465L132.31 212.419C133.169 211.977 134.224 212.315 134.666 213.175ZM128.303 216.448C128.745 217.307 128.406 218.362 127.547 218.804L127.457 218.85C126.598 219.292 125.543 218.954 125.101 218.095C124.659 217.235 124.997 216.18 125.856 215.738L125.946 215.692C126.806 215.25 127.861 215.588 128.303 216.448ZM121.939 219.72C122.381 220.58 122.043 221.635 121.183 222.077L121.138 222.1C120.279 222.542 119.224 222.204 118.782 221.344C118.34 220.485 118.678 219.43 119.538 218.988L119.582 218.965C120.442 218.522 121.497 218.861 121.939 219.72Z" fill="white"/>
<path fill-rule="evenodd" clip-rule="evenodd" d="M55.4857 162.063C56.3032 161.548 57.3839 161.793 57.8993 162.61L57.9248 162.651C58.4403 163.468 58.1953 164.549 57.3777 165.064C56.5601 165.58 55.4795 165.335 54.9641 164.517L54.9386 164.477C54.4231 163.659 54.6681 162.578 55.4857 162.063ZM59.0851 167.773C59.9027 167.257 60.9833 167.502 61.4988 168.32L61.5498 168.401C62.0653 169.218 61.8203 170.299 61.0027 170.814C60.1851 171.33 59.1045 171.085 58.5891 170.267L58.538 170.186C58.0226 169.369 58.2675 168.288 59.0851 167.773ZM62.7101 173.523C63.5277 173.007 64.6083 173.252 65.1238 174.07L65.1748 174.151C65.6903 174.968 65.4453 176.049 64.6277 176.564C63.8101 177.08 62.7295 176.835 62.2141 176.017L62.163 175.936C61.6476 175.119 61.8925 174.038 62.7101 173.523ZM66.3351 179.273C67.1527 178.757 68.2333 179.002 68.7488 179.82L68.7998 179.901C69.3153 180.718 69.0703 181.799 68.2527 182.314C67.4351 182.83 66.3545 182.585 65.8391 181.767L65.788 181.686C65.2726 180.869 65.5175 179.788 66.3351 179.273ZM69.9601 185.023C70.7777 184.507 71.8583 184.752 72.3738 185.57L72.4248 185.651C72.9403 186.468 72.6953 187.549 71.8777 188.064C71.0601 188.58 69.9795 188.335 69.4641 187.517L69.413 187.436C68.8976 186.619 69.1425 185.538 69.9601 185.023ZM73.5851 190.773C74.4027 190.257 75.4833 190.502 75.9988 191.32L76.0498 191.401C76.5653 192.218 76.3203 193.299 75.5027 193.814C74.6851 194.33 73.6045 194.085 73.0891 193.267L73.038 193.186C72.5226 192.369 72.7675 191.288 73.5851 190.773ZM77.2101 196.523C78.0277 196.007 79.1083 196.252 79.6238 197.07L79.6748 197.151C80.1903 197.968 79.9453 199.049 79.1277 199.564C78.3101 200.08 77.2295 199.835 76.7141 199.017L76.663 198.936C76.1476 198.119 76.3925 197.038 77.2101 196.523ZM80.8351 202.273C81.6527 201.757 82.7333 202.002 83.2488 202.82L83.2998 202.901C83.8153 203.718 83.5703 204.799 82.7527 205.314C81.9351 205.83 80.8545 205.585 80.3391 204.767L80.288 204.686C79.7726 203.869 80.0175 202.788 80.8351 202.273ZM84.4601 208.023C85.2777 207.507 86.3583 207.752 86.8738 208.57L86.8993 208.61C87.4147 209.428 87.1698 210.508 86.3522 211.024C85.5346 211.539 84.454 211.294 83.9386 210.477L83.913 210.436C83.3976 209.619 83.6425 208.538 84.4601 208.023Z" fill="white"/>
<path fill-rule="evenodd" clip-rule="evenodd" d="M27.3108 128.189C28.0589 127.577 29.1614 127.687 29.7734 128.435L29.8051 128.474C30.4171 129.222 30.3069 130.325 29.5589 130.937C28.8108 131.549 27.7083 131.438 27.0963 130.69L27.0646 130.652C26.4525 129.904 26.5628 128.801 27.3108 128.189ZM31.7791 133.65C32.5272 133.038 33.6297 133.148 34.2417 133.896L34.2734 133.935C34.8854 134.683 34.7752 135.786 34.0272 136.398C33.2791 137.01 32.1766 136.9 31.5646 136.152L31.5329 136.113C30.9209 135.365 31.0311 134.262 31.7791 133.65Z" fill="white"/>
<path fill-rule="evenodd" clip-rule="evenodd" d="M37.5123 160.177C36.7576 159.573 35.6564 159.695 35.0526 160.45L35.0244 160.485C34.4207 161.24 34.543 162.341 35.2977 162.945C36.0524 163.549 37.1537 163.427 37.7575 162.672L37.7856 162.637C38.3894 161.882 38.267 160.781 37.5123 160.177ZM33.5405 165.142C32.7858 164.538 31.6845 164.66 31.0808 165.415L31.0244 165.485C30.4207 166.24 30.543 167.341 31.2977 167.945C32.0524 168.549 33.1537 168.427 33.7575 167.672L33.8138 167.601C34.4176 166.847 34.2952 165.745 33.5405 165.142ZM29.5405 170.142C28.7858 169.538 27.6845 169.66 27.0808 170.415L27.0526 170.45C26.4488 171.205 26.5712 172.306 27.3259 172.91C28.0806 173.514 29.1819 173.391 29.7856 172.637L29.8138 172.601C30.4176 171.847 30.2952 170.745 29.5405 170.142Z" fill="white"/>
<path fill-rule="evenodd" clip-rule="evenodd" d="M85.6182 248.439C86.5042 248.825 86.9093 249.857 86.5231 250.743L86.5032 250.788C86.117 251.674 85.0857 252.08 84.1997 251.693C83.3137 251.307 82.9085 250.276 83.2947 249.39L83.3147 249.344C83.7009 248.458 84.7322 248.053 85.6182 248.439ZM82.8048 254.893C83.6908 255.28 84.0959 256.311 83.7097 257.197L83.6698 257.288C83.2836 258.174 82.2523 258.58 81.3663 258.193C80.4804 257.807 80.0752 256.776 80.4614 255.89L80.5013 255.798C80.8875 254.912 81.9188 254.507 82.8048 254.893ZM79.9715 261.393C80.8574 261.78 81.2626 262.811 80.8764 263.697L80.8365 263.788C80.4503 264.674 79.419 265.08 78.533 264.693C77.647 264.307 77.2419 263.276 77.6281 262.39L77.668 262.298C78.0542 261.412 79.0855 261.007 79.9715 261.393ZM77.1381 267.893C78.0241 268.28 78.4293 269.311 78.0431 270.197L78.0032 270.288C77.617 271.174 76.5857 271.58 75.6997 271.193C74.8137 270.807 74.4085 269.776 74.7947 268.89L74.8346 268.798C75.2208 267.912 76.2521 267.507 77.1381 267.893ZM74.3048 274.393C75.1908 274.78 75.5959 275.811 75.2097 276.697L75.1698 276.788C74.7836 277.674 73.7523 278.08 72.8663 277.693C71.9804 277.307 71.5752 276.276 71.9614 275.39L72.0013 275.298C72.3875 274.412 73.4188 274.007 74.3048 274.393ZM71.4715 280.893C72.3574 281.28 72.7626 282.311 72.3764 283.197L72.3365 283.288C71.9503 284.174 70.919 284.58 70.033 284.193C69.147 283.807 68.7419 282.776 69.1281 281.89L69.168 281.798C69.5542 280.912 70.5855 280.507 71.4715 280.893ZM68.6381 287.393C69.5241 287.78 69.9293 288.811 69.5431 289.697L69.5032 289.788C69.117 290.674 68.0857 291.08 67.1997 290.693C66.3137 290.307 65.9085 289.276 66.2947 288.39L66.3346 288.298C66.7208 287.412 67.7521 287.007 68.6381 287.393ZM65.8048 293.893C66.6908 294.28 67.0959 295.311 66.7097 296.197L66.6698 296.288C66.2836 297.174 65.2523 297.58 64.3663 297.193C63.4804 296.807 63.0752 295.776 63.4614 294.89L63.5013 294.798C63.8875 293.912 64.9188 293.507 65.8048 293.893ZM62.9715 300.393C63.8574 300.78 64.2626 301.811 63.8764 302.697L63.8365 302.788C63.4503 303.674 62.419 304.08 61.533 303.693C60.647 303.307 60.2419 302.276 60.6281 301.39L60.668 301.298C61.0542 300.412 62.0855 300.007 62.9715 300.393ZM60.1381 306.893C61.0241 307.28 61.4293 308.311 61.0431 309.197L61.0231 309.243C60.6369 310.129 59.6056 310.534 58.7196 310.148C57.8336 309.761 57.4285 308.73 57.8147 307.844L57.8346 307.798C58.2208 306.912 59.2521 306.507 60.1381 306.893Z" fill="white"/>
<path fill-rule="evenodd" clip-rule="evenodd" d="M114.576 244.921C115.196 244.18 116.299 244.081 117.041 244.7L117.078 244.731C117.819 245.351 117.918 246.455 117.299 247.196C116.679 247.938 115.575 248.037 114.834 247.417L114.797 247.386C114.055 246.767 113.956 245.663 114.576 244.921ZM119.754 249.248C120.373 248.506 121.477 248.407 122.219 249.027L122.292 249.088C123.034 249.708 123.133 250.812 122.513 251.553C121.893 252.295 120.79 252.394 120.048 251.774L119.974 251.713C119.233 251.093 119.134 249.989 119.754 249.248ZM124.968 253.605C125.588 252.863 126.691 252.764 127.433 253.384L127.506 253.445C128.248 254.065 128.347 255.169 127.727 255.91C127.107 256.652 126.004 256.751 125.262 256.131L125.189 256.07C124.447 255.45 124.348 254.346 124.968 253.605ZM130.182 257.962C130.802 257.22 131.906 257.122 132.647 257.741L132.721 257.803C133.462 258.422 133.561 259.526 132.941 260.268C132.322 261.009 131.218 261.108 130.476 260.488L130.403 260.427C129.661 259.807 129.563 258.704 130.182 257.962ZM135.397 262.319C136.016 261.577 137.12 261.479 137.862 262.098L137.935 262.16C138.677 262.779 138.775 263.883 138.156 264.625C137.536 265.366 136.432 265.465 135.691 264.846L135.617 264.784C134.876 264.164 134.777 263.061 135.397 262.319ZM140.611 266.676C141.231 265.935 142.334 265.836 143.076 266.456L143.149 266.517C143.891 267.137 143.99 268.24 143.37 268.982C142.75 269.724 141.647 269.822 140.905 269.203L140.832 269.141C140.09 268.522 139.991 267.418 140.611 266.676ZM145.825 271.033C146.445 270.292 147.548 270.193 148.29 270.813L148.364 270.874C149.105 271.494 149.204 272.597 148.584 273.339C147.965 274.081 146.861 274.18 146.119 273.56L146.046 273.498C145.304 272.879 145.205 271.775 145.825 271.033ZM151.039 275.391C151.659 274.649 152.763 274.55 153.504 275.17L153.541 275.2C154.283 275.82 154.382 276.924 153.762 277.666C153.142 278.407 152.039 278.506 151.297 277.886L151.26 277.856C150.518 277.236 150.42 276.132 151.039 275.391Z" fill="white"/>
<path fill-rule="evenodd" clip-rule="evenodd" d="M191.627 296.18C191.828 295.234 192.757 294.631 193.702 294.832L193.752 294.843C194.697 295.044 195.301 295.973 195.1 296.919C194.898 297.864 193.969 298.467 193.024 298.266L192.974 298.256C192.029 298.054 191.425 297.125 191.627 296.18ZM198.627 297.669C198.828 296.724 199.757 296.12 200.703 296.322L200.802 296.343C201.747 296.544 202.351 297.473 202.15 298.419C201.948 299.364 201.019 299.967 200.074 299.766L199.974 299.745C199.029 299.544 198.426 298.614 198.627 297.669ZM205.677 299.169C205.878 298.224 206.807 297.62 207.753 297.822L207.852 297.843C208.797 298.044 209.401 298.973 209.2 299.919C208.998 300.864 208.069 301.467 207.124 301.266L207.024 301.245C206.079 301.044 205.476 300.114 205.677 299.169ZM212.727 300.669C212.928 299.724 213.857 299.12 214.803 299.322L214.902 299.343C215.847 299.544 216.451 300.473 216.25 301.419C216.048 302.364 215.119 302.967 214.174 302.766L214.074 302.745C213.129 302.544 212.526 301.614 212.727 300.669ZM219.777 302.169C219.978 301.224 220.907 300.62 221.853 300.822L221.952 300.843C222.897 301.044 223.501 301.973 223.3 302.919C223.098 303.864 222.169 304.467 221.224 304.266L221.124 304.245C220.179 304.044 219.576 303.114 219.777 302.169ZM226.827 303.669C227.028 302.724 227.957 302.12 228.903 302.322L229.002 302.343C229.947 302.544 230.551 303.473 230.35 304.419C230.148 305.364 229.219 305.967 228.274 305.766L228.174 305.745C227.229 305.544 226.626 304.614 226.827 303.669ZM233.877 305.169C234.078 304.224 235.007 303.62 235.953 303.822L236.052 303.843C236.997 304.044 237.601 304.973 237.4 305.919C237.198 306.864 236.269 307.467 235.324 307.266L235.224 307.245C234.279 307.044 233.676 306.114 233.877 305.169ZM240.927 306.669C241.128 305.724 242.057 305.12 243.003 305.322L243.102 305.343C244.047 305.544 244.651 306.473 244.45 307.419C244.248 308.364 243.319 308.967 242.374 308.766L242.274 308.745C241.329 308.544 240.726 307.614 240.927 306.669ZM247.977 308.169C248.178 307.224 249.107 306.62 250.053 306.822L250.152 306.843C251.097 307.044 251.701 307.973 251.5 308.919C251.298 309.864 250.369 310.467 249.424 310.266L249.324 310.245C248.379 310.044 247.776 309.114 247.977 308.169ZM255.027 309.669C255.228 308.724 256.157 308.12 257.103 308.322L257.202 308.343C258.147 308.544 258.751 309.473 258.55 310.419C258.348 311.364 257.419 311.967 256.474 311.766L256.374 311.745C255.429 311.544 254.826 310.614 255.027 309.669ZM262.077 311.169C262.278 310.224 263.207 309.62 264.153 309.822L264.202 309.832C265.148 310.033 265.751 310.963 265.55 311.908C265.349 312.853 264.419 313.457 263.474 313.256L263.424 313.245C262.479 313.044 261.876 312.114 262.077 311.169Z" fill="white"/>
<path fill-rule="evenodd" clip-rule="evenodd" d="M149.587 295.516C149.879 296.437 149.368 297.42 148.447 297.712L148.401 297.727C147.479 298.018 146.496 297.508 146.204 296.586C145.913 295.665 146.423 294.681 147.345 294.39L147.391 294.375C148.312 294.084 149.296 294.594 149.587 295.516ZM143.05 297.584C143.342 298.506 142.831 299.489 141.91 299.781L141.817 299.81C140.896 300.102 139.912 299.591 139.621 298.67C139.329 297.748 139.84 296.765 140.761 296.473L140.854 296.444C141.775 296.152 142.759 296.663 143.05 297.584ZM136.467 299.668C136.759 300.589 136.248 301.572 135.327 301.864L135.234 301.893C134.312 302.185 133.329 301.674 133.037 300.753C132.746 299.831 133.256 298.848 134.178 298.556L134.271 298.527C135.192 298.235 136.175 298.746 136.467 299.668ZM129.884 301.751C130.175 302.672 129.665 303.656 128.743 303.947L128.651 303.977C127.729 304.268 126.746 303.758 126.454 302.836C126.163 301.915 126.673 300.931 127.595 300.64L127.687 300.61C128.609 300.319 129.592 300.829 129.884 301.751ZM123.3 303.834C123.592 304.756 123.081 305.739 122.16 306.031L122.067 306.06C121.146 306.352 120.162 305.841 119.871 304.92C119.579 303.998 120.09 303.015 121.011 302.723L121.104 302.694C122.025 302.402 123.009 302.913 123.3 303.834ZM116.717 305.918C117.009 306.839 116.498 307.822 115.577 308.114L115.484 308.143C114.562 308.435 113.579 307.924 113.287 307.003C112.996 306.081 113.506 305.098 114.428 304.806L114.521 304.777C115.442 304.486 116.425 304.996 116.717 305.918ZM110.134 308.001C110.425 308.922 109.915 309.906 108.993 310.197L108.901 310.227C107.979 310.518 106.996 310.008 106.704 309.086C106.413 308.165 106.923 307.181 107.845 306.89L107.937 306.86C108.859 306.569 109.842 307.079 110.134 308.001ZM103.55 310.084C103.842 311.006 103.331 311.989 102.41 312.281L102.317 312.31C101.396 312.602 100.412 312.091 100.121 311.17C99.8292 310.248 100.34 309.265 101.261 308.973L101.354 308.944C102.275 308.652 103.259 309.163 103.55 310.084ZM96.9671 312.168C97.2587 313.089 96.7481 314.072 95.8266 314.364L95.7339 314.393C94.8124 314.685 93.829 314.174 93.5374 313.253C93.2458 312.331 93.7564 311.348 94.6779 311.056L94.7706 311.027C95.6921 310.736 96.6755 311.246 96.9671 312.168ZM90.3837 314.251C90.6753 315.172 90.1647 316.156 89.2433 316.447L89.1506 316.477C88.2291 316.768 87.2457 316.258 86.9541 315.336C86.6625 314.415 87.1731 313.431 88.0946 313.14L88.1873 313.11C89.1088 312.819 90.0921 313.329 90.3837 314.251ZM83.8004 316.334C84.092 317.256 83.5814 318.239 82.6599 318.531L82.5672 318.56C81.6458 318.852 80.6624 318.341 80.3708 317.42C80.0792 316.498 80.5898 315.515 81.5112 315.223L81.604 315.194C82.5254 314.902 83.5088 315.413 83.8004 316.334ZM77.2171 318.418C77.5087 319.339 76.9981 320.322 76.0766 320.614L75.9839 320.643C75.0624 320.935 74.079 320.424 73.7874 319.503C73.4958 318.581 74.0064 317.598 74.9279 317.306L75.0206 317.277C75.9421 316.986 76.9255 317.496 77.2171 318.418ZM70.6337 320.501C70.9253 321.422 70.4147 322.406 69.4933 322.697L69.4469 322.712C68.5255 323.004 67.5421 322.493 67.2505 321.572C66.9589 320.65 67.4695 319.667 68.3909 319.375L68.4373 319.36C69.3588 319.069 70.3421 319.579 70.6337 320.501Z" fill="white"/>
<path fill-rule="evenodd" clip-rule="evenodd" d="M202.374 193.878C203.294 194.174 203.8 195.16 203.504 196.08L203.489 196.127C203.193 197.047 202.207 197.553 201.287 197.256C200.367 196.96 199.861 195.974 200.157 195.054L200.172 195.008C200.468 194.088 201.454 193.582 202.374 193.878ZM200.253 200.468C201.173 200.764 201.679 201.75 201.383 202.67L201.353 202.763C201.056 203.683 200.07 204.189 199.15 203.893C198.23 203.597 197.725 202.611 198.021 201.691L198.051 201.597C198.347 200.677 199.333 200.172 200.253 200.468ZM198.117 207.104C199.037 207.4 199.542 208.386 199.246 209.306L199.216 209.4C198.92 210.32 197.934 210.825 197.014 210.529C196.094 210.233 195.588 209.247 195.885 208.327L195.915 208.234C196.211 207.314 197.197 206.808 198.117 207.104ZM195.98 213.74C196.9 214.037 197.406 215.022 197.11 215.942L197.08 216.036C196.784 216.956 195.798 217.462 194.878 217.166C193.958 216.869 193.452 215.883 193.748 214.963L193.778 214.87C194.074 213.95 195.06 213.444 195.98 213.74ZM193.844 220.377C194.764 220.673 195.27 221.659 194.974 222.579L194.943 222.672C194.647 223.592 193.661 224.098 192.741 223.802C191.821 223.506 191.316 222.52 191.612 221.6L191.642 221.506C191.938 220.586 192.924 220.081 193.844 220.377ZM191.708 227.013C192.628 227.309 193.133 228.295 192.837 229.215L192.807 229.309C192.511 230.229 191.525 230.734 190.605 230.438C189.685 230.142 189.179 229.156 189.475 228.236L189.506 228.143C189.802 227.223 190.788 226.717 191.708 227.013ZM189.571 233.649C190.491 233.946 190.997 234.932 190.701 235.852L190.671 235.945C190.375 236.865 189.389 237.371 188.469 237.075C187.549 236.778 187.043 235.793 187.339 234.873L187.369 234.779C187.665 233.859 188.651 233.353 189.571 233.649ZM187.435 240.286C188.355 240.582 188.861 241.568 188.564 242.488L188.534 242.581C188.238 243.501 187.252 244.007 186.332 243.711C185.412 243.415 184.907 242.429 185.203 241.509L185.233 241.415C185.529 240.495 186.515 239.99 187.435 240.286ZM185.299 246.922C186.219 247.218 186.724 248.204 186.428 249.124L186.398 249.218C186.102 250.138 185.116 250.643 184.196 250.347C183.276 250.051 182.77 249.065 183.066 248.145L183.096 248.052C183.393 247.132 184.379 246.626 185.299 246.922ZM183.162 253.559C184.082 253.855 184.588 254.841 184.292 255.761L184.262 255.854C183.965 256.774 182.98 257.28 182.06 256.984C181.14 256.688 180.634 255.702 180.93 254.782L180.96 254.688C181.256 253.768 182.242 253.262 183.162 253.559ZM181.026 260.195C181.946 260.491 182.452 261.477 182.155 262.397L182.125 262.49C181.829 263.41 180.843 263.916 179.923 263.62C179.003 263.324 178.497 262.338 178.794 261.418L178.824 261.325C179.12 260.405 180.106 259.899 181.026 260.195ZM178.889 266.831C179.809 267.127 180.315 268.113 180.019 269.033L180.004 269.08C179.708 270 178.722 270.506 177.802 270.21C176.882 269.914 176.376 268.928 176.672 268.008L176.687 267.961C176.984 267.041 177.969 266.535 178.889 266.831Z" fill="white"/>
<path fill-rule="evenodd" clip-rule="evenodd" d="M215.518 192.997C216.371 192.544 217.431 192.869 217.884 193.723L217.907 193.766C218.36 194.62 218.035 195.679 217.182 196.133C216.328 196.586 215.269 196.261 214.815 195.407L214.792 195.364C214.339 194.51 214.664 193.45 215.518 192.997ZM218.788 199.16C219.642 198.706 220.702 199.031 221.155 199.885L221.201 199.972C221.654 200.826 221.329 201.885 220.476 202.338C219.622 202.792 218.563 202.467 218.11 201.613L218.063 201.526C217.61 200.672 217.935 199.613 218.788 199.16ZM222.083 205.365C222.936 204.912 223.996 205.237 224.449 206.091L224.495 206.178C224.948 207.032 224.624 208.091 223.77 208.544C222.916 208.997 221.857 208.673 221.404 207.819L221.357 207.732C220.904 206.878 221.229 205.819 222.083 205.365ZM225.377 211.571C226.23 211.118 227.29 211.443 227.743 212.297L227.789 212.384C228.242 213.238 227.918 214.297 227.064 214.75C226.21 215.203 225.151 214.879 224.698 214.025L224.651 213.938C224.198 213.084 224.523 212.024 225.377 211.571ZM228.671 217.777C229.524 217.324 230.584 217.649 231.037 218.502L231.083 218.59C231.537 219.444 231.212 220.503 230.358 220.956C229.504 221.409 228.445 221.084 227.992 220.231L227.946 220.143C227.492 219.29 227.817 218.23 228.671 217.777ZM231.965 223.983C232.819 223.53 233.878 223.855 234.331 224.708L234.378 224.796C234.831 225.649 234.506 226.709 233.652 227.162C232.799 227.615 231.739 227.29 231.286 226.437L231.24 226.349C230.787 225.496 231.111 224.436 231.965 223.983ZM235.259 230.189C236.113 229.736 237.172 230.06 237.625 230.914L237.672 231.002C238.125 231.855 237.8 232.915 236.946 233.368C236.093 233.821 235.033 233.496 234.58 232.643L234.534 232.555C234.081 231.701 234.405 230.642 235.259 230.189ZM238.553 236.395C239.407 235.942 240.466 236.266 240.919 237.12L240.966 237.207C241.419 238.061 241.094 239.121 240.24 239.574C239.387 240.027 238.327 239.702 237.874 238.848L237.828 238.761C237.375 237.907 237.699 236.848 238.553 236.395ZM241.847 242.601C242.701 242.148 243.76 242.472 244.213 243.326L244.26 243.413C244.713 244.267 244.388 245.326 243.535 245.78C242.681 246.233 241.622 245.908 241.168 245.054L241.122 244.967C240.669 244.113 240.994 243.054 241.847 242.601ZM245.141 248.807C245.995 248.353 247.054 248.678 247.508 249.532L247.554 249.619C248.007 250.473 247.682 251.532 246.829 251.985C245.975 252.439 244.916 252.114 244.463 251.26L244.416 251.173C243.963 250.319 244.288 249.26 245.141 248.807ZM248.435 255.012C249.289 254.559 250.349 254.884 250.802 255.738L250.848 255.825C251.301 256.679 250.977 257.738 250.123 258.191C249.269 258.644 248.21 258.32 247.757 257.466L247.71 257.379C247.257 256.525 247.582 255.466 248.435 255.012ZM251.73 261.218C252.583 260.765 253.643 261.09 254.096 261.944L254.142 262.031C254.595 262.885 254.271 263.944 253.417 264.397C252.563 264.85 251.504 264.526 251.051 263.672L251.004 263.585C250.551 262.731 250.876 261.671 251.73 261.218ZM255.024 267.424C255.877 266.971 256.937 267.296 257.39 268.149L257.436 268.237C257.889 269.091 257.565 270.15 256.711 270.603C255.857 271.056 254.798 270.732 254.345 269.878L254.298 269.79C253.845 268.937 254.17 267.877 255.024 267.424ZM258.318 273.63C259.172 273.177 260.231 273.502 260.684 274.355L260.73 274.443C261.184 275.296 260.859 276.356 260.005 276.809C259.152 277.262 258.092 276.937 257.639 276.084L257.593 275.996C257.139 275.143 257.464 274.083 258.318 273.63ZM261.612 279.836C262.466 279.383 263.525 279.708 263.978 280.561L264.025 280.649C264.478 281.502 264.153 282.562 263.299 283.015C262.446 283.468 261.386 283.143 260.933 282.29L260.887 282.202C260.434 281.349 260.758 280.289 261.612 279.836ZM264.906 286.042C265.76 285.589 266.819 285.913 267.272 286.767L267.319 286.855C267.772 287.708 267.447 288.768 266.593 289.221C265.74 289.674 264.68 289.349 264.227 288.496L264.181 288.408C263.728 287.554 264.052 286.495 264.906 286.042ZM268.2 292.248C269.054 291.795 270.113 292.119 270.566 292.973L270.613 293.06C271.066 293.914 270.741 294.974 269.888 295.427C269.034 295.88 267.974 295.555 267.521 294.701L267.475 294.614C267.022 293.76 267.347 292.701 268.2 292.248ZM271.494 298.454C272.348 298.001 273.407 298.325 273.861 299.179L273.884 299.223C274.337 300.076 274.012 301.136 273.158 301.589C272.305 302.042 271.245 301.717 270.792 300.864L270.769 300.82C270.316 299.966 270.641 298.907 271.494 298.454Z" fill="white"/>
<path fill-rule="evenodd" clip-rule="evenodd" d="M294.566 205.308C295.524 205.434 296.199 206.313 296.073 207.271L296.067 207.321C295.941 208.279 295.062 208.954 294.104 208.828C293.146 208.702 292.471 207.824 292.596 206.865L292.603 206.816C292.729 205.858 293.607 205.183 294.566 205.308ZM293.649 212.297C294.607 212.423 295.282 213.302 295.157 214.26L295.144 214.359C295.018 215.317 294.139 215.992 293.181 215.867C292.223 215.741 291.548 214.862 291.673 213.904L291.686 213.805C291.812 212.846 292.691 212.171 293.649 212.297ZM292.726 219.336C293.684 219.461 294.359 220.34 294.234 221.298L294.221 221.397C294.095 222.356 293.216 223.031 292.258 222.905C291.3 222.779 290.625 221.901 290.75 220.942L290.763 220.843C290.889 219.885 291.768 219.21 292.726 219.336ZM291.803 226.374C292.761 226.5 293.436 227.378 293.311 228.337L293.298 228.436C293.172 229.394 292.293 230.069 291.335 229.943C290.377 229.818 289.702 228.939 289.827 227.981L289.84 227.882C289.966 226.923 290.845 226.248 291.803 226.374ZM290.88 233.413C291.838 233.538 292.513 234.417 292.387 235.375L292.374 235.474C292.249 236.433 291.37 237.108 290.412 236.982C289.453 236.856 288.778 235.978 288.904 235.019L288.917 234.92C289.043 233.962 289.922 233.287 290.88 233.413ZM289.957 240.451C290.915 240.577 291.59 241.455 291.464 242.414L291.451 242.513C291.326 243.471 290.447 244.146 289.489 244.02C288.53 243.895 287.855 243.016 287.981 242.058L287.994 241.959C288.12 241 288.998 240.325 289.957 240.451ZM289.034 247.489C289.992 247.615 290.667 248.494 290.541 249.452L290.528 249.551C290.403 250.51 289.524 251.185 288.566 251.059C287.607 250.933 286.932 250.054 287.058 249.096L287.071 248.997C287.197 248.039 288.075 247.364 289.034 247.489ZM288.111 254.528C289.069 254.654 289.744 255.532 289.618 256.491L289.605 256.59C289.48 257.548 288.601 258.223 287.642 258.097C286.684 257.972 286.009 257.093 286.135 256.135L286.148 256.036C286.274 255.077 287.152 254.402 288.111 254.528ZM287.188 261.566C288.146 261.692 288.821 262.571 288.695 263.529L288.682 263.628C288.556 264.587 287.678 265.261 286.719 265.136C285.761 265.01 285.086 264.131 285.212 263.173L285.225 263.074C285.351 262.116 286.229 261.441 287.188 261.566ZM286.264 268.605C287.223 268.731 287.898 269.609 287.772 270.568L287.759 270.667C287.633 271.625 286.755 272.3 285.796 272.174C284.838 272.049 284.163 271.17 284.289 270.212L284.302 270.112C284.427 269.154 285.306 268.479 286.264 268.605ZM285.341 275.643C286.3 275.769 286.975 276.648 286.849 277.606L286.836 277.705C286.71 278.663 285.832 279.338 284.873 279.213C283.915 279.087 283.24 278.208 283.366 277.25L283.379 277.151C283.504 276.193 284.383 275.518 285.341 275.643ZM284.418 282.682C285.377 282.807 286.052 283.686 285.926 284.644L285.913 284.744C285.787 285.702 284.908 286.377 283.95 286.251C282.992 286.126 282.317 285.247 282.443 284.288L282.456 284.189C282.581 283.231 283.46 282.556 284.418 282.682ZM283.495 289.72C284.454 289.846 285.128 290.725 285.003 291.683L284.99 291.782C284.864 292.74 283.985 293.415 283.027 293.29C282.069 293.164 281.394 292.285 281.52 291.327L281.533 291.228C281.658 290.27 282.537 289.595 283.495 289.72ZM282.572 296.759C283.53 296.884 284.205 297.763 284.08 298.721L284.073 298.771C283.948 299.729 283.069 300.404 282.111 300.279C281.152 300.153 280.477 299.274 280.603 298.316L280.609 298.266C280.735 297.308 281.614 296.633 282.572 296.759Z" fill="white"/>
<path fill-rule="evenodd" clip-rule="evenodd" d="M226.291 98.6417C227.065 98.0634 228.162 98.2222 228.74 98.9966L228.771 99.0373C229.349 99.8117 229.19 100.908 228.416 101.487C227.642 102.065 226.545 101.906 225.967 101.132L225.936 101.091C225.358 100.317 225.517 99.2201 226.291 98.6417ZM230.582 104.387C231.356 103.808 232.453 103.967 233.031 104.742L233.092 104.823C233.671 105.597 233.512 106.694 232.737 107.272C231.963 107.851 230.866 107.692 230.288 106.917L230.227 106.836C229.649 106.062 229.808 104.965 230.582 104.387ZM234.903 110.172C235.678 109.594 236.774 109.753 237.353 110.527L237.414 110.609C237.992 111.383 237.833 112.48 237.059 113.058C236.284 113.636 235.188 113.478 234.609 112.703L234.549 112.622C233.97 111.847 234.129 110.751 234.903 110.172ZM239.225 115.958C239.999 115.38 241.096 115.539 241.674 116.313L241.735 116.394C242.313 117.169 242.155 118.265 241.38 118.844C240.606 119.422 239.509 119.263 238.931 118.489L238.87 118.407C238.292 117.633 238.451 116.536 239.225 115.958ZM243.546 121.744C244.321 121.165 245.417 121.324 245.996 122.099L246.056 122.18C246.635 122.955 246.476 124.051 245.702 124.629C244.927 125.208 243.831 125.049 243.252 124.275L243.191 124.193C242.613 123.419 242.772 122.322 243.546 121.744ZM247.868 127.53C248.642 126.951 249.739 127.11 250.317 127.884L250.378 127.966C250.956 128.74 250.797 129.837 250.023 130.415C249.249 130.994 248.152 130.835 247.574 130.06L247.513 129.979C246.935 129.205 247.093 128.108 247.868 127.53ZM252.189 133.315C252.963 132.737 254.06 132.896 254.638 133.67L254.699 133.752C255.278 134.526 255.119 135.623 254.344 136.201C253.57 136.779 252.474 136.62 251.895 135.846L251.834 135.765C251.256 134.99 251.415 133.894 252.189 133.315ZM256.511 139.101C257.285 138.523 258.382 138.681 258.96 139.456L259.021 139.537C259.599 140.312 259.44 141.408 258.666 141.987C257.892 142.565 256.795 142.406 256.217 141.632L256.156 141.55C255.577 140.776 255.736 139.679 256.511 139.101ZM260.832 144.887C261.606 144.308 262.703 144.467 263.281 145.242L263.342 145.323C263.921 146.097 263.762 147.194 262.987 147.772C262.213 148.351 261.116 148.192 260.538 147.417L260.477 147.336C259.899 146.562 260.058 145.465 260.832 144.887ZM265.153 150.672C265.928 150.094 267.024 150.253 267.603 151.027L267.664 151.109C268.242 151.883 268.083 152.98 267.309 153.558C266.534 154.136 265.438 153.978 264.859 153.203L264.799 153.122C264.22 152.347 264.379 151.251 265.153 150.672ZM269.475 156.458C270.249 155.88 271.346 156.039 271.924 156.813L271.985 156.894C272.563 157.669 272.405 158.765 271.63 159.344C270.856 159.922 269.759 159.763 269.181 158.989L269.12 158.907C268.542 158.133 268.701 157.037 269.475 156.458ZM273.796 162.244C274.571 161.665 275.667 161.824 276.246 162.599L276.306 162.68C276.885 163.455 276.726 164.551 275.952 165.129C275.177 165.708 274.081 165.549 273.502 164.775L273.441 164.693C272.863 163.919 273.022 162.822 273.796 162.244ZM278.118 168.03C278.892 167.451 279.989 167.61 280.567 168.384L280.628 168.466C281.206 169.24 281.047 170.337 280.273 170.915C279.499 171.494 278.402 171.335 277.824 170.56L277.763 170.479C277.185 169.705 277.343 168.608 278.118 168.03ZM282.439 173.815C283.214 173.237 284.31 173.396 284.888 174.17L284.949 174.252C285.528 175.026 285.369 176.123 284.594 176.701C283.82 177.279 282.724 177.12 282.145 176.346L282.084 176.265C281.506 175.49 281.665 174.394 282.439 173.815ZM286.761 179.601C287.535 179.023 288.632 179.182 289.21 179.956L289.24 179.997C289.819 180.771 289.66 181.868 288.885 182.446C288.111 183.024 287.015 182.865 286.436 182.091L286.406 182.05C285.827 181.276 285.986 180.179 286.761 179.601Z" fill="white"/>
<path fill-rule="evenodd" clip-rule="evenodd" d="M225.614 180.243C225.78 179.291 226.687 178.654 227.639 178.82L227.687 178.828C228.639 178.994 229.276 179.9 229.11 180.853C228.944 181.805 228.038 182.442 227.086 182.276L227.038 182.268C226.086 182.102 225.448 181.195 225.614 180.243ZM232.379 181.422C232.545 180.47 233.451 179.833 234.403 179.999L234.499 180.016C235.451 180.182 236.089 181.088 235.923 182.04C235.757 182.992 234.85 183.63 233.898 183.464L233.802 183.447C232.85 183.281 232.213 182.375 232.379 181.422ZM239.191 182.61C239.357 181.658 240.264 181.02 241.216 181.186L241.312 181.203C242.264 181.369 242.901 182.275 242.735 183.228C242.569 184.18 241.663 184.817 240.711 184.651L240.615 184.634C239.663 184.468 239.025 183.562 239.191 182.61ZM246.004 183.797C246.17 182.845 247.076 182.208 248.028 182.374L248.124 182.391C249.076 182.557 249.714 183.463 249.548 184.415C249.382 185.367 248.475 186.005 247.523 185.839L247.427 185.822C246.475 185.656 245.838 184.75 246.004 183.797ZM252.816 184.985C252.982 184.033 253.889 183.395 254.841 183.561L254.937 183.578C255.889 183.744 256.526 184.65 256.36 185.603C256.194 186.555 255.288 187.192 254.336 187.026L254.24 187.009C253.288 186.843 252.65 185.937 252.816 184.985ZM259.629 186.172C259.795 185.22 260.701 184.583 261.653 184.749L261.749 184.766C262.701 184.932 263.339 185.838 263.173 186.79C263.007 187.742 262.1 188.38 261.148 188.214L261.052 188.197C260.1 188.031 259.463 187.125 259.629 186.172ZM266.441 187.36C266.607 186.408 267.514 185.77 268.466 185.936L268.562 185.953C269.514 186.119 270.151 187.025 269.985 187.978C269.819 188.93 268.913 189.567 267.961 189.401L267.865 189.384C266.913 189.218 266.275 188.312 266.441 187.36ZM273.254 188.547C273.42 187.595 274.326 186.958 275.278 187.124L275.374 187.141C276.326 187.307 276.964 188.213 276.798 189.165C276.632 190.117 275.725 190.755 274.773 190.589L274.677 190.572C273.725 190.406 273.088 189.5 273.254 188.547ZM280.066 189.735C280.232 188.783 281.139 188.145 282.091 188.311L282.139 188.32C283.091 188.486 283.728 189.392 283.562 190.344C283.396 191.296 282.49 191.934 281.538 191.768L281.49 191.759C280.538 191.593 279.9 190.687 280.066 189.735Z" fill="white"/>
<path fill-rule="evenodd" clip-rule="evenodd" d="M215.495 101.301C216.458 101.388 217.168 102.238 217.081 103.201L217.077 103.25C216.99 104.212 216.139 104.922 215.177 104.836C214.214 104.749 213.504 103.898 213.591 102.936L213.595 102.887C213.682 101.924 214.533 101.214 215.495 101.301ZM214.875 108.19C215.837 108.276 216.547 109.127 216.461 110.089L216.452 110.187C216.365 111.15 215.514 111.86 214.552 111.773C213.589 111.686 212.879 110.836 212.966 109.873L212.975 109.775C213.061 108.813 213.912 108.103 214.875 108.19ZM214.25 115.127C215.212 115.214 215.922 116.064 215.836 117.027L215.827 117.125C215.74 118.087 214.889 118.797 213.927 118.711C212.964 118.624 212.254 117.773 212.341 116.811L212.35 116.713C212.436 115.75 213.287 115.04 214.25 115.127ZM213.625 122.065C214.587 122.151 215.297 123.002 215.211 123.964L215.202 124.062C215.115 125.025 214.264 125.735 213.302 125.648C212.339 125.561 211.629 124.711 211.716 123.748L211.725 123.65C211.811 122.688 212.662 121.978 213.625 122.065ZM213 129.002C213.962 129.089 214.672 129.939 214.586 130.902L214.577 131C214.49 131.962 213.639 132.672 212.677 132.586C211.714 132.499 211.004 131.648 211.091 130.686L211.1 130.588C211.186 129.625 212.037 128.915 213 129.002ZM212.375 135.94C213.337 136.026 214.047 136.877 213.961 137.839L213.952 137.937C213.865 138.9 213.014 139.61 212.052 139.523C211.089 139.436 210.379 138.586 210.466 137.623L210.475 137.525C210.561 136.563 211.412 135.853 212.375 135.94ZM211.75 142.877C212.712 142.964 213.422 143.814 213.336 144.777L213.327 144.875C213.24 145.837 212.389 146.547 211.427 146.461C210.464 146.374 209.754 145.523 209.841 144.561L209.85 144.463C209.936 143.5 210.787 142.79 211.75 142.877ZM211.125 149.815C212.087 149.901 212.797 150.752 212.711 151.714L212.702 151.812C212.615 152.775 211.764 153.485 210.802 153.398C209.839 153.311 209.129 152.461 209.216 151.498L209.225 151.4C209.311 150.438 210.162 149.728 211.125 149.815ZM210.5 156.752C211.462 156.839 212.172 157.689 212.086 158.652L212.081 158.701C211.994 159.663 211.144 160.373 210.181 160.287C209.219 160.2 208.509 159.349 208.595 158.387L208.6 158.338C208.686 157.375 209.537 156.665 210.5 156.752Z" fill="white"/>
<path fill-rule="evenodd" clip-rule="evenodd" d="M115.643 62.1097C115.882 61.1733 116.835 60.6085 117.772 60.848L117.818 60.8599C118.755 61.0994 119.32 62.0527 119.08 62.989C118.841 63.9254 117.887 64.4902 116.951 64.2507L116.904 64.2388C115.968 63.9993 115.403 63.046 115.643 62.1097ZM122.211 63.7901C122.451 62.8537 123.404 62.2888 124.341 62.5284L124.434 62.5522C125.37 62.7917 125.935 63.745 125.695 64.6813C125.456 65.6177 124.503 66.1826 123.566 65.943L123.473 65.9192C122.537 65.6797 121.972 64.7264 122.211 63.7901ZM128.827 65.4824C129.066 64.546 130.02 63.9812 130.956 64.2207L131.049 64.2445C131.985 64.484 132.55 65.4373 132.311 66.3736C132.071 67.31 131.118 67.8749 130.182 67.6353L130.089 67.6115C129.152 67.372 128.587 66.4187 128.827 65.4824ZM135.442 67.1747C135.682 66.2383 136.635 65.6735 137.571 65.913L137.665 65.9368C138.601 66.1764 139.166 67.1296 138.926 68.0659C138.687 69.0023 137.733 69.5672 136.797 69.3276L136.704 69.3038C135.768 69.0643 135.203 68.111 135.442 67.1747ZM142.058 68.867C142.297 67.9306 143.25 67.3658 144.187 67.6053L144.28 67.6291C145.216 67.8687 145.781 68.8219 145.542 69.7582C145.302 70.6946 144.349 71.2595 143.412 71.0199L143.319 70.9961C142.383 70.7566 141.818 69.8033 142.058 68.867ZM148.673 70.5593C148.913 69.623 149.866 69.0581 150.802 69.2976L150.895 69.3214C151.832 69.561 152.397 70.5142 152.157 71.4506C151.917 72.3869 150.964 72.9518 150.028 72.7123L149.935 72.6884C148.998 72.4489 148.433 71.4956 148.673 70.5593ZM155.288 72.2516C155.528 71.3153 156.481 70.7504 157.417 70.9899L157.511 71.0137C158.447 71.2533 159.012 72.2065 158.772 73.1429C158.533 74.0792 157.58 74.6441 156.643 74.4046L156.55 74.3807C155.614 74.1412 155.049 73.188 155.288 72.2516ZM161.904 73.9439C162.143 73.0076 163.097 72.4427 164.033 72.6822L164.126 72.7061C165.062 72.9456 165.627 73.8988 165.388 74.8352C165.148 75.7715 164.195 76.3364 163.259 76.0969L163.165 76.073C162.229 75.8335 161.664 74.8803 161.904 73.9439ZM168.519 75.6362C168.759 74.6999 169.712 74.135 170.648 74.3745L170.741 74.3984C171.678 74.6379 172.243 75.5911 172.003 76.5275C171.764 77.4638 170.81 78.0287 169.874 77.7892L169.781 77.7653C168.845 77.5258 168.28 76.5726 168.519 75.6362ZM175.135 77.3285C175.374 76.3922 176.327 75.8273 177.264 76.0668L177.357 76.0907C178.293 76.3302 178.858 77.2834 178.619 78.2198C178.379 79.1561 177.426 79.721 176.489 79.4815L176.396 79.4576C175.46 79.2181 174.895 78.2649 175.135 77.3285ZM181.75 79.0208C181.989 78.0845 182.943 77.5196 183.879 77.7591L183.972 77.783C184.909 78.0225 185.473 78.9757 185.234 79.9121C184.994 80.8484 184.041 81.4133 183.105 81.1738L183.012 81.15C182.075 80.9104 181.51 79.9572 181.75 79.0208ZM188.365 80.7132C188.605 79.7768 189.558 79.2119 190.494 79.4515L190.588 79.4753C191.524 79.7148 192.089 80.6681 191.849 81.6044C191.61 82.5407 190.657 83.1056 189.72 82.8661L189.627 82.8423C188.691 82.6027 188.126 81.6495 188.365 80.7132ZM194.981 82.4055C195.22 81.4691 196.173 80.9042 197.11 81.1438L197.203 81.1676C198.139 81.4071 198.704 82.3604 198.465 83.2967C198.225 84.2331 197.272 84.7979 196.336 84.5584L196.242 84.5346C195.306 84.295 194.741 83.3418 194.981 82.4055ZM201.596 84.0978C201.836 83.1614 202.789 82.5965 203.725 82.8361L203.772 82.848C204.708 83.0875 205.273 84.0408 205.033 84.9771C204.794 85.9134 203.841 86.4783 202.904 86.2388L202.858 86.2269C201.921 85.9874 201.357 85.0341 201.596 84.0978Z" fill="white"/>
<path fill-rule="evenodd" clip-rule="evenodd" d="M94.3101 69.0373C95.1419 69.5294 95.4173 70.6027 94.9251 71.4345L94.9001 71.4768C94.4079 72.3086 93.3347 72.5839 92.5029 72.0918C91.671 71.5996 91.3957 70.5263 91.8879 69.6945L91.9129 69.6523C92.405 68.8205 93.4783 68.5451 94.3101 69.0373ZM90.7851 74.995C91.6169 75.4872 91.8923 76.5605 91.4001 77.3923L91.3501 77.4768C90.8579 78.3086 89.7847 78.5839 88.9529 78.0918C88.121 77.5996 87.8457 76.5263 88.3379 75.6945L88.3879 75.61C88.88 74.7782 89.9533 74.5029 90.7851 74.995ZM87.2351 80.995C88.0669 81.4872 88.3423 82.5605 87.8501 83.3923L87.8001 83.4768C87.3079 84.3086 86.2347 84.5839 85.4029 84.0918C84.571 83.5996 84.2957 82.5263 84.7879 81.6945L84.8379 81.61C85.33 80.7782 86.4033 80.5029 87.2351 80.995ZM83.6851 86.995C84.5169 87.4872 84.7922 88.5605 84.3001 89.3923L84.2501 89.4768C83.7579 90.3086 82.6847 90.5839 81.8529 90.0918C81.021 89.5996 80.7457 88.5263 81.2379 87.6945L81.2879 87.61C81.78 86.7782 82.8533 86.5029 83.6851 86.995ZM80.1351 92.995C80.9669 93.4872 81.2423 94.5605 80.7501 95.3923L80.7001 95.4768C80.2079 96.3086 79.1347 96.5839 78.3029 96.0918C77.471 95.5996 77.1957 94.5263 77.6879 93.6945L77.7379 93.61C78.23 92.7782 79.3033 92.5029 80.1351 92.995ZM76.5851 98.995C77.4169 99.4872 77.6923 100.56 77.2001 101.392L77.1501 101.477C76.6579 102.309 75.5847 102.584 74.7529 102.092C73.921 101.6 73.6457 100.526 74.1379 99.6945L74.1879 99.61C74.68 98.7782 75.7533 98.5029 76.5851 98.995ZM73.0351 104.995C73.8669 105.487 74.1423 106.56 73.6501 107.392L73.6001 107.477C73.1079 108.309 72.0347 108.584 71.2029 108.092C70.371 107.6 70.0957 106.526 70.5879 105.695L70.6379 105.61C71.13 104.778 72.2033 104.503 73.0351 104.995ZM69.4851 110.995C70.3169 111.487 70.5923 112.56 70.1001 113.392L70.0501 113.477C69.5579 114.309 68.4847 114.584 67.6529 114.092C66.821 113.6 66.5457 112.526 67.0379 111.695L67.0879 111.61C67.58 110.778 68.6533 110.503 69.4851 110.995ZM65.9351 116.995C66.7669 117.487 67.0423 118.56 66.5501 119.392L66.5001 119.477C66.0079 120.309 64.9347 120.584 64.1029 120.092C63.271 119.6 62.9957 118.526 63.4879 117.695L63.5379 117.61C64.03 116.778 65.1033 116.503 65.9351 116.995ZM62.3851 122.995C63.2169 123.487 63.4923 124.56 63.0001 125.392L62.9501 125.477C62.4579 126.309 61.3847 126.584 60.5529 126.092C59.721 125.6 59.4457 124.526 59.9379 123.695L59.9879 123.61C60.48 122.778 61.5533 122.503 62.3851 122.995ZM58.8351 128.995C59.6669 129.487 59.9423 130.56 59.4501 131.392L59.4251 131.435C58.9329 132.266 57.8597 132.542 57.0279 132.05C56.196 131.557 55.9207 130.484 56.4129 129.652L56.4379 129.61C56.93 128.778 58.0033 128.503 58.8351 128.995Z" fill="white"/>
<path fill-rule="evenodd" clip-rule="evenodd" d="M90.4894 62.464C90.8094 63.376 90.3295 64.3747 89.4175 64.6947L89.3729 64.7103C88.4609 65.0303 87.4622 64.5504 87.1422 63.6384C86.8222 62.7264 87.3021 61.7277 88.2141 61.4077L88.2587 61.3921C89.1707 61.0721 90.1694 61.552 90.4894 62.464ZM84.2007 64.6706C84.5207 65.5825 84.0408 66.5813 83.1288 66.9013L83.0396 66.9326C82.1276 67.2526 81.1289 66.7726 80.8089 65.8607C80.4889 64.9487 80.9688 63.95 81.8808 63.63L81.97 63.5987C82.882 63.2787 83.8807 63.7586 84.2007 64.6706ZM77.8674 66.8928C78.1874 67.8048 77.7075 68.8035 76.7955 69.1235L76.7063 69.1548C75.7943 69.4748 74.7956 68.9949 74.4756 68.0829C74.1556 67.1709 74.6355 66.1722 75.5475 65.8522L75.6367 65.8209C76.5486 65.5009 77.5474 65.9808 77.8674 66.8928ZM71.534 69.115C71.854 70.027 71.3741 71.0257 70.4621 71.3457L70.3729 71.377C69.4609 71.697 68.4622 71.2171 68.1422 70.3051C67.8222 69.3931 68.3021 68.3944 69.2141 68.0744L69.3033 68.0431C70.2153 67.7231 71.214 68.203 71.534 69.115ZM65.2007 71.3372C65.5207 72.2492 65.0408 73.2479 64.1288 73.5679L64.0396 73.5992C63.1276 73.9192 62.1289 73.4393 61.8089 72.5273C61.4889 71.6153 61.9688 70.6166 62.8808 70.2966L62.97 70.2653C63.882 69.9453 64.8807 70.4252 65.2007 71.3372ZM58.8674 73.5594C59.1874 74.4714 58.7075 75.4701 57.7955 75.7901L57.7063 75.8214C56.7943 76.1414 55.7956 75.6615 55.4756 74.7495C55.1556 73.8376 55.6355 72.8388 56.5475 72.5188L56.6367 72.4875C57.5486 72.1676 58.5474 72.6475 58.8674 73.5594ZM52.534 75.7817C52.854 76.6937 52.3741 77.6924 51.4621 78.0124L51.3729 78.0437C50.4609 78.3637 49.4622 77.8838 49.1422 76.9718C48.8222 76.0598 49.3021 75.0611 50.2141 74.7411L50.3033 74.7098C51.2153 74.3898 52.214 74.8697 52.534 75.7817ZM46.2007 78.0039C46.5207 78.9159 46.0408 79.9146 45.1288 80.2346L45.0396 80.2659C44.1276 80.5859 43.1289 80.106 42.8089 79.194C42.4889 78.282 42.9688 77.2833 43.8808 76.9633L43.97 76.932C44.882 76.612 45.8807 77.0919 46.2007 78.0039ZM39.8674 80.2261C40.1874 81.1381 39.7074 82.1368 38.7955 82.4568L38.7063 82.4881C37.7943 82.8081 36.7956 82.3282 36.4756 81.4162C36.1556 80.5042 36.6355 79.5055 37.5475 79.1855L37.6367 79.1542C38.5486 78.8342 39.5474 79.3141 39.8674 80.2261ZM33.534 82.4483C33.854 83.3603 33.3741 84.359 32.4621 84.679L32.4175 84.6947C31.5055 85.0147 30.5068 84.5348 30.1868 83.6228C29.8668 82.7108 30.3467 81.7121 31.2587 81.3921L31.3033 81.3764C32.2153 81.0564 33.214 81.5363 33.534 82.4483Z" fill="white"/>
<path fill-rule="evenodd" clip-rule="evenodd" d="M112.184 69.2277C112.911 68.5904 114.016 68.6629 114.654 69.3895L114.686 69.4261C115.323 70.1527 115.251 71.2584 114.524 71.8957C113.797 72.5329 112.692 72.4605 112.054 71.7338L112.022 71.6973C111.385 70.9706 111.457 69.865 112.184 69.2277ZM116.708 74.3856C117.434 73.7483 118.54 73.8207 119.177 74.5474L119.241 74.6205C119.879 75.3472 119.806 76.4528 119.079 77.0901C118.353 77.7274 117.247 77.6549 116.61 76.9283L116.546 76.8551C115.908 76.1285 115.981 75.0228 116.708 74.3856ZM121.263 79.58C121.99 78.9427 123.095 79.0152 123.733 79.7418L123.797 79.815C124.434 80.5416 124.362 81.6473 123.635 82.2846C122.908 82.9218 121.803 82.8494 121.165 82.1227L121.101 82.0496C120.464 81.3229 120.536 80.2173 121.263 79.58ZM125.819 84.7744C126.545 84.1372 127.651 84.2096 128.288 84.9363L128.352 85.0094C128.99 85.7361 128.917 86.8417 128.191 87.479C127.464 88.1163 126.358 88.0438 125.721 87.3172L125.657 87.244C125.02 86.5174 125.092 85.4117 125.819 84.7744ZM130.374 89.9689C131.101 89.3316 132.206 89.4041 132.844 90.1307L132.908 90.2039C133.545 90.9305 133.473 92.0362 132.746 92.6734C132.019 93.3107 130.914 93.2383 130.277 92.5116L130.212 92.4385C129.575 91.7118 129.648 90.6062 130.374 89.9689ZM134.93 95.1633C135.656 94.5261 136.762 94.5985 137.399 95.3252L137.463 95.3983C138.101 96.125 138.028 97.2306 137.302 97.8679C136.575 98.5052 135.469 98.4327 134.832 97.7061L134.768 97.6329C134.131 96.9063 134.203 95.8006 134.93 95.1633ZM139.485 100.358C140.212 99.7205 141.318 99.793 141.955 100.52L142.019 100.593C142.656 101.319 142.584 102.425 141.857 103.062C141.131 103.7 140.025 103.627 139.388 102.901L139.323 102.827C138.686 102.101 138.759 100.995 139.485 100.358ZM144.041 105.552C144.767 104.915 145.873 104.987 146.51 105.714L146.575 105.787C147.212 106.514 147.139 107.62 146.413 108.257C145.686 108.894 144.58 108.822 143.943 108.095L143.879 108.022C143.242 107.295 143.314 106.189 144.041 105.552ZM148.596 110.747C149.323 110.109 150.429 110.182 151.066 110.908L151.13 110.982C151.767 111.708 151.695 112.814 150.968 113.451C150.242 114.088 149.136 114.016 148.499 113.289L148.435 113.216C147.797 112.49 147.87 111.384 148.596 110.747ZM153.152 115.941C153.879 115.304 154.984 115.376 155.622 116.103L155.686 116.176C156.323 116.903 156.25 118.008 155.524 118.646C154.797 119.283 153.692 119.21 153.054 118.484L152.99 118.411C152.353 117.684 152.425 116.578 153.152 115.941ZM157.707 121.136C158.434 120.498 159.54 120.571 160.177 121.297L160.241 121.371C160.879 122.097 160.806 123.203 160.079 123.84C159.353 124.477 158.247 124.405 157.61 123.678L157.546 123.605C156.908 122.878 156.981 121.773 157.707 121.136ZM162.263 126.33C162.99 125.693 164.095 125.765 164.733 126.492L164.797 126.565C165.434 127.292 165.362 128.397 164.635 129.035C163.908 129.672 162.803 129.599 162.165 128.873L162.101 128.8C161.464 128.073 161.536 126.967 162.263 126.33ZM166.819 131.524C167.545 130.887 168.651 130.96 169.288 131.686L169.352 131.759C169.99 132.486 169.917 133.592 169.191 134.229C168.464 134.866 167.358 134.794 166.721 134.067L166.657 133.994C166.02 133.267 166.092 132.162 166.819 131.524ZM171.374 136.719C172.101 136.082 173.206 136.154 173.844 136.881L173.908 136.954C174.545 137.681 174.473 138.786 173.746 139.423C173.019 140.061 171.914 139.988 171.277 139.262L171.212 139.188C170.575 138.462 170.648 137.356 171.374 136.719ZM175.93 141.913C176.656 141.276 177.762 141.349 178.399 142.075L178.463 142.148C179.101 142.875 179.028 143.981 178.302 144.618C177.575 145.255 176.469 145.183 175.832 144.456L175.768 144.383C175.131 143.656 175.203 142.551 175.93 141.913ZM180.485 147.108C181.212 146.471 182.318 146.543 182.955 147.27L183.019 147.343C183.656 148.069 183.584 149.175 182.857 149.812C182.131 150.45 181.025 150.377 180.388 149.651L180.323 149.577C179.686 148.851 179.759 147.745 180.485 147.108ZM185.041 152.302C185.767 151.665 186.873 151.737 187.51 152.464L187.575 152.537C188.212 153.264 188.139 154.37 187.413 155.007C186.686 155.644 185.58 155.572 184.943 154.845L184.879 154.772C184.242 154.045 184.314 152.939 185.041 152.302ZM189.596 157.497C190.323 156.859 191.429 156.932 192.066 157.658L192.13 157.732C192.767 158.458 192.695 159.564 191.968 160.201C191.242 160.839 190.136 160.766 189.499 160.039L189.435 159.966C188.797 159.24 188.87 158.134 189.596 157.497ZM194.152 162.691C194.879 162.054 195.984 162.126 196.622 162.853L196.654 162.89C197.291 163.616 197.218 164.722 196.492 165.359C195.765 165.996 194.659 165.924 194.022 165.197L193.99 165.161C193.353 164.434 193.425 163.328 194.152 162.691Z" fill="white"/>
<path d="M108.919 176.043L102.919 205.543" stroke="white" stroke-width="3.5" stroke-linecap="round" stroke-dasharray="0.1 7"/>
<path fill-rule="evenodd" clip-rule="evenodd" d="M30.6844 221.311C30.8129 220.353 31.6937 219.68 32.6516 219.809L32.6997 219.815C33.6576 219.944 34.33 220.825 34.2015 221.783C34.073 222.74 33.1923 223.413 32.2344 223.284L32.1862 223.278C31.2283 223.149 30.5559 222.269 30.6844 221.311ZM37.4697 222.221C37.5982 221.263 38.4789 220.591 39.4368 220.719L39.533 220.732C40.491 220.861 41.1633 221.741 41.0348 222.699C40.9063 223.657 40.0256 224.33 39.0677 224.201L38.9714 224.188C38.0135 224.06 37.3412 223.179 37.4697 222.221ZM44.303 223.138C44.4315 222.18 45.3122 221.507 46.2701 221.636L46.3664 221.649C47.3243 221.777 47.9967 222.658 47.8682 223.616C47.7397 224.574 46.8589 225.246 45.901 225.118L45.8048 225.105C44.8469 224.976 44.1745 224.096 44.303 223.138ZM51.1363 224.054C51.2648 223.096 52.1455 222.424 53.1035 222.552L53.1997 222.565C54.1576 222.694 54.83 223.575 54.7015 224.533C54.573 225.49 53.6923 226.163 52.7344 226.034L52.6381 226.021C51.6802 225.893 51.0078 225.012 51.1363 224.054ZM57.9697 224.971C58.0982 224.013 58.9789 223.341 59.9368 223.469L60.033 223.482C60.9909 223.611 61.6633 224.491 61.5348 225.449C61.4063 226.407 60.5256 227.08 59.5677 226.951L59.4714 226.938C58.5135 226.81 57.8412 225.929 57.9697 224.971ZM64.803 225.888C64.9315 224.93 65.8122 224.257 66.7701 224.386L66.8664 224.399C67.8243 224.527 68.4967 225.408 68.3682 226.366C68.2397 227.324 67.3589 227.996 66.401 227.868L66.3048 227.855C65.3469 227.726 64.6745 226.846 64.803 225.888ZM71.6363 226.804C71.7648 225.846 72.6455 225.174 73.6035 225.302L73.6516 225.309C74.6095 225.437 75.2819 226.318 75.1534 227.276C75.0249 228.234 74.1442 228.906 73.1862 228.778L73.1381 228.771C72.1802 228.643 71.5078 227.762 71.6363 226.804Z" fill="white"/>
<path fill-rule="evenodd" clip-rule="evenodd" d="M274.938 328.372C275.861 328.659 276.377 329.639 276.09 330.562L276.074 330.613C275.788 331.536 274.807 332.052 273.884 331.766C272.961 331.479 272.445 330.499 272.732 329.576L272.748 329.525C273.034 328.602 274.015 328.086 274.938 328.372ZM272.703 335.571C273.627 335.857 274.143 336.838 273.856 337.761L273.824 337.863C273.538 338.786 272.557 339.302 271.634 339.016C270.711 338.729 270.195 337.749 270.482 336.826L270.513 336.724C270.8 335.801 271.78 335.285 272.703 335.571ZM270.453 342.821C271.377 343.107 271.893 344.088 271.606 345.011L271.59 345.062C271.304 345.985 270.323 346.501 269.4 346.215C268.477 345.928 267.961 344.948 268.248 344.025L268.263 343.974C268.55 343.051 269.53 342.535 270.453 342.821Z" fill="white"/>
<path fill-rule="evenodd" clip-rule="evenodd" d="M267.231 322.985C267.816 323.754 267.667 324.852 266.897 325.437L266.854 325.47C266.084 326.055 264.986 325.905 264.401 325.136C263.816 324.366 263.966 323.269 264.736 322.684L264.779 322.651C265.549 322.066 266.647 322.215 267.231 322.985ZM261.091 327.652C261.676 328.421 261.526 329.519 260.757 330.104L260.67 330.17C259.9 330.755 258.802 330.605 258.217 329.836C257.633 329.066 257.782 327.969 258.552 327.384L258.639 327.318C259.408 326.733 260.506 326.882 261.091 327.652ZM254.907 332.352C255.492 333.121 255.342 334.219 254.573 334.804L254.486 334.87C253.716 335.455 252.619 335.305 252.034 334.536C251.449 333.766 251.599 332.669 252.368 332.084L252.455 332.018C253.225 331.433 254.322 331.582 254.907 332.352ZM248.723 337.052C249.308 337.821 249.159 338.919 248.389 339.504L248.302 339.57C247.533 340.155 246.435 340.005 245.85 339.236C245.265 338.466 245.415 337.369 246.184 336.784L246.271 336.718C247.041 336.133 248.139 336.282 248.723 337.052ZM242.54 341.752C243.124 342.521 242.975 343.619 242.205 344.204L242.118 344.27C241.349 344.855 240.251 344.705 239.666 343.936C239.081 343.166 239.231 342.069 240 341.484L240.087 341.418C240.857 340.833 241.955 340.982 242.54 341.752ZM236.356 346.452C236.941 347.221 236.791 348.319 236.022 348.904L235.978 348.937C235.209 349.522 234.111 349.372 233.526 348.603C232.941 347.833 233.091 346.735 233.86 346.151L233.904 346.118C234.673 345.533 235.771 345.682 236.356 346.452Z" fill="white"/>
<path fill-rule="evenodd" clip-rule="evenodd" d="M172.655 312.313C173.611 312.168 174.503 312.824 174.649 313.779L174.657 313.831C174.803 314.787 174.146 315.68 173.191 315.825C172.236 315.971 171.343 315.315 171.197 314.359L171.189 314.307C171.043 313.352 171.7 312.459 172.655 312.313ZM173.772 319.636C174.728 319.491 175.62 320.147 175.766 321.103L175.782 321.206C175.928 322.162 175.271 323.055 174.316 323.2C173.361 323.346 172.468 322.69 172.322 321.734L172.306 321.63C172.161 320.675 172.817 319.782 173.772 319.636ZM174.897 327.011C175.853 326.866 176.745 327.522 176.891 328.478L176.907 328.581C177.053 329.537 176.396 330.43 175.441 330.575C174.485 330.721 173.593 330.065 173.447 329.109L173.431 329.005C173.285 328.05 173.942 327.157 174.897 327.011ZM176.022 334.386C176.978 334.241 177.87 334.897 178.016 335.853L178.032 335.956C178.178 336.912 177.521 337.805 176.566 337.95C175.61 338.096 174.718 337.44 174.572 336.484L174.556 336.38C174.41 335.425 175.067 334.532 176.022 334.386ZM177.147 341.761C178.103 341.616 178.995 342.272 179.141 343.228L179.149 343.279C179.295 344.235 178.638 345.128 177.683 345.273C176.728 345.419 175.835 344.763 175.689 343.807L175.681 343.755C175.535 342.8 176.192 341.907 177.147 341.761Z" fill="white"/>
<circle cx="208.405" cy="177.544" r="15" fill="#00BF9F"/>
<path fill-rule="evenodd" clip-rule="evenodd" d="M203.405 167.761C202.924 167.761 202.535 168.151 202.535 168.631V187.109C202.535 187.589 202.924 187.979 203.405 187.979H213.405C213.885 187.979 214.274 187.589 214.274 187.109V168.631C214.274 168.151 213.885 167.761 213.405 167.761H203.405ZM208.405 179.5C209.305 179.5 210.035 178.77 210.035 177.87C210.035 176.97 209.305 176.24 208.405 176.24C207.504 176.24 206.774 176.97 206.774 177.87C206.774 178.77 207.504 179.5 208.405 179.5ZM203.839 173.663C203.839 173.285 204.146 172.979 204.524 172.979H212.285C212.663 172.979 212.97 173.285 212.97 173.663V174.251C212.97 174.629 212.663 174.935 212.285 174.935H204.524C204.146 174.935 203.839 174.629 203.839 174.251V173.663ZM204.524 184.066C204.146 184.066 203.839 184.372 203.839 184.75V185.338C203.839 185.716 204.146 186.022 204.524 186.022H212.285C212.663 186.022 212.97 185.716 212.97 185.338V184.75C212.97 184.372 212.663 184.066 212.285 184.066H204.524ZM203.839 170.402C203.839 170.024 204.146 169.718 204.524 169.718H212.286C212.663 169.718 212.97 170.024 212.97 170.402V170.99C212.97 171.368 212.663 171.674 212.286 171.674H204.524C204.146 171.674 203.839 171.368 203.839 170.99V170.402ZM204.524 180.805C204.146 180.805 203.839 181.111 203.839 181.489V182.077C203.839 182.455 204.146 182.761 204.524 182.761H212.285C212.663 182.761 212.97 182.455 212.97 182.077V181.489C212.97 181.111 212.663 180.805 212.285 180.805H204.524Z" fill="white"/>
<circle cx="280.096" cy="314.762" r="12.5" fill="#00BF9F"/>
<path fill-rule="evenodd" clip-rule="evenodd" d="M276.074 306.609C275.594 306.609 275.204 306.999 275.204 307.479V322.588C275.204 323.068 275.594 323.457 276.074 323.457H284.117C284.598 323.457 284.987 323.068 284.987 322.588V307.479C284.987 306.999 284.598 306.609 284.117 306.609H276.074ZM280.096 316.392C280.846 316.392 281.454 315.784 281.454 315.033C281.454 314.283 280.846 313.675 280.096 313.675C279.345 313.675 278.737 314.283 278.737 315.033C278.737 315.784 279.345 316.392 280.096 316.392ZM276.291 311.642C276.291 311.264 276.598 310.957 276.976 310.957H283.216C283.594 310.957 283.9 311.264 283.9 311.642V311.903C283.9 312.281 283.594 312.588 283.216 312.588H276.976C276.598 312.588 276.291 312.281 276.291 311.903V311.642ZM276.976 320.196C276.598 320.196 276.291 320.503 276.291 320.881V321.143C276.291 321.52 276.598 321.827 276.976 321.827H283.216C283.594 321.827 283.9 321.52 283.9 321.143V320.881C283.9 320.503 283.594 320.196 283.216 320.196H276.976ZM276.291 308.924C276.291 308.546 276.598 308.24 276.976 308.24H283.216C283.594 308.24 283.9 308.546 283.9 308.924V309.186C283.9 309.564 283.594 309.87 283.216 309.87H276.976C276.598 309.87 276.291 309.564 276.291 309.186V308.924ZM276.976 317.479C276.598 317.479 276.291 317.786 276.291 318.163V318.425C276.291 318.803 276.598 319.11 276.976 319.11H283.216C283.594 319.11 283.9 318.803 283.9 318.425V318.163C283.9 317.786 283.594 317.479 283.216 317.479H276.976Z" fill="white"/>
<circle cx="296.629" cy="192.544" r="11" fill="#00BF9F"/>
<path fill-rule="evenodd" clip-rule="evenodd" d="M293.064 185.37C292.655 185.37 292.324 185.701 292.324 186.109V199.457C292.324 199.865 292.655 200.196 293.064 200.196H300.194C300.602 200.196 300.933 199.865 300.933 199.457V186.109C300.933 185.701 300.602 185.37 300.194 185.37H293.064ZM296.629 193.979C297.289 193.979 297.824 193.443 297.824 192.783C297.824 192.123 297.289 191.587 296.629 191.587C295.968 191.587 295.433 192.123 295.433 192.783C295.433 193.443 295.968 193.979 296.629 193.979ZM293.281 189.778C293.281 189.456 293.541 189.196 293.863 189.196H299.395C299.716 189.196 299.977 189.456 299.977 189.778V190.049C299.977 190.37 299.716 190.631 299.395 190.631H293.863C293.541 190.631 293.281 190.37 293.281 190.049V189.778ZM293.863 197.326C293.541 197.326 293.281 197.587 293.281 197.908V198.18C293.281 198.501 293.541 198.761 293.863 198.761H299.395C299.716 198.761 299.977 198.501 299.977 198.18V197.908C299.977 197.587 299.716 197.326 299.395 197.326H293.863ZM293.281 187.386C293.281 187.065 293.541 186.805 293.863 186.805H299.395C299.716 186.805 299.977 187.065 299.977 187.386V187.658C299.977 187.979 299.716 188.24 299.395 188.24H293.863C293.541 188.24 293.281 187.979 293.281 187.658V187.386ZM293.863 194.935C293.541 194.935 293.281 195.196 293.281 195.517V195.788C293.281 196.11 293.541 196.37 293.863 196.37H299.395C299.716 196.37 299.977 196.11 299.977 195.788V195.517C299.977 195.196 299.716 194.935 299.395 194.935H293.863Z" fill="white"/>
<circle cx="217.767" cy="88.5439" r="11" fill="#00BF9F"/>
<path fill-rule="evenodd" clip-rule="evenodd" d="M214.201 81.37C213.793 81.37 213.462 81.7009 213.462 82.1091V95.457C213.462 95.8652 213.793 96.1961 214.201 96.1961H221.332C221.74 96.1961 222.071 95.8652 222.071 95.457V82.1091C222.071 81.7009 221.74 81.37 221.332 81.37H214.201ZM217.766 89.9787C218.427 89.9787 218.962 89.4434 218.962 88.783C218.962 88.1227 218.427 87.5874 217.766 87.5874C217.106 87.5874 216.571 88.1227 216.571 88.783C216.571 89.4434 217.106 89.9787 217.766 89.9787ZM214.419 85.7778C214.419 85.4565 214.679 85.1961 215 85.1961H220.533C220.854 85.1961 221.114 85.4565 221.114 85.7778V86.0491C221.114 86.3704 220.854 86.6308 220.533 86.6308H215C214.679 86.6308 214.419 86.3704 214.419 86.0491V85.7778ZM215 93.3265C214.679 93.3265 214.419 93.587 214.419 93.9082V94.1796C214.419 94.5009 214.679 94.7613 215 94.7613H220.533C220.854 94.7613 221.114 94.5009 221.114 94.1796V93.9082C221.114 93.587 220.854 93.3265 220.533 93.3265H215ZM214.419 83.3865C214.419 83.0652 214.679 82.8048 215 82.8048H220.533C220.854 82.8048 221.114 83.0652 221.114 83.3865V83.6578C221.114 83.9791 220.854 84.2395 220.533 84.2395H215C214.679 84.2395 214.419 83.9791 214.419 83.6578V83.3865ZM215 90.9353C214.679 90.9353 214.419 91.1957 214.419 91.517V91.7883C214.419 92.1096 214.679 92.37 215 92.37H220.533C220.854 92.37 221.114 92.1096 221.114 91.7883V91.517C221.114 91.1957 220.854 90.9353 220.533 90.9353H215Z" fill="white"/>
<circle cx="103.044" cy="59.5473" r="11" fill="#00BF9F"/>
<path fill-rule="evenodd" clip-rule="evenodd" d="M99.4786 52.3734C99.0704 52.3734 98.7395 52.7043 98.7395 53.1125V66.4604C98.7395 66.8686 99.0704 67.1995 99.4786 67.1995H106.609C107.017 67.1995 107.348 66.8686 107.348 66.4604V53.1125C107.348 52.7043 107.017 52.3734 106.609 52.3734H99.4786ZM103.044 60.9821C103.704 60.9821 104.239 60.4468 104.239 59.7864C104.239 59.1261 103.704 58.5908 103.044 58.5908C102.383 58.5908 101.848 59.1261 101.848 59.7864C101.848 60.4468 102.383 60.9821 103.044 60.9821ZM99.696 56.7812C99.696 56.4599 99.9565 56.1995 100.278 56.1995H105.81C106.131 56.1995 106.392 56.4599 106.392 56.7812V57.0526C106.392 57.3738 106.131 57.6343 105.81 57.6343H100.278C99.9565 57.6343 99.696 57.3738 99.696 57.0526V56.7812ZM100.278 64.3299C99.9565 64.3299 99.696 64.5904 99.696 64.9116V65.183C99.696 65.5043 99.9565 65.7647 100.278 65.7647H105.81C106.131 65.7647 106.392 65.5043 106.392 65.183V64.9116C106.392 64.5904 106.131 64.3299 105.81 64.3299H100.278ZM99.696 54.3899C99.696 54.0686 99.9564 53.8082 100.278 53.8082H105.81C106.131 53.8082 106.392 54.0686 106.392 54.3899V54.6613C106.392 54.9825 106.131 55.243 105.81 55.243H100.278C99.9564 55.243 99.696 54.9825 99.696 54.6613V54.3899ZM100.278 61.9387C99.9565 61.9387 99.696 62.1991 99.696 62.5204V62.7918C99.696 63.113 99.9565 63.3735 100.278 63.3735H105.81C106.131 63.3735 106.392 63.113 106.392 62.7918V62.5204C106.392 62.1991 106.131 61.9387 105.81 61.9387H100.278Z" fill="white"/>
<circle cx="97.9189" cy="229.761" r="20" fill="#00BF9F"/>
<path fill-rule="evenodd" clip-rule="evenodd" d="M91.0928 216.717C90.5405 216.717 90.0928 217.165 90.0928 217.717V242.674C90.0928 243.226 90.5405 243.674 91.0928 243.674H104.745C105.297 243.674 105.745 243.226 105.745 242.674V217.717C105.745 217.165 105.297 216.717 104.745 216.717H91.0928ZM97.9189 232.369C99.1195 232.369 100.093 231.396 100.093 230.195C100.093 228.995 99.1195 228.021 97.9189 228.021C96.7182 228.021 95.7449 228.995 95.7449 230.195C95.7449 231.396 96.7182 232.369 97.9189 232.369ZM91.8319 224.461C91.8319 224.026 92.1843 223.674 92.6189 223.674H103.219C103.653 223.674 104.006 224.026 104.006 224.461V225.495C104.006 225.93 103.653 226.282 103.219 226.282H92.6189C92.1843 226.282 91.8319 225.93 91.8319 225.495V224.461ZM92.6189 238.456C92.1843 238.456 91.8319 238.809 91.8319 239.243V240.278C91.8319 240.713 92.1843 241.065 92.6189 241.065H103.219C103.653 241.065 104.006 240.713 104.006 240.278V239.243C104.006 238.809 103.653 238.456 103.219 238.456H92.6189ZM91.8319 220.113C91.8319 219.678 92.1843 219.326 92.6189 219.326H103.219C103.653 219.326 104.006 219.678 104.006 220.113V221.147C104.006 221.582 103.653 221.934 103.219 221.934H92.6189C92.1843 221.934 91.8319 221.582 91.8319 221.147V220.113ZM92.6189 234.109C92.1843 234.109 91.8319 234.461 91.8319 234.896V235.93C91.8319 236.365 92.1843 236.717 92.6189 236.717H103.219C103.653 236.717 104.006 236.365 104.006 235.93V234.896C104.006 234.461 103.653 234.109 103.219 234.109H92.6189Z" fill="white"/>
<circle cx="48.1582" cy="146.543" r="14" fill="#00BF9F"/>
<path fill-rule="evenodd" clip-rule="evenodd" d="M43.5495 137.413C43.0692 137.413 42.6799 137.802 42.6799 138.283V155.413C42.6799 155.893 43.0692 156.283 43.5495 156.283H52.7669C53.2471 156.283 53.6365 155.893 53.6365 155.413V138.283C53.6365 137.802 53.2471 137.413 52.7669 137.413H43.5495ZM48.1583 148.369C48.9988 148.369 49.6801 147.688 49.6801 146.848C49.6801 146.007 48.9988 145.326 48.1583 145.326C47.3179 145.326 46.6366 146.007 46.6366 146.848C46.6366 147.688 47.3179 148.369 48.1583 148.369ZM43.8975 142.967C43.8975 142.589 44.2039 142.282 44.5818 142.282H51.7348C52.1128 142.282 52.4192 142.589 52.4192 142.967V143.424C52.4192 143.802 52.1128 144.109 51.7348 144.109H44.5818C44.2039 144.109 43.8975 143.802 43.8975 143.424V142.967ZM44.5818 152.63C44.2039 152.63 43.8975 152.937 43.8975 153.315V153.772C43.8975 154.15 44.2039 154.456 44.5818 154.456H51.7348C52.1128 154.456 52.4192 154.15 52.4192 153.772V153.315C52.4192 152.937 52.1128 152.63 51.7348 152.63H44.5818ZM43.8974 139.923C43.8974 139.545 44.2038 139.239 44.5817 139.239H51.7348C52.1127 139.239 52.4191 139.545 52.4191 139.923V140.381C52.4191 140.759 52.1127 141.065 51.7348 141.065H44.5817C44.2038 141.065 43.8974 140.759 43.8974 140.381V139.923ZM44.5818 149.587C44.2039 149.587 43.8975 149.893 43.8975 150.271V150.729C43.8975 151.107 44.2039 151.413 44.5818 151.413H51.7348C52.1128 151.413 52.4192 151.107 52.4192 150.729V150.271C52.4192 149.893 52.1128 149.587 51.7348 149.587H44.5818Z" fill="white"/>
<circle cx="49.4189" cy="326.543" r="16" fill="#00BF9F"/>
<path fill-rule="evenodd" clip-rule="evenodd" d="M44.0275 316.109C43.5473 316.109 43.158 316.498 43.158 316.978V336.804C43.158 337.285 43.5473 337.674 44.0275 337.674H54.8101C55.2904 337.674 55.6797 337.285 55.6797 336.804V316.978C55.6797 316.498 55.2904 316.109 54.8101 316.109H44.0275ZM49.4187 328.63C50.3792 328.63 51.1579 327.852 51.1579 326.891C51.1579 325.931 50.3792 325.152 49.4187 325.152C48.4582 325.152 47.6796 325.931 47.6796 326.891C47.6796 327.852 48.4582 328.63 49.4187 328.63ZM44.5492 322.358C44.5492 321.98 44.8556 321.674 45.2335 321.674H53.604C53.9819 321.674 54.2883 321.98 54.2883 322.358V323.076C54.2883 323.454 53.9819 323.761 53.604 323.761H45.2335C44.8556 323.761 44.5492 323.454 44.5492 323.076V322.358ZM45.2335 333.5C44.8556 333.5 44.5492 333.806 44.5492 334.184V334.903C44.5492 335.281 44.8556 335.587 45.2335 335.587H53.604C53.9819 335.587 54.2883 335.281 54.2883 334.903V334.184C54.2883 333.806 53.9819 333.5 53.604 333.5H45.2335ZM44.5492 318.88C44.5492 318.502 44.8556 318.196 45.2335 318.196H53.604C53.9819 318.196 54.2883 318.502 54.2883 318.88V319.598C54.2883 319.976 53.9819 320.283 53.604 320.283H45.2335C44.8556 320.283 44.5492 319.976 44.5492 319.598V318.88ZM45.2335 330.022C44.8556 330.022 44.5492 330.328 44.5492 330.706V331.424C44.5492 331.802 44.8556 332.109 45.2335 332.109H53.604C53.9819 332.109 54.2883 331.802 54.2883 331.424V330.706C54.2883 330.328 53.9819 330.022 53.604 330.022H45.2335Z" fill="white"/>
<circle cx="170.669" cy="290.544" r="19" fill="#00BF9F"/>
<path fill-rule="evenodd" clip-rule="evenodd" d="M164.104 278.153C163.623 278.153 163.234 278.542 163.234 279.022V302.892C163.234 303.372 163.623 303.761 164.104 303.761H177.234C177.714 303.761 178.104 303.372 178.104 302.892V279.022C178.104 278.542 177.714 278.153 177.234 278.153H164.104ZM170.669 293.022C171.81 293.022 172.734 292.097 172.734 290.957C172.734 289.816 171.81 288.892 170.669 288.892C169.528 288.892 168.604 289.816 168.604 290.957C168.604 292.097 169.528 293.022 170.669 293.022ZM164.886 285.446C164.886 285.068 165.193 284.761 165.571 284.761H175.767C176.145 284.761 176.452 285.068 176.452 285.446V286.555C176.452 286.933 176.145 287.239 175.767 287.239H165.571C165.193 287.239 164.886 286.933 164.886 286.555V285.446ZM165.571 298.805C165.193 298.805 164.886 299.111 164.886 299.489V300.599C164.886 300.977 165.193 301.283 165.571 301.283H175.767C176.145 301.283 176.452 300.977 176.452 300.599V299.489C176.452 299.111 176.145 298.805 175.767 298.805H165.571ZM164.886 281.315C164.886 280.937 165.193 280.631 165.571 280.631H175.767C176.145 280.631 176.451 280.937 176.451 281.315V282.425C176.451 282.803 176.145 283.109 175.767 283.109H165.571C165.193 283.109 164.886 282.803 164.886 282.425V281.315ZM165.571 294.674C165.193 294.674 164.886 294.981 164.886 295.359V296.468C164.886 296.846 165.193 297.153 165.571 297.153H175.767C176.145 297.153 176.452 296.846 176.452 296.468V295.359C176.452 294.981 176.145 294.674 175.767 294.674H165.571Z" fill="white"/>
<circle cx="114.044" cy="155.544" r="17" fill="#248FF2"/>
<path fill-rule="evenodd" clip-rule="evenodd" d="M105.175 147.783C105.175 147.579 105.34 147.413 105.544 147.413H123.284C123.488 147.413 123.653 147.579 123.653 147.783V159.979H123.653L125.512 162.457C125.659 162.654 125.519 162.935 125.273 162.935H103.554C103.308 162.935 103.168 162.654 103.315 162.457L105.174 159.979H105.175V147.783ZM122.175 148.892H106.653V159.092C106.653 159.173 106.719 159.24 106.8 159.24H122.027C122.108 159.24 122.175 159.173 122.175 159.092V148.892Z" fill="white"/>
<path fill-rule="evenodd" clip-rule="evenodd" d="M41.4189 93.2153C39.7621 93.2153 38.4189 94.5584 38.4189 96.2153V122.215C38.4189 123.872 39.7621 125.215 41.4189 125.215H108.237C109.09 125.215 109.848 125.755 110.127 126.561L112.123 132.325C112.583 133.655 114.456 133.676 114.946 132.357L117.118 126.518C117.41 125.735 118.157 125.215 118.993 125.215H186.669C188.326 125.215 189.669 123.872 189.669 122.215V96.2153C189.669 94.5584 188.326 93.2153 186.669 93.2153H41.4189Z" fill="#248FF2"/>
<path d="M57.8245 106.793C58.2318 106.793 58.5785 106.867 58.8645 107.014C59.1591 107.153 59.3975 107.339 59.5795 107.573C59.7701 107.807 59.9088 108.076 59.9955 108.379C60.0821 108.683 60.1255 108.995 60.1255 109.315V113.215H58.5655V109.783C58.5655 109.601 58.5525 109.415 58.5265 109.224C58.5005 109.025 58.4441 108.847 58.3575 108.691C58.2795 108.527 58.1625 108.392 58.0065 108.288C57.8591 108.184 57.6598 108.132 57.4085 108.132C57.1571 108.132 56.9405 108.18 56.7585 108.275C56.5765 108.371 56.4248 108.501 56.3035 108.665C56.1821 108.821 56.0911 108.999 56.0305 109.198C55.9698 109.398 55.9395 109.601 55.9395 109.809V113.215H54.3795V103.387H55.9395V107.846H55.9655C56.0261 107.716 56.1128 107.591 56.2255 107.469C56.3468 107.339 56.4855 107.227 56.6415 107.131C56.7975 107.027 56.9751 106.945 57.1745 106.884C57.3738 106.824 57.5905 106.793 57.8245 106.793ZM61.0483 108.223V106.975H62.1403V105.168H63.6743V106.975H65.2343V108.223H63.6743V111.122C63.6743 111.4 63.7219 111.629 63.8173 111.811C63.9213 111.993 64.1466 112.084 64.4933 112.084C64.5973 112.084 64.7099 112.076 64.8313 112.058C64.9526 112.032 65.0609 111.998 65.1563 111.954L65.2083 113.176C65.0696 113.228 64.9049 113.267 64.7143 113.293C64.5236 113.328 64.3416 113.345 64.1683 113.345C63.7523 113.345 63.4143 113.289 63.1543 113.176C62.8943 113.055 62.6863 112.895 62.5303 112.695C62.3829 112.487 62.2789 112.253 62.2183 111.993C62.1663 111.725 62.1403 111.439 62.1403 111.135V108.223H61.0483ZM65.2758 108.223V106.975H66.3678V105.168H67.9018V106.975H69.4618V108.223H67.9018V111.122C67.9018 111.4 67.9495 111.629 68.0448 111.811C68.1488 111.993 68.3741 112.084 68.7208 112.084C68.8248 112.084 68.9375 112.076 69.0588 112.058C69.1801 112.032 69.2885 111.998 69.3838 111.954L69.4358 113.176C69.2971 113.228 69.1325 113.267 68.9418 113.293C68.7511 113.328 68.5691 113.345 68.3958 113.345C67.9798 113.345 67.6418 113.289 67.3818 113.176C67.1218 113.055 66.9138 112.895 66.7578 112.695C66.6105 112.487 66.5065 112.253 66.4458 111.993C66.3938 111.725 66.3678 111.439 66.3678 111.135V108.223H65.2758ZM72.0858 106.975V107.846H72.1248C72.2028 107.725 72.3025 107.604 72.4238 107.482C72.5538 107.352 72.7098 107.24 72.8918 107.144C73.0738 107.04 73.2775 106.958 73.5028 106.897C73.7368 106.828 73.9968 106.793 74.2828 106.793C74.7248 106.793 75.1321 106.88 75.5048 107.053C75.8775 107.218 76.1981 107.448 76.4668 107.742C76.7355 108.037 76.9435 108.384 77.0908 108.782C77.2381 109.181 77.3118 109.61 77.3118 110.069C77.3118 110.529 77.2381 110.962 77.0908 111.369C76.9521 111.768 76.7485 112.119 76.4798 112.422C76.2198 112.717 75.8991 112.955 75.5178 113.137C75.1451 113.311 74.7205 113.397 74.2438 113.397C73.8018 113.397 73.3945 113.306 73.0218 113.124C72.6578 112.942 72.3761 112.695 72.1768 112.383H72.1508V116.335H70.5908V106.975H72.0858ZM75.7258 110.069C75.7258 109.827 75.6868 109.588 75.6088 109.354C75.5395 109.112 75.4311 108.895 75.2838 108.704C75.1365 108.514 74.9501 108.362 74.7248 108.249C74.4995 108.128 74.2351 108.067 73.9318 108.067C73.6458 108.067 73.3901 108.128 73.1648 108.249C72.9395 108.371 72.7445 108.527 72.5798 108.717C72.4238 108.908 72.3025 109.125 72.2158 109.367C72.1378 109.61 72.0988 109.853 72.0988 110.095C72.0988 110.338 72.1378 110.581 72.2158 110.823C72.3025 111.057 72.4238 111.27 72.5798 111.46C72.7445 111.651 72.9395 111.807 73.1648 111.928C73.3901 112.041 73.6458 112.097 73.9318 112.097C74.2351 112.097 74.4995 112.037 74.7248 111.915C74.9501 111.794 75.1365 111.638 75.2838 111.447C75.4311 111.257 75.5395 111.04 75.6088 110.797C75.6868 110.555 75.7258 110.312 75.7258 110.069ZM82.2363 108.639C82.0977 108.457 81.907 108.301 81.6643 108.171C81.4217 108.033 81.1573 107.963 80.8713 107.963C80.62 107.963 80.3903 108.015 80.1823 108.119C79.9743 108.223 79.8703 108.397 79.8703 108.639C79.8703 108.882 79.983 109.055 80.2083 109.159C80.4423 109.255 80.7803 109.354 81.2223 109.458C81.4563 109.51 81.6903 109.58 81.9243 109.666C82.167 109.753 82.3837 109.87 82.5743 110.017C82.7737 110.156 82.934 110.334 83.0553 110.55C83.1767 110.758 83.2373 111.014 83.2373 111.317C83.2373 111.699 83.1637 112.024 83.0163 112.292C82.8777 112.552 82.687 112.765 82.4443 112.929C82.2103 113.094 81.933 113.211 81.6123 113.28C81.3003 113.358 80.9753 113.397 80.6373 113.397C80.152 113.397 79.6797 113.311 79.2203 113.137C78.761 112.955 78.3797 112.7 78.0763 112.37L79.1033 111.408C79.2767 111.634 79.502 111.82 79.7793 111.967C80.0567 112.115 80.3643 112.188 80.7023 112.188C80.815 112.188 80.9277 112.175 81.0403 112.149C81.1617 112.123 81.27 112.084 81.3653 112.032C81.4693 111.972 81.5517 111.894 81.6123 111.798C81.673 111.703 81.7033 111.586 81.7033 111.447C81.7033 111.187 81.582 111.001 81.3393 110.888C81.1053 110.776 80.75 110.663 80.2733 110.55C80.0393 110.498 79.8097 110.433 79.5843 110.355C79.3677 110.269 79.1727 110.16 78.9993 110.03C78.826 109.892 78.6873 109.723 78.5833 109.523C78.4793 109.324 78.4273 109.077 78.4273 108.782C78.4273 108.436 78.4967 108.137 78.6353 107.885C78.7827 107.634 78.9733 107.43 79.2073 107.274C79.4413 107.11 79.7057 106.988 80.0003 106.91C80.295 106.832 80.5983 106.793 80.9103 106.793C81.361 106.793 81.7987 106.871 82.2233 107.027C82.6567 107.183 82.999 107.422 83.2503 107.742L82.2363 108.639ZM84.5677 112.305C84.5677 112.028 84.6674 111.79 84.8667 111.59C85.0747 111.391 85.3217 111.291 85.6077 111.291C85.885 111.291 86.1277 111.387 86.3357 111.577C86.5437 111.768 86.6477 112.002 86.6477 112.279C86.6477 112.557 86.5437 112.795 86.3357 112.994C86.1364 113.194 85.8937 113.293 85.6077 113.293C85.469 113.293 85.3347 113.267 85.2047 113.215C85.0834 113.163 84.975 113.094 84.8797 113.007C84.7844 112.921 84.7064 112.817 84.6457 112.695C84.5937 112.574 84.5677 112.444 84.5677 112.305ZM84.5677 107.911C84.5677 107.634 84.6674 107.396 84.8667 107.196C85.0747 106.997 85.3217 106.897 85.6077 106.897C85.885 106.897 86.1277 106.993 86.3357 107.183C86.5437 107.374 86.6477 107.608 86.6477 107.885C86.6477 108.163 86.5437 108.401 86.3357 108.6C86.1364 108.8 85.8937 108.899 85.6077 108.899C85.469 108.899 85.3347 108.873 85.2047 108.821C85.0834 108.769 84.975 108.7 84.8797 108.613C84.7844 108.527 84.7064 108.423 84.6457 108.301C84.5937 108.18 84.5677 108.05 84.5677 107.911ZM88.5172 113.839L87.4382 113.449L91.4942 103.361L92.5732 103.777L88.5172 113.839ZM93.5699 113.839L92.4909 113.449L96.5469 103.361L97.6259 103.777L93.5699 113.839ZM100.092 106.975V107.846H100.131C100.209 107.725 100.308 107.604 100.43 107.482C100.56 107.352 100.716 107.24 100.898 107.144C101.08 107.04 101.283 106.958 101.509 106.897C101.743 106.828 102.003 106.793 102.289 106.793C102.731 106.793 103.138 106.88 103.511 107.053C103.883 107.218 104.204 107.448 104.473 107.742C104.741 108.037 104.949 108.384 105.097 108.782C105.244 109.181 105.318 109.61 105.318 110.069C105.318 110.529 105.244 110.962 105.097 111.369C104.958 111.768 104.754 112.119 104.486 112.422C104.226 112.717 103.905 112.955 103.524 113.137C103.151 113.311 102.726 113.397 102.25 113.397C101.808 113.397 101.4 113.306 101.028 113.124C100.664 112.942 100.382 112.695 100.183 112.383H100.157V116.335H98.5966V106.975H100.092ZM103.732 110.069C103.732 109.827 103.693 109.588 103.615 109.354C103.545 109.112 103.437 108.895 103.29 108.704C103.142 108.514 102.956 108.362 102.731 108.249C102.505 108.128 102.241 108.067 101.938 108.067C101.652 108.067 101.396 108.128 101.171 108.249C100.945 108.371 100.75 108.527 100.586 108.717C100.43 108.908 100.308 109.125 100.222 109.367C100.144 109.61 100.105 109.853 100.105 110.095C100.105 110.338 100.144 110.581 100.222 110.823C100.308 111.057 100.43 111.27 100.586 111.46C100.75 111.651 100.945 111.807 101.171 111.928C101.396 112.041 101.652 112.097 101.938 112.097C102.241 112.097 102.505 112.037 102.731 111.915C102.956 111.794 103.142 111.638 103.29 111.447C103.437 111.257 103.545 111.04 103.615 110.797C103.693 110.555 103.732 110.312 103.732 110.069ZM106.823 106.975H108.318V108.015H108.344C108.518 107.651 108.76 107.357 109.072 107.131C109.384 106.906 109.748 106.793 110.164 106.793C110.225 106.793 110.29 106.798 110.359 106.806C110.429 106.806 110.489 106.815 110.541 106.832V108.262C110.437 108.236 110.346 108.219 110.268 108.21C110.199 108.202 110.13 108.197 110.06 108.197C109.705 108.197 109.419 108.262 109.202 108.392C108.986 108.522 108.817 108.678 108.695 108.86C108.574 109.042 108.492 109.229 108.448 109.419C108.405 109.61 108.383 109.762 108.383 109.874V113.215H106.823V106.975ZM110.966 110.069C110.966 109.575 111.053 109.129 111.226 108.73C111.408 108.323 111.651 107.976 111.954 107.69C112.257 107.404 112.617 107.183 113.033 107.027C113.449 106.871 113.891 106.793 114.359 106.793C114.827 106.793 115.269 106.871 115.685 107.027C116.101 107.183 116.461 107.404 116.764 107.69C117.067 107.976 117.306 108.323 117.479 108.73C117.661 109.129 117.752 109.575 117.752 110.069C117.752 110.563 117.661 111.014 117.479 111.421C117.306 111.829 117.067 112.18 116.764 112.474C116.461 112.76 116.101 112.986 115.685 113.15C115.269 113.315 114.827 113.397 114.359 113.397C113.891 113.397 113.449 113.315 113.033 113.15C112.617 112.986 112.257 112.76 111.954 112.474C111.651 112.18 111.408 111.829 111.226 111.421C111.053 111.014 110.966 110.563 110.966 110.069ZM112.552 110.069C112.552 110.312 112.587 110.555 112.656 110.797C112.734 111.04 112.847 111.257 112.994 111.447C113.141 111.638 113.328 111.794 113.553 111.915C113.778 112.037 114.047 112.097 114.359 112.097C114.671 112.097 114.94 112.037 115.165 111.915C115.39 111.794 115.577 111.638 115.724 111.447C115.871 111.257 115.98 111.04 116.049 110.797C116.127 110.555 116.166 110.312 116.166 110.069C116.166 109.827 116.127 109.588 116.049 109.354C115.98 109.112 115.871 108.895 115.724 108.704C115.577 108.514 115.39 108.362 115.165 108.249C114.94 108.128 114.671 108.067 114.359 108.067C114.047 108.067 113.778 108.128 113.553 108.249C113.328 108.362 113.141 108.514 112.994 108.704C112.847 108.895 112.734 109.112 112.656 109.354C112.587 109.588 112.552 109.827 112.552 110.069ZM125.609 106.975V112.656C125.609 113.22 125.539 113.727 125.401 114.177C125.262 114.637 125.045 115.022 124.751 115.334C124.465 115.655 124.101 115.902 123.659 116.075C123.217 116.249 122.692 116.335 122.086 116.335C121.834 116.335 121.566 116.314 121.28 116.27C121.002 116.227 120.725 116.162 120.448 116.075C120.179 115.989 119.919 115.88 119.668 115.75C119.416 115.62 119.191 115.473 118.992 115.308L119.889 114.099C120.192 114.385 120.534 114.602 120.916 114.749C121.297 114.905 121.683 114.983 122.073 114.983C122.445 114.983 122.757 114.927 123.009 114.814C123.269 114.71 123.472 114.563 123.62 114.372C123.776 114.182 123.884 113.956 123.945 113.696C124.014 113.436 124.049 113.15 124.049 112.838V112.383H124.023C123.797 112.687 123.507 112.921 123.152 113.085C122.805 113.241 122.415 113.319 121.982 113.319C121.514 113.319 121.089 113.233 120.708 113.059C120.326 112.886 120.001 112.652 119.733 112.357C119.473 112.063 119.269 111.72 119.122 111.33C118.974 110.932 118.901 110.511 118.901 110.069C118.901 109.619 118.97 109.194 119.109 108.795C119.256 108.397 119.46 108.05 119.72 107.755C119.988 107.461 120.309 107.227 120.682 107.053C121.063 106.88 121.488 106.793 121.956 106.793C122.398 106.793 122.809 106.884 123.191 107.066C123.572 107.248 123.875 107.53 124.101 107.911H124.127V106.975H125.609ZM122.281 108.067C121.995 108.067 121.739 108.119 121.514 108.223C121.297 108.327 121.111 108.47 120.955 108.652C120.807 108.826 120.69 109.034 120.604 109.276C120.526 109.519 120.487 109.779 120.487 110.056C120.487 110.308 120.526 110.55 120.604 110.784C120.69 111.018 120.807 111.231 120.955 111.421C121.111 111.603 121.297 111.751 121.514 111.863C121.739 111.976 121.99 112.032 122.268 112.032C122.554 112.032 122.809 111.98 123.035 111.876C123.269 111.764 123.464 111.616 123.62 111.434C123.784 111.252 123.91 111.044 123.997 110.81C124.083 110.568 124.127 110.316 124.127 110.056C124.127 109.788 124.083 109.532 123.997 109.289C123.91 109.047 123.784 108.834 123.62 108.652C123.464 108.47 123.273 108.327 123.048 108.223C122.822 108.119 122.567 108.067 122.281 108.067ZM131.352 112.422H131.313C131.157 112.7 130.906 112.929 130.559 113.111C130.213 113.285 129.818 113.371 129.376 113.371C129.125 113.371 128.861 113.337 128.583 113.267C128.315 113.207 128.063 113.103 127.829 112.955C127.604 112.799 127.413 112.6 127.257 112.357C127.11 112.106 127.036 111.798 127.036 111.434C127.036 110.966 127.166 110.594 127.426 110.316C127.695 110.039 128.037 109.827 128.453 109.679C128.869 109.532 129.329 109.437 129.831 109.393C130.343 109.341 130.841 109.315 131.326 109.315V109.159C131.326 108.769 131.183 108.483 130.897 108.301C130.62 108.111 130.286 108.015 129.896 108.015C129.567 108.015 129.251 108.085 128.947 108.223C128.644 108.362 128.393 108.531 128.193 108.73L127.387 107.781C127.743 107.452 128.15 107.205 128.609 107.04C129.077 106.876 129.55 106.793 130.026 106.793C130.581 106.793 131.036 106.871 131.391 107.027C131.755 107.183 132.041 107.387 132.249 107.638C132.457 107.89 132.6 108.171 132.678 108.483C132.765 108.795 132.808 109.107 132.808 109.419V113.215H131.352V112.422ZM131.326 110.368H130.975C130.724 110.368 130.46 110.381 130.182 110.407C129.905 110.425 129.649 110.472 129.415 110.55C129.181 110.62 128.986 110.724 128.83 110.862C128.674 110.992 128.596 111.174 128.596 111.408C128.596 111.556 128.627 111.681 128.687 111.785C128.757 111.881 128.843 111.959 128.947 112.019C129.051 112.08 129.168 112.123 129.298 112.149C129.428 112.175 129.558 112.188 129.688 112.188C130.226 112.188 130.633 112.045 130.91 111.759C131.188 111.473 131.326 111.083 131.326 110.589V110.368ZM133.602 108.223V106.975H134.694V105.168H136.228V106.975H137.788V108.223H136.228V111.122C136.228 111.4 136.276 111.629 136.371 111.811C136.475 111.993 136.7 112.084 137.047 112.084C137.151 112.084 137.264 112.076 137.385 112.058C137.506 112.032 137.615 111.998 137.71 111.954L137.762 113.176C137.623 113.228 137.459 113.267 137.268 113.293C137.077 113.328 136.895 113.345 136.722 113.345C136.306 113.345 135.968 113.289 135.708 113.176C135.448 113.055 135.24 112.895 135.084 112.695C134.937 112.487 134.833 112.253 134.772 111.993C134.72 111.725 134.694 111.439 134.694 111.135V108.223H133.602ZM143.311 109.471C143.311 109.272 143.281 109.081 143.22 108.899C143.168 108.717 143.081 108.557 142.96 108.418C142.839 108.28 142.683 108.171 142.492 108.093C142.31 108.007 142.093 107.963 141.842 107.963C141.374 107.963 140.975 108.106 140.646 108.392C140.325 108.67 140.148 109.029 140.113 109.471H143.311ZM144.871 110.173C144.871 110.243 144.871 110.312 144.871 110.381C144.871 110.451 144.867 110.52 144.858 110.589H140.113C140.13 110.815 140.187 111.023 140.282 111.213C140.386 111.395 140.52 111.556 140.685 111.694C140.85 111.824 141.036 111.928 141.244 112.006C141.452 112.084 141.669 112.123 141.894 112.123C142.284 112.123 142.613 112.054 142.882 111.915C143.151 111.768 143.372 111.569 143.545 111.317L144.585 112.149C143.97 112.981 143.077 113.397 141.907 113.397C141.422 113.397 140.975 113.324 140.568 113.176C140.161 113.02 139.805 112.804 139.502 112.526C139.207 112.249 138.973 111.911 138.8 111.512C138.635 111.105 138.553 110.646 138.553 110.134C138.553 109.632 138.635 109.177 138.8 108.769C138.973 108.353 139.207 108.002 139.502 107.716C139.797 107.422 140.143 107.196 140.542 107.04C140.949 106.876 141.387 106.793 141.855 106.793C142.288 106.793 142.687 106.867 143.051 107.014C143.424 107.153 143.744 107.365 144.013 107.651C144.282 107.929 144.49 108.28 144.637 108.704C144.793 109.12 144.871 109.61 144.871 110.173ZM146.096 112.305C146.096 112.028 146.195 111.79 146.395 111.59C146.603 111.391 146.85 111.291 147.136 111.291C147.413 111.291 147.656 111.387 147.864 111.577C148.072 111.768 148.176 112.002 148.176 112.279C148.176 112.557 148.072 112.795 147.864 112.994C147.664 113.194 147.422 113.293 147.136 113.293C146.997 113.293 146.863 113.267 146.733 113.215C146.611 113.163 146.503 113.094 146.408 113.007C146.312 112.921 146.234 112.817 146.174 112.695C146.122 112.574 146.096 112.444 146.096 112.305ZM154.023 108.704C153.901 108.531 153.719 108.388 153.477 108.275C153.234 108.154 152.987 108.093 152.736 108.093C152.45 108.093 152.198 108.154 151.982 108.275C151.765 108.388 151.583 108.54 151.436 108.73C151.297 108.921 151.193 109.138 151.124 109.38C151.054 109.614 151.02 109.853 151.02 110.095C151.02 110.338 151.054 110.581 151.124 110.823C151.202 111.057 151.314 111.27 151.462 111.46C151.609 111.651 151.791 111.807 152.008 111.928C152.233 112.041 152.493 112.097 152.788 112.097C153.03 112.097 153.273 112.05 153.516 111.954C153.758 111.859 153.953 111.72 154.101 111.538L155.076 112.526C154.816 112.804 154.482 113.02 154.075 113.176C153.676 113.324 153.243 113.397 152.775 113.397C152.315 113.397 151.878 113.324 151.462 113.176C151.054 113.029 150.695 112.812 150.383 112.526C150.079 112.24 149.837 111.894 149.655 111.486C149.481 111.079 149.395 110.615 149.395 110.095C149.395 109.593 149.481 109.138 149.655 108.73C149.837 108.323 150.079 107.976 150.383 107.69C150.686 107.404 151.037 107.183 151.436 107.027C151.843 106.871 152.276 106.793 152.736 106.793C153.195 106.793 153.637 106.88 154.062 107.053C154.495 107.227 154.837 107.465 155.089 107.768L154.023 108.704ZM155.742 110.069C155.742 109.575 155.829 109.129 156.002 108.73C156.184 108.323 156.427 107.976 156.73 107.69C157.034 107.404 157.393 107.183 157.809 107.027C158.225 106.871 158.667 106.793 159.135 106.793C159.603 106.793 160.045 106.871 160.461 107.027C160.877 107.183 161.237 107.404 161.54 107.69C161.844 107.976 162.082 108.323 162.255 108.73C162.437 109.129 162.528 109.575 162.528 110.069C162.528 110.563 162.437 111.014 162.255 111.421C162.082 111.829 161.844 112.18 161.54 112.474C161.237 112.76 160.877 112.986 160.461 113.15C160.045 113.315 159.603 113.397 159.135 113.397C158.667 113.397 158.225 113.315 157.809 113.15C157.393 112.986 157.034 112.76 156.73 112.474C156.427 112.18 156.184 111.829 156.002 111.421C155.829 111.014 155.742 110.563 155.742 110.069ZM157.328 110.069C157.328 110.312 157.363 110.555 157.432 110.797C157.51 111.04 157.623 111.257 157.77 111.447C157.918 111.638 158.104 111.794 158.329 111.915C158.555 112.037 158.823 112.097 159.135 112.097C159.447 112.097 159.716 112.037 159.941 111.915C160.167 111.794 160.353 111.638 160.5 111.447C160.648 111.257 160.756 111.04 160.825 110.797C160.903 110.555 160.942 110.312 160.942 110.069C160.942 109.827 160.903 109.588 160.825 109.354C160.756 109.112 160.648 108.895 160.5 108.704C160.353 108.514 160.167 108.362 159.941 108.249C159.716 108.128 159.447 108.067 159.135 108.067C158.823 108.067 158.555 108.128 158.329 108.249C158.104 108.362 157.918 108.514 157.77 108.704C157.623 108.895 157.51 109.112 157.432 109.354C157.363 109.588 157.328 109.827 157.328 110.069ZM171.49 106.793C171.897 106.793 172.244 106.867 172.53 107.014C172.825 107.153 173.063 107.339 173.245 107.573C173.436 107.807 173.574 108.076 173.661 108.379C173.748 108.683 173.791 108.995 173.791 109.315V113.215H172.231V109.757C172.231 109.575 172.218 109.385 172.192 109.185C172.166 108.986 172.11 108.808 172.023 108.652C171.936 108.488 171.815 108.353 171.659 108.249C171.512 108.145 171.312 108.093 171.061 108.093C170.818 108.093 170.61 108.145 170.437 108.249C170.264 108.353 170.121 108.488 170.008 108.652C169.895 108.817 169.813 109.003 169.761 109.211C169.709 109.411 169.683 109.61 169.683 109.809V113.215H168.123V109.445C168.123 109.055 168.028 108.735 167.837 108.483C167.655 108.223 167.365 108.093 166.966 108.093C166.732 108.093 166.528 108.145 166.355 108.249C166.182 108.345 166.039 108.47 165.926 108.626C165.822 108.782 165.74 108.964 165.679 109.172C165.627 109.372 165.601 109.575 165.601 109.783V113.215H164.041V106.975H165.523V107.976H165.549C165.618 107.82 165.709 107.673 165.822 107.534C165.943 107.396 166.082 107.27 166.238 107.157C166.403 107.045 166.589 106.958 166.797 106.897C167.005 106.828 167.235 106.793 167.486 106.793C167.971 106.793 168.374 106.902 168.695 107.118C169.016 107.335 169.263 107.621 169.436 107.976C169.644 107.595 169.921 107.305 170.268 107.105C170.615 106.897 171.022 106.793 171.49 106.793Z" fill="white"/>
<path fill-rule="evenodd" clip-rule="evenodd" d="M283.511 290.275C283.611 290.005 283.857 289.816 284.143 289.78C300.084 287.789 312.419 274.189 312.419 257.708C312.419 239.856 297.947 225.384 280.095 225.384C262.244 225.384 247.772 239.856 247.772 257.708C247.772 274.09 259.96 287.626 275.763 289.743C276.052 289.782 276.298 289.978 276.394 290.254L278.462 296.227C278.922 297.557 280.795 297.578 281.285 296.259L283.511 290.275Z" fill="#2490F2"/>
<path fill-rule="evenodd" clip-rule="evenodd" d="M265.82 237.162C264.672 237.162 263.742 238.093 263.742 239.241V275.968C263.742 277.116 264.672 278.047 265.82 278.047H294.371C295.519 278.047 296.449 277.116 296.449 275.968V239.241C296.449 239.235 296.449 239.229 296.449 239.223V249.464L283.954 237.162H265.82Z" fill="white"/>
<path d="M283.963 237.162L296.449 249.453L286.042 249.453C284.894 249.453 283.963 248.522 283.963 247.374L283.963 237.162Z" fill="#80C4FF"/>
<path d="M267.184 255.495H268.444V258.355H271.754V255.495H273.014V262.575H271.754V259.435H268.444V262.575H267.184V255.495ZM276.007 256.595H273.837V255.495H279.437V256.595H277.267V262.575H276.007V256.595ZM280.26 255.495H282.23L284.07 260.525H284.1L285.92 255.495H287.9V262.575H286.65V256.885H286.63L284.48 262.575H283.6L281.48 256.885H281.46V262.575H280.26V255.495ZM289.459 255.495H290.719V261.455H293.729V262.575H289.459V255.495Z" fill="#3099F2"/>
</g>
<path fill-rule="evenodd" clip-rule="evenodd" d="M37.0615 340.204C37.7395 340.893 37.7308 342.001 37.042 342.679L37.0118 342.708C36.323 343.386 35.215 343.378 34.537 342.689C33.859 342 33.8677 340.892 34.5565 340.214L34.5867 340.184C35.2755 339.506 36.3835 339.515 37.0615 340.204ZM32.801 344.398C33.479 345.087 33.4703 346.195 32.7815 346.873L32.7513 346.902C32.0626 347.58 30.9546 347.572 30.2765 346.883C29.5985 346.194 29.6072 345.086 30.296 344.408L30.3262 344.378C31.015 343.7 32.123 343.709 32.801 344.398Z" fill="white"/>
<path fill-rule="evenodd" clip-rule="evenodd" d="M34.7855 315.637C35.3893 314.882 35.2669 313.781 34.5122 313.177L34.477 313.149C33.7223 312.545 32.621 312.667 32.0172 313.422C31.4135 314.177 31.5358 315.278 32.2905 315.882L32.3258 315.91C33.0805 316.514 34.1817 316.391 34.7855 315.637ZM29.8207 311.665C30.4245 310.91 30.3021 309.809 29.5474 309.205L29.5122 309.177C28.7575 308.573 27.6562 308.695 27.0524 309.45C26.4487 310.205 26.571 311.306 27.3258 311.91L27.361 311.938C28.1157 312.542 29.2169 312.419 29.8207 311.665Z" fill="white"/>
<defs>
<clipPath id="clip0">
<rect x="28.4189" y="28.5434" width="319" height="319" rx="3" fill="white"/>
</clipPath>
</defs>
</svg>
