<svg width="375" height="326" viewBox="0 0 375 326" fill="none" xmlns="http://www.w3.org/2000/svg">
<rect width="375" height="326" fill="#FAFAFA"/>
<rect x="28" y="104" width="319" height="194" rx="3" fill="#EBEBEB"/>
<rect x="147" y="119" width="185" height="144" rx="3" fill="white"/>
<path d="M161.005 245.06C160.825 245.09 160.625 245.1 160.265 245.1H159.625C159.705 244.74 159.735 244.62 159.805 244.06H160.715C161.065 244.06 161.275 244.07 161.495 244.1V243.05C161.235 243.09 160.985 243.1 160.515 243.1H159.065C158.625 243.1 158.395 243.09 158.125 243.05V244.1C158.355 244.07 158.475 244.06 158.835 244.06C158.635 245.52 158.185 246.6 157.365 247.55C157.605 247.85 157.765 248.13 157.955 248.53C158.245 248.17 158.385 247.97 158.585 247.65C159.175 248.2 159.295 248.32 159.565 248.65C159.065 249.6 158.455 250.29 157.505 250.97C157.835 251.26 158.005 251.45 158.265 251.81C160.125 250.29 160.995 248.6 161.305 245.91C161.335 245.69 161.335 245.64 161.355 245.51L161.005 245.06ZM160.345 246.04C160.255 246.77 160.185 247.11 159.985 247.68C159.695 247.36 159.645 247.31 159.055 246.77C159.175 246.5 159.245 246.33 159.355 246.04H160.345ZM157.305 245.07C157.605 244.4 157.765 243.96 157.905 243.44C157.935 243.33 158.015 243.05 158.065 242.93L157.035 242.55C156.785 244.01 156.085 245.56 155.225 246.53C155.395 246.82 155.545 247.2 155.665 247.7C155.945 247.35 156.045 247.2 156.325 246.69C156.305 247.14 156.305 247.4 156.305 247.88V250.55C156.305 251.07 156.285 251.38 156.245 251.75H157.355C157.315 251.37 157.305 251.08 157.305 250.55V245.07ZM162.785 249.36C162.755 249.13 162.745 248.91 162.745 248.5V244.17C162.745 243.77 162.755 243.56 162.785 243.32H161.715C161.745 243.61 161.755 243.81 161.755 244.17V248.51C161.755 248.88 161.735 249.11 161.705 249.36H162.785ZM164.425 243.77C164.425 243.29 164.435 243.01 164.475 242.74H163.375C163.415 243.07 163.435 243.31 163.435 243.77V250.44C163.435 250.67 163.375 250.7 162.865 250.7C162.615 250.7 162.115 250.66 161.705 250.62C161.865 251 161.925 251.22 161.975 251.65C162.395 251.67 162.605 251.67 162.865 251.67C164.135 251.67 164.425 251.48 164.425 250.64V243.77ZM166.225 252.76C166.785 251.95 167.015 251.54 167.295 250.86C167.685 249.89 167.865 248.94 167.865 247.88C167.865 247 167.735 246.17 167.485 245.39C167.205 244.56 166.915 244.01 166.225 243.02L165.165 243.7C165.745 244.54 165.985 244.99 166.205 245.69C166.435 246.38 166.545 247.11 166.545 247.9C166.545 248.69 166.435 249.4 166.225 250.07C166.005 250.75 165.765 251.2 165.185 252.05L166.225 252.76ZM174.107 251.12C174.047 250.74 174.027 250.36 174.027 249.82V248.15H175.937C176.897 248.15 177.577 247.92 178.067 247.43C178.507 246.97 178.737 246.35 178.737 245.59C178.737 244.87 178.527 244.27 178.117 243.87C177.637 243.39 176.957 243.16 175.987 243.16H173.897C173.367 243.16 173.057 243.15 172.627 243.13C172.687 243.58 172.707 243.94 172.707 244.42V249.83C172.707 250.37 172.687 250.72 172.627 251.12H174.107ZM174.027 247V244.31H175.937C176.467 244.31 176.797 244.42 177.027 244.67C177.247 244.9 177.357 245.23 177.357 245.63C177.357 246.51 176.857 247 175.937 247H174.027ZM183.487 245.38C183.537 245.81 183.567 246.19 183.567 246.68V248.7C183.117 249.69 182.547 250.18 181.827 250.18C181.637 250.18 181.427 250.12 181.277 250.04C180.967 249.85 180.817 249.48 180.817 248.9V246.68C180.817 246.17 180.827 245.83 180.887 245.38H179.437C179.487 245.75 179.517 246.13 179.517 246.68V249.21C179.517 250.03 179.777 250.59 180.327 250.94C180.657 251.14 181.017 251.23 181.527 251.23C182.477 251.23 183.027 250.94 183.577 250.16C183.567 250.41 183.567 250.44 183.567 250.59V251.12H184.927C184.867 250.71 184.847 250.37 184.847 249.82V246.68C184.847 246.12 184.857 245.81 184.927 245.38H183.487ZM187.385 251.12C187.335 250.66 187.315 250.36 187.315 249.82V247.84C187.425 247.36 187.525 247.13 187.745 246.84C188.015 246.49 188.355 246.32 188.775 246.32C189.425 246.32 189.745 246.74 189.745 247.58V249.82C189.745 250.39 189.725 250.7 189.665 251.12H191.105C191.055 250.71 191.035 250.37 191.035 249.82V247.84C191.155 247.22 191.315 246.9 191.665 246.6C191.905 246.39 192.155 246.3 192.485 246.3C193.155 246.3 193.465 246.7 193.465 247.58V249.82C193.465 250.41 193.445 250.71 193.385 251.12H194.845C194.785 250.71 194.765 250.38 194.765 249.82V247.35C194.765 246.64 194.625 246.19 194.295 245.83C193.955 245.46 193.435 245.26 192.795 245.26C192.345 245.26 192.005 245.34 191.675 245.52C191.365 245.68 191.175 245.86 190.835 246.31C190.715 246 190.635 245.87 190.455 245.71C190.145 245.41 189.705 245.26 189.165 245.26C188.335 245.26 187.595 245.65 187.305 246.26C187.315 246.1 187.315 245.95 187.315 245.89V245.38H185.975C186.025 245.76 186.045 246.05 186.045 246.68V249.82C186.045 250.36 186.025 250.69 185.975 251.12H187.385ZM199.673 251.12H201.023C200.963 250.67 200.943 250.4 200.943 249.87V247.18C200.943 246.5 200.813 246.12 200.473 245.8C200.043 245.38 199.463 245.21 198.503 245.21C197.643 245.21 197.083 245.36 196.593 245.72C196.213 245.99 196.033 246.25 195.803 246.83L197.083 247.06C197.203 246.7 197.293 246.56 197.483 246.42C197.713 246.24 198.123 246.13 198.523 246.13C199.283 246.13 199.673 246.43 199.673 247.01V247.52C198.243 247.55 197.503 247.65 196.853 247.92C196.163 248.21 195.723 248.84 195.723 249.54C195.723 250.59 196.463 251.22 197.683 251.22C198.003 251.22 198.323 251.18 198.613 251.1C199.023 250.99 199.273 250.85 199.673 250.47V251.12ZM199.673 248.89C199.673 249.24 199.553 249.53 199.313 249.77C198.973 250.1 198.453 250.3 197.923 250.3C197.363 250.3 197.013 250.01 197.013 249.54C197.013 248.76 197.763 248.43 199.673 248.39V248.89ZM208.321 252.05C207.741 251.2 207.501 250.75 207.281 250.07C207.071 249.41 206.961 248.68 206.961 247.9C206.961 247.11 207.071 246.38 207.301 245.69C207.521 244.99 207.761 244.54 208.341 243.7L207.281 243.02C206.591 244.01 206.301 244.56 206.031 245.39C205.771 246.16 205.641 247.01 205.641 247.88C205.641 248.93 205.821 249.89 206.221 250.86C206.491 251.54 206.721 251.95 207.281 252.76L208.321 252.05ZM215.823 251.12C215.683 250.85 215.433 250.31 215.353 250.13C214.363 247.79 214.173 247.51 213.543 247.31C214.113 247.15 214.373 247.02 214.653 246.73C214.993 246.38 215.163 245.88 215.163 245.24C215.163 243.92 214.293 243.16 212.773 243.16H210.373C209.823 243.16 209.513 243.15 209.093 243.13C209.153 243.6 209.173 243.9 209.173 244.43V249.82C209.173 250.43 209.153 250.7 209.093 251.12H210.583C210.523 250.73 210.503 250.41 210.503 249.81V247.77H211.993C212.763 247.77 213.113 248.14 213.653 249.52C213.983 250.37 214.153 250.88 214.173 251.12H215.823ZM210.503 246.63V244.3H212.553C213.373 244.3 213.783 244.67 213.783 245.39C213.783 245.77 213.673 246.06 213.463 246.27C213.233 246.5 212.883 246.63 212.513 246.63H210.503ZM220.338 251.12H221.688C221.628 250.67 221.608 250.4 221.608 249.87V247.18C221.608 246.5 221.478 246.12 221.138 245.8C220.708 245.38 220.128 245.21 219.168 245.21C218.308 245.21 217.748 245.36 217.258 245.72C216.878 245.99 216.698 246.25 216.468 246.83L217.748 247.06C217.868 246.7 217.958 246.56 218.148 246.42C218.378 246.24 218.788 246.13 219.188 246.13C219.948 246.13 220.338 246.43 220.338 247.01V247.52C218.908 247.55 218.168 247.65 217.518 247.92C216.828 248.21 216.388 248.84 216.388 249.54C216.388 250.59 217.128 251.22 218.348 251.22C218.668 251.22 218.988 251.18 219.278 251.1C219.688 250.99 219.938 250.85 220.338 250.47V251.12ZM220.338 248.89C220.338 249.24 220.218 249.53 219.978 249.77C219.638 250.1 219.118 250.3 218.588 250.3C218.028 250.3 217.678 250.01 217.678 249.54C217.678 248.76 218.428 248.43 220.338 248.39V248.89ZM222.675 243.16V244.43H224.145V243.16H222.675ZM222.675 245.38C222.735 245.79 222.755 246.13 222.755 246.68V249.82C222.755 250.32 222.735 250.67 222.675 251.12H224.135C224.085 250.7 224.065 250.36 224.065 249.81V246.69C224.065 246.08 224.085 245.75 224.135 245.38H222.675ZM225.19 243.16C225.24 243.54 225.26 243.86 225.26 244.46V249.82C225.26 250.4 225.24 250.69 225.19 251.12H226.64C226.59 250.68 226.57 250.35 226.57 249.82V244.47C226.57 243.87 226.59 243.55 226.64 243.16H225.19ZM227.455 249.49C227.575 249.94 227.665 250.14 227.845 250.38C228.275 250.96 229.045 251.27 230.075 251.27C230.985 251.27 231.685 251.05 232.145 250.62C232.445 250.34 232.635 249.9 232.635 249.49C232.635 248.94 232.445 248.53 232.055 248.25C231.725 248 231.315 247.86 230.295 247.64C229.725 247.51 229.515 247.45 229.295 247.34C229.095 247.23 228.985 247.06 228.985 246.87C228.985 246.45 229.405 246.17 230.025 246.17C230.675 246.17 231.015 246.41 231.125 246.96L232.445 246.79C232.305 246.3 232.165 246.05 231.905 245.8C231.495 245.42 230.845 245.22 230.025 245.22C229.115 245.22 228.435 245.48 228.025 246C227.825 246.25 227.715 246.58 227.715 246.93C227.715 247.51 228.025 247.99 228.595 248.26C228.935 248.42 229.245 248.52 230.035 248.69C230.835 248.87 230.895 248.88 231.085 249.01C231.245 249.12 231.345 249.31 231.345 249.51C231.345 249.98 230.885 250.27 230.145 250.27C229.365 250.27 228.995 250 228.825 249.32L227.455 249.49ZM234.113 252.76C234.673 251.95 234.903 251.54 235.183 250.86C235.573 249.89 235.753 248.94 235.753 247.88C235.753 247 235.623 246.17 235.373 245.39C235.093 244.56 234.803 244.01 234.113 243.02L233.053 243.7C233.633 244.54 233.873 244.99 234.093 245.69C234.323 246.38 234.433 247.11 234.433 247.9C234.433 248.69 234.323 249.4 234.113 250.07C233.893 250.75 233.653 251.2 233.073 252.05L234.113 252.76Z" fill="#212121"/>
<rect x="43" y="119" width="89" height="144" rx="3" fill="white"/>
<path d="M67.3077 245.06C67.1277 245.09 66.9277 245.1 66.5677 245.1H65.9277C66.0077 244.74 66.0377 244.62 66.1077 244.06H67.0177C67.3677 244.06 67.5777 244.07 67.7977 244.1V243.05C67.5377 243.09 67.2877 243.1 66.8177 243.1H65.3677C64.9277 243.1 64.6977 243.09 64.4277 243.05V244.1C64.6577 244.07 64.7777 244.06 65.1377 244.06C64.9377 245.52 64.4877 246.6 63.6677 247.55C63.9077 247.85 64.0677 248.13 64.2577 248.53C64.5477 248.17 64.6877 247.97 64.8877 247.65C65.4777 248.2 65.5977 248.32 65.8677 248.65C65.3677 249.6 64.7577 250.29 63.8077 250.97C64.1377 251.26 64.3077 251.45 64.5677 251.81C66.4277 250.29 67.2977 248.6 67.6077 245.91C67.6377 245.69 67.6377 245.64 67.6577 245.51L67.3077 245.06ZM66.6477 246.04C66.5577 246.77 66.4877 247.11 66.2877 247.68C65.9977 247.36 65.9477 247.31 65.3577 246.77C65.4777 246.5 65.5477 246.33 65.6577 246.04H66.6477ZM63.6077 245.07C63.9077 244.4 64.0677 243.96 64.2077 243.44C64.2377 243.33 64.3177 243.05 64.3677 242.93L63.3377 242.55C63.0877 244.01 62.3877 245.56 61.5277 246.53C61.6977 246.82 61.8477 247.2 61.9677 247.7C62.2477 247.35 62.3477 247.2 62.6277 246.69C62.6077 247.14 62.6077 247.4 62.6077 247.88V250.55C62.6077 251.07 62.5877 251.38 62.5477 251.75H63.6577C63.6177 251.37 63.6077 251.08 63.6077 250.55V245.07ZM69.0877 249.36C69.0577 249.13 69.0477 248.91 69.0477 248.5V244.17C69.0477 243.77 69.0577 243.56 69.0877 243.32H68.0177C68.0477 243.61 68.0577 243.81 68.0577 244.17V248.51C68.0577 248.88 68.0377 249.11 68.0077 249.36H69.0877ZM70.7277 243.77C70.7277 243.29 70.7377 243.01 70.7777 242.74H69.6777C69.7177 243.07 69.7377 243.31 69.7377 243.77V250.44C69.7377 250.67 69.6777 250.7 69.1677 250.7C68.9177 250.7 68.4177 250.66 68.0077 250.62C68.1677 251 68.2277 251.22 68.2777 251.65C68.6977 251.67 68.9077 251.67 69.1677 251.67C70.4377 251.67 70.7277 251.48 70.7277 250.64V243.77ZM72.7277 252.76C73.2877 251.95 73.5177 251.54 73.7977 250.86C74.1877 249.89 74.3677 248.94 74.3677 247.88C74.3677 247 74.2377 246.17 73.9877 245.39C73.7077 244.56 73.4177 244.01 72.7277 243.02L71.6677 243.7C72.2477 244.54 72.4877 244.99 72.7077 245.69C72.9377 246.38 73.0477 247.11 73.0477 247.9C73.0477 248.69 72.9377 249.4 72.7277 250.07C72.5077 250.75 72.2677 251.2 71.6877 252.05L72.7277 252.76ZM86.3203 251.12C86.2603 250.77 86.2403 250.39 86.2403 249.83V244.54C86.2403 243.93 86.2603 243.56 86.3203 243.16H84.8603C84.9203 243.54 84.9403 243.95 84.9403 244.54V247.9C84.9403 248.32 84.9703 248.92 85.0103 249.31C84.7903 248.91 84.4703 248.39 84.2303 248.03L81.7003 244.22C81.3603 243.71 81.1803 243.41 81.0903 243.16H79.5303C79.5903 243.57 79.6103 243.93 79.6103 244.45V249.61C79.6103 250.29 79.5803 250.79 79.5303 251.12H80.9903C80.9403 250.76 80.9103 250.29 80.9103 249.62V246.34C80.9103 246.11 80.8903 245.66 80.8803 245.47C80.8503 245.1 80.8503 245.1 80.8403 244.96C81.0803 245.43 81.3303 245.86 81.5203 246.16L84.1003 250.05C84.3903 250.49 84.5703 250.78 84.7403 251.12H86.3203ZM87.5332 252.04C88.2132 252.81 88.8732 253.08 90.0432 253.08C91.0732 253.08 91.9032 252.85 92.4032 252.44C92.9832 251.95 93.2432 251.18 93.2432 249.98V246.63C93.2432 246.09 93.2632 245.81 93.3132 245.38H91.9732V245.84C91.9732 245.95 91.9732 245.97 91.9932 246.17C91.5632 245.56 90.9732 245.29 90.0832 245.29C88.4632 245.29 87.4132 246.41 87.4132 248.14C87.4132 249.85 88.4332 250.94 90.0232 250.94C90.8932 250.94 91.4832 250.66 91.9832 250.03C91.9632 250.71 91.8932 251.06 91.7232 251.36C91.4432 251.84 90.8532 252.11 90.0832 252.11C89.3632 252.11 88.9232 251.89 88.5332 251.35L87.5332 252.04ZM88.7232 248.17C88.7232 246.98 89.3432 246.23 90.3432 246.23C90.7032 246.23 91.0332 246.36 91.3132 246.59C91.7132 246.93 91.9132 247.43 91.9132 248.07C91.9132 248.53 91.8232 248.9 91.6332 249.21C91.3532 249.68 90.7932 250 90.2432 250C89.8632 250 89.4332 249.82 89.1832 249.55C88.8832 249.25 88.7232 248.76 88.7232 248.17ZM94.577 243.16V244.43H96.047V243.16H94.577ZM94.577 245.38C94.637 245.79 94.657 246.13 94.657 246.68V249.82C94.657 250.32 94.637 250.67 94.577 251.12H96.037C95.987 250.7 95.967 250.36 95.967 249.81V246.69C95.967 246.08 95.987 245.75 96.037 245.38H94.577ZM98.7319 251.12C98.6719 250.69 98.6519 250.31 98.6519 249.82V247.8C99.0919 246.81 99.6819 246.31 100.402 246.31C100.782 246.31 101.082 246.46 101.242 246.72C101.362 246.91 101.412 247.18 101.412 247.6V249.82C101.412 250.33 101.392 250.67 101.342 251.12H102.792C102.732 250.75 102.712 250.37 102.712 249.82V247.42C102.712 246.75 102.612 246.35 102.372 246.02C102.012 245.53 101.442 245.28 100.672 245.28C99.7719 245.28 99.2419 245.56 98.6319 246.34C98.6519 246.09 98.6519 246.06 98.6519 245.91V245.38H97.2919C97.3519 245.79 97.3719 246.13 97.3719 246.68V249.82C97.3719 250.38 97.3519 250.69 97.2919 251.12H98.7319ZM109.43 251.12C109.16 250.79 108.83 250.36 108.69 250.16L107.23 248.12L108.58 246.24C108.74 246.01 108.9 245.79 109.22 245.38H107.67C107.57 245.61 107.43 245.87 107.25 246.14L106.49 247.26L105.72 246.14C105.55 245.89 105.42 245.65 105.3 245.38H103.74C104.19 245.96 104.27 246.07 104.38 246.22L105.74 248.12L104.24 250.22C104.07 250.45 103.76 250.85 103.54 251.12H105.15C105.33 250.75 105.42 250.6 105.58 250.36L106.48 249.02L107.35 250.3C107.55 250.59 107.65 250.77 107.82 251.12H109.43Z" fill="#212121"/>
<path d="M81.2835 209.245C81.3135 209.035 81.3135 209.035 81.3935 208.755C81.4135 208.665 81.4635 208.485 81.5335 208.205L83.1335 202.475C83.2935 201.895 83.3835 201.625 83.5235 201.285H81.9235C81.9135 201.565 81.8535 201.975 81.7535 202.355L80.8235 206.125C80.8035 206.215 80.7235 206.605 80.6935 206.765C80.6335 207.115 80.6335 207.115 80.5835 207.345C80.4235 206.595 80.3735 206.395 80.3035 206.135L79.1835 202.285C79.0735 201.915 78.9835 201.525 78.9535 201.285H77.7235C77.6935 201.555 77.6235 201.885 77.5035 202.305L76.3935 206.165C76.3135 206.445 76.2435 206.725 76.1135 207.345C76.0535 206.995 75.9435 206.485 75.8735 206.175L74.9435 202.365C74.8335 201.925 74.7835 201.625 74.7635 201.285H73.1635C73.2935 201.585 73.3935 201.895 73.5635 202.475L75.1535 208.215C75.3735 208.995 75.3735 208.995 75.4235 209.245H76.7535C76.7835 209.005 76.8635 208.685 76.9835 208.235L78.0435 204.515C78.1335 204.195 78.2335 203.805 78.3435 203.235C78.4335 203.745 78.5235 204.125 78.6335 204.515L79.7035 208.235C79.8035 208.575 79.9035 209.005 79.9435 209.245H81.2835ZM89.6296 206.705C89.6096 206.475 89.6096 206.445 89.6096 206.425C89.5796 205.745 89.5096 205.385 89.3196 204.905C88.9196 203.905 87.9996 203.325 86.8296 203.325C85.1196 203.325 84.0096 204.535 84.0096 206.385C84.0096 208.255 85.1296 209.435 86.8996 209.435C87.7396 209.435 88.4396 209.175 88.9596 208.665C89.2096 208.415 89.3396 208.225 89.5696 207.745L88.3896 207.365C88.2896 207.635 88.2196 207.745 88.0996 207.885C87.8096 208.205 87.3896 208.385 86.8996 208.385C86.3896 208.385 85.9396 208.185 85.6496 207.825C85.4196 207.535 85.3296 207.255 85.2796 206.705H89.6296ZM85.3096 205.715C85.4596 204.875 86.0296 204.355 86.8096 204.355C87.2796 204.355 87.6196 204.485 87.8896 204.755C88.1396 205.005 88.2596 205.275 88.3296 205.715H85.3096ZM91.9468 209.245V208.755C91.9468 208.635 91.9468 208.525 91.9368 208.395C92.4368 209.095 93.0068 209.385 93.9268 209.385C94.7368 209.385 95.3768 209.145 95.8468 208.665C96.3868 208.105 96.6668 207.305 96.6668 206.325C96.6668 204.465 95.6768 203.375 93.9968 203.375C93.0768 203.375 92.4568 203.685 91.9368 204.385C91.9468 204.045 91.9568 203.795 91.9568 203.635V202.635C91.9568 202.035 91.9768 201.705 92.0268 201.285H90.6168C90.6668 201.765 90.6868 202.115 90.6868 202.625V207.895C90.6868 208.485 90.6668 208.805 90.6168 209.245H91.9468ZM95.3668 206.325C95.3668 207.535 94.7168 208.315 93.7068 208.315C93.3368 208.315 92.9468 208.175 92.6568 207.945C92.2568 207.625 91.9968 206.995 91.9968 206.365C91.9968 205.845 92.1868 205.305 92.4868 204.975C92.8168 204.615 93.2868 204.425 93.8468 204.425C94.7668 204.425 95.3668 205.175 95.3668 206.325ZM69.097 216.965V215.935C69.097 215.425 69.097 215.405 69.137 215.075H67.827C67.867 215.335 67.877 215.545 67.877 215.965V216.965H67.287C66.577 216.965 66.377 216.955 65.987 216.895V218.115C66.337 218.075 66.607 218.065 67.267 218.065H67.877V219.545C67.877 219.915 67.867 220.185 67.837 220.405H69.137C69.107 220.145 69.097 219.985 69.097 219.565V218.065H71.687C71.667 218.755 71.667 218.995 71.647 219.225C71.557 220.375 71.267 221.035 70.587 221.625C70.107 222.045 69.627 222.285 68.677 222.575C69.107 223.015 69.237 223.205 69.427 223.635C70.347 223.305 70.837 223.045 71.377 222.585C72.247 221.845 72.677 220.995 72.817 219.715C72.867 219.335 72.867 219.265 72.887 218.065H73.557C74.217 218.065 74.487 218.075 74.837 218.115V216.895C74.447 216.955 74.247 216.965 73.537 216.965H72.897C72.907 216.365 72.907 216.365 72.907 215.755C72.907 215.365 72.917 215.315 72.947 215.085H71.657C71.697 215.315 71.707 215.535 71.707 216.195V216.515L71.697 216.965H69.097ZM76.117 219.985C76.517 219.935 76.627 219.935 77.747 219.935H83.057C84.177 219.935 84.287 219.935 84.687 219.985V218.595C84.247 218.655 84.057 218.665 83.067 218.665H77.737C76.747 218.665 76.557 218.655 76.117 218.595V219.985ZM87.8742 215.635C87.8742 215.695 87.8742 215.745 87.8742 215.775C87.8742 215.995 87.8442 216.335 87.7842 216.745C87.6242 218.005 87.2742 219.245 86.8442 220.175C86.4242 221.095 86.0142 221.705 85.4142 222.305C85.8942 222.565 86.0842 222.715 86.5542 223.165C87.8942 221.625 88.6742 219.655 89.0942 216.785L89.1242 216.545L89.1742 216.255L89.1942 216.085C89.2042 216.005 89.2142 215.995 89.2442 215.885L87.8742 215.635ZM90.8442 215.875C90.8942 216.025 90.9242 216.185 90.9842 216.595C91.3742 219.285 92.3042 221.585 93.6342 223.175C94.0142 222.745 94.2242 222.575 94.7342 222.255C93.6942 221.135 92.9942 219.785 92.5042 217.935C92.2742 217.075 92.0942 216.095 92.0842 215.635L90.8442 215.875ZM92.1842 215.255C92.5642 215.815 92.7742 216.245 93.0042 216.885L93.7642 216.645C93.5242 215.975 93.3042 215.555 92.9342 215.035L92.1842 215.255ZM95.0742 216.245C94.8542 215.645 94.6342 215.225 94.2542 214.695L93.5142 214.905C93.8342 215.365 94.0842 215.865 94.3142 216.485L95.0742 216.245ZM95.4139 219.985C95.8139 219.935 95.9239 219.935 97.0439 219.935H102.354C103.474 219.935 103.584 219.935 103.984 219.985V218.595C103.544 218.655 103.354 218.665 102.364 218.665H97.0339C96.0439 218.665 95.8539 218.655 95.4139 218.595V219.985Z" fill="#212121"/>
<path d="M63.3347 76.97C63.1047 77.05 62.9947 77.07 62.6047 77.07L60.4147 77.1C60.2247 77.1 60.0647 77.11 59.9347 77.12C60.0347 76.94 60.0347 76.94 60.0947 76.8C60.1947 76.6 60.1947 76.6 60.2247 76.54C60.3247 76.31 60.3247 76.31 60.3547 76.26C60.4647 76.04 60.4647 76.04 60.5247 75.95L59.1547 75.68C59.1147 76.04 58.9547 76.43 58.6447 77C57.9147 78.32 57.1947 79.12 56.0547 79.9C56.5747 80.22 56.7247 80.35 57.0247 80.76C57.9747 80.03 58.7547 79.17 59.3647 78.2L62.3747 78.15C61.8247 79.94 60.8847 81.31 59.4547 82.37C58.8247 82.84 58.2647 83.14 57.2647 83.55C57.7047 83.93 57.8347 84.1 58.1147 84.6C59.6547 83.89 60.7547 83.11 61.6747 82.06C62.5547 81.07 63.2647 79.72 63.7247 78.2C63.8347 77.84 63.8747 77.75 63.9747 77.6L63.3347 76.97ZM67.2447 77.37C67.5547 77.33 67.7447 77.32 68.3947 77.32H71.9247C72.5747 77.32 72.7647 77.33 73.0747 77.37V76.14C72.7447 76.2 72.5347 76.21 71.9047 76.21H68.4147C67.7847 76.21 67.5747 76.2 67.2447 76.14V77.37ZM73.5847 78.53C73.2747 78.6 73.0747 78.62 72.4547 78.62H67.6947C66.9947 78.62 66.7747 78.61 66.3947 78.55V79.77C66.7547 79.73 67.0047 79.72 67.6747 79.72H72.5447C72.1047 80.83 71.6747 81.44 70.9347 82.06C70.1647 82.7 69.3747 83.07 68.1547 83.38C68.5947 83.87 68.7147 84.04 68.9347 84.54C70.1947 84.07 70.8447 83.73 71.5547 83.18C72.5947 82.38 73.3547 81.27 73.8747 79.8C73.9947 79.49 74.0547 79.35 74.1547 79.17L73.5847 78.53ZM82.8647 75.88C82.5747 76.37 81.8947 77.06 81.0047 77.75C79.4147 78.98 77.7347 79.81 75.7547 80.35C76.1047 80.8 76.2147 80.97 76.4247 81.49C78.2647 80.83 78.8247 80.57 79.9947 79.87V83.39C79.9947 83.98 79.9847 84.18 79.9347 84.47H81.3347C81.2947 84.2 81.2847 83.91 81.2847 83.36V79.09C82.1447 78.46 82.8947 77.81 83.6447 77.03C83.7947 76.87 83.8447 76.83 84.0147 76.68L82.8647 75.88ZM93.9147 76.35C93.6347 76.43 93.5447 76.44 92.9447 76.44H87.7247C87.0347 76.44 86.7247 76.42 86.3447 76.36V77.61C86.7547 77.56 87.0047 77.55 87.7047 77.55H92.9547C92.7247 78.03 92.4147 78.44 92.0047 78.82C91.5947 79.21 91.2147 79.44 90.5447 79.74C90.9947 80.08 91.1447 80.23 91.4447 80.65C91.9147 80.39 92.2447 80.17 92.6447 79.82C93.2547 79.3 93.8347 78.55 94.1847 77.81C94.4447 77.29 94.4447 77.28 94.5847 77.11L93.9147 76.35ZM89.1647 78.37C89.2047 78.58 89.2147 78.67 89.2147 78.97C89.2147 80.86 88.8947 81.72 87.8747 82.53C87.3847 82.92 86.9347 83.14 86.1247 83.38C86.5247 83.8 86.6547 83.98 86.9147 84.52C88.1647 84 88.8947 83.49 89.4947 82.72C90.1747 81.85 90.4447 80.89 90.4847 79.18C90.4947 78.57 90.4947 78.56 90.5247 78.37H89.1647ZM96.4447 77.58C97.3747 78.1 98.1947 78.76 98.9947 79.61L99.8547 78.52C99.0847 77.79 98.4647 77.33 97.2747 76.59L96.4447 77.58ZM96.7947 84.18C97.0247 84.1 97.0547 84.09 97.4547 84.01C99.0047 83.68 100.245 83.19 101.265 82.51C102.635 81.6 103.585 80.42 104.435 78.59C103.925 78.23 103.765 78.08 103.375 77.61C103.075 78.42 102.795 78.97 102.355 79.61C101.565 80.75 100.635 81.52 99.3847 82.06C98.4747 82.46 97.2847 82.75 96.4247 82.8L96.7947 84.18ZM109.245 84.45C109.215 84.12 109.205 83.86 109.205 83.34V80.7C109.205 80.42 109.195 80.3 109.165 80.02C109.245 80.07 109.275 80.08 109.505 80.19C111.175 80.96 112.215 81.53 113.045 82.1L113.745 80.92C112.145 80.02 110.575 79.29 109.205 78.81V76.95C109.205 76.33 109.205 76.2 109.245 75.9H107.875C107.915 76.17 107.935 76.43 107.935 76.92V83.33C107.935 83.86 107.925 84.13 107.875 84.45H109.245Z" fill="black"/>
<path d="M163.69 201.475C163.41 201.555 163.32 201.565 162.72 201.565H157.5C156.81 201.565 156.5 201.545 156.12 201.485V202.735C156.53 202.685 156.78 202.675 157.48 202.675H162.73C162.5 203.155 162.19 203.565 161.78 203.945C161.37 204.335 160.99 204.565 160.32 204.865C160.77 205.205 160.92 205.355 161.22 205.775C161.69 205.515 162.02 205.295 162.42 204.945C163.03 204.425 163.61 203.675 163.96 202.935C164.22 202.415 164.22 202.405 164.36 202.235L163.69 201.475ZM158.94 203.495C158.98 203.705 158.99 203.795 158.99 204.095C158.99 205.985 158.67 206.845 157.65 207.655C157.16 208.045 156.71 208.265 155.9 208.505C156.3 208.925 156.43 209.105 156.69 209.645C157.94 209.125 158.67 208.615 159.27 207.845C159.95 206.975 160.22 206.015 160.26 204.305C160.27 203.695 160.27 203.685 160.3 203.495H158.94ZM167.37 201.855C166.69 201.855 166.45 201.845 166.09 201.785V203.085C166.42 203.035 166.61 203.025 167.35 203.025H172.11C171.47 205.685 169.66 207.545 166.89 208.405C167.34 208.845 167.51 209.075 167.77 209.595C170.93 208.275 172.7 206.235 173.51 202.965C173.58 202.975 173.64 202.985 173.7 202.985C174.34 202.985 174.86 202.465 174.86 201.825C174.86 201.195 174.34 200.675 173.7 200.675C173.06 200.675 172.56 201.185 172.55 201.835C172.38 201.845 172.26 201.855 171.96 201.855H167.37ZM173.7 201.175C174.07 201.175 174.36 201.465 174.36 201.825C174.36 202.185 174.07 202.485 173.7 202.485C173.34 202.485 173.05 202.185 173.05 201.825C173.05 201.465 173.34 201.175 173.7 201.175ZM177.04 201.235C177.07 201.495 177.08 201.625 177.08 202.135V204.885C177.08 205.245 177.06 205.555 177.03 205.785H178.4C178.36 205.535 178.36 205.405 178.36 204.905V202.145C178.36 201.615 178.36 201.525 178.4 201.245L177.04 201.235ZM181.55 201.255C181.59 201.485 181.6 201.695 181.6 202.205V203.455C181.6 204.255 181.59 204.695 181.55 205.125C181.44 206.445 181.11 207.055 180.17 207.675C179.57 208.075 178.99 208.285 178.01 208.475C178.43 209.005 178.53 209.175 178.71 209.665C179.63 209.395 180.13 209.195 180.66 208.895C181.7 208.315 182.34 207.565 182.63 206.565C182.81 205.935 182.88 205.095 182.89 203.535V202.185C182.89 201.615 182.9 201.505 182.94 201.255H181.55ZM193.02 203.855C193.33 203.865 193.55 203.865 193.68 203.865C194.03 203.865 194.03 203.865 194.29 203.895V202.665C193.87 202.715 193.75 202.725 193.03 202.725C188.95 202.725 188.95 202.725 188.66 202.735C188.78 202.485 188.88 202.265 188.96 202.085C189.26 201.385 189.26 201.385 189.34 201.225L188.04 200.915C187.96 201.355 187.84 201.725 187.54 202.345C187.01 203.485 186.35 204.345 185.43 205.095C185.91 205.355 186.07 205.475 186.45 205.885C187.17 205.225 187.53 204.785 188.11 203.855H190.51C190.41 205.555 189.99 206.585 189.08 207.395C188.49 207.915 187.91 208.245 187.05 208.545C187.48 208.935 187.63 209.135 187.88 209.645C189.12 209.075 189.84 208.565 190.48 207.815C191.27 206.875 191.64 205.815 191.77 204.115C191.78 203.955 191.78 203.955 191.79 203.855H193.02ZM195.71 205.985C196.11 205.935 196.22 205.935 197.34 205.935H202.65C203.77 205.935 203.88 205.935 204.28 205.985V204.595C203.84 204.655 203.65 204.665 202.66 204.665H197.33C196.34 204.665 196.15 204.655 195.71 204.595V205.985ZM206.91 202.195C207.78 202.495 208.67 202.965 209.58 203.575L210.22 202.475C209.38 201.965 208.59 201.585 207.56 201.185L206.91 202.195ZM206.12 204.625C207.14 205.025 208.03 205.505 208.83 206.095L209.45 204.965C208.59 204.405 207.82 204.015 206.79 203.605L206.12 204.625ZM206.69 209.445C206.89 209.385 207.03 209.355 207.39 209.285C209.85 208.795 211.55 207.905 212.82 206.445C213.44 205.715 213.86 205.025 214.32 203.915C213.84 203.585 213.69 203.455 213.28 203.025C212.97 203.915 212.66 204.515 212.12 205.235C211.32 206.305 210.47 206.955 209.23 207.435C208.19 207.835 207.1 208.075 206.34 208.085L206.69 209.445ZM221.69 209.285V209.755H222.84C222.81 209.525 222.8 209.375 222.8 208.995V204.415C222.8 203.975 222.81 203.725 222.83 203.365C222.54 203.395 222.26 203.405 221.9 203.405H217.96C217.56 203.405 217.34 203.385 217.06 203.335V204.445C217.32 204.415 217.47 204.405 217.96 204.405H221.7V205.795H218.22C217.82 205.795 217.59 205.775 217.32 205.725V206.815C217.57 206.785 217.72 206.775 218.22 206.775H221.7V208.285H217.86C217.47 208.285 217.23 208.265 216.96 208.215V209.325C217.21 209.295 217.36 209.285 217.86 209.285H221.69ZM226.22 202.705C227.15 203.225 227.97 203.885 228.77 204.735L229.63 203.645C228.86 202.915 228.24 202.455 227.05 201.715L226.22 202.705ZM226.57 209.305C226.8 209.225 226.83 209.215 227.23 209.135C228.78 208.805 230.02 208.315 231.04 207.635C232.41 206.725 233.36 205.545 234.21 203.715C233.7 203.355 233.54 203.205 233.15 202.735C232.85 203.545 232.57 204.095 232.13 204.735C231.34 205.875 230.41 206.645 229.16 207.185C228.25 207.585 227.06 207.875 226.2 207.925L226.57 209.305ZM179.042 216.965V215.935C179.042 215.425 179.042 215.405 179.082 215.075H177.772C177.812 215.335 177.822 215.545 177.822 215.965V216.965H177.232C176.522 216.965 176.322 216.955 175.932 216.895V218.115C176.282 218.075 176.552 218.065 177.212 218.065H177.822V219.545C177.822 219.915 177.812 220.185 177.782 220.405H179.082C179.052 220.145 179.042 219.985 179.042 219.565V218.065H181.632C181.612 218.755 181.612 218.995 181.592 219.225C181.502 220.375 181.212 221.035 180.532 221.625C180.052 222.045 179.572 222.285 178.622 222.575C179.052 223.015 179.182 223.205 179.372 223.635C180.292 223.305 180.782 223.045 181.322 222.585C182.192 221.845 182.622 220.995 182.762 219.715C182.812 219.335 182.812 219.265 182.832 218.065H183.502C184.162 218.065 184.432 218.075 184.782 218.115V216.895C184.392 216.955 184.192 216.965 183.482 216.965H182.842C182.852 216.365 182.852 216.365 182.852 215.755C182.852 215.365 182.862 215.315 182.892 215.085H181.602C181.642 215.315 181.652 215.535 181.652 216.195V216.515L181.642 216.965H179.042ZM186.062 219.985C186.462 219.935 186.572 219.935 187.692 219.935H193.002C194.122 219.935 194.232 219.935 194.632 219.985V218.595C194.192 218.655 194.002 218.665 193.012 218.665H187.682C186.692 218.665 186.502 218.655 186.062 218.595V219.985ZM197.819 215.635C197.819 215.695 197.819 215.745 197.819 215.775C197.819 215.995 197.789 216.335 197.729 216.745C197.569 218.005 197.219 219.245 196.789 220.175C196.369 221.095 195.959 221.705 195.359 222.305C195.839 222.565 196.029 222.715 196.499 223.165C197.839 221.625 198.619 219.655 199.039 216.785L199.069 216.545L199.119 216.255L199.139 216.085C199.149 216.005 199.159 215.995 199.189 215.885L197.819 215.635ZM200.789 215.875C200.839 216.025 200.869 216.185 200.929 216.595C201.319 219.285 202.249 221.585 203.579 223.175C203.959 222.745 204.169 222.575 204.679 222.255C203.639 221.135 202.939 219.785 202.449 217.935C202.219 217.075 202.039 216.095 202.029 215.635L200.789 215.875ZM202.129 215.255C202.509 215.815 202.719 216.245 202.949 216.885L203.709 216.645C203.469 215.975 203.249 215.555 202.879 215.035L202.129 215.255ZM205.019 216.245C204.799 215.645 204.579 215.225 204.199 214.695L203.459 214.905C203.779 215.365 204.029 215.865 204.259 216.485L205.019 216.245ZM205.358 219.985C205.758 219.935 205.868 219.935 206.988 219.935H212.298C213.418 219.935 213.528 219.935 213.928 219.985V218.595C213.488 218.655 213.298 218.665 212.308 218.665H206.978C205.988 218.665 205.798 218.655 205.358 218.595V219.985Z" fill="#212121"/>
<path d="M267.521 202.138C267.191 202.198 266.991 202.208 266.231 202.208H263.291C262.541 202.208 262.341 202.198 262.001 202.138V203.358C262.321 203.318 262.451 203.308 263.271 203.308H266.251C267.071 203.308 267.211 203.318 267.521 203.358V202.138ZM268.151 205.808C268.931 205.808 269.081 205.818 269.421 205.858V204.668C269.071 204.728 268.871 204.738 268.131 204.738H262.281C261.541 204.738 261.341 204.728 260.991 204.668V205.858C261.331 205.818 261.481 205.808 262.261 205.808H264.691C264.621 207.748 263.841 208.738 261.881 209.358C262.291 209.748 262.461 209.968 262.701 210.468C264.961 209.598 265.901 208.278 266.011 205.808H268.151ZM270.271 202.618C270.031 202.028 269.791 201.628 269.391 201.098L268.671 201.358C269.011 201.828 269.301 202.338 269.531 202.908L270.271 202.618ZM267.361 201.748C267.731 202.268 267.961 202.678 268.241 203.348L268.991 203.068C268.711 202.408 268.481 202.008 268.101 201.488L267.361 201.748ZM271.011 206.708C271.411 206.658 271.521 206.658 272.641 206.658H277.951C279.071 206.658 279.181 206.658 279.581 206.708V205.318C279.141 205.378 278.951 205.388 277.961 205.388H272.631C271.641 205.388 271.451 205.378 271.011 205.318V206.708ZM288.411 202.668C288.151 202.758 287.941 202.778 287.531 202.788C285.091 202.808 285.091 202.808 284.931 202.828C284.981 202.738 285.051 202.618 285.171 202.348C285.361 201.968 285.361 201.968 285.471 201.788L284.171 201.498C284.081 201.868 283.881 202.358 283.591 202.888C282.981 204.008 282.181 204.918 281.081 205.738C281.601 206.038 281.751 206.168 282.081 206.538C283.091 205.688 283.801 204.878 284.421 203.848L287.531 203.818C287.221 204.758 286.881 205.458 286.411 206.178C285.661 205.588 285.241 205.308 284.401 204.838L283.641 205.728C284.391 206.138 284.991 206.558 285.691 207.158C285.181 207.728 284.761 208.088 284.051 208.548C283.451 208.948 282.951 209.198 282.101 209.548C282.481 209.868 282.611 210.038 282.931 210.578C285.061 209.598 286.471 208.418 287.491 206.758C287.901 206.088 288.451 204.918 288.771 204.008C288.931 203.548 288.951 203.508 289.081 203.338L288.411 202.668ZM291.228 207.908C291.368 207.738 291.408 207.688 291.568 207.498C292.108 206.858 292.948 205.818 293.358 205.268C293.768 204.718 293.808 204.688 293.968 204.688C294.138 204.688 294.138 204.688 294.778 205.388C296.628 207.398 297.138 207.908 299.008 209.608L299.638 208.238C299.418 208.108 299.258 207.988 298.688 207.488C297.568 206.528 296.638 205.608 295.448 204.298C294.688 203.438 294.458 203.278 293.958 203.278C293.718 203.278 293.488 203.338 293.278 203.468C293.078 203.598 292.868 203.818 292.528 204.258C291.188 205.938 290.668 206.528 290.378 206.678L291.228 207.908ZM296.468 203.188C296.908 203.668 297.188 204.068 297.518 204.678L298.218 204.308C297.878 203.688 297.608 203.308 297.168 202.838L296.468 203.188ZM299.408 203.658C299.098 203.088 298.828 202.708 298.368 202.248L297.698 202.598C298.088 203.028 298.418 203.498 298.718 204.048L299.408 203.658ZM300.405 206.708C300.805 206.658 300.915 206.658 302.035 206.658H307.345C308.465 206.658 308.575 206.658 308.975 206.708V205.318C308.535 205.378 308.345 205.388 307.355 205.388H302.025C301.035 205.388 300.845 205.378 300.405 205.318V206.708ZM318.029 209.138C316.819 207.968 316.819 207.968 316.569 207.748C315.889 207.138 315.349 206.718 314.719 206.298C315.329 205.478 315.819 204.608 316.279 203.538C316.389 203.288 316.469 203.148 316.599 202.998L315.939 202.318C315.689 202.408 315.609 202.418 315.049 202.428L311.529 202.478C311.409 202.478 311.329 202.478 311.289 202.478C310.879 202.478 310.689 202.468 310.409 202.418L310.449 203.698C310.789 203.648 311.059 203.628 311.539 203.618C314.689 203.568 314.689 203.568 314.849 203.558L314.739 203.818C314.089 205.378 312.889 206.828 311.379 207.888C310.629 208.418 310.149 208.688 309.379 208.988C309.789 209.418 309.909 209.578 310.189 210.098C311.719 209.348 312.869 208.468 313.999 207.208C315.089 208.038 316.239 209.158 317.069 210.178L318.029 209.138ZM273.542 217.688V216.658C273.542 216.148 273.542 216.128 273.582 215.798H272.272C272.312 216.058 272.322 216.268 272.322 216.688V217.688H271.732C271.022 217.688 270.822 217.678 270.432 217.618V218.838C270.782 218.798 271.052 218.788 271.712 218.788H272.322V220.268C272.322 220.638 272.312 220.908 272.282 221.128H273.582C273.552 220.868 273.542 220.708 273.542 220.288V218.788H276.132C276.112 219.478 276.112 219.718 276.092 219.948C276.002 221.098 275.712 221.758 275.032 222.348C274.552 222.768 274.072 223.008 273.122 223.298C273.552 223.738 273.682 223.928 273.872 224.358C274.792 224.028 275.282 223.768 275.822 223.308C276.692 222.568 277.122 221.718 277.262 220.438C277.312 220.058 277.312 219.988 277.332 218.788H278.002C278.662 218.788 278.932 218.798 279.282 218.838V217.618C278.892 217.678 278.692 217.688 277.982 217.688H277.342C277.352 217.088 277.352 217.088 277.352 216.478C277.352 216.088 277.362 216.038 277.392 215.808H276.102C276.142 216.038 276.152 216.258 276.152 216.918V217.238L276.142 217.688H273.542ZM280.562 220.708C280.962 220.658 281.072 220.658 282.192 220.658H287.502C288.622 220.658 288.732 220.658 289.132 220.708V219.318C288.692 219.378 288.502 219.388 287.512 219.388H282.182C281.192 219.388 281.002 219.378 280.562 219.318V220.708ZM292.319 216.358C292.319 216.418 292.319 216.468 292.319 216.498C292.319 216.718 292.289 217.058 292.229 217.468C292.069 218.728 291.719 219.968 291.289 220.898C290.869 221.818 290.459 222.428 289.859 223.028C290.339 223.288 290.529 223.438 290.999 223.888C292.339 222.348 293.119 220.378 293.539 217.508L293.569 217.268L293.619 216.978L293.639 216.808C293.649 216.728 293.659 216.718 293.689 216.608L292.319 216.358ZM295.289 216.598C295.339 216.748 295.369 216.908 295.429 217.318C295.819 220.008 296.749 222.308 298.079 223.898C298.459 223.468 298.669 223.298 299.179 222.978C298.139 221.858 297.439 220.508 296.949 218.658C296.719 217.798 296.539 216.818 296.529 216.358L295.289 216.598ZM296.629 215.978C297.009 216.538 297.219 216.968 297.449 217.608L298.209 217.368C297.969 216.698 297.749 216.278 297.379 215.758L296.629 215.978ZM299.519 216.968C299.299 216.368 299.079 215.948 298.699 215.418L297.959 215.628C298.279 216.088 298.529 216.588 298.759 217.208L299.519 216.968ZM299.858 220.708C300.258 220.658 300.368 220.658 301.488 220.658H306.798C307.918 220.658 308.028 220.658 308.428 220.708V219.318C307.988 219.378 307.798 219.388 306.808 219.388H301.478C300.488 219.388 300.298 219.378 299.858 219.318V220.708Z" fill="#212121"/>
<path fill-rule="evenodd" clip-rule="evenodd" d="M102.254 155.329H86.4402C85.3235 155.329 84.4182 156.234 84.4182 157.351V188.978C84.4182 190.095 85.3235 191 86.4402 191H110.14C111.257 191 112.162 190.095 112.162 188.978V165.237L102.254 155.329Z" fill="#CCE7FF"/>
<path d="M102.254 155.329L112.163 165.237L103.859 165.237C102.973 165.237 102.254 164.519 102.254 163.633L102.254 155.329Z" fill="#80C4FF"/>
<path d="M62 140.736C62 139.225 63.225 138 64.7361 138H86.6253C88.1364 138 89.3614 139.225 89.3614 140.736V188.163C89.3614 189.674 88.1364 190.899 86.6253 190.899H64.7361C63.225 190.899 62 189.674 62 188.163V140.736Z" fill="#B3B3B3"/>
<ellipse cx="75.6805" cy="169.009" rx="2.73614" ry="2.73614" fill="#D9D9D9"/>
<rect x="65.6483" y="141.648" width="20.065" height="4.56024" rx="0.912048" fill="#D9D9D9"/>
<rect x="65.6482" y="149.858" width="20.065" height="4.56024" rx="0.912048" fill="#D9D9D9"/>
<rect x="65.6482" y="158.066" width="20.065" height="4.56024" rx="0.912048" fill="#D9D9D9"/>
<rect x="65.6482" y="175.396" width="20.065" height="4.56024" rx="0.912048" fill="#D9D9D9"/>
<rect x="65.6482" y="183.603" width="20.065" height="4.56024" rx="0.912048" fill="#D9D9D9"/>
<path d="M284.91 161.621V186.541C284.91 188.21 291.305 191.223 298.854 191.223C306.404 191.223 312.18 188.906 312.18 186.541V161.621H284.91Z" fill="#CCE7FF"/>
<path d="M284.878 185.055C284.808 185.189 284.783 185.458 284.783 186.145C284.783 189.091 290.944 191.501 298.545 191.501C306.146 191.501 312.307 189.091 312.307 186.145C312.307 185.458 312.281 185.19 312.211 185.055C311.364 187.6 305.562 189.742 298.544 189.742C291.527 189.742 285.725 187.6 284.878 185.055Z" fill="#80C4FF"/>
<path d="M312.181 161.558C312.181 164.095 306.076 166.151 298.546 166.151C291.015 166.151 284.91 164.095 284.91 161.558C284.91 159.022 291.015 156.966 298.545 156.966C306.075 156.966 312.181 159.022 312.181 161.558Z" fill="#80C4FF"/>
<path d="M284.878 176.695C284.807 176.829 284.783 177.517 284.783 177.785C284.783 180.731 290.944 183.141 298.545 183.141C306.146 183.141 312.307 180.731 312.307 177.785C312.307 177.517 312.281 176.83 312.211 176.695C311.364 179.24 305.561 181.382 298.544 181.382C291.527 181.382 285.725 179.24 284.878 176.695Z" fill="#80C4FF"/>
<path d="M284.878 168.353C284.807 168.486 284.783 169.175 284.783 169.443C284.783 172.388 290.944 174.798 298.545 174.798C306.146 174.798 312.307 172.388 312.307 169.443C312.307 169.175 312.281 168.487 312.211 168.773C311.364 171.317 305.561 173.039 298.544 173.039C291.527 173.039 285.725 170.896 284.878 168.353Z" fill="#80C4FF"/>
<path d="M262 140.734C262 139.224 263.224 138 264.734 138H286.606C288.115 138 289.339 139.224 289.339 140.734V188.114C289.339 189.624 288.115 190.848 286.606 190.848H264.734C263.224 190.848 262 189.624 262 188.114V140.734Z" fill="#B3B3B3"/>
<circle cx="275.67" cy="168.981" r="2.73395" fill="#D9D9D9"/>
<rect x="265.646" y="141.645" width="20.0489" height="4.55658" rx="0.911316" fill="#D9D9D9"/>
<rect x="265.646" y="149.845" width="20.0489" height="4.55658" rx="0.911316" fill="#D9D9D9"/>
<rect x="265.646" y="158.046" width="20.0489" height="4.55658" rx="0.911316" fill="#D9D9D9"/>
<rect x="265.646" y="175.358" width="20.0489" height="4.55658" rx="0.911316" fill="#D9D9D9"/>
<rect x="265.646" y="183.559" width="20.0489" height="4.55658" rx="0.911316" fill="#D9D9D9"/>
<path d="M220.574 172.262C220.878 172.393 221.074 172.692 221.073 173.023L221.063 175.573C221.061 175.904 220.863 176.201 220.558 176.33L217.127 177.773C216.902 177.867 216.732 178.057 216.653 178.289C216.423 178.968 216.139 179.624 215.803 180.25C215.684 180.473 215.664 180.736 215.757 180.97L217.075 184.291C217.199 184.603 217.122 184.959 216.879 185.191L214.976 187.009C214.747 187.228 214.412 187.296 214.116 187.185L210.59 185.856C210.37 185.773 210.126 185.79 209.914 185.894C209.247 186.222 208.547 186.501 207.82 186.719C207.585 186.789 207.389 186.953 207.286 187.174L205.765 190.46C205.629 190.753 205.336 190.94 205.013 190.938L202.298 190.928C201.975 190.927 201.683 190.738 201.55 190.444L200.052 187.144C199.952 186.923 199.759 186.758 199.527 186.686C198.801 186.46 198.102 186.179 197.437 185.846C197.226 185.74 196.98 185.722 196.759 185.804L193.232 187.109C192.934 187.219 192.599 187.149 192.371 186.928L190.477 185.089C190.236 184.855 190.161 184.499 190.287 184.187L191.631 180.877C191.726 180.643 191.708 180.38 191.59 180.157C191.259 179.529 190.977 178.872 190.755 178.192C190.678 177.959 190.509 177.765 190.283 177.668L186.873 176.2C186.569 176.069 186.373 175.77 186.374 175.439L186.384 172.889C186.385 172.559 186.584 172.261 186.889 172.132L190.319 170.69C190.545 170.595 190.715 170.405 190.793 170.173C191.024 169.494 191.308 168.838 191.643 168.212C191.762 167.99 191.783 167.727 191.69 167.492L190.371 164.172C190.247 163.859 190.325 163.503 190.568 163.271L192.47 161.453C192.7 161.234 193.034 161.166 193.331 161.278L196.856 162.606C197.076 162.689 197.321 162.672 197.532 162.568C198.199 162.24 198.9 161.961 199.627 161.743C199.861 161.673 200.057 161.51 200.16 161.288L201.682 158.002C201.817 157.709 202.111 157.523 202.433 157.524L205.149 157.534C205.471 157.536 205.763 157.725 205.897 158.018L207.394 161.319C207.495 161.54 207.687 161.704 207.919 161.776C208.646 162.003 209.345 162.284 210.011 162.617C210.221 162.722 210.466 162.74 210.687 162.659L214.222 161.358C214.52 161.249 214.854 161.32 215.081 161.54L216.97 163.373C217.211 163.607 217.286 163.964 217.159 164.275L215.815 167.586C215.72 167.819 215.739 168.082 215.856 168.305C216.188 168.933 216.47 169.59 216.692 170.27C216.768 170.504 216.937 170.697 217.164 170.795L220.574 172.262ZM203.745 168.635C200.533 168.622 197.923 171.116 197.911 174.209C197.9 177.302 200.49 179.815 203.702 179.828C206.914 179.84 209.523 177.346 209.535 174.254C209.547 171.161 206.957 168.647 203.745 168.635Z" fill="#80C4FF"/>
<path d="M169 140.734C169 139.224 170.224 138 171.734 138H193.61C195.12 138 196.345 139.224 196.345 140.734V188.132C196.345 189.642 195.12 190.866 193.61 190.866H171.734C170.224 190.866 169 189.642 169 188.132V140.734Z" fill="#B3B3B3"/>
<circle cx="182.672" cy="168.99" r="2.73446" fill="#D9D9D9"/>
<rect x="172.646" y="141.647" width="20.0527" height="4.55744" rx="0.911487" fill="#D9D9D9"/>
<rect x="172.646" y="149.85" width="20.0527" height="4.55744" rx="0.911487" fill="#D9D9D9"/>
<rect x="172.646" y="158.053" width="20.0527" height="4.55744" rx="0.911487" fill="#D9D9D9"/>
<rect x="172.646" y="175.371" width="20.0527" height="4.55744" rx="0.911487" fill="#D9D9D9"/>
<rect x="172.646" y="183.574" width="20.0527" height="4.55744" rx="0.911487" fill="#D9D9D9"/>
<path d="M156 174H125" stroke="#B2B2B2" stroke-width="3"/>
<path d="M153.188 173.793L152.139 169.561C152.088 169.354 152.312 169.187 152.495 169.297L159.428 173.457C159.687 173.612 159.687 173.988 159.428 174.143L152.499 178.301C152.315 178.411 152.09 178.243 152.143 178.036L153.188 173.909C153.198 173.871 153.198 173.831 153.188 173.793Z" fill="#B2B2B2"/>
<path d="M125.735 173.808L126.784 178.04C126.836 178.247 126.611 178.413 126.428 178.303L119.495 174.144C119.236 173.988 119.236 173.613 119.495 173.458L126.424 169.3C126.608 169.19 126.833 169.357 126.78 169.565L125.736 173.691C125.726 173.73 125.726 173.77 125.735 173.808Z" fill="#B2B2B2"/>
<path d="M250 174L234 173.602" stroke="#B2B2B2" stroke-width="3"/>
<path d="M247.188 173.793L246.139 169.561C246.088 169.354 246.312 169.187 246.496 169.297L253.428 173.457C253.687 173.612 253.687 173.988 253.428 174.143L246.499 178.301C246.315 178.411 246.09 178.243 246.143 178.036L247.188 173.909C247.198 173.871 247.198 173.831 247.188 173.793Z" fill="#B2B2B2"/>
<path d="M235.812 173.808L236.861 178.04C236.912 178.247 236.688 178.413 236.505 178.303L229.572 174.144C229.313 173.988 229.313 173.613 229.572 173.458L236.501 169.3C236.685 169.19 236.91 169.357 236.857 169.565L235.812 173.691C235.803 173.73 235.803 173.77 235.812 173.808Z" fill="#B2B2B2"/>
<path d="M85 128L85 95" stroke="#B2B2B2" stroke-width="3"/>
<path d="M85.2073 126.188L89.4392 125.139C89.6465 125.087 89.8126 125.312 89.7027 125.495L85.543 132.428C85.3877 132.687 85.0124 132.687 84.857 132.428L80.6995 125.499C80.5893 125.315 80.7566 125.09 80.9642 125.143L85.0906 126.188C85.1289 126.197 85.169 126.197 85.2073 126.188Z" fill="#B2B2B2"/>
<path d="M85.1923 97.8118L80.9605 98.8609C80.7532 98.9123 80.587 98.6876 80.6969 98.5045L84.8566 91.5717C85.012 91.3127 85.3873 91.3127 85.5426 91.5717L89.7002 98.501C89.8104 98.6846 89.6431 98.9097 89.4355 98.8571L85.309 97.8121C85.2707 97.8024 85.2307 97.8023 85.1923 97.8118Z" fill="#B2B2B2"/>
<path d="M59.1666 30.1111C59.1666 28.9452 60.1118 28 61.2777 28H109.833C110.999 28 111.944 28.9452 111.944 30.1111V61.7913H59.1666V30.1111Z" fill="#B2B2B2"/>
<path d="M62.3334 32.2222C62.3334 31.6393 62.806 31.1667 63.3889 31.1667H107.722C108.305 31.1667 108.778 31.6393 108.778 32.2222V34.3334H62.3334V32.2222Z" fill="#D4D4D4"/>
<path d="M69.0098 32.4677C69.036 32.3253 69.1601 32.2219 69.3049 32.2219H76.5211C76.6687 32.2219 76.7944 32.3293 76.8175 32.4752L77.1111 34.333H68.6667L69.0098 32.4677Z" fill="white"/>
<path d="M56 62.8333H115.111V63.8889C115.111 65.0548 114.166 66 113 66H58.1111C56.9452 66 56 65.0548 56 63.8889V62.8333Z" fill="#B2B2B2"/>
<path d="M62.3334 34.3333H108.778V57.5555C108.778 58.1385 108.305 58.6111 107.722 58.6111H63.3889C62.806 58.6111 62.3334 58.1385 62.3334 57.5555V34.3333Z" fill="white"/>
<path d="M57.81 276.98C58.03 276.95 58.27 276.94 58.56 276.94H58.84V277.71H58.06C57.74 277.71 57.52 277.7 57.34 277.67V278.71C57.58 278.68 57.79 278.67 58.07 278.67H58.84V279.51H58.36C58.05 279.51 57.84 279.5 57.6 279.47V280.49C57.85 280.46 58.09 280.45 58.38 280.45H58.84V281.5C58.84 281.68 58.8 281.71 58.57 281.71C58.29 281.71 58.03 281.69 57.66 281.65C57.83 282 57.91 282.29 57.95 282.75C58.23 282.76 58.35 282.76 58.55 282.76C59.62 282.76 59.86 282.58 59.86 281.8V280.45H60.7V280.84H61.77C61.74 280.56 61.72 280.26 61.72 279.87V278.67C61.93 278.68 62.03 278.69 62.23 278.71V277.66C62.06 277.69 61.93 277.71 61.72 277.71V276.84C61.72 276.44 61.73 276.23 61.76 275.98C61.53 276.01 61.32 276.02 60.92 276.02H60.47C60.63 275.8 60.72 275.68 60.94 275.33C61.12 275.04 61.27 274.82 61.38 274.68L60.97 274.24C60.83 274.27 60.69 274.28 60.34 274.28H59.34C59.39 274.2 59.5 273.99 59.57 273.83C59.61 273.76 59.62 273.74 59.66 273.67L58.6 273.49C58.35 274.26 57.77 275.01 56.94 275.62V275.5C56.75 275.53 56.66 275.53 56.32 275.53H55.73V275.1H56.45C56.77 275.1 56.97 275.11 57.21 275.14V274.24C56.97 274.27 56.74 274.28 56.39 274.28H55.73V274.2C55.73 273.94 55.74 273.76 55.77 273.58H54.68C54.71 273.78 54.72 273.98 54.72 274.21V274.28H53.89C53.55 274.28 53.32 274.27 53.07 274.24V275.14C53.3 275.11 53.44 275.1 53.85 275.1H54.72V275.53H53.99C53.65 275.53 53.55 275.53 53.33 275.5V276.32C53.52 276.3 53.67 276.29 53.98 276.29H54.72V276.74H53.7C53.32 276.74 53.15 276.73 52.89 276.69V277.63C53.14 277.6 53.32 277.59 53.71 277.59H56.48C56.92 277.59 57.05 277.6 57.28 277.63V276.7C57.05 276.73 56.9 276.74 56.51 276.74H55.73V276.29H56.3C56.62 276.29 56.74 276.3 56.94 276.32V275.78C57.19 275.96 57.37 276.16 57.53 276.44C57.66 276.32 57.7 276.29 57.81 276.18V276.98ZM59.94 275.18C59.74 275.51 59.55 275.78 59.33 276.02H58.57C58.35 276.02 58.23 276.02 58.01 276C58.31 275.72 58.43 275.59 58.75 275.18H59.94ZM59.86 279.51V278.67H60.71V279.51H59.86ZM60.71 277.71H59.86V276.94H60.71V277.71ZM55.98 281.11V281.67C55.98 281.83 55.94 281.87 55.76 281.87C55.57 281.87 55.43 281.86 55.15 281.82C55.26 282.11 55.3 282.32 55.34 282.74C55.56 282.76 55.72 282.76 55.91 282.76C56.75 282.76 56.97 282.56 56.97 281.81V278.88C56.97 278.36 56.98 278.16 57 277.93C56.81 277.96 56.67 277.96 56.18 277.96H54.12C53.67 277.96 53.54 277.96 53.33 277.94C53.36 278.17 53.37 278.4 53.37 278.81V281.72C53.37 282.17 53.35 282.5 53.32 282.82H54.43C54.39 282.5 54.38 282.24 54.38 281.79V281.11H55.98ZM55.98 279.19H54.38V278.77H55.98V279.19ZM55.98 279.94V280.35H54.38V279.94H55.98ZM64.11 275.05H63.76C63.6 275.05 63.4 275.04 63.23 275.02C63.26 275.28 63.27 275.51 63.27 276.04V281.24C63.27 281.86 63.26 282.23 63.22 282.53H64.31V281.65H65.73V282.25H66.8C66.77 281.97 66.76 281.63 66.76 281.26V277.42C67.01 277.67 67.04 277.7 67.19 277.92C67.79 277.24 68.08 276.81 68.47 276.04H70.79C70.76 278.79 70.63 280.68 70.42 281.3C70.33 281.59 70.18 281.67 69.75 281.67C69.44 281.67 69.1 281.63 68.47 281.53C68.64 281.94 68.71 282.22 68.75 282.67C69.25 282.7 69.5 282.71 69.74 282.71C71.28 282.71 71.54 282.33 71.73 279.8C71.77 279.29 71.86 276.98 71.88 275.74C71.89 275.21 71.89 275.21 71.92 274.95C71.72 274.98 71.48 274.99 71.07 274.99H68.94C69.03 274.76 69.19 274.3 69.23 274.15C69.29 273.95 69.31 273.9 69.37 273.76L68.22 273.57C68.07 274.54 67.41 275.96 66.76 276.72V275.88C66.76 275.37 66.77 275.34 66.77 275.32C66.78 275.1 66.78 275.1 66.79 275.02C66.71 275.03 66.42 275.04 65.93 275.05H65.38C65.6 274.57 65.69 274.34 65.89 273.75L64.74 273.59C64.64 274.12 64.51 274.56 64.31 275.05H64.11ZM64.3 276.02H65.73V277.79H64.3V276.02ZM64.3 278.76H65.73V280.69H64.3V278.76ZM70.02 279.69C69.54 278.62 69.23 278.07 68.63 277.21L67.72 277.7C68.19 278.32 68.68 279.28 69.01 280.24L70.02 279.69ZM79.69 281.51V282.12H81.03C80.99 281.87 80.98 281.59 80.98 281.09V275.6C80.98 275.14 80.98 275.04 81.01 274.77C80.66 274.79 80.66 274.79 80.14 274.79H75.33C74.6 274.79 74.41 274.78 74.04 274.72V276.02C74.4 275.98 74.61 275.97 75.32 275.97H79.7V280.33H75.15C74.45 280.33 74.27 280.32 73.9 280.26V281.55C74.2 281.52 74.44 281.51 75.13 281.51H79.69ZM83.72 275.58C84.65 276.1 85.47 276.76 86.27 277.61L87.13 276.52C86.36 275.79 85.74 275.33 84.55 274.59L83.72 275.58ZM84.07 282.18C84.3 282.1 84.33 282.09 84.73 282.01C86.28 281.68 87.52 281.19 88.54 280.51C89.91 279.6 90.86 278.42 91.71 276.59C91.2 276.23 91.04 276.08 90.65 275.61C90.35 276.42 90.07 276.97 89.63 277.61C88.84 278.75 87.91 279.52 86.66 280.06C85.75 280.46 84.56 280.75 83.7 280.8L84.07 282.18ZM100.44 277.92C101.12 277.92 101.35 277.93 101.71 277.97V276.78C101.33 276.84 101.1 276.85 100.42 276.85H94.57C93.88 276.85 93.66 276.84 93.28 276.78V277.97C93.64 277.93 93.87 277.92 94.55 277.92H96.99C96.96 278.7 96.81 279.35 96.55 279.81C96.13 280.58 95.38 281.11 94.18 281.48C94.61 281.9 94.74 282.07 94.99 282.58C96.34 282.04 97.07 281.49 97.6 280.61C98.03 279.9 98.25 279.07 98.3 277.92H100.44ZM94.29 275.48C94.62 275.44 94.86 275.43 95.56 275.43H99.44C100.14 275.43 100.38 275.44 100.71 275.48V274.26C100.34 274.32 100.14 274.33 99.42 274.33H95.58C94.86 274.33 94.66 274.32 94.29 274.26V275.48ZM103.72 275.58C104.65 276.1 105.47 276.76 106.27 277.61L107.13 276.52C106.36 275.79 105.74 275.33 104.55 274.59L103.72 275.58ZM104.07 282.18C104.3 282.1 104.33 282.09 104.73 282.01C106.28 281.68 107.52 281.19 108.54 280.51C109.91 279.6 110.86 278.42 111.71 276.59C111.2 276.23 111.04 276.08 110.65 275.61C110.35 276.42 110.07 276.97 109.63 277.61C108.84 278.75 107.91 279.52 106.66 280.06C105.75 280.46 104.56 280.75 103.7 280.8L104.07 282.18ZM113.35 275.15C113.82 275.98 114.21 277.01 114.49 278.13L115.72 277.75C115.35 276.5 115.03 275.73 114.51 274.81L113.35 275.15ZM115.98 274.65C116.51 275.67 116.81 276.44 117.1 277.55L118.32 277.16C117.98 276.04 117.6 275.15 117.12 274.33L115.98 274.65ZM120.25 274.55C120.23 275.22 120.06 276.04 119.75 276.9C119.34 278.05 118.81 278.89 118 279.65C117.19 280.43 116.3 280.98 115.19 281.39C115.67 281.85 115.8 282.03 116.07 282.51C119.07 281.05 120.66 279.04 121.37 275.83C121.51 275.15 121.53 275.08 121.62 274.86L120.25 274.55Z" fill="#212121"/>
<path d="M207.64 275.654H206.42C206.01 275.654 205.76 275.644 205.49 275.604V276.524C205.77 276.484 206 276.474 206.42 276.474H207.64V276.904H206.78C206.34 276.904 206.08 276.894 205.8 276.874C205.82 277.124 205.83 277.314 205.83 277.784V279.074C205.83 279.564 205.82 279.774 205.8 280.024C206.08 280.004 206.32 279.994 206.77 279.994H207.64V280.434H206.62C206.17 280.434 205.96 280.424 205.68 280.384V281.324C205.95 281.294 206.29 281.284 206.61 281.284H207.64V281.834C206.58 281.894 206.39 281.904 205.94 281.904C205.72 281.904 205.63 281.904 205.42 281.884L205.6 282.954C205.84 282.914 205.99 282.894 206.18 282.874C208.01 282.734 208.74 282.654 210.11 282.454C210.45 282.694 210.69 282.934 210.9 283.244C211.3 282.704 211.46 282.444 211.7 281.934C211.86 282.364 211.91 282.574 211.93 283.014C212.08 283.024 212.57 283.044 212.73 283.044C213.48 283.044 213.8 282.894 213.98 282.454C214.23 281.874 214.36 280.464 214.41 277.884C214.44 276.444 214.44 276.364 214.48 276.004C214.21 276.034 213.97 276.044 213.54 276.044H212.67C212.7 274.314 212.7 274.314 212.75 274.044H211.6C211.65 274.324 211.66 274.484 211.66 275.314C211.66 275.624 211.66 275.794 211.65 276.044H211.5C211.16 276.044 210.99 276.034 210.79 276.004V277.084C211.05 277.054 211.21 277.044 211.62 277.044C211.57 278.334 211.51 278.954 211.36 279.684C211.17 280.534 210.84 281.344 210.41 281.984V281.554C209.47 281.684 209.13 281.724 208.61 281.774V281.284H209.73C210.11 281.284 210.25 281.294 210.43 281.334V280.394C210.2 280.424 209.99 280.434 209.49 280.434H208.61V279.994H209.54C210.01 279.994 210.21 279.994 210.44 280.014C210.43 279.884 210.42 279.584 210.41 279.104V277.754C210.41 277.244 210.42 277.084 210.44 276.874C210.23 276.894 210.05 276.904 209.6 276.904H208.61V276.474H209.86C210.3 276.474 210.43 276.484 210.58 276.514V275.604C210.35 275.644 210.12 275.654 209.65 275.654H208.61V275.094C209.11 275.024 209.61 274.944 209.98 274.874C210.11 274.844 210.44 274.794 210.53 274.784L209.93 273.964C209.25 274.284 207.53 274.494 205.57 274.504C205.76 274.844 205.84 275.024 205.92 275.304C206.67 275.264 206.95 275.244 207.64 275.184V275.654ZM207.64 277.654V278.074H206.77V277.654H207.64ZM208.61 277.654H209.48V278.074H208.61V277.654ZM207.64 278.804V279.244H206.77V278.804H207.64ZM208.61 278.804H209.48V279.244H208.61V278.804ZM213.41 277.044C213.4 277.374 213.4 277.434 213.39 277.744C213.38 278.554 213.38 278.554 213.37 278.904C213.33 280.014 213.3 280.444 213.23 280.974C213.11 281.904 213.04 282.024 212.59 282.024C212.37 282.024 212.22 282.004 211.71 281.924C212.32 280.584 212.55 279.424 212.65 277.044H213.41ZM216.63 275.444H216.28C216.12 275.444 215.92 275.434 215.75 275.414C215.78 275.674 215.79 275.904 215.79 276.434V281.634C215.79 282.254 215.78 282.624 215.74 282.924H216.83V282.044H218.25V282.644H219.32C219.29 282.364 219.28 282.024 219.28 281.654V277.814C219.53 278.064 219.56 278.094 219.71 278.314C220.31 277.634 220.6 277.204 220.99 276.434H223.31C223.28 279.184 223.15 281.074 222.94 281.694C222.85 281.984 222.7 282.064 222.27 282.064C221.96 282.064 221.62 282.024 220.99 281.924C221.16 282.334 221.23 282.614 221.27 283.064C221.77 283.094 222.02 283.104 222.26 283.104C223.8 283.104 224.06 282.724 224.25 280.194C224.29 279.684 224.38 277.374 224.4 276.134C224.41 275.604 224.41 275.604 224.44 275.344C224.24 275.374 224 275.384 223.59 275.384H221.46C221.55 275.154 221.71 274.694 221.75 274.544C221.81 274.344 221.83 274.294 221.89 274.154L220.74 273.964C220.59 274.934 219.93 276.354 219.28 277.114V276.274C219.28 275.764 219.29 275.734 219.29 275.714C219.3 275.494 219.3 275.494 219.31 275.414C219.23 275.424 218.94 275.434 218.45 275.444H217.9C218.12 274.964 218.21 274.734 218.41 274.144L217.26 273.984C217.16 274.514 217.03 274.954 216.83 275.444H216.63ZM216.82 276.414H218.25V278.184H216.82V276.414ZM216.82 279.154H218.25V281.084H216.82V279.154ZM222.54 280.084C222.06 279.014 221.75 278.464 221.15 277.604L220.24 278.094C220.71 278.714 221.2 279.674 221.53 280.634L222.54 280.084ZM232.21 281.904V282.514H233.55C233.51 282.264 233.5 281.984 233.5 281.484V275.994C233.5 275.534 233.5 275.434 233.53 275.164C233.18 275.184 233.18 275.184 232.66 275.184H227.85C227.12 275.184 226.93 275.174 226.56 275.114V276.414C226.92 276.374 227.13 276.364 227.84 276.364H232.22V280.724H227.67C226.97 280.724 226.79 280.714 226.42 280.654V281.944C226.72 281.914 226.96 281.904 227.65 281.904H232.21ZM236.24 275.974C237.17 276.494 237.99 277.154 238.79 278.004L239.65 276.914C238.88 276.184 238.26 275.724 237.07 274.984L236.24 275.974ZM236.59 282.574C236.82 282.494 236.85 282.484 237.25 282.404C238.8 282.074 240.04 281.584 241.06 280.904C242.43 279.994 243.38 278.814 244.23 276.984C243.72 276.624 243.56 276.474 243.17 276.004C242.87 276.814 242.59 277.364 242.15 278.004C241.36 279.144 240.43 279.914 239.18 280.454C238.27 280.854 237.08 281.144 236.22 281.194L236.59 282.574ZM252.96 278.314C253.64 278.314 253.87 278.324 254.23 278.364V277.174C253.85 277.234 253.62 277.244 252.94 277.244H247.09C246.4 277.244 246.18 277.234 245.8 277.174V278.364C246.16 278.324 246.39 278.314 247.07 278.314H249.51C249.48 279.094 249.33 279.744 249.07 280.204C248.65 280.974 247.9 281.504 246.7 281.874C247.13 282.294 247.26 282.464 247.51 282.974C248.86 282.434 249.59 281.884 250.12 281.004C250.55 280.294 250.77 279.464 250.82 278.314H252.96ZM246.81 275.874C247.14 275.834 247.38 275.824 248.08 275.824H251.96C252.66 275.824 252.9 275.834 253.23 275.874V274.654C252.86 274.714 252.66 274.724 251.94 274.724H248.1C247.38 274.724 247.18 274.714 246.81 274.654V275.874ZM256.24 275.974C257.17 276.494 257.99 277.154 258.79 278.004L259.65 276.914C258.88 276.184 258.26 275.724 257.07 274.984L256.24 275.974ZM256.59 282.574C256.82 282.494 256.85 282.484 257.25 282.404C258.8 282.074 260.04 281.584 261.06 280.904C262.43 279.994 263.38 278.814 264.23 276.984C263.72 276.624 263.56 276.474 263.17 276.004C262.87 276.814 262.59 277.364 262.15 278.004C261.36 279.144 260.43 279.914 259.18 280.454C258.27 280.854 257.08 281.144 256.22 281.194L256.59 282.574ZM265.87 275.544C266.34 276.374 266.73 277.404 267.01 278.524L268.24 278.144C267.87 276.894 267.55 276.124 267.03 275.204L265.87 275.544ZM268.5 275.044C269.03 276.064 269.33 276.834 269.62 277.944L270.84 277.554C270.5 276.434 270.12 275.544 269.64 274.724L268.5 275.044ZM272.77 274.944C272.75 275.614 272.58 276.434 272.27 277.294C271.86 278.444 271.33 279.284 270.52 280.044C269.71 280.824 268.82 281.374 267.71 281.784C268.19 282.244 268.32 282.424 268.59 282.904C271.59 281.444 273.18 279.434 273.89 276.224C274.03 275.544 274.05 275.474 274.14 275.254L272.77 274.944Z" fill="#212121"/>
<path d="M267.131 245.06C266.951 245.09 266.751 245.1 266.391 245.1H265.751C265.831 244.74 265.861 244.62 265.931 244.06H266.841C267.191 244.06 267.401 244.07 267.621 244.1V243.05C267.361 243.09 267.111 243.1 266.641 243.1H265.191C264.751 243.1 264.521 243.09 264.251 243.05V244.1C264.481 244.07 264.601 244.06 264.961 244.06C264.761 245.52 264.311 246.6 263.491 247.55C263.731 247.85 263.891 248.13 264.081 248.53C264.371 248.17 264.511 247.97 264.711 247.65C265.301 248.2 265.421 248.32 265.691 248.65C265.191 249.6 264.581 250.29 263.631 250.97C263.961 251.26 264.131 251.45 264.391 251.81C266.251 250.29 267.121 248.6 267.431 245.91C267.461 245.69 267.461 245.64 267.481 245.51L267.131 245.06ZM266.471 246.04C266.381 246.77 266.311 247.11 266.111 247.68C265.821 247.36 265.771 247.31 265.181 246.77C265.301 246.5 265.371 246.33 265.481 246.04H266.471ZM263.431 245.07C263.731 244.4 263.891 243.96 264.031 243.44C264.061 243.33 264.141 243.05 264.191 242.93L263.161 242.55C262.911 244.01 262.211 245.56 261.351 246.53C261.521 246.82 261.671 247.2 261.791 247.7C262.071 247.35 262.171 247.2 262.451 246.69C262.431 247.14 262.431 247.4 262.431 247.88V250.55C262.431 251.07 262.411 251.38 262.371 251.75H263.481C263.441 251.37 263.431 251.08 263.431 250.55V245.07ZM268.911 249.36C268.881 249.13 268.871 248.91 268.871 248.5V244.17C268.871 243.77 268.881 243.56 268.911 243.32H267.841C267.871 243.61 267.881 243.81 267.881 244.17V248.51C267.881 248.88 267.861 249.11 267.831 249.36H268.911ZM270.551 243.77C270.551 243.29 270.561 243.01 270.601 242.74H269.501C269.541 243.07 269.561 243.31 269.561 243.77V250.44C269.561 250.67 269.501 250.7 268.991 250.7C268.741 250.7 268.241 250.66 267.831 250.62C267.991 251 268.051 251.22 268.101 251.65C268.521 251.67 268.731 251.67 268.991 251.67C270.261 251.67 270.551 251.48 270.551 250.64V243.77ZM272.551 252.76C273.111 251.95 273.341 251.54 273.621 250.86C274.011 249.89 274.191 248.94 274.191 247.88C274.191 247 274.061 246.17 273.811 245.39C273.531 244.56 273.241 244.01 272.551 243.02L271.491 243.7C272.071 244.54 272.311 244.99 272.531 245.69C272.761 246.38 272.871 247.11 272.871 247.9C272.871 248.69 272.761 249.4 272.551 250.07C272.331 250.75 272.091 251.2 271.511 252.05L272.551 252.76ZM284.164 251.12C284.224 250.82 284.404 250.26 284.604 249.79L286.104 246.27C286.244 245.91 286.434 245.35 286.564 244.81C286.554 244.96 286.524 245.47 286.484 246.34V249.66C286.484 250.35 286.464 250.71 286.404 251.12H287.804C287.744 250.75 287.724 250.39 287.724 249.66V244.64C287.724 243.97 287.744 243.64 287.804 243.16H285.964C285.894 243.54 285.804 243.86 285.604 244.35L283.584 249.31L281.554 244.35C281.384 243.93 281.254 243.51 281.184 243.16H279.354C279.414 243.57 279.434 243.99 279.434 244.64V249.66C279.434 250.33 279.414 250.72 279.354 251.12H280.754C280.694 250.73 280.674 250.35 280.674 249.66V246.38C280.674 246.16 280.634 245.34 280.594 244.81C280.824 245.62 280.914 245.89 281.104 246.34L282.544 249.77C282.774 250.33 282.934 250.8 282.984 251.12H284.164ZM291.047 250.72L290.707 251.49C290.567 251.8 290.277 251.99 289.927 251.99C289.697 251.99 289.507 251.94 289.227 251.82L288.997 252.96C289.457 253.05 289.747 253.08 290.047 253.08C290.977 253.08 291.567 252.73 291.887 251.97L294.167 246.62C294.467 245.92 294.647 245.51 294.707 245.38H293.217C293.157 245.7 293.077 245.95 292.837 246.56L291.727 249.39L290.507 246.55C290.327 246.14 290.177 245.67 290.127 245.38H288.607C288.727 245.6 288.737 245.63 289.177 246.62L291.047 250.72ZM295.246 248.79C295.306 249.2 295.346 249.39 295.436 249.62C295.626 250.11 295.916 250.49 296.316 250.76C296.796 251.08 297.596 251.28 298.416 251.28C299.486 251.28 300.276 251.03 300.806 250.52C301.216 250.11 301.436 249.53 301.436 248.82C301.436 248.07 301.176 247.52 300.606 247.1C300.246 246.85 299.766 246.66 298.976 246.49C297.866 246.24 297.786 246.22 297.566 246.13C297.106 245.93 296.886 245.64 296.886 245.22C296.886 244.57 297.476 244.13 298.346 244.13C298.896 244.13 299.336 244.3 299.596 244.61C299.766 244.81 299.836 244.98 299.896 245.32L301.326 245.15C301.206 244.62 301.086 244.32 300.836 243.99C300.346 243.33 299.486 242.98 298.346 242.98C296.626 242.98 295.506 243.88 295.506 245.27C295.506 245.94 295.766 246.49 296.276 246.89C296.636 247.17 297.036 247.33 297.786 247.5C299.166 247.82 299.226 247.83 299.526 247.99C299.836 248.16 300.026 248.5 300.026 248.91C300.026 249.66 299.426 250.11 298.426 250.11C297.776 250.11 297.256 249.9 296.966 249.52C296.786 249.29 296.726 249.09 296.686 248.64L295.246 248.79ZM309.724 250.98C309.494 250.8 309.304 250.64 309.074 250.42L308.794 250.15C309.204 249.67 309.364 249.42 309.544 248.97C309.754 248.41 309.864 247.81 309.864 247.12C309.864 244.61 308.414 243 306.154 243C303.884 243 302.394 244.65 302.394 247.17C302.394 248.45 302.784 249.54 303.524 250.29C304.174 250.95 305.064 251.29 306.124 251.29C306.854 251.29 307.384 251.15 307.964 250.82C308.624 251.48 308.714 251.57 308.914 251.83L309.724 250.98ZM306.244 249.23C306.534 249.45 306.734 249.63 307.044 249.93C306.764 250.07 306.484 250.13 306.144 250.13C304.704 250.13 303.774 248.96 303.774 247.15C303.774 246.12 304.054 245.29 304.574 244.77C304.984 244.37 305.514 244.16 306.124 244.16C306.734 244.16 307.264 244.37 307.664 244.77C308.184 245.29 308.464 246.11 308.464 247.1C308.464 248.1 308.284 248.7 307.844 249.24C307.434 248.84 307.234 248.64 307.064 248.43L306.244 249.23ZM316.683 249.84C316.263 249.89 315.943 249.91 315.263 249.91H312.463V244.63C312.463 243.9 312.483 243.57 312.543 243.16H311.033C311.093 243.59 311.113 243.95 311.113 244.64V249.83C311.113 250.41 311.093 250.78 311.033 251.15C311.393 251.13 311.743 251.12 312.303 251.12H315.263C315.973 251.12 316.323 251.14 316.683 251.19V249.84Z" fill="#212121"/>
<path d="M53 233H122" stroke="#EBEBEB"/>
<path d="M159 233H232" stroke="#EBEBEB"/>
<path d="M322 233L252 233" stroke="#EBEBEB"/>
</svg>
