<svg width="375" height="335" viewBox="0 0 375 335" fill="none" xmlns="http://www.w3.org/2000/svg">
<rect width="375" height="335" fill="#FAFAFA"/>
<rect x="28.5" y="117.5" width="318" height="189" rx="2.5" fill="white" stroke="#D9D9D9"/>
<path d="M81.728 221.12C81.758 220.91 81.758 220.91 81.838 220.63C81.858 220.54 81.908 220.36 81.978 220.08L83.578 214.35C83.738 213.77 83.828 213.5 83.968 213.16H82.368C82.358 213.44 82.298 213.85 82.198 214.23L81.268 218C81.248 218.09 81.168 218.48 81.138 218.64C81.078 218.99 81.078 218.99 81.028 219.22C80.868 218.47 80.818 218.27 80.748 218.01L79.628 214.16C79.518 213.79 79.428 213.4 79.398 213.16H78.168C78.138 213.43 78.068 213.76 77.948 214.18L76.838 218.04C76.758 218.32 76.688 218.6 76.558 219.22C76.498 218.87 76.388 218.36 76.318 218.05L75.388 214.24C75.278 213.8 75.228 213.5 75.208 213.16H73.608C73.738 213.46 73.838 213.77 74.008 214.35L75.598 220.09C75.818 220.87 75.818 220.87 75.868 221.12H77.198C77.228 220.88 77.308 220.56 77.428 220.11L78.488 216.39C78.578 216.07 78.678 215.68 78.788 215.11C78.878 215.62 78.968 216 79.078 216.39L80.148 220.11C80.248 220.45 80.348 220.88 80.388 221.12H81.728ZM90.0742 218.58C90.0542 218.35 90.0542 218.32 90.0542 218.3C90.0242 217.62 89.9542 217.26 89.7642 216.78C89.3642 215.78 88.4442 215.2 87.2742 215.2C85.5642 215.2 84.4542 216.41 84.4542 218.26C84.4542 220.13 85.5742 221.31 87.3442 221.31C88.1842 221.31 88.8842 221.05 89.4042 220.54C89.6542 220.29 89.7842 220.1 90.0142 219.62L88.8342 219.24C88.7342 219.51 88.6642 219.62 88.5442 219.76C88.2542 220.08 87.8342 220.26 87.3442 220.26C86.8342 220.26 86.3842 220.06 86.0942 219.7C85.8642 219.41 85.7742 219.13 85.7242 218.58H90.0742ZM85.7542 217.59C85.9042 216.75 86.4742 216.23 87.2542 216.23C87.7242 216.23 88.0642 216.36 88.3342 216.63C88.5842 216.88 88.7042 217.15 88.7742 217.59H85.7542ZM92.3914 221.12V220.63C92.3914 220.51 92.3914 220.4 92.3814 220.27C92.8814 220.97 93.4514 221.26 94.3714 221.26C95.1814 221.26 95.8214 221.02 96.2914 220.54C96.8314 219.98 97.1114 219.18 97.1114 218.2C97.1114 216.34 96.1214 215.25 94.4414 215.25C93.5214 215.25 92.9014 215.56 92.3814 216.26C92.3914 215.92 92.4014 215.67 92.4014 215.51V214.51C92.4014 213.91 92.4214 213.58 92.4714 213.16H91.0614C91.1114 213.64 91.1314 213.99 91.1314 214.5V219.77C91.1314 220.36 91.1114 220.68 91.0614 221.12H92.3914ZM95.8114 218.2C95.8114 219.41 95.1614 220.19 94.1514 220.19C93.7814 220.19 93.3914 220.05 93.1014 219.82C92.7014 219.5 92.4414 218.87 92.4414 218.24C92.4414 217.72 92.6314 217.18 92.9314 216.85C93.2614 216.49 93.7314 216.3 94.2914 216.3C95.2114 216.3 95.8114 217.05 95.8114 218.2ZM69.5416 228.84V227.81C69.5416 227.3 69.5416 227.28 69.5816 226.95H68.2716C68.3116 227.21 68.3216 227.42 68.3216 227.84V228.84H67.7316C67.0216 228.84 66.8216 228.83 66.4316 228.77V229.99C66.7816 229.95 67.0516 229.94 67.7116 229.94H68.3216V231.42C68.3216 231.79 68.3116 232.06 68.2816 232.28H69.5816C69.5516 232.02 69.5416 231.86 69.5416 231.44V229.94H72.1316C72.1116 230.63 72.1116 230.87 72.0916 231.1C72.0016 232.25 71.7116 232.91 71.0316 233.5C70.5516 233.92 70.0716 234.16 69.1216 234.45C69.5516 234.89 69.6816 235.08 69.8716 235.51C70.7916 235.18 71.2816 234.92 71.8216 234.46C72.6916 233.72 73.1216 232.87 73.2616 231.59C73.3116 231.21 73.3116 231.14 73.3316 229.94H74.0016C74.6616 229.94 74.9316 229.95 75.2816 229.99V228.77C74.8916 228.83 74.6916 228.84 73.9816 228.84H73.3416C73.3516 228.24 73.3516 228.24 73.3516 227.63C73.3516 227.24 73.3616 227.19 73.3916 226.96H72.1016C72.1416 227.19 72.1516 227.41 72.1516 228.07V228.39L72.1416 228.84H69.5416ZM76.5616 231.86C76.9616 231.81 77.0716 231.81 78.1916 231.81H83.5016C84.6216 231.81 84.7316 231.81 85.1316 231.86V230.47C84.6916 230.53 84.5016 230.54 83.5116 230.54H78.1816C77.1916 230.54 77.0016 230.53 76.5616 230.47V231.86ZM88.3188 227.51C88.3188 227.57 88.3188 227.62 88.3188 227.65C88.3188 227.87 88.2888 228.21 88.2288 228.62C88.0688 229.88 87.7188 231.12 87.2888 232.05C86.8688 232.97 86.4588 233.58 85.8588 234.18C86.3388 234.44 86.5288 234.59 86.9988 235.04C88.3388 233.5 89.1188 231.53 89.5388 228.66L89.5688 228.42L89.6188 228.13L89.6388 227.96C89.6488 227.88 89.6588 227.87 89.6888 227.76L88.3188 227.51ZM91.2888 227.75C91.3388 227.9 91.3688 228.06 91.4288 228.47C91.8188 231.16 92.7488 233.46 94.0788 235.05C94.4588 234.62 94.6688 234.45 95.1788 234.13C94.1388 233.01 93.4388 231.66 92.9488 229.81C92.7188 228.95 92.5388 227.97 92.5288 227.51L91.2888 227.75ZM92.6288 227.13C93.0088 227.69 93.2188 228.12 93.4488 228.76L94.2088 228.52C93.9688 227.85 93.7488 227.43 93.3788 226.91L92.6288 227.13ZM95.5188 228.12C95.2988 227.52 95.0788 227.1 94.6988 226.57L93.9588 226.78C94.2788 227.24 94.5288 227.74 94.7588 228.36L95.5188 228.12ZM95.8584 231.86C96.2584 231.81 96.3684 231.81 97.4884 231.81H102.798C103.918 231.81 104.028 231.81 104.428 231.86V230.47C103.988 230.53 103.798 230.54 102.808 230.54H97.4784C96.4884 230.54 96.2984 230.53 95.8584 230.47V231.86Z" fill="#212121"/>
<path d="M63.3347 76.97C63.1047 77.05 62.9947 77.07 62.6047 77.07L60.4147 77.1C60.2247 77.1 60.0647 77.11 59.9347 77.12C60.0347 76.94 60.0347 76.94 60.0947 76.8C60.1947 76.6 60.1947 76.6 60.2247 76.54C60.3247 76.31 60.3247 76.31 60.3547 76.26C60.4647 76.04 60.4647 76.04 60.5247 75.95L59.1547 75.68C59.1147 76.04 58.9547 76.43 58.6447 77C57.9147 78.32 57.1947 79.12 56.0547 79.9C56.5747 80.22 56.7247 80.35 57.0247 80.76C57.9747 80.03 58.7547 79.17 59.3647 78.2L62.3747 78.15C61.8247 79.94 60.8847 81.31 59.4547 82.37C58.8247 82.84 58.2647 83.14 57.2647 83.55C57.7047 83.93 57.8347 84.1 58.1147 84.6C59.6547 83.89 60.7547 83.11 61.6747 82.06C62.5547 81.07 63.2647 79.72 63.7247 78.2C63.8347 77.84 63.8747 77.75 63.9747 77.6L63.3347 76.97ZM67.2447 77.37C67.5547 77.33 67.7447 77.32 68.3947 77.32H71.9247C72.5747 77.32 72.7647 77.33 73.0747 77.37V76.14C72.7447 76.2 72.5347 76.21 71.9047 76.21H68.4147C67.7847 76.21 67.5747 76.2 67.2447 76.14V77.37ZM73.5847 78.53C73.2747 78.6 73.0747 78.62 72.4547 78.62H67.6947C66.9947 78.62 66.7747 78.61 66.3947 78.55V79.77C66.7547 79.73 67.0047 79.72 67.6747 79.72H72.5447C72.1047 80.83 71.6747 81.44 70.9347 82.06C70.1647 82.7 69.3747 83.07 68.1547 83.38C68.5947 83.87 68.7147 84.04 68.9347 84.54C70.1947 84.07 70.8447 83.73 71.5547 83.18C72.5947 82.38 73.3547 81.27 73.8747 79.8C73.9947 79.49 74.0547 79.35 74.1547 79.17L73.5847 78.53ZM82.8647 75.88C82.5747 76.37 81.8947 77.06 81.0047 77.75C79.4147 78.98 77.7347 79.81 75.7547 80.35C76.1047 80.8 76.2147 80.97 76.4247 81.49C78.2647 80.83 78.8247 80.57 79.9947 79.87V83.39C79.9947 83.98 79.9847 84.18 79.9347 84.47H81.3347C81.2947 84.2 81.2847 83.91 81.2847 83.36V79.09C82.1447 78.46 82.8947 77.81 83.6447 77.03C83.7947 76.87 83.8447 76.83 84.0147 76.68L82.8647 75.88ZM93.9147 76.35C93.6347 76.43 93.5447 76.44 92.9447 76.44H87.7247C87.0347 76.44 86.7247 76.42 86.3447 76.36V77.61C86.7547 77.56 87.0047 77.55 87.7047 77.55H92.9547C92.7247 78.03 92.4147 78.44 92.0047 78.82C91.5947 79.21 91.2147 79.44 90.5447 79.74C90.9947 80.08 91.1447 80.23 91.4447 80.65C91.9147 80.39 92.2447 80.17 92.6447 79.82C93.2547 79.3 93.8347 78.55 94.1847 77.81C94.4447 77.29 94.4447 77.28 94.5847 77.11L93.9147 76.35ZM89.1647 78.37C89.2047 78.58 89.2147 78.67 89.2147 78.97C89.2147 80.86 88.8947 81.72 87.8747 82.53C87.3847 82.92 86.9347 83.14 86.1247 83.38C86.5247 83.8 86.6547 83.98 86.9147 84.52C88.1647 84 88.8947 83.49 89.4947 82.72C90.1747 81.85 90.4447 80.89 90.4847 79.18C90.4947 78.57 90.4947 78.56 90.5247 78.37H89.1647ZM96.4447 77.58C97.3747 78.1 98.1947 78.76 98.9947 79.61L99.8547 78.52C99.0847 77.79 98.4647 77.33 97.2747 76.59L96.4447 77.58ZM96.7947 84.18C97.0247 84.1 97.0547 84.09 97.4547 84.01C99.0047 83.68 100.245 83.19 101.265 82.51C102.635 81.6 103.585 80.42 104.435 78.59C103.925 78.23 103.765 78.08 103.375 77.61C103.075 78.42 102.795 78.97 102.355 79.61C101.565 80.75 100.635 81.52 99.3847 82.06C98.4747 82.46 97.2847 82.75 96.4247 82.8L96.7947 84.18ZM109.245 84.45C109.215 84.12 109.205 83.86 109.205 83.34V80.7C109.205 80.42 109.195 80.3 109.165 80.02C109.245 80.07 109.275 80.08 109.505 80.19C111.175 80.96 112.215 81.53 113.045 82.1L113.745 80.92C112.145 80.02 110.575 79.29 109.205 78.81V76.95C109.205 76.33 109.205 76.2 109.245 75.9H107.875C107.915 76.17 107.935 76.43 107.935 76.92V83.33C107.935 83.86 107.925 84.13 107.875 84.45H109.245Z" fill="black"/>
<path d="M155.69 213.35C155.41 213.43 155.32 213.44 154.72 213.44H149.5C148.81 213.44 148.5 213.42 148.12 213.36V214.61C148.53 214.56 148.78 214.55 149.48 214.55H154.73C154.5 215.03 154.19 215.44 153.78 215.82C153.37 216.21 152.99 216.44 152.32 216.74C152.77 217.08 152.92 217.23 153.22 217.65C153.69 217.39 154.02 217.17 154.42 216.82C155.03 216.3 155.61 215.55 155.96 214.81C156.22 214.29 156.22 214.28 156.36 214.11L155.69 213.35ZM150.94 215.37C150.98 215.58 150.99 215.67 150.99 215.97C150.99 217.86 150.67 218.72 149.65 219.53C149.16 219.92 148.71 220.14 147.9 220.38C148.3 220.8 148.43 220.98 148.69 221.52C149.94 221 150.67 220.49 151.27 219.72C151.95 218.85 152.22 217.89 152.26 216.18C152.27 215.57 152.27 215.56 152.3 215.37H150.94ZM159.37 213.73C158.69 213.73 158.45 213.72 158.09 213.66V214.96C158.42 214.91 158.61 214.9 159.35 214.9H164.11C163.47 217.56 161.66 219.42 158.89 220.28C159.34 220.72 159.51 220.95 159.77 221.47C162.93 220.15 164.7 218.11 165.51 214.84C165.58 214.85 165.64 214.86 165.7 214.86C166.34 214.86 166.86 214.34 166.86 213.7C166.86 213.07 166.34 212.55 165.7 212.55C165.06 212.55 164.56 213.06 164.55 213.71C164.38 213.72 164.26 213.73 163.96 213.73H159.37ZM165.7 213.05C166.07 213.05 166.36 213.34 166.36 213.7C166.36 214.06 166.07 214.36 165.7 214.36C165.34 214.36 165.05 214.06 165.05 213.7C165.05 213.34 165.34 213.05 165.7 213.05ZM169.04 213.11C169.07 213.37 169.08 213.5 169.08 214.01V216.76C169.08 217.12 169.06 217.43 169.03 217.66H170.4C170.36 217.41 170.36 217.28 170.36 216.78V214.02C170.36 213.49 170.36 213.4 170.4 213.12L169.04 213.11ZM173.55 213.13C173.59 213.36 173.6 213.57 173.6 214.08V215.33C173.6 216.13 173.59 216.57 173.55 217C173.44 218.32 173.11 218.93 172.17 219.55C171.57 219.95 170.99 220.16 170.01 220.35C170.43 220.88 170.53 221.05 170.71 221.54C171.63 221.27 172.13 221.07 172.66 220.77C173.7 220.19 174.34 219.44 174.63 218.44C174.81 217.81 174.88 216.97 174.89 215.41V214.06C174.89 213.49 174.9 213.38 174.94 213.13H173.55ZM185.02 215.73C185.33 215.74 185.55 215.74 185.68 215.74C186.03 215.74 186.03 215.74 186.29 215.77V214.54C185.87 214.59 185.75 214.6 185.03 214.6C180.95 214.6 180.95 214.6 180.66 214.61C180.78 214.36 180.88 214.14 180.96 213.96C181.26 213.26 181.26 213.26 181.34 213.1L180.04 212.79C179.96 213.23 179.84 213.6 179.54 214.22C179.01 215.36 178.35 216.22 177.43 216.97C177.91 217.23 178.07 217.35 178.45 217.76C179.17 217.1 179.53 216.66 180.11 215.73H182.51C182.41 217.43 181.99 218.46 181.08 219.27C180.49 219.79 179.91 220.12 179.05 220.42C179.48 220.81 179.63 221.01 179.88 221.52C181.12 220.95 181.84 220.44 182.48 219.69C183.27 218.75 183.64 217.69 183.77 215.99C183.78 215.83 183.78 215.83 183.79 215.73H185.02ZM187.71 217.86C188.11 217.81 188.22 217.81 189.34 217.81H194.65C195.77 217.81 195.88 217.81 196.28 217.86V216.47C195.84 216.53 195.65 216.54 194.66 216.54H189.33C188.34 216.54 188.15 216.53 187.71 216.47V217.86ZM198.91 214.07C199.78 214.37 200.67 214.84 201.58 215.45L202.22 214.35C201.38 213.84 200.59 213.46 199.56 213.06L198.91 214.07ZM198.12 216.5C199.14 216.9 200.03 217.38 200.83 217.97L201.45 216.84C200.59 216.28 199.82 215.89 198.79 215.48L198.12 216.5ZM198.69 221.32C198.89 221.26 199.03 221.23 199.39 221.16C201.85 220.67 203.55 219.78 204.82 218.32C205.44 217.59 205.86 216.9 206.32 215.79C205.84 215.46 205.69 215.33 205.28 214.9C204.97 215.79 204.66 216.39 204.12 217.11C203.32 218.18 202.47 218.83 201.23 219.31C200.19 219.71 199.1 219.95 198.34 219.96L198.69 221.32ZM213.69 221.16V221.63H214.84C214.81 221.4 214.8 221.25 214.8 220.87V216.29C214.8 215.85 214.81 215.6 214.83 215.24C214.54 215.27 214.26 215.28 213.9 215.28H209.96C209.56 215.28 209.34 215.26 209.06 215.21V216.32C209.32 216.29 209.47 216.28 209.96 216.28H213.7V217.67H210.22C209.82 217.67 209.59 217.65 209.32 217.6V218.69C209.57 218.66 209.72 218.65 210.22 218.65H213.7V220.16H209.86C209.47 220.16 209.23 220.14 208.96 220.09V221.2C209.21 221.17 209.36 221.16 209.86 221.16H213.69ZM218.22 214.58C219.15 215.1 219.97 215.76 220.77 216.61L221.63 215.52C220.86 214.79 220.24 214.33 219.05 213.59L218.22 214.58ZM218.57 221.18C218.8 221.1 218.83 221.09 219.23 221.01C220.78 220.68 222.02 220.19 223.04 219.51C224.41 218.6 225.36 217.42 226.21 215.59C225.7 215.23 225.54 215.08 225.15 214.61C224.85 215.42 224.57 215.97 224.13 216.61C223.34 217.75 222.41 218.52 221.16 219.06C220.25 219.46 219.06 219.75 218.2 219.8L218.57 221.18ZM171.042 228.84V227.81C171.042 227.3 171.042 227.28 171.082 226.95H169.772C169.812 227.21 169.822 227.42 169.822 227.84V228.84H169.232C168.522 228.84 168.322 228.83 167.932 228.77V229.99C168.282 229.95 168.552 229.94 169.212 229.94H169.822V231.42C169.822 231.79 169.812 232.06 169.782 232.28H171.082C171.052 232.02 171.042 231.86 171.042 231.44V229.94H173.632C173.612 230.63 173.612 230.87 173.592 231.1C173.502 232.25 173.212 232.91 172.532 233.5C172.052 233.92 171.572 234.16 170.622 234.45C171.052 234.89 171.182 235.08 171.372 235.51C172.292 235.18 172.782 234.92 173.322 234.46C174.192 233.72 174.622 232.87 174.762 231.59C174.812 231.21 174.812 231.14 174.832 229.94H175.502C176.162 229.94 176.432 229.95 176.782 229.99V228.77C176.392 228.83 176.192 228.84 175.482 228.84H174.842C174.852 228.24 174.852 228.24 174.852 227.63C174.852 227.24 174.862 227.19 174.892 226.96H173.602C173.642 227.19 173.652 227.41 173.652 228.07V228.39L173.642 228.84H171.042ZM178.062 231.86C178.462 231.81 178.572 231.81 179.692 231.81H185.002C186.122 231.81 186.232 231.81 186.632 231.86V230.47C186.192 230.53 186.002 230.54 185.012 230.54H179.682C178.692 230.54 178.502 230.53 178.062 230.47V231.86ZM189.819 227.51C189.819 227.57 189.819 227.62 189.819 227.65C189.819 227.87 189.789 228.21 189.729 228.62C189.569 229.88 189.219 231.12 188.789 232.05C188.369 232.97 187.959 233.58 187.359 234.18C187.839 234.44 188.029 234.59 188.499 235.04C189.839 233.5 190.619 231.53 191.039 228.66L191.069 228.42L191.119 228.13L191.139 227.96C191.149 227.88 191.159 227.87 191.189 227.76L189.819 227.51ZM192.789 227.75C192.839 227.9 192.869 228.06 192.929 228.47C193.319 231.16 194.249 233.46 195.579 235.05C195.959 234.62 196.169 234.45 196.679 234.13C195.639 233.01 194.939 231.66 194.449 229.81C194.219 228.95 194.039 227.97 194.029 227.51L192.789 227.75ZM194.129 227.13C194.509 227.69 194.719 228.12 194.949 228.76L195.709 228.52C195.469 227.85 195.249 227.43 194.879 226.91L194.129 227.13ZM197.019 228.12C196.799 227.52 196.579 227.1 196.199 226.57L195.459 226.78C195.779 227.24 196.029 227.74 196.259 228.36L197.019 228.12ZM197.358 231.86C197.758 231.81 197.868 231.81 198.988 231.81H204.298C205.418 231.81 205.528 231.81 205.928 231.86V230.47C205.488 230.53 205.298 230.54 204.308 230.54H198.978C197.988 230.54 197.798 230.53 197.358 230.47V231.86Z" fill="#212121"/>
<path d="M268.021 213.29C267.691 213.35 267.491 213.36 266.731 213.36H263.791C263.041 213.36 262.841 213.35 262.501 213.29V214.51C262.821 214.47 262.951 214.46 263.771 214.46H266.751C267.571 214.46 267.711 214.47 268.021 214.51V213.29ZM268.651 216.96C269.431 216.96 269.581 216.97 269.921 217.01V215.82C269.571 215.88 269.371 215.89 268.631 215.89H262.781C262.041 215.89 261.841 215.88 261.491 215.82V217.01C261.831 216.97 261.981 216.96 262.761 216.96H265.191C265.121 218.9 264.341 219.89 262.381 220.51C262.791 220.9 262.961 221.12 263.201 221.62C265.461 220.75 266.401 219.43 266.511 216.96H268.651ZM270.771 213.77C270.531 213.18 270.291 212.78 269.891 212.25L269.171 212.51C269.511 212.98 269.801 213.49 270.031 214.06L270.771 213.77ZM267.861 212.9C268.231 213.42 268.461 213.83 268.741 214.5L269.491 214.22C269.211 213.56 268.981 213.16 268.601 212.64L267.861 212.9ZM271.511 217.86C271.911 217.81 272.021 217.81 273.141 217.81H278.451C279.571 217.81 279.681 217.81 280.081 217.86V216.47C279.641 216.53 279.451 216.54 278.461 216.54H273.131C272.141 216.54 271.951 216.53 271.511 216.47V217.86ZM288.911 213.82C288.651 213.91 288.441 213.93 288.031 213.94C285.591 213.96 285.591 213.96 285.431 213.98C285.481 213.89 285.551 213.77 285.671 213.5C285.861 213.12 285.861 213.12 285.971 212.94L284.671 212.65C284.581 213.02 284.381 213.51 284.091 214.04C283.481 215.16 282.681 216.07 281.581 216.89C282.101 217.19 282.251 217.32 282.581 217.69C283.591 216.84 284.301 216.03 284.921 215L288.031 214.97C287.721 215.91 287.381 216.61 286.911 217.33C286.161 216.74 285.741 216.46 284.901 215.99L284.141 216.88C284.891 217.29 285.491 217.71 286.191 218.31C285.681 218.88 285.261 219.24 284.551 219.7C283.951 220.1 283.451 220.35 282.601 220.7C282.981 221.02 283.111 221.19 283.431 221.73C285.561 220.75 286.971 219.57 287.991 217.91C288.401 217.24 288.951 216.07 289.271 215.16C289.431 214.7 289.451 214.66 289.581 214.49L288.911 213.82ZM291.728 219.06C291.868 218.89 291.908 218.84 292.068 218.65C292.608 218.01 293.448 216.97 293.858 216.42C294.268 215.87 294.308 215.84 294.468 215.84C294.638 215.84 294.638 215.84 295.278 216.54C297.128 218.55 297.638 219.06 299.508 220.76L300.138 219.39C299.918 219.26 299.758 219.14 299.188 218.64C298.068 217.68 297.138 216.76 295.948 215.45C295.188 214.59 294.958 214.43 294.458 214.43C294.218 214.43 293.988 214.49 293.778 214.62C293.578 214.75 293.368 214.97 293.028 215.41C291.688 217.09 291.168 217.68 290.878 217.83L291.728 219.06ZM296.968 214.34C297.408 214.82 297.688 215.22 298.018 215.83L298.718 215.46C298.378 214.84 298.108 214.46 297.668 213.99L296.968 214.34ZM299.908 214.81C299.598 214.24 299.328 213.86 298.868 213.4L298.198 213.75C298.588 214.18 298.918 214.65 299.218 215.2L299.908 214.81ZM300.905 217.86C301.305 217.81 301.415 217.81 302.535 217.81H307.845C308.965 217.81 309.075 217.81 309.475 217.86V216.47C309.035 216.53 308.845 216.54 307.855 216.54H302.525C301.535 216.54 301.345 216.53 300.905 216.47V217.86ZM318.529 220.29C317.319 219.12 317.319 219.12 317.069 218.9C316.389 218.29 315.849 217.87 315.219 217.45C315.829 216.63 316.319 215.76 316.779 214.69C316.889 214.44 316.969 214.3 317.099 214.15L316.439 213.47C316.189 213.56 316.109 213.57 315.549 213.58L312.029 213.63C311.909 213.63 311.829 213.63 311.789 213.63C311.379 213.63 311.189 213.62 310.909 213.57L310.949 214.85C311.289 214.8 311.559 214.78 312.039 214.77C315.189 214.72 315.189 214.72 315.349 214.71L315.239 214.97C314.589 216.53 313.389 217.98 311.879 219.04C311.129 219.57 310.649 219.84 309.879 220.14C310.289 220.57 310.409 220.73 310.689 221.25C312.219 220.5 313.369 219.62 314.499 218.36C315.589 219.19 316.739 220.31 317.569 221.33L318.529 220.29ZM274.042 228.84V227.81C274.042 227.3 274.042 227.28 274.082 226.95H272.772C272.812 227.21 272.822 227.42 272.822 227.84V228.84H272.232C271.522 228.84 271.322 228.83 270.932 228.77V229.99C271.282 229.95 271.552 229.94 272.212 229.94H272.822V231.42C272.822 231.79 272.812 232.06 272.782 232.28H274.082C274.052 232.02 274.042 231.86 274.042 231.44V229.94H276.632C276.612 230.63 276.612 230.87 276.592 231.1C276.502 232.25 276.212 232.91 275.532 233.5C275.052 233.92 274.572 234.16 273.622 234.45C274.052 234.89 274.182 235.08 274.372 235.51C275.292 235.18 275.782 234.92 276.322 234.46C277.192 233.72 277.622 232.87 277.762 231.59C277.812 231.21 277.812 231.14 277.832 229.94H278.502C279.162 229.94 279.432 229.95 279.782 229.99V228.77C279.392 228.83 279.192 228.84 278.482 228.84H277.842C277.852 228.24 277.852 228.24 277.852 227.63C277.852 227.24 277.862 227.19 277.892 226.96H276.602C276.642 227.19 276.652 227.41 276.652 228.07V228.39L276.642 228.84H274.042ZM281.062 231.86C281.462 231.81 281.572 231.81 282.692 231.81H288.002C289.122 231.81 289.232 231.81 289.632 231.86V230.47C289.192 230.53 289.002 230.54 288.012 230.54H282.682C281.692 230.54 281.502 230.53 281.062 230.47V231.86ZM292.819 227.51C292.819 227.57 292.819 227.62 292.819 227.65C292.819 227.87 292.789 228.21 292.729 228.62C292.569 229.88 292.219 231.12 291.789 232.05C291.369 232.97 290.959 233.58 290.359 234.18C290.839 234.44 291.029 234.59 291.499 235.04C292.839 233.5 293.619 231.53 294.039 228.66L294.069 228.42L294.119 228.13L294.139 227.96C294.149 227.88 294.159 227.87 294.189 227.76L292.819 227.51ZM295.789 227.75C295.839 227.9 295.869 228.06 295.929 228.47C296.319 231.16 297.249 233.46 298.579 235.05C298.959 234.62 299.169 234.45 299.679 234.13C298.639 233.01 297.939 231.66 297.449 229.81C297.219 228.95 297.039 227.97 297.029 227.51L295.789 227.75ZM297.129 227.13C297.509 227.69 297.719 228.12 297.949 228.76L298.709 228.52C298.469 227.85 298.249 227.43 297.879 226.91L297.129 227.13ZM300.019 228.12C299.799 227.52 299.579 227.1 299.199 226.57L298.459 226.78C298.779 227.24 299.029 227.74 299.259 228.36L300.019 228.12ZM300.358 231.86C300.758 231.81 300.868 231.81 301.988 231.81H307.298C308.418 231.81 308.528 231.81 308.928 231.86V230.47C308.488 230.53 308.298 230.54 307.308 230.54H301.978C300.988 230.54 300.798 230.53 300.358 230.47V231.86Z" fill="#212121"/>
<path fill-rule="evenodd" clip-rule="evenodd" d="M100.254 167.329H84.4402C83.3235 167.329 82.4182 168.234 82.4182 169.351V200.978C82.4182 202.094 83.3235 203 84.4402 203H108.14C109.257 203 110.162 202.094 110.162 200.978V177.237L100.254 167.329Z" fill="#CCE7FF"/>
<path d="M100.254 167.329L110.163 177.237L101.859 177.237C100.973 177.237 100.254 176.519 100.254 175.633L100.254 167.329Z" fill="#80C4FF"/>
<path d="M60 152.736C60 151.225 61.225 150 62.7361 150H84.6253C86.1364 150 87.3614 151.225 87.3614 152.736V200.163C87.3614 201.674 86.1364 202.899 84.6253 202.899H62.7361C61.225 202.899 60 201.674 60 200.163V152.736Z" fill="#B3B3B3"/>
<ellipse cx="73.6805" cy="181.009" rx="2.73614" ry="2.73614" fill="#D9D9D9"/>
<rect x="63.6483" y="153.648" width="20.065" height="4.56024" rx="0.912048" fill="#D9D9D9"/>
<rect x="63.6482" y="161.858" width="20.065" height="4.56024" rx="0.912048" fill="#D9D9D9"/>
<rect x="63.6482" y="170.066" width="20.065" height="4.56024" rx="0.912048" fill="#D9D9D9"/>
<rect x="63.6482" y="187.396" width="20.065" height="4.56024" rx="0.912048" fill="#D9D9D9"/>
<rect x="63.6482" y="195.603" width="20.065" height="4.56024" rx="0.912048" fill="#D9D9D9"/>
<path d="M287.91 173.621V198.541C287.91 200.211 294.305 203.223 301.854 203.223C309.404 203.223 315.18 200.906 315.18 198.541V173.621H287.91Z" fill="#CCE7FF"/>
<path d="M287.878 197.056C287.808 197.189 287.783 197.458 287.783 198.145C287.783 201.091 293.944 203.501 301.545 203.501C309.146 203.501 315.307 201.091 315.307 198.145C315.307 197.458 315.281 197.19 315.211 197.056C314.364 199.6 308.562 201.742 301.544 201.742C294.527 201.742 288.725 199.6 287.878 197.056Z" fill="#80C4FF"/>
<path d="M315.181 173.559C315.181 176.095 309.076 178.151 301.546 178.151C294.015 178.151 287.91 176.095 287.91 173.559C287.91 171.022 294.015 168.966 301.545 168.966C309.075 168.966 315.181 171.022 315.181 173.559Z" fill="#80C4FF"/>
<path d="M287.878 188.695C287.807 188.829 287.783 189.517 287.783 189.785C287.783 192.731 293.944 195.141 301.545 195.141C309.146 195.141 315.307 192.731 315.307 189.785C315.307 189.517 315.281 188.83 315.211 188.695C314.364 191.24 308.561 193.382 301.544 193.382C294.527 193.382 288.725 191.24 287.878 188.695Z" fill="#80C4FF"/>
<path d="M287.878 180.353C287.807 180.486 287.783 181.175 287.783 181.443C287.783 184.388 293.944 186.798 301.545 186.798C309.146 186.798 315.307 184.388 315.307 181.443C315.307 181.175 315.281 180.487 315.211 180.773C314.364 183.317 308.561 185.04 301.544 185.04C294.527 185.039 288.725 182.896 287.878 180.353Z" fill="#80C4FF"/>
<path d="M265 152.734C265 151.224 266.224 150 267.734 150H289.606C291.115 150 292.339 151.224 292.339 152.734V200.114C292.339 201.624 291.115 202.848 289.606 202.848H267.734C266.224 202.848 265 201.624 265 200.114V152.734Z" fill="#B3B3B3"/>
<circle cx="278.67" cy="180.981" r="2.73395" fill="#D9D9D9"/>
<rect x="268.646" y="153.645" width="20.0489" height="4.55658" rx="0.911316" fill="#D9D9D9"/>
<rect x="268.646" y="161.845" width="20.0489" height="4.55658" rx="0.911316" fill="#D9D9D9"/>
<rect x="268.646" y="170.046" width="20.0489" height="4.55658" rx="0.911316" fill="#D9D9D9"/>
<rect x="268.646" y="187.358" width="20.0489" height="4.55658" rx="0.911316" fill="#D9D9D9"/>
<rect x="268.646" y="195.559" width="20.0489" height="4.55658" rx="0.911316" fill="#D9D9D9"/>
<path d="M211.574 184.263C211.878 184.393 212.074 184.693 212.072 185.023L212.063 187.573C212.061 187.904 211.863 188.202 211.558 188.33L208.127 189.773C207.902 189.867 207.732 190.058 207.653 190.289C207.423 190.968 207.139 191.624 206.803 192.251C206.684 192.473 206.664 192.736 206.757 192.97L208.075 196.291C208.199 196.603 208.121 196.959 207.879 197.191L205.976 199.009C205.747 199.228 205.412 199.297 205.116 199.185L201.59 197.857C201.37 197.774 201.125 197.79 200.914 197.894C200.247 198.222 199.547 198.501 198.819 198.719C198.585 198.789 198.389 198.953 198.286 199.175L196.765 202.461C196.629 202.753 196.336 202.94 196.013 202.939L193.298 202.928C192.975 202.927 192.683 202.738 192.55 202.444L191.052 199.144C190.952 198.923 190.759 198.759 190.527 198.686C189.801 198.46 189.102 198.179 188.436 197.846C188.225 197.741 187.98 197.722 187.759 197.804L184.232 199.109C183.934 199.22 183.599 199.149 183.371 198.928L181.477 197.089C181.236 196.856 181.161 196.499 181.287 196.188L182.631 192.877C182.726 192.643 182.707 192.38 182.59 192.157C182.259 191.53 181.977 190.872 181.755 190.193C181.678 189.959 181.509 189.765 181.283 189.668L177.872 188.2C177.569 188.069 177.373 187.77 177.374 187.44L177.384 184.89C177.385 184.559 177.584 184.261 177.889 184.133L181.319 182.69C181.545 182.595 181.715 182.405 181.793 182.174C182.024 181.495 182.308 180.838 182.643 180.212C182.762 179.99 182.783 179.727 182.69 179.493L181.371 176.172C181.247 175.86 181.325 175.503 181.568 175.271L183.47 173.453C183.7 173.234 184.034 173.166 184.331 173.278L187.856 174.606C188.076 174.689 188.321 174.673 188.532 174.569C189.199 174.24 189.899 173.962 190.627 173.743C190.861 173.673 191.057 173.51 191.16 173.288L192.682 170.002C192.817 169.71 193.111 169.523 193.433 169.524L196.149 169.535C196.471 169.536 196.763 169.725 196.896 170.018L198.394 173.319C198.494 173.54 198.687 173.704 198.919 173.776C199.646 174.003 200.345 174.284 201.011 174.617C201.221 174.722 201.466 174.741 201.687 174.659L205.222 173.358C205.52 173.249 205.853 173.32 206.081 173.541L207.969 175.373C208.211 175.607 208.286 175.964 208.159 176.275L206.815 179.586C206.72 179.819 206.739 180.082 206.856 180.305C207.187 180.933 207.469 181.59 207.692 182.27C207.768 182.504 207.937 182.698 208.163 182.795L211.574 184.263ZM194.745 180.635C191.533 180.622 188.923 183.116 188.911 186.209C188.899 189.302 191.49 191.816 194.702 191.828C197.913 191.84 200.523 189.347 200.535 186.254C200.547 183.161 197.957 180.647 194.745 180.635Z" fill="#80C4FF"/>
<path d="M162 152.734C162 151.224 163.224 150 164.734 150H186.61C188.12 150 189.345 151.224 189.345 152.734V200.132C189.345 201.642 188.12 202.866 186.61 202.866H164.734C163.224 202.866 162 201.642 162 200.132V152.734Z" fill="#B3B3B3"/>
<circle cx="175.672" cy="180.991" r="2.73446" fill="#D9D9D9"/>
<rect x="165.646" y="153.646" width="20.0527" height="4.55744" rx="0.911487" fill="#D9D9D9"/>
<rect x="165.646" y="161.85" width="20.0527" height="4.55744" rx="0.911487" fill="#D9D9D9"/>
<rect x="165.646" y="170.053" width="20.0527" height="4.55744" rx="0.911487" fill="#D9D9D9"/>
<rect x="165.646" y="187.371" width="20.0527" height="4.55744" rx="0.911487" fill="#D9D9D9"/>
<rect x="165.646" y="195.574" width="20.0527" height="4.55744" rx="0.911487" fill="#D9D9D9"/>
<path d="M145.923 185.8H127.923" stroke="#B2B2B2" stroke-width="3"/>
<path d="M143.188 185.793L142.139 181.561C142.088 181.354 142.312 181.187 142.495 181.297L149.428 185.457C149.687 185.612 149.687 185.988 149.428 186.143L142.499 190.301C142.315 190.411 142.09 190.243 142.143 190.036L143.188 185.909C143.198 185.871 143.198 185.831 143.188 185.793Z" fill="#B2B2B2"/>
<path d="M128.735 185.808L129.784 190.04C129.836 190.247 129.611 190.413 129.428 190.303L122.495 186.144C122.236 185.988 122.236 185.613 122.495 185.458L129.424 181.3C129.608 181.19 129.833 181.357 129.78 181.565L128.736 185.691C128.726 185.73 128.726 185.77 128.735 185.808Z" fill="#B2B2B2"/>
<path d="M248 185.801H230" stroke="#B2B2B2" stroke-width="3"/>
<path d="M246.188 185.793L245.139 181.561C245.088 181.354 245.312 181.187 245.495 181.297L252.428 185.457C252.687 185.612 252.687 185.988 252.428 186.143L245.499 190.301C245.315 190.411 245.09 190.243 245.143 190.036L246.188 185.909C246.198 185.871 246.198 185.831 246.188 185.793Z" fill="#B2B2B2"/>
<path d="M230.812 185.808L231.861 190.04C231.912 190.247 231.688 190.413 231.505 190.303L224.572 186.143C224.313 185.988 224.313 185.613 224.572 185.457L231.501 181.3C231.685 181.19 231.91 181.357 231.857 181.565L230.812 185.691C230.802 185.729 230.802 185.769 230.812 185.808Z" fill="#B2B2B2"/>
<path d="M48 250C48 248.343 49.3431 247 51 247H120C121.657 247 123 248.343 123 250V286C123 287.657 121.657 289 120 289H51C49.3431 289 48 287.657 48 286V250Z" fill="#CCE7FF"/>
<path d="M77.39 262.47V262.02H78.85V262.47H77.39ZM78.85 260.8V261.24H77.39V260.8H78.85ZM79.91 259.94H76.36V264.87H77.39V263.25H78.85V263.78C78.85 263.88 78.82 263.91 78.71 263.91C78.62 263.91 78.29 263.92 77.99 263.9C78.12 264.17 78.26 264.57 78.31 264.86C78.86 264.86 79.23 264.85 79.53 264.68C79.83 264.52 79.91 264.25 79.91 263.79V259.94ZM83.58 261.62H82.8V260.85H83.58V261.62ZM82.8 259.14H83.58V259.87H82.8V259.14ZM82.67 257.36C82.52 257.64 82.34 257.92 82.16 258.17H81.19C81.38 257.92 81.56 257.65 81.73 257.36H82.67ZM85.2 259.87H84.65V258.17H83.33C83.64 257.75 83.94 257.28 84.14 256.88L83.42 256.42L83.25 256.46H82.19C82.29 256.23 82.38 256 82.46 255.77L81.42 255.53C81.12 256.41 80.62 257.28 80.02 257.87V257.53H78.67V257.17H80.25V256.34H78.67V255.53H77.57V256.34H76V257.17H77.57V257.53H76.24V258.34H77.57V258.73H75.84V259.58H80.35V258.73H78.67V258.34H80.02V258.06C80.21 258.2 80.45 258.39 80.62 258.53V259.14H81.69V259.87H80.23V260.85H81.69V261.62H80.56V262.58H81.69V263.61C81.69 263.74 81.65 263.77 81.53 263.77C81.39 263.77 81 263.77 80.58 263.75C80.74 264.06 80.91 264.53 80.95 264.85C81.58 264.85 82.03 264.81 82.37 264.63C82.71 264.46 82.8 264.15 82.8 263.62V262.58H83.58V262.96H84.65V260.85H85.2V259.87ZM87.34 262.79V260.83H88.93V262.79H87.34ZM88.93 259.8H87.34V258.18H88.93V259.8ZM92.1 257.07C92.25 256.65 92.39 256.23 92.49 255.8L91.36 255.54C91.07 256.71 90.59 257.92 90.01 258.76V257.14H88.46C88.63 256.71 88.81 256.21 88.98 255.71L87.68 255.53C87.64 256 87.52 256.64 87.39 257.14H86.26V264.57H87.34V263.84H90.01V259.17C90.28 259.35 90.62 259.58 90.78 259.73C91.09 259.3 91.4 258.75 91.66 258.15H93.8C93.69 261.68 93.56 263.18 93.27 263.5C93.14 263.63 93.03 263.67 92.83 263.67C92.57 263.67 91.98 263.67 91.34 263.61C91.55 263.94 91.71 264.44 91.73 264.77C92.32 264.79 92.92 264.8 93.3 264.75C93.7 264.68 93.98 264.57 94.26 264.2C94.67 263.67 94.78 262.08 94.91 257.61C94.92 257.47 94.92 257.07 94.92 257.07H92.1ZM93.26 261.63C92.95 261.05 92.29 260.1 91.79 259.41L90.86 259.94C91.35 260.67 91.97 261.65 92.25 262.25L93.26 261.63ZM69.23 279.22C69.21 278.92 69.19 278.39 69.19 278.04V272.86C69.19 272.57 69.21 272.17 69.22 271.94C69.05 271.95 68.63 271.96 68.34 271.96H63.31C62.96 271.96 62.44 271.94 62.07 271.9V273.29C62.35 273.27 62.89 273.25 63.31 273.25H67.8V277.39H63.19C62.74 277.39 62.29 277.36 61.94 277.33V278.76C62.27 278.73 62.84 278.7 63.23 278.7H67.79C67.79 278.89 67.79 279.06 67.78 279.22H69.23ZM72.91 271.4L71.97 272.4C72.7 272.91 73.95 274 74.47 274.56L75.49 273.51C74.91 272.91 73.61 271.87 72.91 271.4ZM71.66 278.06L72.5 279.38C73.91 279.14 75.2 278.58 76.21 277.97C77.82 277 79.15 275.62 79.91 274.27L79.13 272.86C78.5 274.21 77.19 275.74 75.49 276.75C74.52 277.33 73.22 277.84 71.66 278.06ZM87.6 272.58C87.95 272.58 88.33 272.6 88.68 272.62V271.33C88.34 271.38 87.94 271.4 87.6 271.4H83.58C83.25 271.4 82.84 271.38 82.52 271.33V272.62C82.82 272.6 83.24 272.58 83.59 272.58H87.6ZM82.31 273.95C82 273.95 81.65 273.92 81.35 273.89V275.2C81.63 275.18 82.02 275.16 82.31 275.16H85.06C85.02 276 84.85 276.75 84.44 277.37C84.04 277.95 83.34 278.53 82.63 278.8L83.8 279.65C84.69 279.2 85.46 278.42 85.81 277.73C86.17 277.03 86.39 276.19 86.45 275.16H88.86C89.14 275.16 89.52 275.17 89.77 275.19V273.89C89.5 273.93 89.07 273.95 88.86 273.95H82.31ZM92.91 271.4L91.97 272.4C92.7 272.91 93.95 274 94.47 274.56L95.49 273.51C94.91 272.91 93.61 271.87 92.91 271.4ZM91.66 278.06L92.5 279.38C93.91 279.14 95.2 278.58 96.21 277.97C97.82 277 99.15 275.62 99.91 274.27L99.13 272.86C98.5 274.21 97.19 275.74 95.49 276.75C94.52 277.33 93.22 277.84 91.66 278.06ZM105.23 271.21L103.98 271.62C104.28 272.24 104.83 273.69 105.02 274.33L106.28 273.89C106.09 273.24 105.48 271.7 105.23 271.21ZM108.3 271.58C108.15 272.95 107.58 274.74 106.76 275.78C105.74 277.07 104.18 277.97 102.81 278.36L103.93 279.48C105.36 278.94 106.81 277.93 107.86 276.55C108.69 275.46 109.26 273.87 109.54 272.79C109.6 272.56 109.69 272.26 109.79 272.01L108.3 271.58ZM102.45 271.83L101.17 272.27C101.46 272.81 102.12 274.45 102.32 275.1L103.61 274.63C103.38 273.95 102.76 272.46 102.45 271.83Z" fill="#212121"/>
<path d="M152 250C152 248.343 153.343 247 155 247H324C325.657 247 327 248.343 327 250V286C327 287.657 325.657 289 324 289H155C153.343 289 152 287.657 152 286V250Z" fill="#CCE7FF"/>
<path d="M232.94 262.8H234.75V261.96H232.94V261.57H234.71V258.48H232.94V258.09H234.86V258.87H235.77C235.7 260.66 235.46 262.09 234.68 263.17C234.1 263.22 233.51 263.27 232.94 263.31V262.8ZM231.08 260.83V260.38H231.86V260.83H231.08ZM233.72 260.38V260.83H232.94V260.38H233.72ZM232.94 259.67V259.23H233.72V259.67H232.94ZM231.08 259.23H231.86V259.67H231.08V259.23ZM236.93 257.78C236.95 257.12 236.95 256.42 236.95 255.69H235.81C235.81 256.43 235.81 257.12 235.8 257.78H234.86V257.23H232.94V256.74C233.59 256.67 234.21 256.58 234.74 256.47L234.22 255.58C233.12 255.82 231.39 255.99 229.91 256.07C230.02 256.3 230.13 256.67 230.17 256.91C230.71 256.9 231.28 256.87 231.86 256.83V257.23H229.89V258.09H231.86V258.48H230.14V261.57H231.86V261.96H230.1V262.8H231.86V263.4C231.09 263.45 230.39 263.5 229.83 263.54L229.97 264.54C231.05 264.45 232.49 264.3 233.93 264.15C234.19 264.37 234.48 264.7 234.63 264.94C236.31 263.61 236.77 261.55 236.9 258.87H237.8C237.74 262.1 237.64 263.32 237.43 263.59C237.34 263.72 237.24 263.76 237.09 263.76C236.9 263.76 236.52 263.75 236.08 263.71C236.28 264.04 236.41 264.52 236.43 264.85C236.91 264.86 237.37 264.87 237.67 264.81C238 264.74 238.23 264.64 238.46 264.31C238.78 263.85 238.86 262.4 238.95 258.31C238.95 258.17 238.96 257.78 238.96 257.78H236.93ZM241.34 262.79V260.83H242.93V262.79H241.34ZM242.93 259.8H241.34V258.18H242.93V259.8ZM246.1 257.07C246.25 256.65 246.39 256.23 246.49 255.8L245.36 255.54C245.07 256.71 244.59 257.92 244.01 258.76V257.14H242.46C242.63 256.71 242.81 256.21 242.98 255.71L241.68 255.53C241.64 256 241.52 256.64 241.39 257.14H240.26V264.57H241.34V263.84H244.01V259.17C244.28 259.35 244.62 259.58 244.78 259.73C245.09 259.3 245.4 258.75 245.66 258.15H247.8C247.69 261.68 247.56 263.18 247.27 263.5C247.14 263.63 247.03 263.67 246.83 263.67C246.57 263.67 245.98 263.67 245.34 263.61C245.55 263.94 245.71 264.44 245.73 264.77C246.32 264.79 246.92 264.8 247.3 264.75C247.7 264.68 247.98 264.57 248.26 264.2C248.67 263.67 248.78 262.08 248.91 257.61C248.92 257.47 248.92 257.07 248.92 257.07H246.1ZM247.26 261.63C246.95 261.05 246.29 260.1 245.79 259.41L244.86 259.94C245.35 260.67 245.97 261.65 246.25 262.25L247.26 261.63ZM223.23 279.22C223.21 278.92 223.19 278.39 223.19 278.04V272.86C223.19 272.57 223.21 272.17 223.22 271.94C223.05 271.95 222.63 271.96 222.34 271.96H217.31C216.96 271.96 216.44 271.94 216.07 271.9V273.29C216.35 273.27 216.89 273.25 217.31 273.25H221.8V277.39H217.19C216.74 277.39 216.29 277.36 215.94 277.33V278.76C216.27 278.73 216.84 278.7 217.23 278.7H221.79C221.79 278.89 221.79 279.06 221.78 279.22H223.23ZM226.91 271.4L225.97 272.4C226.7 272.91 227.95 274 228.47 274.56L229.49 273.51C228.91 272.91 227.61 271.87 226.91 271.4ZM225.66 278.06L226.5 279.38C227.91 279.14 229.2 278.58 230.21 277.97C231.82 277 233.15 275.62 233.91 274.27L233.13 272.86C232.5 274.21 231.19 275.74 229.49 276.75C228.52 277.33 227.22 277.84 225.66 278.06ZM241.6 272.58C241.95 272.58 242.33 272.6 242.68 272.62V271.33C242.34 271.38 241.94 271.4 241.6 271.4H237.58C237.25 271.4 236.84 271.38 236.52 271.33V272.62C236.82 272.6 237.24 272.58 237.59 272.58H241.6ZM236.31 273.95C236 273.95 235.65 273.92 235.35 273.89V275.2C235.63 275.18 236.02 275.16 236.31 275.16H239.06C239.02 276 238.85 276.75 238.44 277.37C238.04 277.95 237.34 278.53 236.63 278.8L237.8 279.65C238.69 279.2 239.46 278.42 239.81 277.73C240.17 277.03 240.39 276.19 240.45 275.16H242.86C243.14 275.16 243.52 275.17 243.77 275.19V273.89C243.5 273.93 243.07 273.95 242.86 273.95H236.31ZM246.91 271.4L245.97 272.4C246.7 272.91 247.95 274 248.47 274.56L249.49 273.51C248.91 272.91 247.61 271.87 246.91 271.4ZM245.66 278.06L246.5 279.38C247.91 279.14 249.2 278.58 250.21 277.97C251.82 277 253.15 275.62 253.91 274.27L253.13 272.86C252.5 274.21 251.19 275.74 249.49 276.75C248.52 277.33 247.22 277.84 245.66 278.06ZM259.23 271.21L257.98 271.62C258.28 272.24 258.83 273.69 259.02 274.33L260.28 273.89C260.09 273.24 259.48 271.7 259.23 271.21ZM262.3 271.58C262.15 272.95 261.58 274.74 260.76 275.78C259.74 277.07 258.18 277.97 256.81 278.36L257.93 279.48C259.36 278.94 260.81 277.93 261.86 276.55C262.69 275.46 263.26 273.87 263.54 272.79C263.6 272.56 263.69 272.26 263.79 272.01L262.3 271.58ZM256.45 271.83L255.17 272.27C255.46 272.81 256.12 274.45 256.32 275.1L257.61 274.63C257.38 273.95 256.76 272.46 256.45 271.83Z" fill="#212121"/>
<path d="M85 133L85 103" stroke="#B2B2B2" stroke-width="3"/>
<path d="M85.2073 131.188L89.4392 130.139C89.6465 130.088 89.8126 130.312 89.7027 130.495L85.543 137.428C85.3877 137.687 85.0124 137.687 84.857 137.428L80.6995 130.499C80.5893 130.315 80.7566 130.09 80.9642 130.143L85.0906 131.188C85.1289 131.198 85.169 131.198 85.2073 131.188Z" fill="#B2B2B2"/>
<path d="M85.1923 103.812L80.9605 104.861C80.7532 104.912 80.587 104.688 80.6969 104.505L84.8566 97.5717C85.012 97.3128 85.3873 97.3128 85.5426 97.5717L89.7002 104.501C89.8104 104.685 89.6431 104.91 89.4355 104.857L85.309 103.812C85.2707 103.802 85.2307 103.802 85.1923 103.812Z" fill="#B2B2B2"/>
<path d="M59.1666 30.1111C59.1666 28.9452 60.1118 28 61.2777 28H109.833C110.999 28 111.944 28.9452 111.944 30.1111V61.7913H59.1666V30.1111Z" fill="#B2B2B2"/>
<path d="M62.3334 32.2222C62.3334 31.6392 62.806 31.1666 63.3889 31.1666H107.722C108.305 31.1666 108.778 31.6392 108.778 32.2222V34.3333H62.3334V32.2222Z" fill="#D4D4D4"/>
<path d="M69.0098 32.4676C69.036 32.3252 69.1601 32.2218 69.3049 32.2218H76.5211C76.6687 32.2218 76.7944 32.3292 76.8175 32.475L77.1111 34.3329H68.6667L69.0098 32.4676Z" fill="white"/>
<path d="M56 62.8334H115.111V63.8889C115.111 65.0549 114.166 66 113 66H58.1111C56.9452 66 56 65.0549 56 63.8889V62.8334Z" fill="#B2B2B2"/>
<path d="M62.3334 34.3334H108.778V57.5556C108.778 58.1386 108.305 58.6112 107.722 58.6112H63.3889C62.806 58.6112 62.3334 58.1386 62.3334 57.5556V34.3334Z" fill="white"/>
</svg>
