<svg width="1440" height="460" viewBox="0 0 1440 460" fill="none" xmlns="http://www.w3.org/2000/svg">
<g clip-path="url(#clip0)">
<rect width="1440" height="460" fill="#F9FBFE"/>
<path d="M1447.29 123.726H1371V141.474H1447.29V123.726Z" stroke="#2B546A" stroke-width="1.16038" stroke-miterlimit="10"/>
<path d="M1452.52 118H1376.22V135.748H1452.52V118Z" fill="#A0C3F7"/>
<path d="M61.2949 79.7266H-15V97.4746H61.2949V79.7266Z" stroke="#2B546A" stroke-width="1.16038" stroke-miterlimit="10"/>
<path d="M66.5166 74H-9.77832V91.748H66.5166V74Z" fill="#A0C3F7"/>
<path d="M1325.75 179.347C1324 179.347 1322.58 177.926 1322.58 176.174C1322.58 174.421 1324 173 1325.75 173C1327.5 173 1328.92 174.421 1328.92 176.174C1328.92 177.926 1327.5 179.347 1325.75 179.347Z" fill="#2B546A"/>
<path d="M1315.89 189.205C1314.14 189.205 1312.72 187.783 1312.72 186.031C1312.72 184.279 1314.14 182.857 1315.89 182.857C1317.65 182.857 1319.07 184.279 1319.07 186.031C1319.07 187.783 1317.65 189.205 1315.89 189.205Z" fill="#F7DF41"/>
<path d="M1306.04 199.062C1304.28 199.062 1302.86 197.641 1302.86 195.888C1302.86 194.136 1304.28 192.715 1306.04 192.715C1307.79 192.715 1309.21 194.136 1309.21 195.888C1309.21 197.646 1307.79 199.062 1306.04 199.062Z" fill="#88E7CE"/>
<path d="M1296.17 208.925C1294.42 208.925 1293 207.504 1293 205.752C1293 203.999 1294.42 202.578 1296.17 202.578C1297.93 202.578 1299.35 203.999 1299.35 205.752C1299.35 207.504 1297.93 208.925 1296.17 208.925Z" fill="#A0C3F7"/>
<path d="M1022 459.391C1022.09 442.513 1035.85 428.908 1052.73 429C1069.61 429.093 1083.22 442.855 1083.12 459.733" stroke="#2B546A" stroke-width="1.16038" stroke-miterlimit="10"/>
<path d="M1075.31 459.687C1075.38 447.12 1065.25 436.879 1052.69 436.81C1040.13 436.74 1029.89 446.87 1029.82 459.431L1075.31 459.687Z" fill="#88E7CE"/>
<path d="M451 73.9996C451.058 63.448 459.662 54.9423 470.213 55.0003C480.765 55.0583 489.271 63.662 489.213 74.2136" stroke="#2B546A" stroke-width="0.72544" stroke-miterlimit="10"/>
<path d="M484.33 74.1846C484.374 66.3281 478.041 59.9261 470.188 59.8825C462.331 59.839 455.929 66.1721 455.886 74.025L484.33 74.1846Z" fill="#88E7CE"/>
<path d="M489.213 73.7127C489.155 84.2642 480.551 92.77 470 92.712C459.448 92.6539 450.942 84.0502 451 73.4987" stroke="#2B546A" stroke-width="0.72544" stroke-miterlimit="10"/>
<path d="M455.883 73.5277C455.839 81.3842 462.172 87.7862 470.025 87.8297C477.882 87.8733 484.284 81.5402 484.327 73.6873L455.883 73.5277Z" fill="#88E7CE"/>
<path d="M977 216C977.058 205.448 985.662 196.942 996.213 197C1006.76 197.058 1015.27 205.662 1015.21 216.214" stroke="#2B546A" stroke-width="0.72544" stroke-miterlimit="10"/>
<path d="M1010.33 216.185C1010.37 208.328 1004.04 201.926 996.188 201.883C988.331 201.839 981.929 208.172 981.886 216.025L1010.33 216.185Z" fill="#88E7CE"/>
<path d="M1015.21 215.713C1015.15 226.264 1006.55 234.77 996 234.712C985.448 234.654 976.942 226.05 977 215.499" stroke="#2B546A" stroke-width="0.72544" stroke-miterlimit="10"/>
<path d="M981.883 215.528C981.839 223.384 988.172 229.786 996.025 229.83C1003.88 229.873 1010.28 223.54 1010.33 215.687L981.883 215.528Z" fill="#88E7CE"/>
<path d="M797.771 204.094V196.552M801.542 200.323H794H801.542Z" stroke="#88E7CE" stroke-width="0.580189" stroke-miterlimit="10"/>
<path d="M797.771 185.528V177.986M801.542 181.757H794H801.542Z" stroke="#88E7CE" stroke-width="0.580189" stroke-miterlimit="10"/>
<path d="M797.771 167.543V160M801.542 163.772H794H801.542Z" stroke="#88E7CE" stroke-width="0.580189" stroke-miterlimit="10"/>
<path d="M797.771 204.094V196.552M801.542 200.323H794H801.542Z" stroke="#F7DF41" stroke-width="1.16038" stroke-miterlimit="10"/>
<path d="M797.771 185.528V177.986M801.542 181.757H794H801.542Z" stroke="#F7DF41" stroke-width="1.16038" stroke-miterlimit="10"/>
<path d="M797.771 167.543V160M801.542 163.772H794H801.542Z" stroke="#F7DF41" stroke-width="1.16038" stroke-miterlimit="10"/>
<path d="M815.177 204.094V196.552M818.949 200.323H811.406H818.949Z" stroke="#88E7CE" stroke-width="0.580189" stroke-miterlimit="10"/>
<path d="M815.177 185.528V177.986M818.949 181.757H811.406H818.949Z" stroke="#88E7CE" stroke-width="0.580189" stroke-miterlimit="10"/>
<path d="M815.178 167.543V160M818.95 163.771H811.407H818.95Z" stroke="#88E7CE" stroke-width="0.580189" stroke-miterlimit="10"/>
<path d="M815.177 204.094V196.552M818.949 200.323H811.406H818.949Z" stroke="#F7DF41" stroke-width="1.16038" stroke-miterlimit="10"/>
<path d="M815.177 185.528V177.986M818.949 181.757H811.406H818.949Z" stroke="#F7DF41" stroke-width="1.16038" stroke-miterlimit="10"/>
<path d="M815.178 167.543V160M818.95 163.771H811.407H818.95Z" stroke="#F7DF41" stroke-width="1.16038" stroke-miterlimit="10"/>
<path d="M832.583 185.528V177.986M836.354 181.757H828.812H836.354Z" stroke="#88E7CE" stroke-width="0.580189" stroke-miterlimit="10"/>
<path d="M832.583 167.542V160M836.354 163.771H828.812H836.354Z" stroke="#88E7CE" stroke-width="0.580189" stroke-miterlimit="10"/>
<path d="M832.583 185.528V177.986M836.354 181.757H828.812H836.354Z" stroke="#F7DF41" stroke-width="1.16038" stroke-miterlimit="10"/>
<path d="M832.583 167.542V160M836.354 163.771H828.812H836.354Z" stroke="#F7DF41" stroke-width="1.16038" stroke-miterlimit="10"/>
<path d="M849.99 185.528V177.986M853.761 181.757H846.219H853.761Z" stroke="#88E7CE" stroke-width="0.580189" stroke-miterlimit="10"/>
<path d="M849.989 167.542V160M853.76 163.771H846.218H853.76Z" stroke="#88E7CE" stroke-width="0.580189" stroke-miterlimit="10"/>
<path d="M849.99 185.528V177.986M853.761 181.757H846.219H853.761Z" stroke="#F7DF41" stroke-width="1.16038" stroke-miterlimit="10"/>
<path d="M849.989 167.542V160M853.76 163.771H846.218H853.76Z" stroke="#F7DF41" stroke-width="1.16038" stroke-miterlimit="10"/>
<path d="M867.394 185.528V177.986M871.166 181.757H863.623H871.166Z" stroke="#88E7CE" stroke-width="0.580189" stroke-miterlimit="10"/>
<path d="M867.394 167.543V160M871.166 163.771H863.623H871.166Z" stroke="#88E7CE" stroke-width="0.580189" stroke-miterlimit="10"/>
<path d="M867.394 185.528V177.986M871.166 181.757H863.623H871.166Z" stroke="#F7DF41" stroke-width="1.16038" stroke-miterlimit="10"/>
<path d="M867.394 167.543V160M871.166 163.771H863.623H871.166Z" stroke="#F7DF41" stroke-width="1.16038" stroke-miterlimit="10"/>
<path d="M410.771 347.094V339.552M414.542 343.323H407H414.542Z" stroke="#88E7CE" stroke-width="0.580189" stroke-miterlimit="10"/>
<path d="M410.771 328.528V320.986M414.542 324.757H407H414.542Z" stroke="#88E7CE" stroke-width="0.580189" stroke-miterlimit="10"/>
<path d="M410.772 310.543V303.001M414.543 306.772H407.001H414.543Z" stroke="#88E7CE" stroke-width="0.580189" stroke-miterlimit="10"/>
<path d="M410.771 347.094V339.552M414.542 343.323H407H414.542Z" stroke="#2B546A" stroke-width="1.16038" stroke-miterlimit="10"/>
<path d="M410.771 328.528V320.986M414.542 324.757H407H414.542Z" stroke="#2B546A" stroke-width="1.16038" stroke-miterlimit="10"/>
<path d="M410.772 310.543V303.001M414.543 306.772H407.001H414.543Z" stroke="#2B546A" stroke-width="1.16038" stroke-miterlimit="10"/>
<path d="M428.177 347.094V339.552M431.949 343.323H424.406H431.949Z" stroke="#88E7CE" stroke-width="0.580189" stroke-miterlimit="10"/>
<path d="M428.177 328.528V320.986M431.949 324.757H424.406H431.949Z" stroke="#88E7CE" stroke-width="0.580189" stroke-miterlimit="10"/>
<path d="M428.177 310.542V303M431.949 306.771H424.406H431.949Z" stroke="#88E7CE" stroke-width="0.580189" stroke-miterlimit="10"/>
<path d="M428.177 347.094V339.552M431.949 343.323H424.406H431.949Z" stroke="#2B546A" stroke-width="1.16038" stroke-miterlimit="10"/>
<path d="M428.177 328.528V320.986M431.949 324.757H424.406H431.949Z" stroke="#2B546A" stroke-width="1.16038" stroke-miterlimit="10"/>
<path d="M428.177 310.542V303M431.949 306.771H424.406H431.949Z" stroke="#2B546A" stroke-width="1.16038" stroke-miterlimit="10"/>
<path d="M445.583 328.528V320.986M449.354 324.757H441.812H449.354Z" stroke="#88E7CE" stroke-width="0.580189" stroke-miterlimit="10"/>
<path d="M445.583 310.543V303M449.354 306.771H441.812H449.354Z" stroke="#88E7CE" stroke-width="0.580189" stroke-miterlimit="10"/>
<path d="M445.583 328.528V320.986M449.354 324.757H441.812H449.354Z" stroke="#2B546A" stroke-width="1.16038" stroke-miterlimit="10"/>
<path d="M445.583 310.543V303M449.354 306.771H441.812H449.354Z" stroke="#2B546A" stroke-width="1.16038" stroke-miterlimit="10"/>
<path d="M462.989 328.528V320.986M466.76 324.757H459.218H466.76Z" stroke="#88E7CE" stroke-width="0.580189" stroke-miterlimit="10"/>
<path d="M462.989 310.542V303M466.76 306.771H459.218H466.76Z" stroke="#88E7CE" stroke-width="0.580189" stroke-miterlimit="10"/>
<path d="M462.989 328.528V320.986M466.76 324.757H459.218H466.76Z" stroke="#2B546A" stroke-width="1.16038" stroke-miterlimit="10"/>
<path d="M462.989 310.542V303M466.76 306.771H459.218H466.76Z" stroke="#2B546A" stroke-width="1.16038" stroke-miterlimit="10"/>
<path d="M480.393 328.528V320.986M484.165 324.757H476.622H484.165Z" stroke="#88E7CE" stroke-width="0.580189" stroke-miterlimit="10"/>
<path d="M480.393 310.543V303M484.165 306.771H476.622H484.165Z" stroke="#88E7CE" stroke-width="0.580189" stroke-miterlimit="10"/>
<path d="M480.393 328.528V320.986M484.165 324.757H476.622H484.165Z" stroke="#2B546A" stroke-width="1.16038" stroke-miterlimit="10"/>
<path d="M480.393 310.543V303M484.165 306.771H476.622H484.165Z" stroke="#2B546A" stroke-width="1.16038" stroke-miterlimit="10"/>
<path d="M138.771 36.0945V28.552M142.542 32.3232H135H142.542Z" stroke="#88E7CE" stroke-width="0.580189" stroke-miterlimit="10"/>
<path d="M138.771 17.5284V9.98596M142.542 13.7572H135H142.542Z" stroke="#88E7CE" stroke-width="0.580189" stroke-miterlimit="10"/>
<path d="M138.771 36.0945V28.552M142.542 32.3232H135H142.542Z" stroke="#F7DF41" stroke-width="1.16038" stroke-miterlimit="10"/>
<path d="M138.771 17.5284V9.98596M142.542 13.7572H135H142.542Z" stroke="#F7DF41" stroke-width="1.16038" stroke-miterlimit="10"/>
<path d="M156.177 36.0945V28.552M159.949 32.3232H152.406H159.949Z" stroke="#88E7CE" stroke-width="0.580189" stroke-miterlimit="10"/>
<path d="M156.177 17.5283V9.98584M159.949 13.7571H152.406H159.949Z" stroke="#88E7CE" stroke-width="0.580189" stroke-miterlimit="10"/>
<path d="M156.177 36.0945V28.552M159.949 32.3232H152.406H159.949Z" stroke="#F7DF41" stroke-width="1.16038" stroke-miterlimit="10"/>
<path d="M156.177 17.5283V9.98584M159.949 13.7571H152.406H159.949Z" stroke="#F7DF41" stroke-width="1.16038" stroke-miterlimit="10"/>
<path d="M173.583 17.5283V9.98584M177.354 13.7571H169.812H177.354Z" stroke="#88E7CE" stroke-width="0.580189" stroke-miterlimit="10"/>
<path d="M173.583 17.5283V9.98584M177.354 13.7571H169.812H177.354Z" stroke="#F7DF41" stroke-width="1.16038" stroke-miterlimit="10"/>
<path d="M190.989 17.5283V9.98584M194.76 13.7571H187.218H194.76Z" stroke="#88E7CE" stroke-width="0.580189" stroke-miterlimit="10"/>
<path d="M190.989 17.5283V9.98584M194.76 13.7571H187.218H194.76Z" stroke="#F7DF41" stroke-width="1.16038" stroke-miterlimit="10"/>
<path d="M208.393 17.5283V9.98584M212.165 13.7571H204.622H212.165Z" stroke="#88E7CE" stroke-width="0.580189" stroke-miterlimit="10"/>
<path d="M208.393 17.5283V9.98584M212.165 13.7571H204.622H212.165Z" stroke="#F7DF41" stroke-width="1.16038" stroke-miterlimit="10"/>
<path d="M1374.77 300.094V292.552M1378.54 296.323H1371H1378.54Z" stroke="#88E7CE" stroke-width="0.580189" stroke-miterlimit="10"/>
<path d="M1374.77 281.528V273.986M1378.54 277.757H1371H1378.54Z" stroke="#88E7CE" stroke-width="0.580189" stroke-miterlimit="10"/>
<path d="M1374.77 263.543V256.001M1378.54 259.772H1371H1378.54Z" stroke="#88E7CE" stroke-width="0.580189" stroke-miterlimit="10"/>
<path d="M1374.77 300.094V292.552M1378.54 296.323H1371H1378.54Z" stroke="#2B546A" stroke-width="1.16038" stroke-miterlimit="10"/>
<path d="M1374.77 281.528V273.986M1378.54 277.757H1371H1378.54Z" stroke="#2B546A" stroke-width="1.16038" stroke-miterlimit="10"/>
<path d="M1374.77 263.543V256.001M1378.54 259.772H1371H1378.54Z" stroke="#2B546A" stroke-width="1.16038" stroke-miterlimit="10"/>
<path d="M1392.18 300.094V292.552M1395.95 296.323H1388.41H1395.95Z" stroke="#88E7CE" stroke-width="0.580189" stroke-miterlimit="10"/>
<path d="M1392.18 281.528V273.986M1395.95 277.757H1388.41H1395.95Z" stroke="#88E7CE" stroke-width="0.580189" stroke-miterlimit="10"/>
<path d="M1392.18 263.542V256M1395.95 259.771H1388.41H1395.95Z" stroke="#88E7CE" stroke-width="0.580189" stroke-miterlimit="10"/>
<path d="M1392.18 300.094V292.552M1395.95 296.323H1388.41H1395.95Z" stroke="#2B546A" stroke-width="1.16038" stroke-miterlimit="10"/>
<path d="M1392.18 281.528V273.986M1395.95 277.757H1388.41H1395.95Z" stroke="#2B546A" stroke-width="1.16038" stroke-miterlimit="10"/>
<path d="M1392.18 263.542V256M1395.95 259.771H1388.41H1395.95Z" stroke="#2B546A" stroke-width="1.16038" stroke-miterlimit="10"/>
<path d="M1409.58 281.528V273.986M1413.35 277.757H1405.81H1413.35Z" stroke="#88E7CE" stroke-width="0.580189" stroke-miterlimit="10"/>
<path d="M1409.58 263.543V256M1413.35 259.771H1405.81H1413.35Z" stroke="#88E7CE" stroke-width="0.580189" stroke-miterlimit="10"/>
<path d="M1409.58 281.528V273.986M1413.35 277.757H1405.81H1413.35Z" stroke="#2B546A" stroke-width="1.16038" stroke-miterlimit="10"/>
<path d="M1409.58 263.543V256M1413.35 259.771H1405.81H1413.35Z" stroke="#2B546A" stroke-width="1.16038" stroke-miterlimit="10"/>
<path d="M1426.99 281.528V273.986M1430.76 277.757H1423.22H1430.76Z" stroke="#88E7CE" stroke-width="0.580189" stroke-miterlimit="10"/>
<path d="M1426.99 263.542V256M1430.76 259.771H1423.22H1430.76Z" stroke="#88E7CE" stroke-width="0.580189" stroke-miterlimit="10"/>
<path d="M1426.99 281.528V273.986M1430.76 277.757H1423.22H1430.76Z" stroke="#2B546A" stroke-width="1.16038" stroke-miterlimit="10"/>
<path d="M1426.99 263.542V256M1430.76 259.771H1423.22H1430.76Z" stroke="#2B546A" stroke-width="1.16038" stroke-miterlimit="10"/>
<path d="M1116.34 226.676C1117.64 226.676 1118.68 225.629 1118.68 224.338C1118.68 223.047 1117.64 222 1116.34 222C1115.05 222 1114.01 223.047 1114.01 224.338C1114.01 225.629 1115.05 226.676 1116.34 226.676Z" fill="#A0C3F7"/>
<path d="M1131.21 224.338C1131.21 225.626 1130.16 226.676 1128.87 226.676C1127.58 226.676 1126.53 225.632 1126.53 224.338C1126.53 223.05 1127.58 222 1128.87 222C1130.16 222 1131.21 223.044 1131.21 224.338Z" fill="#A0C3F7"/>
<path d="M1116.34 236.354C1117.63 236.354 1118.68 235.307 1118.68 234.016C1118.68 232.724 1117.63 231.678 1116.34 231.678C1115.05 231.678 1114 232.724 1114 234.016C1114 235.307 1115.05 236.354 1116.34 236.354Z" fill="#A0C3F7"/>
<path d="M1131.21 234.016C1131.21 235.304 1130.16 236.354 1128.87 236.354C1127.58 236.354 1126.53 235.31 1126.53 234.016C1126.53 232.722 1127.58 231.678 1128.87 231.678C1130.16 231.683 1131.21 232.728 1131.21 234.016Z" stroke="#A0C3F7" stroke-width="0.580189" stroke-miterlimit="10"/>
<path d="M1116.34 246.037C1117.63 246.037 1118.68 244.99 1118.68 243.699C1118.68 242.408 1117.63 241.361 1116.34 241.361C1115.05 241.361 1114 242.408 1114 243.699C1114 244.99 1115.05 246.037 1116.34 246.037Z" fill="#2B546A"/>
<path d="M1131.21 243.699C1131.21 244.987 1130.16 246.037 1128.87 246.037C1127.58 246.037 1126.53 244.993 1126.53 243.699C1126.53 242.405 1127.58 241.361 1128.87 241.361C1130.16 241.361 1131.21 242.411 1131.21 243.699Z" stroke="#A0C3F7" stroke-width="0.580189" stroke-miterlimit="10"/>
<path d="M1116.34 255.721C1117.63 255.721 1118.68 254.674 1118.68 253.382C1118.68 252.091 1117.63 251.044 1116.34 251.044C1115.05 251.044 1114 252.091 1114 253.382C1114 254.674 1115.05 255.721 1116.34 255.721Z" fill="#2B546A"/>
<path d="M1131.21 253.382C1131.21 254.67 1130.16 255.721 1128.87 255.721C1127.58 255.721 1126.53 254.676 1126.53 253.382C1126.53 252.094 1127.58 251.044 1128.87 251.044C1130.16 251.044 1131.21 252.089 1131.21 253.382Z" stroke="#A0C3F7" stroke-width="0.580189" stroke-miterlimit="10"/>
<path d="M1118.68 263.066C1118.68 264.354 1117.63 265.404 1116.34 265.404C1115.05 265.404 1114 264.36 1114 263.066C1114 261.778 1115.04 260.728 1116.34 260.728C1117.63 260.728 1118.68 261.772 1118.68 263.066Z" fill="#2B546A"/>
<path d="M1131.21 263.066C1131.21 264.354 1130.16 265.404 1128.87 265.404C1127.58 265.404 1126.53 264.36 1126.53 263.066C1126.53 261.778 1127.58 260.728 1128.87 260.728C1130.16 260.728 1131.21 261.772 1131.21 263.066Z" stroke="#A0C3F7" stroke-width="0.580189" stroke-miterlimit="10"/>
<path d="M1118.68 272.743C1118.68 274.031 1117.63 275.081 1116.34 275.081C1115.05 275.081 1114 274.037 1114 272.743C1114 271.455 1115.04 270.405 1116.34 270.405C1117.63 270.405 1118.68 271.455 1118.68 272.743Z" fill="#A0C3F7"/>
<path d="M1131.21 272.743C1131.21 274.031 1130.16 275.081 1128.87 275.081C1127.58 275.081 1126.53 274.037 1126.53 272.743C1126.53 271.455 1127.58 270.405 1128.87 270.405C1130.16 270.405 1131.21 271.455 1131.21 272.743Z" stroke="#A0C3F7" stroke-width="0.580189" stroke-miterlimit="10"/>
<path d="M1118.68 282.427C1118.68 283.715 1117.63 284.765 1116.34 284.765C1115.05 284.765 1114 283.72 1114 282.427C1114 281.139 1115.04 280.089 1116.34 280.089C1117.63 280.089 1118.68 281.133 1118.68 282.427Z" fill="#A0C3F7"/>
<path d="M1131.21 282.427C1131.21 283.715 1130.16 284.765 1128.87 284.765C1127.58 284.765 1126.53 283.72 1126.53 282.427C1126.53 281.139 1127.58 280.089 1128.87 280.089C1130.16 280.089 1131.21 281.133 1131.21 282.427Z" fill="#A0C3F7"/>
<path d="M189.798 160.923V154.976H183.851V160.923H189.798Z" fill="#2B546A"/>
<path d="M179.504 171.215V165.268H173.557V171.215H179.504Z" fill="#88E7CE"/>
<path d="M169.21 181.507V175.56H163.263V181.507H169.21Z" fill="#88E7CE"/>
<path d="M158.923 191.799V185.852H152.976V191.799H158.923Z" fill="#2B546A"/>
<path d="M1209.8 442.923V436.976H1203.85V442.923H1209.8Z" fill="#2B546A"/>
<path d="M1199.5 453.215V447.268H1193.56V453.215H1199.5Z" fill="#88E7CE"/>
<path d="M1189.21 463.507V457.56H1183.26V463.507H1189.21Z" fill="#88E7CE"/>
<path d="M867 423.105V489.798" stroke="#88E7CE" stroke-width="1.16038" stroke-miterlimit="10"/>
<path d="M872.367 414.733V489.798" stroke="#A0C3F7" stroke-width="1.16038" stroke-miterlimit="10"/>
<path d="M877.733 406.366V489.798" stroke="#2B546A" stroke-width="1.16038" stroke-miterlimit="10"/>
<path d="M883.101 398V489.798" stroke="#2B546A" stroke-width="1.16038" stroke-miterlimit="10"/>
<path d="M1036.35 81H994V87.9623H1036.35V81Z" fill="#88E7CE"/>
<path d="M1036.35 98.4055H994V105.368H1036.35V98.4055Z" fill="#88E7CE"/>
<path d="M469.963 392.988C465.552 388.577 458.398 388.577 453.987 392.988C449.577 397.398 449.577 404.553 453.987 408.963L469.963 392.988Z" fill="#88E7CE"/>
<path d="M301 217.975C305.41 222.386 312.565 222.386 316.976 217.975C321.386 213.565 321.386 206.41 316.976 202L301 217.975Z" fill="#88E7CE"/>
<path d="M122 292.74L140.903 303.653L159.805 292.74V270.913L140.903 260L122 270.913V292.74Z" fill="#F7DF41"/>
<path d="M122 314.567L140.903 325.48L159.805 314.567V292.74L140.903 281.827L122 292.74V314.567Z" stroke="#2B546A" stroke-width="1.16038" stroke-miterlimit="10"/>
<path d="M615 16.7401L633.903 27.6534L652.805 16.7401V-5.08664L633.903 -16L615 -5.08664V16.7401Z" fill="#F7DF41"/>
<path d="M615 38.5669L633.903 49.4802L652.805 38.5669V16.7401L633.903 5.82678L615 16.7401V38.5669Z" stroke="#2B546A" stroke-width="1.16038" stroke-miterlimit="10"/>
<path d="M302.093 361H299.001V373.666H302.093V361Z" fill="#88E7CE"/>
<path d="M309.949 361H306.856V373.666H309.949V361Z" fill="#88E7CE"/>
<path d="M317.803 361H314.711V373.666H317.803V361Z" fill="#88E7CE"/>
<path d="M302.092 379.038H299V391.704H302.092V379.038Z" fill="#88E7CE"/>
<path d="M309.949 379.038H306.856V391.704H309.949V379.038Z" fill="#88E7CE"/>
<path d="M309.949 397.07H306.856V409.736H309.949V397.07Z" fill="#88E7CE"/>
<path d="M317.803 397.07H314.711V409.736H317.803V397.07Z" fill="#88E7CE"/>
<path d="M302.092 415.108H299V427.774H302.092V415.108Z" fill="#88E7CE"/>
<path d="M317.803 415.108H314.711V427.774H317.803V415.108Z" fill="#88E7CE"/>
<path d="M302.092 433.147H299V445.812H302.092V433.147Z" fill="#88E7CE"/>
<path d="M309.949 433.147H306.856V445.812H309.949V433.147Z" fill="#88E7CE"/>
<path d="M302.092 451.185H299V463.85H302.092V451.185Z" fill="#88E7CE"/>
<path d="M309.949 451.185H306.856V463.85H309.949V451.185Z" fill="#88E7CE"/>
<path d="M317.803 451.185H314.711V463.85H317.803V451.185Z" fill="#88E7CE"/>
<path d="M1307.09 3.03809H1304V15.7036H1307.09V3.03809Z" fill="#88E7CE"/>
<path d="M1314.95 3.03809H1311.86V15.7036H1314.95V3.03809Z" fill="#88E7CE"/>
<path d="M1314.95 21.0703H1311.86V33.7359H1314.95V21.0703Z" fill="#88E7CE"/>
<path d="M1322.8 21.0703H1319.71V33.7359H1322.8V21.0703Z" fill="#88E7CE"/>
<path d="M1307.09 39.1084H1304V51.7739H1307.09V39.1084Z" fill="#88E7CE"/>
<path d="M1322.8 39.1084H1319.71V51.7739H1322.8V39.1084Z" fill="#88E7CE"/>
<path d="M1307.09 57.1465H1304V69.812H1307.09V57.1465Z" fill="#88E7CE"/>
<path d="M1314.95 57.1465H1311.86V69.812H1314.95V57.1465Z" fill="#88E7CE"/>
<path d="M1307.09 75.1846H1304V87.8501H1307.09V75.1846Z" fill="#88E7CE"/>
<path d="M1314.95 75.1846H1311.86V87.8501H1314.95V75.1846Z" fill="#88E7CE"/>
<path d="M1322.8 75.1846H1319.71V87.8501H1322.8V75.1846Z" fill="#88E7CE"/>
<path d="M676.06 360.676C674.772 360.676 673.722 359.632 673.722 358.338C673.722 357.044 674.766 356 676.06 356C677.348 356 678.398 357.044 678.398 358.338C678.398 359.632 677.354 360.676 676.06 360.676Z" fill="#A0C3F7"/>
<path d="M676.06 373.208C674.772 373.208 673.722 372.164 673.722 370.87C673.722 369.582 674.766 368.532 676.06 368.532C677.348 368.532 678.398 369.576 678.398 370.87C678.398 372.158 677.354 373.208 676.06 373.208Z" fill="#A0C3F7"/>
<path d="M676.06 385.74C674.772 385.74 673.722 384.696 673.722 383.402C673.722 382.108 674.766 381.064 676.06 381.064C677.348 381.064 678.398 382.108 678.398 383.402C678.398 384.696 677.354 385.74 676.06 385.74Z" fill="#A0C3F7"/>
<path d="M676.06 398.267C674.772 398.267 673.722 397.222 673.722 395.929C673.722 394.635 674.766 393.59 676.06 393.59C677.348 393.59 678.398 394.635 678.398 395.929C678.398 397.222 677.354 398.267 676.06 398.267Z" fill="#2B546A"/>
<path d="M676.06 410.799C674.772 410.799 673.722 409.754 673.722 408.461C673.722 407.173 674.766 406.122 676.06 406.122C677.348 406.122 678.398 407.167 678.398 408.461C678.398 409.754 677.354 410.799 676.06 410.799Z" fill="#A0C3F7"/>
<path d="M676.06 423.331C674.772 423.331 673.722 422.287 673.722 420.993C673.722 419.699 674.766 418.655 676.06 418.655C677.348 418.655 678.398 419.699 678.398 420.993C678.398 422.287 677.354 423.331 676.06 423.331Z" fill="#A0C3F7"/>
<path d="M676.06 435.863C674.772 435.863 673.722 434.819 673.722 433.525C673.722 432.231 674.766 431.187 676.06 431.187C677.348 431.187 678.398 432.231 678.398 433.525C678.398 434.819 677.354 435.863 676.06 435.863Z" fill="#2B546A"/>
<path d="M666.382 360.676C667.673 360.676 668.72 359.629 668.72 358.338C668.72 357.047 667.673 356 666.382 356C665.091 356 664.044 357.047 664.044 358.338C664.044 359.629 665.091 360.676 666.382 360.676Z" fill="#A0C3F7"/>
<path d="M666.382 373.208C665.094 373.208 664.044 372.164 664.044 370.87C664.044 369.582 665.088 368.532 666.382 368.532C667.67 368.532 668.72 369.576 668.72 370.87C668.72 372.158 667.67 373.208 666.382 373.208Z" stroke="#A0C3F7" stroke-width="0.580189" stroke-miterlimit="10"/>
<path d="M666.382 385.74C667.673 385.74 668.72 384.694 668.72 383.402C668.72 382.111 667.673 381.064 666.382 381.064C665.091 381.064 664.044 382.111 664.044 383.402C664.044 384.694 665.091 385.74 666.382 385.74Z" fill="#A0C3F7"/>
<path d="M666.382 398.273C667.673 398.273 668.72 397.226 668.72 395.934C668.72 394.643 667.673 393.596 666.382 393.596C665.091 393.596 664.044 394.643 664.044 395.934C664.044 397.226 665.091 398.273 666.382 398.273Z" fill="#A0C3F7"/>
<path d="M666.382 410.799C665.094 410.799 664.044 409.754 664.044 408.461C664.044 407.173 665.088 406.122 666.382 406.122C667.67 406.122 668.72 407.167 668.72 408.461C668.72 409.754 667.67 410.799 666.382 410.799Z" fill="#A0C3F7"/>
<path d="M666.382 423.337C667.673 423.337 668.72 422.29 668.72 420.999C668.72 419.707 667.673 418.66 666.382 418.66C665.091 418.66 664.044 419.707 664.044 420.999C664.044 422.29 665.091 423.337 666.382 423.337Z" stroke="#A0C3F7" stroke-width="0.580189" stroke-miterlimit="10"/>
<path d="M666.382 435.869C667.673 435.869 668.72 434.822 668.72 433.531C668.72 432.239 667.673 431.192 666.382 431.192C665.091 431.192 664.044 432.239 664.044 433.531C664.044 434.822 665.091 435.869 666.382 435.869Z" fill="#A0C3F7"/>
<path d="M656.699 360.676C657.991 360.676 659.038 359.629 659.038 358.338C659.038 357.047 657.991 356 656.699 356C655.408 356 654.361 357.047 654.361 358.338C654.361 359.629 655.408 360.676 656.699 360.676Z" fill="#A0C3F7"/>
<path d="M656.699 373.208C655.411 373.208 654.361 372.164 654.361 370.87C654.361 369.582 655.406 368.532 656.699 368.532C657.993 368.532 659.038 369.576 659.038 370.87C659.038 372.158 657.993 373.208 656.699 373.208Z" fill="#A0C3F7"/>
<path d="M656.699 385.74C657.991 385.74 659.038 384.694 659.038 383.402C659.038 382.111 657.991 381.064 656.699 381.064C655.408 381.064 654.361 382.111 654.361 383.402C654.361 384.694 655.408 385.74 656.699 385.74Z" fill="#A0C3F7"/>
<path d="M656.699 398.273C657.991 398.273 659.038 397.226 659.038 395.934C659.038 394.643 657.991 393.596 656.699 393.596C655.408 393.596 654.361 394.643 654.361 395.934C654.361 397.226 655.408 398.273 656.699 398.273Z" fill="#A0C3F7"/>
<path d="M656.699 410.799C655.411 410.799 654.361 409.754 654.361 408.461C654.361 407.173 655.406 406.122 656.699 406.122C657.993 406.122 659.038 407.167 659.038 408.461C659.038 409.754 657.993 410.799 656.699 410.799Z" fill="#2B546A"/>
<path d="M656.699 423.337C657.991 423.337 659.038 422.29 659.038 420.999C659.038 419.707 657.991 418.66 656.699 418.66C655.408 418.66 654.361 419.707 654.361 420.999C654.361 422.29 655.408 423.337 656.699 423.337Z" fill="#A0C3F7"/>
<path d="M656.699 435.869C657.991 435.869 659.038 434.822 659.038 433.531C659.038 432.239 657.991 431.192 656.699 431.192C655.408 431.192 654.361 432.239 654.361 433.531C654.361 434.822 655.408 435.869 656.699 435.869Z" fill="#A0C3F7"/>
<path d="M647.016 360.676C648.307 360.676 649.354 359.629 649.354 358.338C649.354 357.047 648.307 356 647.016 356C645.725 356 644.678 357.047 644.678 358.338C644.678 359.629 645.725 360.676 647.016 360.676Z" fill="#A0C3F7"/>
<path d="M647.016 373.208C645.728 373.208 644.678 372.164 644.678 370.87C644.678 369.582 645.722 368.532 647.016 368.532C648.31 368.532 649.354 369.576 649.354 370.87C649.354 372.158 648.31 373.208 647.016 373.208Z" fill="#2B546A"/>
<path d="M647.016 385.74C648.307 385.74 649.354 384.694 649.354 383.402C649.354 382.111 648.307 381.064 647.016 381.064C645.725 381.064 644.678 382.111 644.678 383.402C644.678 384.694 645.725 385.74 647.016 385.74Z" fill="#A0C3F7"/>
<path d="M647.016 398.273C648.307 398.273 649.354 397.226 649.354 395.934C649.354 394.643 648.307 393.596 647.016 393.596C645.725 393.596 644.678 394.643 644.678 395.934C644.678 397.226 645.725 398.273 647.016 398.273Z" stroke="#A0C3F7" stroke-width="0.580189" stroke-miterlimit="10"/>
<path d="M647.016 410.799C645.728 410.799 644.678 409.754 644.678 408.461C644.678 407.173 645.722 406.122 647.016 406.122C648.31 406.122 649.354 407.167 649.354 408.461C649.354 409.754 648.31 410.799 647.016 410.799Z" fill="#A0C3F7"/>
<path d="M647.016 423.337C648.307 423.337 649.354 422.29 649.354 420.999C649.354 419.707 648.307 418.66 647.016 418.66C645.725 418.66 644.678 419.707 644.678 420.999C644.678 422.29 645.725 423.337 647.016 423.337Z" fill="#A0C3F7"/>
<path d="M647.016 435.869C648.307 435.869 649.354 434.822 649.354 433.531C649.354 432.239 648.307 431.192 647.016 431.192C645.725 431.192 644.678 432.239 644.678 433.531C644.678 434.822 645.725 435.869 647.016 435.869Z" fill="#A0C3F7"/>
<path d="M637.338 360.677C638.629 360.677 639.676 359.63 639.676 358.338C639.676 357.047 638.629 356 637.338 356C636.047 356 635 357.047 635 358.338C635 359.63 636.047 360.677 637.338 360.677Z" stroke="#A0C3F7" stroke-width="0.580189" stroke-miterlimit="10"/>
<path d="M637.338 373.208C636.05 373.208 635 372.164 635 370.87C635 369.582 636.044 368.532 637.338 368.532C638.626 368.532 639.676 369.576 639.676 370.87C639.676 372.158 638.626 373.208 637.338 373.208Z" fill="#A0C3F7"/>
<path d="M637.338 385.74C638.629 385.74 639.676 384.694 639.676 383.402C639.676 382.111 638.629 381.064 637.338 381.064C636.047 381.064 635 382.111 635 383.402C635 384.694 636.047 385.74 637.338 385.74Z" fill="#A0C3F7"/>
<path d="M637.338 398.273C638.629 398.273 639.676 397.226 639.676 395.934C639.676 394.643 638.629 393.596 637.338 393.596C636.047 393.596 635 394.643 635 395.934C635 397.226 636.047 398.273 637.338 398.273Z" fill="#A0C3F7"/>
<path d="M637.338 410.799C636.05 410.799 635 409.754 635 408.461C635 407.173 636.044 406.122 637.338 406.122C638.626 406.122 639.676 407.167 639.676 408.461C639.676 409.754 638.626 410.799 637.338 410.799Z" fill="#A0C3F7"/>
<path d="M637.338 423.337C638.629 423.337 639.676 422.29 639.676 420.999C639.676 419.707 638.629 418.66 637.338 418.66C636.047 418.66 635 419.707 635 420.999C635 422.29 636.047 423.337 637.338 423.337Z" fill="#A0C3F7"/>
<path d="M637.338 435.869C638.629 435.869 639.676 434.822 639.676 433.531C639.676 432.239 638.629 431.192 637.338 431.192C636.047 431.192 635 432.239 635 433.531C635 434.822 636.047 435.869 637.338 435.869Z" fill="#A0C3F7"/>
<path d="M1195.06 0.740411C1193.77 0.740411 1192.72 -0.303929 1192.72 -1.59775C1192.72 -2.89157 1193.77 -3.93591 1195.06 -3.93591C1196.35 -3.93591 1197.4 -2.89157 1197.4 -1.59775C1197.4 -0.303929 1196.35 0.740411 1195.06 0.740411Z" fill="#A0C3F7"/>
<path d="M1195.06 13.2668C1193.77 13.2668 1192.72 12.2224 1192.72 10.9286C1192.72 9.63479 1193.77 8.59045 1195.06 8.59045C1196.35 8.59045 1197.4 9.63479 1197.4 10.9286C1197.4 12.2224 1196.35 13.2668 1195.06 13.2668Z" fill="#2B546A"/>
<path d="M1195.06 25.7989C1193.77 25.7989 1192.72 24.7546 1192.72 23.4607C1192.72 22.1727 1193.77 21.1226 1195.06 21.1226C1196.35 21.1226 1197.4 22.1669 1197.4 23.4607C1197.4 24.7546 1196.35 25.7989 1195.06 25.7989Z" fill="#A0C3F7"/>
<path d="M1195.06 38.331C1193.77 38.331 1192.72 37.2866 1192.72 35.9928C1192.72 34.699 1193.77 33.6547 1195.06 33.6547C1196.35 33.6547 1197.4 34.699 1197.4 35.9928C1197.4 37.2866 1196.35 38.331 1195.06 38.331Z" fill="#A0C3F7"/>
<path d="M1195.06 50.863C1193.77 50.863 1192.72 49.8186 1192.72 48.5248C1192.72 47.231 1193.77 46.1866 1195.06 46.1866C1196.35 46.1866 1197.4 47.231 1197.4 48.5248C1197.4 49.8186 1196.35 50.863 1195.06 50.863Z" fill="#2B546A"/>
<path d="M1185.38 0.740411C1186.67 0.740411 1187.72 -0.30642 1187.72 -1.59775C1187.72 -2.88908 1186.67 -3.93591 1185.38 -3.93591C1184.09 -3.93591 1183.04 -2.88908 1183.04 -1.59775C1183.04 -0.30642 1184.09 0.740411 1185.38 0.740411Z" fill="#A0C3F7"/>
<path d="M1185.38 13.2725C1186.67 13.2725 1187.72 12.2257 1187.72 10.9344C1187.72 9.64302 1186.67 8.59619 1185.38 8.59619C1184.09 8.59619 1183.04 9.64302 1183.04 10.9344C1183.04 12.2257 1184.09 13.2725 1185.38 13.2725Z" fill="#A0C3F7"/>
<path d="M1185.38 25.7989C1184.09 25.7989 1183.04 24.7546 1183.04 23.4607C1183.04 22.1727 1184.09 21.1226 1185.38 21.1226C1186.67 21.1226 1187.72 22.1669 1187.72 23.4607C1187.72 24.7546 1186.67 25.7989 1185.38 25.7989Z" fill="#A0C3F7"/>
<path d="M1185.38 38.3367C1186.67 38.3367 1187.72 37.2899 1187.72 35.9986C1187.72 34.7072 1186.67 33.6604 1185.38 33.6604C1184.09 33.6604 1183.04 34.7072 1183.04 35.9986C1183.04 37.2899 1184.09 38.3367 1185.38 38.3367Z" stroke="#A0C3F7" stroke-width="0.580189" stroke-miterlimit="10"/>
<path d="M1185.38 50.8688C1186.67 50.8688 1187.72 49.822 1187.72 48.5307C1187.72 47.2393 1186.67 46.1925 1185.38 46.1925C1184.09 46.1925 1183.04 47.2393 1183.04 48.5307C1183.04 49.822 1184.09 50.8688 1185.38 50.8688Z" fill="#A0C3F7"/>
<path d="M1175.7 0.740411C1176.99 0.740411 1178.04 -0.30642 1178.04 -1.59775C1178.04 -2.88908 1176.99 -3.93591 1175.7 -3.93591C1174.41 -3.93591 1173.36 -2.88908 1173.36 -1.59775C1173.36 -0.30642 1174.41 0.740411 1175.7 0.740411Z" fill="#A0C3F7"/>
<path d="M1175.7 13.2725C1176.99 13.2725 1178.04 12.2257 1178.04 10.9344C1178.04 9.64302 1176.99 8.59619 1175.7 8.59619C1174.41 8.59619 1173.36 9.64302 1173.36 10.9344C1173.36 12.2257 1174.41 13.2725 1175.7 13.2725Z" fill="#A0C3F7"/>
<path d="M1175.7 25.7989C1174.41 25.7989 1173.36 24.7546 1173.36 23.4607C1173.36 22.1727 1174.41 21.1226 1175.7 21.1226C1176.99 21.1226 1178.04 22.1669 1178.04 23.4607C1178.04 24.7546 1176.99 25.7989 1175.7 25.7989Z" fill="#2B546A"/>
<path d="M1175.7 38.3367C1176.99 38.3367 1178.04 37.2899 1178.04 35.9986C1178.04 34.7072 1176.99 33.6604 1175.7 33.6604C1174.41 33.6604 1173.36 34.7072 1173.36 35.9986C1173.36 37.2899 1174.41 38.3367 1175.7 38.3367Z" fill="#A0C3F7"/>
<path d="M1175.7 50.8688C1176.99 50.8688 1178.04 49.822 1178.04 48.5307C1178.04 47.2393 1176.99 46.1925 1175.7 46.1925C1174.41 46.1925 1173.36 47.2393 1173.36 48.5307C1173.36 49.822 1174.41 50.8688 1175.7 50.8688Z" fill="#A0C3F7"/>
<path d="M1166.02 0.740411C1167.31 0.740411 1168.35 -0.30642 1168.35 -1.59775C1168.35 -2.88908 1167.31 -3.93591 1166.02 -3.93591C1164.72 -3.93591 1163.68 -2.88908 1163.68 -1.59775C1163.68 -0.30642 1164.72 0.740411 1166.02 0.740411Z" fill="#A0C3F7"/>
<path d="M1166.02 13.2725C1167.31 13.2725 1168.35 12.2257 1168.35 10.9344C1168.35 9.64302 1167.31 8.59619 1166.02 8.59619C1164.72 8.59619 1163.68 9.64302 1163.68 10.9344C1163.68 12.2257 1164.72 13.2725 1166.02 13.2725Z" stroke="#A0C3F7" stroke-width="0.580189" stroke-miterlimit="10"/>
<path d="M1166.02 25.7989C1164.73 25.7989 1163.68 24.7546 1163.68 23.4607C1163.68 22.1727 1164.72 21.1226 1166.02 21.1226C1167.31 21.1226 1168.35 22.1669 1168.35 23.4607C1168.35 24.7546 1167.31 25.7989 1166.02 25.7989Z" fill="#A0C3F7"/>
<path d="M1166.02 38.3367C1167.31 38.3367 1168.35 37.2899 1168.35 35.9986C1168.35 34.7072 1167.31 33.6604 1166.02 33.6604C1164.72 33.6604 1163.68 34.7072 1163.68 35.9986C1163.68 37.2899 1164.72 38.3367 1166.02 38.3367Z" fill="#A0C3F7"/>
<path d="M1166.02 50.8688C1167.31 50.8688 1168.35 49.822 1168.35 48.5307C1168.35 47.2393 1167.31 46.1925 1166.02 46.1925C1164.72 46.1925 1163.68 47.2393 1163.68 48.5307C1163.68 49.822 1164.72 50.8688 1166.02 50.8688Z" fill="#A0C3F7"/>
<path d="M1156.34 0.740411C1157.63 0.740411 1158.68 -0.30642 1158.68 -1.59775C1158.68 -2.88908 1157.63 -3.93591 1156.34 -3.93591C1155.05 -3.93591 1154 -2.88908 1154 -1.59775C1154 -0.30642 1155.05 0.740411 1156.34 0.740411Z" fill="#A0C3F7"/>
<path d="M1156.34 13.2725C1157.63 13.2725 1158.68 12.2257 1158.68 10.9344C1158.68 9.64302 1157.63 8.59619 1156.34 8.59619C1155.05 8.59619 1154 9.64302 1154 10.9344C1154 12.2257 1155.05 13.2725 1156.34 13.2725Z" fill="#A0C3F7"/>
<path d="M1156.34 25.7989C1155.05 25.7989 1154 24.7546 1154 23.4607C1154 22.1727 1155.04 21.1226 1156.34 21.1226C1157.63 21.1226 1158.68 22.1669 1158.68 23.4607C1158.68 24.7546 1157.63 25.7989 1156.34 25.7989Z" fill="#A0C3F7"/>
<path d="M1156.34 38.3367C1157.63 38.3367 1158.68 37.2899 1158.68 35.9986C1158.68 34.7072 1157.63 33.6604 1156.34 33.6604C1155.05 33.6604 1154 34.7072 1154 35.9986C1154 37.2899 1155.05 38.3367 1156.34 38.3367Z" fill="#A0C3F7"/>
<path d="M1156.34 50.8688C1157.63 50.8688 1158.68 49.822 1158.68 48.5307C1158.68 47.2393 1157.63 46.1925 1156.34 46.1925C1155.05 46.1925 1154 47.2393 1154 48.5307C1154 49.822 1155.05 50.8688 1156.34 50.8688Z" fill="#A0C3F7"/>
<path d="M328 51H341.472V64.472L328 51Z" fill="#A0C3F7"/>
<path d="M328 78.0369H341.472V91.5147L328 78.0369Z" fill="#A0C3F7"/>
<path d="M328 64.5591H341.472V78.0369L328 64.5591Z" fill="#2B546A"/>
<path d="M818 29.8507L847.845 0" stroke="#2B546A" stroke-width="1.16038" stroke-miterlimit="10"/>
<path d="M825.375 29.8507L855.226 0" stroke="#2B546A" stroke-width="1.16038" stroke-miterlimit="10"/>
<path d="M832.755 29.8507L862.6 0" stroke="#88E7CE" stroke-width="1.16038" stroke-miterlimit="10"/>
<path d="M840.128 29.8507L869.979 0" stroke="#A0C3F7" stroke-width="1.16038" stroke-miterlimit="10"/>
<path d="M428 185.851L457.845 156" stroke="#2B546A" stroke-width="1.16038" stroke-miterlimit="10"/>
<path d="M435.375 185.851L465.226 156" stroke="#2B546A" stroke-width="1.16038" stroke-miterlimit="10"/>
<path d="M442.755 185.851L472.6 156" stroke="#88E7CE" stroke-width="1.16038" stroke-miterlimit="10"/>
<path d="M450.128 185.851L479.979 156" stroke="#A0C3F7" stroke-width="1.16038" stroke-miterlimit="10"/>
<path d="M-24 238.851L5.84494 209" stroke="#2B546A" stroke-width="1.16038" stroke-miterlimit="10"/>
<path d="M-16.625 238.851L13.2257 209" stroke="#2B546A" stroke-width="1.16038" stroke-miterlimit="10"/>
<path d="M-9.24512 238.851L20.5998 209" stroke="#88E7CE" stroke-width="1.16038" stroke-miterlimit="10"/>
<path d="M-1.87207 238.851L27.9787 209" stroke="#A0C3F7" stroke-width="1.16038" stroke-miterlimit="10"/>
<path d="M618.038 111.802H611V118.84H618.038V111.802Z" stroke="#88E7CE" stroke-width="1.16038" stroke-miterlimit="10"/>
<path d="M631.058 111.802H624.021V118.84H631.058V111.802Z" stroke="#88E7CE" stroke-width="1.16038" stroke-miterlimit="10"/>
<path d="M644.071 111.802H637.033V118.84H644.071V111.802Z" stroke="#88E7CE" stroke-width="1.16038" stroke-miterlimit="10"/>
<path d="M657.09 111.802H650.053V118.84H657.09V111.802Z" stroke="#88E7CE" stroke-width="1.16038" stroke-miterlimit="10"/>
<path d="M670.104 111.802H663.066V118.84H670.104V111.802Z" stroke="#88E7CE" stroke-width="1.16038" stroke-miterlimit="10"/>
<path d="M683.118 111.802H676.08V118.84H683.118V111.802Z" stroke="#88E7CE" stroke-width="1.16038" stroke-miterlimit="10"/>
<path d="M696.137 111.802H689.1V118.84H696.137V111.802Z" stroke="#88E7CE" stroke-width="1.16038" stroke-miterlimit="10"/>
<path d="M618.038 123.284H611V130.322H618.038V123.284Z" stroke="#88E7CE" stroke-width="1.16038" stroke-miterlimit="10"/>
<path d="M631.058 123.284H624.021V130.322H631.058V123.284Z" stroke="#88E7CE" stroke-width="1.16038" stroke-miterlimit="10"/>
<path d="M644.071 123.284H637.033V130.322H644.071V123.284Z" stroke="#88E7CE" stroke-width="1.16038" stroke-miterlimit="10"/>
<path d="M657.09 123.284H650.053V130.322H657.09V123.284Z" stroke="#88E7CE" stroke-width="1.16038" stroke-miterlimit="10"/>
<path d="M670.104 123.284H663.066V130.322H670.104V123.284Z" stroke="#88E7CE" stroke-width="1.16038" stroke-miterlimit="10"/>
<path d="M683.118 123.284H676.08V130.322H683.118V123.284Z" stroke="#88E7CE" stroke-width="1.16038" stroke-miterlimit="10"/>
<path d="M696.137 123.284H689.1V130.322H696.137V123.284Z" stroke="#88E7CE" stroke-width="1.16038" stroke-miterlimit="10"/>
<path d="M611 106H618.038" stroke="#88E7CE" stroke-width="1.16038" stroke-miterlimit="10" stroke-linecap="square"/>
<path d="M624.021 106H631.052" stroke="#88E7CE" stroke-width="1.16038" stroke-miterlimit="10" stroke-linecap="square"/>
<path d="M1319.04 406.802H1312V413.84H1319.04V406.802Z" stroke="#88E7CE" stroke-width="1.16038" stroke-miterlimit="10"/>
<path d="M1332.06 406.802H1325.02V413.84H1332.06V406.802Z" stroke="#88E7CE" stroke-width="1.16038" stroke-miterlimit="10"/>
<path d="M1345.07 406.802H1338.03V413.84H1345.07V406.802Z" stroke="#88E7CE" stroke-width="1.16038" stroke-miterlimit="10"/>
<path d="M1358.09 406.802H1351.05V413.84H1358.09V406.802Z" stroke="#88E7CE" stroke-width="1.16038" stroke-miterlimit="10"/>
<path d="M1371.1 406.802H1364.07V413.84H1371.1V406.802Z" stroke="#88E7CE" stroke-width="1.16038" stroke-miterlimit="10"/>
<path d="M1384.12 406.802H1377.08V413.84H1384.12V406.802Z" stroke="#88E7CE" stroke-width="1.16038" stroke-miterlimit="10"/>
<path d="M1397.14 406.802H1390.1V413.84H1397.14V406.802Z" stroke="#88E7CE" stroke-width="1.16038" stroke-miterlimit="10"/>
<path d="M1319.04 418.284H1312V425.322H1319.04V418.284Z" stroke="#88E7CE" stroke-width="1.16038" stroke-miterlimit="10"/>
<path d="M1332.06 418.284H1325.02V425.322H1332.06V418.284Z" stroke="#88E7CE" stroke-width="1.16038" stroke-miterlimit="10"/>
<path d="M1345.07 418.284H1338.03V425.322H1345.07V418.284Z" stroke="#88E7CE" stroke-width="1.16038" stroke-miterlimit="10"/>
<path d="M1358.09 418.284H1351.05V425.322H1358.09V418.284Z" stroke="#88E7CE" stroke-width="1.16038" stroke-miterlimit="10"/>
<path d="M1371.1 418.284H1364.07V425.322H1371.1V418.284Z" stroke="#88E7CE" stroke-width="1.16038" stroke-miterlimit="10"/>
<path d="M1384.12 418.284H1377.08V425.322H1384.12V418.284Z" stroke="#88E7CE" stroke-width="1.16038" stroke-miterlimit="10"/>
<path d="M1397.14 418.284H1390.1V425.322H1397.14V418.284Z" stroke="#88E7CE" stroke-width="1.16038" stroke-miterlimit="10"/>
<path d="M1312 401H1319.04" stroke="#88E7CE" stroke-width="1.16038" stroke-miterlimit="10" stroke-linecap="square"/>
<path d="M1325.02 401H1332.05" stroke="#88E7CE" stroke-width="1.16038" stroke-miterlimit="10" stroke-linecap="square"/>
<path d="M99.9315 433.932H67V466.863H99.9315V433.932Z" stroke="#2B546A" stroke-width="1.16038" stroke-miterlimit="10"/>
<path d="M116.397 417.466H83.4658V450.397H116.397V417.466Z" fill="#A0C3F7"/>
<path d="M1259.93 314.932H1227V347.863H1259.93V314.932Z" stroke="#2B546A" stroke-width="1.16038" stroke-miterlimit="10"/>
<path d="M1276.4 298.466H1243.47V331.397H1276.4V298.466Z" fill="#A0C3F7"/>
<path d="M1203.11 125.975C1200.71 121.429 1195.81 117.885 1190.27 116.681C1187.67 115.984 1184.86 116.068 1182.76 116.62C1180.91 114.173 1177.81 112.226 1177.34 112.937C1176.61 113.578 1176.47 118.278 1176.95 120.637C1175.82 121.728 1174.67 123.929 1174.31 126.34C1172.62 133.691 1177.38 137.755 1184.14 139.567C1191.16 141.449 1197.39 140.051 1199.27 133.029C1199.76 131.209 1200.06 129.059 1199.89 127.619C1201.66 127.257 1203.3 126.305 1203.11 125.975Z" fill="#F7DF41"/>
<path d="M1208.23 124.559C1205.45 119.353 1199.9 115.08 1193.33 113.598C1190.47 112.831 1187.14 112.775 1184.71 113.518C1182.67 110.741 1178.78 108.585 1178.32 109.296C1177.52 110.197 1177.16 115.677 1177.84 118.366C1176.64 119.717 1175.42 122.179 1174.72 124.779C1172.68 133.431 1178.16 137.964 1185.96 140.055C1194.02 142.215 1201.17 140.507 1203.59 132.514C1204.15 130.434 1204.52 128.023 1204.22 125.994C1206.51 125.771 1208.42 124.889 1208.23 124.559Z" stroke="#2B546A" stroke-width="1.16" stroke-miterlimit="10"/>
<path d="M284.115 293.975C281.709 289.428 276.805 285.885 271.274 284.681C268.674 283.984 265.864 284.068 263.765 284.62C261.912 282.173 258.81 280.226 258.341 280.937C257.611 281.578 257.467 286.278 257.95 288.637C256.821 289.728 255.674 291.929 255.307 294.34C253.616 301.691 258.38 305.755 265.142 307.567C272.164 309.449 278.392 308.051 280.273 301.029C280.761 299.209 281.058 297.059 280.887 295.619C282.656 295.257 284.305 294.305 284.115 293.975Z" fill="#88E7CE"/>
<path d="M289.232 292.559C286.446 287.353 280.901 283.08 274.33 281.598C271.469 280.831 268.139 280.775 265.71 281.518C263.667 278.741 259.785 276.585 259.315 277.296C258.517 278.197 258.163 283.677 258.836 286.366C257.638 287.717 256.421 290.179 255.724 292.779C253.685 301.431 259.16 305.964 266.962 308.055C275.024 310.215 282.171 308.507 284.592 300.514C285.149 298.434 285.516 296.023 285.224 293.994C287.513 293.771 289.422 292.889 289.232 292.559Z" stroke="#2B546A" stroke-width="1.16" stroke-miterlimit="10"/>
<path d="M1010.11 354.975C1007.71 350.428 1002.81 346.885 997.274 345.681C994.674 344.984 991.864 345.068 989.765 345.62C987.912 343.173 984.81 341.226 984.341 341.937C983.611 342.578 983.467 347.278 983.95 349.637C982.821 350.728 981.674 352.929 981.307 355.34C979.616 362.691 984.38 366.755 991.142 368.567C998.164 370.449 1004.39 369.051 1006.27 362.029C1006.76 360.209 1007.06 358.059 1006.89 356.619C1008.66 356.257 1010.3 355.305 1010.11 354.975Z" fill="#88E7CE"/>
<path d="M1015.23 353.559C1012.45 348.353 1006.9 344.08 1000.33 342.598C997.469 341.831 994.139 341.775 991.71 342.518C989.667 339.741 985.785 337.585 985.315 338.296C984.517 339.197 984.163 344.677 984.836 347.366C983.638 348.717 982.421 351.179 981.724 353.779C979.685 362.431 985.16 366.964 992.962 369.055C1001.02 371.215 1008.17 369.507 1010.59 361.514C1011.15 359.434 1011.52 357.023 1011.22 354.994C1013.51 354.771 1015.42 353.889 1015.23 353.559Z" stroke="#2B546A" stroke-width="1.16" stroke-miterlimit="10"/>
</g>
<defs>
<clipPath id="clip0">
<rect width="1440" height="460" fill="white"/>
</clipPath>
</defs>
</svg>
