<svg width="375" height="320" viewBox="0 0 375 320" fill="none" xmlns="http://www.w3.org/2000/svg">
<rect width="375" height="320" fill="#FAFAFA"/>
<path d="M37.9014 110.328V111.264H37.2774C36.7854 111.264 36.3294 111.24 35.9694 111.192V112.44C36.3174 112.404 36.6894 112.38 37.2774 112.38H37.9014V113.376H37.6134C37.1334 113.376 36.7974 113.364 36.4374 113.328V114.492C36.8094 114.444 37.2894 114.42 37.7454 114.42H39.8334C38.5974 115.5 37.5654 116.04 35.6574 116.604C35.9574 116.976 36.1614 117.324 36.3534 117.78C37.2534 117.456 37.8294 117.204 38.4294 116.856C39.2574 116.4 39.9654 115.86 40.6494 115.176C40.6254 115.572 40.6134 115.824 40.6134 115.932V116.784C40.6134 117.348 40.5894 117.624 40.5294 118.044H41.9934C41.9214 117.66 41.9094 117.36 41.9094 116.784V115.944C41.8974 115.632 41.8854 115.38 41.8734 115.176C42.5214 115.836 43.1334 116.304 43.8774 116.724C44.5734 117.108 45.4614 117.492 46.3374 117.768C46.5534 117.276 46.7454 116.892 47.0334 116.46C46.0974 116.28 45.3174 116.028 44.6094 115.68C43.8774 115.32 43.3614 114.984 42.6894 114.42H44.9934C45.4974 114.42 45.9294 114.444 46.3014 114.492V113.328C45.9294 113.364 45.6054 113.376 45.1134 113.376H44.7174V112.38H45.4134C46.0014 112.38 46.3614 112.404 46.7334 112.44V111.192C46.3494 111.24 45.9534 111.264 45.4134 111.264H44.7174V110.328H45.1134C45.5334 110.328 45.9654 110.352 46.3014 110.388V109.224C45.9174 109.272 45.5094 109.296 44.9814 109.296H41.9094V108.396C42.6894 108.324 43.3734 108.252 43.9374 108.18C45.1254 108 45.7374 107.916 45.7854 107.916L44.9934 106.764C44.3454 106.968 44.0694 107.028 43.0734 107.148C41.3694 107.364 39.0414 107.496 37.0014 107.496C36.8934 107.496 36.7854 107.496 36.6174 107.496C36.8334 107.88 36.9414 108.168 37.0614 108.612C38.2254 108.6 38.2254 108.6 40.6134 108.468V109.296H37.7454C37.2654 109.296 36.7974 109.272 36.4374 109.224V110.388C36.7974 110.34 37.1454 110.328 37.6134 110.328H37.9014ZM39.1494 110.328H40.6134V111.264H39.1494V110.328ZM39.1494 112.38H40.6134V113.376H39.1494V112.38ZM43.4694 113.376H41.9094V112.38H43.4694V113.376ZM43.4694 111.264H41.9094V110.328H43.4694V111.264ZM50.0934 107.112C50.0934 107.268 50.0814 107.316 50.0574 107.52L49.8774 109.008C49.7814 109.836 49.7094 111.168 49.7094 112.14C49.7094 112.38 49.7334 113.268 49.7454 113.616C49.7454 113.724 49.7454 113.796 49.7454 113.844C49.7454 113.868 49.7454 113.928 49.7334 114L51.1734 113.976C51.1734 113.868 51.1734 113.784 51.1734 113.724C51.1734 112.296 51.7494 110.82 52.6854 109.848C53.1054 109.416 53.5254 109.212 53.9814 109.212C55.0134 109.212 55.5894 110.172 55.5894 111.9C55.5894 113.724 54.9534 114.864 53.5614 115.572C52.8294 115.944 52.1334 116.124 50.9334 116.256C51.2694 116.724 51.4014 116.988 51.6414 117.672C52.5414 117.516 53.3814 117.276 53.9934 117C56.0094 116.112 57.0894 114.384 57.0894 112.068C57.0894 110.652 56.8254 109.68 56.2254 108.876C55.7094 108.18 54.9894 107.796 54.1734 107.796C53.2974 107.796 52.5534 108.204 51.8934 109.02C51.5694 109.44 51.2574 110.028 51.1374 110.448C51.0894 110.64 51.0894 110.64 51.0654 110.712H51.0294C51.0534 110.424 51.1014 110.016 51.1854 109.512C51.4134 107.916 51.4734 107.604 51.6174 107.196L50.0934 107.112ZM66.3654 108.66C66.4374 108.456 66.4854 108.324 66.5214 108.216C66.8094 107.376 66.8094 107.376 66.9054 107.124L65.5134 106.884C65.4654 107.376 65.2854 107.988 64.9854 108.732C64.7574 109.308 64.4814 109.824 64.1334 110.304V109.152C63.9294 109.2 63.7374 109.212 63.3534 109.212H63.0654V107.856C63.0654 107.46 63.0894 107.184 63.1374 106.872H61.7214C61.7814 107.208 61.8054 107.484 61.8054 107.856V109.212H61.3494C61.3854 108.768 61.3974 108.708 61.4454 107.988L60.2454 107.856C60.2694 108.072 60.2694 108.18 60.2694 108.36C60.2694 108.852 60.2094 109.452 60.1134 110.052C59.9694 110.844 59.8854 111.18 59.6574 111.72C60.1134 111.912 60.3534 112.044 60.7494 112.368C60.9894 111.552 61.0974 111.096 61.2054 110.424H61.8054V113.088C60.6534 113.448 60.3654 113.52 59.8134 113.556L60.0894 114.984C60.3294 114.876 60.4014 114.84 60.7254 114.732C60.9534 114.66 61.3134 114.54 61.8054 114.36V116.628C61.8054 117.156 61.7814 117.588 61.7214 118.008H63.1374C63.0894 117.552 63.0654 117.132 63.0654 116.628V113.904C63.4734 113.736 63.6414 113.664 64.2054 113.424L64.1934 112.224C63.6654 112.464 63.4854 112.524 63.0654 112.668V110.424H63.3534C63.6294 110.424 63.7854 110.424 64.0254 110.448C63.8574 110.64 63.7374 110.76 63.4494 111.024C63.8454 111.276 64.0734 111.48 64.4454 111.936C65.0334 111.324 65.4654 110.676 65.8734 109.824H66.4374C66.0894 111.06 65.6334 111.948 64.9014 112.824C64.4574 113.352 64.1454 113.628 63.4854 114.036C63.9294 114.384 64.1454 114.636 64.3734 115.08C66.0054 113.784 66.9894 112.176 67.5894 109.824H68.0814C67.8174 111.276 67.4814 112.344 66.9294 113.46C66.1974 114.9 65.2854 115.896 63.8094 116.868C64.3374 117.216 64.5414 117.42 64.8174 117.852C66.3774 116.616 67.2174 115.62 67.9374 114.168C68.5134 113.004 68.8854 111.792 69.2214 109.824H69.3654C69.3294 112.248 69.2214 114.204 69.0174 115.5C68.8854 116.352 68.7054 116.604 68.2254 116.604C67.8294 116.604 67.3494 116.544 66.7374 116.412C66.9534 116.868 67.0494 117.264 67.0494 117.768C67.6374 117.816 67.9374 117.84 68.2014 117.84C69.2574 117.84 69.7734 117.564 70.0494 116.844C70.3734 116.016 70.5294 114.204 70.6134 110.124C70.6374 108.984 70.6374 108.984 70.6854 108.612C70.4694 108.648 70.1934 108.66 69.6894 108.66H66.3654ZM81.0894 108.564C80.8134 108.66 80.6814 108.684 80.2134 108.684L77.5854 108.72C77.3574 108.72 77.1654 108.732 77.0094 108.744C77.1294 108.528 77.1294 108.528 77.2014 108.36C77.3214 108.12 77.3214 108.12 77.3574 108.048C77.4774 107.772 77.4774 107.772 77.5134 107.712C77.6454 107.448 77.6454 107.448 77.7174 107.34L76.0734 107.016C76.0254 107.448 75.8334 107.916 75.4614 108.6C74.5854 110.184 73.7214 111.144 72.3534 112.08C72.9774 112.464 73.1574 112.62 73.5174 113.112C74.6574 112.236 75.5934 111.204 76.3254 110.04L79.9374 109.98C79.2774 112.128 78.1494 113.772 76.4334 115.044C75.6774 115.608 75.0054 115.968 73.8054 116.46C74.3334 116.916 74.4894 117.12 74.8254 117.72C76.6734 116.868 77.9934 115.932 79.0974 114.672C80.1534 113.484 81.0054 111.864 81.5574 110.04C81.6894 109.608 81.7374 109.5 81.8574 109.32L81.0894 108.564ZM85.7814 109.044C86.1534 108.996 86.3814 108.984 87.1614 108.984H91.3974C92.1774 108.984 92.4054 108.996 92.7774 109.044V107.568C92.3814 107.64 92.1294 107.652 91.3734 107.652H87.1854C86.4294 107.652 86.1774 107.64 85.7814 107.568V109.044ZM93.3894 110.436C93.0174 110.52 92.7774 110.544 92.0334 110.544H86.3214C85.4814 110.544 85.2174 110.532 84.7614 110.46V111.924C85.1934 111.876 85.4934 111.864 86.2974 111.864H92.1414C91.6134 113.196 91.0974 113.928 90.2094 114.672C89.2854 115.44 88.3374 115.884 86.8734 116.256C87.4014 116.844 87.5454 117.048 87.8094 117.648C89.3214 117.084 90.1014 116.676 90.9534 116.016C92.2014 115.056 93.1134 113.724 93.7374 111.96C93.8814 111.588 93.9534 111.42 94.0734 111.204L93.3894 110.436ZM105.839 116.148C104.387 114.744 104.387 114.744 104.087 114.48C103.271 113.748 102.623 113.244 101.867 112.74C102.599 111.756 103.187 110.712 103.739 109.428C103.871 109.128 103.967 108.96 104.123 108.78L103.331 107.964C103.031 108.072 102.935 108.084 102.263 108.096L98.0386 108.156C97.8946 108.156 97.7986 108.156 97.7506 108.156C97.2586 108.156 97.0306 108.144 96.6946 108.084L96.7426 109.62C97.1506 109.56 97.4746 109.536 98.0506 109.524C101.831 109.464 101.831 109.464 102.023 109.452L101.891 109.764C101.111 111.636 99.6706 113.376 97.8586 114.648C96.9586 115.284 96.3826 115.608 95.4586 115.968C95.9506 116.484 96.0946 116.676 96.4306 117.3C98.2666 116.4 99.6466 115.344 101.003 113.832C102.311 114.828 103.691 116.172 104.687 117.396L105.839 116.148Z" fill="black"/>
<rect x="28" y="128" width="86" height="86" rx="2.86667" fill="#C6D2E5"/>
<rect x="32.7781" y="132.778" width="76.4445" height="76.4445" stroke="#ACBEDB"/>
<rect x="32.7781" y="132.778" width="76.4445" height="9.55556" stroke="#ACBEDB" stroke-width="0.5"/>
<rect x="32.7778" y="142.333" width="76.4445" height="9.55556" stroke="#ACBEDB" stroke-width="0.5"/>
<rect x="32.7778" y="151.889" width="76.4445" height="9.55556" stroke="#ACBEDB" stroke-width="0.5"/>
<rect x="32.7778" y="161.445" width="76.4445" height="9.55556" stroke="#ACBEDB" stroke-width="0.5"/>
<rect x="32.7778" y="171" width="76.4445" height="9.55556" stroke="#ACBEDB" stroke-width="0.5"/>
<rect x="32.7778" y="180.555" width="76.4445" height="9.55556" stroke="#ACBEDB" stroke-width="0.5"/>
<rect x="32.7778" y="190.111" width="76.4445" height="9.55556" stroke="#ACBEDB" stroke-width="0.5"/>
<rect x="99.6666" y="132.778" width="9.55556" height="76.4445" stroke="#ACBEDB" stroke-width="0.5"/>
<rect x="90.1112" y="132.778" width="9.55556" height="76.4445" stroke="#ACBEDB" stroke-width="0.5"/>
<rect x="80.5555" y="132.778" width="9.55556" height="76.4445" stroke="#ACBEDB" stroke-width="0.5"/>
<rect x="71.0002" y="132.778" width="9.55556" height="76.4445" stroke="#ACBEDB" stroke-width="0.5"/>
<rect x="61.4446" y="132.778" width="9.55556" height="76.4445" stroke="#ACBEDB" stroke-width="0.5"/>
<rect x="51.889" y="132.778" width="9.55556" height="76.4445" stroke="#ACBEDB" stroke-width="0.5"/>
<rect x="42.3334" y="132.778" width="9.55556" height="76.4445" stroke="#ACBEDB" stroke-width="0.5"/>
<circle cx="51.8892" cy="180.556" r="6" stroke="#003180" stroke-width="2.5"/>
<circle cx="90.1111" cy="180.556" r="6" stroke="#003180" stroke-width="2.5"/>
<path d="M96.1111 180.556H95.6111V181.056H96.1111V180.556ZM84.1111 180.556V181.056H84.6111V180.556H84.1111ZM57.8892 180.556L57.3892 180.556L57.3892 181.056H57.8892V180.556ZM45.8892 180.556V181.056H46.3891L46.3892 180.556L45.8892 180.556ZM40.4223 151.389C38.563 151.389 37.0557 152.896 37.0557 154.756H38.0557C38.0557 153.449 39.1153 152.389 40.4223 152.389V151.389ZM101.578 151.389H40.4223V152.389H101.578V151.389ZM104.945 154.756C104.945 152.896 103.437 151.389 101.578 151.389V152.389C102.885 152.389 103.945 153.449 103.945 154.756H104.945ZM104.945 177.689V154.756H103.945V177.689H104.945ZM101.578 181.056C103.437 181.056 104.945 179.548 104.945 177.689H103.945C103.945 178.996 102.885 180.056 101.578 180.056V181.056ZM96.1111 181.056H101.578V180.056H96.1111V181.056ZM90.1111 175.056C93.1487 175.056 95.6111 177.518 95.6111 180.556H96.6111C96.6111 176.966 93.7009 174.056 90.1111 174.056V175.056ZM84.6111 180.556C84.6111 177.518 87.0735 175.056 90.1111 175.056V174.056C86.5212 174.056 83.6111 176.966 83.6111 180.556H84.6111ZM57.8892 181.056H84.1111V180.056H57.8892V181.056ZM51.8892 175.056C54.9266 175.056 57.389 177.518 57.3892 180.556L58.3892 180.556C58.389 176.966 55.4789 174.056 51.8892 174.056V175.056ZM46.3892 180.556C46.3893 177.518 48.8517 175.056 51.8892 175.056V174.056C48.2994 174.056 45.3894 176.966 45.3892 180.556L46.3892 180.556ZM40.4223 181.056H45.8892V180.056H40.4223V181.056ZM37.0557 177.689C37.0557 179.548 38.563 181.056 40.4223 181.056V180.056C39.1153 180.056 38.0557 178.996 38.0557 177.689H37.0557ZM37.0557 154.756V177.689H38.0557V154.756H37.0557Z" fill="#003180"/>
<path d="M176.137 29.012H172.945C172.345 29.012 171.913 28.988 171.553 28.928V30.212C171.949 30.164 172.381 30.14 172.909 30.14H176.137V30.848H173.857C173.149 30.848 172.873 30.836 172.537 30.788C172.573 31.184 172.585 31.436 172.585 32.024V34.256C172.585 34.844 172.573 35.084 172.537 35.48C172.885 35.432 173.197 35.42 173.893 35.42H176.137V36.164H172.873C172.225 36.164 171.841 36.14 171.493 36.08V37.388C171.853 37.34 172.273 37.316 172.897 37.316H176.137V37.628C176.137 38.24 176.113 38.552 176.053 38.984H177.529C177.469 38.588 177.445 38.24 177.445 37.628V37.316H180.841C181.477 37.316 181.861 37.34 182.245 37.388V36.08C181.909 36.14 181.537 36.164 180.865 36.164H177.445V35.42H179.857C180.565 35.42 180.841 35.432 181.201 35.48C181.165 35.084 181.153 34.892 181.153 34.256V32.012C181.153 31.376 181.165 31.184 181.201 30.788C180.865 30.836 180.589 30.848 179.869 30.848H177.445V30.14H180.805C181.345 30.14 181.765 30.164 182.161 30.212V28.928C181.825 28.988 181.441 29.012 180.769 29.012H177.445V28.94C177.445 28.544 177.469 28.268 177.529 27.908H176.053C176.113 28.268 176.137 28.544 176.137 28.94V29.012ZM176.137 31.916V32.636H173.869V31.916H176.137ZM176.137 33.62V34.352H173.869V33.62H176.137ZM177.445 34.352V33.62H179.869V34.352H177.445ZM177.445 32.636V31.916H179.869V32.636H177.445ZM192.589 29.564C192.313 29.66 192.181 29.684 191.713 29.684L189.085 29.72C188.857 29.72 188.665 29.732 188.509 29.744C188.629 29.528 188.629 29.528 188.701 29.36C188.821 29.12 188.821 29.12 188.857 29.048C188.977 28.772 188.977 28.772 189.013 28.712C189.145 28.448 189.145 28.448 189.217 28.34L187.573 28.016C187.525 28.448 187.333 28.916 186.961 29.6C186.085 31.184 185.221 32.144 183.853 33.08C184.477 33.464 184.657 33.62 185.017 34.112C186.157 33.236 187.093 32.204 187.825 31.04L191.437 30.98C190.777 33.128 189.649 34.772 187.933 36.044C187.177 36.608 186.505 36.968 185.305 37.46C185.833 37.916 185.989 38.12 186.325 38.72C188.173 37.868 189.493 36.932 190.597 35.672C191.653 34.484 192.505 32.864 193.057 31.04C193.189 30.608 193.237 30.5 193.357 30.32L192.589 29.564ZM197.281 30.044C197.653 29.996 197.881 29.984 198.661 29.984H202.897C203.677 29.984 203.905 29.996 204.277 30.044V28.568C203.881 28.64 203.629 28.652 202.873 28.652H198.685C197.929 28.652 197.677 28.64 197.281 28.568V30.044ZM204.889 31.436C204.517 31.52 204.277 31.544 203.533 31.544H197.821C196.981 31.544 196.717 31.532 196.261 31.46V32.924C196.693 32.876 196.993 32.864 197.797 32.864H203.641C203.113 34.196 202.597 34.928 201.709 35.672C200.785 36.44 199.837 36.884 198.373 37.256C198.901 37.844 199.045 38.048 199.309 38.648C200.821 38.084 201.601 37.676 202.453 37.016C203.701 36.056 204.613 34.724 205.237 32.96C205.381 32.588 205.453 32.42 205.573 32.204L204.889 31.436ZM217.339 37.148C215.887 35.744 215.887 35.744 215.587 35.48C214.771 34.748 214.123 34.244 213.367 33.74C214.099 32.756 214.687 31.712 215.239 30.428C215.371 30.128 215.467 29.96 215.623 29.78L214.831 28.964C214.531 29.072 214.435 29.084 213.763 29.096L209.539 29.156C209.395 29.156 209.299 29.156 209.251 29.156C208.759 29.156 208.531 29.144 208.195 29.084L208.243 30.62C208.651 30.56 208.975 30.536 209.551 30.524C213.331 30.464 213.331 30.464 213.523 30.452L213.391 30.764C212.611 32.636 211.171 34.376 209.359 35.648C208.459 36.284 207.883 36.608 206.959 36.968C207.451 37.484 207.595 37.676 207.931 38.3C209.767 37.4 211.147 36.344 212.503 34.832C213.811 35.828 215.191 37.172 216.187 38.396L217.339 37.148Z" fill="black"/>
<path d="M274.81 29.012H271.618C271.018 29.012 270.586 28.988 270.226 28.928V30.212C270.622 30.164 271.054 30.14 271.582 30.14H274.81V30.848H272.53C271.822 30.848 271.546 30.836 271.21 30.788C271.246 31.184 271.258 31.436 271.258 32.024V34.256C271.258 34.844 271.246 35.084 271.21 35.48C271.558 35.432 271.87 35.42 272.566 35.42H274.81V36.164H271.546C270.898 36.164 270.514 36.14 270.166 36.08V37.388C270.526 37.34 270.946 37.316 271.57 37.316H274.81V37.628C274.81 38.24 274.786 38.552 274.726 38.984H276.202C276.142 38.588 276.118 38.24 276.118 37.628V37.316H279.514C280.15 37.316 280.534 37.34 280.918 37.388V36.08C280.582 36.14 280.21 36.164 279.538 36.164H276.118V35.42H278.53C279.238 35.42 279.514 35.432 279.874 35.48C279.838 35.084 279.826 34.892 279.826 34.256V32.012C279.826 31.376 279.838 31.184 279.874 30.788C279.538 30.836 279.262 30.848 278.542 30.848H276.118V30.14H279.478C280.018 30.14 280.438 30.164 280.834 30.212V28.928C280.498 28.988 280.114 29.012 279.442 29.012H276.118V28.94C276.118 28.544 276.142 28.268 276.202 27.908H274.726C274.786 28.268 274.81 28.544 274.81 28.94V29.012ZM274.81 31.916V32.636H272.542V31.916H274.81ZM274.81 33.62V34.352H272.542V33.62H274.81ZM276.118 34.352V33.62H278.542V34.352H276.118ZM276.118 32.636V31.916H278.542V32.636H276.118ZM288.43 33.68L288.466 37.268C288.466 37.352 288.466 37.412 288.466 37.484C288.466 37.976 288.442 38.3 288.394 38.636H290.026C289.99 38.3 289.966 37.844 289.954 37.256L289.894 31.688H291.13C291.874 31.688 292.15 31.7 292.51 31.736V30.284C292.09 30.356 291.898 30.368 291.094 30.368H289.882L289.858 29.396V29.324C289.858 28.832 289.87 28.616 289.906 28.304H288.322C288.37 28.76 288.37 28.76 288.382 29.408L288.394 30.368H284.242C283.39 30.368 283.186 30.368 282.73 30.284V31.748C283.162 31.7 283.306 31.7 284.206 31.688H287.494C287.098 32.324 286.498 33.068 285.886 33.668C284.686 34.832 283.534 35.624 282.106 36.272C282.634 36.74 282.814 36.956 283.102 37.52C284.014 37.004 284.41 36.752 284.878 36.416C285.706 35.816 286.582 35.048 287.242 34.328C287.842 33.668 288.214 33.164 288.466 32.648C288.454 32.84 288.43 33.452 288.43 33.512V33.68ZM303.466 30.092L303.946 29.9C303.622 29.108 303.346 28.616 302.878 28.004L302.002 28.328C302.314 28.748 302.542 29.108 302.746 29.54C302.518 29.564 302.314 29.576 301.882 29.576H296.374C295.558 29.576 295.27 29.564 294.838 29.492V31.052C295.234 30.992 295.462 30.98 296.35 30.98H302.062C301.294 34.172 299.122 36.404 295.798 37.436C296.338 37.964 296.542 38.24 296.854 38.864C300.586 37.316 302.746 34.856 303.682 31.076C303.754 30.824 303.79 30.716 303.886 30.536L303.466 30.092ZM305.482 29.324C305.206 28.616 304.918 28.136 304.426 27.5L303.562 27.824C303.97 28.364 304.306 28.976 304.594 29.684L305.482 29.324ZM307.606 29.792C308.482 30.068 309.838 30.776 310.81 31.436L311.578 30.116C310.714 29.576 309.514 29 308.386 28.568L307.606 29.792ZM306.658 32.708C307.762 33.116 309.118 33.848 309.91 34.46L310.654 33.104C309.754 32.516 308.578 31.916 307.462 31.472L306.658 32.708ZM313.786 28.748C314.314 29.324 314.65 29.804 315.046 30.536L315.886 30.092C315.478 29.348 315.154 28.892 314.626 28.328L313.786 28.748ZM307.342 38.492C307.57 38.42 307.666 38.396 308.182 38.288C312.478 37.448 315.01 35.48 316.498 31.844C315.946 31.472 315.718 31.28 315.25 30.776C314.386 33.332 312.586 35.3 310.39 36.068C309.118 36.56 307.858 36.836 306.922 36.848L307.342 38.492ZM317.314 29.312C316.942 28.628 316.606 28.172 316.066 27.62L315.262 28.04C315.73 28.556 316.126 29.12 316.486 29.78L317.314 29.312ZM323.814 33.068H325.53C326.118 33.068 326.298 33.08 326.622 33.116V31.76C326.286 31.82 326.022 31.844 325.518 31.844H320.802C320.322 31.844 320.034 31.82 319.71 31.76V33.14C320.118 33.08 320.37 33.068 320.814 33.068H322.422V36.932H320.07C319.518 36.932 319.302 36.92 318.966 36.86V38.204C319.302 38.168 319.542 38.156 320.082 38.156H326.262C326.79 38.156 327.03 38.168 327.378 38.204V36.86C327.042 36.92 326.826 36.932 326.262 36.932H323.814V33.068ZM338.898 29.564C338.622 29.66 338.49 29.684 338.022 29.684L335.394 29.72C335.166 29.72 334.974 29.732 334.818 29.744C334.938 29.528 334.938 29.528 335.01 29.36C335.13 29.12 335.13 29.12 335.166 29.048C335.286 28.772 335.286 28.772 335.322 28.712C335.454 28.448 335.454 28.448 335.526 28.34L333.882 28.016C333.834 28.448 333.642 28.916 333.27 29.6C332.394 31.184 331.53 32.144 330.162 33.08C330.786 33.464 330.966 33.62 331.326 34.112C332.466 33.236 333.402 32.204 334.134 31.04L337.746 30.98C337.086 33.128 335.958 34.772 334.242 36.044C333.486 36.608 332.814 36.968 331.614 37.46C332.142 37.916 332.298 38.12 332.634 38.72C334.482 37.868 335.802 36.932 336.906 35.672C337.962 34.484 338.814 32.864 339.366 31.04C339.498 30.608 339.546 30.5 339.666 30.32L338.898 29.564ZM345.99 38.54C345.954 38.144 345.942 37.832 345.942 37.208V34.04C345.942 33.704 345.93 33.56 345.894 33.224C345.99 33.284 346.026 33.296 346.302 33.428C348.306 34.352 349.554 35.036 350.55 35.72L351.39 34.304C349.47 33.224 347.586 32.348 345.942 31.772V29.54C345.942 28.796 345.942 28.64 345.99 28.28H344.346C344.394 28.604 344.418 28.916 344.418 29.504V37.196C344.418 37.832 344.406 38.156 344.346 38.54H345.99Z" fill="black"/>
<path d="M296.492 167.378C295.796 167.378 295.46 167.366 295.028 167.318C295.076 167.738 295.088 168.074 295.088 168.794V175.514C295.088 176.078 295.064 176.606 295.016 176.906H296.372V176.294H302.3V176.906H303.68C303.62 176.522 303.608 176.222 303.608 175.514V168.794C303.608 168.05 303.62 167.726 303.668 167.318C303.224 167.366 302.888 167.378 302.192 167.378H299.408C299.624 166.922 299.804 166.514 300.02 165.938L298.508 165.794C298.388 166.346 298.22 166.85 297.956 167.378H296.492ZM296.384 168.602H302.312V169.958H296.384V168.602ZM296.384 171.11H302.312V172.478H296.384V171.11ZM296.384 173.63H302.312V175.082H296.384V173.63ZM309.284 175.118H310.1C310.592 175.118 310.856 175.13 311.192 175.178V173.942C310.856 173.99 310.652 174.002 310.208 174.002H309.284V173.294H309.98C310.556 173.294 310.796 173.306 311.036 173.33C311.012 173.042 311 172.754 311 172.034V169.898C311 169.262 311.012 168.986 311.036 168.734C310.808 168.758 310.58 168.77 310.028 168.77H309.272V168.062H310.172C310.76 168.062 310.928 168.074 311.276 168.11V166.898C310.94 166.946 310.7 166.958 310.112 166.958H309.272V166.838C309.272 166.466 309.296 166.19 309.356 165.866H308.036C308.084 166.202 308.108 166.478 308.108 166.838V166.958H307.172C306.584 166.958 306.332 166.946 306.008 166.898V168.11C306.368 168.074 306.596 168.062 307.112 168.062H308.108V168.77H307.52C306.884 168.77 306.656 168.758 306.32 168.722C306.356 169.094 306.368 169.406 306.368 169.982V171.986C306.368 172.55 306.356 172.946 306.32 173.33C306.716 173.306 307.004 173.294 307.544 173.294H308.108V174.002H307.016C306.476 174.002 306.236 173.99 305.912 173.942V175.19C306.26 175.13 306.572 175.118 307.076 175.118H308.108V175.85C308.108 176.27 308.084 176.582 308.024 176.966H309.356C309.308 176.594 309.284 176.294 309.284 175.91V175.118ZM309.248 172.25V171.47H309.98V172.25H309.248ZM309.248 170.534V169.814H309.98V170.534H309.248ZM308.144 169.814V170.534H307.4V169.814H308.144ZM308.144 171.47V172.25H307.4V171.47H308.144ZM312.812 171.038C312.62 172.094 312.152 173.654 311.552 175.25C311.168 175.286 311.012 175.286 310.7 175.298L310.976 176.654C311.168 176.618 311.24 176.606 311.672 176.534C313.16 176.282 314.012 176.138 314.228 176.102C314.732 175.994 315.032 175.922 315.524 175.802C315.692 176.342 315.692 176.342 315.836 176.894L317.012 176.318C316.496 174.626 316.088 173.57 315.344 171.998L314.24 172.43C314.624 173.27 314.852 173.822 315.188 174.758C314.444 174.902 313.856 174.998 312.884 175.118C313.376 173.834 313.772 172.574 314.144 171.038H315.716C316.22 171.038 316.556 171.05 316.892 171.098V169.766C316.556 169.826 316.256 169.838 315.716 169.838H312.524C311.996 169.838 311.684 169.826 311.348 169.766V171.098C311.684 171.05 312.008 171.038 312.488 171.038H312.812ZM311.756 167.99C312.08 167.942 312.368 167.93 312.92 167.93H315.332C315.692 167.93 316.016 167.942 316.196 167.954C316.376 167.978 316.376 167.978 316.388 167.978C316.412 167.978 316.436 167.978 316.484 167.966V166.67C316.16 166.73 315.908 166.742 315.332 166.742H312.92C312.332 166.742 312.08 166.73 311.756 166.67V167.99ZM322.628 167.006H319.436C318.836 167.006 318.404 166.982 318.044 166.922V168.206C318.44 168.158 318.872 168.134 319.4 168.134H322.628V168.842H320.348C319.64 168.842 319.364 168.83 319.028 168.782C319.064 169.178 319.076 169.43 319.076 170.018V172.25C319.076 172.838 319.064 173.078 319.028 173.474C319.376 173.426 319.688 173.414 320.384 173.414H322.628V174.158H319.364C318.716 174.158 318.332 174.134 317.984 174.074V175.382C318.344 175.334 318.764 175.31 319.388 175.31H322.628V175.622C322.628 176.234 322.604 176.546 322.544 176.978H324.02C323.96 176.582 323.936 176.234 323.936 175.622V175.31H327.332C327.968 175.31 328.352 175.334 328.736 175.382V174.074C328.4 174.134 328.028 174.158 327.356 174.158H323.936V173.414H326.348C327.056 173.414 327.332 173.426 327.692 173.474C327.656 173.078 327.644 172.886 327.644 172.25V170.006C327.644 169.37 327.656 169.178 327.692 168.782C327.356 168.83 327.08 168.842 326.36 168.842H323.936V168.134H327.296C327.836 168.134 328.256 168.158 328.652 168.206V166.922C328.316 166.982 327.932 167.006 327.26 167.006H323.936V166.934C323.936 166.538 323.96 166.262 324.02 165.902H322.544C322.604 166.262 322.628 166.538 322.628 166.934V167.006ZM322.628 169.91V170.63H320.36V169.91H322.628ZM322.628 171.614V172.346H320.36V171.614H322.628ZM323.936 172.346V171.614H326.36V172.346H323.936ZM323.936 170.63V169.91H326.36V170.63H323.936ZM282.43 189.674L282.466 193.262C282.466 193.346 282.466 193.406 282.466 193.478C282.466 193.97 282.442 194.294 282.394 194.63H284.026C283.99 194.294 283.966 193.838 283.954 193.25L283.894 187.682H285.13C285.874 187.682 286.15 187.694 286.51 187.73V186.278C286.09 186.35 285.898 186.362 285.094 186.362H283.882L283.858 185.39V185.318C283.858 184.826 283.87 184.61 283.906 184.298H282.322C282.37 184.754 282.37 184.754 282.382 185.402L282.394 186.362H278.242C277.39 186.362 277.186 186.362 276.73 186.278V187.742C277.162 187.694 277.306 187.694 278.206 187.682H281.494C281.098 188.318 280.498 189.062 279.886 189.662C278.686 190.826 277.534 191.618 276.106 192.266C276.634 192.734 276.814 192.95 277.102 193.514C278.014 192.998 278.41 192.746 278.878 192.41C279.706 191.81 280.582 191.042 281.242 190.322C281.842 189.662 282.214 189.158 282.466 188.642C282.454 188.834 282.43 189.446 282.43 189.506V189.674ZM297.466 186.086L297.946 185.894C297.622 185.102 297.346 184.61 296.878 183.998L296.002 184.322C296.314 184.742 296.542 185.102 296.746 185.534C296.518 185.558 296.314 185.57 295.882 185.57H290.374C289.558 185.57 289.27 185.558 288.838 185.486V187.046C289.234 186.986 289.462 186.974 290.35 186.974H296.062C295.294 190.166 293.122 192.398 289.798 193.43C290.338 193.958 290.542 194.234 290.854 194.858C294.586 193.31 296.746 190.85 297.682 187.07C297.754 186.818 297.79 186.71 297.886 186.53L297.466 186.086ZM299.482 185.318C299.206 184.61 298.918 184.13 298.426 183.494L297.562 183.818C297.97 184.358 298.306 184.97 298.594 185.678L299.482 185.318ZM301.606 185.786C302.482 186.062 303.838 186.77 304.81 187.43L305.578 186.11C304.714 185.57 303.514 184.994 302.386 184.562L301.606 185.786ZM300.658 188.702C301.762 189.11 303.118 189.842 303.91 190.454L304.654 189.098C303.754 188.51 302.578 187.91 301.462 187.466L300.658 188.702ZM307.786 184.742C308.314 185.318 308.65 185.798 309.046 186.53L309.886 186.086C309.478 185.342 309.154 184.886 308.626 184.322L307.786 184.742ZM301.342 194.486C301.57 194.414 301.666 194.39 302.182 194.282C306.478 193.442 309.01 191.474 310.498 187.838C309.946 187.466 309.718 187.274 309.25 186.77C308.386 189.326 306.586 191.294 304.39 192.062C303.118 192.554 301.858 192.83 300.922 192.842L301.342 194.486ZM311.314 185.306C310.942 184.622 310.606 184.166 310.066 183.614L309.262 184.034C309.73 184.55 310.126 185.114 310.486 185.774L311.314 185.306ZM317.814 189.062H319.53C320.118 189.062 320.298 189.074 320.622 189.11V187.754C320.286 187.814 320.022 187.838 319.518 187.838H314.802C314.322 187.838 314.034 187.814 313.71 187.754V189.134C314.118 189.074 314.37 189.062 314.814 189.062H316.422V192.926H314.07C313.518 192.926 313.302 192.914 312.966 192.854V194.198C313.302 194.162 313.542 194.15 314.082 194.15H320.262C320.79 194.15 321.03 194.162 321.378 194.198V192.854C321.042 192.914 320.826 192.926 320.262 192.926H317.814V189.062ZM332.898 185.558C332.622 185.654 332.49 185.678 332.022 185.678L329.394 185.714C329.166 185.714 328.974 185.726 328.818 185.738C328.938 185.522 328.938 185.522 329.01 185.354C329.13 185.114 329.13 185.114 329.166 185.042C329.286 184.766 329.286 184.766 329.322 184.706C329.454 184.442 329.454 184.442 329.526 184.334L327.882 184.01C327.834 184.442 327.642 184.91 327.27 185.594C326.394 187.178 325.53 188.138 324.162 189.074C324.786 189.458 324.966 189.614 325.326 190.106C326.466 189.23 327.402 188.198 328.134 187.034L331.746 186.974C331.086 189.122 329.958 190.766 328.242 192.038C327.486 192.602 326.814 192.962 325.614 193.454C326.142 193.91 326.298 194.114 326.634 194.714C328.482 193.862 329.802 192.926 330.906 191.666C331.962 190.478 332.814 188.858 333.366 187.034C333.498 186.602 333.546 186.494 333.666 186.314L332.898 185.558ZM339.99 194.534C339.954 194.138 339.942 193.826 339.942 193.202V190.034C339.942 189.698 339.93 189.554 339.894 189.218C339.99 189.278 340.026 189.29 340.302 189.422C342.306 190.346 343.554 191.03 344.55 191.714L345.39 190.298C343.47 189.218 341.586 188.342 339.942 187.766V185.534C339.942 184.79 339.942 184.634 339.99 184.274H338.346C338.394 184.598 338.418 184.91 338.418 185.498V193.19C338.418 193.826 338.406 194.15 338.346 194.534H339.99Z" fill="black"/>
<path d="M161.501 186.378C160.805 186.378 160.469 186.366 160.037 186.318C160.085 186.738 160.097 187.074 160.097 187.794V194.514C160.097 195.078 160.073 195.606 160.025 195.906H161.381V195.294H167.309V195.906H168.689C168.629 195.522 168.617 195.222 168.617 194.514V187.794C168.617 187.05 168.629 186.726 168.677 186.318C168.233 186.366 167.897 186.378 167.201 186.378H164.417C164.633 185.922 164.813 185.514 165.029 184.938L163.517 184.794C163.397 185.346 163.229 185.85 162.965 186.378H161.501ZM161.393 187.602H167.321V188.958H161.393V187.602ZM161.393 190.11H167.321V191.478H161.393V190.11ZM161.393 192.63H167.321V194.082H161.393V192.63ZM174.293 194.118H175.109C175.601 194.118 175.865 194.13 176.201 194.178V192.942C175.865 192.99 175.661 193.002 175.217 193.002H174.293V192.294H174.989C175.565 192.294 175.805 192.306 176.045 192.33C176.021 192.042 176.009 191.754 176.009 191.034V188.898C176.009 188.262 176.021 187.986 176.045 187.734C175.817 187.758 175.589 187.77 175.037 187.77H174.281V187.062H175.181C175.769 187.062 175.937 187.074 176.285 187.11V185.898C175.949 185.946 175.709 185.958 175.121 185.958H174.281V185.838C174.281 185.466 174.305 185.19 174.365 184.866H173.045C173.093 185.202 173.117 185.478 173.117 185.838V185.958H172.181C171.593 185.958 171.341 185.946 171.017 185.898V187.11C171.377 187.074 171.605 187.062 172.121 187.062H173.117V187.77H172.529C171.893 187.77 171.665 187.758 171.329 187.722C171.365 188.094 171.377 188.406 171.377 188.982V190.986C171.377 191.55 171.365 191.946 171.329 192.33C171.725 192.306 172.013 192.294 172.553 192.294H173.117V193.002H172.025C171.485 193.002 171.245 192.99 170.921 192.942V194.19C171.269 194.13 171.581 194.118 172.085 194.118H173.117V194.85C173.117 195.27 173.093 195.582 173.033 195.966H174.365C174.317 195.594 174.293 195.294 174.293 194.91V194.118ZM174.257 191.25V190.47H174.989V191.25H174.257ZM174.257 189.534V188.814H174.989V189.534H174.257ZM173.153 188.814V189.534H172.409V188.814H173.153ZM173.153 190.47V191.25H172.409V190.47H173.153ZM177.821 190.038C177.629 191.094 177.161 192.654 176.561 194.25C176.177 194.286 176.021 194.286 175.709 194.298L175.985 195.654C176.177 195.618 176.249 195.606 176.681 195.534C178.169 195.282 179.021 195.138 179.237 195.102C179.741 194.994 180.041 194.922 180.533 194.802C180.701 195.342 180.701 195.342 180.845 195.894L182.021 195.318C181.505 193.626 181.097 192.57 180.353 190.998L179.249 191.43C179.633 192.27 179.861 192.822 180.197 193.758C179.453 193.902 178.865 193.998 177.893 194.118C178.385 192.834 178.781 191.574 179.153 190.038H180.725C181.229 190.038 181.565 190.05 181.901 190.098V188.766C181.565 188.826 181.265 188.838 180.725 188.838H177.533C177.005 188.838 176.693 188.826 176.357 188.766V190.098C176.693 190.05 177.017 190.038 177.497 190.038H177.821ZM176.765 186.99C177.089 186.942 177.377 186.93 177.929 186.93H180.341C180.701 186.93 181.025 186.942 181.205 186.954C181.385 186.978 181.385 186.978 181.397 186.978C181.421 186.978 181.445 186.978 181.493 186.966V185.67C181.169 185.73 180.917 185.742 180.341 185.742H177.929C177.341 185.742 177.089 185.73 176.765 185.67V186.99ZM187.637 186.006H184.445C183.845 186.006 183.413 185.982 183.053 185.922V187.206C183.449 187.158 183.881 187.134 184.409 187.134H187.637V187.842H185.357C184.649 187.842 184.373 187.83 184.037 187.782C184.073 188.178 184.085 188.43 184.085 189.018V191.25C184.085 191.838 184.073 192.078 184.037 192.474C184.385 192.426 184.697 192.414 185.393 192.414H187.637V193.158H184.373C183.725 193.158 183.341 193.134 182.993 193.074V194.382C183.353 194.334 183.773 194.31 184.397 194.31H187.637V194.622C187.637 195.234 187.613 195.546 187.553 195.978H189.029C188.969 195.582 188.945 195.234 188.945 194.622V194.31H192.341C192.977 194.31 193.361 194.334 193.745 194.382V193.074C193.409 193.134 193.037 193.158 192.365 193.158H188.945V192.414H191.357C192.065 192.414 192.341 192.426 192.701 192.474C192.665 192.078 192.653 191.886 192.653 191.25V189.006C192.653 188.37 192.665 188.178 192.701 187.782C192.365 187.83 192.089 187.842 191.369 187.842H188.945V187.134H192.305C192.845 187.134 193.265 187.158 193.661 187.206V185.922C193.325 185.982 192.941 186.006 192.269 186.006H188.945V185.934C188.945 185.538 188.969 185.262 189.029 184.902H187.553C187.613 185.262 187.637 185.538 187.637 185.934V186.006ZM187.637 188.91V189.63H185.369V188.91H187.637ZM187.637 190.614V191.346H185.369V190.614H187.637ZM188.945 191.346V190.614H191.369V191.346H188.945ZM188.945 189.63V188.91H191.369V189.63H188.945ZM204.089 186.558C203.813 186.654 203.681 186.678 203.213 186.678L200.585 186.714C200.357 186.714 200.165 186.726 200.009 186.738C200.129 186.522 200.129 186.522 200.201 186.354C200.321 186.114 200.321 186.114 200.357 186.042C200.477 185.766 200.477 185.766 200.513 185.706C200.645 185.442 200.645 185.442 200.717 185.334L199.073 185.01C199.025 185.442 198.833 185.91 198.461 186.594C197.585 188.178 196.721 189.138 195.353 190.074C195.977 190.458 196.157 190.614 196.517 191.106C197.657 190.23 198.593 189.198 199.325 188.034L202.937 187.974C202.277 190.122 201.149 191.766 199.433 193.038C198.677 193.602 198.005 193.962 196.805 194.454C197.333 194.91 197.489 195.114 197.825 195.714C199.673 194.862 200.993 193.926 202.097 192.666C203.153 191.478 204.005 189.858 204.557 188.034C204.689 187.602 204.737 187.494 204.857 187.314L204.089 186.558ZM208.781 187.038C209.153 186.99 209.381 186.978 210.161 186.978H214.397C215.177 186.978 215.405 186.99 215.777 187.038V185.562C215.381 185.634 215.129 185.646 214.373 185.646H210.185C209.429 185.646 209.177 185.634 208.781 185.562V187.038ZM216.389 188.43C216.017 188.514 215.777 188.538 215.033 188.538H209.321C208.481 188.538 208.217 188.526 207.761 188.454V189.918C208.193 189.87 208.493 189.858 209.297 189.858H215.141C214.613 191.19 214.097 191.922 213.209 192.666C212.285 193.434 211.337 193.878 209.873 194.25C210.401 194.838 210.545 195.042 210.809 195.642C212.321 195.078 213.101 194.67 213.953 194.01C215.201 193.05 216.113 191.718 216.737 189.954C216.881 189.582 216.953 189.414 217.073 189.198L216.389 188.43ZM228.839 194.142C227.387 192.738 227.387 192.738 227.087 192.474C226.271 191.742 225.623 191.238 224.867 190.734C225.599 189.75 226.187 188.706 226.739 187.422C226.871 187.122 226.967 186.954 227.123 186.774L226.331 185.958C226.031 186.066 225.935 186.078 225.263 186.09L221.039 186.15C220.895 186.15 220.799 186.15 220.751 186.15C220.259 186.15 220.031 186.138 219.695 186.078L219.743 187.614C220.151 187.554 220.475 187.53 221.051 187.518C224.831 187.458 224.831 187.458 225.023 187.446L224.891 187.758C224.111 189.63 222.671 191.37 220.859 192.642C219.959 193.278 219.383 193.602 218.459 193.962C218.951 194.478 219.095 194.67 219.431 195.294C221.267 194.394 222.647 193.338 224.003 191.826C225.311 192.822 226.691 194.166 227.687 195.39L228.839 194.142Z" fill="black"/>
<rect x="151.5" y="49" width="86" height="86" rx="2.86667" fill="#C6D2E5"/>
<rect x="156.278" y="53.7778" width="76.4445" height="76.4445" stroke="#ACBEDB"/>
<rect x="156.278" y="53.7778" width="76.4445" height="9.55556" stroke="#ACBEDB" stroke-width="0.5"/>
<rect x="156.278" y="63.3335" width="76.4445" height="9.55556" stroke="#ACBEDB" stroke-width="0.5"/>
<rect x="156.278" y="72.8887" width="76.4445" height="9.55556" stroke="#ACBEDB" stroke-width="0.5"/>
<rect x="156.278" y="82.4443" width="76.4445" height="9.55556" stroke="#ACBEDB" stroke-width="0.5"/>
<rect x="156.278" y="92" width="76.4445" height="9.55556" stroke="#ACBEDB" stroke-width="0.5"/>
<rect x="156.278" y="101.555" width="76.4445" height="9.55556" stroke="#ACBEDB" stroke-width="0.5"/>
<rect x="156.278" y="111.111" width="76.4445" height="9.55556" stroke="#ACBEDB" stroke-width="0.5"/>
<rect x="223.166" y="53.7778" width="9.55556" height="76.4445" stroke="#ACBEDB" stroke-width="0.5"/>
<rect x="213.611" y="53.7778" width="9.55556" height="76.4445" stroke="#ACBEDB" stroke-width="0.5"/>
<rect x="204.055" y="53.7778" width="9.55556" height="76.4445" stroke="#ACBEDB" stroke-width="0.5"/>
<rect x="194.5" y="53.7778" width="9.55556" height="76.4445" stroke="#ACBEDB" stroke-width="0.5"/>
<rect x="184.944" y="53.7778" width="9.55556" height="76.4445" stroke="#ACBEDB" stroke-width="0.5"/>
<rect x="175.389" y="53.7778" width="9.55556" height="76.4445" stroke="#ACBEDB" stroke-width="0.5"/>
<rect x="165.833" y="53.7778" width="9.55556" height="76.4445" stroke="#ACBEDB" stroke-width="0.5"/>
<path d="M163.564 95.357L163.169 95.0507L163.564 95.357ZM204.748 78.8663L204.748 79.3663H204.748V78.8663ZM177.254 90.9245L177.752 90.9702L177.254 90.9245ZM176.252 91.8799L176.254 92.3799L176.252 91.8799ZM219.656 91.8974L219.635 92.397L219.656 91.8974ZM218.662 90.9223L218.163 90.9577L218.662 90.9223ZM226.991 107.029L227.491 107.029L226.991 107.029ZM176.61 108.488H212.218V107.488H176.61V108.488ZM212.218 108.488H226.036V107.488H212.218V108.488ZM227.491 107.029C227.49 104.268 227.477 101.941 227.345 100.007C227.213 98.0776 226.961 96.4971 226.461 95.2419C225.954 93.9695 225.19 93.0263 224.054 92.3937C222.934 91.7708 221.495 91.4726 219.676 91.3978L219.635 92.397C221.383 92.4688 222.643 92.7533 223.567 93.2675C224.474 93.7719 225.097 94.5202 225.532 95.6119C225.974 96.721 226.217 98.1774 226.347 100.075C226.476 101.97 226.49 104.262 226.491 107.029L227.491 107.029ZM190.036 78.3663C186.72 78.3663 183.547 79.9144 181.14 82.2302C178.733 84.5456 177.051 87.667 176.756 90.8787L177.752 90.9702C178.021 88.0355 179.57 85.1279 181.833 82.9508C184.096 80.7742 187.031 79.3663 190.036 79.3663V78.3663ZM176.251 91.3799C173.092 91.39 170.48 91.4655 168.344 91.9503C166.186 92.4402 164.484 93.3543 163.169 95.0507L163.959 95.6633C165.1 94.1912 166.577 93.3769 168.566 92.9254C170.578 92.4688 173.082 92.39 176.254 92.3799L176.251 91.3799ZM163.169 95.0507C161.72 96.9188 161.081 99.1527 160.808 101.286C160.536 103.417 160.625 105.493 160.664 107.046L161.664 107.021C161.624 105.443 161.539 103.452 161.8 101.413C162.06 99.3771 162.66 97.3383 163.959 95.6633L163.169 95.0507ZM162.135 108.488H176.61V107.488H162.135V108.488ZM219.161 90.8869C218.621 83.2909 211.956 78.3663 204.748 78.3663V79.3663C211.54 79.3663 217.668 83.9873 218.163 90.9577L219.161 90.8869ZM204.748 78.3663C199.408 78.366 192.435 78.3663 190.036 78.3663V79.3663C192.436 79.3663 199.408 79.366 204.748 79.3663L204.748 78.3663ZM176.756 90.8787C176.729 91.1737 176.495 91.3792 176.251 91.3799L176.254 92.3799C177.065 92.3774 177.682 91.7263 177.752 90.9702L176.756 90.8787ZM219.676 91.3978C219.41 91.3869 219.181 91.1662 219.161 90.8869L218.163 90.9577C218.218 91.7312 218.847 92.3645 219.635 92.397L219.676 91.3978ZM160.664 107.046C160.684 107.839 161.33 108.488 162.135 108.488V107.488C161.884 107.488 161.67 107.283 161.664 107.021L160.664 107.046ZM226.036 108.488C226.842 108.488 227.492 107.831 227.491 107.029L226.491 107.029C226.491 107.283 226.285 107.488 226.036 107.488V108.488Z" fill="#003180"/>
<path d="M196.528 91.9997H181.196C181.031 91.9997 180.896 91.866 180.903 91.7005C181.096 87.5417 185.249 82.2427 190.202 82.2427C195.047 82.2427 194.501 82.2429 196.526 82.2429C196.692 82.2429 196.828 82.3772 196.828 82.5429V91.6996C196.828 91.8653 196.694 91.9997 196.528 91.9997Z" stroke="#003180"/>
<path d="M200.594 91.9997H214.925C215.091 91.9997 215.226 91.866 215.218 91.7005C215.025 87.5417 210.873 82.2427 205.92 82.2427C201.08 82.2427 202.53 82.2429 200.597 82.2429C200.431 82.2429 200.294 82.3772 200.294 82.5429V91.6996C200.294 91.8653 200.428 91.9997 200.594 91.9997Z" stroke="#003180"/>
<circle cx="170.584" cy="106.361" r="3.25" fill="#C6D2E5" stroke="#003180" stroke-width="3"/>
<circle cx="218.361" cy="106.361" r="3.25" fill="#C6D2E5" stroke="#003180" stroke-width="3"/>
<rect x="151.5" y="205.973" width="86" height="86" rx="2.86667" fill="#C6D2E5"/>
<rect x="156.278" y="210.75" width="76.4445" height="76.4445" stroke="#ACBEDB"/>
<rect x="156.278" y="210.75" width="76.4445" height="9.55556" stroke="#ACBEDB" stroke-width="0.5"/>
<rect x="156.278" y="220.306" width="76.4445" height="9.55556" stroke="#ACBEDB" stroke-width="0.5"/>
<rect x="156.278" y="229.862" width="76.4445" height="9.55556" stroke="#ACBEDB" stroke-width="0.5"/>
<rect x="156.278" y="239.417" width="76.4445" height="9.55556" stroke="#ACBEDB" stroke-width="0.5"/>
<rect x="156.278" y="248.973" width="76.4445" height="9.55556" stroke="#ACBEDB" stroke-width="0.5"/>
<rect x="156.278" y="258.528" width="76.4445" height="9.55556" stroke="#ACBEDB" stroke-width="0.5"/>
<rect x="156.278" y="268.084" width="76.4445" height="9.55556" stroke="#ACBEDB" stroke-width="0.5"/>
<rect x="223.167" y="210.75" width="9.55556" height="76.4445" stroke="#ACBEDB" stroke-width="0.5"/>
<rect x="213.611" y="210.75" width="9.55556" height="76.4445" stroke="#ACBEDB" stroke-width="0.5"/>
<rect x="204.055" y="210.75" width="9.55556" height="76.4445" stroke="#ACBEDB" stroke-width="0.5"/>
<rect x="194.5" y="210.75" width="9.55556" height="76.4445" stroke="#ACBEDB" stroke-width="0.5"/>
<rect x="184.944" y="210.75" width="9.55556" height="76.4445" stroke="#ACBEDB" stroke-width="0.5"/>
<rect x="175.389" y="210.75" width="9.55556" height="76.4445" stroke="#ACBEDB" stroke-width="0.5"/>
<rect x="165.833" y="210.75" width="9.55556" height="76.4445" stroke="#ACBEDB" stroke-width="0.5"/>
<path d="M193.808 229.862H185.89C185.482 229.862 185.119 230.12 184.987 230.506L175.31 258.612" stroke="#003180" stroke-linecap="round"/>
<path d="M194.626 258.528H213.195C213.927 258.528 214.387 257.74 214.028 257.103L204.291 239.829C204.122 239.528 203.804 239.342 203.459 239.342H183.207C182.437 239.342 181.983 240.207 182.42 240.841L194.626 258.528ZM194.626 258.528L206.086 234.639" stroke="#003180" stroke-linecap="round"/>
<circle cx="175.653" cy="258.528" r="9.55556" stroke="#003180" stroke-width="2" stroke-linecap="round"/>
<circle cx="213.875" cy="258.528" r="9.55556" stroke="#003180" stroke-width="2" stroke-linecap="round"/>
<rect x="204.556" y="233.514" width="8.55556" height="2" rx="1" fill="#003180" stroke="#003180"/>
<circle cx="292.775" cy="231.52" r="12.4216" fill="#BF73A6"/>
<circle cx="292.775" cy="231.521" r="10.7054" fill="#FFF2FB"/>
<circle cx="329.921" cy="231.52" r="12.4216" fill="#BF73A6"/>
<circle cx="329.921" cy="231.521" r="10.7054" fill="#FFF2FB"/>
<path fill-rule="evenodd" clip-rule="evenodd" d="M320.689 208.895C320.82 208.583 321.053 208.301 321.811 208.513C322.393 208.676 322.601 209.204 322.501 209.404L319.259 219.021C319.258 219.024 319.262 219.026 319.264 219.023C319.265 219.022 319.267 219.022 319.268 219.023L330.387 230.865C330.392 230.871 330.398 230.876 330.404 230.881C330.587 231.023 330.896 231.365 330.737 231.654C330.535 232.022 330.198 232.199 329.777 232.214C329.383 232.227 317.536 233.485 316.022 233.646C315.936 233.655 315.863 233.588 315.863 233.502V232.346C315.863 232.271 315.92 232.208 315.995 232.202L327.741 231.143C327.827 231.126 328.019 231.048 328.096 230.874C328.169 230.707 328.088 230.498 328.032 230.402C328.027 230.393 328.02 230.385 328.013 230.378L318.8 221.041C318.724 220.964 318.594 220.994 318.559 221.097L314.889 231.984C314.862 232.064 314.774 232.104 314.696 232.072L313.286 231.484C313.216 231.455 313.181 231.377 313.205 231.305L316.94 220.119C316.968 220.038 316.918 219.951 316.834 219.932L300.152 216.237C300.085 216.222 300.017 216.256 299.989 216.319C299.94 216.429 299.89 216.541 299.839 216.655C299.815 216.708 299.825 216.769 299.864 216.812L312.423 230.54C312.486 230.609 312.468 230.718 312.387 230.764L311.133 231.462C311.074 231.496 310.999 231.483 310.954 231.432L299.311 218.336C299.241 218.258 299.114 218.276 299.071 218.372C297.111 222.753 294.477 228.618 293.053 231.745C293.048 231.755 293.043 231.764 293.036 231.773C292.888 231.951 292.54 232.135 292.281 232.005C292.023 231.876 291.951 231.206 291.987 230.969C291.988 230.958 291.992 230.948 291.996 230.938L300.083 212.333L300.087 212.325C300.221 212.078 300.489 211.585 300.984 211.756C301.609 211.972 301.767 212.277 301.551 212.806C301.513 212.898 301.2 213.603 300.71 214.704C300.672 214.788 300.722 214.886 300.813 214.905L317.399 218.343C317.471 218.358 317.542 218.317 317.566 218.247L320.689 208.895Z" fill="#F29DD6"/>
<circle cx="313.256" cy="234.1" r="4.00558" fill="#F29DD6"/>
<path d="M319.381 207.012C317.822 207.107 315.27 206.857 315.273 207.716C315.276 208.576 316.732 208.547 317.754 208.629C318.776 208.71 320.91 209.082 321.82 209.302C322.729 209.521 323.951 210.231 325.718 209.302C327.758 208.228 328.414 206.916 326.846 206.371C325.277 205.827 320.939 206.916 319.381 207.012Z" fill="#BF73A6"/>
<path d="M301.764 212.158C301.985 211.423 300.829 211.202 300.198 211.076C297.802 210.597 293.94 209.618 292.742 212.46C291.844 214.591 293.008 216.695 295.28 217.065C295.873 217.161 296.372 217.013 296.506 216.657C296.658 216.256 296.512 215.691 296.044 215.656C294.285 215.526 293.292 213.524 295.101 212.46C296.671 211.536 298.79 212.736 300.419 212.789C300.745 212.799 301.543 212.894 301.764 212.158Z" fill="#BF73A6"/>
<circle cx="292.438" cy="231.521" r="1.12799" fill="#F29DD6"/>
<circle cx="329.547" cy="231.521" r="2.08217" fill="#F29DD6"/>
<path d="M266.034 68.6476L265.139 71.6576C265.086 71.8345 265.27 71.989 265.435 71.9064L271.371 68.9385C271.63 68.8089 271.63 68.4391 271.371 68.3096L265.439 65.3434C265.273 65.2606 265.089 65.4162 265.143 65.5934L266.034 68.5261C266.046 68.5657 266.046 68.6079 266.034 68.6476Z" fill="#ACBEDB"/>
<path d="M266.034 225.376L265.139 228.386C265.086 228.563 265.27 228.717 265.435 228.635L271.371 225.667C271.63 225.537 271.63 225.168 271.371 225.038L265.439 222.072C265.273 221.989 265.089 222.145 265.143 222.322L266.034 225.255C266.046 225.294 266.046 225.336 266.034 225.376Z" fill="#ACBEDB"/>
<path d="M142.534 92.0235L141.639 95.0336C141.586 95.2105 141.77 95.3649 141.935 95.2824L147.871 92.3144C148.13 92.1849 148.13 91.8151 147.871 91.6856L141.939 88.7194C141.773 88.6366 141.589 88.7922 141.643 88.9694L142.534 91.9021C142.546 91.9416 142.546 91.9839 142.534 92.0235Z" fill="#ACBEDB"/>
<path d="M142.534 249.024L141.639 252.034C141.586 252.211 141.77 252.365 141.935 252.282L147.871 249.314C148.13 249.185 148.13 248.815 147.871 248.686L141.939 245.719C141.773 245.637 141.589 245.792 141.643 245.969L142.534 248.902C142.546 248.942 142.546 248.984 142.534 249.024Z" fill="#ACBEDB"/>
<path d="M266.034 116.399L265.139 119.409C265.086 119.586 265.27 119.741 265.436 119.658L271.371 116.69C271.63 116.561 271.63 116.191 271.371 116.061L265.439 113.095C265.273 113.012 265.089 113.168 265.143 113.345L266.034 116.278C266.046 116.317 266.046 116.36 266.034 116.399Z" fill="#ACBEDB"/>
<path d="M266.034 272.885L265.139 275.895C265.086 276.072 265.27 276.227 265.436 276.144L271.371 273.176C271.63 273.047 271.63 272.677 271.371 272.547L265.439 269.581C265.273 269.498 265.089 269.654 265.143 269.831L266.034 272.764C266.046 272.803 266.046 272.846 266.034 272.885Z" fill="#ACBEDB"/>
<path d="M114 171H128.684V94.9315C128.684 93.3125 129.997 92 131.616 92H144" stroke="#ACBEDB" stroke-width="1.5"/>
<path d="M237.5 92.0956H252.184V71.5555C252.184 69.9365 253.497 68.624 255.116 68.624H267.5" stroke="#ACBEDB" stroke-width="1.5"/>
<path d="M237.5 248.639H252.184V228.098C252.184 226.479 253.497 225.167 255.116 225.167H267.5" stroke="#ACBEDB" stroke-width="1.5"/>
<path d="M114 171H128.684V246.04C128.684 247.659 129.997 248.972 131.616 248.972H144" stroke="#ACBEDB" stroke-width="1.5"/>
<path d="M237.5 92.0951H252.184V113.444C252.184 115.064 253.497 116.376 255.116 116.376H267.5" stroke="#ACBEDB" stroke-width="1.5"/>
<path d="M237.5 248.638H252.184V269.987C252.184 271.606 253.497 272.919 255.116 272.919H267.5" stroke="#ACBEDB" stroke-width="1.5"/>
<path d="M327.086 77.6437H297.561H285.95C283.524 77.5531 278.544 77.3719 278.039 77.3719C276.146 77.3719 276.146 75.675 276.146 75.675V71.4987C276.146 69.363 280.903 67.47 285.028 65.7226C289.154 63.9752 294.445 64.2179 296.338 63.9752C297.212 63.6354 301.677 61.5483 303.327 60.9172C304.978 60.2862 310.608 58.0535 315.074 58.0535C324.005 58.0535 328.762 60.1891 331.48 61.2085C334.198 62.2278 345.265 66.3536 346.042 66.839C346.818 67.3244 347.643 68.6349 347.692 69.2659C347.808 70.7708 347.83 71.6686 347.83 72.7726C347.83 73.8766 347.692 74.9891 347.225 75.5424C346.759 76.0958 338.775 76.7235 338.775 76.7235C336.872 77.0302 331.869 77.6437 327.086 77.6437Z" fill="#7DA6F7"/>
<circle cx="291.144" cy="73.223" r="5.79918" fill="#527ACC"/>
<circle cx="332.188" cy="73.223" r="5.79918" fill="#527ACC"/>
<path fill-rule="evenodd" clip-rule="evenodd" d="M320.719 65.8167H322.451C323.804 65.8167 328.904 64.9396 331.285 64.5011L331.059 63.223C329.124 62.5468 325.793 61.5437 322.335 60.8294C321.839 62.4013 321.142 64.5824 320.719 65.8167ZM319.562 60.331C317.485 60.0189 315.485 59.8725 313.843 60.0279C308.761 60.5091 304.634 64.0876 303.205 65.8167H317.533L319.562 60.331Z" fill="#E4EDFF"/>
<circle cx="291.144" cy="73.2236" r="3.8664" fill="#E4EDFF"/>
<circle cx="332.188" cy="73.2236" r="3.8664" fill="#E4EDFF"/>
<path d="M288.04 113.443C285.072 113.926 278.342 115.295 277.271 116.653C276.201 118.011 276.147 124.539 276.147 125.367C276.147 126.403 276.064 129.3 277.271 129.3H314.227C323.43 129.3 344.745 129.817 345.78 129.3C346.816 128.782 346.543 119.552 346.439 114.789C346.336 110.026 346.439 102.089 344.665 100.37C342.317 98.0939 334.493 98.4799 320.826 98.4799C307.158 98.4799 302.018 98.8434 298.912 99.7753C296.427 100.521 290.628 109.198 288.04 113.443Z" fill="#70E0BB"/>
<circle cx="284.846" cy="127.591" r="5.73011" fill="#31A07B"/>
<circle cx="338.186" cy="127.591" r="5.73011" fill="#31A07B"/>
<path d="M310.305 113.643L311.047 103.087C305.693 103.087 300.838 102.87 299.183 103.958C297.527 104.801 293.553 110.385 293.174 111.506C292.366 112.314 292.638 113.643 293.174 113.643L310.305 113.643Z" fill="#E7FFF7"/>
<path d="M313.435 113.623L314.02 103.139C322.599 103.119 337.856 103.139 339.073 103.139C340.801 103.14 340.801 105.524 340.801 108.233C340.801 110.941 340.801 113.623 339.073 113.623C338.375 113.693 321.613 113.766 313.435 113.623Z" fill="#E7FFF7"/>
<path d="M288.381 127.592C288.381 129.544 286.798 131.127 284.846 131.127C282.893 131.127 281.311 129.544 281.311 127.592C281.311 125.639 282.893 124.057 284.846 124.057C286.798 124.057 288.381 125.639 288.381 127.592Z" fill="#E7FFF7"/>
<circle cx="338.186" cy="127.592" r="3.53509" fill="#E7FFF7"/>
<circle cx="291.701" cy="280.99" r="11.774" fill="#D97D21"/>
<circle cx="330.994" cy="280.99" r="11.774" fill="#D97D21"/>
<circle cx="291.701" cy="280.989" r="10.1501" fill="#FFF2E6"/>
<circle cx="330.994" cy="280.989" r="10.1501" fill="#FFF2E6"/>
<path d="M299.853 262.235L318.052 274.08" stroke="#FFAC59" stroke-width="1.2594"/>
<path d="M297.915 266.812L315.629 282.587" stroke="#FFAC59" stroke-width="1.2594"/>
<path d="M321.336 266.327L331.575 280.58C331.969 281.128 331.587 281.893 330.913 281.909L315.791 282.264" stroke="#FFAC59" stroke-width="1.2594"/>
<path d="M323.085 259.865L315.644 282.611" stroke="#FFAC59" stroke-width="1.2594"/>
<path d="M301.548 257.281L291.454 281.296" stroke="#FFAC59" stroke-width="1.2594"/>
<circle r="1.29292" transform="matrix(1 0 0 -1 291.701 280.989)" fill="#FFAC59"/>
<circle cx="330.994" cy="280.989" r="2.43127" fill="#FFAC59"/>
<circle cx="315.621" cy="282.645" r="3.59966" fill="#FFAC59"/>
<path d="M318.335 259.309C318.684 259.32 320.028 259.483 321.471 259.846C322.913 260.209 323.591 261.156 325.374 261.156C326.387 261.156 327.418 260.961 328.356 260.575C328.564 260.49 328.915 260.215 328.924 259.474C328.935 258.547 327.5 258.493 327.009 258.482C326.518 258.471 323.553 258.474 322.417 258.279C321.28 258.085 320.131 257.698 319 257.718C317.87 257.738 317.528 258.132 317.386 258.317C317.245 258.503 317.005 259.004 317.223 259.19C317.441 259.375 317.986 259.298 318.335 259.309Z" fill="#D97D21"/>
<path d="M302.053 256.581C303.111 256.581 303.15 258.137 301.797 258.137C300.445 258.137 298.87 258.13 297.626 257.576C296.567 257.104 296.321 256.233 296.298 255.487C296.24 253.582 298.321 252.661 300.245 253.046C300.755 253.148 304.226 253.917 304.939 254.121C305.652 254.324 306.171 254.615 306.005 255.308C305.877 255.84 305.117 255.908 304.692 255.823C303.155 255.458 300.245 254.785 299.722 254.647C299.134 254.492 297.882 254.712 298.116 255.744C298.337 256.719 300.994 256.581 302.053 256.581Z" fill="#D97D21"/>
<path d="M297.948 259.989L287.567 257.209C287.317 257.142 287.067 257.314 287.041 257.572L286.329 264.524C286.308 264.727 286.438 264.916 286.635 264.971L295.026 267.29C295.23 267.346 295.444 267.242 295.526 267.047L298.227 260.555C298.324 260.321 298.193 260.054 297.948 259.989Z" fill="#FFAC59"/>
</svg>
