<svg width="375" height="217" viewBox="0 0 375 217" fill="none" xmlns="http://www.w3.org/2000/svg">
<rect width="375" height="216" transform="translate(0 0.543396)" fill="#FAFAFA"/>
<g clip-path="url(#clip0)">
<rect x="28" y="28.5434" width="319" height="158" rx="3" fill="#F9FBFE"/>
<rect x="28" y="28.5434" width="160" height="160" fill="#CAF8FC"/>
<rect x="188" y="28.5434" width="159" height="160" fill="#ADF0F7"/>
<rect x="56" y="61.5435" width="104" height="46.2222" rx="3" fill="white"/>
<path d="M82 81.3819C82 75.8208 88.7762 75.1747 90.7725 79.3957C90.8565 79.5733 91.1436 79.5732 91.2278 79.3958C93.2246 75.1873 100 75.9757 100 81.3819C100 85.3052 92.198 91.6945 91.1224 92.5567C91.0486 92.6159 90.9514 92.6159 90.8776 92.5567C89.802 91.6945 82 85.3052 82 81.3819Z" fill="#D9D9D9"/>
<path d="M116.57 85.5061L116.552 85.4881C116.372 85.5961 116.126 85.6801 115.814 85.7401C115.67 85.7641 115.52 85.7881 115.364 85.8121C115.22 85.8241 115.082 85.8301 114.95 85.8301C114.386 85.8301 113.864 85.7341 113.384 85.5421C112.904 85.3381 112.484 85.0621 112.124 84.7141C111.764 84.3541 111.482 83.9281 111.278 83.4361C111.074 82.9441 110.972 82.4101 110.972 81.8341C110.972 81.1981 111.08 80.6221 111.296 80.1061C111.524 79.5781 111.836 79.1281 112.232 78.7561C112.628 78.3841 113.096 78.0961 113.636 77.8921C114.176 77.6881 114.758 77.5861 115.382 77.5861C116.006 77.5861 116.588 77.6941 117.128 77.9101C117.668 78.1141 118.13 78.4021 118.514 78.7741C118.91 79.1461 119.216 79.5901 119.432 80.1061C119.66 80.6221 119.774 81.1801 119.774 81.7801C119.774 82.4761 119.66 83.1061 119.432 83.6701C119.204 84.2341 118.91 84.8101 118.55 85.3981L115.22 90.6541H113.15L116.57 85.5061ZM118.028 81.7621C118.028 81.3901 117.962 81.0421 117.83 80.7181C117.71 80.3821 117.53 80.0941 117.29 79.8541C117.062 79.6021 116.786 79.4041 116.462 79.2601C116.138 79.1161 115.778 79.0441 115.382 79.0441C114.986 79.0441 114.626 79.1161 114.302 79.2601C113.978 79.3921 113.696 79.5781 113.456 79.8181C113.228 80.0581 113.048 80.3461 112.916 80.6821C112.796 81.0181 112.736 81.3841 112.736 81.7801C112.736 82.1641 112.796 82.5181 112.916 82.8421C113.048 83.1661 113.228 83.4481 113.456 83.6881C113.684 83.9281 113.96 84.1141 114.284 84.2461C114.608 84.3781 114.968 84.4441 115.364 84.4441C115.76 84.4441 116.12 84.3781 116.444 84.2461C116.78 84.1141 117.062 83.9281 117.29 83.6881C117.53 83.4481 117.71 83.1661 117.83 82.8421C117.962 82.5181 118.028 82.1581 118.028 81.7621ZM128.175 85.5061L128.157 85.4881C127.977 85.5961 127.731 85.6801 127.419 85.7401C127.275 85.7641 127.125 85.7881 126.969 85.8121C126.825 85.8241 126.687 85.8301 126.555 85.8301C125.991 85.8301 125.469 85.7341 124.989 85.5421C124.509 85.3381 124.089 85.0621 123.729 84.7141C123.369 84.3541 123.087 83.9281 122.883 83.4361C122.679 82.9441 122.577 82.4101 122.577 81.8341C122.577 81.1981 122.685 80.6221 122.901 80.1061C123.129 79.5781 123.441 79.1281 123.837 78.7561C124.233 78.3841 124.701 78.0961 125.241 77.8921C125.781 77.6881 126.363 77.5861 126.987 77.5861C127.611 77.5861 128.193 77.6941 128.733 77.9101C129.273 78.1141 129.735 78.4021 130.119 78.7741C130.515 79.1461 130.821 79.5901 131.037 80.1061C131.265 80.6221 131.379 81.1801 131.379 81.7801C131.379 82.4761 131.265 83.1061 131.037 83.6701C130.809 84.2341 130.515 84.8101 130.155 85.3981L126.825 90.6541H124.755L128.175 85.5061ZM129.633 81.7621C129.633 81.3901 129.567 81.0421 129.435 80.7181C129.315 80.3821 129.135 80.0941 128.895 79.8541C128.667 79.6021 128.391 79.4041 128.067 79.2601C127.743 79.1161 127.383 79.0441 126.987 79.0441C126.591 79.0441 126.231 79.1161 125.907 79.2601C125.583 79.3921 125.301 79.5781 125.061 79.8181C124.833 80.0581 124.653 80.3461 124.521 80.6821C124.401 81.0181 124.341 81.3841 124.341 81.7801C124.341 82.1641 124.401 82.5181 124.521 82.8421C124.653 83.1661 124.833 83.4481 125.061 83.6881C125.289 83.9281 125.565 84.1141 125.889 84.2461C126.213 84.3781 126.573 84.4441 126.969 84.4441C127.365 84.4441 127.725 84.3781 128.049 84.2461C128.385 84.1141 128.667 83.9281 128.895 83.6881C129.135 83.4481 129.315 83.1661 129.435 82.8421C129.567 82.5181 129.633 82.1581 129.633 81.7621Z" fill="#9E9E9E"/>
<rect x="216" y="61.7656" width="103" height="45.7778" rx="3" fill="white"/>
<path d="M238 81.3819C238 75.8185 244.782 75.1741 246.775 79.401C246.858 79.577 247.142 79.5769 247.225 79.4011C249.219 75.1867 256 75.9734 256 81.3819C256 85.3065 248.193 91.6988 247.121 92.5576C247.048 92.6162 246.952 92.6162 246.879 92.5576C245.807 91.6988 238 85.3065 238 81.3819Z" fill="#FF7F8C"/>
<path d="M271.822 90.6541H270.076V80.0341L267.664 82.0501L266.638 80.8441L270.256 77.9101H271.822V90.6541ZM279.989 77.5861C280.745 77.5861 281.393 77.7601 281.933 78.1081C282.485 78.4561 282.935 78.9361 283.283 79.5481C283.643 80.1481 283.907 80.8561 284.075 81.6721C284.243 82.4881 284.327 83.3581 284.327 84.2821C284.327 85.2181 284.243 86.0941 284.075 86.9101C283.907 87.7141 283.643 88.4221 283.283 89.0341C282.935 89.6341 282.485 90.1081 281.933 90.4561C281.393 90.8041 280.745 90.9781 279.989 90.9781C279.233 90.9781 278.579 90.8041 278.027 90.4561C277.475 90.1081 277.019 89.6341 276.659 89.0341C276.311 88.4221 276.053 87.7141 275.885 86.9101C275.717 86.0941 275.633 85.2181 275.633 84.2821C275.633 83.3581 275.717 82.4881 275.885 81.6721C276.053 80.8561 276.311 80.1481 276.659 79.5481C277.019 78.9361 277.475 78.4561 278.027 78.1081C278.579 77.7601 279.233 77.5861 279.989 77.5861ZM279.989 79.0441C279.461 79.0441 279.029 79.2181 278.693 79.5661C278.357 79.9021 278.093 80.3341 277.901 80.8621C277.721 81.3781 277.595 81.9421 277.523 82.5541C277.451 83.1661 277.415 83.7421 277.415 84.2821C277.415 84.8221 277.451 85.3981 277.523 86.0101C277.595 86.6221 277.721 87.1861 277.901 87.7021C278.093 88.2181 278.357 88.6501 278.693 88.9981C279.029 89.3341 279.461 89.5021 279.989 89.5021C280.505 89.5021 280.925 89.3341 281.249 88.9981C281.585 88.6501 281.849 88.2181 282.041 87.7021C282.233 87.1861 282.365 86.6221 282.437 86.0101C282.509 85.3981 282.545 84.8221 282.545 84.2821C282.545 83.7421 282.509 83.1661 282.437 82.5541C282.365 81.9421 282.233 81.3781 282.041 80.8621C281.849 80.3341 281.585 79.9021 281.249 79.5661C280.925 79.2181 280.505 79.0441 279.989 79.0441ZM291.594 77.5861C292.35 77.5861 292.998 77.7601 293.538 78.1081C294.09 78.4561 294.54 78.9361 294.888 79.5481C295.248 80.1481 295.512 80.8561 295.68 81.6721C295.848 82.4881 295.932 83.3581 295.932 84.2821C295.932 85.2181 295.848 86.0941 295.68 86.9101C295.512 87.7141 295.248 88.4221 294.888 89.0341C294.54 89.6341 294.09 90.1081 293.538 90.4561C292.998 90.8041 292.35 90.9781 291.594 90.9781C290.838 90.9781 290.184 90.8041 289.632 90.4561C289.08 90.1081 288.624 89.6341 288.264 89.0341C287.916 88.4221 287.658 87.7141 287.49 86.9101C287.322 86.0941 287.238 85.2181 287.238 84.2821C287.238 83.3581 287.322 82.4881 287.49 81.6721C287.658 80.8561 287.916 80.1481 288.264 79.5481C288.624 78.9361 289.08 78.4561 289.632 78.1081C290.184 77.7601 290.838 77.5861 291.594 77.5861ZM291.594 79.0441C291.066 79.0441 290.634 79.2181 290.298 79.5661C289.962 79.9021 289.698 80.3341 289.506 80.8621C289.326 81.3781 289.2 81.9421 289.128 82.5541C289.056 83.1661 289.02 83.7421 289.02 84.2821C289.02 84.8221 289.056 85.3981 289.128 86.0101C289.2 86.6221 289.326 87.1861 289.506 87.7021C289.698 88.2181 289.962 88.6501 290.298 88.9981C290.634 89.3341 291.066 89.5021 291.594 89.5021C292.11 89.5021 292.53 89.3341 292.854 88.9981C293.19 88.6501 293.454 88.2181 293.646 87.7021C293.838 87.1861 293.97 86.6221 294.042 86.0101C294.114 85.3981 294.15 84.8221 294.15 84.2821C294.15 83.7421 294.114 83.1661 294.042 82.5541C293.97 81.9421 293.838 81.3781 293.646 80.8621C293.454 80.3341 293.19 79.9021 292.854 79.5661C292.53 79.2181 292.11 79.0441 291.594 79.0441Z" fill="#FF7F8C"/>
<g filter="url(#filter0_d)">
<path d="M97.5304 143.254C99.0453 145.548 100.827 148.246 101.893 149.864C102.993 151.536 104.444 153.04 106.464 154.124C108.482 155.207 111.039 155.854 114.328 155.854C119.82 155.854 122.893 153.722 124.568 151.201C126.22 148.716 126.464 145.926 126.464 144.65V134.71C126.464 133.168 125.213 131.916 123.671 131.916C122.128 131.916 120.877 133.168 120.877 134.71C120.877 134.858 120.76 134.975 120.612 134.975C120.464 134.975 120.348 134.858 120.348 134.71V133.181C120.348 131.638 119.096 130.387 117.554 130.387C116.012 130.387 114.76 131.638 114.76 133.181C114.76 133.323 114.638 133.446 114.496 133.446C114.354 133.446 114.231 133.323 114.231 133.181C114.231 131.638 112.98 130.387 111.437 130.387C109.895 130.387 108.644 131.638 108.644 133.181C108.644 133.323 108.521 133.446 108.379 133.446C108.237 133.446 108.115 133.323 108.115 133.181V120.948C108.115 119.405 106.863 118.154 105.321 118.154C103.778 118.154 102.527 119.405 102.527 120.948V138.53L100.345 135.543C99.2955 133.941 97.2176 133.348 95.6441 134.321L95.6441 134.321L95.6382 134.324C94.0725 135.323 93.7262 137.449 94.7634 139.066L94.7633 139.066L94.7671 139.071L95.1843 138.796C94.7671 139.071 94.7671 139.072 94.7672 139.072L94.7674 139.072L94.768 139.073L94.7708 139.077L94.7815 139.093L94.8237 139.157L94.9858 139.402L95.5807 140.303C96.0821 141.062 96.773 142.107 97.5304 143.254Z" fill="white" stroke="#666666"/>
</g>
<g filter="url(#filter1_d)">
<path d="M259.316 128.462C260.831 130.755 262.613 133.453 263.679 135.072C264.778 136.743 266.23 138.248 268.249 139.331C270.268 140.414 272.825 141.061 276.114 141.061C281.606 141.061 284.679 138.929 286.354 136.409C288.005 133.923 288.25 131.133 288.25 129.857V119.918C288.25 118.375 286.999 117.124 285.457 117.124C283.914 117.124 282.663 118.375 282.663 119.918C282.663 120.066 282.546 120.182 282.398 120.182C282.25 120.182 282.134 120.066 282.134 119.918V118.388C282.134 116.846 280.882 115.595 279.34 115.595C277.797 115.595 276.546 116.846 276.546 118.388C276.546 118.53 276.424 118.653 276.282 118.653C276.14 118.653 276.017 118.53 276.017 118.388C276.017 116.846 274.766 115.595 273.223 115.595C271.681 115.595 270.43 116.846 270.43 118.388C270.43 118.53 270.307 118.653 270.165 118.653C270.023 118.653 269.9 118.53 269.9 118.388V106.155C269.9 104.613 268.649 103.362 267.107 103.362C265.564 103.362 264.313 104.613 264.313 106.155V123.738L262.13 120.75C261.081 119.149 259.003 118.555 257.43 119.528L257.43 119.528L257.424 119.532C255.858 120.53 255.512 122.656 256.549 124.273L256.549 124.273L256.553 124.279L256.97 124.003C256.553 124.279 256.553 124.279 256.553 124.279L256.553 124.279L256.554 124.28L256.557 124.284L256.567 124.301L256.61 124.365L256.772 124.61L257.367 125.51C257.868 126.269 258.559 127.315 259.316 128.462Z" fill="white" stroke="#666666"/>
</g>
<path d="M257.568 105.142L260.026 105.142" stroke="#666666" stroke-linecap="round"/>
<path d="M273.547 105.009H276.005" stroke="#666666" stroke-linecap="round"/>
<path d="M271.447 101.388L273.186 99.6493" stroke="#666666" stroke-linecap="round"/>
<path d="M262.242 101.388L260.504 99.6495" stroke="#666666" stroke-linecap="round"/>
<path d="M267.142 99.4244L267.142 96.9661" stroke="#666666" stroke-linecap="round"/>
</g>
<defs>
<filter id="filter0_d" x="78.3806" y="105.421" width="63.8752" height="69.2825" filterUnits="userSpaceOnUse" color-interpolation-filters="sRGB">
<feFlood flood-opacity="0" result="BackgroundImageFix"/>
<feColorMatrix in="SourceAlpha" type="matrix" values="0 0 0 0 0 0 0 0 0 0 0 0 0 0 0 0 0 0 127 0"/>
<feOffset dy="3.0583"/>
<feGaussianBlur stdDeviation="7.64574"/>
<feColorMatrix type="matrix" values="0 0 0 0 0 0 0 0 0 0 0 0 0 0 0 0 0 0 0.04 0"/>
<feBlend mode="normal" in2="BackgroundImageFix" result="effect1_dropShadow"/>
<feBlend mode="normal" in="SourceGraphic" in2="effect1_dropShadow" result="shape"/>
</filter>
<filter id="filter1_d" x="240.167" y="90.6284" width="63.8752" height="69.2825" filterUnits="userSpaceOnUse" color-interpolation-filters="sRGB">
<feFlood flood-opacity="0" result="BackgroundImageFix"/>
<feColorMatrix in="SourceAlpha" type="matrix" values="0 0 0 0 0 0 0 0 0 0 0 0 0 0 0 0 0 0 127 0"/>
<feOffset dy="3.0583"/>
<feGaussianBlur stdDeviation="7.64574"/>
<feColorMatrix type="matrix" values="0 0 0 0 0 0 0 0 0 0 0 0 0 0 0 0 0 0 0.04 0"/>
<feBlend mode="normal" in2="BackgroundImageFix" result="effect1_dropShadow"/>
<feBlend mode="normal" in="SourceGraphic" in2="effect1_dropShadow" result="shape"/>
</filter>
<clipPath id="clip0">
<rect x="28" y="28.5434" width="319" height="158" rx="3" fill="white"/>
</clipPath>
</defs>
</svg>
