<svg width="375" height="286" viewBox="0 0 375 286" fill="none" xmlns="http://www.w3.org/2000/svg">
<rect width="375" height="286" fill="#FAFAFA"/>
<path d="M151.583 58.9355L286.944 98.8632" stroke="#BFBFBF" stroke-width="4"/>
<path d="M281.529 97.2641L278.516 102.918C278.387 103.158 278.62 103.431 278.878 103.343L289.028 99.8611C289.356 99.7485 289.473 99.3438 289.255 99.0738L282.512 90.7321C282.34 90.5198 281.998 90.6284 281.979 90.9008L281.563 97.143C281.561 97.1854 281.549 97.2266 281.529 97.2641Z" fill="#BFBFBF"/>
<path d="M165.249 88.9849L302.793 129.432" stroke="#FFA6A9" stroke-width="4"/>
<path d="M170.624 90.5746L173.679 84.9432C173.809 84.7038 173.578 84.4292 173.32 84.5156L163.144 87.9222C162.815 88.0324 162.696 88.4363 162.912 88.7078L169.593 97.0991C169.763 97.3127 170.106 97.2066 170.127 96.9344L170.589 90.6955C170.592 90.6531 170.604 90.6119 170.624 90.5746Z" fill="#FFA6A9"/>
<path d="M287.304 160.636L149.547 200.621" stroke="#BFBFBF" stroke-width="4"/>
<path d="M281.891 162.194L278.903 156.527C278.776 156.287 279.009 156.015 279.267 156.104L289.402 159.63C289.73 159.744 289.844 160.149 289.625 160.418L282.846 168.73C282.674 168.942 282.331 168.832 282.314 168.56L281.925 162.316C281.923 162.273 281.911 162.232 281.891 162.194Z" fill="#BFBFBF"/>
<path d="M302.869 181.875L165.92 221.811" stroke="#FAC57D" stroke-width="4"/>
<path d="M171.248 220.225L174.29 225.863C174.419 226.103 174.188 226.377 173.93 226.29L163.762 222.86C163.433 222.749 163.315 222.345 163.531 222.074L170.231 213.698C170.402 213.485 170.745 213.592 170.765 213.864L171.213 220.104C171.216 220.146 171.228 220.188 171.248 220.225Z" fill="#FAC57D"/>
<path d="M300.611 88.8445C301.007 88.3131 301.63 88 302.293 88H339.707C340.37 88 340.993 88.3131 341.389 88.8445L347 96.3834H295L300.611 88.8445Z" fill="#B3B2B2"/>
<path d="M295 96.3813H347V192.791C347 193.948 346.062 194.887 344.905 194.887H297.096C295.939 194.887 295 193.948 295 192.791V96.3813Z" fill="#CDCDCD"/>
<ellipse cx="321" cy="145.635" rx="5.2" ry="5.23965" fill="#B3B2B2"/>
<path d="M299.16 182.798C299.16 181.371 300.317 180.215 301.743 180.215H340.258C341.684 180.215 342.84 181.371 342.84 182.798V186.016C342.84 187.442 341.684 188.598 340.258 188.598H301.743C300.317 188.598 299.16 187.442 299.16 186.016V182.798Z" fill="#B3B2B2"/>
<path d="M299.16 130.403C299.16 128.976 300.317 127.82 301.743 127.82H340.258C341.684 127.82 342.84 128.976 342.84 130.403V133.62C342.84 135.047 341.684 136.203 340.258 136.203H301.743C300.317 136.203 299.16 135.047 299.16 133.62V130.403Z" fill="#B3B2B2"/>
<path d="M299.16 170.226C299.16 168.799 300.317 167.643 301.743 167.643H340.258C341.684 167.643 342.84 168.799 342.84 170.226V173.444C342.84 174.87 341.684 176.027 340.258 176.027H301.743C300.317 176.027 299.16 174.87 299.16 173.444V170.226Z" fill="#B3B2B2"/>
<path d="M299.16 117.828C299.16 116.401 300.317 115.245 301.743 115.245H340.258C341.684 115.245 342.84 116.401 342.84 117.828V121.046C342.84 122.472 341.684 123.629 340.258 123.629H301.743C300.317 123.629 299.16 122.472 299.16 121.046V117.828Z" fill="#B3B2B2"/>
<path d="M299.16 157.651C299.16 156.225 300.317 155.068 301.743 155.068H340.258C341.684 155.068 342.84 156.225 342.84 157.651V160.869C342.84 162.295 341.684 163.452 340.258 163.452H301.743C300.317 163.452 299.16 162.295 299.16 160.869V157.651Z" fill="#B3B2B2"/>
<path d="M299.16 105.254C299.16 103.828 300.317 102.671 301.743 102.671H340.258C341.684 102.671 342.84 103.828 342.84 105.254V108.472C342.84 109.898 341.684 111.055 340.258 111.055H301.743C300.317 111.055 299.16 109.898 299.16 108.472V105.254Z" fill="#B3B2B2"/>
<path d="M314.01 47.38H315.645L320.22 58H318.06L317.07 55.57H312.465L311.505 58H309.39L314.01 47.38ZM316.41 53.95L314.775 49.63L313.11 53.95H316.41ZM321.271 47.38H324.736C325.346 47.38 325.896 47.435 326.386 47.545C326.876 47.655 327.296 47.835 327.646 48.085C327.996 48.335 328.266 48.655 328.456 49.045C328.646 49.435 328.741 49.905 328.741 50.455C328.741 51.045 328.631 51.54 328.411 51.94C328.191 52.34 327.891 52.665 327.511 52.915C327.141 53.155 326.706 53.33 326.206 53.44C325.706 53.55 325.176 53.605 324.616 53.605H323.161V58H321.271V47.38ZM324.481 52.015C324.791 52.015 325.086 51.995 325.366 51.955C325.646 51.905 325.896 51.825 326.116 51.715C326.336 51.595 326.511 51.435 326.641 51.235C326.771 51.035 326.836 50.775 326.836 50.455C326.836 50.145 326.771 49.895 326.641 49.705C326.511 49.505 326.336 49.35 326.116 49.24C325.906 49.13 325.661 49.06 325.381 49.03C325.111 48.99 324.831 48.97 324.541 48.97H323.161V52.015H324.481ZM330.426 47.38H332.316V58H330.426V47.38ZM294.995 76.576L293.999 76.216L297.743 66.904L298.739 67.288L294.995 76.576ZM306.511 70.072C306.887 70.072 307.207 70.14 307.471 70.276C307.743 70.404 307.963 70.576 308.131 70.792C308.307 71.008 308.435 71.256 308.515 71.536C308.595 71.816 308.635 72.104 308.635 72.4V76H307.195V72.808C307.195 72.64 307.183 72.464 307.159 72.28C307.135 72.096 307.083 71.932 307.003 71.788C306.923 71.636 306.811 71.512 306.667 71.416C306.531 71.32 306.347 71.272 306.115 71.272C305.891 71.272 305.699 71.32 305.539 71.416C305.379 71.512 305.247 71.636 305.143 71.788C305.039 71.94 304.963 72.112 304.915 72.304C304.867 72.488 304.843 72.672 304.843 72.856V76H303.403V72.52C303.403 72.16 303.315 71.864 303.139 71.632C302.971 71.392 302.703 71.272 302.335 71.272C302.119 71.272 301.931 71.32 301.771 71.416C301.611 71.504 301.479 71.62 301.375 71.764C301.279 71.908 301.203 72.076 301.147 72.268C301.099 72.452 301.075 72.64 301.075 72.832V76H299.635V70.24H301.003V71.164H301.027C301.091 71.02 301.175 70.884 301.279 70.756C301.391 70.628 301.519 70.512 301.663 70.408C301.815 70.304 301.987 70.224 302.179 70.168C302.371 70.104 302.583 70.072 302.815 70.072C303.263 70.072 303.635 70.172 303.931 70.372C304.227 70.572 304.455 70.836 304.615 71.164C304.807 70.812 305.063 70.544 305.383 70.36C305.703 70.168 306.079 70.072 306.511 70.072ZM313.887 75.268H313.851C313.707 75.524 313.475 75.736 313.155 75.904C312.835 76.064 312.471 76.144 312.063 76.144C311.831 76.144 311.587 76.112 311.331 76.048C311.083 75.992 310.851 75.896 310.635 75.76C310.427 75.616 310.251 75.432 310.107 75.208C309.971 74.976 309.903 74.692 309.903 74.356C309.903 73.924 310.023 73.58 310.263 73.324C310.511 73.068 310.827 72.872 311.211 72.736C311.595 72.6 312.019 72.512 312.483 72.472C312.955 72.424 313.415 72.4 313.863 72.4V72.256C313.863 71.896 313.731 71.632 313.467 71.464C313.211 71.288 312.903 71.2 312.543 71.2C312.239 71.2 311.947 71.264 311.667 71.392C311.387 71.52 311.155 71.676 310.971 71.86L310.227 70.984C310.555 70.68 310.931 70.452 311.355 70.3C311.787 70.148 312.223 70.072 312.663 70.072C313.175 70.072 313.595 70.144 313.923 70.288C314.259 70.432 314.523 70.62 314.715 70.852C314.907 71.084 315.039 71.344 315.111 71.632C315.191 71.92 315.231 72.208 315.231 72.496V76H313.887V75.268ZM313.863 73.372H313.539C313.307 73.372 313.063 73.384 312.807 73.408C312.551 73.424 312.315 73.468 312.099 73.54C311.883 73.604 311.703 73.7 311.559 73.828C311.415 73.948 311.343 74.116 311.343 74.332C311.343 74.468 311.371 74.584 311.427 74.68C311.491 74.768 311.571 74.84 311.667 74.896C311.763 74.952 311.871 74.992 311.991 75.016C312.111 75.04 312.231 75.052 312.351 75.052C312.847 75.052 313.223 74.92 313.479 74.656C313.735 74.392 313.863 74.032 313.863 73.576V73.372ZM318.289 70.24V71.044H318.325C318.397 70.932 318.489 70.82 318.601 70.708C318.721 70.588 318.865 70.484 319.033 70.396C319.201 70.3 319.389 70.224 319.597 70.168C319.813 70.104 320.053 70.072 320.317 70.072C320.725 70.072 321.101 70.152 321.445 70.312C321.789 70.464 322.085 70.676 322.333 70.948C322.581 71.22 322.773 71.54 322.909 71.908C323.045 72.276 323.113 72.672 323.113 73.096C323.113 73.52 323.045 73.92 322.909 74.296C322.781 74.664 322.593 74.988 322.345 75.268C322.105 75.54 321.809 75.76 321.457 75.928C321.113 76.088 320.721 76.168 320.281 76.168C319.873 76.168 319.497 76.084 319.153 75.916C318.817 75.748 318.557 75.52 318.373 75.232H318.349V78.88H316.909V70.24H318.289ZM321.649 73.096C321.649 72.872 321.613 72.652 321.541 72.436C321.477 72.212 321.377 72.012 321.241 71.836C321.105 71.66 320.933 71.52 320.725 71.416C320.517 71.304 320.273 71.248 319.993 71.248C319.729 71.248 319.493 71.304 319.285 71.416C319.077 71.528 318.897 71.672 318.745 71.848C318.601 72.024 318.489 72.224 318.409 72.448C318.337 72.672 318.301 72.896 318.301 73.12C318.301 73.344 318.337 73.568 318.409 73.792C318.489 74.008 318.601 74.204 318.745 74.38C318.897 74.556 319.077 74.7 319.285 74.812C319.493 74.916 319.729 74.968 319.993 74.968C320.273 74.968 320.517 74.912 320.725 74.8C320.933 74.688 321.105 74.544 321.241 74.368C321.377 74.192 321.477 73.992 321.541 73.768C321.613 73.544 321.649 73.32 321.649 73.096ZM326.999 73.66H324.119V72.436H326.999V73.66ZM328.37 70.24H329.81V76H328.37V70.24ZM328.166 68.284C328.166 68.052 328.25 67.852 328.418 67.684C328.594 67.508 328.814 67.42 329.078 67.42C329.342 67.42 329.562 67.504 329.738 67.672C329.922 67.832 330.014 68.036 330.014 68.284C330.014 68.532 329.922 68.74 329.738 68.908C329.562 69.068 329.342 69.148 329.078 69.148C328.814 69.148 328.594 69.064 328.418 68.896C328.25 68.72 328.166 68.516 328.166 68.284ZM331.557 70.24H332.925V71.164H332.949C333.077 70.876 333.297 70.624 333.609 70.408C333.929 70.184 334.305 70.072 334.737 70.072C335.113 70.072 335.433 70.14 335.697 70.276C335.969 70.404 336.189 70.576 336.357 70.792C336.533 71.008 336.661 71.256 336.741 71.536C336.821 71.816 336.861 72.104 336.861 72.4V76H335.421V72.808C335.421 72.64 335.409 72.464 335.385 72.28C335.361 72.096 335.309 71.932 335.229 71.788C335.149 71.636 335.037 71.512 334.893 71.416C334.757 71.32 334.573 71.272 334.341 71.272C334.109 71.272 333.909 71.32 333.741 71.416C333.573 71.504 333.433 71.62 333.321 71.764C333.217 71.908 333.137 72.076 333.081 72.268C333.025 72.452 332.997 72.64 332.997 72.832V76H331.557V70.24ZM338.77 71.392H337.678V70.24H338.77V69.388C338.77 69.044 338.806 68.716 338.878 68.404C338.958 68.084 339.086 67.804 339.262 67.564C339.446 67.324 339.686 67.136 339.982 67C340.278 66.856 340.65 66.784 341.098 66.784C341.258 66.784 341.39 66.792 341.494 66.808C341.606 66.816 341.718 66.836 341.83 66.868L341.734 68.092C341.654 68.068 341.566 68.048 341.47 68.032C341.382 68.016 341.286 68.008 341.182 68.008C340.974 68.008 340.806 68.048 340.678 68.128C340.55 68.208 340.45 68.312 340.378 68.44C340.314 68.568 340.27 68.708 340.246 68.86C340.222 69.012 340.21 69.16 340.21 69.304V70.24H341.542V71.392H340.21V76H338.77V71.392ZM342.096 73.096C342.096 72.64 342.176 72.228 342.336 71.86C342.504 71.484 342.728 71.164 343.008 70.9C343.288 70.636 343.62 70.432 344.004 70.288C344.388 70.144 344.796 70.072 345.228 70.072C345.66 70.072 346.068 70.144 346.452 70.288C346.836 70.432 347.168 70.636 347.448 70.9C347.728 71.164 347.948 71.484 348.108 71.86C348.276 72.228 348.36 72.64 348.36 73.096C348.36 73.552 348.276 73.968 348.108 74.344C347.948 74.72 347.728 75.044 347.448 75.316C347.168 75.58 346.836 75.788 346.452 75.94C346.068 76.092 345.66 76.168 345.228 76.168C344.796 76.168 344.388 76.092 344.004 75.94C343.62 75.788 343.288 75.58 343.008 75.316C342.728 75.044 342.504 74.72 342.336 74.344C342.176 73.968 342.096 73.552 342.096 73.096ZM343.56 73.096C343.56 73.32 343.592 73.544 343.656 73.768C343.728 73.992 343.832 74.192 343.968 74.368C344.104 74.544 344.276 74.688 344.484 74.8C344.692 74.912 344.94 74.968 345.228 74.968C345.516 74.968 345.764 74.912 345.972 74.8C346.18 74.688 346.352 74.544 346.488 74.368C346.624 74.192 346.724 73.992 346.788 73.768C346.86 73.544 346.896 73.32 346.896 73.096C346.896 72.872 346.86 72.652 346.788 72.436C346.724 72.212 346.624 72.012 346.488 71.836C346.352 71.66 346.18 71.52 345.972 71.416C345.764 71.304 345.516 71.248 345.228 71.248C344.94 71.248 344.692 71.304 344.484 71.416C344.276 71.52 344.104 71.66 343.968 71.836C343.832 72.012 343.728 72.212 343.656 72.436C343.592 72.652 343.56 72.872 343.56 73.096Z" fill="black"/>
<path fill-rule="evenodd" clip-rule="evenodd" d="M214.127 187.77C213.228 187.77 212.5 188.498 212.5 189.396V220.604C212.5 221.503 213.228 222.231 214.127 222.231H238.873C239.772 222.231 240.5 221.503 240.5 220.604V198.138L229.803 187.77H214.127Z" fill="#F5A73D"/>
<path d="M229.811 187.769L240.5 198.129L231.438 198.129C230.539 198.129 229.811 197.401 229.811 196.502L229.811 187.769Z" fill="#EB890C"/>
<path d="M221.311 210H220.057V209.208H220.035C219.852 209.516 219.595 209.751 219.265 209.912C218.942 210.074 218.594 210.154 218.22 210.154C217.817 210.154 217.454 210.081 217.131 209.934C216.816 209.78 216.544 209.579 216.317 209.329C216.097 209.073 215.925 208.776 215.8 208.438C215.683 208.094 215.624 207.727 215.624 207.338C215.624 206.95 215.686 206.587 215.811 206.249C215.936 205.912 216.112 205.619 216.339 205.369C216.566 205.12 216.838 204.926 217.153 204.786C217.468 204.64 217.813 204.566 218.187 204.566C218.429 204.566 218.645 204.596 218.836 204.654C219.027 204.706 219.192 204.772 219.331 204.852C219.478 204.933 219.602 205.021 219.705 205.116C219.808 205.212 219.892 205.303 219.958 205.391H219.991V201.684H221.311V210ZM216.966 207.338C216.966 207.544 216.995 207.749 217.054 207.954C217.12 208.16 217.215 208.343 217.34 208.504C217.465 208.666 217.622 208.798 217.813 208.9C218.004 209.003 218.227 209.054 218.484 209.054C218.726 209.054 218.942 209.007 219.133 208.911C219.324 208.809 219.485 208.677 219.617 208.515C219.756 208.354 219.859 208.174 219.925 207.976C219.998 207.771 220.035 207.566 220.035 207.36C220.035 207.155 219.998 206.95 219.925 206.744C219.859 206.539 219.756 206.356 219.617 206.194C219.485 206.033 219.324 205.901 219.133 205.798C218.942 205.696 218.726 205.644 218.484 205.644C218.227 205.644 218.004 205.696 217.813 205.798C217.622 205.894 217.465 206.022 217.34 206.183C217.215 206.345 217.12 206.528 217.054 206.733C216.995 206.931 216.966 207.133 216.966 207.338ZM226.193 209.329H226.16C226.028 209.564 225.815 209.758 225.522 209.912C225.228 210.059 224.895 210.132 224.521 210.132C224.308 210.132 224.084 210.103 223.85 210.044C223.622 209.993 223.41 209.905 223.212 209.78C223.021 209.648 222.86 209.48 222.728 209.274C222.603 209.062 222.541 208.801 222.541 208.493C222.541 208.097 222.651 207.782 222.871 207.547C223.098 207.313 223.388 207.133 223.74 207.008C224.092 206.884 224.48 206.803 224.906 206.766C225.338 206.722 225.76 206.7 226.171 206.7V206.568C226.171 206.238 226.05 205.996 225.808 205.842C225.573 205.681 225.291 205.6 224.961 205.6C224.682 205.6 224.414 205.659 224.158 205.776C223.901 205.894 223.688 206.037 223.52 206.205L222.838 205.402C223.138 205.124 223.483 204.915 223.872 204.775C224.268 204.636 224.667 204.566 225.071 204.566C225.54 204.566 225.925 204.632 226.226 204.764C226.534 204.896 226.776 205.069 226.952 205.281C227.128 205.494 227.249 205.732 227.315 205.996C227.388 206.26 227.425 206.524 227.425 206.788V210H226.193V209.329ZM226.171 207.591H225.874C225.661 207.591 225.437 207.602 225.203 207.624C224.968 207.639 224.752 207.679 224.554 207.745C224.356 207.804 224.191 207.892 224.059 208.009C223.927 208.119 223.861 208.273 223.861 208.471C223.861 208.596 223.886 208.702 223.938 208.79C223.996 208.871 224.07 208.937 224.158 208.988C224.246 209.04 224.345 209.076 224.455 209.098C224.565 209.12 224.675 209.131 224.785 209.131C225.239 209.131 225.584 209.01 225.819 208.768C226.053 208.526 226.171 208.196 226.171 207.778V207.591ZM228.096 205.776V204.72H229.02V203.191H230.318V204.72H231.638V205.776H230.318V208.229C230.318 208.464 230.358 208.658 230.439 208.812C230.527 208.966 230.718 209.043 231.011 209.043C231.099 209.043 231.194 209.036 231.297 209.021C231.4 208.999 231.491 208.97 231.572 208.933L231.616 209.967C231.499 210.011 231.359 210.044 231.198 210.066C231.037 210.096 230.883 210.11 230.736 210.11C230.384 210.11 230.098 210.063 229.878 209.967C229.658 209.865 229.482 209.729 229.35 209.56C229.225 209.384 229.137 209.186 229.086 208.966C229.042 208.739 229.02 208.497 229.02 208.24V205.776H228.096ZM235.871 209.329H235.838C235.706 209.564 235.494 209.758 235.2 209.912C234.907 210.059 234.573 210.132 234.199 210.132C233.987 210.132 233.763 210.103 233.528 210.044C233.301 209.993 233.088 209.905 232.89 209.78C232.7 209.648 232.538 209.48 232.406 209.274C232.282 209.062 232.219 208.801 232.219 208.493C232.219 208.097 232.329 207.782 232.549 207.547C232.777 207.313 233.066 207.133 233.418 207.008C233.77 206.884 234.159 206.803 234.584 206.766C235.017 206.722 235.439 206.7 235.849 206.7V206.568C235.849 206.238 235.728 205.996 235.486 205.842C235.252 205.681 234.969 205.6 234.639 205.6C234.361 205.6 234.093 205.659 233.836 205.776C233.58 205.894 233.367 206.037 233.198 206.205L232.516 205.402C232.817 205.124 233.162 204.915 233.55 204.775C233.946 204.636 234.346 204.566 234.749 204.566C235.219 204.566 235.604 204.632 235.904 204.764C236.212 204.896 236.454 205.069 236.63 205.281C236.806 205.494 236.927 205.732 236.993 205.996C237.067 206.26 237.103 206.524 237.103 206.788V210H235.871V209.329ZM235.849 207.591H235.552C235.34 207.591 235.116 207.602 234.881 207.624C234.647 207.639 234.43 207.679 234.232 207.745C234.034 207.804 233.869 207.892 233.737 208.009C233.605 208.119 233.539 208.273 233.539 208.471C233.539 208.596 233.565 208.702 233.616 208.79C233.675 208.871 233.748 208.937 233.836 208.988C233.924 209.04 234.023 209.076 234.133 209.098C234.243 209.12 234.353 209.131 234.463 209.131C234.918 209.131 235.263 209.01 235.497 208.768C235.732 208.526 235.849 208.196 235.849 207.778V207.591Z" fill="white"/>
<path fill-rule="evenodd" clip-rule="evenodd" d="M214.127 90.7695C213.228 90.7695 212.5 91.4979 212.5 92.3963V123.604C212.5 124.503 213.228 125.231 214.127 125.231H238.873C239.772 125.231 240.5 124.503 240.5 123.604V101.138L229.803 90.7695H214.127Z" fill="#F77C81"/>
<path d="M229.811 90.7693L240.5 101.129L231.438 101.129C230.539 101.129 229.811 100.401 229.811 99.5021L229.811 90.7693Z" fill="#F0484F"/>
<path d="M221.311 113H220.057V112.208H220.035C219.852 112.516 219.595 112.751 219.265 112.912C218.942 113.074 218.594 113.154 218.22 113.154C217.817 113.154 217.454 113.081 217.131 112.934C216.816 112.78 216.544 112.579 216.317 112.329C216.097 112.073 215.925 111.776 215.8 111.438C215.683 111.094 215.624 110.727 215.624 110.338C215.624 109.95 215.686 109.587 215.811 109.249C215.936 108.912 216.112 108.619 216.339 108.369C216.566 108.12 216.838 107.926 217.153 107.786C217.468 107.64 217.813 107.566 218.187 107.566C218.429 107.566 218.645 107.596 218.836 107.654C219.027 107.706 219.192 107.772 219.331 107.852C219.478 107.933 219.602 108.021 219.705 108.116C219.808 108.212 219.892 108.303 219.958 108.391H219.991V104.684H221.311V113ZM216.966 110.338C216.966 110.544 216.995 110.749 217.054 110.954C217.12 111.16 217.215 111.343 217.34 111.504C217.465 111.666 217.622 111.798 217.813 111.9C218.004 112.003 218.227 112.054 218.484 112.054C218.726 112.054 218.942 112.007 219.133 111.911C219.324 111.809 219.485 111.677 219.617 111.515C219.756 111.354 219.859 111.174 219.925 110.976C219.998 110.771 220.035 110.566 220.035 110.36C220.035 110.155 219.998 109.95 219.925 109.744C219.859 109.539 219.756 109.356 219.617 109.194C219.485 109.033 219.324 108.901 219.133 108.798C218.942 108.696 218.726 108.644 218.484 108.644C218.227 108.644 218.004 108.696 217.813 108.798C217.622 108.894 217.465 109.022 217.34 109.183C217.215 109.345 217.12 109.528 217.054 109.733C216.995 109.931 216.966 110.133 216.966 110.338ZM226.193 112.329H226.16C226.028 112.564 225.815 112.758 225.522 112.912C225.228 113.059 224.895 113.132 224.521 113.132C224.308 113.132 224.084 113.103 223.85 113.044C223.622 112.993 223.41 112.905 223.212 112.78C223.021 112.648 222.86 112.48 222.728 112.274C222.603 112.062 222.541 111.801 222.541 111.493C222.541 111.097 222.651 110.782 222.871 110.547C223.098 110.313 223.388 110.133 223.74 110.008C224.092 109.884 224.48 109.803 224.906 109.766C225.338 109.722 225.76 109.7 226.171 109.7V109.568C226.171 109.238 226.05 108.996 225.808 108.842C225.573 108.681 225.291 108.6 224.961 108.6C224.682 108.6 224.414 108.659 224.158 108.776C223.901 108.894 223.688 109.037 223.52 109.205L222.838 108.402C223.138 108.124 223.483 107.915 223.872 107.775C224.268 107.636 224.667 107.566 225.071 107.566C225.54 107.566 225.925 107.632 226.226 107.764C226.534 107.896 226.776 108.069 226.952 108.281C227.128 108.494 227.249 108.732 227.315 108.996C227.388 109.26 227.425 109.524 227.425 109.788V113H226.193V112.329ZM226.171 110.591H225.874C225.661 110.591 225.437 110.602 225.203 110.624C224.968 110.639 224.752 110.679 224.554 110.745C224.356 110.804 224.191 110.892 224.059 111.009C223.927 111.119 223.861 111.273 223.861 111.471C223.861 111.596 223.886 111.702 223.938 111.79C223.996 111.871 224.07 111.937 224.158 111.988C224.246 112.04 224.345 112.076 224.455 112.098C224.565 112.12 224.675 112.131 224.785 112.131C225.239 112.131 225.584 112.01 225.819 111.768C226.053 111.526 226.171 111.196 226.171 110.778V110.591ZM228.096 108.776V107.72H229.02V106.191H230.318V107.72H231.638V108.776H230.318V111.229C230.318 111.464 230.358 111.658 230.439 111.812C230.527 111.966 230.718 112.043 231.011 112.043C231.099 112.043 231.194 112.036 231.297 112.021C231.4 111.999 231.491 111.97 231.572 111.933L231.616 112.967C231.499 113.011 231.359 113.044 231.198 113.066C231.037 113.096 230.883 113.11 230.736 113.11C230.384 113.11 230.098 113.063 229.878 112.967C229.658 112.865 229.482 112.729 229.35 112.56C229.225 112.384 229.137 112.186 229.086 111.966C229.042 111.739 229.02 111.497 229.02 111.24V108.776H228.096ZM235.871 112.329H235.838C235.706 112.564 235.494 112.758 235.2 112.912C234.907 113.059 234.573 113.132 234.199 113.132C233.987 113.132 233.763 113.103 233.528 113.044C233.301 112.993 233.088 112.905 232.89 112.78C232.7 112.648 232.538 112.48 232.406 112.274C232.282 112.062 232.219 111.801 232.219 111.493C232.219 111.097 232.329 110.782 232.549 110.547C232.777 110.313 233.066 110.133 233.418 110.008C233.77 109.884 234.159 109.803 234.584 109.766C235.017 109.722 235.439 109.7 235.849 109.7V109.568C235.849 109.238 235.728 108.996 235.486 108.842C235.252 108.681 234.969 108.6 234.639 108.6C234.361 108.6 234.093 108.659 233.836 108.776C233.58 108.894 233.367 109.037 233.198 109.205L232.516 108.402C232.817 108.124 233.162 107.915 233.55 107.775C233.946 107.636 234.346 107.566 234.749 107.566C235.219 107.566 235.604 107.632 235.904 107.764C236.212 107.896 236.454 108.069 236.63 108.281C236.806 108.494 236.927 108.732 236.993 108.996C237.067 109.26 237.103 109.524 237.103 109.788V113H235.871V112.329ZM235.849 110.591H235.552C235.34 110.591 235.116 110.602 234.881 110.624C234.647 110.639 234.43 110.679 234.232 110.745C234.034 110.804 233.869 110.892 233.737 111.009C233.605 111.119 233.539 111.273 233.539 111.471C233.539 111.596 233.565 111.702 233.616 111.79C233.675 111.871 233.748 111.937 233.836 111.988C233.924 112.04 234.023 112.076 234.133 112.098C234.243 112.12 234.353 112.131 234.463 112.131C234.918 112.131 235.263 112.01 235.497 111.768C235.732 111.526 235.849 111.196 235.849 110.778V110.591Z" fill="white"/>
<g clip-path="url(#clip0)">
<rect x="28" y="28" width="130" height="90" rx="3" fill="white"/>
<path d="M54.936 49.504H56.448V52.936H60.42V49.504H61.932V58H60.42V54.232H56.448V58H54.936V49.504ZM63.3991 55.096C63.3991 54.64 63.4791 54.228 63.6391 53.86C63.8071 53.484 64.0311 53.164 64.3111 52.9C64.5911 52.636 64.9231 52.432 65.3071 52.288C65.6911 52.144 66.0991 52.072 66.5311 52.072C66.9631 52.072 67.3711 52.144 67.7551 52.288C68.1391 52.432 68.4711 52.636 68.7511 52.9C69.0311 53.164 69.2511 53.484 69.4111 53.86C69.5791 54.228 69.6631 54.64 69.6631 55.096C69.6631 55.552 69.5791 55.968 69.4111 56.344C69.2511 56.72 69.0311 57.044 68.7511 57.316C68.4711 57.58 68.1391 57.788 67.7551 57.94C67.3711 58.092 66.9631 58.168 66.5311 58.168C66.0991 58.168 65.6911 58.092 65.3071 57.94C64.9231 57.788 64.5911 57.58 64.3111 57.316C64.0311 57.044 63.8071 56.72 63.6391 56.344C63.4791 55.968 63.3991 55.552 63.3991 55.096ZM64.8631 55.096C64.8631 55.32 64.8951 55.544 64.9591 55.768C65.0311 55.992 65.1351 56.192 65.2711 56.368C65.4071 56.544 65.5791 56.688 65.7871 56.8C65.9951 56.912 66.2431 56.968 66.5311 56.968C66.8191 56.968 67.0671 56.912 67.2751 56.8C67.4831 56.688 67.6551 56.544 67.7911 56.368C67.9271 56.192 68.0271 55.992 68.0911 55.768C68.1631 55.544 68.1991 55.32 68.1991 55.096C68.1991 54.872 68.1631 54.652 68.0911 54.436C68.0271 54.212 67.9271 54.012 67.7911 53.836C67.6551 53.66 67.4831 53.52 67.2751 53.416C67.0671 53.304 66.8191 53.248 66.5311 53.248C66.2431 53.248 65.9951 53.304 65.7871 53.416C65.5791 53.52 65.4071 53.66 65.2711 53.836C65.1351 54.012 65.0311 54.212 64.9591 54.436C64.8951 54.652 64.8631 54.872 64.8631 55.096ZM74.2153 53.776C74.0873 53.608 73.9113 53.464 73.6873 53.344C73.4633 53.216 73.2193 53.152 72.9553 53.152C72.7233 53.152 72.5113 53.2 72.3193 53.296C72.1273 53.392 72.0313 53.552 72.0313 53.776C72.0313 54 72.1353 54.16 72.3433 54.256C72.5593 54.344 72.8713 54.436 73.2793 54.532C73.4953 54.58 73.7113 54.644 73.9273 54.724C74.1513 54.804 74.3513 54.912 74.5273 55.048C74.7113 55.176 74.8593 55.34 74.9713 55.54C75.0833 55.732 75.1393 55.968 75.1393 56.248C75.1393 56.6 75.0713 56.9 74.9353 57.148C74.8073 57.388 74.6313 57.584 74.4073 57.736C74.1913 57.888 73.9353 57.996 73.6393 58.06C73.3513 58.132 73.0513 58.168 72.7393 58.168C72.2913 58.168 71.8553 58.088 71.4313 57.928C71.0073 57.76 70.6553 57.524 70.3753 57.22L71.3233 56.332C71.4833 56.54 71.6913 56.712 71.9473 56.848C72.2033 56.984 72.4873 57.052 72.7993 57.052C72.9033 57.052 73.0073 57.04 73.1113 57.016C73.2233 56.992 73.3233 56.956 73.4113 56.908C73.5073 56.852 73.5833 56.78 73.6393 56.692C73.6953 56.604 73.7233 56.496 73.7233 56.368C73.7233 56.128 73.6113 55.956 73.3873 55.852C73.1713 55.748 72.8433 55.644 72.4033 55.54C72.1873 55.492 71.9753 55.432 71.7673 55.36C71.5673 55.28 71.3873 55.18 71.2273 55.06C71.0673 54.932 70.9393 54.776 70.8433 54.592C70.7473 54.408 70.6993 54.18 70.6993 53.908C70.6993 53.588 70.7633 53.312 70.8913 53.08C71.0273 52.848 71.2033 52.66 71.4193 52.516C71.6353 52.364 71.8793 52.252 72.1513 52.18C72.4233 52.108 72.7033 52.072 72.9913 52.072C73.4073 52.072 73.8113 52.144 74.2033 52.288C74.6033 52.432 74.9193 52.652 75.1513 52.948L74.2153 53.776ZM77.7713 52.24V53.044H77.8073C77.8793 52.932 77.9713 52.82 78.0833 52.708C78.2033 52.588 78.3473 52.484 78.5153 52.396C78.6833 52.3 78.8713 52.224 79.0793 52.168C79.2953 52.104 79.5353 52.072 79.7993 52.072C80.2073 52.072 80.5833 52.152 80.9273 52.312C81.2713 52.464 81.5673 52.676 81.8153 52.948C82.0633 53.22 82.2553 53.54 82.3913 53.908C82.5273 54.276 82.5953 54.672 82.5953 55.096C82.5953 55.52 82.5273 55.92 82.3913 56.296C82.2633 56.664 82.0753 56.988 81.8273 57.268C81.5873 57.54 81.2913 57.76 80.9393 57.928C80.5953 58.088 80.2033 58.168 79.7633 58.168C79.3553 58.168 78.9793 58.084 78.6353 57.916C78.2993 57.748 78.0393 57.52 77.8553 57.232H77.8313V60.88H76.3913V52.24H77.7713ZM81.1313 55.096C81.1313 54.872 81.0953 54.652 81.0233 54.436C80.9593 54.212 80.8593 54.012 80.7233 53.836C80.5873 53.66 80.4153 53.52 80.2073 53.416C79.9993 53.304 79.7553 53.248 79.4753 53.248C79.2113 53.248 78.9753 53.304 78.7673 53.416C78.5593 53.528 78.3793 53.672 78.2273 53.848C78.0833 54.024 77.9713 54.224 77.8913 54.448C77.8193 54.672 77.7833 54.896 77.7833 55.12C77.7833 55.344 77.8193 55.568 77.8913 55.792C77.9713 56.008 78.0833 56.204 78.2273 56.38C78.3793 56.556 78.5593 56.7 78.7673 56.812C78.9753 56.916 79.2113 56.968 79.4753 56.968C79.7553 56.968 79.9993 56.912 80.2073 56.8C80.4153 56.688 80.5873 56.544 80.7233 56.368C80.8593 56.192 80.9593 55.992 81.0233 55.768C81.0953 55.544 81.1313 55.32 81.1313 55.096ZM84.0091 52.24H85.4491V58H84.0091V52.24ZM83.8051 50.284C83.8051 50.052 83.8891 49.852 84.0571 49.684C84.2331 49.508 84.4531 49.42 84.7171 49.42C84.9811 49.42 85.2011 49.504 85.3771 49.672C85.5611 49.832 85.6531 50.036 85.6531 50.284C85.6531 50.532 85.5611 50.74 85.3771 50.908C85.2011 51.068 84.9811 51.148 84.7171 51.148C84.4531 51.148 84.2331 51.064 84.0571 50.896C83.8891 50.72 83.8051 50.516 83.8051 50.284ZM86.368 53.392V52.24H87.376V50.572H88.792V52.24H90.232V53.392H88.792V56.068C88.792 56.324 88.836 56.536 88.924 56.704C89.02 56.872 89.228 56.956 89.548 56.956C89.644 56.956 89.748 56.948 89.86 56.932C89.972 56.908 90.072 56.876 90.16 56.836L90.208 57.964C90.08 58.012 89.928 58.048 89.752 58.072C89.576 58.104 89.408 58.12 89.248 58.12C88.864 58.12 88.552 58.068 88.312 57.964C88.072 57.852 87.88 57.704 87.736 57.52C87.6 57.328 87.504 57.112 87.448 56.872C87.4 56.624 87.376 56.36 87.376 56.08V53.392H86.368ZM94.8502 57.268H94.8142C94.6702 57.524 94.4382 57.736 94.1182 57.904C93.7982 58.064 93.4342 58.144 93.0262 58.144C92.7942 58.144 92.5502 58.112 92.2942 58.048C92.0462 57.992 91.8142 57.896 91.5982 57.76C91.3902 57.616 91.2142 57.432 91.0702 57.208C90.9342 56.976 90.8662 56.692 90.8662 56.356C90.8662 55.924 90.9862 55.58 91.2262 55.324C91.4742 55.068 91.7902 54.872 92.1742 54.736C92.5582 54.6 92.9822 54.512 93.4462 54.472C93.9182 54.424 94.3782 54.4 94.8262 54.4V54.256C94.8262 53.896 94.6942 53.632 94.4302 53.464C94.1742 53.288 93.8662 53.2 93.5062 53.2C93.2022 53.2 92.9102 53.264 92.6302 53.392C92.3502 53.52 92.1182 53.676 91.9342 53.86L91.1902 52.984C91.5182 52.68 91.8942 52.452 92.3182 52.3C92.7502 52.148 93.1862 52.072 93.6262 52.072C94.1382 52.072 94.5582 52.144 94.8862 52.288C95.2222 52.432 95.4862 52.62 95.6782 52.852C95.8702 53.084 96.0022 53.344 96.0742 53.632C96.1542 53.92 96.1942 54.208 96.1942 54.496V58H94.8502V57.268ZM94.8262 55.372H94.5022C94.2702 55.372 94.0262 55.384 93.7702 55.408C93.5142 55.424 93.2782 55.468 93.0622 55.54C92.8462 55.604 92.6662 55.7 92.5222 55.828C92.3782 55.948 92.3062 56.116 92.3062 56.332C92.3062 56.468 92.3342 56.584 92.3902 56.68C92.4542 56.768 92.5342 56.84 92.6302 56.896C92.7262 56.952 92.8342 56.992 92.9542 57.016C93.0742 57.04 93.1942 57.052 93.3142 57.052C93.8102 57.052 94.1862 56.92 94.4422 56.656C94.6982 56.392 94.8262 56.032 94.8262 55.576V55.372ZM97.8958 48.928H99.3358V58H97.8958V48.928Z" fill="#FF7F8C"/>
<g clip-path="url(#clip1)">
<rect width="108" height="60" transform="translate(147 128) rotate(-180)" fill="#DBDBDB"/>
<mask id="mask0" mask-type="alpha" maskUnits="userSpaceOnUse" x="39" y="68" width="108" height="60">
<rect x="147" y="128" width="108" height="60" transform="rotate(-180 147 128)" fill="white"/>
</mask>
<g mask="url(#mask0)">
<path d="M124.023 106.617L145.877 109.103C147.067 109.238 148.109 108.304 148.103 107.105L148.022 91.7596C148.021 91.4268 147.936 91.0998 147.776 90.8081L136.087 69.5008C135.597 68.6082 134.515 68.2259 133.573 68.6129L114.645 76.3916C113.671 76.7918 113.174 77.8786 113.509 78.877L122.353 105.265C122.6 106.002 123.251 106.529 124.023 106.617Z" fill="#F0F0F0"/>
<path d="M111.211 79.533L118.885 103.683C119.313 105.029 118.248 106.382 116.84 106.284L102.021 105.251C100.781 105.164 99.9194 103.979 100.219 102.773L105.9 79.9112C106.091 79.1426 106.718 78.559 107.498 78.4232L108.962 78.1683C109.948 77.9968 110.908 78.5797 111.211 79.533Z" fill="#F0F0F0"/>
<path d="M131.657 66.5042L110.22 75.0721C108.778 75.6483 107.258 74.4336 107.502 72.9003L109.64 59.482C109.759 58.7327 110.292 58.1155 111.016 57.8883L125.362 53.3868C126.282 53.0981 127.277 53.5069 127.728 54.3588L132.682 63.7108C133.239 64.7615 132.761 66.0629 131.657 66.5042Z" fill="#F0F0F0"/>
<path d="M130.873 53.5883L147.091 81.9655C147.175 82.1128 147.332 82.2034 147.502 82.2025C147.762 82.2012 147.971 81.9894 147.97 81.7295L147.817 52.5163C147.811 51.4118 146.911 50.5211 145.807 50.5268L132.599 50.596C131.068 50.604 130.114 52.259 130.873 53.5883Z" fill="#F0F0F0"/>
<path d="M127.835 111.432L146.463 114.373C147.431 114.526 148.146 115.358 148.151 116.338L148.159 117.778C148.163 118.612 147.65 119.361 146.87 119.658L130.305 125.967C129.144 126.409 127.865 125.697 127.629 124.478L125.56 113.788C125.296 112.426 126.465 111.216 127.835 111.432Z" fill="#F0F0F0"/>
<path d="M99.4386 123.463L121.594 126.46C122.95 126.643 124.085 125.441 123.825 124.097L121.595 112.58C121.417 111.661 120.625 110.988 119.689 110.961L100.769 110.422C99.7281 110.392 98.8387 111.166 98.7239 112.201L97.7188 121.261C97.5991 122.34 98.3625 123.318 99.4386 123.463Z" fill="#F0F0F0"/>
<path d="M98.5473 78.8768L103.385 53.1285C103.617 51.8933 102.666 50.7526 101.409 50.7592L85.9396 50.8402C84.5187 50.8476 83.5586 52.2928 84.1023 53.6055L94.7339 79.2728C95.4949 81.1102 98.18 80.8313 98.5473 78.8768Z" fill="#F0F0F0"/>
<path d="M95.5815 92.3797C91.2004 81.891 83.3425 63.0152 80.7951 56.6782C80.3553 55.5842 79.0702 55.0568 77.9925 55.5352L53.6314 66.3499C52.9319 66.6605 52.4709 67.3429 52.4441 68.1078L51.2612 101.824C51.2223 102.93 52.0901 103.858 53.1968 103.893L90.659 105.075C91.5631 105.104 92.3738 104.522 92.6362 103.657L95.6465 93.7222C95.7813 93.2776 95.7605 92.8085 95.5815 92.3797Z" fill="#F0F0F0"/>
<path d="M52.7895 62.3181L70.036 54.9383C71.972 54.1099 71.478 51.2376 69.3765 51.1036L48.2432 49.7563C46.7428 49.6606 45.6773 51.1925 46.2889 52.5659L50.1757 61.2931C50.6205 62.2917 51.7846 62.7482 52.7895 62.3181Z" fill="#F0F0F0"/>
<path d="M40.6127 67.1506L44.5615 65.4609C45.6202 65.0079 46.0786 63.7567 45.5632 62.727L42.2303 56.0682C41.3211 54.2518 38.5967 54.7905 38.4473 56.8163L37.8313 65.1647C37.721 66.66 39.2343 67.7404 40.6127 67.1506Z" fill="#F0F0F0"/>
<path d="M45.2271 70.1731L38.8627 72.5114C38.1058 72.7895 37.5899 73.4949 37.5543 74.3005L36.3666 101.2C36.3186 102.286 37.1465 103.211 38.2309 103.284L44.6641 103.715C45.7891 103.791 46.754 102.922 46.7965 101.795L47.9154 72.1258C47.969 70.7039 46.5627 69.6824 45.2271 70.1731Z" fill="#F0F0F0"/>
<path d="M46.5238 111.705L89.3493 121.955C90.5137 122.233 91.6605 121.434 91.801 120.244L92.7113 112.543C92.8479 111.387 91.9724 110.359 90.8094 110.31L46.9763 108.46C46.0374 108.42 45.256 109.173 45.2609 110.113C45.2649 110.871 45.7863 111.529 46.5238 111.705Z" fill="#F0F0F0"/>
<path d="M91.3701 128.037L91.0332 131.261C90.9272 132.275 90.0746 133.048 89.0545 133.053L39.1263 133.314C38.0444 133.32 37.1541 132.464 37.117 131.383L36.3831 109.984C36.3427 108.806 37.4097 107.897 38.566 108.125C39.4204 108.293 40.0379 109.04 40.0424 109.911L40.0617 113.596C40.0666 114.535 40.7241 115.344 41.6422 115.541L89.8004 125.873C90.7994 126.088 91.4762 127.021 91.3701 128.037Z" fill="#F0F0F0"/>
<path d="M96.9336 128.591L96.3325 130.24C95.8474 131.57 96.8611 132.97 98.2767 132.924L105.796 132.679C108.168 132.601 108.454 129.192 106.128 128.72L99.2104 127.316C98.2406 127.119 97.2726 127.661 96.9336 128.591Z" fill="#F0F0F0"/>
<path d="M146.932 124.056L135.959 128.566C135.259 128.853 134.804 129.537 134.808 130.293C134.813 131.283 135.593 132.094 136.581 132.139L147.626 132.64C148.769 132.692 149.723 131.776 149.717 130.632L149.692 125.896C149.684 124.477 148.244 123.517 146.932 124.056Z" fill="#F0F0F0"/>
<path d="M112.09 50.7033C111.196 50.708 110.437 51.359 110.297 52.2416C110.08 53.6015 111.39 54.7024 112.692 54.2554C114.647 53.5844 114.157 50.6925 112.09 50.7033Z" fill="#F0F0F0"/>
</g>
<circle cx="139.914" cy="104.713" r="2.5" fill="white" stroke="#FF7F8C"/>
<circle cx="112.057" cy="95" r="2.5" fill="white" stroke="#FF7F8C"/>
<circle cx="135.828" cy="77" r="2.5" fill="white" stroke="#FF7F8C"/>
<circle cx="75" cy="113.372" r="2.5" fill="#FF7F8C" stroke="#FF7F8C"/>
<path fill-rule="evenodd" clip-rule="evenodd" d="M73 105L74.8211 108.642C74.8948 108.79 75.1052 108.79 75.1789 108.642L77 105L73 105ZM45 73.0001C44.4477 73.0001 44 73.4478 44 74.0001L44 104C44 104.552 44.4477 105 45 105L104 105C104.552 105 105 104.552 105 104L105 74.0001C105 73.4478 104.552 73.0001 104 73.0001L45 73.0001Z" fill="#BFBFBF"/>
<rect x="48" y="77" width="10" height="10" fill="#F2F2F2"/>
<rect x="61" y="77" width="25" height="4" fill="#F2F2F2"/>
<rect x="61" y="84" width="14" height="3" fill="#F2F2F2"/>
<rect x="48" y="90" width="16" height="11" fill="#F2F2F2"/>
<rect x="67" y="90" width="16" height="11" fill="#F2F2F2"/>
<rect x="86" y="90" width="15" height="11" fill="#F2F2F2"/>
</g>
<rect x="47.0001" y="48" width="5.65685" height="11.3137" rx="2.82843" transform="rotate(45 47.0001 48)" fill="#FF7F8C"/>
<mask id="mask1" mask-type="alpha" maskUnits="userSpaceOnUse" x="43" y="48" width="9" height="8">
<rect x="47.0001" y="48" width="5.65685" height="5.65685" transform="rotate(45 47.0001 48)" fill="#C4C4C4"/>
</mask>
<g mask="url(#mask1)">
<rect x="47.0001" y="48" width="5.65685" height="11.3137" rx="2.82843" transform="rotate(45 47.0001 48)" fill="#D9D9D9"/>
</g>
<rect x="28.5" y="28.5" width="129" height="89" rx="2.5" stroke="#D9D9D9"/>
<g clip-path="url(#clip2)">
<path d="M28 28H158V40.2484H28V28Z" fill="#4E596D"/>
<circle cx="34.0108" cy="34.2373" r="1.35738" fill="#FFB24D"/>
<circle cx="38.2782" cy="34.2363" r="1.35738" fill="#FFD177"/>
<circle cx="42.5431" cy="34.2363" r="1.35738" fill="#ACFD76"/>
<path d="M47.7018 32.794C47.7454 32.4012 48.0775 32.104 48.4727 32.104H67.251C67.6463 32.104 67.9783 32.4012 68.0219 32.794L68.7209 39.0848H47.0028L47.7018 32.794Z" fill="#E8EBEF"/>
<rect x="49.3309" y="34.8213" width="13.9616" height="1.55129" rx="0.775647" fill="#D9D9D9"/>
<rect x="64.0688" y="34.8193" width="1.55129" height="1.55129" rx="0.775647" fill="#D9D9D9"/>
<path d="M69.93 33.6957C69.9051 33.4663 70.0848 33.2661 70.3155 33.2661H74.9541C75.1518 33.2661 75.3178 33.4148 75.3396 33.6112L75.7695 37.4894C75.7949 37.7191 75.6151 37.92 75.384 37.92H70.7357C70.5377 37.92 70.3715 37.7708 70.3502 37.5739L69.93 33.6957Z" fill="#E8EBEF"/>
<rect x="71.8251" y="35.3027" width="2.32694" height="0.581736" rx="0.290868" fill="#D1D5D9"/>
<rect x="73.2787" y="34.4307" width="2.32694" height="0.581736" rx="0.290868" transform="rotate(90 73.2787 34.4307)" fill="#D1D5D9"/>
</g>
</g>
<g clip-path="url(#clip3)">
<rect x="28" y="168" width="130" height="90" rx="3" fill="white"/>
<path d="M57.936 189.504H60.888C61.288 189.504 61.676 189.548 62.052 189.636C62.428 189.716 62.76 189.852 63.048 190.044C63.344 190.236 63.58 190.488 63.756 190.8C63.932 191.112 64.02 191.492 64.02 191.94C64.02 192.556 63.844 193.06 63.492 193.452C63.148 193.836 62.676 194.096 62.076 194.232L64.344 198H62.52L60.552 194.4H59.448V198H57.936V189.504ZM60.684 193.164C60.9 193.164 61.116 193.148 61.332 193.116C61.548 193.084 61.74 193.024 61.908 192.936C62.084 192.848 62.228 192.724 62.34 192.564C62.452 192.396 62.508 192.184 62.508 191.928C62.508 191.696 62.456 191.508 62.352 191.364C62.248 191.212 62.116 191.092 61.956 191.004C61.796 190.916 61.612 190.856 61.404 190.824C61.204 190.792 61.008 190.776 60.816 190.776H59.448V193.164H60.684ZM69.3263 194.544C69.3263 194.36 69.2983 194.184 69.2423 194.016C69.1943 193.848 69.1143 193.7 69.0023 193.572C68.8903 193.444 68.7463 193.344 68.5703 193.272C68.4023 193.192 68.2023 193.152 67.9703 193.152C67.5383 193.152 67.1703 193.284 66.8663 193.548C66.5703 193.804 66.4063 194.136 66.3743 194.544H69.3263ZM70.7663 195.192C70.7663 195.256 70.7663 195.32 70.7663 195.384C70.7663 195.448 70.7623 195.512 70.7543 195.576H66.3743C66.3903 195.784 66.4423 195.976 66.5303 196.152C66.6263 196.32 66.7503 196.468 66.9023 196.596C67.0543 196.716 67.2263 196.812 67.4183 196.884C67.6103 196.956 67.8103 196.992 68.0183 196.992C68.3783 196.992 68.6823 196.928 68.9303 196.8C69.1783 196.664 69.3823 196.48 69.5423 196.248L70.5023 197.016C69.9343 197.784 69.1103 198.168 68.0303 198.168C67.5823 198.168 67.1703 198.1 66.7943 197.964C66.4183 197.82 66.0903 197.62 65.8103 197.364C65.5383 197.108 65.3223 196.796 65.1623 196.428C65.0103 196.052 64.9343 195.628 64.9343 195.156C64.9343 194.692 65.0103 194.272 65.1623 193.896C65.3223 193.512 65.5383 193.188 65.8103 192.924C66.0823 192.652 66.4023 192.444 66.7703 192.3C67.1463 192.148 67.5503 192.072 67.9823 192.072C68.3823 192.072 68.7503 192.14 69.0863 192.276C69.4303 192.404 69.7263 192.6 69.9743 192.864C70.2223 193.12 70.4143 193.444 70.5503 193.836C70.6943 194.22 70.7663 194.672 70.7663 195.192ZM75.3169 193.776C75.1889 193.608 75.0129 193.464 74.7889 193.344C74.5649 193.216 74.3209 193.152 74.0569 193.152C73.8249 193.152 73.6129 193.2 73.4209 193.296C73.2289 193.392 73.1329 193.552 73.1329 193.776C73.1329 194 73.2369 194.16 73.4449 194.256C73.6609 194.344 73.9729 194.436 74.3809 194.532C74.5969 194.58 74.8129 194.644 75.0289 194.724C75.2529 194.804 75.4529 194.912 75.6289 195.048C75.8129 195.176 75.9609 195.34 76.0729 195.54C76.1849 195.732 76.2409 195.968 76.2409 196.248C76.2409 196.6 76.1729 196.9 76.0369 197.148C75.9089 197.388 75.7329 197.584 75.5089 197.736C75.2929 197.888 75.0369 197.996 74.7409 198.06C74.4529 198.132 74.1529 198.168 73.8409 198.168C73.3929 198.168 72.9569 198.088 72.5329 197.928C72.1089 197.76 71.7569 197.524 71.4769 197.22L72.4249 196.332C72.5849 196.54 72.7929 196.712 73.0489 196.848C73.3049 196.984 73.5889 197.052 73.9009 197.052C74.0049 197.052 74.1089 197.04 74.2129 197.016C74.3249 196.992 74.4249 196.956 74.5129 196.908C74.6089 196.852 74.6849 196.78 74.7409 196.692C74.7969 196.604 74.8249 196.496 74.8249 196.368C74.8249 196.128 74.7129 195.956 74.4889 195.852C74.2729 195.748 73.9449 195.644 73.5049 195.54C73.2889 195.492 73.0769 195.432 72.8689 195.36C72.6689 195.28 72.4889 195.18 72.3289 195.06C72.1689 194.932 72.0409 194.776 71.9449 194.592C71.8489 194.408 71.8009 194.18 71.8009 193.908C71.8009 193.588 71.8649 193.312 71.9929 193.08C72.1289 192.848 72.3049 192.66 72.5209 192.516C72.7369 192.364 72.9809 192.252 73.2529 192.18C73.5249 192.108 73.8049 192.072 74.0929 192.072C74.5089 192.072 74.9129 192.144 75.3049 192.288C75.7049 192.432 76.0209 192.652 76.2529 192.948L75.3169 193.776ZM76.6649 193.392V192.24H77.6729V190.572H79.0889V192.24H80.5289V193.392H79.0889V196.068C79.0889 196.324 79.1329 196.536 79.2209 196.704C79.3169 196.872 79.5249 196.956 79.8449 196.956C79.9409 196.956 80.0449 196.948 80.1569 196.932C80.2689 196.908 80.3689 196.876 80.4569 196.836L80.5049 197.964C80.3769 198.012 80.2249 198.048 80.0489 198.072C79.8729 198.104 79.7049 198.12 79.5449 198.12C79.1609 198.12 78.8489 198.068 78.6089 197.964C78.3689 197.852 78.1769 197.704 78.0329 197.52C77.8969 197.328 77.8009 197.112 77.7449 196.872C77.6969 196.624 77.6729 196.36 77.6729 196.08V193.392H76.6649ZM85.147 197.268H85.111C84.967 197.524 84.735 197.736 84.415 197.904C84.095 198.064 83.731 198.144 83.323 198.144C83.091 198.144 82.847 198.112 82.591 198.048C82.343 197.992 82.111 197.896 81.895 197.76C81.687 197.616 81.511 197.432 81.367 197.208C81.231 196.976 81.163 196.692 81.163 196.356C81.163 195.924 81.283 195.58 81.523 195.324C81.771 195.068 82.087 194.872 82.471 194.736C82.855 194.6 83.279 194.512 83.743 194.472C84.215 194.424 84.675 194.4 85.123 194.4V194.256C85.123 193.896 84.991 193.632 84.727 193.464C84.471 193.288 84.163 193.2 83.803 193.2C83.499 193.2 83.207 193.264 82.927 193.392C82.647 193.52 82.415 193.676 82.231 193.86L81.487 192.984C81.815 192.68 82.191 192.452 82.615 192.3C83.047 192.148 83.483 192.072 83.923 192.072C84.435 192.072 84.855 192.144 85.183 192.288C85.519 192.432 85.783 192.62 85.975 192.852C86.167 193.084 86.299 193.344 86.371 193.632C86.451 193.92 86.491 194.208 86.491 194.496V198H85.147V197.268ZM85.123 195.372H84.799C84.567 195.372 84.323 195.384 84.067 195.408C83.811 195.424 83.575 195.468 83.359 195.54C83.143 195.604 82.963 195.7 82.819 195.828C82.675 195.948 82.603 196.116 82.603 196.332C82.603 196.468 82.631 196.584 82.687 196.68C82.751 196.768 82.831 196.84 82.927 196.896C83.023 196.952 83.131 196.992 83.251 197.016C83.371 197.04 83.491 197.052 83.611 197.052C84.107 197.052 84.483 196.92 84.739 196.656C84.995 196.392 85.123 196.032 85.123 195.576V195.372ZM93.4247 198H92.0567V197.076H92.0327C91.9047 197.364 91.6807 197.62 91.3607 197.844C91.0487 198.06 90.6767 198.168 90.2447 198.168C89.8687 198.168 89.5447 198.104 89.2727 197.976C89.0087 197.84 88.7887 197.664 88.6127 197.448C88.4447 197.232 88.3207 196.984 88.2407 196.704C88.1607 196.424 88.1207 196.136 88.1207 195.84V192.24H89.5607V195.432C89.5607 195.6 89.5727 195.776 89.5967 195.96C89.6207 196.144 89.6727 196.312 89.7527 196.464C89.8327 196.608 89.9407 196.728 90.0767 196.824C90.2207 196.92 90.4087 196.968 90.6407 196.968C90.8647 196.968 91.0607 196.924 91.2287 196.836C91.4047 196.74 91.5447 196.62 91.6487 196.476C91.7607 196.332 91.8447 196.168 91.9007 195.984C91.9567 195.792 91.9847 195.6 91.9847 195.408V192.24H93.4247V198ZM95.1531 192.24H96.5331V193.2H96.5571C96.7171 192.864 96.9411 192.592 97.2291 192.384C97.5171 192.176 97.8531 192.072 98.2371 192.072C98.2931 192.072 98.3531 192.076 98.4171 192.084C98.4811 192.084 98.5371 192.092 98.5851 192.108V193.428C98.4891 193.404 98.4051 193.388 98.3331 193.38C98.2691 193.372 98.2051 193.368 98.1411 193.368C97.8131 193.368 97.5491 193.428 97.3491 193.548C97.1491 193.668 96.9931 193.812 96.8811 193.98C96.7691 194.148 96.6931 194.32 96.6531 194.496C96.6131 194.672 96.5931 194.812 96.5931 194.916V198H95.1531V192.24ZM102.948 197.268H102.912C102.768 197.524 102.536 197.736 102.216 197.904C101.896 198.064 101.532 198.144 101.124 198.144C100.892 198.144 100.648 198.112 100.392 198.048C100.144 197.992 99.9118 197.896 99.6958 197.76C99.4878 197.616 99.3118 197.432 99.1678 197.208C99.0318 196.976 98.9638 196.692 98.9638 196.356C98.9638 195.924 99.0838 195.58 99.3238 195.324C99.5718 195.068 99.8878 194.872 100.272 194.736C100.656 194.6 101.08 194.512 101.544 194.472C102.016 194.424 102.476 194.4 102.924 194.4V194.256C102.924 193.896 102.792 193.632 102.528 193.464C102.272 193.288 101.964 193.2 101.604 193.2C101.3 193.2 101.008 193.264 100.728 193.392C100.448 193.52 100.216 193.676 100.032 193.86L99.2878 192.984C99.6158 192.68 99.9918 192.452 100.416 192.3C100.848 192.148 101.284 192.072 101.724 192.072C102.236 192.072 102.656 192.144 102.984 192.288C103.32 192.432 103.584 192.62 103.776 192.852C103.968 193.084 104.1 193.344 104.172 193.632C104.252 193.92 104.292 194.208 104.292 194.496V198H102.948V197.268ZM102.924 195.372H102.6C102.368 195.372 102.124 195.384 101.868 195.408C101.612 195.424 101.376 195.468 101.16 195.54C100.944 195.604 100.764 195.7 100.62 195.828C100.476 195.948 100.404 196.116 100.404 196.332C100.404 196.468 100.432 196.584 100.488 196.68C100.552 196.768 100.632 196.84 100.728 196.896C100.824 196.952 100.932 196.992 101.052 197.016C101.172 197.04 101.292 197.052 101.412 197.052C101.908 197.052 102.284 196.92 102.54 196.656C102.796 196.392 102.924 196.032 102.924 195.576V195.372ZM105.969 192.24H107.337V193.164H107.361C107.489 192.876 107.709 192.624 108.021 192.408C108.341 192.184 108.717 192.072 109.149 192.072C109.525 192.072 109.845 192.14 110.109 192.276C110.381 192.404 110.601 192.576 110.769 192.792C110.945 193.008 111.073 193.256 111.153 193.536C111.233 193.816 111.273 194.104 111.273 194.4V198H109.833V194.808C109.833 194.64 109.821 194.464 109.797 194.28C109.773 194.096 109.721 193.932 109.641 193.788C109.561 193.636 109.449 193.512 109.305 193.416C109.169 193.32 108.985 193.272 108.753 193.272C108.521 193.272 108.321 193.32 108.153 193.416C107.985 193.504 107.845 193.62 107.733 193.764C107.629 193.908 107.549 194.076 107.493 194.268C107.437 194.452 107.409 194.64 107.409 194.832V198H105.969V192.24ZM112.126 193.392V192.24H113.134V190.572H114.55V192.24H115.99V193.392H114.55V196.068C114.55 196.324 114.594 196.536 114.682 196.704C114.778 196.872 114.986 196.956 115.306 196.956C115.402 196.956 115.506 196.948 115.618 196.932C115.73 196.908 115.83 196.876 115.918 196.836L115.966 197.964C115.838 198.012 115.686 198.048 115.51 198.072C115.334 198.104 115.166 198.12 115.006 198.12C114.622 198.12 114.31 198.068 114.07 197.964C113.83 197.852 113.638 197.704 113.494 197.52C113.358 197.328 113.262 197.112 113.206 196.872C113.158 196.624 113.134 196.36 113.134 196.08V193.392H112.126Z" fill="#F39D2E"/>
<circle cx="45.5" cy="193.5" r="4.5" fill="#B3B3B3"/>
<rect x="39" y="189" width="1" height="9" fill="#B3B3B3"/>
<rect x="51" y="189" width="1" height="9" fill="#B3B3B3"/>
<g clip-path="url(#clip4)">
<path d="M76 208H146C146.552 208 147 208.448 147 209V260H76V208Z" fill="#DBDBDB"/>
<mask id="mask2" mask-type="alpha" maskUnits="userSpaceOnUse" x="76" y="208" width="71" height="52">
<rect x="76" y="208" width="71" height="52" fill="#C4C4C4"/>
</mask>
<g mask="url(#mask2)">
<path d="M92 224.5L75 222.5V234.5L83.5 250L98.5 244L92 224.5Z" fill="#F0F0F0"/>
<path d="M100 243.5L94 224.5L107.5 225.5L103 243L100 243.5Z" fill="#F0F0F0"/>
<path d="M84.5 251.5L102.5 244.5L100.5 256.5L89 260L84.5 251.5Z" fill="#F0F0F0"/>
<path d="M87.5 261.5L75.5 240.5H75V261.5H87.5Z" fill="#F0F0F0"/>
<path d="M100.5 258.5L91.5 261.5H100L100.5 258.5Z" fill="#F0F0F0"/>
<path d="M90.5 221.5L75 219V216L88.5 211L90.5 221.5Z" fill="#F0F0F0"/>
<path d="M109 213.5L91 211L93 221.5L108 222L109 213.5Z" fill="#F0F0F0"/>
<path d="M109 238.5L104.5 261.5H118.5L109 238.5Z" fill="#F0F0F0"/>
<path d="M110 233.5C113.333 241.5 120.1 257.8 120.5 259L139 251L140 226.5L112.5 225.5L110 233.5Z" fill="#F0F0F0"/>
<path d="M140 253.5L122 261L144 262.5L140 253.5Z" fill="#F0F0F0"/>
<path d="M149 250L143 252.5L148 262.5L149 250Z" fill="#F0F0F0"/>
<path d="M142 249.5L149 247L150 227L143 226.5L142 249.5Z" fill="#F0F0F0"/>
<path d="M144 221.5L113 214L112 222L144 223.5V221.5Z" fill="#F0F0F0"/>
<path d="M113 211.5L113.5 207H149.5L150 224L147.5 223.5V219L113 211.5Z" fill="#F0F0F0"/>
<path d="M109 211L110.5 207L92 207.5L109 211Z" fill="#F0F0F0"/>
<path d="M84 209.5V207.5L74 207V213.5L84 209.5Z" fill="#F0F0F0"/>
</g>
<mask id="path-65-outside-1" maskUnits="userSpaceOnUse" x="130" y="233" width="14" height="17" fill="black">
<rect fill="white" x="130" y="233" width="14" height="17"/>
<path fill-rule="evenodd" clip-rule="evenodd" d="M138.609 245.782C141.141 245.079 143 242.756 143 240C143 236.686 140.314 234 137 234C133.686 234 131 236.686 131 240C131 242.756 132.859 245.079 135.391 245.782L137 249L138.609 245.782Z"/>
</mask>
<path fill-rule="evenodd" clip-rule="evenodd" d="M138.609 245.782C141.141 245.079 143 242.756 143 240C143 236.686 140.314 234 137 234C133.686 234 131 236.686 131 240C131 242.756 132.859 245.079 135.391 245.782L137 249L138.609 245.782Z" fill="white"/>
<path d="M138.609 245.782L138.342 244.818C138.069 244.894 137.841 245.082 137.715 245.335L138.609 245.782ZM135.391 245.782L136.285 245.335C136.159 245.082 135.931 244.894 135.658 244.818L135.391 245.782ZM137 249L136.106 249.447C136.275 249.786 136.621 250 137 250C137.379 250 137.725 249.786 137.894 249.447L137 249ZM142 240C142 242.296 140.452 244.232 138.342 244.818L138.877 246.745C141.831 245.925 144 243.217 144 240H142ZM137 235C139.761 235 142 237.239 142 240H144C144 236.134 140.866 233 137 233V235ZM132 240C132 237.239 134.239 235 137 235V233C133.134 233 130 236.134 130 240H132ZM135.658 244.818C133.548 244.232 132 242.296 132 240H130C130 243.217 132.169 245.925 135.123 246.745L135.658 244.818ZM134.496 246.229L136.106 249.447L137.894 248.553L136.285 245.335L134.496 246.229ZM137.894 249.447L139.504 246.229L137.715 245.335L136.106 248.553L137.894 249.447Z" fill="#F39D2E" mask="url(#path-65-outside-1)"/>
<circle cx="137" cy="240" r="4" fill="#F39D2E"/>
<circle cx="137" cy="240" r="3" fill="white"/>
<rect x="135" y="237" width="2" height="1" fill="#F39D2E"/>
<rect x="137" y="238" width="1" height="1" fill="#F39D2E"/>
<rect x="139" y="238" width="1" height="1" fill="#F39D2E"/>
<rect x="138" y="240" width="2" height="1" fill="#F39D2E"/>
<rect x="138" y="242" width="1" height="1" fill="#F39D2E"/>
<rect x="135" y="239" width="1" height="1" fill="#F39D2E"/>
<rect x="136" y="240" width="1" height="2" fill="#F39D2E"/>
<rect x="134" y="241" width="1" height="1" fill="#F39D2E"/>
<mask id="path-77-outside-2" maskUnits="userSpaceOnUse" x="80" y="229" width="14" height="17" fill="black">
<rect fill="white" x="80" y="229" width="14" height="17"/>
<path fill-rule="evenodd" clip-rule="evenodd" d="M88.6091 241.782C91.1414 241.079 93 238.756 93 236C93 232.686 90.3137 230 87 230C83.6863 230 81 232.686 81 236C81 238.756 82.8586 241.079 85.3909 241.782L87 245L88.6091 241.782Z"/>
</mask>
<path fill-rule="evenodd" clip-rule="evenodd" d="M88.6091 241.782C91.1414 241.079 93 238.756 93 236C93 232.686 90.3137 230 87 230C83.6863 230 81 232.686 81 236C81 238.756 82.8586 241.079 85.3909 241.782L87 245L88.6091 241.782Z" fill="white"/>
<path d="M88.6091 241.782L88.3415 240.818C88.069 240.894 87.8412 241.082 87.7147 241.335L88.6091 241.782ZM85.3909 241.782L86.2853 241.335C86.1588 241.082 85.931 240.894 85.6585 240.818L85.3909 241.782ZM87 245L86.1056 245.447C86.275 245.786 86.6212 246 87 246C87.3788 246 87.725 245.786 87.8944 245.447L87 245ZM92 236C92 238.296 90.4522 240.232 88.3415 240.818L88.8767 242.745C91.8306 241.925 94 239.217 94 236H92ZM87 231C89.7614 231 92 233.239 92 236H94C94 232.134 90.866 229 87 229V231ZM82 236C82 233.239 84.2386 231 87 231V229C83.134 229 80 232.134 80 236H82ZM85.6585 240.818C83.5478 240.232 82 238.296 82 236H80C80 239.217 82.1694 241.925 85.1233 242.745L85.6585 240.818ZM84.4965 242.229L86.1056 245.447L87.8944 244.553L86.2853 241.335L84.4965 242.229ZM87.8944 245.447L89.5035 242.229L87.7147 241.335L86.1056 244.553L87.8944 245.447Z" fill="#F39D2E" mask="url(#path-77-outside-2)"/>
<rect x="84" y="233" width="6" height="1" fill="#F39D2E"/>
<rect x="84" y="235" width="6" height="1" fill="#F39D2E"/>
<rect x="84" y="237" width="6" height="2" fill="#F39D2E"/>
<mask id="path-83-outside-3" maskUnits="userSpaceOnUse" x="107" y="217" width="14" height="17" fill="black">
<rect fill="white" x="107" y="217" width="14" height="17"/>
<path fill-rule="evenodd" clip-rule="evenodd" d="M115.609 229.782C118.141 229.079 120 226.756 120 224C120 220.686 117.314 218 114 218C110.686 218 108 220.686 108 224C108 226.756 109.859 229.079 112.391 229.782L114 233L115.609 229.782Z"/>
</mask>
<path fill-rule="evenodd" clip-rule="evenodd" d="M115.609 229.782C118.141 229.079 120 226.756 120 224C120 220.686 117.314 218 114 218C110.686 218 108 220.686 108 224C108 226.756 109.859 229.079 112.391 229.782L114 233L115.609 229.782Z" fill="white"/>
<path d="M115.609 229.782L115.342 228.818C115.069 228.894 114.841 229.082 114.715 229.335L115.609 229.782ZM112.391 229.782L113.285 229.335C113.159 229.082 112.931 228.894 112.658 228.818L112.391 229.782ZM114 233L113.106 233.447C113.275 233.786 113.621 234 114 234C114.379 234 114.725 233.786 114.894 233.447L114 233ZM119 224C119 226.296 117.452 228.232 115.342 228.818L115.877 230.745C118.831 229.925 121 227.217 121 224H119ZM114 219C116.761 219 119 221.239 119 224H121C121 220.134 117.866 217 114 217V219ZM109 224C109 221.239 111.239 219 114 219V217C110.134 217 107 220.134 107 224H109ZM112.658 228.818C110.548 228.232 109 226.296 109 224H107C107 227.217 109.169 229.925 112.123 230.745L112.658 228.818ZM111.496 230.229L113.106 233.447L114.894 232.553L113.285 229.335L111.496 230.229ZM114.894 233.447L116.504 230.229L114.715 229.335L113.106 232.553L114.894 233.447Z" fill="#F39D2E" mask="url(#path-83-outside-3)"/>
<rect x="112" y="223" width="2" height="1" transform="rotate(-90 112 223)" fill="#F39D2E"/>
<rect x="111" y="221" width="6" height="1" fill="#F39D2E"/>
<path d="M117 223H111L113 226V227H115V226L117 223Z" fill="#F39D2E"/>
<rect x="39" y="253" width="37" height="15" fill="#BABABA"/>
<rect x="64" y="256" width="9" height="9" fill="#F7F7F7"/>
<rect x="42" y="256" width="19" height="3" fill="#F7F7F7"/>
<rect x="39" y="238" width="37" height="15" fill="#D1D1D1"/>
<rect x="64" y="241" width="9" height="9" fill="#F7F7F7"/>
<rect x="42" y="241" width="19" height="3" fill="#F7F7F7"/>
<rect x="42" y="247" width="14" height="3" fill="#F7F7F7"/>
<rect x="39" y="223" width="37" height="15" fill="#BABABA"/>
<rect x="64" y="226" width="9" height="9" fill="#F7F7F7"/>
<rect x="42" y="226" width="19" height="3" fill="#F7F7F7"/>
<rect x="42" y="232" width="14" height="3" fill="#F7F7F7"/>
<rect x="39" y="208" width="37" height="15" fill="#D1D1D1"/>
<rect x="64" y="211" width="9" height="9" fill="#F7F7F7"/>
<rect x="42" y="211" width="19" height="3" fill="#F7F7F7"/>
<rect x="42" y="217" width="14" height="3" fill="#F7F7F7"/>
</g>
<rect x="28.5" y="168.5" width="129" height="89" rx="2.5" stroke="#D9D9D9"/>
<g clip-path="url(#clip5)">
<path d="M28 168H158V180.248H28V168Z" fill="#4E596D"/>
<circle cx="34.0108" cy="174.237" r="1.35738" fill="#FFB24D"/>
<circle cx="38.2782" cy="174.236" r="1.35738" fill="#FFD177"/>
<circle cx="42.5431" cy="174.236" r="1.35738" fill="#ACFD76"/>
<path d="M47.7018 172.794C47.7454 172.401 48.0775 172.104 48.4727 172.104H67.251C67.6463 172.104 67.9783 172.401 68.0219 172.794L68.7209 179.085H47.0028L47.7018 172.794Z" fill="#E8EBEF"/>
<rect x="49.3309" y="174.821" width="13.9616" height="1.55129" rx="0.775647" fill="#D9D9D9"/>
<rect x="64.0688" y="174.819" width="1.55129" height="1.55129" rx="0.775647" fill="#D9D9D9"/>
<path d="M69.93 173.696C69.9051 173.466 70.0848 173.266 70.3155 173.266H74.9541C75.1518 173.266 75.3178 173.415 75.3396 173.611L75.7695 177.489C75.7949 177.719 75.6151 177.92 75.384 177.92H70.7357C70.5377 177.92 70.3715 177.771 70.3502 177.574L69.93 173.696Z" fill="#E8EBEF"/>
<rect x="71.8251" y="175.303" width="2.32694" height="0.581736" rx="0.290868" fill="#D1D5D9"/>
<rect x="73.2787" y="174.431" width="2.32694" height="0.581736" rx="0.290868" transform="rotate(90 73.2787 174.431)" fill="#D1D5D9"/>
</g>
</g>
<defs>
<clipPath id="clip0">
<rect x="28" y="28" width="130" height="90" rx="3" fill="white"/>
</clipPath>
<clipPath id="clip1">
<rect x="39" y="68" width="108" height="60" rx="1" fill="white"/>
</clipPath>
<clipPath id="clip2">
<path d="M28 31.6763C28 29.6459 29.6459 28 31.6763 28H154.324C156.354 28 158 29.6459 158 31.6763V39H28V31.6763Z" fill="white"/>
</clipPath>
<clipPath id="clip3">
<rect x="28" y="168" width="130" height="90" rx="3" fill="white"/>
</clipPath>
<clipPath id="clip4">
<rect x="39" y="208" width="108" height="60" rx="1" fill="white"/>
</clipPath>
<clipPath id="clip5">
<path d="M28 171.676C28 169.646 29.6459 168 31.6763 168H154.324C156.354 168 158 169.646 158 171.676V179H28V171.676Z" fill="white"/>
</clipPath>
</defs>
</svg>
