<svg xmlns="http://www.w3.org/2000/svg" viewBox="0 0 94.71 135.71"><defs><style>.cls-1{fill:#f7f7f7;}.cls-1,.cls-2,.cls-4{fill-rule:evenodd;}.cls-2{fill:#f0f3f5;}.cls-3,.cls-4{fill:#fff;}.cls-5{fill:none;stroke:#d7dde0;stroke-linecap:round;stroke-linejoin:round;stroke-width:3px;}</style></defs><g id="レイヤー_2" data-name="レイヤー 2"><g id="cloud"><path class="cls-1" d="M31.76,93.74H36v5.45a1.47,1.47,0,0,0,1.47,1.47H33.23a1.47,1.47,0,0,1-1.47-1.47V93.74Z"/><path class="cls-2" d="M63.58,93.74h-25v5.45a1.48,1.48,0,0,1-1.48,1.47h25a1.47,1.47,0,0,0,1.47-1.47V93.74Z"/><path class="cls-2" d="M42,135.08H39.26a2.77,2.77,0,0,1-2.77-2.76V121h2.77v11.32A2.77,2.77,0,0,0,42,135.08Z"/><path class="cls-2" d="M53.31,135.08h2.77a2.77,2.77,0,0,0,2.76-2.76V121H36.49v3.19H56.08v8.13a2.77,2.77,0,0,1-2.77,2.76Z"/><path class="cls-2" d="M35.27,114H60.06a1.64,1.64,0,0,1,1.64,1.64v1.09H38.34v3.32A1.64,1.64,0,0,0,40,121.72H35.27a1.63,1.63,0,0,1-1.63-1.63v-4.41A1.64,1.64,0,0,1,35.27,114Z"/><path class="cls-2" d="M47.36,93.44H31.44C17.8,85,.84,66.9.84,46.92a46.52,46.52,0,1,1,93,0c0,20-17,38.06-30.61,46.52Z"/><path class="cls-3" d="M47.36,93.44H34.47C23.43,85,9.69,66.9,9.69,46.92,9.69,21.22,26.55.39,47.36.39S85,21.22,85,46.92C85,66.9,71.29,85,60.24,93.44Z"/><path class="cls-2" d="M47.36,93.44h-9.1C30.46,85,20.76,66.9,20.76,46.92,20.76,21.22,32.67.39,47.36.39S74,21.22,74,46.92c0,20-9.7,38.06-17.49,46.52Z"/><path class="cls-4" d="M47.36,93.44H43.67C40.5,85,36.56,66.9,36.56,46.92,36.56,21.22,41.4.39,47.36.39S58.15,21.22,58.15,46.92c0,20-3.94,38.06-7.1,46.52Z"/><path class="cls-5" d="M63.09,93.21l.25-.15A74.89,74.89,0,0,0,85.12,71.74c5.37-8.17,8.09-16.37,8.09-24.38A45.86,45.86,0,0,0,14.93,14.93,45.57,45.57,0,0,0,1.5,47.36c0,8,2.72,16.21,8.1,24.38A74.65,74.65,0,0,0,31.38,93.06l.24.15"/><path class="cls-5" d="M33.27,100.79H61.9a1.85,1.85,0,0,0,1.85-1.85V93.07H31.42v5.87A1.85,1.85,0,0,0,33.27,100.79Z"/><path class="cls-5" d="M35.27,121.54H59.9a1.85,1.85,0,0,0,1.85-1.86v-4a1.83,1.83,0,0,0-1.83-1.83H35.25a1.83,1.83,0,0,0-1.83,1.83v4A1.85,1.85,0,0,0,35.27,121.54Z"/><path class="cls-5" d="M36.42,122.32v10a1.85,1.85,0,0,0,1.85,1.85H56.9a1.85,1.85,0,0,0,1.85-1.85v-10"/><line class="cls-5" x1="39.72" y1="101.88" x2="43.15" y2="112.49"/><line class="cls-5" x1="33.54" y1="101.88" x2="36.97" y2="112.49"/><line class="cls-5" x1="62.13" y1="101.88" x2="58.7" y2="112.49"/><line class="cls-5" x1="55.94" y1="101.88" x2="52.51" y2="112.49"/></g></g></svg>