<svg xmlns="http://www.w3.org/2000/svg" viewBox="0 0 232.95 177.81"><defs><style>.cls-1{fill:#f0f3f5;}.cls-2,.cls-3{fill:none;stroke:#d7dde0;stroke-linecap:round;stroke-linejoin:round;}.cls-2{stroke-width:3px;}.cls-3{stroke-width:3.84px;}</style></defs><g id="レイヤー_2" data-name="レイヤー 2"><g id="cloud"><path class="cls-1" d="M62.53,47.34a13.49,13.49,0,0,0-6.11,1.46,17.54,17.54,0,0,0-32.62-.24,13.55,13.55,0,0,0-8.19-2.75A13.69,13.69,0,0,0,1.92,59.5s0,.11,0,.17H76.15A13.69,13.69,0,0,0,62.53,47.34Z"/><line class="cls-2" x1="121.48" y1="1.5" x2="121.48" y2="11.96"/><line class="cls-2" x1="116.25" y1="6.73" x2="126.71" y2="6.73"/><line class="cls-2" x1="51.32" y1="165.86" x2="51.32" y2="176.32"/><line class="cls-2" x1="46.09" y1="171.09" x2="56.55" y2="171.09"/><path class="cls-3" d="M62.53,47.34a13.49,13.49,0,0,0-6.11,1.46,17.54,17.54,0,0,0-32.62-.24,13.55,13.55,0,0,0-8.19-2.75A13.69,13.69,0,0,0,1.92,59.5s0,.11,0,.17H76.15A13.69,13.69,0,0,0,62.53,47.34Z"/><line class="cls-3" x1="88.02" y1="59.67" x2="103.32" y2="59.67"/><line class="cls-3" x1="72.57" y1="128.02" x2="80.73" y2="128.02"/><line class="cls-3" x1="88.38" y1="128.02" x2="146.53" y2="128.02"/><path class="cls-3" d="M209.6,153.52a12.75,12.75,0,0,0-25.5,0H167.27"/><line class="cls-3" x1="198.89" y1="153.52" x2="231.03" y2="153.52"/></g></g></svg>