<svg xmlns="http://www.w3.org/2000/svg" viewBox="0 0 353.39 182.41"><defs><style>.cls-1{fill:#f0f3f5;}.cls-2{fill:#d7dde0;}.cls-3,.cls-4,.cls-5{fill:none;stroke:#d7dde0;stroke-linecap:round;stroke-linejoin:round;}.cls-3{stroke-width:3px;}.cls-4{stroke-width:3.59px;}.cls-5{stroke-width:3px;}</style></defs><g id="レイヤー_2" data-name="レイヤー 2"><g id="cloud"><path class="cls-1" d="M272.05,103.61h42.06A14.47,14.47,0,0,0,291.6,92.38a14.49,14.49,0,0,0-28.32-2.53,14.48,14.48,0,0,0-22,12.4c0,.46,0,.91.07,1.36Z"/><path class="cls-2" d="M161.57,104.2l-.24,0"/><path class="cls-3" d="M186.78,180.91h37.45s2.13-11.37,13.53-11.37a11.88,11.88,0,0,1,12.39,10.24"/><line class="cls-3" x1="237.25" y1="180.91" x2="331.7" y2="180.91"/><line class="cls-3" x1="342" y1="180.91" x2="351.89" y2="180.91"/><path class="cls-3" d="M272.38,103.61h42.06a14.47,14.47,0,0,0-22.51-11.23,14.48,14.48,0,0,0-28.31-2.53,14.48,14.48,0,0,0-22,12.4,12.26,12.26,0,0,0,.07,1.36"/><path class="cls-4" d="M58.22,113.14h49.05c-1.08-5.89-6.25-11.31-12.45-11.31A11.65,11.65,0,0,0,85.67,106c.13-.82-.13-.52-.13-1.37a15.11,15.11,0,0,0-29.39-5,12.5,12.5,0,0,0-3.93-.64,12.63,12.63,0,0,0-12.63,12.63,13.93,13.93,0,0,0,.09,1.45"/><line class="cls-4" x1="118.66" y1="113.14" x2="162.12" y2="113.14"/><line class="cls-4" x1="168.75" y1="113.14" x2="179.51" y2="113.14"/><path class="cls-5" d="M1.5,113.14H22.18a10.35,10.35,0,0,0-20.68,0Z"/><line class="cls-5" x1="230.24" y1="50.87" x2="230.24" y2="61.33"/><line class="cls-5" x1="225.01" y1="56.1" x2="235.47" y2="56.1"/><line class="cls-5" x1="132.91" y1="1.5" x2="132.91" y2="11.96"/><line class="cls-5" x1="127.68" y1="6.73" x2="138.14" y2="6.73"/><line class="cls-5" x1="71.38" y1="150.03" x2="71.38" y2="160.48"/><line class="cls-5" x1="66.15" y1="155.25" x2="76.61" y2="155.25"/></g></g></svg>