<svg xmlns="http://www.w3.org/2000/svg" xmlns:xlink="http://www.w3.org/1999/xlink" viewBox="0 0 264.50608 218.55022"><defs><style>.cls-1,.cls-18,.cls-34{fill:#fff;}.cls-2,.cls-27,.cls-30,.cls-32,.cls-38,.cls-39{isolation:isolate;}.cls-3{fill:#c5e9ff;}.cls-4{fill:#95d9fc;}.cls-5{fill:#5b90ce;}.cls-40,.cls-6{fill:#91b3e5;}.cls-7{fill:#6c98dd;}.cls-8{fill:#4a82c6;}.cls-42,.cls-9{fill:#5887cc;}.cls-10,.cls-43{fill:#4d7bb2;}.cls-11{clip-path:url(#clip-path);}.cls-12,.cls-21{fill:none;stroke-linecap:round;stroke-miterlimit:10;}.cls-12{stroke:#243a7f;}.cls-13{fill:#aec1f1;opacity:0.4;}.cls-13,.cls-27{mix-blend-mode:multiply;}.cls-14{fill:#dae4f2;}.cls-15{fill:#bdcef4;}.cls-16{fill:#b5cdff;}.cls-17{fill:#2d376e;}.cls-18{opacity:0.8;}.cls-19{fill:#7aa2dd;}.cls-20{fill:#b4cfef;}.cls-21{stroke:#2d376e;stroke-width:0.75px;}.cls-22{fill:#69aee2;}.cls-23{fill:#4ba6dd;}.cls-24{fill:#83b6e5;}.cls-25{fill:#c6ced5;}.cls-26{clip-path:url(#clip-path-2);}.cls-27{fill:#88c4d8;}.cls-27,.cls-30,.cls-32{opacity:0.4;}.cls-28{fill:#51a7dd;}.cls-29{fill:#3997c6;}.cls-30{fill:#52a4d1;}.cls-31{fill:#6eafe0;}.cls-32{fill:#46a3cc;}.cls-33{fill:#dfebf7;}.cls-34{opacity:0.8;}.cls-35{fill:#2b356a;}.cls-36{fill:#9dd0ed;}.cls-37{fill:#b9daef;}.cls-38{fill:#9c9dbd;opacity:0.45;}.cls-39{fill:#5f5881;opacity:0.1;}.cls-40,.cls-41,.cls-42,.cls-43,.cls-45,.cls-46,.cls-47,.cls-48,.cls-49{fill-rule:evenodd;}.cls-41{fill:#6196d6;}.cls-44{fill:#c1d6ea;}.cls-45{fill:#7a9fcc;}.cls-46,.cls-48{fill:#4070a0;}.cls-46{opacity:0.5;}.cls-47{fill:#4e8ac6;}.cls-49{fill:#558abf;}.cls-50{fill:#4d9dce;}</style><clipPath id="clip-path"><path id="SVGID" class="cls-1" d="M213.794,151.5457c.41557,6.36228,12.399,9.865,12.399,9.865s8.761-5.0337,8.34542-11.396c-.41558-6.36248-1.734-11.52877-9.65533-10.768C215.56351,140.1417,213.37844,145.18322,213.794,151.5457Z"/></clipPath><clipPath id="clip-path-2"><path id="SVGID-2" data-name="SVGID" class="cls-1" d="M135.345,165.61441c1.54277,5.55542,12.85239,7.26554,12.85239,7.26554s6.788-6.86052,5.2452-12.41593c-1.54282-5.5556-3.69649-9.88038-10.8321-7.70217C134.21526,155.32459,133.80222,160.05882,135.345,165.61441Z"/></clipPath></defs><g class="cls-2"><g id="flag"><path class="cls-3" d="M83.39483,14.98488,1.60747,59.86929a3.00534,3.00534,0,0,0,.5541,5.54449L94.613,90.85544c1.82539.53433,1.86439-1.01644,2.03771-2.91051.44716-4.88658-13.69453-15.12889-16.0264-34.6872-2.86093-23.99569,7.03122-30.2336,7.17182-35.55405A2.99892,2.99892,0,0,0,83.39483,14.98488Z"/><path class="cls-4" d="M63.91563,51.46887a13.32737,13.32737,0,0,0-10.69118-1.86514A9.80375,9.80375,0,0,0,48.676,51.81344c-1.79876-.92519-4.40107-1.04315-4.4619-.54739-.1843.68191,1.06155,3.65281,2.11757,4.88944a9.993,9.993,0,0,0,.04052,4.18174c1.18871,5.07744,5.24881,6.02846,9.89313,5.08854,4.79918-.9712,8.10734-3.7357,7.29092-8.56618A10.06946,10.06946,0,0,0,62.185,53.26948C63.32953,52.55441,64.1018,51.59237,63.91563,51.46887Z"/><path class="cls-5" d="M102.89575,119.81418a3.2361,3.2361,0,0,0,3.16838-3.71779L89.06889,2.75652a3.237,3.237,0,1,0-6.402.96223L99.6621,117.05861A3.23765,3.23765,0,0,0,102.89575,119.81418Z"/><path class="cls-6" d="M85.38676.03661a3.23915,3.23915,0,0,1,3.68213,2.71991l16.99524,113.33987a3.2361,3.2361,0,0,1-3.16838,3.71779,3.1907,3.1907,0,0,1-.44311-.03546,3.50189,3.50189,0,0,1-.30517-.96543L84.38595.37506A3.20559,3.20559,0,0,1,85.38676.03661Z"/></g><g id="Ken"><path class="cls-7" d="M198.90848,161.57987c-12.87766,5.81669-17.37393-.86072-17.22891-3.13689,2.29358,3.11538,6.1853,4.53437,11.121,2.44693,6.33637-2.67982,6.483-10.32375,4.24978-14.32913-2.9591-5.30725-13.45555-10.26121-21.8001-2.64009-4.00423,3.65707-7.21454,13.1597-2.51569,20.23992,5.57442,8.39952,17.174,12.61583,26.74361,5.1223"/><path class="cls-8" d="M192.80059,160.88991c-4.81479,2.03625-8.54779.82341-11.111-2.39016,12.54232,2.7271,14.85083-7.4344,11.60153-15.40124a2.42754,2.42754,0,0,0,.94372.26378,11.37566,11.37566,0,0,1,2.81548,3.19848C199.2836,150.56609,199.13692,158.21,192.80059,160.88991Z"/><path class="cls-8" d="M199.99662,169.0257c-3.49209,3.13335-15.07822,8.48638-25.21591-3.093,3.13334,3.4921,13.27609,3.85916,23.786-2.67917Z"/><path class="cls-7" d="M195.28288,158.12353c.11126-10.13276,4.89834-26.60038,21.08268-26.74872s23.35719,14.72323,23.46369,26.34294a51.41582,51.41582,0,0,1-2.24693,17.44358c-.20825.10482-2.582,9.42789-3.1752,11.769.01044.00652.02072.01315.03214.01895-.10152.31223-.166.51023-.166.51023-.63034,1.92367-1.427,3.1023-2.26672,3.55055-1.63633,1.1191-3.543-.06164-4.90109-3.62728,0,0-.99857-2.99289-1.8696-5.45845a34.94481,34.94481,0,0,1-7.24306.64707,44.76949,44.76949,0,0,1-6.5736-.52508c-.81634,2.45835-1.65693,5.53953-1.65693,5.53953-2.00649,5.57334-5.44415,5.45723-7.23175-.19042l-.56326-2.366-5.64544-18.47381A36.73679,36.73679,0,0,1,195.28288,158.12353Z"/><path class="cls-9" d="M228.27443,89.97748s5.55474-.35707,9.32387-.17747c7.37752.35152,11.47491,2.44933,17.3686,6.50124a26.58134,26.58134,0,0,1,2.32041,1.753c3.16632,2.71114,6.96349,5.0023,5.97581,8.0421-1.04624,3.22028-4.36034,3.49082-7.2757,3.85934-2.28164.28841-4.57786.4613-6.903.689C249.896,112.54355,229.017,91.231,228.27443,89.97748Z"/><path class="cls-10" d="M253.34743,106.70686a29.40253,29.40253,0,0,0,9.51845.28559c-1.33176,2.37376-4.26293,2.63261-6.87845,2.96321-2.28164.28842-4.57784.46128-6.903.689.39619.92712-4.37944-3.68072-9.45647-8.78394C245.72357,103.92339,249.32708,105.94932,253.34743,106.70686Z"/><path id="SVGID-3" data-name="SVGID" class="cls-1" d="M213.794,151.5457c.41557,6.36228,12.399,9.865,12.399,9.865s8.761-5.0337,8.34542-11.396c-.41558-6.36248-1.734-11.52877-9.65533-10.768C215.56351,140.1417,213.37844,145.18322,213.794,151.5457Z"/><g class="cls-11"><path class="cls-12" d="M234.58967,145.19736a66.72121,66.72121,0,0,1-6.11679,8.72663,47.63022,47.63022,0,0,1-6.749,6.65217"/><path class="cls-12" d="M217.05328,158.161a89.67586,89.67586,0,0,0,6.634-7.288,89.42043,89.42043,0,0,0,5.32587-7.66177"/><path class="cls-12" d="M218.36139,144.33242a48.963,48.963,0,0,0,15.6623,10.09847"/><path class="cls-12" d="M213.95569,149.03055s2.98707,2.10236,7.58482,4.975a49.936,49.936,0,0,0,8.80612,4.01928"/></g><path class="cls-13" d="M198.64163,145.90727c.03967,4.07586,15.265,9.96453,25.28822,8.99293,7.78407-.75456,14.114-6.8356,14.08777-8.7219s-1.98679.78925-14.228,1.91121C210.1189,149.34248,198.62327,144.02088,198.64163,145.90727Z"/><path class="cls-7" d="M229.512,85.99231s11.81054,1.93891,17.207,12.31237c5.84145,11.22886,3.77129,15.95546,4.97847,21.14256,0,0,.71362,3.60348,1.204,6.60689.46757,2.86389.73912,6.15922.04705,8.67387s-3.7481,13.18591-33.25083,15.27236c-31.83748,2.25156-39.0472-10.19172-40.29348-15.93319-1.44409-6.65275-.84845-16.31392-.55192-21.10882.43076-6.96545,3.62582-17.96647,14.13984-23.622S217.76186,83.348,229.512,85.99231Z"/><path class="cls-9" d="M178.8522,112.95837c.43075-6.96547,3.62582-17.96656,14.13981-23.62208,7.16039-3.85165,16.05562-5.23031,24.71358-4.88544a43.25123,43.25123,0,0,0-18.07588,5.4299c-10.514,5.65552-17.02722,15.12666-17.458,22.09213-.29658,4.7949-.24441,15.76452,1.19967,22.41733,1.13156,5.21286,9.31151,15.14674,34.26293,15.69782-29.88753,1.71025-37.0115-10.40631-38.23022-16.02085C177.96,127.41437,178.55572,117.75327,178.8522,112.95837Z"/><path class="cls-14" d="M249.33,134.95581c.97885-3.2974,1.35141-10.14218-2.18644-14.47731s-9.97384-8.98129-23.24925-8.15295-22.85122,7.11562-26.30426,12.99426c-1.94343,3.30859-9.70254,25.10386,28.27227,21.30266C243.64764,144.8422,248.32189,138.35188,249.33,134.95581Z"/><path class="cls-15" d="M223.89438,112.3255c13.27537-.82828,19.71138,3.81784,23.24922,8.153a9.82525,9.82525,0,0,1,1.31045,2.13817c-12.04074-4.864-32.01258-5.26111-51.65033,4.34452a7.70055,7.70055,0,0,1,.89752-1.83333C201.24912,119.3057,210.76477,113.14475,223.89438,112.3255Z"/><polygon class="cls-16" points="227.003 105.989 233.948 112.847 227.681 119.176 220.239 112.711 227.003 105.989"/><polygon class="cls-1" points="227.003 105.989 227.681 119.176 220.239 112.711 227.003 105.989"/><path class="cls-7" d="M186.09532,109.15479a1.28031,1.28031,0,0,1-1.83038.51407,15.18836,15.18836,0,0,1-6.48752-5.06352,27.9799,27.9799,0,0,1-5.01665-17.96683c.33462-6.94816,1.73893-7.6084,8.55934-5.52695,4.25733,1.29919,14.5,6.21825,17.52965,11.85963C198.99521,93.242,188.00227,104.76061,186.09532,109.15479Z"/><path class="cls-9" d="M172.7608,86.63848c.15453-3.2089.54592-5.06364,1.58483-5.93957-.00272.05231-.00676.09716-.00935.15023a27.39156,27.39156,0,0,0,7.965,20.67133c1.97271,1.91043,5.9872,1.60935,7.39008,2.37381-.80683,1.72878-3.1767,4.294-3.59607,5.26047a1.28039,1.28039,0,0,1-1.83042.51413,15.18869,15.18869,0,0,1-6.48746-5.06356A27.97985,27.97985,0,0,1,172.7608,86.63848Z"/><path class="cls-1" d="M218.09427,138.91482c.23106,3.421,4.49618,4.79482,9.412,4.27761,4.297-.45211,7.74386-2.53753,7.51281-5.95848s-3.5321-6.19471-8.46383-5.86161S217.86322,135.49387,218.09427,138.91482Z"/><path class="cls-17" d="M224.21759,135.04662c.07921,1.199,1.84142,1.99825,3.678,1.88651,1.49042-.09068,2.74548-1.22068,2.66627-2.41967s-1.06949-1.32007-2.90532-1.19879C225.82057,133.436,224.13838,133.84764,224.21759,135.04662Z"/><path class="cls-18" d="M226.72021,134.488c.02549.41748.56455.7243,1.20384.68526s1.13678-.40916,1.11129-.82664-.549-.47233-1.18824-.43329S226.69471,134.07048,226.72021,134.488Z"/><circle class="cls-17" cx="213.96038" cy="132.11526" r="2.79245"/><circle class="cls-1" cx="213.04712" cy="132.7338" r="0.37144"/><circle class="cls-1" cx="214.64251" cy="131.46552" r="0.88546"/><circle class="cls-17" cx="236.98668" cy="130.50472" r="2.56814"/><circle class="cls-1" cx="237.81129" cy="131.09552" r="0.3416"/><circle class="cls-1" cx="236.37532" cy="129.89083" r="0.81433"/><path class="cls-1" d="M210.96724,126.17872c-.2625,1.60938,1.35548,1.44356,2.83,1.29251s3.3254.64775,2.72063-1.86153a2.97428,2.97428,0,0,0-5.55067.569Z"/><path class="cls-1" d="M239.97313,124.45818c.58352,1.52264-1.03447,1.6885-2.509,1.83973s-3.12488,1.30886-3.0417-1.27089a2.97432,2.97432,0,0,1,5.55072-.56884Z"/><path class="cls-6" d="M206.64575,151.56138s.57757.36448,1.52612.91646c2.87614,1.67369,9.163,5.07127,13.101,5.25913,5.23682.24982,7.65669-.74711,13.40918-3.97184s7.52653-6.15253,10.86816-6.518,3.25311.81344,3.70185,2.40947-7.65913,39.525-7.65913,39.525l-32.46059-2.51005s-3.07441-3.221-1.85131-11.75136C209.25323,161.16566,206.64575,151.56138,206.64575,151.56138Z"/><path class="cls-9" d="M238.08443,155.47234c.08177-.54374.368-.86648,1.24315-1.2136a8.23435,8.23435,0,0,1,3.01321-.36473,27.91208,27.91208,0,0,0-2.71507,11.03631c-.02871,4.61038-2.4028,18.45231-3.36438,23.87644l-3.39986-.239Z"/><path class="cls-19" d="M232.87364,188.67178c.24647-2.62045.6018-13.23732,2.90746-28.77282.6404-4.315,1.19449-5.31864,1.19449-5.31864a4.363,4.363,0,0,0,2.60911,2.46737,7.48131,7.48131,0,0,0,6.16594-1.43328,8.57419,8.57419,0,0,0,3.184-6.67068,5.37984,5.37984,0,0,1,.76631,1.5925c.48322,1.5941-8.19052,38.53074-8.19052,38.53074Z"/><path class="cls-20" d="M221.487,158.03812a20.944,20.944,0,0,0,2.25252-.02995c3.02677-.17281,5.89591-1.51523,8.93389-2.93438l1.13173-.52779a39.14924,39.14924,0,0,0,6.98695-4.71413c.89749-.70414,1.67343-1.31176,2.22586-1.67715a4.22389,4.22389,0,0,1,3.08083-.63215,3.35916,3.35916,0,0,1,2.1,2.98276,5.648,5.648,0,0,1-3.10033,5.26936c-2.42541,1.1721-3.28934,1.2788-5.45019.93571-1.27142-.20187-1.55-.96723-1.52527-1.27156.06611-.83443.83826-1.08832,2.32159-1.35669a15.75039,15.75039,0,0,1,1.92189-.14658l-.91156-1.27264a10.17768,10.17768,0,0,0-1.66428.1135c-1.26809.23039-2.87445.64635-3.127,2.464-.20811,1.49748.9445,2.62538,2.72148,2.94257,2.62792.466,3.8338.161,6.36395-1.06169a7.14456,7.14456,0,0,0,3.94294-6.66168,4.83969,4.83969,0,0,0-3.16243-4.368,5.66312,5.66312,0,0,0-4.335.81643c-.60368.398-1.40095,1.02364-2.32566,1.74694a38.14777,38.14777,0,0,1-6.68893,4.53393l-1.14062.53029c-2.90345,1.35687-5.64549,2.63957-8.38647,2.79678-2.49332.14417-4.90356.07889-9.13722-2.14906-4.02977-2.12029-6.61113-3.74988-6.64092-3.76884l-1.21525.93394c.02973.02042,3.06186,2.00249,7.15864,4.15813A17.72417,17.72417,0,0,0,221.487,158.03812Z"/><path class="cls-9" d="M202.68056,161.73317a14.85519,14.85519,0,0,0,9.41179,3.82438c.23128.08683,4.4414-.28746,5.53409.12287-1.91169,3.61855-10.503.95583-14.92723-2.37709A3.36549,3.36549,0,0,1,202.68056,161.73317Z"/><path class="cls-14" d="M246.866,164.54822c.813.60715,2.59018-.35687,3.15958-1.88879a3.61615,3.61615,0,0,0-1.14021-4.55042.762.762,0,0,0-.98811.07459C245.0906,161.01739,246.09117,163.9696,246.866,164.54822Z"/><path class="cls-21" d="M230.98146,137.6418s.03854,1.54169-1.04064,1.73441a3.28855,3.28855,0,0,1-2.04274-.38543,5.30825,5.30825,0,0,0,.13395-2.7598"/><path class="cls-21" d="M222.90206,138.46444s0,1.71,2.51264,1.5006a6.03152,6.03152,0,0,0,2.48338-.97426"/><path class="cls-7" d="M207.19386,156.32c1.80772,1.669,7.92244,4.516,7.985,4.54957,1.04764.56285,3.63522,1.87193,2.76669,4.168-.90225,2.385-2.9723,2.15616-5.467,1.82983a21.538,21.538,0,0,1-9.99189-5.10423C202.17211,161.48313,207.19386,156.32,207.19386,156.32Z"/><path class="cls-14" d="M212.47859,166.86743l-.04843-.00821c.02715-1.06656.344-4.89963,2.75594-5.98249.02114.00847.08994.04388.19573.10266,1.13659.61071,3.38381,1.89,2.5637,4.05825C217.04331,167.42264,214.97321,167.19371,212.47859,166.86743Z"/></g><g id="Ben"><g id="left"><path class="cls-22" d="M122.54124,172.89227c-7.83973,9.3395-14.7432,5.26523-15.01864,3.34865,2.8299,2.09445,6.95261,1.86815,10.01048-1.60107,3.92563-4.45371,1.18108-10.45326-2.0536-12.73309-4.286-3.02085-14.3018-2.94821-17.94132,6.09937-1.74646,4.34158-.68944,12.93236,5.61266,16.68144,7.47641,4.44767,18.07419,3.38882,22.71417-6.01767"/><g class="cls-2"><path class="cls-23" d="M123.76443,176.0263c-5.99825,12.41653-15.24991,11.01988-18.99265,9.476.4951.24044.97923.44776,1.45833.6406,7.02607,2.55223,15.48878.722,19.55274-7.31717Z"/><path class="cls-23" d="M108.94079,170.43128c1.56233,2.22525.84711,5.139-1.21189,5.90136a6.49591,6.49591,0,0,0,2.51957,1.11407,6.98116,6.98116,0,0,0,4.386-.5795,9.19927,9.19927,0,0,0,2.33065-1.64017s6.25174-5.42163-.67847-12.70462c-.62712-.65905-3.9606-2.42385-8.13277-2.36439a12.05672,12.05672,0,0,0-10.61572,7.848C97.06334,169.18656,103.7928,163.09892,108.94079,170.43128Z"/></g><path class="cls-24" d="M158.46731,161.92027a24.12819,24.12819,0,0,0-1.42834-4.5379c-3.44282-8.08623-11.65515-15.80392-22.83212-13.38932-13.34973,2.884-14.66486,17.34449-12.8592,25.70275a30.62673,30.62673,0,0,0,3.69982,9.851c2.91782,6.04352,7.27976,13.341,7.27976,13.341,2.27669,3.80607,4.803,3.33067,5.30321-1.076,0,0,.58952-2.73593.97748-4.50948a2.17257,2.17257,0,0,1,1.35074-1.57265,41.96591,41.96591,0,0,1,9.09683-2.15993,2.17429,2.17429,0,0,1,2.12913,1.10137l2.08746,3.69188c2.27669,3.80607,4.803,3.33067,5.30321-1.076,0,0,.60916-9.55088.6554-10.042a45.51215,45.51215,0,0,0,.03359-8.19719A40.34009,40.34009,0,0,0,158.46731,161.92027Z"/><path class="cls-25" d="M153.01865,187.91471l.25343.44825c2.27669,3.80607,4.803,3.33067,5.30321-1.076,0,0,.00719-.16488.02-.45323A7.96686,7.96686,0,0,0,153.01865,187.91471Z"/><path class="cls-25" d="M132.08426,192.47787c.15218.25759.243.40987.243.40987,2.27669,3.80607,4.803,3.33067,5.30321-1.076,0,0,.0336-.156.08879-.41152A7.68607,7.68607,0,0,0,132.08426,192.47787Z"/><path id="SVGID-4" data-name="SVGID" class="cls-1" d="M135.345,165.61441c1.54277,5.55542,12.85239,7.26554,12.85239,7.26554s6.788-6.86052,5.2452-12.41593c-1.54282-5.5556-3.69649-9.88038-10.8321-7.70217C134.21526,155.32459,133.80222,160.05882,135.345,165.61441Z"/><g class="cls-26"><path class="cls-1" d="M144.29067,161.62509a72.88664,72.88664,0,0,0,8.98436,2.56385"/><path class="cls-17" d="M153.37713,164.54119a.36717.36717,0,0,1-.14948.01122,72.84359,72.84359,0,0,1-9.06393-2.58368.36642.36642,0,0,1,.25408-.68739,73.59469,73.59469,0,0,0,8.90514,2.54469.36637.36637,0,0,1,.05419.71516Z"/><path class="cls-1" d="M135.92257,163.52721c2.62162.96819,13.62544,5.08944,15.34053,5.1248"/><path class="cls-17" d="M151.365,169.004a.366.366,0,0,1-.10975.01462c-1.83052-.03883-13.66242-4.45776-15.938-5.29834a.36642.36642,0,1,1,.25408-.68739c2.58086.9534,14.04932,5.21822,15.69973,5.25254a.36652.36652,0,0,1,.09391.71857Z"/><path class="cls-1" d="M144.85994,161.42655a87.00056,87.00056,0,0,1-6.102,8.37077"/><path class="cls-17" d="M138.86,170.14932a.36648.36648,0,0,1-.365-.60737,86.34808,86.34808,0,0,0,6.05206-8.30548.3662.3662,0,1,1,.62568.38071,87.7732,87.7732,0,0,1-6.1515,8.43557A.36936.36936,0,0,1,138.86,170.14932Z"/><path class="cls-1" d="M152.9392,158.27055c-1.451,2.38851-8.13089,12.30076-9.452,13.395"/><path class="cls-17" d="M143.58888,172.01745a.3665.3665,0,0,1-.33555-.63451c1.27942-1.06,7.94148-10.94706,9.3721-13.30243a.36669.36669,0,1,1,.62706.38031c-1.25865,2.07168-8.11173,12.31049-9.53172,13.48718A.37552.37552,0,0,1,143.58888,172.01745Z"/></g><path class="cls-27" d="M146.41918,165.94029a19.0593,19.0593,0,0,0,10.59957-8.70444c-.31731-.62773-.66606-1.24822-1.03976-1.859a55.60326,55.60326,0,0,1-10.94754,4.46155c-12.06818,3.65956-23.3971,1.00068-23.03113,2.69471C122.791,166.193,137.58071,168.67111,146.41918,165.94029Z"/><g id="tai"><g id="head_gear" data-name="head gear"><path class="cls-28" d="M115.69945,153.67138a44.66212,44.66212,0,0,0-22.19981,7.45248c8.12747.20507,13.92412,1.9265,14.90214,3.27753.978,1.3508,6.016,2.63359,9.24576.28857a49.30006,49.30006,0,0,1,8.42827-3.91856C121.5616,159.17934,117.7431,156.596,115.69945,153.67138Z"/><g id="tai-2" data-name="tai"><path class="cls-29" d="M110.87592,170.28865c1.31616.87152,6.01953.39551,8.38428-2.49383a10.08327,10.08327,0,0,0-3.78076-5.88807,11.26242,11.26242,0,0,0-6.24121-1.77282,43.797,43.797,0,0,0-12.38257,10.873q-.05236.54639-.06275,1.12018C103.987,169.763,109.54926,169.41017,110.87592,170.28865Z"/><path class="cls-22" d="M115.60265,153.53171a48.7209,48.7209,0,0,0-22.103,7.59215c8.12747.20507,13.92412,1.9265,14.90214,3.27753.978,1.3508,6.016,2.63359,9.24576.28857,1.26928-.925,5.03316-2.32357,9.13341-3.68066C121.88879,159.421,117.72357,156.66535,115.60265,153.53171Z"/><path class="cls-24" d="M96.862,170.9263c7.68638-2.67513,13.71358-3.0993,15.10226-2.17957,1.38874.91953,6.55321.34382,8.75715-2.98928a38.73786,38.73786,0,0,1,4.89527-5.15517,23.31146,23.31146,0,0,1-8.59683-5.33586A45.2988,45.2988,0,0,0,96.862,170.9263Z"/><path class="cls-30" d="M125.61562,160.602c-.479-.178-.94723-.36946-1.40806-.56886-.15235-.06586-.29927-.13672-.44942-.2048-.3068-.1393-.61053-.28076-.90766-.42887-.17022-.0848-.33622-.17253-.50305-.2601q-.40352-.21215-.79289-.43426c-.16747-.09571-.33344-.19173-.49681-.29016-.25353-.153-.49926-.31-.74238-.4694-.15048-.09846-.30322-.19535-.44953-.29609-.27165-.18751-.53133-.38058-.78773-.57556-.103-.07816-.21229-.15335-.31274-.23283q-.5063-.40079-.96568-.8202c-.12027-.10929-.2291-.22222-.34444-.33306-.1456-.14042-.29794-.27856-.43537-.42136-.27727.11361-.55579.23565-.83395.35531,2.4434,3.28275,3.6975,6.89411-1.36426,13.45025.24327-.02907.4938-.07064.7476-.122.0337-.00683.06775-.01516.10159-.02241.20979-.04472.422-.09884.63508-.15967.06373-.01811.12731-.03623.19113-.05608.19732-.06038.39469-.12992.59157-.20475.06064-.023.12155-.04326.182-.06775.24934-.10063.497-.21167.74-.3362.03875-.01973.07575-.044.11428-.06438q.29816-.15852.58508-.34178c.08237-.05282.1618-.11091.24236-.16694.1443-.10056.28546-.20554.42286-.3165.08518-.069.16906-.13936.25111-.21208.12919-.1147.25194-.2367.37258-.36149.0748-.07747.15188-.15213.223-.23383a6.26466,6.26466,0,0,0,.40171-.51873c.03124-.04459.06756-.0844.09774-.13a38.73786,38.73786,0,0,1,4.89527-5.15517Z"/></g></g></g><path class="cls-31" d="M161.70206,124.199c4.03566,2.3,10.276.78954,10.159-1.816-.21543-4.79912-13.46956-18.43511-23.11081-16.79954C148.75024,105.58349,149.424,113.05889,161.70206,124.199Z"/><path class="cls-32" d="M158.64169,120.97952c-.74456-.67554,1.03378,1.3806,3.0604,3.21944,3.81019,2.1716,9.579.945,10.11383-1.39152C168.29772,123.44983,161.545,122.634,158.64169,120.97952Z"/><path class="cls-24" d="M101.61391,119.77965c4.58286-10.25377,11.154-13.939,23.49735-17.01178a34.74527,34.74527,0,0,1,5.673-.95367q.98194-.06509,1.9241-.11852c13.006-.72557,24.906,6.35778,29.08933,18.694.23091.68092.67147,1.84233.88789,2.53181a30.57377,30.57377,0,0,0,1.45418,3.63545c2.297,4.89353,2.4826,5.31,3.7585,11.32388,2.53417,11.94462-12.09342,24.92583-31.973,25.87148-20.44505.97254-36.93605-5.33123-37.03077-25.64929a80.87914,80.87914,0,0,1,.76378-10.78237A21.46073,21.46073,0,0,1,101.61391,119.77965Z"/><path class="cls-31" d="M139.56457,163.282c-20.44508.97256-36.93617-5.33123-37.03093-25.64932a80.91216,80.91216,0,0,1,.76376-10.78235,21.46,21.46,0,0,1,1.95578-7.541c4.58287-10.25378,11.15394-13.939,23.49721-17.01174.76227-.18977,1.56024-.35634,2.35173-.50346-.107.007-.21033.01292-.31779.02a34.74278,34.74278,0,0,0-5.673.95367c-12.34352,3.07281-18.91459,6.758-23.49745,17.01181a21.46516,21.46516,0,0,0-1.95579,7.541A80.89423,80.89423,0,0,0,98.8946,138.103c.09452,20.31809,16.5856,26.62182,37.03068,25.64927a47.41745,47.41745,0,0,0,5.65362-.61138C140.91338,163.20067,140.24276,163.24974,139.56457,163.282Z"/><path id="SVGID-5" data-name="SVGID" class="cls-33" d="M139.59193,129.58574c13.70483-2.72608,23.04517,2.25271,24.69181,11.54869,1.4719,8.30951-5.507,14.73867-17.58226,17.5917-13.59139,3.21125-27.04987,3.64787-29.59878-8.29278S125.88709,132.31181,139.59193,129.58574Z"/><path class="cls-34" d="M150.7116,138.5622c.11013,2.07306,1.3535,1.03236,2.52478.81029,1.1715-.22227,2.45687-.4661,1.88492-1.64639a2.13264,2.13264,0,0,0-2.41423-1.14548A2.2307,2.2307,0,0,0,150.7116,138.5622Z"/><path class="cls-34" d="M133.96766,142.40927c.79591,1.91743-.77452,1.51586-1.927,1.82183-1.15233.30566-2.417.64129-2.41127-.67026a2.13266,2.13266,0,0,1,1.68223-2.07624A2.23071,2.23071,0,0,1,133.96766,142.40927Z"/><path class="cls-35" d="M151.63205,144.43839a2.9608,2.9608,0,1,0,5.20966-2.81511,2.96976,2.96976,0,0,0-5.20966,2.81511Z"/><path class="cls-1" d="M152.05,143.62044a1.32595,1.32595,0,1,0,.536-1.79723A1.32576,1.32576,0,0,0,152.05,143.62044Z"/><path class="cls-1" d="M155.11455,143.71334a.36553.36553,0,1,0,.14769-.49558A.36572.36572,0,0,0,155.11455,143.71334Z"/><path class="cls-35" d="M135.95225,148.15643a2.92381,2.92381,0,0,1-5.81619-.60551,2.93267,2.93267,0,0,1,5.81619.60551Z"/><path class="cls-1" d="M135.07287,147.67909a1.30944,1.30944,0,1,1-1.16655-1.43874A1.30925,1.30925,0,0,1,135.07287,147.67909Z"/><path class="cls-1" d="M132.50025,148.80742a.36083.36083,0,1,1-.32136-.39661A.36079.36079,0,0,1,132.50025,148.80742Z"/><path class="cls-1" d="M139.12651,152.87785c.64126,3.11253,3.68554,3.37126,6.79807,2.73s4.95537-2.56377,4.4734-5.0522c-.60429-3.11992-3.52944-4.36416-6.642-3.7229S138.48525,149.76532,139.12651,152.87785Z"/><ellipse class="cls-36" cx="157.53698" cy="147.93316" rx="2.65274" ry="1.79478" transform="translate(-26.61032 34.83191) rotate(-11.64146)"/><ellipse class="cls-36" cx="132.10695" cy="154.16148" rx="3.04316" ry="2.05892" transform="translate(-27.3452 28.4912) rotate(-11.16246)"/><path class="cls-35" d="M143.22585,150.68615c.141.79129,1.37153,1.19277,2.58433.9831a1.76781,1.76781,0,0,0,1.59427-1.8052c-.141-.79128-.80833-.79879-2.01991-.58284S143.08482,149.89487,143.22585,150.68615Z"/><path class="cls-18" d="M144.8485,150.13027c.04772.27567.42872.43992.85086.36684s.72561-.35581.67789-.63148-.39981-.27355-.82192-.20048S144.80077,149.85459,144.8485,150.13027Z"/><path class="cls-37" d="M161.08793,134.36565a14.26688,14.26688,0,0,0-3.6553-2.97469c-.05764-.03306-.11667-.06446-.17477-.097a17.46607,17.46607,0,0,0-3.13882-1.3548c-.19059-.0615-.38187-.12212-.57688-.17854-.30417-.08846-.61161-.17348-.92672-.24944-.29533-.0707-.59949-.13076-.90436-.19029q-.5982-.11784-1.22054-.20639c-.37718-.05323-.75713-.10309-1.14728-.13987-.25471-.02432-.514-.04245-.77406-.05964q-.63705-.04147-1.29554-.05365c-.20838-.00416-.41308-.01342-.62469-.01322q-.96214.00169-1.9661.06445c-.18327.01144-.37205.031-.55763.04564q-.81352.06433-1.65195.16867c-.21073.02637-.42147.05226-.63472.08252-.73663.10472-1.48239.22425-2.24654.37628l-.02325.0048c-.49086.09778-.97528.20286-1.45972.30763-9.62146,2.12119-17.829,6.0347-20.4724,12.57277-.087.27044-.18523.53514-.252.8157,5.23305-2.386,15.51045-5.2439,25.61645-7.25354C153.05551,134.034,155.70864,134.15229,161.08793,134.36565Z"/><path class="cls-1" d="M133.23662,131.00514l8.25119,5.26125,4.12017-7.48871-7.55477-5.718Z"/><polygon class="cls-38" points="141.488 136.266 145.608 128.778 138.053 123.06 141.488 136.266"/><path class="cls-24" d="M106.90379,130.87781c-2.48385,8.66977-18.63185,11.31664-18.85919,7.23809-.31551-5.66034,8.84008-24.00271,20.85291-23.89454Z"/><path class="cls-31" d="M107.00494,130.27572l.49412-4.127c-.17215-.56159-.48773-.68847-.99776.02375-5.25046,7.32037-13.37079,10.46432-17.8106,12.29365a1.88405,1.88405,0,0,0,.193.23529C92.09745,140.85864,104.82264,137.89267,107.00494,130.27572Z"/><path id="shadow" class="cls-39" d="M136.22676,196.69253c13.35215-.57921,24.13156-2.08436,24.07617-3.3613-.05541-1.27737-10.92466-1.843-24.2768-1.26377-13.35232.57922-24.13159,2.08394-24.07617,3.3613C112.00535,196.7057,122.87444,197.27175,136.22676,196.69253Z"/></g></g><g id="boat"><path class="cls-40" d="M116.9633,210.775l114.33637-.231a10.66412,10.66412,0,0,0,6.02459-1.85575,60.27469,60.27469,0,0,0,8.94543-7.451l.0289-.0289.01027-.01024.00744-.0084.0317-.03263c.02661-.0266.0522-.05323.078-.07985l.00032-.00032.03914-.04007.233-.24233.03821-.0401.03916-.041.03821-.04008.01212-.01213c.02237-.02421.04567-.04938.0699-.07363.02424-.02515.04847-.05032.07178-.07642l.03821-.041.03355-.03543.0588-.06349.136-.14529.03728-.041.03729-.041.00141-.00159c.04971-.05388.10049-.10747.14958-.16152.03823-.041.0755-.082.11279-.123l.22277-.247.03634-.041.0373-.04194.03634-.041.03728-.04194c.04009-.04474.08016-.09043.12025-.13517l.02609-.02981h.00093l.0084-.01026.01863-.02144c.01585-.01677.03077-.03447.04567-.05127.06059-.069.12118-.13888.18082-.20785l.03637-.04194c.0727-.0839.14446-.16685.2153-.25073l.07084-.0839a44.1542,44.1542,0,0,0,6.05864-9.20011l.07262-.14868.01957-.0401.01958-.041.01957-.04007.03716-.07789q.0678-.1419.13476-.28423l.05644-.12069.05872-.12771.03729-.082.01863-.041,0,0,.0382-.082.01028-.02328c.06563-.14475.12987-.29019.19386-.43576l.03354-.07505.01771-.041.01549-.03668q.14126-.32481.27708-.65232l.00664-.01564.0177-.04193.01529-.03823a43.58476,43.58476,0,0,0,3.06713-12.59247,50.95148,50.95148,0,0,0,.21163-5.64467,1.36077,1.36077,0,0,0-1.43431-1.324l-14.5594.76476-1.12316.05872-2.361.124-12.29047.645-57.9814,2.7187-20.87125,1.0952-51.57694,2.70863-1.86417.09786-2.74693.14408a1.35827,1.35827,0,0,0-1.28713,1.35641V196.2394a13.54487,13.54487,0,0,0,10.4959,13.26328q.09582.02138.19229.04221A81.1401,81.1401,0,0,0,116.9633,210.775Z"/><polygon class="cls-7" points="91.008 179.009 91.008 187.256 151.088 179.709 96.906 175.521 95.305 175.397 95.042 175.619 91.008 179.009"/><path class="cls-41" d="M259.06217,167.33232l-17.075.89641c.38345,18.08552-7.90173,31.93541-23.30177,42.30845H231.174a11.02412,11.02412,0,0,0,6.26765-1.92977C252.08839,198.48461,259.80172,184.97315,259.06217,167.33232Z"/><path class="cls-42" d="M85.79249,179.031v.07737a3.823,3.823,0,0,0,4.02383,3.81781l13.24958-.69533,139.78958-7.01468,18.02465-.94607a3.82233,3.82233,0,0,0,3.60439-3.43939c.00837-.08483.014-.17057.01677-.25633l.0028-.07735c.0028-.08762.0028-.1743-.00094-.26006a3.82589,3.82589,0,0,0-4.022-3.67987l-17.38338.91251-98.83,4.86341L89.41459,175.2132A3.82263,3.82263,0,0,0,85.79249,179.031Z"/><path class="cls-43" d="M242.85548,175.21619l18.02465-.94607a3.82233,3.82233,0,0,0,3.60439-3.43939q.01116-.2964.01863-.59374a3.82589,3.82589,0,0,0-4.022-3.67987l-17.38338.91158v.00093A59.6734,59.6734,0,0,1,242.85548,175.21619Z"/><path class="cls-44" d="M244.02067,198.6777l-1.04223.014-.97779.014-.93115.01306-.54883.00745-.99731.014-1.511.02142-1.01611.014-.51709.0075-1.02075.01392-1.05689.01495-1.54272.02143-1.09692.01587H231.759c-10.77759.151-22.61426.31781-34.90381.493-32.02417.45465-77.8562,1.20183-105.28857,1.62609a12.36381,12.36381,0,0,0,1.13012,2.57281c25.38282-.3916,57.12891-.853,86.91309-1.27795,13.73242-.19666,37.78588-.62151,49.85815-.79113q2.34045-.03213,4.61841-.06427,1.27515-.01823,2.52881-.03546c.33471-.00464.66723-.00934.99926-.014q.49769-.007.9917-.014.74232-.01116,1.47461-.0205.73242-.01118,1.45777-.02051l.49194-.00653q.71594-.01118,1.42432-.02051l2.81494-.03912.02881-.02893.01782-.01862.03174-.03265c.02661-.02655.052-.05323.07788-.07984l.00049-.0003c.052-.05408.10327-.10718.15551-.16126l.11646-.12115.03833-.0401.03906-.041.03833-.04.012-.01214c.02247-.02423.04566-.04938.07007-.07361.01953-.0224.04-.04383.06055-.06525l.01123-.01117.03809-.041.03369-.03547.00366-.00463.0437-.04682.01123-.012.13623-.14533.03711-.041.03735-.041.00757-.00842.14331-.15472.03736-.041.03735-.041c.08765-.096.17432-.19195.261-.288l.03637-.041.03736-.04193.03613-.041.03735-.04193c.04-.04474.08008-.0904.12036-.13514l.02588-.02984.00928-.01026.0188-.02142.0083-.01025.00757-.00836c.05127-.0578.10254-.11561.15185-.17432l.02247-.02521.03637-.041.03638-.04194.17871-.20874c.02441-.028.04761-.056.07178-.08392l.03564-.04193-3.75732.05219Z"/><path class="cls-44" d="M255.26628,188.26119l.00732-.01635.00391-.00843q.05017-.11151.09937-.22351c.0144-.03235.02905-.0647.04321-.097.03076-.06806.06055-.137.09033-.206l.00195-.00476q.1128-.25992.22193-.522c.03076-.07312.061-.14624.09179-.21942l.01661-.04236-.97071.02612-.89575.02423-1.08032.02985q-.82655.021-1.66748.04474l-1.11206.02978-.95264.02613-1.06811.02886-.97779.02613-1.10254.02984q-.9298.02509-1.87451.05127l-5.52075.14911h-.00269c-6.65136.17987-13.76709.37378-21.19189.576q-2.721.07278-5.49463.14917-5.21374.14264-10.583.28894c-31.1726.851-76.27172,2.03637-103.769,2.81841q-3.35559.09651-6.57129.1883v2.59118c29.67945-.84912,79.959-2.1762,114.82642-3.12786q3.75549-.10207,7.43164-.20227c8.48657-.23114,16.61889-.452,24.17553-.65619l.00171-.00091c.01587,0,.03272,0,.04956-.00092q.5409-.014,1.08008-.02893.53834-.01537,1.072-.02887.53394-.01538,1.06446-.02893.52991-.01538,1.05517-.02887l4.13648-.11188q.49914-.01391.99365-.02606l2.01318-.055c.3291-.00934.65723-.0177.9834-.027l4.76245-.12842c.022-.04437.04785-.08691.06958-.13134l.07447-.15223.01977-.0401.01953-.041.01953-.04.03711-.07788.07617-.16071.0022-.0047.01245-.02594.01026-.02215c.03-.06378.06054-.12763.09009-.19147l.05883-.12769.03711-.082.0188-.041c.01734-.03858.03516-.0763.05249-.11475Z"/><path class="cls-45" d="M229.467,201.473l4.61941-.06522,2.52876-.03543.99919-.014.99173-.014,1.47457-.0205,1.45778-.02051.49213-.00653,1.42423-.0205,2.81489-.03914.0289-.0289.01027-.01024.00744-.0084.0317-.03263.03914-.04007.03916-.0401.03914-.04007.233-.24233.03821-.0401.03916-.041.03821-.04008.01212-.01213.10252-.11.028-.02887.01119-.0112.03821-.041.03355-.03543.00373-.00466.19108-.20412.03728-.041.03729-.041.00745-.00839.14354-.15472.0373-.041.03727-.041.03822-.041.22277-.247.03634-.041.0373-.04194.03634-.041.03728-.04194c.04009-.04474.08016-.09043.12025-.13517l.027-.02981.0084-.01026.01863-.02144.0084-.01026.00745-.00838.02982-.03263.12211-.14168.02237-.02517.03634-.041.03637-.04194.17895-.20879.03635-.04194.07084-.0839-3.75723.0522-.88828.01307-1.04207.014-.97776.014-.93115.01306-.549.00747-.99733.014-1.5109.02143-1.016.014-.5173.00746-1.02064.014-1.057.01493-1.54261.02144-1.09706.01584h-.0028q-.54666.66829-1.1185,1.32542l-.288.32716c-.19387.21718-.38869.43343-.58721.64873q-.14121.15381-.28336.30666l-.014.01493Zm7.974-11.46h.00186l.04941-.00187,1.08029-.0289,1.0719-.0289,1.06443-.0289,1.05513-.0289,4.13658-.11185.99361-.0261,2.0133-.055.98335-.027,4.76854-.12862.01958-.041.11838-.24232.01957-.0401.01958-.041.01957-.04007.09694-.20319.01864-.04009.01957-.041.01957-.041.07364-.15751.05872-.12771.05592-.123.03822-.082.01772-.04008.01864-.042.01863-.041.01864-.041.01865-.041.09042-.206.055-.123.01771-.041.01772-.04194.03541-.082.01865-.04194.03542-.082.12676-.30293.06525-.15379.0177-.04193.03356-.08391-.97124.02611-.89572.02423-1.08029.02983-1.66751.04474-1.112.02981-.95259.0261-1.06816.0289-.97776.0261-1.10266.02984-1.87441.05127-5.52074.14912h-.0028Q238.07339,188.72118,237.441,190.01306Z"/><polygon class="cls-46" points="144.268 172.333 123.817 173.407 121.851 174.096 120.07 174.72 119.034 175.083 118.65 175.217 109.726 178.343 109.397 178.458 106.526 179.464 106.453 179.49 105.194 179.931 105.169 179.941 104.792 180.072 104.096 180.316 102.499 180.875 101.032 181.39 99.325 181.988 97.849 182.505 103.066 182.231 121.064 181.328 121.064 181.328 132.533 180.752 134.81 179.955 137.143 179.138 138.758 178.571 138.904 178.519 141.024 177.777 142.237 177.351 158.571 171.629 144.268 172.333"/><path class="cls-47" d="M171.40725,162.214a2.65181,2.65181,0,0,0-.04667-.29185,3.02181,3.02181,0,0,0-.10773-.38272l-.0096-.02571a3.28829,3.28829,0,0,0-4.17692-1.99787l-.63961.22392-.00586.0042-1.26243.44032-.79089.27655-.00373.00114-2.56179.89866-1.39613.48895-2.15963.75624-.4696.16405-2.44487.85755-.00169-.00027-1.10548.38683-19.69714,6.9015-.4494.157-7.08075,2.48178-1.78149.62375-1.036.36378-.38357.13336-8.924,3.12636-.329.11476-2.8706,1.00639-.07306.02591-1.259.44086-.02546.00956-.37635.13106-.69621.244-1.597.55929-1.46725.51514-1.70675.59817-1.49082.52157-9.17082,3.21326-1.14594.4026-1.16928.40908L84.1686,188.56a1.51074,1.51074,0,0,1-1.48617-.32141c-1.90315-1.63612-5.59752-.92819-8.11636-.19022l-4.41921,1.29459-.35067.11468L42.048,199.49752a3.081,3.081,0,0,0-1.7993,3.86367l.87194,2.56307c.47838,1.22037,3.805,9.53082,3.805,9.53082a4.65823,4.65823,0,0,0,5.76022,2.88731l20.78293-6.0375.12712-.04528,6.71922-2.72553c4.24712-1.72277,10.33488-4.96111,9.45645-9.65527a33.44418,33.44418,0,0,0-.61755-3.52847,1.57346,1.57346,0,0,1,.9426-1.758l7.61-3.12037,2.30971-.80911,1.69207-.59366,2.15208-.75237,2.47973-.869,2.64544-.92625,1.04549-.36737.83849-.2929,1.13848-.40037.63759-.22256.55358-.19328,1.09836-.38631,4.99552-1.74942.22661-.07988,12.9638-4.54013,2.33338-.8173,1.6153-.56666.1461-.05175,2.11975-.74222,1.21323-.42594,21.31979-7.46862,1.67732-.58749,1.17131-.4105.00552-.00251.10418-.03625.17172-.05971.00551-.00251.7819-.27294.01679-.00758.00146.00026.13158-.04557,1.28992-.45129.31443-.11194.00194.00028.02164-.00676.17927-.06357,2.15241-.754.0017.00027.30136-.1055,1.67586-.58776.06584-.02361c.08985-.03348.17358-.0714.25731-.10931q.10359-.0501.20335-.10609a3.30135,3.30135,0,0,0,1.6438-3.25881Z"/><path class="cls-48" d="M134.5274,170.91546l2.17061,6.196,22.53311-7.89461,1.67733-.58746,2.25684-.792,6.38052-2.235a2.96242,2.96242,0,0,0,1.81145-3.76517l-.2169-.61938a2.96192,2.96192,0,0,0-3.76348-1.8112l-9.13058,3.19919Z"/><path class="cls-49" d="M159.369,165.8693a10.19031,10.19031,0,0,1-.13788,3.34756l1.67733-.58746,2.25684-.792,6.38052-2.235a2.96242,2.96242,0,0,0,1.81145-3.76517l-.2169-.61938a2.96192,2.96192,0,0,0-3.76348-1.8112l-9.13058,3.19919A10.63088,10.63088,0,0,1,159.369,165.8693Z"/><path class="cls-24" d="M134.24773,166.99354s5.202,2.31776,5.25506,2.32353c.7085.07728,2.78771,1.293,2.20669,3.044-.60359,1.81889-2.6581,2.00447-4.27776,1.47133a21.22943,21.22943,0,0,1-8.76492-4.1116"/><path class="cls-33" d="M137.63885,173.80751s.537-4.63512,1.86394-4.49042c.70852.07727,2.78773,1.293,2.20668,3.044C141.10592,174.18,138.55463,174.2405,137.63885,173.80751Z"/><path class="cls-24" d="M155.84715,159.90679a16.40524,16.40524,0,0,1-.82086,5.50173c-.23516.66125-.04854,3.02566,1.75291,3.26108,1.87127.24448,2.91638-1.49743,3.13793-3.16186a19.55408,19.55408,0,0,0-1.38495-9.14194l-2.24192,1.33951Z"/><path class="cls-33" d="M159.80625,165.68068s-4.33946-1.51062-4.77993-.27215c-.23519.66125-.04857,3.02567,1.7529,3.26106C158.65047,168.91411,159.79761,166.67817,159.80625,165.68068Z"/><path class="cls-50" d="M138.20571,173.9448c1.43585.12805,2.97927-.10643,3.45591-1.47653a2.55206,2.55206,0,0,0,.03742-1.22772,1.57934,1.57934,0,0,1,.229,1.45295,3.34187,3.34187,0,0,1-3.89208,1.71626,24.93237,24.93237,0,0,1-8.03312-2.599c-.45885-.63491-.653-1.13848-1.18049-1.83016C129.47192,170.37852,138.20571,173.9448,138.20571,173.9448Z"/></g></g></svg>