<svg xmlns="http://www.w3.org/2000/svg" xmlns:xlink="http://www.w3.org/1999/xlink" viewBox="0 0 2560 444.9"><defs><style>.cls-1,.cls-19,.cls-35{fill:#fff;}.cls-2,.cls-28,.cls-31,.cls-33,.cls-39,.cls-40{isolation:isolate;}.cls-3{fill:#cbedf8;}.cls-4{fill:#c5e9ff;}.cls-5{fill:#95d9fc;}.cls-6{fill:#5b90ce;}.cls-41,.cls-7{fill:#91b3e5;}.cls-8{fill:#6c98dd;}.cls-9{fill:#4a82c6;}.cls-10,.cls-43{fill:#5887cc;}.cls-11,.cls-44{fill:#4d7bb2;}.cls-12{clip-path:url(#clip-path);}.cls-13,.cls-22{fill:none;stroke-linecap:round;stroke-miterlimit:10;}.cls-13{stroke:#243a7f;}.cls-14{fill:#aec1f1;opacity:0.4;}.cls-14,.cls-28{mix-blend-mode:multiply;}.cls-15{fill:#dae4f2;}.cls-16{fill:#bdcef4;}.cls-17{fill:#b5cdff;}.cls-18{fill:#2d376e;}.cls-19{opacity:0.8;}.cls-20{fill:#7aa2dd;}.cls-21{fill:#b4cfef;}.cls-22{stroke:#2d376e;stroke-width:0.75px;}.cls-23{fill:#69aee2;}.cls-24{fill:#4ba6dd;}.cls-25{fill:#83b6e5;}.cls-26{fill:#c6ced5;}.cls-27{clip-path:url(#clip-path-2);}.cls-28{fill:#88c4d8;}.cls-28,.cls-31,.cls-33{opacity:0.4;}.cls-29{fill:#51a7dd;}.cls-30{fill:#3997c6;}.cls-31{fill:#52a4d1;}.cls-32{fill:#6eafe0;}.cls-33{fill:#46a3cc;}.cls-34{fill:#dfebf7;}.cls-35{opacity:0.8;}.cls-36{fill:#2b356a;}.cls-37{fill:#9dd0ed;}.cls-38{fill:#b9daef;}.cls-39{fill:#9c9dbd;opacity:0.45;}.cls-40{fill:#5f5881;opacity:0.1;}.cls-41,.cls-42,.cls-43,.cls-44,.cls-46,.cls-47,.cls-48,.cls-49,.cls-50{fill-rule:evenodd;}.cls-42{fill:#6196d6;}.cls-45{fill:#c1d6ea;}.cls-46{fill:#7a9fcc;}.cls-47,.cls-49{fill:#4070a0;}.cls-47{opacity:0.5;}.cls-48{fill:#4e8ac6;}.cls-50{fill:#558abf;}.cls-51{fill:#4d9dce;}</style><clipPath id="clip-path"><path id="SVGID" class="cls-1" d="M1341.54,222.31c.41,6.36,12.4,9.86,12.4,9.86s8.76-5,8.34-11.39-1.73-11.53-9.65-10.77C1343.31,210.9,1341.12,215.94,1341.54,222.31Z"/></clipPath><clipPath id="clip-path-2"><path id="SVGID-2" data-name="SVGID" class="cls-1" d="M1263.09,236.37c1.54,5.56,12.85,7.27,12.85,7.27s6.79-6.86,5.25-12.42-3.7-9.88-10.83-7.7C1262,226.09,1261.55,230.82,1263.09,236.37Z"/></clipPath></defs><g class="cls-2"><g id="レイヤー_2" data-name="レイヤー 2"><g id="boat"><circle class="cls-1" cx="1277.05" cy="201.55" r="201.55"/><path class="cls-3" d="M2560,259.22c-45.64.65-88.84,2.53-139.6,4-93.53,2.93-175.73-4.9-269.28-3.92-82.2.49-158.73,3.92-240.93,5.38-53.86,1-150.31-3.71-201.25-4.4-107.23-1.47-256.19-.36-256.35-.37s-149.19-1.1-256.42.37c-50.93.69-147.39,5.38-201.25,4.4-82.2-1.46-158.73-4.89-240.93-5.38-93.54-1-175.74,6.85-269.28,3.92-82.21-2.45-144.57-5.88-229.6-3.43-73.7,2.45-181.41,7-255.11,2.06v183H2560Z"/><path class="cls-4" d="M1211.14,85.75l-81.79,44.88a3,3,0,0,0,.56,5.54l92.45,25.45c1.82.53,1.86-1,2-2.91.44-4.89-13.7-15.13-16-34.69-2.86-24,7-30.24,7.17-35.56A3,3,0,0,0,1211.14,85.75Z"/><path class="cls-5" d="M1191.66,122.23a13.34,13.34,0,0,0-10.69-1.87,9.91,9.91,0,0,0-4.55,2.21c-1.8-.92-4.4-1-4.46-.54-.19.68,1.06,3.65,2.12,4.89a9.81,9.81,0,0,0,0,4.18c1.19,5.08,5.25,6,9.89,5.09,4.8-1,8.11-3.74,7.29-8.57a10.12,10.12,0,0,0-1.37-3.59C1191.07,123.31,1191.85,122.35,1191.66,122.23Z"/><path class="cls-6" d="M1230.64,190.57a3.4,3.4,0,0,0,.45,0,3.24,3.24,0,0,0,2.72-3.68l-17-113.34a3.24,3.24,0,0,0-6.4,1l17,113.34A3.22,3.22,0,0,0,1230.64,190.57Z"/><path class="cls-7" d="M1213.13,70.8a3.23,3.23,0,0,1,3.68,2.72l17,113.34a3.24,3.24,0,0,1-2.72,3.68,3.4,3.4,0,0,1-.45,0,2.12,2.12,0,0,1-.44,0,3.44,3.44,0,0,1-.31-1L1212.13,71.14A3.12,3.12,0,0,1,1213.13,70.8Z"/><path class="cls-8" d="M1326.65,232.34c-12.87,5.82-17.37-.86-17.23-3.14,2.3,3.12,6.19,4.54,11.13,2.45,6.33-2.68,6.48-10.32,4.25-14.33-3-5.31-13.46-10.26-21.8-2.64-4,3.66-7.22,13.16-2.52,20.24,5.57,8.4,17.17,12.62,26.74,5.12"/><path class="cls-9" d="M1320.55,231.65c-4.82,2-8.55.82-11.12-2.39,12.55,2.73,14.86-7.43,11.61-15.4a2.31,2.31,0,0,0,.94.26,11.56,11.56,0,0,1,2.82,3.2C1327,221.33,1326.88,229,1320.55,231.65Z"/><path class="cls-9" d="M1327.74,239.79c-3.49,3.13-15.08,8.48-25.21-3.1,3.13,3.5,13.27,3.86,23.78-2.68Z"/><path class="cls-8" d="M1323,228.88c.11-10.13,4.9-26.6,21.08-26.74s23.36,14.72,23.46,26.34a51.39,51.39,0,0,1-2.24,17.44c-.21.11-2.58,9.43-3.18,11.77l0,0-.16.51c-.63,1.92-1.43,3.1-2.27,3.55-1.63,1.12-3.54-.06-4.9-3.63,0,0-1-3-1.87-5.46a34.33,34.33,0,0,1-7.24.65,45.14,45.14,0,0,1-6.58-.52c-.81,2.46-1.65,5.54-1.65,5.54-2,5.57-5.45,5.45-7.23-.19l-.57-2.37-5.64-18.47A36.53,36.53,0,0,1,1323,228.88Z"/><path class="cls-10" d="M1356,160.74s5.55-.36,9.32-.18c7.38.35,11.48,2.45,17.37,6.5a27.16,27.16,0,0,1,2.32,1.75c3.17,2.72,7,5,6,8.05-1,3.22-4.36,3.49-7.28,3.86-2.28.28-4.58.46-6.9.69C1377.64,183.3,1356.76,162,1356,160.74Z"/><path class="cls-11" d="M1381.09,177.47a29.21,29.21,0,0,0,9.52.28c-1.33,2.38-4.26,2.64-6.88,3-2.28.28-4.58.46-6.9.69.4.92-4.38-3.69-9.46-8.79C1373.47,174.68,1377.07,176.71,1381.09,177.47Z"/><path id="SVGID-3" data-name="SVGID" class="cls-1" d="M1341.54,222.31c.41,6.36,12.4,9.86,12.4,9.86s8.76-5,8.34-11.39-1.73-11.53-9.65-10.77C1343.31,210.9,1341.12,215.94,1341.54,222.31Z"/><g class="cls-12"><path class="cls-13" d="M1362.33,216a66.38,66.38,0,0,1-6.11,8.72,48.1,48.1,0,0,1-6.75,6.66"/><path class="cls-13" d="M1344.8,228.92a88.54,88.54,0,0,0,6.63-7.29,87.8,87.8,0,0,0,5.33-7.66"/><path class="cls-13" d="M1346.11,215.09a48.81,48.81,0,0,0,15.66,10.1"/><path class="cls-13" d="M1341.7,219.79s3,2.1,7.59,5a50.48,50.48,0,0,0,8.8,4"/></g><path class="cls-14" d="M1326.39,216.67c0,4.07,15.26,10,25.28,9,7.79-.75,14.12-6.83,14.09-8.72s-2,.79-14.23,1.91C1337.86,220.1,1326.37,214.78,1326.39,216.67Z"/><path class="cls-8" d="M1357.26,156.75s11.81,1.94,17.2,12.32c5.85,11.22,3.78,16,5,21.14,0,0,.72,3.6,1.21,6.6s.74,6.16,0,8.68-3.74,13.18-33.25,15.27c-31.83,2.25-39-10.19-40.29-15.93-1.44-6.66-.85-16.32-.55-21.11.43-7,3.62-18,14.14-23.62S1345.51,154.11,1357.26,156.75Z"/><path class="cls-10" d="M1306.6,183.72c.43-7,3.62-18,14.14-23.62,7.16-3.85,16-5.23,24.71-4.89a43.39,43.39,0,0,0-18.08,5.43c-10.51,5.66-17,15.13-17.45,22.09-.3,4.8-.25,15.77,1.2,22.42,1.13,5.21,9.31,15.15,34.26,15.7-29.89,1.71-37-10.41-38.23-16C1305.7,198.17,1306.3,188.51,1306.6,183.72Z"/><path class="cls-15" d="M1377.07,205.72c1-3.3,1.36-10.15-2.18-14.48s-10-9-23.25-8.15-22.85,7.11-26.3,13c-1.95,3.31-9.71,25.1,28.27,21.3C1371.39,215.6,1376.07,209.11,1377.07,205.72Z"/><path class="cls-16" d="M1351.64,183.09c13.27-.83,19.71,3.81,23.25,8.15a10.08,10.08,0,0,1,1.31,2.14c-12-4.87-32-5.26-51.65,4.34a7.6,7.6,0,0,1,.9-1.83C1329,190.07,1338.51,183.91,1351.64,183.09Z"/><polygon class="cls-17" points="1354.75 176.75 1361.69 183.61 1355.43 189.94 1347.98 183.47 1354.75 176.75"/><polygon class="cls-1" points="1354.75 176.75 1355.43 189.94 1347.98 183.47 1354.75 176.75"/><path class="cls-8" d="M1313.84,179.92a1.28,1.28,0,0,1-1.83.51,15.23,15.23,0,0,1-6.49-5.06,28,28,0,0,1-5-18c.33-7,1.73-7.61,8.56-5.53,4.25,1.3,14.5,6.22,17.52,11.86C1326.74,164,1315.75,175.52,1313.84,179.92Z"/><path class="cls-10" d="M1300.51,157.4c.15-3.21.54-5.06,1.58-5.94,0,0,0,.1,0,.15a27.39,27.39,0,0,0,8,20.67c2,1.91,6,1.61,7.39,2.37-.81,1.73-3.18,4.3-3.6,5.27a1.28,1.28,0,0,1-1.83.51,15.23,15.23,0,0,1-6.49-5.06A28,28,0,0,1,1300.51,157.4Z"/><path class="cls-1" d="M1345.84,209.68c.23,3.42,4.5,4.79,9.41,4.27,4.3-.45,7.75-2.53,7.51-6s-3.53-6.19-8.46-5.86S1345.61,206.25,1345.84,209.68Z"/><path class="cls-18" d="M1352,205.81c.08,1.2,1.84,2,3.68,1.88,1.49-.09,2.75-1.22,2.67-2.42s-1.07-1.32-2.91-1.19S1351.88,204.61,1352,205.81Z"/><path class="cls-19" d="M1354.47,205.25c0,.42.56.72,1.2.68s1.14-.41,1.11-.82-.55-.48-1.19-.44S1354.44,204.83,1354.47,205.25Z"/><circle class="cls-18" cx="1341.71" cy="202.88" r="2.79"/><circle class="cls-1" cx="1340.79" cy="203.49" r="0.37"/><circle class="cls-1" cx="1342.39" cy="202.23" r="0.89"/><circle class="cls-18" cx="1364.73" cy="201.27" r="2.57"/><circle class="cls-1" cx="1365.56" cy="201.86" r="0.34"/><circle class="cls-1" cx="1364.12" cy="200.65" r="0.81"/><path class="cls-1" d="M1338.71,196.94c-.26,1.61,1.36,1.44,2.83,1.29s3.33.65,2.72-1.86a3,3,0,0,0-5.55.57Z"/><path class="cls-1" d="M1367.72,195.22c.58,1.52-1,1.69-2.51,1.84s-3.13,1.31-3-1.27a3,3,0,0,1,5.55-.57Z"/><path class="cls-7" d="M1334.39,222.32s.58.37,1.53.92c2.87,1.67,9.16,5.07,13.1,5.26,5.23.25,7.65-.75,13.41-4s7.52-6.16,10.87-6.52,3.25.81,3.7,2.41-7.66,39.52-7.66,39.52l-32.46-2.51s-3.08-3.22-1.85-11.75C1337,231.93,1334.39,222.32,1334.39,222.32Z"/><path class="cls-10" d="M1365.83,226.23c.08-.54.37-.86,1.24-1.21a8.34,8.34,0,0,1,3-.37,28,28,0,0,0-2.72,11c0,4.61-2.4,18.45-3.36,23.88l-3.4-.24Z"/><path class="cls-20" d="M1360.62,259.43c.25-2.62.6-13.24,2.91-28.77.64-4.32,1.19-5.32,1.19-5.32a4.35,4.35,0,0,0,2.61,2.47,7.51,7.51,0,0,0,6.17-1.44,8.59,8.59,0,0,0,3.18-6.67,5.48,5.48,0,0,1,.77,1.6c.48,1.59-8.19,38.53-8.19,38.53Z"/><path class="cls-21" d="M1349.23,228.8a20.9,20.9,0,0,0,2.25,0c3-.17,5.9-1.52,8.94-2.94l1.13-.52a39.17,39.17,0,0,0,7-4.72c.89-.7,1.67-1.31,2.22-1.67a4.23,4.23,0,0,1,3.08-.64,3.37,3.37,0,0,1,2.1,3,5.63,5.63,0,0,1-3.1,5.27c-2.42,1.17-3.29,1.27-5.45.93-1.27-.2-1.55-1-1.52-1.27.06-.84.84-1.09,2.32-1.36a14.42,14.42,0,0,1,1.92-.14l-.91-1.28a11.58,11.58,0,0,0-1.66.12c-1.27.23-2.88.64-3.13,2.46-.21,1.5.94,2.63,2.72,2.94,2.63.47,3.83.16,6.36-1.06a7.16,7.16,0,0,0,4-6.66,4.84,4.84,0,0,0-3.17-4.37,5.66,5.66,0,0,0-4.33.82c-.6.4-1.4,1-2.33,1.75a38.24,38.24,0,0,1-6.69,4.53l-1.14.53c-2.9,1.36-5.64,2.64-8.38,2.8-2.5.14-4.91.08-9.14-2.15-4-2.12-6.61-3.75-6.64-3.77l-1.22.93s3.07,2,7.16,4.16A17.72,17.72,0,0,0,1349.23,228.8Z"/><path class="cls-10" d="M1330.43,232.49a14.82,14.82,0,0,0,9.41,3.83c.23.08,4.44-.29,5.53.12-1.91,3.62-10.5,1-14.93-2.38A3.32,3.32,0,0,1,1330.43,232.49Z"/><path class="cls-15" d="M1374.61,235.31c.81.61,2.59-.36,3.16-1.89a3.61,3.61,0,0,0-1.14-4.55.77.77,0,0,0-1,.07C1372.84,231.78,1373.84,234.73,1374.61,235.31Z"/><path class="cls-22" d="M1358.73,208.4s0,1.54-1,1.74a3.32,3.32,0,0,1-2-.39,5.25,5.25,0,0,0,.14-2.76"/><path class="cls-22" d="M1350.65,209.22s0,1.71,2.51,1.51a6.11,6.11,0,0,0,2.48-1"/><path class="cls-8" d="M1334.94,227.08c1.81,1.67,7.92,4.52,8,4.55,1,.56,3.64,1.87,2.77,4.17s-3,2.15-5.47,1.83a21.55,21.55,0,0,1-10-5.11C1329.92,232.24,1334.94,227.08,1334.94,227.08Z"/><path class="cls-15" d="M1340.22,237.63h0c0-1.07.34-4.9,2.75-6l.2.1c1.13.61,3.38,1.89,2.56,4.06C1344.79,238.18,1342.72,238,1340.22,237.63Z"/><g id="left"><path class="cls-23" d="M1250.29,243.65c-7.84,9.34-14.75,5.27-15,3.35,2.83,2.1,7,1.87,10-1.6,3.92-4.45,1.18-10.45-2.06-12.73-4.28-3-14.3-2.95-17.94,6.1-1.74,4.34-.69,12.93,5.62,16.68,7.47,4.45,18.07,3.39,22.71-6"/><g class="cls-2"><path class="cls-24" d="M1251.51,246.79c-6,12.41-15.25,11-19,9.47.49.24,1,.45,1.46.64,7,2.56,15.48.73,19.55-7.31Z"/><path class="cls-24" d="M1236.69,241.19c1.56,2.23.84,5.14-1.22,5.9a6.49,6.49,0,0,0,2.52,1.12,7,7,0,0,0,4.39-.58,9.36,9.36,0,0,0,2.33-1.64s6.25-5.42-.68-12.71c-.63-.66-4-2.42-8.13-2.36a12.07,12.07,0,0,0-10.62,7.85C1224.81,240,1231.54,233.86,1236.69,241.19Z"/></g><path class="cls-25" d="M1286.21,232.68a23.56,23.56,0,0,0-1.43-4.54c-3.44-8.08-11.65-15.8-22.83-13.39-13.35,2.89-14.66,17.35-12.86,25.71a30.69,30.69,0,0,0,3.7,9.85c2.92,6,7.28,13.34,7.28,13.34,2.28,3.8,4.81,3.33,5.31-1.08,0,0,.58-2.73,1-4.51a2.17,2.17,0,0,1,1.35-1.57,42.09,42.09,0,0,1,9.1-2.16,2.16,2.16,0,0,1,2.13,1.1l2.09,3.69c2.27,3.81,4.8,3.33,5.3-1.07,0,0,.61-9.55.66-10a45.87,45.87,0,0,0,0-8.2A40.1,40.1,0,0,0,1286.21,232.68Z"/><path class="cls-26" d="M1280.76,258.68l.26.44c2.27,3.81,4.8,3.33,5.3-1.07,0,0,0-.17,0-.46A8,8,0,0,0,1280.76,258.68Z"/><path class="cls-26" d="M1259.83,263.24l.24.41c2.28,3.8,4.81,3.33,5.31-1.08l.08-.41A7.64,7.64,0,0,0,1259.83,263.24Z"/><path id="SVGID-4" data-name="SVGID" class="cls-1" d="M1263.09,236.37c1.54,5.56,12.85,7.27,12.85,7.27s6.79-6.86,5.25-12.42-3.7-9.88-10.83-7.7C1262,226.09,1261.55,230.82,1263.09,236.37Z"/><g class="cls-27"><path class="cls-1" d="M1272,232.39a74.27,74.27,0,0,0,9,2.56"/><path class="cls-18" d="M1281.12,235.3a.26.26,0,0,1-.15,0,73.38,73.38,0,0,1-9.06-2.58.37.37,0,1,1,.25-.69,74.28,74.28,0,0,0,8.91,2.55.36.36,0,0,1,0,.71Z"/><path class="cls-1" d="M1263.67,234.29c2.62,1,13.62,5.09,15.34,5.12"/><path class="cls-18" d="M1279.11,239.76l-.11,0c-1.83,0-13.66-4.46-15.94-5.3a.36.36,0,0,1-.21-.47.37.37,0,0,1,.47-.22c2.58,1,14,5.22,15.7,5.26a.36.36,0,0,1,.09.71Z"/><path class="cls-1" d="M1272.6,232.19a85.63,85.63,0,0,1-6.1,8.37"/><path class="cls-18" d="M1266.6,240.91a.34.34,0,0,1-.35-.09.37.37,0,0,1,0-.52,87.12,87.12,0,0,0,6-8.3.37.37,0,1,1,.63.38,88.5,88.5,0,0,1-6.15,8.43A.42.42,0,0,1,1266.6,240.91Z"/><path class="cls-1" d="M1280.68,229c-1.45,2.39-8.13,12.3-9.45,13.4"/><path class="cls-18" d="M1271.33,242.78a.36.36,0,0,1-.38-.12.37.37,0,0,1,0-.52c1.28-1.06,7.94-10.94,9.37-13.3a.37.37,0,0,1,.63.38c-1.26,2.07-8.11,12.31-9.53,13.49A.61.61,0,0,1,1271.33,242.78Z"/></g><path class="cls-28" d="M1274.16,236.7a19.05,19.05,0,0,0,10.6-8.7c-.31-.63-.66-1.25-1-1.86a56.08,56.08,0,0,1-10.94,4.46c-12.07,3.66-23.4,1-23,2.69C1250.54,237,1265.33,239.43,1274.16,236.7Z"/><g id="tai"><g id="head_gear" data-name="head gear"><path class="cls-29" d="M1243.44,224.43a44.72,44.72,0,0,0-22.2,7.45c8.13.21,13.93,1.93,14.91,3.28s6,2.64,9.24.29a49.92,49.92,0,0,1,8.43-3.92C1249.31,229.94,1245.49,227.36,1243.44,224.43Z"/><g id="tai-2" data-name="tai"><path class="cls-30" d="M1238.62,241.05c1.32.87,6,.39,8.39-2.49a10.06,10.06,0,0,0-3.79-5.89,11.31,11.31,0,0,0-6.24-1.78,43.92,43.92,0,0,0-12.38,10.88c0,.36,0,.74-.06,1.12C1231.73,240.52,1237.29,240.17,1238.62,241.05Z"/><path class="cls-23" d="M1243.35,224.29a48.86,48.86,0,0,0-22.11,7.59c8.13.21,13.93,1.93,14.91,3.28s6,2.64,9.24.29c1.27-.92,5-2.32,9.14-3.68C1249.63,230.18,1245.47,227.43,1243.35,224.29Z"/><path class="cls-25" d="M1224.61,241.69c7.68-2.68,13.71-3.1,15.1-2.18s6.55.34,8.76-3a38.63,38.63,0,0,1,4.89-5.16,23.4,23.4,0,0,1-8.6-5.33A45.23,45.23,0,0,0,1224.61,241.69Z"/><path class="cls-31" d="M1253.36,231.36q-.72-.27-1.41-.57l-.45-.2c-.3-.14-.61-.28-.9-.43l-.51-.26-.79-.43-.5-.29-.74-.47-.45-.3-.79-.58-.31-.23c-.34-.27-.66-.54-1-.82l-.34-.33-.44-.42-.83.35c2.44,3.29,3.7,6.9-1.36,13.45l.74-.12.11,0,.63-.16.19-.06.59-.2.19-.07c.24-.1.49-.21.74-.34l.11-.06.58-.34.25-.17c.14-.1.28-.2.42-.32a2.52,2.52,0,0,0,.25-.21,4.17,4.17,0,0,0,.37-.36c.08-.08.16-.15.23-.23s.27-.34.4-.52a1.47,1.47,0,0,1,.1-.13,38.63,38.63,0,0,1,4.89-5.16Z"/></g></g></g><path class="cls-32" d="M1289.45,195c4,2.3,10.27.79,10.16-1.82-.22-4.8-13.47-18.43-23.11-16.8C1276.5,176.34,1277.17,183.82,1289.45,195Z"/><path class="cls-33" d="M1286.39,191.74c-.75-.68,1,1.38,3.06,3.22,3.81,2.17,9.58.94,10.11-1.39C1296,194.21,1289.29,193.39,1286.39,191.74Z"/><path class="cls-25" d="M1229.36,190.54c4.58-10.25,11.15-13.94,23.5-17a34.83,34.83,0,0,1,5.67-1l1.92-.11c13-.73,24.91,6.35,29.09,18.69.23.68.67,1.84.89,2.53a31.71,31.71,0,0,0,1.45,3.64c2.3,4.89,2.49,5.31,3.76,11.32,2.54,12-12.09,24.93-32,25.87-20.44,1-36.94-5.33-37-25.65a81.57,81.57,0,0,1,.76-10.78A21.54,21.54,0,0,1,1229.36,190.54Z"/><path class="cls-32" d="M1267.31,234c-20.45,1-36.94-5.33-37-25.65a81.57,81.57,0,0,1,.76-10.78,21.33,21.33,0,0,1,2-7.54c4.58-10.25,11.15-13.94,23.5-17,.76-.19,1.56-.36,2.35-.51l-.32,0a34.83,34.83,0,0,0-5.67,1c-12.35,3.07-18.92,6.76-23.5,17a21.54,21.54,0,0,0-2,7.54,81.57,81.57,0,0,0-.76,10.78c.09,20.32,16.59,26.63,37,25.65a46.51,46.51,0,0,0,5.65-.61C1268.66,234,1268,234,1267.31,234Z"/><path id="SVGID-5" data-name="SVGID" class="cls-34" d="M1267.34,200.35c13.7-2.73,23,2.25,24.69,11.54,1.47,8.31-5.51,14.74-17.58,17.6-13.59,3.21-27,3.64-29.6-8.3S1253.63,203.07,1267.34,200.35Z"/><path class="cls-35" d="M1278.46,209.32c.11,2.08,1.35,1,2.52.81s2.46-.46,1.89-1.64a2.14,2.14,0,0,0-2.42-1.15A2.22,2.22,0,0,0,1278.46,209.32Z"/><path class="cls-35" d="M1261.71,213.17c.8,1.92-.77,1.52-1.92,1.82s-2.42.64-2.42-.67a2.13,2.13,0,0,1,1.69-2.07A2.22,2.22,0,0,1,1261.71,213.17Z"/><path class="cls-36" d="M1279.38,215.2a3,3,0,1,0,5.21-2.82,3,3,0,0,0-5.21,2.82Z"/><path class="cls-1" d="M1279.79,214.38a1.33,1.33,0,1,0,.54-1.8A1.33,1.33,0,0,0,1279.79,214.38Z"/><path class="cls-1" d="M1282.86,214.47a.36.36,0,1,0,.15-.49A.36.36,0,0,0,1282.86,214.47Z"/><path class="cls-36" d="M1263.7,218.92a2.93,2.93,0,0,1-5.82-.61,2.93,2.93,0,0,1,5.82.61Z"/><path class="cls-1" d="M1262.82,218.44a1.31,1.31,0,1,1-1.17-1.44A1.32,1.32,0,0,1,1262.82,218.44Z"/><path class="cls-1" d="M1260.25,219.57a.37.37,0,0,1-.4.32.36.36,0,0,1-.32-.4.36.36,0,0,1,.39-.32A.37.37,0,0,1,1260.25,219.57Z"/><path class="cls-1" d="M1266.87,223.64c.64,3.11,3.69,3.37,6.8,2.73s4.95-2.57,4.47-5.05c-.6-3.12-3.53-4.37-6.64-3.73S1266.23,220.53,1266.87,223.64Z"/><ellipse class="cls-37" cx="1285.28" cy="218.69" rx="2.65" ry="1.79" transform="translate(-17.69 263.85) rotate(-11.64)"/><ellipse class="cls-37" cx="1259.85" cy="224.92" rx="3.04" ry="2.06" transform="translate(-19.71 248.15) rotate(-11.16)"/><path class="cls-36" d="M1271,221.45c.14.79,1.37,1.19,2.59,1a1.77,1.77,0,0,0,1.59-1.81c-.14-.79-.81-.79-2-.58S1270.83,220.66,1271,221.45Z"/><path class="cls-19" d="M1272.59,220.89c.05.28.43.44.85.37s.73-.36.68-.63-.4-.28-.82-.2S1272.55,220.62,1272.59,220.89Z"/><path class="cls-38" d="M1288.83,205.13a14.22,14.22,0,0,0-3.65-3l-.18-.1a18.22,18.22,0,0,0-3.14-1.35l-.57-.18-.93-.25-.9-.19c-.4-.08-.81-.15-1.22-.2s-.76-.11-1.15-.14-.52-.05-.78-.06q-.63,0-1.29-.06h-.63c-.64,0-1.29,0-2,.06l-.56.05c-.54,0-1.09.1-1.65.17l-.64.08c-.73.1-1.48.22-2.24.38h0l-1.46.31c-9.62,2.12-17.82,6-20.47,12.57-.09.27-.18.54-.25.82,5.23-2.39,15.51-5.25,25.62-7.26S1283.45,204.91,1288.83,205.13Z"/><path class="cls-1" d="M1261,201.77l8.25,5.26,4.12-7.49-7.55-5.72Z"/><polygon class="cls-39" points="1269.23 207.03 1273.35 199.54 1265.8 193.82 1269.23 207.03"/><path class="cls-25" d="M1234.65,201.64c-2.49,8.67-18.63,11.31-18.86,7.24-.32-5.66,8.84-24,20.85-23.9Z"/><path class="cls-32" d="M1234.75,201l.49-4.13c-.17-.56-.48-.69-1,0-5.25,7.32-13.37,10.47-17.81,12.3a1.37,1.37,0,0,0,.19.23C1219.84,211.62,1232.57,208.65,1234.75,201Z"/><path id="shadow" class="cls-40" d="M1264,267.45c13.35-.58,24.13-2.08,24.08-3.36s-10.93-1.84-24.28-1.26-24.13,2.08-24.08,3.36S1250.62,268,1264,267.45Z"/></g><path class="cls-41" d="M1244.71,281.54,1359,281.3a10.62,10.62,0,0,0,6-1.85A60.38,60.38,0,0,0,1374,272l0,0h0l0,0,.08-.08h0l0,0,.23-.24,0-.05,0,0,0,0h0l.07-.07.07-.08,0,0,0,0,.06-.07.14-.14,0,0,0-.05h0a1.07,1.07,0,0,0,.14-.16l.12-.12.22-.25,0,0,0,0,0,0,0,0,.12-.14,0,0h0l0,0,.05-.05.18-.21,0,0,.22-.25.07-.09a44.21,44.21,0,0,0,6.06-9.2l.07-.15,0,0,0,0,0,0,0-.07c0-.1.09-.19.13-.29l.06-.12.06-.13,0-.08v0h0l0-.08v0c.07-.14.13-.29.2-.43l0-.08,0,0v0c.1-.22.19-.44.28-.66h0v0l0,0a43.83,43.83,0,0,0,3.07-12.59,52.47,52.47,0,0,0,.21-5.65,1.36,1.36,0,0,0-1.44-1.32l-14.56.76-1.12.06-2.36.12-12.29.65-58,2.72-20.87,1.09-51.58,2.71-1.86.1-2.75.14a1.37,1.37,0,0,0-1.29,1.36V267a13.54,13.54,0,0,0,10.5,13.26l.19.05A82,82,0,0,0,1244.71,281.54Z"/><polygon class="cls-8" points="1218.75 249.77 1218.75 258.02 1278.83 250.47 1224.65 246.28 1223.05 246.16 1222.79 246.38 1218.75 249.77"/><path class="cls-42" d="M1386.81,238.09l-17.08.9c.39,18.08-7.9,31.93-23.3,42.31h12.49a11,11,0,0,0,6.27-1.93C1379.83,269.25,1387.55,255.73,1386.81,238.09Z"/><path class="cls-43" d="M1213.54,249.79v.08a3.82,3.82,0,0,0,4,3.82l13.25-.7,139.79-7,18-.95a3.82,3.82,0,0,0,3.6-3.44c0-.08,0-.17,0-.26V241a3.82,3.82,0,0,0-4-3.68l-17.39.91L1272,243.09,1217.16,246A3.83,3.83,0,0,0,1213.54,249.79Z"/><path class="cls-44" d="M1370.6,246l18-.95a3.82,3.82,0,0,0,3.6-3.44c0-.2,0-.39,0-.59a3.82,3.82,0,0,0-4-3.68l-17.39.91h0A58.18,58.18,0,0,1,1370.6,246Z"/><path class="cls-45" d="M1371.77,269.44h-1l-1,0h-2.48l-1.51,0-1,0h-.52l-1,0h-1l-1.55,0-1.09,0h0l-34.9.49c-32,.46-77.86,1.2-105.29,1.63a12.54,12.54,0,0,0,1.13,2.57c25.38-.39,57.13-.85,86.91-1.28,13.74-.19,37.79-.62,49.86-.79l4.62-.06,2.53,0h1l1,0,1.48,0,1.45,0h.5l1.42,0,2.81,0,0,0,0,0,0,0,.08-.08h0l.16-.16.11-.13,0,0,0,0,0,0h0l.07-.07.06-.07h0l0,0,0,0h0l0-.05h0l.14-.14,0,0,0-.05h0l.14-.16,0,0,0,0,.26-.29,0,0,0,0,0,0,0,0,.12-.14,0,0h0l0,0h0l.15-.17,0,0,0,0,0,0,.17-.21.08-.09,0,0-3.76.06Z"/><path class="cls-45" d="M1383,259h0a2.29,2.29,0,0,0,.1-.23l.05-.09.09-.21h0c.07-.18.15-.35.22-.53l.09-.22,0,0-1,0-.9,0-1.08,0-1.67.05-1.11,0-.95,0-1.07,0-1,0-1.1,0-1.87.05-5.53.15h0l-21.19.57-5.49.15-10.59.29c-31.17.85-76.27,2-103.77,2.82l-6.57.19v2.59c29.68-.85,80-2.18,114.83-3.13l7.43-.2,24.18-.66h0l1.08,0,1.07,0,1.06,0,1.06,0,4.14-.12,1,0,2-.06,1,0,4.76-.13c0-.05,0-.09.07-.13l.07-.16,0,0,0,0,0,0,0-.07.07-.17h0v-.05l.09-.19.06-.13,0-.08v0l.06-.12Z"/><path class="cls-46" d="M1357.21,272.23l4.62-.06,2.53,0h1l1,0,1.48,0,1.45,0h.5l1.42,0,2.81,0,0,0h0l0,0,0,0,0,0,0,0,.23-.24,0-.05,0,0,0,0h0l.1-.11,0,0h0l0,0,0,0h0l.19-.2,0,0,0-.05h0l.14-.16,0,0,0,0,0,0,.22-.25,0,0,0,0,0,0,0,0,.12-.14,0,0h0l0,0h0l0,0,.12-.14,0,0,0,0,0,0,.18-.21,0,0,.07-.09-3.76.06h-1.93l-1,0h-2.48l-1.51,0-1,0h-.52l-1,0h-1l-1.55,0-1.09,0h0c-.36.45-.73.89-1.11,1.33l-.29.32c-.2.22-.39.44-.59.65l-.28.31Zm8-11.46h0l1.08,0,1.07,0,1.06,0,1.06,0,4.14-.12,1,0,2-.06,1,0,4.76-.13,0,0,.12-.25,0,0,0,0,0,0,.1-.2,0,0,0,0,0,0,.07-.16.06-.13,0-.12,0-.08,0,0,0,0,0-.05,0,0v0l.09-.2.06-.13,0,0,0,0,0-.08,0,0,0-.09.13-.3.07-.15v0l0-.09-1,0-.9,0-1.08,0-1.67.05-1.11,0-.95,0-1.07,0-1,0-1.1,0-1.87.05-5.52.15h0C1366,259,1365.61,259.91,1365.19,260.77Z"/><polygon class="cls-47" points="1272.01 243.09 1251.56 244.17 1249.6 244.86 1247.81 245.48 1246.78 245.84 1246.39 245.98 1237.47 249.1 1237.14 249.22 1234.27 250.22 1234.2 250.25 1232.94 250.69 1232.91 250.7 1232.54 250.83 1231.84 251.08 1230.24 251.63 1228.78 252.15 1227.07 252.75 1225.59 253.26 1230.81 252.99 1248.81 252.09 1248.81 252.09 1260.28 251.51 1262.56 250.72 1264.89 249.9 1266.5 249.33 1266.65 249.28 1268.77 248.54 1269.98 248.11 1286.32 242.39 1272.01 243.09"/><path class="cls-48" d="M1299.15,233c0-.09,0-.19,0-.29s-.07-.25-.11-.38v0a3.29,3.29,0,0,0-4.18-2l-.64.22h0l-1.27.44-.79.28h0l-2.56.9-1.4.49-2.16.76-.47.16-2.44.86h0l-1.11.38-19.7,6.91-.45.15-7.08,2.48-1.78.63-1,.36-.38.14-8.92,3.12-.33.12-2.87,1-.08,0-1.25.44h0l-.38.13-.69.24-1.6.56-1.47.52-1.7.6-1.49.52-9.18,3.21-1.14.4-1.17.41-7.33,2.57a1.5,1.5,0,0,1-1.48-.32c-1.91-1.64-5.6-.93-8.12-.19l-4.42,1.29-.35.12-27.75,10a3.09,3.09,0,0,0-1.8,3.86l.88,2.56c.47,1.23,3.8,9.54,3.8,9.54a4.66,4.66,0,0,0,5.76,2.88l20.78-6,.13-.05,6.72-2.73c4.25-1.72,10.34-5,9.46-9.65a35.81,35.81,0,0,0-.62-3.53,1.58,1.58,0,0,1,.94-1.76l7.61-3.12,2.31-.81,1.69-.59,2.16-.75,2.48-.87,2.64-.93,1-.37.83-.29,1.14-.4.64-.22.55-.19,1.1-.39,5-1.75.22-.08,13-4.54,2.33-.82,1.62-.56.14-.06,2.12-.74,1.22-.42L1287,240l1.67-.59,1.17-.41h0l.1,0,.18-.06h0l.78-.27h0l.13,0,1.29-.45.32-.11h0l.18-.06,2.15-.75h0l.31-.11,1.67-.59.07,0,.26-.11.2-.11a3.3,3.3,0,0,0,1.64-3.26Z"/><path class="cls-49" d="M1262.27,241.68l2.17,6.19L1287,240l1.67-.59,2.26-.79,6.38-2.24a3,3,0,0,0,1.81-3.76l-.21-.62a3,3,0,0,0-3.77-1.81l-9.13,3.2Z"/><path class="cls-50" d="M1287.11,236.63A10.19,10.19,0,0,1,1287,240l1.67-.59,2.26-.79,6.38-2.24a3,3,0,0,0,1.81-3.76l-.21-.62a3,3,0,0,0-3.77-1.81l-9.13,3.2A10.49,10.49,0,0,1,1287.11,236.63Z"/><path class="cls-25" d="M1262,237.75s5.2,2.32,5.26,2.33c.71.07,2.79,1.29,2.2,3s-2.65,2-4.27,1.47a21.23,21.23,0,0,1-8.77-4.11"/><path class="cls-34" d="M1265.38,244.57s.54-4.64,1.87-4.49c.71.07,2.79,1.29,2.2,3S1266.3,245,1265.38,244.57Z"/><path class="cls-25" d="M1283.59,230.67a16.18,16.18,0,0,1-.82,5.5c-.23.66,0,3,1.75,3.26s2.92-1.5,3.14-3.16a19.49,19.49,0,0,0-1.38-9.14l-2.24,1.34Z"/><path class="cls-34" d="M1287.55,236.44s-4.34-1.51-4.78-.27c-.23.66,0,3,1.75,3.26S1287.54,237.44,1287.55,236.44Z"/><path class="cls-51" d="M1266,244.71c1.44.12,3-.11,3.46-1.48a2.58,2.58,0,0,0,0-1.23,1.54,1.54,0,0,1,.23,1.45,3.34,3.34,0,0,1-3.89,1.72,24.86,24.86,0,0,1-8-2.6c-.46-.63-.66-1.14-1.18-1.83C1257.22,241.14,1266,244.71,1266,244.71Z"/></g></g></g></svg>