<svg xmlns="http://www.w3.org/2000/svg" xmlns:xlink="http://www.w3.org/1999/xlink" viewBox="0 0 264.51 218.55"><defs><clipPath id="clip-path"><path id="SVGID" d="M213.79,151.55c.42,6.36,12.4,9.86,12.4,9.86s8.76-5,8.35-11.4-1.74-11.52-9.66-10.76C215.56,140.14,213.38,145.18,213.79,151.55Z" style="fill:#fff"/></clipPath><clipPath id="clip-path-2"><path id="SVGID-2" data-name="SVGID" d="M135.35,165.61c1.54,5.56,12.85,7.27,12.85,7.27s6.79-6.86,5.24-12.42-3.69-9.88-10.83-7.7C134.22,155.32,133.8,160.06,135.35,165.61Z" style="fill:#fff"/></clipPath></defs><g style="isolation:isolate"><g id="レイヤー_2" data-name="レイヤー 2"><g id="boat"><path d="M83.39,15,1.61,59.87a3,3,0,0,0,.55,5.54L94.61,90.86c1.83.53,1.87-1,2-2.92.45-4.88-13.69-15.12-16-34.68-2.86-24,7-30.24,7.18-35.56A3,3,0,0,0,83.39,15Z" style="fill:#c5e9ff"/><path d="M63.92,51.47a13.37,13.37,0,0,0-10.7-1.87,9.88,9.88,0,0,0-4.54,2.21c-1.8-.92-4.41-1-4.47-.54-.18.68,1.07,3.65,2.12,4.89a10.15,10.15,0,0,0,0,4.18c1.19,5.07,5.25,6,9.9,5.09s8.1-3.74,7.29-8.57a10.12,10.12,0,0,0-1.37-3.59C63.33,52.55,64.1,51.59,63.92,51.47Z" style="fill:#95d9fc"/><path d="M102.9,119.81l.44,0a3.24,3.24,0,0,0,2.72-3.68L89.07,2.76a3.24,3.24,0,0,0-6.4,1l17,113.34A3.23,3.23,0,0,0,102.9,119.81Z" style="fill:#5b90ce"/><path d="M85.39,0a3.24,3.24,0,0,1,3.68,2.72l17,113.34a3.24,3.24,0,0,1-2.72,3.68l-.44,0a2.27,2.27,0,0,1-.45,0,3.43,3.43,0,0,1-.3-1L84.39.38A3,3,0,0,1,85.39,0Z" style="fill:#91b3e5"/><path d="M198.91,161.58c-12.88,5.82-17.38-.86-17.23-3.14,2.29,3.12,6.18,4.54,11.12,2.45,6.34-2.68,6.48-10.32,4.25-14.33-3-5.31-13.46-10.26-21.8-2.64-4,3.66-7.21,13.16-2.52,20.24,5.58,8.4,17.18,12.62,26.75,5.12" style="fill:#6c98dd"/><path d="M192.8,160.89c-4.81,2-8.55.82-11.11-2.39,12.54,2.73,14.85-7.43,11.6-15.4a2.58,2.58,0,0,0,.94.26,11.56,11.56,0,0,1,2.82,3.2C199.28,150.57,199.14,158.21,192.8,160.89Z" style="fill:#4a82c6"/><path d="M200,169c-3.5,3.13-15.08,8.48-25.22-3.1,3.13,3.49,13.28,3.86,23.79-2.68Z" style="fill:#4a82c6"/><path d="M195.28,158.12c.11-10.13,4.9-26.6,21.09-26.75s23.35,14.73,23.46,26.35a51.24,51.24,0,0,1-2.25,17.44c-.21.11-2.58,9.43-3.17,11.77l0,0-.17.51c-.63,1.92-1.42,3.1-2.26,3.55-1.64,1.12-3.55-.06-4.9-3.63,0,0-1-3-1.87-5.46a34.5,34.5,0,0,1-7.25.65,45.11,45.11,0,0,1-6.57-.52c-.82,2.45-1.66,5.54-1.66,5.54-2,5.57-5.44,5.45-7.23-.19L202,185l-5.65-18.47A37.17,37.17,0,0,1,195.28,158.12Z" style="fill:#6c98dd"/><path d="M228.27,90s5.56-.36,9.33-.18c7.38.35,11.47,2.45,17.37,6.5a28.83,28.83,0,0,1,2.32,1.75c3.16,2.72,7,5,6,8-1,3.22-4.36,3.49-7.27,3.86-2.28.28-4.58.46-6.91.68C249.9,112.54,229,91.23,228.27,90Z" style="fill:#5887cc"/><path d="M253.35,106.71a29.21,29.21,0,0,0,9.52.28c-1.34,2.38-4.27,2.64-6.88,3-2.28.28-4.58.46-6.91.68.4.93-4.38-3.68-9.45-8.78C245.72,103.92,249.33,106,253.35,106.71Z" style="fill:#4d7bb2"/><path id="SVGID-3" data-name="SVGID" d="M213.79,151.55c.42,6.36,12.4,9.86,12.4,9.86s8.76-5,8.35-11.4-1.74-11.52-9.66-10.76C215.56,140.14,213.38,145.18,213.79,151.55Z" style="fill:#fff"/><g style="clip-path:url(#clip-path)"><path d="M234.59,145.2a67.08,67.08,0,0,1-6.12,8.72,47.49,47.49,0,0,1-6.75,6.66" style="fill:none;stroke:#243a7f;stroke-linecap:round;stroke-miterlimit:10"/><path d="M217.05,158.16a89.75,89.75,0,0,0,6.64-7.29,90.79,90.79,0,0,0,5.32-7.66" style="fill:none;stroke:#243a7f;stroke-linecap:round;stroke-miterlimit:10"/><path d="M218.36,144.33A48.81,48.81,0,0,0,234,154.43" style="fill:none;stroke:#243a7f;stroke-linecap:round;stroke-miterlimit:10"/><path d="M214,149s3,2.1,7.58,5a50.36,50.36,0,0,0,8.81,4" style="fill:none;stroke:#243a7f;stroke-linecap:round;stroke-miterlimit:10"/></g><path d="M198.64,145.91c0,4.07,15.27,10,25.29,9,7.78-.75,14.11-6.84,14.09-8.72s-2,.79-14.23,1.91C210.12,149.34,198.62,144,198.64,145.91Z" style="fill:#aec1f1;opacity:0.400000005960465;mix-blend-mode:multiply"/><path d="M229.51,86s11.81,1.94,17.21,12.31c5.84,11.23,3.77,16,5,21.15,0,0,.71,3.6,1.2,6.6s.74,6.16,0,8.68S249.2,147.91,219.7,150c-31.84,2.25-39-10.19-40.3-15.93-1.44-6.66-.84-16.32-.55-21.11.43-7,3.63-18,14.14-23.62S217.76,83.35,229.51,86Z" style="fill:#6c98dd"/><path d="M178.85,113c.43-7,3.63-18,14.14-23.62,7.16-3.86,16.06-5.23,24.72-4.89a43.35,43.35,0,0,0-18.08,5.43c-10.51,5.66-17,15.13-17.46,22.09-.29,4.8-.24,15.77,1.2,22.42,1.13,5.21,9.31,15.15,34.26,15.7-29.88,1.71-37-10.41-38.23-16C178,127.41,178.56,117.75,178.85,113Z" style="fill:#5887cc"/><path d="M249.33,135c1-3.3,1.35-10.15-2.19-14.48s-10-9-23.25-8.15-22.85,7.11-26.3,13c-1.94,3.31-9.7,25.1,28.27,21.3C243.65,144.84,248.32,138.35,249.33,135Z" style="fill:#dae4f2"/><path d="M223.89,112.33c13.28-.83,19.72,3.81,23.25,8.15a9.12,9.12,0,0,1,1.31,2.14c-12-4.87-32-5.26-51.65,4.34a7.6,7.6,0,0,1,.9-1.83C201.25,119.31,210.76,113.14,223.89,112.33Z" style="fill:#bdcef4"/><polygon points="227 105.99 233.95 112.85 227.68 119.18 220.24 112.71 227 105.99" style="fill:#b5cdff"/><polygon points="227 105.99 227.68 119.18 220.24 112.71 227 105.99" style="fill:#fff"/><path d="M186.1,109.15a1.29,1.29,0,0,1-1.84.52,15.16,15.16,0,0,1-6.48-5.06,28,28,0,0,1-5-18c.34-7,1.74-7.61,8.56-5.53,4.26,1.3,14.5,6.22,17.53,11.86C199,93.24,188,104.76,186.1,109.15Z" style="fill:#6c98dd"/><path d="M172.76,86.64c.16-3.21.55-5.07,1.59-5.94a.76.76,0,0,0,0,.15,27.38,27.38,0,0,0,8,20.67c2,1.91,6,1.61,7.39,2.37-.81,1.73-3.18,4.3-3.59,5.26a1.29,1.29,0,0,1-1.84.52,15.16,15.16,0,0,1-6.48-5.06A28,28,0,0,1,172.76,86.64Z" style="fill:#5887cc"/><path d="M218.09,138.91c.24,3.43,4.5,4.8,9.42,4.28,4.29-.45,7.74-2.54,7.51-6s-3.53-6.19-8.46-5.86S217.86,135.49,218.09,138.91Z" style="fill:#fff"/><path d="M224.22,135.05c.08,1.2,1.84,2,3.68,1.88,1.49-.09,2.74-1.22,2.66-2.42s-1.07-1.32-2.9-1.2S224.14,133.85,224.22,135.05Z" style="fill:#2d376e"/><path d="M226.72,134.49c0,.42.56.72,1.2.68s1.14-.41,1.12-.82-.55-.48-1.19-.44S226.69,134.07,226.72,134.49Z" style="fill:#fff;opacity:0.800000011920929"/><circle cx="213.96" cy="132.12" r="2.79" style="fill:#2d376e"/><circle cx="213.05" cy="132.73" r="0.37" style="fill:#fff"/><circle cx="214.64" cy="131.47" r="0.89" style="fill:#fff"/><circle cx="236.99" cy="130.5" r="2.57" style="fill:#2d376e"/><circle cx="237.81" cy="131.1" r="0.34" style="fill:#fff"/><circle cx="236.38" cy="129.89" r="0.81" style="fill:#fff"/><path d="M211,126.18c-.27,1.61,1.35,1.44,2.83,1.29s3.32.65,2.72-1.86a2.7,2.7,0,0,0-2.83-1.66A2.67,2.67,0,0,0,211,126.18Z" style="fill:#fff"/><path d="M240,124.46c.59,1.52-1,1.69-2.51,1.84s-3.12,1.31-3-1.27a2.7,2.7,0,0,1,2.44-2.2A2.67,2.67,0,0,1,240,124.46Z" style="fill:#fff"/><path d="M206.65,151.56s.57.37,1.52.92c2.88,1.67,9.16,5.07,13.1,5.26,5.24.25,7.66-.75,13.41-4s7.53-6.16,10.87-6.52,3.25.81,3.7,2.41-7.66,39.52-7.66,39.52l-32.46-2.51s-3.07-3.22-1.85-11.75C209.25,161.17,206.65,151.56,206.65,151.56Z" style="fill:#91b3e5"/><path d="M238.08,155.47c.09-.54.37-.86,1.25-1.21a8.28,8.28,0,0,1,3-.37,27.88,27.88,0,0,0-2.71,11c0,4.61-2.41,18.45-3.37,23.88l-3.4-.24Z" style="fill:#5887cc"/><path d="M232.87,188.67c.25-2.62.61-13.24,2.91-28.77.64-4.32,1.2-5.32,1.2-5.32a4.35,4.35,0,0,0,2.6,2.47,7.5,7.5,0,0,0,6.17-1.44,8.52,8.52,0,0,0,3.18-6.67,5.24,5.24,0,0,1,.77,1.6c.48,1.59-8.19,38.53-8.19,38.53Z" style="fill:#7aa2dd"/><path d="M221.49,158a20.93,20.93,0,0,0,2.25,0c3-.17,5.9-1.52,8.93-2.94l1.14-.52a39.1,39.1,0,0,0,7-4.72c.9-.7,1.68-1.31,2.23-1.68a4.25,4.25,0,0,1,3.08-.63,3.37,3.37,0,0,1,2.1,3,5.64,5.64,0,0,1-3.1,5.26c-2.43,1.18-3.29,1.28-5.45.94-1.27-.2-1.55-1-1.53-1.27.07-.84.84-1.09,2.32-1.36a14.68,14.68,0,0,1,1.93-.14l-.92-1.28a10.25,10.25,0,0,0-1.66.12c-1.27.23-2.87.64-3.13,2.46-.2,1.5,1,2.63,2.73,2.94,2.62.47,3.83.16,6.36-1.06a7.13,7.13,0,0,0,3.94-6.66,4.84,4.84,0,0,0-3.16-4.37,5.68,5.68,0,0,0-4.34.82c-.6.4-1.4,1-2.32,1.74a38.5,38.5,0,0,1-6.69,4.54l-1.14.53c-2.9,1.36-5.65,2.64-8.39,2.8-2.49.14-4.9.07-9.13-2.15-4-2.12-6.62-3.75-6.65-3.77l-1.21.93s3.06,2,7.16,4.16A17.82,17.82,0,0,0,221.49,158Z" style="fill:#b4cfef"/><path d="M202.68,161.73a14.82,14.82,0,0,0,9.41,3.83c.23.08,4.44-.29,5.54.12-1.92,3.62-10.51,1-14.93-2.38C202.51,163.16,202.62,161.68,202.68,161.73Z" style="fill:#5887cc"/><path d="M246.87,164.55c.81.61,2.59-.36,3.16-1.89a3.63,3.63,0,0,0-1.14-4.55.77.77,0,0,0-1,.07C245.09,161,246.09,164,246.87,164.55Z" style="fill:#dae4f2"/><path d="M231,137.64s0,1.54-1,1.74a3.28,3.28,0,0,1-2-.39,5.33,5.33,0,0,0,.13-2.76" style="fill:none;stroke:#2d376e;stroke-linecap:round;stroke-miterlimit:10;stroke-width:0.75px"/><path d="M222.9,138.46s0,1.71,2.51,1.51a6.11,6.11,0,0,0,2.49-1" style="fill:none;stroke:#2d376e;stroke-linecap:round;stroke-miterlimit:10;stroke-width:0.75px"/><path d="M207.19,156.32c1.81,1.67,7.93,4.52,8,4.55,1,.56,3.63,1.87,2.77,4.17s-3,2.15-5.47,1.83a21.5,21.5,0,0,1-10-5.11C202.17,161.48,207.19,156.32,207.19,156.32Z" style="fill:#6c98dd"/><path d="M212.48,166.87h0c0-1.07.34-4.9,2.76-6l.19.1c1.14.61,3.39,1.89,2.57,4.06C217,167.42,215,167.19,212.48,166.87Z" style="fill:#dae4f2"/><g id="left"><path d="M122.54,172.89c-7.84,9.34-14.74,5.27-15,3.35,2.83,2.1,7,1.87,10-1.6,3.93-4.45,1.18-10.45-2-12.73A12.36,12.36,0,0,0,97.54,168c-1.75,4.34-.69,12.93,5.61,16.68,7.48,4.45,18.08,3.39,22.71-6" style="fill:#69aee2"/><g style="isolation:isolate"><path d="M123.76,176c-6,12.41-15.25,11-19,9.47.5.24,1,.45,1.46.64,7,2.56,15.49.72,19.55-7.31Z" style="fill:#4ba6dd"/><path d="M108.94,170.43c1.56,2.23.85,5.14-1.21,5.9a6.49,6.49,0,0,0,2.52,1.12,7,7,0,0,0,4.38-.58,9.4,9.4,0,0,0,2.34-1.64s6.25-5.42-.68-12.71c-.63-.66-4-2.42-8.14-2.36A12.06,12.06,0,0,0,97.54,168C97.06,169.19,103.79,163.1,108.94,170.43Z" style="fill:#4ba6dd"/></g><path d="M158.47,161.92a24.28,24.28,0,0,0-1.43-4.54c-3.44-8.08-11.66-15.8-22.83-13.39-13.35,2.89-14.67,17.35-12.86,25.71a30.45,30.45,0,0,0,3.7,9.85c2.92,6,7.28,13.34,7.28,13.34,2.27,3.8,4.8,3.33,5.3-1.08,0,0,.59-2.73,1-4.51a2.17,2.17,0,0,1,1.35-1.57,41.8,41.8,0,0,1,9.1-2.16,2.15,2.15,0,0,1,2.12,1.1l2.09,3.69c2.28,3.81,4.81,3.33,5.31-1.07,0,0,.6-9.55.65-10a45.73,45.73,0,0,0,0-8.19A40,40,0,0,0,158.47,161.92Z" style="fill:#83b6e5"/><path d="M153,187.91l.25.45c2.28,3.81,4.81,3.33,5.31-1.07,0,0,0-.17,0-.46A8.06,8.06,0,0,0,153,187.91Z" style="fill:#c6ced5"/><path d="M132.08,192.48l.25.41c2.27,3.8,4.8,3.33,5.3-1.08,0,0,0-.15.09-.41A7.68,7.68,0,0,0,132.08,192.48Z" style="fill:#c6ced5"/><path id="SVGID-4" data-name="SVGID" d="M135.35,165.61c1.54,5.56,12.85,7.27,12.85,7.27s6.79-6.86,5.24-12.42-3.69-9.88-10.83-7.7C134.22,155.32,133.8,160.06,135.35,165.61Z" style="fill:#fff"/><g style="clip-path:url(#clip-path-2)"><path d="M144.29,161.63a74.34,74.34,0,0,0,9,2.56" style="fill:#fff"/><path d="M153.38,164.54a.38.38,0,0,1-.15,0,73.94,73.94,0,0,1-9.07-2.58.36.36,0,0,1-.21-.47.37.37,0,0,1,.47-.22,73.69,73.69,0,0,0,8.9,2.55.36.36,0,0,1,.06.71Z" style="fill:#2d376e"/><path d="M135.92,163.53c2.62,1,13.63,5.09,15.34,5.12" style="fill:#fff"/><path d="M151.36,169l-.1,0c-1.84,0-13.67-4.46-15.94-5.3a.37.37,0,0,1,.25-.69c2.58,1,14.05,5.22,15.7,5.26a.37.37,0,0,1,.36.37A.36.36,0,0,1,151.36,169Z" style="fill:#2d376e"/><path d="M144.86,161.43a87.33,87.33,0,0,1-6.1,8.37" style="fill:#fff"/><path d="M138.86,170.15a.37.37,0,0,1-.36-.09.37.37,0,0,1,0-.52,88.91,88.91,0,0,0,6.05-8.3.36.36,0,1,1,.62.38,88.5,88.5,0,0,1-6.15,8.43A.34.34,0,0,1,138.86,170.15Z" style="fill:#2d376e"/><path d="M152.94,158.27c-1.45,2.39-8.13,12.3-9.45,13.4" style="fill:#fff"/><path d="M143.59,172a.37.37,0,0,1-.39-.12.39.39,0,0,1,.05-.52c1.28-1.06,7.94-10.94,9.38-13.3a.36.36,0,0,1,.62.38c-1.26,2.07-8.11,12.31-9.53,13.49Z" style="fill:#2d376e"/></g><path d="M146.42,165.94a19.05,19.05,0,0,0,10.6-8.7c-.32-.63-.67-1.25-1-1.86A56.29,56.29,0,0,1,145,159.84c-12.07,3.66-23.4,1-23,2.69C122.79,166.19,137.58,168.67,146.42,165.94Z" style="fill:#88c4d8;opacity:0.4;mix-blend-mode:multiply;isolation:isolate"/><g id="tai"><g id="head_gear" data-name="head gear"><path d="M115.7,153.67a44.69,44.69,0,0,0-22.2,7.45c8.13.21,13.92,1.93,14.9,3.28s6,2.63,9.25.29a49.92,49.92,0,0,1,8.43-3.92C121.56,159.18,117.74,156.6,115.7,153.67Z" style="fill:#51a7dd"/><g id="tai-2" data-name="tai"><path d="M110.88,170.29c1.31.87,6,.39,8.38-2.5a10.1,10.1,0,0,0-3.78-5.88,11.25,11.25,0,0,0-6.24-1.78A43.92,43.92,0,0,0,96.86,171c0,.36-.06.74-.07,1.12C104,169.76,109.55,169.41,110.88,170.29Z" style="fill:#3997c6"/><path d="M115.6,153.53a48.79,48.79,0,0,0-22.1,7.59c8.13.21,13.92,1.93,14.9,3.28s6,2.63,9.25.29c1.27-.93,5-2.32,9.13-3.68C121.89,159.42,117.72,156.67,115.6,153.53Z" style="fill:#69aee2"/><path d="M96.86,170.93c7.69-2.68,13.72-3.1,15.1-2.18s6.56.34,8.76-3a38.89,38.89,0,0,1,4.9-5.16,23.31,23.31,0,0,1-8.6-5.33A45.25,45.25,0,0,0,96.86,170.93Z" style="fill:#83b6e5"/><path d="M125.62,160.6q-.72-.27-1.41-.57l-.45-.2-.91-.43-.5-.26-.8-.43-.49-.3c-.26-.15-.5-.31-.74-.46l-.45-.3c-.28-.19-.54-.38-.79-.58l-.31-.23c-.34-.27-.66-.54-1-.82l-.34-.33-.44-.42-.83.35c2.44,3.28,3.69,6.9-1.37,13.45.24,0,.5-.07.75-.12l.1,0,.64-.16.19-.06.59-.2.18-.07a7,7,0,0,0,.74-.34l.11-.06c.2-.11.4-.22.59-.34l.24-.17c.15-.1.29-.21.43-.32l.25-.21c.13-.11.25-.24.37-.36l.22-.23a6.54,6.54,0,0,0,.4-.52,1.47,1.47,0,0,1,.1-.13,38.89,38.89,0,0,1,4.9-5.16Z" style="fill:#52a4d1;opacity:0.4;isolation:isolate"/></g></g></g><path d="M161.7,124.2c4,2.3,10.28.79,10.16-1.82-.21-4.8-13.47-18.43-23.11-16.8C148.75,105.58,149.42,113.06,161.7,124.2Z" style="fill:#6eafe0"/><path d="M158.64,121c-.74-.68,1,1.38,3.06,3.22,3.81,2.17,9.58.94,10.12-1.39C168.3,123.45,161.54,122.63,158.64,121Z" style="fill:#46a3cc;opacity:0.4;isolation:isolate"/><path d="M101.61,119.78c4.59-10.25,11.16-13.94,23.5-17a34.83,34.83,0,0,1,5.67-1l1.93-.11c13-.73,24.9,6.35,29.09,18.69.23.68.67,1.84.89,2.53a30,30,0,0,0,1.45,3.64c2.3,4.89,2.48,5.31,3.76,11.32,2.53,12-12.1,24.93-32,25.87-20.45,1-36.94-5.33-37-25.65a80.46,80.46,0,0,1,.77-10.78A21.52,21.52,0,0,1,101.61,119.78Z" style="fill:#83b6e5"/><path d="M139.56,163.28c-20.44,1-36.93-5.33-37-25.65a80.46,80.46,0,0,1,.77-10.78,21.52,21.52,0,0,1,2-7.54c4.59-10.25,11.16-13.94,23.5-17,.76-.19,1.56-.36,2.35-.51l-.32,0a34.83,34.83,0,0,0-5.67,1c-12.34,3.07-18.91,6.76-23.5,17a21.52,21.52,0,0,0-2,7.54,80.46,80.46,0,0,0-.77,10.78c.1,20.32,16.59,26.62,37,25.65a47,47,0,0,0,5.65-.61C140.91,163.2,140.24,163.25,139.56,163.28Z" style="fill:#6eafe0"/><path id="SVGID-5" data-name="SVGID" d="M139.59,129.59c13.71-2.73,23,2.25,24.69,11.54,1.48,8.31-5.5,14.74-17.58,17.6-13.59,3.21-27,3.64-29.6-8.3S125.89,132.31,139.59,129.59Z" style="fill:#dfebf7"/><path d="M150.71,138.56c.11,2.08,1.36,1,2.53.81s2.45-.46,1.88-1.64a2.12,2.12,0,0,0-2.41-1.15A2.24,2.24,0,0,0,150.71,138.56Z" style="fill:#fff;opacity:0.8"/><path d="M134,142.41c.79,1.92-.78,1.52-1.93,1.82s-2.42.64-2.41-.67a2.14,2.14,0,0,1,1.68-2.08A2.25,2.25,0,0,1,134,142.41Z" style="fill:#fff;opacity:0.8"/><path d="M151.63,144.44a3,3,0,1,0,5.21-2.82,3,3,0,0,0-5.21,2.82Z" style="fill:#2b356a"/><path d="M152.05,143.62a1.32,1.32,0,1,0,.54-1.8A1.33,1.33,0,0,0,152.05,143.62Z" style="fill:#fff"/><path d="M155.11,143.71a.37.37,0,1,0,.15-.49A.37.37,0,0,0,155.11,143.71Z" style="fill:#fff"/><path d="M136,148.16a2.92,2.92,0,1,1-5.81-.61,2.93,2.93,0,0,1,5.81.61Z" style="fill:#2b356a"/><path d="M135.07,147.68a1.31,1.31,0,1,1-1.16-1.44A1.31,1.31,0,0,1,135.07,147.68Z" style="fill:#fff"/><path d="M132.5,148.81a.36.36,0,0,1-.4.32.37.37,0,0,1-.32-.4.36.36,0,1,1,.72.08Z" style="fill:#fff"/><path d="M139.13,152.88c.64,3.11,3.68,3.37,6.79,2.73s5-2.57,4.48-5.05c-.61-3.12-3.53-4.37-6.64-3.73S138.49,149.77,139.13,152.88Z" style="fill:#fff"/><ellipse cx="157.54" cy="147.93" rx="2.65" ry="1.79" transform="translate(-26.61 34.83) rotate(-11.64)" style="fill:#9dd0ed"/><ellipse cx="132.11" cy="154.16" rx="3.04" ry="2.06" transform="translate(-27.35 28.49) rotate(-11.16)" style="fill:#9dd0ed"/><path d="M143.23,150.69c.14.79,1.37,1.19,2.58,1a1.76,1.76,0,0,0,1.59-1.81c-.14-.79-.8-.79-2-.58S143.08,149.89,143.23,150.69Z" style="fill:#2b356a"/><path d="M144.85,150.13c.05.28.43.44.85.37s.72-.36.68-.63-.4-.28-.82-.2S144.8,149.85,144.85,150.13Z" style="fill:#fff;opacity:0.800000011920929"/><path d="M161.09,134.37a14.27,14.27,0,0,0-3.66-3l-.17-.1a18.22,18.22,0,0,0-3.14-1.35l-.58-.18-.92-.25-.91-.19c-.4-.08-.8-.15-1.22-.21l-1.15-.14-.77-.05c-.43,0-.86,0-1.3-.06h-.62c-.64,0-1.3,0-2,.06l-.55.05c-.55,0-1.1.1-1.66.17l-.63.08c-.74.1-1.48.22-2.25.38h0l-1.46.31c-9.62,2.12-17.83,6-20.47,12.57-.09.27-.19.54-.26.82C122.62,140.9,132.9,138,143,136S155.71,134.15,161.09,134.37Z" style="fill:#b9daef"/><path d="M133.24,131l8.25,5.26,4.12-7.49-7.56-5.72Z" style="fill:#fff"/><polygon points="141.49 136.27 145.61 128.78 138.05 123.06 141.49 136.27" style="fill:#9c9dbd;opacity:0.449999988079071;isolation:isolate"/><path d="M106.9,130.88c-2.48,8.67-18.63,11.31-18.86,7.24-.31-5.66,8.84-24,20.86-23.9Z" style="fill:#83b6e5"/><path d="M107,130.28l.5-4.13c-.17-.56-.49-.69-1,0-5.25,7.32-13.37,10.47-17.81,12.3a2.11,2.11,0,0,0,.19.23C92.1,140.86,104.82,137.89,107,130.28Z" style="fill:#6eafe0"/><path id="shadow" d="M136.23,196.69c13.35-.58,24.13-2.08,24.07-3.36s-10.92-1.84-24.27-1.26-24.14,2.08-24.08,3.36S122.87,197.27,136.23,196.69Z" style="fill:#5f5881;opacity:0.100000001490116;isolation:isolate"/></g><path d="M117,210.78l114.34-.24a10.56,10.56,0,0,0,6-1.85,61,61,0,0,0,9-7.45l0,0h0l0,0a.3.3,0,0,1,.08-.08h0l0,0,.23-.25,0,0,0,0,0,0h0l.07-.07.07-.08,0,0,0,0,.06-.06.13-.14,0,0,0,0h0l.15-.16.11-.12.23-.25,0,0,0,0,0,0,0-.05.12-.13,0,0h0l0,0,0-.05.18-.21,0,0a2.62,2.62,0,0,1,.22-.25l.07-.09a44.16,44.16,0,0,0,6.05-9.2l.08-.15,0,0,0,0,0,0,0-.08c.05-.09.09-.18.14-.28l.05-.12.06-.13,0-.08,0,0h0l0-.08v0l.19-.43,0-.08,0,0,0,0c.09-.22.18-.44.28-.66h0l0,0v0a43.25,43.25,0,0,0,3.07-12.6,49.75,49.75,0,0,0,.21-5.64,1.36,1.36,0,0,0-1.43-1.32l-14.56.76-1.12.06-2.36.12-12.29.65-58,2.72-20.87,1.09-51.57,2.71-1.87.1-2.75.14A1.36,1.36,0,0,0,91,177.12v19.12A13.53,13.53,0,0,0,101.5,209.5l.2,0A81.34,81.34,0,0,0,117,210.78Z" style="fill:#91b3e5;fill-rule:evenodd"/><polygon points="91.01 179.01 91.01 187.26 151.09 179.71 96.91 175.52 95.31 175.4 95.04 175.62 91.01 179.01" style="fill:#6c98dd"/><path d="M259.06,167.33l-17.07.9c.38,18.08-7.9,31.93-23.3,42.31h12.48a11,11,0,0,0,6.27-1.93C252.09,198.48,259.8,185,259.06,167.33Z" style="fill:#6196d6;fill-rule:evenodd"/><path d="M85.79,179v.08a3.83,3.83,0,0,0,4,3.82l13.25-.7,139.79-7,18-.95a3.81,3.81,0,0,0,3.6-3.44,2.11,2.11,0,0,0,0-.26v-.07a1.13,1.13,0,0,0,0-.26,3.81,3.81,0,0,0-4-3.68l-17.38.91-98.83,4.86-54.86,2.88A3.83,3.83,0,0,0,85.79,179Z" style="fill:#5887cc;fill-rule:evenodd"/><path d="M242.86,175.22l18-.95a3.81,3.81,0,0,0,3.6-3.44c0-.2,0-.39,0-.59a3.81,3.81,0,0,0-4-3.68l-17.38.91h0A61.75,61.75,0,0,1,242.86,175.22Z" style="fill:#4d7bb2;fill-rule:evenodd"/><path d="M244,198.68h-1l-1,0h-2.48l-1.51,0-1,0h-.52l-1,0H234.4l-1.54,0-1.1,0h0l-34.9.49c-32,.46-77.86,1.2-105.29,1.63a12.54,12.54,0,0,0,1.13,2.57c25.38-.39,57.13-.85,86.91-1.28,13.73-.19,37.79-.62,49.86-.79l4.62-.06,2.53,0h1l1,0,1.47,0,1.46,0H242l1.42,0,2.82,0,0,0,0,0,0,0a.3.3,0,0,1,.08-.08h0l.15-.16.12-.13,0,0,0,0,0,0h0l.07-.07.06-.07h0l0,0,0,0h0l.05-.05h0l.13-.14,0,0,0,0h0l.14-.16,0,0,0,0,.27-.29,0,0,0,0,0,0,0-.05.12-.13,0,0h0l0,0h0l.15-.17,0,0,0,0,0,0,.18-.21.07-.09,0,0-3.76,0Z" style="fill:#c1d6ea"/><path d="M255.27,188.26v0h0a2.29,2.29,0,0,1,.1-.23l0-.09.09-.21h0c.08-.18.15-.35.22-.53a1.47,1.47,0,0,0,.1-.22v0l-1,0-.89,0-1.08,0-1.67.05-1.11,0-1,0-1.06,0-1,0-1.1,0-1.88.05-5.52.15h0l-21.19.57-5.5.15-10.58.29c-31.17.85-76.27,2-103.77,2.82l-6.57.19V194c29.68-.85,80-2.18,114.82-3.13l7.44-.2,24.17-.66h.05l1.08,0,1.07,0,1.07,0,1,0,4.14-.12,1,0,2-.06,1,0,4.76-.13.07-.13.08-.16,0,0,0,0,0,0,0-.08.08-.16h0v-.05l.09-.19.06-.13,0-.08,0,0,.05-.12Z" style="fill:#c1d6ea"/><path d="M229.47,201.47l4.62-.06,2.53,0h1l1,0,1.47,0,1.46,0H242l1.42,0,2.82,0,0,0h0l0,0,0,0,0,0,0,0,.23-.25,0,0,0,0,0,0h0l.1-.11,0,0h0l0,0,0,0h0l.19-.2,0,0,0,0h0l.14-.16,0,0,0,0,0,0,.23-.25,0,0,0,0,0,0,0-.05.12-.13,0,0h0l0,0h0l0,0,.12-.14,0,0,0,0,0,0,.18-.21,0,0,.07-.09-3.76,0-.89,0h-1l-1,0h-2.48l-1.51,0-1,0h-.52l-1,0H234.4l-1.54,0-1.1,0h0c-.37.44-.74.89-1.12,1.32l-.29.33-.58.65-.29.31Zm8-11.46h.05l1.08,0,1.07,0,1.07,0,1,0,4.14-.12,1,0,2-.06,1,0,4.77-.13,0,0,.12-.25,0,0,0,0,0,0,.09-.2,0,0,0,0,0,0,.07-.16.06-.13.06-.12,0-.08,0,0v0l0,0,0,0,0,0,.09-.2.05-.13,0,0,0,0,0-.08v0l0-.09.13-.3.06-.15,0,0,0-.09-1,0-.89,0-1.08,0-1.67.05-1.11,0-1,0-1.06,0-1,0-1.1,0-1.88.05-5.52.15h0C238.25,188.28,237.86,189.15,237.44,190Z" style="fill:#7a9fcc;fill-rule:evenodd"/><polygon points="144.27 172.33 123.82 173.41 121.85 174.1 120.07 174.72 119.03 175.08 118.65 175.22 109.73 178.34 109.4 178.46 106.53 179.46 106.45 179.49 105.19 179.93 105.17 179.94 104.79 180.07 104.1 180.32 102.5 180.88 101.03 181.39 99.33 181.99 97.85 182.5 103.07 182.23 121.06 181.33 121.06 181.33 132.53 180.75 134.81 179.96 137.14 179.14 138.76 178.57 138.9 178.52 141.02 177.78 142.24 177.35 158.57 171.63 144.27 172.33" style="fill:#4070a0;fill-rule:evenodd;opacity:0.5"/><path d="M171.41,162.21c0-.09,0-.19,0-.29a2.72,2.72,0,0,0-.11-.38v0a3.27,3.27,0,0,0-4.17-2l-.64.22h0l-1.26.44-.79.28h0l-2.56.9-1.39.49-2.16.76-.47.16-2.45.86h0l-1.11.38-19.69,6.91-.45.15L127,173.55l-1.78.63-1,.36-.38.14-8.93,3.12-.33.12-2.87,1-.07,0-1.26.44h0l-.38.13-.7.24-1.59.56-1.47.52-1.71.6L103,182l-9.17,3.21-1.15.4-1.17.41-7.32,2.57a1.51,1.51,0,0,1-1.49-.32c-1.9-1.64-5.6-.93-8.11-.19l-4.42,1.29-.35.12-27.75,10a3.08,3.08,0,0,0-1.8,3.86l.87,2.56c.48,1.22,3.81,9.54,3.81,9.54a4.65,4.65,0,0,0,5.76,2.88l20.78-6,.13,0,6.72-2.73c4.24-1.72,10.33-5,9.45-9.65a31.63,31.63,0,0,0-.62-3.53,1.58,1.58,0,0,1,.95-1.76l7.61-3.12,2.31-.81,1.69-.59,2.15-.75,2.48-.87,2.65-.93,1-.37.84-.29,1.14-.4.64-.22.55-.19,1.1-.39,5-1.75.23-.08,13-4.54,2.34-.82,1.61-.56.15-.06,2.12-.74,1.21-.42,21.32-7.47,1.68-.59,1.17-.41h0l.1,0,.17-.06h0l.78-.28h0l.13-.05,1.29-.45.31-.11h0l.18-.06,2.15-.76h0l.3-.11,1.68-.59.06,0,.26-.11.2-.11a3.29,3.29,0,0,0,1.65-3.26Z" style="fill:#4e8ac6;fill-rule:evenodd"/><path d="M134.53,170.92l2.17,6.19,22.53-7.89,1.68-.59,2.26-.79,6.38-2.24a3,3,0,0,0,1.81-3.76l-.22-.62a3,3,0,0,0-3.76-1.81l-9.13,3.2Z" style="fill:#4070a0;fill-rule:evenodd"/><path d="M159.37,165.87a10.19,10.19,0,0,1-.14,3.35l1.68-.59,2.26-.79,6.38-2.24a3,3,0,0,0,1.81-3.76l-.22-.62a3,3,0,0,0-3.76-1.81l-9.13,3.2A10.66,10.66,0,0,1,159.37,165.87Z" style="fill:#558abf;fill-rule:evenodd"/><path d="M134.25,167s5.2,2.32,5.25,2.33c.71.07,2.79,1.29,2.21,3s-2.66,2-4.28,1.47a21.16,21.16,0,0,1-8.76-4.11" style="fill:#83b6e5"/><path d="M137.64,173.81s.54-4.64,1.86-4.49c.71.07,2.79,1.29,2.21,3S138.55,174.24,137.64,173.81Z" style="fill:#dfebf7"/><path d="M155.85,159.91a16.76,16.76,0,0,1-.82,5.5c-.24.66-.05,3,1.75,3.26s2.92-1.5,3.14-3.16a19.58,19.58,0,0,0-1.39-9.14l-2.24,1.34Z" style="fill:#83b6e5"/><path d="M159.81,165.68s-4.34-1.51-4.78-.27c-.24.66-.05,3,1.75,3.26S159.8,166.68,159.81,165.68Z" style="fill:#dfebf7"/><path d="M138.21,173.94c1.43.13,3-.1,3.45-1.47a2.46,2.46,0,0,0,0-1.23,1.6,1.6,0,0,1,.23,1.45,3.34,3.34,0,0,1-3.89,1.72,25,25,0,0,1-8-2.6c-.46-.63-.65-1.14-1.18-1.83C129.47,170.38,138.21,173.94,138.21,173.94Z" style="fill:#4d9dce"/></g></g></g></svg>