<svg xmlns="http://www.w3.org/2000/svg" viewBox="0 0 2560 167.98"><defs><style>.cls-1{fill:#ddf4fd;}</style></defs><g id="レイヤー_2" data-name="レイヤー 2"><g id="wave"><path class="cls-1" d="M2560,168V3.52c-40.74,1.29-83.25,2.46-112.88,1.93C2364.92,4,2288.39.55,2206.19.06c-93.54-1-148,14.1-241.56,11.16C1882.42,8.77,1760.77,4,1729.05,3.89s-119.92.09-171.49.85S1314.22-2.37,1201,1.28C1116,4,1044.72,5.2,962.52,7.64,869,10.58,792.46-.92,698.92.06c-82.2.49-159.59,8-241.79,9.46-53.86,1-149.46-7.79-200.4-8.48C149-.43,51,1.65,0,.67V168Z"/></g></g></svg>