<svg xmlns="http://www.w3.org/2000/svg" viewBox="0 0 2559 185.83"><g id="レイヤー_2" data-name="レイヤー 2"><g id="wave_under"><path d="M2559,.23c-45.62.64-88.8,2.53-139.54,4C2326,7.21,2243.79-.63,2150.28.35c-82.17.49-158.67,3.92-240.84,5.39-53.83,1-150.25-3.71-201.17-4.41C1601.09-.13,1452.19,1,1452,1s-149.13-1.1-256.31.36c-50.92.7-147.34,5.39-201.18,4.41C912.37,4.27,835.86.84,753.69.35,660.19-.63,578,7.21,484.52,4.27,402.35,1.82,340-1.61,255,.84,181.34,3.29,73.67,7.8,0,2.9V185.83H2559Z" style="fill:#cbedf8"/></g></g></svg>