<svg xmlns="http://www.w3.org/2000/svg" viewBox="0 0 2560 103.1"><defs><style>.cls-1{fill:#bee5f4;}</style></defs><g id="レイヤー_2" data-name="レイヤー 2"><g id="wave"><path class="cls-1" d="M2560,4.57c-40.74,2.38-83.25,4.76-112.88,4.22C2364.92,7.33,2288.39.9,2206.19.41c-93.54-1-175.74,9.85-269.28,6.92-82.2-2.45-144.56-4.88-229.6-2.43C1636.55,7.25,1512.07.18,1452.2,0c-27.52-.08-180.94,7.34-254.4,4.9-85-2.45-147.4,0-229.6,2.43C874.66,10.26,792.46-.57,698.92.41,616.72.9,540.19,7.33,458,8.79c-53.86,1-150.32-7.71-201.26-8.41C149-1.08,51,5,0,4V103.1H2560Z"/></g></g></svg>