<svg width="375" height="250" viewBox="0 0 375 250" fill="none" xmlns="http://www.w3.org/2000/svg">
<rect width="375" height="250" fill="#FAFAFA"/>
<path fill-rule="evenodd" clip-rule="evenodd" d="M31 28C29.3431 28 28 29.3431 28 31V141C28 142.657 29.3431 144 31 144H182.8L189.143 154.571C189.531 155.218 190.469 155.218 190.857 154.571L197.2 144H344C345.657 144 347 142.657 347 141V31C347 29.3431 345.657 28 344 28H31Z" fill="#EBEBEB"/>
<path d="M81.154 48.85C80.972 48.889 80.738 48.902 80.244 48.902H76.409C76.071 48.902 75.837 48.889 75.577 48.837V50.215C75.785 50.176 75.902 50.176 76.162 50.163C76.669 51.398 77.046 52.022 77.839 52.854C77.072 53.387 76.227 53.777 75.07 54.115V52.165C75.07 51.671 75.07 51.502 75.109 51.216C74.888 51.255 74.745 51.255 74.238 51.255H72.002C71.599 51.255 71.326 51.242 71.001 51.216C71.053 51.528 71.066 51.827 71.066 52.243V54.154C71.066 54.622 71.04 55.038 70.988 55.441H72.314V54.817H73.835V55.259H75.122C75.083 54.934 75.07 54.778 75.07 54.336C75.343 54.674 75.525 54.973 75.733 55.441C77.059 54.96 77.982 54.466 78.853 53.777C79.737 54.466 80.582 54.882 82.103 55.402C82.285 54.869 82.454 54.531 82.753 54.011C81.336 53.621 80.738 53.387 79.854 52.828C80.569 52.061 81.05 51.294 81.609 50.085C81.791 49.682 81.791 49.682 81.869 49.552L81.154 48.85ZM80.101 50.15C79.646 51.047 79.373 51.437 78.814 52.022C78.203 51.424 77.839 50.904 77.514 50.15H80.101ZM72.314 52.386H73.835V53.673H72.314V52.386ZM71.04 45.002C71.365 44.963 71.664 44.95 72.132 44.95H74.004C74.472 44.95 74.745 44.963 75.096 45.002V43.741C74.745 43.793 74.537 43.806 74.004 43.806H72.132C71.599 43.806 71.391 43.793 71.04 43.741V45.002ZM70.624 46.926C70.936 46.887 71.209 46.874 71.677 46.874H74.42C74.966 46.874 75.135 46.887 75.408 46.926V45.587C75.122 45.626 74.901 45.639 74.355 45.639H71.677C71.183 45.639 70.936 45.626 70.624 45.574V46.926ZM71.066 48.759C71.326 48.733 71.508 48.72 71.924 48.72H74.238C74.628 48.72 74.784 48.733 75.07 48.759V47.55C74.836 47.576 74.667 47.589 74.238 47.589H71.924C71.508 47.589 71.313 47.576 71.066 47.55V48.759ZM71.066 50.592C71.339 50.566 71.508 50.553 71.911 50.553H74.212C74.641 50.553 74.771 50.553 75.07 50.592V49.383C74.836 49.409 74.667 49.422 74.238 49.422H71.924C71.508 49.422 71.313 49.409 71.066 49.383V50.592ZM79.204 45.119V47.407C79.204 48.096 79.477 48.252 80.738 48.252C82.389 48.252 82.532 48.096 82.688 45.964C82.246 45.847 81.908 45.704 81.518 45.496C81.44 47.056 81.44 47.056 80.92 47.056C80.608 47.056 80.517 47.004 80.517 46.835V44.911C80.517 44.43 80.53 44.092 80.569 43.806C80.231 43.845 79.919 43.858 79.464 43.858H77.475C77.072 43.858 76.786 43.845 76.448 43.806C76.5 44.144 76.513 44.274 76.513 44.677C76.513 46.38 76.188 47.173 75.161 47.927C75.538 48.161 75.915 48.46 76.292 48.824C76.747 48.421 76.994 48.096 77.254 47.589C77.618 46.861 77.748 46.25 77.787 45.119H79.204ZM91.606 47.407H90.787C90.098 47.407 89.63 47.381 89.214 47.329V48.824C89.669 48.772 90.228 48.746 90.8 48.746H91.606V53.491C91.606 54.44 91.58 54.934 91.515 55.454H93.14C93.075 54.921 93.049 54.388 93.049 53.491V48.746H93.959C94.583 48.746 95.038 48.772 95.545 48.824V47.329C95.116 47.381 94.674 47.407 93.972 47.407H93.049V45.054C93.049 44.352 93.075 43.936 93.14 43.494H91.515C91.593 43.988 91.606 44.326 91.606 45.054V47.407ZM84.235 45.093C84.56 45.054 84.885 45.041 85.353 45.041H87.602C88.096 45.041 88.343 45.054 88.707 45.093V43.819C88.369 43.871 88.122 43.884 87.602 43.884H85.353C84.82 43.884 84.56 43.871 84.235 43.819V45.093ZM83.689 46.952C84.066 46.9 84.352 46.887 84.781 46.887H88.135C88.681 46.887 88.941 46.9 89.24 46.939V45.639C88.928 45.691 88.642 45.704 88.135 45.704H84.794C84.313 45.704 84.014 45.678 83.689 45.626V46.952ZM84.248 48.759C84.547 48.72 84.677 48.72 85.106 48.72H87.862C88.278 48.72 88.395 48.72 88.694 48.759V47.524C88.421 47.563 88.304 47.563 87.862 47.563H85.106C84.677 47.563 84.521 47.55 84.248 47.524V48.759ZM84.248 50.605C84.521 50.579 84.677 50.566 85.093 50.566H87.836C88.265 50.566 88.434 50.579 88.694 50.605V49.37C88.421 49.409 88.304 49.409 87.862 49.409H85.106C84.651 49.409 84.482 49.396 84.248 49.37V50.605ZM85.613 54.869H87.42V55.272H88.811C88.759 54.947 88.746 54.635 88.746 54.141V52.23C88.746 51.775 88.759 51.528 88.798 51.229C88.551 51.255 88.356 51.268 87.953 51.268H85.158C84.677 51.268 84.495 51.255 84.248 51.229C84.287 51.58 84.3 51.827 84.3 52.243V54.206C84.3 54.713 84.287 55.077 84.235 55.454H85.613V54.869ZM85.587 52.451H87.433V53.712H85.587V52.451Z" fill="#212121"/>
<path d="M180.22 48.018C180.22 48.369 180.22 48.369 180.207 48.733H177.919C177.282 48.733 177.061 48.72 176.749 48.681V49.916C177.087 49.877 177.295 49.864 177.919 49.864H180.116C180.077 50.176 180.051 50.319 179.999 50.566H176.593C175.943 50.566 175.631 50.553 175.28 50.501V51.866C175.748 51.814 176.164 51.788 176.671 51.788H179.544C179.154 52.451 178.647 52.919 177.893 53.309C177.113 53.712 176.437 53.907 175.072 54.102C175.449 54.648 175.527 54.791 175.761 55.454C177.204 55.168 178.023 54.856 178.933 54.284C179.804 53.725 180.363 53.127 180.831 52.243C181.637 53.387 182.521 54.089 183.912 54.713C184.601 55.012 185.134 55.181 186.343 55.467C186.512 54.921 186.72 54.518 187.019 54.063C186.304 53.933 185.901 53.855 185.576 53.764C184.666 53.543 183.86 53.231 183.288 52.88C182.794 52.568 182.547 52.347 182.079 51.788H185.394C185.966 51.788 186.33 51.814 186.798 51.866V50.501C186.434 50.553 186.109 50.566 185.459 50.566H181.403C181.455 50.293 181.468 50.189 181.507 49.864H184.016C184.627 49.864 184.835 49.877 185.173 49.916V48.681C184.861 48.72 184.653 48.733 184.016 48.733H181.585C181.598 48.434 181.598 48.434 181.611 48.018H184.224C184.835 48.018 185.134 48.031 185.459 48.083V47.394H186.655C186.616 47.095 186.603 46.809 186.603 46.432V45.444C186.603 45.093 186.616 44.82 186.655 44.495C186.213 44.534 185.875 44.547 185.212 44.547H181.65V44.248C181.65 43.923 181.663 43.689 181.715 43.429H180.116C180.168 43.715 180.194 43.923 180.194 44.248V44.547H176.814C176.164 44.547 175.8 44.534 175.384 44.495C175.423 44.833 175.436 45.119 175.436 45.47V46.432C175.436 46.861 175.423 47.095 175.371 47.394H176.567V48.083C176.866 48.031 177.191 48.018 177.789 48.018H180.22ZM177.789 46.874C177.308 46.874 177.022 46.861 176.788 46.835V45.769H185.251V46.835C184.926 46.861 184.718 46.874 184.224 46.874H181.637C181.65 46.354 181.65 46.198 181.689 46.042H180.181C180.22 46.289 180.22 46.458 180.233 46.874H177.789ZM193.948 51.021C194.312 51.97 194.754 52.607 195.495 53.283C196.535 54.219 197.705 54.856 199.473 55.454C199.746 54.791 199.928 54.453 200.227 54.076C199.096 53.816 198.212 53.478 197.328 52.958C197.848 52.607 198.225 52.308 198.914 51.71L197.718 51.06C197.302 51.528 197.029 51.749 196.327 52.243C195.82 51.788 195.586 51.502 195.326 51.021H198.42C199.031 51.021 199.408 51.034 199.837 51.086V49.708C199.499 49.747 199.044 49.773 198.433 49.773H194.728V49.578C194.728 49.24 194.741 49.045 194.78 48.811H193.285C193.324 49.058 193.337 49.253 193.337 49.565V49.773H189.619C188.969 49.773 188.566 49.76 188.15 49.708V51.086C188.579 51.034 188.943 51.021 189.567 51.021H191.972C190.815 51.801 189.632 52.295 187.916 52.737C188.28 53.231 188.449 53.504 188.644 53.972C189.788 53.543 190.672 53.14 191.543 52.62V53.998C190.997 54.063 190.49 54.102 190.243 54.102C189.957 54.102 189.931 54.102 189.697 54.102L189.957 55.48C191.764 55.272 193.532 54.947 195.248 54.505V53.257C194.715 53.413 193.753 53.634 192.895 53.79V51.697C193.272 51.385 193.428 51.255 193.675 51.021H193.948ZM190.919 48.005C190.919 48.512 190.893 48.85 190.841 49.188H192.323C192.284 48.889 192.271 48.733 192.271 48.005V44.573C192.271 44.014 192.284 43.767 192.336 43.481H190.841C190.893 43.806 190.919 44.118 190.919 44.573V46.536C189.58 47.082 188.917 47.29 188.007 47.459L188.449 48.798C188.735 48.681 188.787 48.668 189.177 48.525C189.957 48.226 190.386 48.044 190.919 47.784V48.005ZM195.313 46.016V47.303H194.182C193.636 47.303 193.298 47.29 192.986 47.251V48.577C193.298 48.538 193.766 48.512 194.26 48.512H198.173C198.758 48.512 199.057 48.525 199.356 48.577V47.238C199.018 47.29 198.732 47.303 198.134 47.303H196.717V46.016H198.537C199.148 46.016 199.486 46.029 199.837 46.081V44.742C199.473 44.794 199.122 44.807 198.537 44.807H196.717V44.482C196.717 44.001 196.73 43.767 196.782 43.481H195.235C195.3 43.78 195.313 44.027 195.313 44.508V44.807H194C193.415 44.807 193.077 44.794 192.713 44.742V46.081C193.077 46.029 193.441 46.016 194 46.016H195.313ZM188.176 44.625C188.943 45.327 189.216 45.639 189.736 46.393L190.724 45.496C190.087 44.69 189.866 44.456 189.164 43.806L188.176 44.625Z" fill="#212121"/>
<path d="M284.146 49.071C285.03 49.071 285.329 49.084 285.797 49.136V47.589C285.303 47.667 285.004 47.68 284.12 47.68H276.515C275.618 47.68 275.332 47.667 274.838 47.589V49.136C275.306 49.084 275.605 49.071 276.489 49.071H279.661C279.622 50.085 279.427 50.93 279.089 51.528C278.543 52.529 277.568 53.218 276.008 53.699C276.567 54.245 276.736 54.466 277.061 55.129C278.816 54.427 279.765 53.712 280.454 52.568C281.013 51.645 281.299 50.566 281.364 49.071H284.146ZM276.151 45.899C276.58 45.847 276.892 45.834 277.802 45.834H282.846C283.756 45.834 284.068 45.847 284.497 45.899V44.313C284.016 44.391 283.756 44.404 282.82 44.404H277.828C276.892 44.404 276.632 44.391 276.151 44.313V45.899ZM298.305 53.452C296.732 51.931 296.732 51.931 296.407 51.645C295.523 50.852 294.821 50.306 294.002 49.76C294.795 48.694 295.432 47.563 296.03 46.172C296.173 45.847 296.277 45.665 296.446 45.47L295.588 44.586C295.263 44.703 295.159 44.716 294.431 44.729L289.855 44.794C289.699 44.794 289.595 44.794 289.543 44.794C289.01 44.794 288.763 44.781 288.399 44.716L288.451 46.38C288.893 46.315 289.244 46.289 289.868 46.276C293.963 46.211 293.963 46.211 294.171 46.198L294.028 46.536C293.183 48.564 291.623 50.449 289.66 51.827C288.685 52.516 288.061 52.867 287.06 53.257C287.593 53.816 287.749 54.024 288.113 54.7C290.102 53.725 291.597 52.581 293.066 50.943C294.483 52.022 295.978 53.478 297.057 54.804L298.305 53.452ZM304.402 54.96C304.363 54.531 304.35 54.193 304.35 53.517V50.085C304.35 49.721 304.337 49.565 304.298 49.201C304.402 49.266 304.441 49.279 304.74 49.422C306.911 50.423 308.263 51.164 309.342 51.905L310.252 50.371C308.172 49.201 306.131 48.252 304.35 47.628V45.21C304.35 44.404 304.35 44.235 304.402 43.845H302.621C302.673 44.196 302.699 44.534 302.699 45.171V53.504C302.699 54.193 302.686 54.544 302.621 54.96H304.402Z" fill="#212121"/>
<path d="M130 94.0289L130 105.867C130 106.715 130.988 107.178 131.64 106.636L139.038 100.48C139.531 100.07 139.516 99.3086 139.008 98.9182L131.609 93.2358C130.951 92.7307 130 93.1996 130 94.0289Z" fill="#BFBFBF"/>
<path d="M235 94.0289L235 105.867C235 106.715 235.988 107.178 236.64 106.636L244.038 100.48C244.531 100.07 244.516 99.3086 244.008 98.9182L236.609 93.2358C235.951 92.7307 235 93.1996 235 94.0289Z" fill="#BFBFBF"/>
<rect x="43" y="65.9243" width="80" height="63" rx="2" fill="white"/>
<rect width="17.7479" height="3.5" rx="1.75" transform="matrix(-1 0 0 1 113.991 95.208)" fill="#BFBFBF"/>
<rect width="17.7479" height="3.5" rx="1.75" transform="matrix(-1 0 0 1 113.991 115.641)" fill="#BFBFBF"/>
<rect width="17.7479" height="3.5" rx="1.75" transform="matrix(-1 0 0 1 113.991 102.019)" fill="#BFBFBF"/>
<rect width="17.7479" height="3.5" rx="1.75" transform="matrix(-1 0 0 1 113.991 108.83)" fill="#BFBFBF"/>
<rect x="52.3175" y="95.6521" width="39.0454" height="23.0722" rx="0.443697" fill="white"/>
<rect x="66.0721" y="112.068" width="12.4235" height="3.54958" rx="0.887395" fill="#30C8D6"/>
<rect x="60.7478" y="99.6451" width="23.0723" height="3.54958" rx="0.887395" stroke="#BFBFBF" stroke-width="0.887395"/>
<rect x="60.7478" y="105.857" width="23.0723" height="3.54958" rx="0.887395" stroke="#BFBFBF" stroke-width="0.887395"/>
<rect x="52.3175" y="95.6521" width="39.0454" height="23.0722" rx="0.443697" stroke="#BFBFBF" stroke-width="0.887395"/>
<rect x="52.3175" y="75.243" width="16.8605" height="15.0857" rx="0.443697" stroke="#BFBFBF" stroke-width="0.887395"/>
<rect x="74.5024" y="75.242" width="16.8605" height="15.0857" rx="0.443697" stroke="#BFBFBF" stroke-width="0.887395"/>
<rect x="96.6872" y="75.242" width="16.8605" height="15.0857" rx="0.443697" stroke="#BFBFBF" stroke-width="0.887395"/>
<path d="M51.8738 75.6867C51.8738 75.1966 52.2711 74.7993 52.7612 74.7993H68.7343C69.2244 74.7993 69.6217 75.1966 69.6217 75.6867V79.2363H51.8738V75.6867Z" fill="#BFBFBF"/>
<path d="M74.0587 75.6857C74.0587 75.1956 74.456 74.7983 74.9461 74.7983H90.9192C91.4093 74.7983 91.8066 75.1956 91.8066 75.6857V79.2353H74.0587V75.6857Z" fill="#BFBFBF"/>
<path d="M69.6218 82.7853L74.0588 82.7853" stroke="#BFBFBF" stroke-width="0.887395"/>
<path d="M91.8065 82.7853L96.2435 82.7853" stroke="#BFBFBF" stroke-width="0.887395"/>
<path d="M96.2435 75.6857C96.2435 75.1956 96.6408 74.7983 97.1309 74.7983H113.104C113.594 74.7983 113.991 75.1956 113.991 75.6857V79.2353H96.2435V75.6857Z" fill="#BFBFBF"/>
<rect x="252" y="65.9243" width="80" height="63" rx="2" fill="white"/>
<rect x="275.1" y="77.5004" width="47.1952" height="4.5" rx="2.25" fill="#BFBFBF"/>
<circle cx="265.305" cy="97.3883" r="5.34285" fill="#00B898"/>
<path d="M262.565 98.0144L264.183 99.6329L267.722 96.0938" stroke="white" stroke-width="1.64035" stroke-linecap="round" stroke-linejoin="round"/>
<circle cx="265.305" cy="80.3429" r="5.34285" fill="#00B898"/>
<path d="M262.565 80.969L264.183 82.5875L267.722 79.0484" stroke="white" stroke-width="1.64035" stroke-linecap="round" stroke-linejoin="round"/>
<rect x="275.1" y="94.7168" width="47.1952" height="4.5" rx="2.25" fill="#BFBFBF"/>
<rect x="275.1" y="111.933" width="47.1952" height="4.5" rx="2.25" fill="#BFBFBF"/>
<circle cx="265.305" cy="114.604" r="5.34285" fill="#00B898"/>
<path d="M262.564 115.23L264.183 116.849L267.722 113.31" stroke="white" stroke-width="1.64035" stroke-linecap="round" stroke-linejoin="round"/>
<rect x="147" y="65.9243" width="81" height="63" rx="2" fill="#2A2F35"/>
<rect x="156" y="75" width="21.6" height="4.50921" rx="2.2546" fill="#40CEF4"/>
<rect x="163.2" y="85.1227" width="43.2" height="4.50921" rx="2.2546" fill="white"/>
<rect x="163.2" y="95.2452" width="55.8" height="4.50921" rx="2.2546" fill="#F8E186"/>
<rect x="163.2" y="105.368" width="32.4" height="4.50921" rx="2.2546" fill="white"/>
<rect x="156" y="115.491" width="39.6" height="4.50921" rx="2.2546" fill="#A0CA40"/>
<g clip-path="url(#clip0)">
<rect x="142.5" y="164" width="90" height="58" rx="2.07692" fill="white"/>
<rect x="142.846" y="164.346" width="89.3077" height="57.3077" rx="1.65385" stroke="#D9D9D9" stroke-width="0.692308"/>
<g clip-path="url(#clip1)">
<path d="M142.5 166C142.5 164.895 143.395 164 144.5 164H230.5C231.605 164 232.5 164.895 232.5 166V172.48H142.5V166Z" fill="#4E596D"/>
<circle cx="146.661" cy="168.316" r="0.939726" fill="#FFB24D"/>
<circle cx="149.608" cy="168.316" r="0.939726" fill="#FFD177"/>
<circle cx="152.552" cy="168.316" r="0.939726" fill="#ACFD76"/>
<path d="M156.139 167.319C156.17 167.047 156.4 166.841 156.673 166.841H169.674C169.947 166.841 170.177 167.047 170.207 167.319L170.691 171.674H155.656L156.139 167.319Z" fill="#E8EBEF"/>
<rect x="157.237" y="168.718" width="9.66576" height="1.07397" rx="0.536987" fill="#D9D9D9"/>
<rect x="167.44" y="168.716" width="1.07397" height="1.07397" rx="0.536987" fill="#D9D9D9"/>
<path d="M171.46 167.941C171.442 167.782 171.567 167.644 171.727 167.644H174.938C175.075 167.644 175.19 167.746 175.205 167.882L175.502 170.567C175.52 170.726 175.395 170.865 175.235 170.865H172.017C171.88 170.865 171.765 170.762 171.75 170.626L171.46 167.941Z" fill="#E8EBEF"/>
<rect x="172.772" y="169.054" width="1.61096" height="0.40274" rx="0.20137" fill="#D1D5D9"/>
<rect x="173.778" y="168.45" width="1.61096" height="0.40274" rx="0.20137" transform="rotate(90 173.778 168.45)" fill="#D1D5D9"/>
</g>
<rect x="172.5" y="206" width="30" height="7" rx="1" fill="#30C8D6"/>
<rect x="163" y="181.5" width="49" height="6" rx="0.5" stroke="#B3B3B3"/>
<rect x="163" y="193.5" width="49" height="6" rx="0.5" stroke="#B3B3B3"/>
</g>
<defs>
<clipPath id="clip0">
<rect x="142.5" y="164" width="90" height="58" rx="2.07692" fill="white"/>
</clipPath>
<clipPath id="clip1">
<path d="M142.5 166.545C142.5 165.14 143.64 164 145.045 164H229.955C231.36 164 232.5 165.14 232.5 166.545V171.615H142.5V166.545Z" fill="white"/>
</clipPath>
</defs>
</svg>
