<?xml version="1.0" encoding="utf-8"?>
<!-- Generator: Adobe Illustrator 24.3.0, SVG Export Plug-In . SVG Version: 6.00 Build 0)  -->
<svg version="1.1" id="レイヤー_1" xmlns="http://www.w3.org/2000/svg" xmlns:xlink="http://www.w3.org/1999/xlink" x="0px"
	 y="0px" viewBox="0 0 375 250" style="enable-background:new 0 0 375 250;" xml:space="preserve">
<style type="text/css">
	.st0{fill:#FAFAFA;}
	.st1{fill-rule:evenodd;clip-rule:evenodd;fill:#EBEBEB;}
	.st2{fill:#212121;}
	.st3{fill:#BFBFBF;}
	.st4{fill:#FFFFFF;}
	.st5{fill:#30C8D6;}
	.st6{fill:none;stroke:#BFBFBF;stroke-width:0.887395;}
	.st7{fill:#00B898;}
	.st8{fill:none;stroke:#FFFFFF;stroke-width:1.64035;stroke-linecap:round;stroke-linejoin:round;}
	.st9{fill:#2A2F35;}
	.st10{fill:#40CEF4;}
	.st11{fill:#F8E186;}
	.st12{fill:#A0CA40;}
	.st13{clip-path:url(#SVGID_2_);}
	.st14{fill:none;stroke:#D9D9D9;stroke-width:0.692308;}
	.st15{clip-path:url(#SVGID_4_);}
	.st16{fill:#4E596D;}
	.st17{fill:#FFB24D;}
	.st18{fill:#FFD177;}
	.st19{fill:#ACFD76;}
	.st20{fill:#E8EBEF;}
	.st21{fill:#D9D9D9;}
	.st22{fill:#D1D5D9;}
	.st23{fill:none;stroke:#B3B3B3;}
</style>
<rect class="st0" width="375" height="250"/>
<path class="st1" d="M31,28c-1.6569004,0-3,1.3430996-3,3v110c0,1.6569977,1.3430996,3,3,3h151.8000031l6.3430023,10.5709991
	c0.3880005,0.6470032,1.3259888,0.6470032,1.7139893,0L197.1999969,144H344c1.6570129,0,3-1.3430023,3-3V31
	c0-1.6569004-1.3429871-3-3-3H31z"/>
<path class="st2" d="M81.1539993,48.8499985c-0.1819992,0.0390015-0.4160004,0.052002-0.909996,0.052002h-3.8350067
	c-0.3379974,0-0.5719986-0.0130005-0.8319931-0.0649986v1.3779984c0.2080002-0.0390015,0.3249969-0.0390015,0.5849991-0.052002
	c0.5069962,1.2350006,0.8839951,1.8590012,1.6769943,2.6910019c-0.7669983,0.5330009-1.6119995,0.9230003-2.7689972,1.2610016
	v-1.9500008c0-0.4939995,0-0.663002,0.0390015-0.9490013c-0.2210007,0.0390015-0.3639984,0.0390015-0.8710022,0.0390015h-2.2360001
	c-0.4029999,0-0.6760025-0.0130005-1.0009995-0.0390015c0.052002,0.3120003,0.0650024,0.6110001,0.0650024,1.0270004v1.9109993
	c0,0.4680023-0.026001,0.8839989-0.0780029,1.2870026h1.326004v-0.6240005h1.5209961v0.4419975h1.2870026
	c-0.0390015-0.3250008-0.052002-0.480999-0.052002-0.9230003c0.2730026,0.3380013,0.4550018,0.637001,0.663002,1.1050034
	c1.3259964-0.4810028,2.2490005-0.9750023,3.1199951-1.6640015c0.8840027,0.6889992,1.7290039,1.1049995,3.25,1.625
	c0.1820068-0.5330009,0.3510056-0.8710022,0.6500015-1.3909988c-1.4169998-0.3900032-2.0149994-0.6240005-2.8990021-1.1830025
	c0.715004-0.7669983,1.1960068-1.5340004,1.7550049-2.743c0.1819992-0.4029999,0.1819992-0.4029999,0.2600021-0.5330009
	L81.1539993,48.8499985z M80.1009979,50.1500015c-0.4549942,0.8969994-0.7279968,1.2869987-1.2869949,1.8719978
	c-0.6110001-0.5979996-0.9750061-1.118-1.3000031-1.8719978H80.1009979z M72.314003,52.3860016h1.5209961v1.2869987H72.314003
	V52.3860016z M71.0400009,45.0019989c0.3249969-0.0389977,0.6240005-0.0519981,1.0920029-0.0519981h1.871994
	c0.4680023,0,0.7410049,0.0130005,1.0920029,0.0519981v-1.2609978c-0.3509979,0.0519981-0.5589981,0.0649986-1.0920029,0.0649986
	h-1.871994c-0.5330048,0-0.7410049-0.0130005-1.0920029-0.0649986V45.0019989z M70.6240005,46.9259987
	c0.3119965-0.0389977,0.5849991-0.0519981,1.0530014-0.0519981h2.7429962c0.5460052,0,0.715004,0.0130005,0.987999,0.0519981
	v-1.3389969c-0.2859955,0.0389977-0.5069962,0.0519981-1.0529938,0.0519981H71.677002
	c-0.4940033,0-0.7410049-0.0130005-1.0530014-0.0649986V46.9259987z M71.0660019,48.7589989
	c0.2599945-0.0259972,0.4420013-0.0389977,0.8580017-0.0389977h2.3139954c0.3899994,0,0.5459976,0.0130005,0.8320007,0.0389977
	v-1.2089996c-0.2340012,0.026001-0.4029999,0.0390015-0.8320007,0.0390015h-2.3139954
	c-0.4160004,0-0.6110001-0.0130005-0.8580017-0.0390015V48.7589989z M71.0660019,50.5919991
	c0.272995-0.0259972,0.4420013-0.0389977,0.8450012-0.0389977h2.3009949c0.4290009,0,0.5590057,0,0.8580017,0.0389977v-1.2089996
	c-0.2340012,0.026001-0.4029999,0.0390015-0.8320007,0.0390015h-2.3139954c-0.4160004,0-0.6110001-0.0130005-0.8580017-0.0390015
	V50.5919991z M79.2040024,45.1189995v2.288002c0,0.6889992,0.272995,0.8449974,1.5339966,0.8449974
	c1.651001,0,1.7939987-0.1559982,1.9500046-2.2879982c-0.4420013-0.1170006-0.7800064-0.2600021-1.1700058-0.4680023
	c-0.0779953,1.5600014-0.0779953,1.5600014-0.5979996,1.5600014c-0.3119965,0-0.4029999-0.0519981-0.4029999-0.2210007v-1.9239998
	c0-0.480999,0.0130005-0.8190002,0.052002-1.1049995c-0.3379974,0.0390015-0.6500015,0.052002-1.1050034,0.052002h-1.9889984
	c-0.4029999,0-0.6889954-0.0130005-1.0270004-0.052002c0.052002,0.3380013,0.0650024,0.4679985,0.0650024,0.8709984
	c0,1.7030029-0.3249969,2.4960022-1.3519974,3.25c0.3769989,0.2340012,0.7539978,0.5330009,1.1309967,0.8970032
	c0.4550018-0.4029999,0.7020035-0.7280006,0.961998-1.2350006c0.3639984-0.7280006,0.4940033-1.3390007,0.5330048-2.4700012
	H79.2040024z M91.6060028,47.4070015h-0.8190002c-0.689003,0-1.1570053-0.026001-1.5730057-0.0780029v1.4950027
	c0.4550018-0.052002,1.0139999-0.0780029,1.5860062-0.0780029h0.8059998v4.7450027
	c0,0.9489975-0.026001,1.442997-0.0910034,1.9629974h1.625c-0.0650024-0.5329971-0.0909958-1.0659981-0.0909958-1.9629974
	v-4.7450027h0.909996c0.6240005,0,1.0790024,0.026001,1.5859985,0.0780029v-1.4950027
	c-0.4290009,0.052002-0.8709946,0.0780029-1.572998,0.0780029h-0.9229965v-2.3530006
	c0-0.7019997,0.0259933-1.118,0.0909958-1.5600014h-1.625c0.0780029,0.4939995,0.0910034,0.8320007,0.0910034,1.5600014V47.4070015z
	 M84.2350006,45.0929985c0.3249969-0.0389977,0.6500015-0.0519981,1.1179962-0.0519981h2.2490005
	c0.4940033,0,0.7410049,0.0130005,1.1050034,0.0519981v-1.2739983c-0.3379974,0.0519981-0.5849991,0.0649986-1.1050034,0.0649986
	h-2.2490005c-0.5329971,0-0.7929993-0.0130005-1.1179962-0.0649986V45.0929985z M83.689003,46.9519997
	c0.3769989-0.0519981,0.6629944-0.0649986,1.0919952-0.0649986h3.3540039c0.5459976,0,0.8059998,0.0130005,1.1049957,0.0519981
	v-1.2999992c-0.3119965,0.052002-0.5979996,0.0649986-1.1049957,0.0649986h-3.3410034
	c-0.4809952,0-0.7799988-0.0259972-1.1049957-0.0779991V46.9519997z M84.2480011,48.7589989
	c0.298996-0.0389977,0.4290009-0.0389977,0.8580017-0.0389977h2.7559967c0.4160004,0,0.5329971,0,0.8320007,0.0389977v-1.2350006
	c-0.2730026,0.0390015-0.3899994,0.0390015-0.8320007,0.0390015h-2.7559967c-0.4290009,0-0.5849991-0.0130005-0.8580017-0.0390015
	V48.7589989z M84.2480011,50.6049995c0.2730026-0.026001,0.4290009-0.0389977,0.8450012-0.0389977h2.7429962
	c0.4290009,0,0.5979996,0.0129967,0.8580017,0.0389977v-1.2350006c-0.2730026,0.0390015-0.3899994,0.0390015-0.8320007,0.0390015
	h-2.7559967c-0.4550018,0-0.6240005-0.0130005-0.8580017-0.0390015V50.6049995z M85.612999,54.8689995h1.8069992v0.4029999
	h1.3909988c-0.0519943-0.3250008-0.0649948-0.637001-0.0649948-1.1310005v-1.9109993
	c0-0.454998,0.0130005-0.7019997,0.0519943-1.0009995c-0.246994,0.026001-0.4419937,0.0390015-0.8449936,0.0390015h-2.7950058
	c-0.4809952,0-0.6629944-0.0130005-0.909996-0.0390015c0.0390015,0.3510017,0.052002,0.5979996,0.052002,1.0139999v1.9630013
	c0,0.507-0.0130005,0.8709984-0.0650024,1.2479973h1.3779984V54.8689995z M85.586998,52.4510002h1.8460007v1.2610016H85.586998
	V52.4510002z"/>
<path class="st2" d="M180.2200012,48.0180016c0,0.3509979,0,0.3509979-0.0130005,0.7150002h-2.2879944
	c-0.6370087,0-0.8580017-0.0130005-1.1700134-0.052002v1.2350006c0.3380127-0.0390015,0.5460052-0.052002,1.1700134-0.052002
	h2.196991c-0.0390015,0.3120003-0.0650024,0.4550018-0.1170044,0.7020035h-3.4059906
	c-0.6500092,0-0.9620056-0.0130005-1.3130035-0.0650024v1.3650017c0.4680023-0.052002,0.8840027-0.0780029,1.3910065-0.0780029
	h2.8730011c-0.3899994,0.663002-0.8970032,1.1310005-1.651001,1.5209999
	c-0.7799988,0.4030037-1.4560089,0.5980034-2.8209991,0.7930031c0.3769989,0.5459976,0.4549866,0.6889992,0.6889954,1.3519974
	c1.4429932-0.2859993,2.2619934-0.5979996,3.1719971-1.1699982c0.8710022-0.5590019,1.4300079-1.1570015,1.897995-2.0410004
	c0.8059998,1.144001,1.6900024,1.8460007,3.0810089,2.4700012c0.6889954,0.2989998,1.2220001,0.4679985,2.4309998,0.7539978
	c0.1689911-0.5459976,0.3769989-0.9489975,0.6759949-1.4039993c-0.7149963-0.1300011-1.1179962-0.2080002-1.4429932-0.2989998
	c-0.9100037-0.2210007-1.7160034-0.5330009-2.2880096-0.8839989c-0.493988-0.3120003-0.7409973-0.5330009-1.2089996-1.0920029
	h3.3150024c0.5720062,0,0.9360046,0.026001,1.404007,0.0780029v-1.3650017
	c-0.3639984,0.052002-0.6890106,0.0650024-1.3390045,0.0650024h-4.0559998
	c0.052002-0.2730026,0.0650024-0.3770027,0.1040039-0.7020035h2.5090027c0.6109924,0,0.8190002,0.0130005,1.1569977,0.052002
	v-1.2350006c-0.3120117,0.0390015-0.5200043,0.052002-1.1569977,0.052002h-2.4309998
	c0.0130005-0.2990036,0.0130005-0.2990036,0.0259857-0.7150002h2.6130066c0.6110077,0,0.9100037,0.0129967,1.2350006,0.0649986
	V47.394001h1.1959991c-0.0390015-0.2989998-0.052002-0.5850029-0.052002-0.9620018v-0.987999
	c0-0.3510017,0.0130005-0.6240005,0.052002-0.9490013c-0.4420013,0.0390015-0.7799988,0.052002-1.4429932,0.052002h-3.5620117
	v-0.2989998c0-0.3250008,0.0130005-0.5590019,0.0650024-0.8190002h-1.598999
	c0.052002,0.2859993,0.0780029,0.4939995,0.0780029,0.8190002v0.2989998h-3.3800049
	c-0.6499939,0-1.0139923-0.0130005-1.4299927-0.052002c0.0390015,0.3380013,0.052002,0.6240005,0.052002,0.9750023v0.961998
	c0,0.4290009-0.0130005,0.663002-0.0650024,0.9620018h1.1959991v0.6889992
	c0.298996-0.052002,0.6239929-0.0649986,1.2220001-0.0649986H180.2200012z M177.7890015,46.8740005
	c-0.4810028,0-0.7669983-0.0130005-1.0010071-0.0390015V45.769001h8.4630127v1.0659981
	c-0.3250122,0.026001-0.5330048,0.0390015-1.0270081,0.0390015h-2.5870056
	c0.0130005-0.5200005,0.0130005-0.6759987,0.052002-0.8320007h-1.5079956
	c0.0390015,0.2470016,0.0390015,0.4160004,0.052002,0.8320007H177.7890015z M193.947998,51.0209999
	c0.3639984,0.9490013,0.8059998,1.5859985,1.5469971,2.262001c1.0400085,0.9360008,2.2100067,1.572998,3.9780121,2.1709976
	c0.272995-0.6629982,0.4549866-1.0009995,0.7539978-1.3779984c-1.131012-0.2599983-2.0149994-0.5979996-2.8990021-1.118
	c0.5200043-0.3510017,0.8970032-0.6500015,1.5859985-1.2480011l-1.1959991-0.6499977
	c-0.4160004,0.4679985-0.6889954,0.6889992-1.3910065,1.1829987c-0.5069885-0.4550018-0.7409973-0.7410011-1.0009918-1.2220001
	h3.0939941c0.6110077,0,0.9880066,0.0130005,1.4170074,0.0649986v-1.3779984
	c-0.3380127,0.0390015-0.7929993,0.0649986-1.404007,0.0649986h-3.7050018v-0.1949997
	c0-0.3379974,0.0130005-0.5330009,0.052002-0.7669983h-1.4949951c0.0390015,0.2469978,0.052002,0.4419975,0.052002,0.7539978
	v0.2080002h-3.7180023c-0.6500092,0-1.053009-0.0130005-1.4690094-0.0649986v1.3779984
	c0.4290009-0.0519981,0.7929993-0.0649986,1.4170074-0.0649986h2.4049988
	c-1.1569977,0.7799988-2.3399963,1.2739983-4.0559998,1.7159996c0.3639984,0.4939995,0.5330048,0.7670021,0.7279968,1.2350006
	c1.1439972-0.4290009,2.0279999-0.8320007,2.8990021-1.3520012v1.3780022
	c-0.5460052,0.0649986-1.0529938,0.1040001-1.3000031,0.1040001c-0.2859955,0-0.3119965,0-0.54599,0l0.2599945,1.3779984
	c1.8070068-0.2080002,3.5749969-0.5330009,5.2910004-0.9749985V53.257
	c-0.5330048,0.1559982-1.4949951,0.3769989-2.3529968,0.5330009v-2.0930023
	c0.3769989-0.3120003,0.5329895-0.4419975,0.7799988-0.6759987H193.947998z M190.9190063,48.0050011
	c0,0.507-0.026001,0.8449974-0.0780029,1.1829987h1.4819946c-0.0390015-0.2989998-0.052002-0.454998-0.052002-1.1829987v-3.4319992
	c0-0.5590019,0.0130005-0.8060036,0.0650024-1.0920029h-1.4949951c0.052002,0.3250008,0.0780029,0.637001,0.0780029,1.0920029
	v1.9629974c-1.3390045,0.5460014-2.0019989,0.7540016-2.9120026,0.9230003l0.4420013,1.3390007
	c0.2859955-0.1170006,0.3379974-0.1300011,0.7279968-0.2729988c0.7799988-0.2989998,1.2089996-0.4810028,1.7420044-0.7410011
	V48.0050011z M195.3130035,46.0159988v1.2870026h-1.1309967c-0.5460052,0-0.8840027-0.0130005-1.1960144-0.052002v1.3260002
	c0.3120117-0.0390015,0.780014-0.0649986,1.2740021-0.0649986h3.9130096c0.5849915,0,0.8840027,0.0130005,1.1829987,0.0649986
	V47.237999c-0.3379974,0.052002-0.6240082,0.0650024-1.2220001,0.0650024h-1.4170074v-1.2870026h1.8200073
	c0.6109924,0,0.9489899,0.0130005,1.3000031,0.0650024v-1.3390007c-0.3639984,0.0519981-0.7150116,0.0649986-1.3000031,0.0649986
	h-1.8200073v-0.3250008c0-0.480999,0.0130005-0.7150002,0.0650024-1.0009995h-1.5469971
	c0.0650024,0.2989998,0.0780029,0.5460014,0.0780029,1.0270004v0.2989998H194c-0.5850067,0-0.9230042-0.0130005-1.2870026-0.0649986
	v1.3390007c0.3639984-0.052002,0.7279968-0.0650024,1.2870026-0.0650024H195.3130035z M188.1759949,44.625
	c0.7669983,0.7019997,1.0400085,1.0139999,1.5599976,1.7680016l0.9880066-0.8970032
	c-0.6369934-0.8059998-0.8580017-1.0399971-1.5599976-1.6899986L188.1759949,44.625z"/>
<path class="st2" d="M284.1459961,49.0709991c0.8840027,0,1.1830139,0.0130005,1.651001,0.0650024v-1.5470009
	c-0.493988,0.0779991-0.7929993,0.0909996-1.677002,0.0909996h-7.6049805c-0.8970032,0-1.1830139-0.0130005-1.677002-0.0909996
	v1.5470009c0.4679871-0.052002,0.7669983-0.0650024,1.651001-0.0650024h3.1719971
	c-0.0390015,1.0139999-0.2340088,1.8590012-0.5720215,2.4570007c-0.54599,1.0009995-1.5209961,1.6899986-3.0809937,2.1710014
	c0.5589905,0.5459976,0.7279968,0.7669983,1.053009,1.4300003c1.7550049-0.7020035,2.70401-1.4169998,3.3930054-2.5610008
	c0.5589905-0.9230003,0.8450012-2.0019989,0.9100037-3.4970016H284.1459961z M276.151001,45.8989983
	c0.4289856-0.0519981,0.7409973-0.0649986,1.651001-0.0649986h5.0440063c0.9100037,0,1.2219849,0.0130005,1.651001,0.0649986
	v-1.5859985c-0.4810181,0.0779991-0.7409973,0.0909996-1.677002,0.0909996h-4.9920044
	c-0.9360046,0-1.1960144-0.0130005-1.677002-0.0909996V45.8989983z M298.3049927,53.4519997
	c-1.572998-1.5209999-1.572998-1.5209999-1.8979797-1.8069992c-0.8840027-0.7929993-1.5859985-1.3390007-2.4049988-1.8850021
	c0.7929993-1.0659981,1.4299927-2.1969986,2.0279846-3.5879974c0.1430054-0.3250008,0.2470093-0.507,0.4160156-0.7019997
	l-0.8580017-0.8840027c-0.3250122,0.1170006-0.4290161,0.1300011-1.1570129,0.1430016l-4.5759888,0.0649986
	c-0.1560059,0-0.2600098,0-0.3120117,0c-0.5329895,0-0.7799988-0.0130005-1.1440125-0.0779991l0.052002,1.6640015
	c0.4420166-0.0650024,0.7929993-0.0909996,1.4170227-0.1040001c4.0950012-0.0650024,4.0950012-0.0650024,4.3029785-0.0779991
	l-0.1429749,0.3379974c-0.8450012,2.0279999-2.4050293,3.913002-4.3680115,5.2910004
	c-0.9750061,0.6889992-1.598999,1.0400009-2.6000061,1.4300003c0.5329895,0.5590019,0.6889954,0.7669983,1.053009,1.4430008
	c1.9889832-0.9750023,3.4839783-2.1189995,4.9530029-3.757c1.4169922,1.0789986,2.9119873,2.5349998,3.9909973,3.8610001
	L298.3049927,53.4519997z M304.4020081,54.9599991c-0.0390015-0.4290009-0.052002-0.7669983-0.052002-1.4430008v-3.4319992
	c0-0.3639984-0.0130005-0.5200005-0.052002-0.8839989c0.1040039,0.0649986,0.1430054,0.0779991,0.4419861,0.2210007
	c2.1710205,1.0009995,3.5230103,1.7420006,4.6020203,2.4829979l0.9100037-1.5340004
	c-2.0800171-1.1699982-4.1210022-2.1189995-5.9020081-2.743v-2.4179993c0-0.8059998,0-0.9749985,0.052002-1.3649979h-1.7810059
	c0.052002,0.3509979,0.0780029,0.6889992,0.0780029,1.3260002v8.3330002c0,0.6889992-0.0130005,1.0399971-0.0780029,1.4559975
	H304.4020081z"/>
<path class="st3" d="M130,94.0289001v11.8380966c0,0.8479996,0.9880066,1.3110046,1.6399994,0.7690048l7.397995-6.1559982
	c0.4930115-0.4100037,0.4780121-1.171402-0.0299988-1.5618057l-7.3990021-5.6823959
	C130.951004,92.7306976,130,93.1996002,130,94.0289001z"/>
<path class="st3" d="M235,94.0289001v11.8380966c0,0.8479996,0.9880066,1.3110046,1.6399994,0.7690048l7.397995-6.1559982
	c0.4930115-0.4100037,0.4780121-1.171402-0.0299988-1.5618057l-7.3990021-5.6823959
	C235.951004,92.7306976,235,93.1996002,235,94.0289001z"/>
<path class="st4" d="M45,65.9243011h76c1.1045685,0,2,0.8954315,2,2v59c0,1.1045685-0.8954315,2-2,2H45
	c-1.1045685,0-2-0.8954315-2-2v-59C43,66.8197327,43.8954315,65.9243011,45,65.9243011z"/>
<path class="st3" d="M112.2409973,95.2080002H97.9930954c-0.9664993,0-1.75,0.7835007-1.75,1.75l0,0
	c0,0.9664993,0.7835007,1.75,1.75,1.75h14.2479019c0.9664993,0,1.75-0.7835007,1.75-1.75l0,0
	C113.9909973,95.9915009,113.2074966,95.2080002,112.2409973,95.2080002z"/>
<path class="st3" d="M112.2409973,115.6409988H97.9930954c-0.9664993,0-1.75,0.7835007-1.75,1.75l0,0
	c0,0.9664993,0.7835007,1.75,1.75,1.75h14.2479019c0.9664993,0,1.75-0.7835007,1.75-1.75l0,0
	C113.9909973,116.4244995,113.2074966,115.6409988,112.2409973,115.6409988z"/>
<path class="st3" d="M112.2409973,102.0189972H97.9930954c-0.9664993,0-1.75,0.7835007-1.75,1.75l0,0
	c0,0.9664993,0.7835007,1.75,1.75,1.75h14.2479019c0.9664993,0,1.75-0.7835007,1.75-1.75l0,0
	C113.9909973,102.8024979,113.2074966,102.0189972,112.2409973,102.0189972z"/>
<path class="st3" d="M112.2409973,108.8300018H97.9930954c-0.9664993,0-1.75,0.7835007-1.75,1.75l0,0
	c0,0.9664993,0.7835007,1.75,1.75,1.75h14.2479019c0.9664993,0,1.75-0.7835007,1.75-1.75l0,0
	C113.9909973,109.6135025,113.2074966,108.8300018,112.2409973,108.8300018z"/>
<path class="st4" d="M52.7612,95.6520996h38.1580048c0.2450485,0,0.4436951,0.1986465,0.4436951,0.4436951v22.1848145
	c0,0.2450485-0.1986465,0.4436951-0.4436951,0.4436951H52.7612c-0.2450485,0-0.4436989-0.1986465-0.4436989-0.4436951V96.0957947
	C52.3175011,95.8507462,52.5161514,95.6520996,52.7612,95.6520996z"/>
<path class="st5" d="M66.9594955,112.0680008h10.6487045c0.490097,0,0.8873978,0.3973007,0.8873978,0.8873978v1.7747879
	c0,0.490097-0.3973007,0.8873978-0.8873978,0.8873978H66.9594955c-0.490097,0-0.8873978-0.3973007-0.8873978-0.8873978v-1.7747879
	C66.0720978,112.4653015,66.4693985,112.0680008,66.9594955,112.0680008z"/>
<path class="st6" d="M61.6351929,99.6451035h21.2975082c0.490097,0,0.8873978,0.3973007,0.8873978,0.8873978v1.7747879
	c0,0.490097-0.3973007,0.8873978-0.8873978,0.8873978H61.6351929c-0.4900932,0-0.887394-0.3973007-0.887394-0.8873978v-1.7747879
	C60.7477989,100.0424042,61.1450996,99.6451035,61.6351929,99.6451035z"/>
<path class="st6" d="M61.6351929,105.8570023h21.2975082c0.490097,0,0.8873978,0.3973007,0.8873978,0.8873978v1.7747879
	c0,0.490097-0.3973007,0.8873978-0.8873978,0.8873978H61.6351929c-0.4900932,0-0.887394-0.3973007-0.887394-0.8873978V106.7444
	C60.7477989,106.254303,61.1450996,105.8570023,61.6351929,105.8570023z"/>
<path class="st6" d="M52.7612,95.6520996h38.1580048c0.2450485,0,0.4436951,0.1986465,0.4436951,0.4436951v22.1848145
	c0,0.2450485-0.1986465,0.4436951-0.4436951,0.4436951H52.7612c-0.2450485,0-0.4436989-0.1986465-0.4436989-0.4436951V96.0957947
	C52.3175011,95.8507462,52.5161514,95.6520996,52.7612,95.6520996z"/>
<path class="st6" d="M52.7612,75.2429962h15.9731064c0.2450485,0,0.4436951,0.1986465,0.4436951,0.4436951v14.1983109
	c0,0.2450485-0.1986465,0.4436951-0.4436951,0.4436951H52.7612c-0.2450485,0-0.4436989-0.1986465-0.4436989-0.4436951V75.6866913
	C52.3175011,75.4416428,52.5161514,75.2429962,52.7612,75.2429962z"/>
<path class="st6" d="M74.9460983,75.2419968h15.9731064c0.2450485,0,0.4436951,0.1986465,0.4436951,0.4436951v14.1983109
	c0,0.2450485-0.1986465,0.4436951-0.4436951,0.4436951H74.9460983c-0.2450485,0-0.4436951-0.1986465-0.4436951-0.4436951V75.6856918
	C74.5024033,75.4406433,74.7010498,75.2419968,74.9460983,75.2419968z"/>
<path class="st6" d="M97.1308975,75.2419968h15.9731064c0.2450485,0,0.4436951,0.1986465,0.4436951,0.4436951v14.1983109
	c0,0.2450485-0.1986465,0.4436951-0.4436951,0.4436951H97.1308975c-0.2450485,0-0.4436951-0.1986465-0.4436951-0.4436951V75.6856918
	C96.6872025,75.4406433,96.885849,75.2419968,97.1308975,75.2419968z"/>
<path class="st3" d="M51.8737984,75.6866989c0-0.490097,0.3973007-0.8873978,0.8874016-0.8873978h15.9730988
	c0.4901047,0,0.8873978,0.3973007,0.8873978,0.8873978v3.5495987H51.8737984V75.6866989z"/>
<path class="st3" d="M74.0587006,75.6856995c0-0.490097,0.3973007-0.8873978,0.8873978-0.8873978h15.9730988
	c0.4901047,0,0.8874054,0.3973007,0.8874054,0.8873978v3.5495987H74.0587006V75.6856995z"/>
<path class="st6" d="M69.6218033,82.7853012h4.4369965"/>
<path class="st6" d="M91.8065033,82.7853012h4.4369965"/>
<path class="st3" d="M96.2434998,75.6856995c0-0.490097,0.3973007-0.8873978,0.8873978-0.8873978h15.9730988
	c0.4900055,0,0.887001,0.3973007,0.887001,0.8873978v3.5495987H96.2434998V75.6856995z"/>
<path class="st4" d="M254,65.9243011h76c1.1045837,0,2,0.8954315,2,2v59c0,1.1045685-0.8954163,2-2,2h-76
	c-1.1045685,0-2-0.8954315-2-2v-59C252,66.8197327,252.8954315,65.9243011,254,65.9243011z"/>
<path class="st3" d="M277.3500061,77.5003967h42.6951904c1.2426453,0,2.25,1.0073624,2.25,2.25l0,0
	c0,1.2426376-1.0073547,2.25-2.25,2.25h-42.6951904c-1.2426453,0-2.25-1.0073624-2.25-2.25l0,0
	C275.1000061,78.5077591,276.1073608,77.5003967,277.3500061,77.5003967z"/>
<circle class="st7" cx="265.3049927" cy="97.388298" r="5.3428574"/>
<path class="st8" d="M262.5650024,98.0143967l1.6180115,1.6184998l3.5389709-3.539093"/>
<circle class="st7" cx="265.3049927" cy="80.3429031" r="5.3428574"/>
<path class="st8" d="M262.5650024,80.9690018l1.6180115,1.6184998l3.5389709-3.5391006"/>
<path class="st3" d="M277.3500061,94.7167969h42.6951904c1.2426453,0,2.25,1.0073624,2.25,2.25l0,0
	c0,1.2426376-1.0073547,2.25-2.25,2.25h-42.6951904c-1.2426453,0-2.25-1.0073624-2.25-2.25l0,0
	C275.1000061,95.7241592,276.1073608,94.7167969,277.3500061,94.7167969z"/>
<path class="st3" d="M277.3500061,111.9329987h42.6951904c1.2426453,0,2.25,1.0073624,2.25,2.25l0,0
	c0,1.2426376-1.0073547,2.25-2.25,2.25h-42.6951904c-1.2426453,0-2.25-1.0073624-2.25-2.25l0,0
	C275.1000061,112.940361,276.1073608,111.9329987,277.3500061,111.9329987z"/>
<circle class="st7" cx="265.3049927" cy="114.6039963" r="5.3428574"/>
<path class="st8" d="M262.5639954,115.2300034l1.6190186,1.6189957l3.5389709-3.5390015"/>
<path class="st9" d="M149,65.9243011h77c1.1045685,0,2,0.8954315,2,2v59c0,1.1045685-0.8954315,2-2,2h-77
	c-1.1045685,0-2-0.8954315-2-2v-59C147,66.8197327,147.8954315,65.9243011,149,65.9243011z"/>
<path class="st10" d="M158.2545929,75h17.0908203c1.2451782,0,2.2545929,1.0094223,2.2545929,2.2546005v0.0000076
	c0,1.2451782-1.0094147,2.2546005-2.2545929,2.2546005h-17.0908203c-1.2451782,0-2.2545929-1.0094223-2.2545929-2.2546005
	v-0.0000076C156,76.0094223,157.0094147,75,158.2545929,75z"/>
<path class="st4" d="M165.4545898,85.1227036h38.6908112c1.2451782,0,2.2545929,1.0094223,2.2545929,2.2546005v0.0000076
	c0,1.2451782-1.0094147,2.2546005-2.2545929,2.2546005h-38.6908112c-1.2451782,0-2.2545929-1.0094223-2.2545929-2.2546005
	v-0.0000076C163.1999969,86.1321259,164.2094116,85.1227036,165.4545898,85.1227036z"/>
<path class="st11" d="M165.4545898,95.2452011h51.2908173c1.2451782,0,2.2545929,1.0094223,2.2545929,2.2546005v0.0000076
	c0,1.2451782-1.0094147,2.2546005-2.2545929,2.2546005h-51.2908173c-1.2451782,0-2.2545929-1.0094223-2.2545929-2.2546005
	v-0.0000076C163.1999969,96.2546234,164.2094116,95.2452011,165.4545898,95.2452011z"/>
<path class="st4" d="M165.4545898,105.3679962h27.8908234c1.2451782,0,2.2545929,1.0094223,2.2545929,2.2546005v0.0000076
	c0,1.2451782-1.0094147,2.2546005-2.2545929,2.2546005h-27.8908234c-1.2451782,0-2.2545929-1.0094223-2.2545929-2.2546005
	v-0.0000076C163.1999969,106.3774185,164.2094116,105.3679962,165.4545898,105.3679962z"/>
<path class="st12" d="M158.2545929,115.4909973h35.0908203c1.2451782,0,2.2545929,1.0094223,2.2545929,2.2546005v0.0000076
	c0,1.2451782-1.0094147,2.2546005-2.2545929,2.2546005h-35.0908203c-1.2451782,0-2.2545929-1.0094223-2.2545929-2.2546005
	v-0.0000076C156,116.5004196,157.0094147,115.4909973,158.2545929,115.4909973z"/>
<g>
	<defs>
		<path id="SVGID_1_" d="M144.5769196,164h85.8461609c1.147049,0,2.0769196,0.9298706,2.0769196,2.0769196v53.8461609
			C232.5,221.0701294,231.5701294,222,230.4230804,222h-85.8461609c-1.147049,0-2.0769196-0.9298706-2.0769196-2.0769196
			v-53.8461609C142.5,164.9298706,143.4298706,164,144.5769196,164z"/>
	</defs>
	<clipPath id="SVGID_2_">
		<use xlink:href="#SVGID_1_"  style="overflow:visible;"/>
	</clipPath>
	<g class="st13">
		<path class="st4" d="M144.5769196,164h85.8461609c1.147049,0,2.0769196,0.9298706,2.0769196,2.0769196v53.8461609
			C232.5,221.0701294,231.5701294,222,230.4230804,222h-85.8461609c-1.147049,0-2.0769196-0.9298706-2.0769196-2.0769196
			v-53.8461609C142.5,164.9298706,143.4298706,164,144.5769196,164z"/>
		<path class="st14" d="M144.4998474,164.345993h85.9999847c0.9133911,0,1.6538544,0.7404633,1.6538544,1.6538544v53.9999847
			c0,0.9133911-0.7404633,1.6538544-1.6538544,1.6538544h-85.9999847c-0.9133911,0-1.6538544-0.7404633-1.6538544-1.6538544
			v-53.9999847C142.845993,165.0864563,143.5864563,164.345993,144.4998474,164.345993z"/>
		<g>
			<defs>
				<path id="SVGID_3_" d="M142.5,166.5449982C142.5,165.1399994,143.6399994,164,145.0449982,164h84.9100037
					c1.4049988,0,2.5449982,1.1399994,2.5449982,2.5449982v5.0700073h-90V166.5449982z"/>
			</defs>
			<clipPath id="SVGID_4_">
				<use xlink:href="#SVGID_3_"  style="overflow:visible;"/>
			</clipPath>
			<g class="st15">
				<path class="st16" d="M142.5,166c0-1.1049957,0.8950043-2,2-2h86c1.1049957,0,2,0.8950043,2,2v6.4799957h-90V166z"/>
				<circle class="st17" cx="146.6609955" cy="168.3159943" r="0.9397278"/>
				<circle class="st18" cx="149.6080017" cy="168.3159943" r="0.9397278"/>
				<circle class="st19" cx="152.552002" cy="168.3159943" r="0.9397278"/>
				<path class="st20" d="M156.1390076,167.3190002c0.0309906-0.2720032,0.2609863-0.4779968,0.5339966-0.4779968h13.0009918
					c0.2730103,0,0.503006,0.2059937,0.5330048,0.4779968l0.4839935,4.3549957h-15.0349884L156.1390076,167.3190002z"/>
				<path class="st21" d="M157.7739868,168.7180023h8.5917816c0.2965698,0,0.5369873,0.2404175,0.5369873,0.5369873l0,0
					c0,0.2965698-0.2404175,0.5369873-0.5369873,0.5369873h-8.5917816c-0.2965698,0-0.5369873-0.2404175-0.5369873-0.5369873l0,0
					C157.2369995,168.9584198,157.477417,168.7180023,157.7739868,168.7180023z"/>
				<path class="st21" d="M167.9769897,168.7160034L167.9769897,168.7160034c0.2965698,0,0.5369873,0.2404175,0.5369873,0.5369873
					l0,0c0,0.2965698-0.2404175,0.5369873-0.5369873,0.5369873l0,0c-0.2965698,0-0.5369873-0.2404175-0.5369873-0.5369873l0,0
					C167.4400024,168.9564209,167.6804199,168.7160034,167.9769897,168.7160034z"/>
				<path class="st20" d="M171.4600067,167.9409943c-0.0180054-0.1589966,0.1069946-0.2969971,0.2669983-0.2969971h3.2109985
					c0.1369934,0,0.2519989,0.102005,0.2669983,0.2380066l0.2969971,2.6849976
					c0.0180054,0.1589966-0.1069946,0.2980042-0.2669983,0.2980042h-3.2180023
					c-0.1369934,0-0.2519989-0.1030121-0.2669983-0.2389984L171.4600067,167.9409943z"/>
				<path class="st22" d="M172.9733734,169.0540009h1.2082214c0.1112061,0,0.2013702,0.0901642,0.2013702,0.2013702l0,0
					c0,0.1112061-0.0901642,0.2013702-0.2013702,0.2013702h-1.2082214c-0.1112061,0-0.2013702-0.0901642-0.2013702-0.2013702l0,0
					C172.7720032,169.144165,172.8621674,169.0540009,172.9733734,169.0540009z"/>
				<path class="st22" d="M173.7779999,168.6513672v1.2082214c0,0.1112061-0.0901642,0.2013702-0.2013702,0.2013702l0,0
					c-0.1112061,0-0.2013702-0.0901642-0.2013702-0.2013702v-1.2082214c0-0.1112061,0.0901642-0.2013702,0.2013702-0.2013702l0,0
					C173.6878357,168.4499969,173.7779999,168.5401611,173.7779999,168.6513672z"/>
			</g>
		</g>
		<path class="st5" d="M173.5,206h28c0.5522919,0,1,0.4477081,1,1v5c0,0.5522919-0.4477081,1-1,1h-28c-0.5522919,0-1-0.4477081-1-1
			v-5C172.5,206.4477081,172.9477081,206,173.5,206z"/>
		<path class="st23" d="M163.5,181.5h48c0.2761383,0,0.5,0.2238617,0.5,0.5v5c0,0.2761383-0.2238617,0.5-0.5,0.5h-48
			c-0.2761383,0-0.5-0.2238617-0.5-0.5v-5C163,181.7238617,163.2238617,181.5,163.5,181.5z"/>
		<path class="st23" d="M163.5,193.5h48c0.2761383,0,0.5,0.2238617,0.5,0.5v5c0,0.2761383-0.2238617,0.5-0.5,0.5h-48
			c-0.2761383,0-0.5-0.2238617-0.5-0.5v-5C163,193.7238617,163.2238617,193.5,163.5,193.5z"/>
	</g>
</g>
</svg>
