<svg width="375" height="350" viewBox="0 0 375 350" fill="none" xmlns="http://www.w3.org/2000/svg">
<rect width="375" height="350" fill="#FAFAFA"/>
<path d="M56.1652 28.088H59.6092C60.0759 28.088 60.5286 28.1393 60.9672 28.242C61.4059 28.3353 61.7932 28.494 62.1292 28.718C62.4746 28.942 62.7499 29.236 62.9552 29.6C63.1606 29.964 63.2632 30.4073 63.2632 30.93C63.2632 31.6487 63.0579 32.2367 62.6472 32.694C62.2459 33.142 61.6952 33.4453 60.9952 33.604L63.6412 38H61.5132L59.2172 33.8H57.9292V38H56.1652V28.088ZM59.3712 32.358C59.6232 32.358 59.8752 32.3393 60.1272 32.302C60.3792 32.2647 60.6032 32.1947 60.7992 32.092C61.0046 31.9893 61.1726 31.8447 61.3032 31.658C61.4339 31.462 61.4992 31.2147 61.4992 30.916C61.4992 30.6453 61.4386 30.426 61.3172 30.258C61.1959 30.0807 61.0419 29.9407 60.8552 29.838C60.6686 29.7353 60.4539 29.6653 60.2112 29.628C59.9779 29.5907 59.7492 29.572 59.5252 29.572H57.9292V32.358H59.3712ZM70.8539 38H69.2579V36.922H69.2299C69.0805 37.258 68.8192 37.5567 68.4459 37.818C68.0819 38.07 67.6479 38.196 67.1439 38.196C66.7052 38.196 66.3272 38.1213 66.0099 37.972C65.7019 37.8133 65.4452 37.608 65.2399 37.356C65.0439 37.104 64.8992 36.8147 64.8059 36.488C64.7125 36.1613 64.6659 35.8253 64.6659 35.48V31.28H66.3459V35.004C66.3459 35.2 66.3599 35.4053 66.3879 35.62C66.4159 35.8347 66.4765 36.0307 66.5699 36.208C66.6632 36.376 66.7892 36.516 66.9479 36.628C67.1159 36.74 67.3352 36.796 67.6059 36.796C67.8672 36.796 68.0959 36.7447 68.2919 36.642C68.4972 36.53 68.6605 36.39 68.7819 36.222C68.9125 36.054 69.0105 35.8627 69.0759 35.648C69.1412 35.424 69.1739 35.2 69.1739 34.976V31.28H70.8539V38ZM74.5783 27.416V32.134H74.6203C74.7043 32.022 74.8116 31.9053 74.9423 31.784C75.073 31.6627 75.227 31.5507 75.4043 31.448C75.591 31.3453 75.8056 31.2613 76.0483 31.196C76.291 31.1213 76.5663 31.084 76.8743 31.084C77.3503 31.084 77.789 31.1773 78.1903 31.364C78.5916 31.5413 78.937 31.7887 79.2263 32.106C79.5156 32.4233 79.7396 32.7967 79.8983 33.226C80.057 33.6553 80.1363 34.1173 80.1363 34.612C80.1363 35.1067 80.057 35.5733 79.8983 36.012C79.749 36.4413 79.5296 36.8193 79.2403 37.146C78.9603 37.4633 78.615 37.72 78.2043 37.916C77.803 38.1027 77.3456 38.196 76.8323 38.196C76.3563 38.196 75.9083 38.0933 75.4883 37.888C75.0776 37.6827 74.7556 37.384 74.5223 36.992H74.4943V38H72.8983V27.416H74.5783ZM78.4283 34.612C78.4283 34.3507 78.3863 34.094 78.3023 33.842C78.2276 33.5807 78.111 33.3473 77.9523 33.142C77.7936 32.9367 77.593 32.7733 77.3503 32.652C77.1076 32.5213 76.823 32.456 76.4963 32.456C76.1883 32.456 75.913 32.5213 75.6703 32.652C75.4276 32.7827 75.2176 32.9507 75.0403 33.156C74.8723 33.3613 74.7416 33.5947 74.6483 33.856C74.5643 34.1173 74.5223 34.3787 74.5223 34.64C74.5223 34.9013 74.5643 35.1627 74.6483 35.424C74.7416 35.676 74.8723 35.9047 75.0403 36.11C75.2176 36.3153 75.4276 36.4833 75.6703 36.614C75.913 36.7353 76.1883 36.796 76.4963 36.796C76.823 36.796 77.1076 36.7307 77.3503 36.6C77.593 36.4693 77.7936 36.3013 77.9523 36.096C78.111 35.8907 78.2276 35.6573 78.3023 35.396C78.3863 35.1347 78.4283 34.8733 78.4283 34.612ZM80.749 31.28H82.611L84.487 36.166H84.515L86.181 31.28H87.931L84.753 39.442C84.6317 39.75 84.501 40.0207 84.361 40.254C84.221 40.4967 84.053 40.6973 83.857 40.856C83.661 41.024 83.4277 41.15 83.157 41.234C82.8957 41.318 82.5784 41.36 82.205 41.36C82.065 41.36 81.9204 41.3507 81.771 41.332C81.631 41.3227 81.4864 41.2993 81.337 41.262L81.477 39.806C81.589 39.8433 81.6964 39.8667 81.799 39.876C81.911 39.8947 82.0137 39.904 82.107 39.904C82.2844 39.904 82.4337 39.8807 82.555 39.834C82.6764 39.7967 82.779 39.7313 82.863 39.638C82.947 39.554 83.0217 39.4467 83.087 39.316C83.1524 39.1853 83.2224 39.0313 83.297 38.854L83.633 38L80.749 31.28Z" fill="black"/>
<path d="M58.8723 312.088H62.1063C62.6756 312.088 63.1889 312.139 63.6463 312.242C64.1036 312.345 64.4956 312.513 64.8223 312.746C65.1489 312.979 65.4009 313.278 65.5783 313.642C65.7556 314.006 65.8443 314.445 65.8443 314.958C65.8443 315.509 65.7416 315.971 65.5363 316.344C65.3309 316.717 65.0509 317.021 64.6963 317.254C64.3509 317.478 63.9449 317.641 63.4783 317.744C63.0116 317.847 62.5169 317.898 61.9943 317.898H60.6363V322H58.8723V312.088ZM61.8683 316.414C62.1576 316.414 62.4329 316.395 62.6943 316.358C62.9556 316.311 63.1889 316.237 63.3943 316.134C63.5996 316.022 63.7629 315.873 63.8843 315.686C64.0056 315.499 64.0663 315.257 64.0663 314.958C64.0663 314.669 64.0056 314.435 63.8843 314.258C63.7629 314.071 63.5996 313.927 63.3943 313.824C63.1983 313.721 62.9696 313.656 62.7083 313.628C62.4563 313.591 62.1949 313.572 61.9243 313.572H60.6363V316.414H61.8683ZM67.4172 312.088H69.1812V316.092H73.8152V312.088H75.5792V322H73.8152V317.604H69.1812V322H67.4172V312.088ZM77.7668 312.088H81.0008C81.5701 312.088 82.0835 312.139 82.5408 312.242C82.9981 312.345 83.3901 312.513 83.7168 312.746C84.0435 312.979 84.2955 313.278 84.4728 313.642C84.6501 314.006 84.7388 314.445 84.7388 314.958C84.7388 315.509 84.6361 315.971 84.4308 316.344C84.2255 316.717 83.9455 317.021 83.5908 317.254C83.2455 317.478 82.8395 317.641 82.3728 317.744C81.9061 317.847 81.4115 317.898 80.8888 317.898H79.5308V322H77.7668V312.088ZM80.7628 316.414C81.0521 316.414 81.3275 316.395 81.5888 316.358C81.8501 316.311 82.0835 316.237 82.2888 316.134C82.4941 316.022 82.6575 315.873 82.7788 315.686C82.9001 315.499 82.9608 315.257 82.9608 314.958C82.9608 314.669 82.9001 314.435 82.7788 314.258C82.6575 314.071 82.4941 313.927 82.2888 313.824C82.0928 313.721 81.8641 313.656 81.6028 313.628C81.3508 313.591 81.0895 313.572 80.8188 313.572H79.5308V316.414H80.7628Z" fill="black"/>
<path d="M165.871 28.088H169.105C169.674 28.088 170.188 28.1393 170.645 28.242C171.102 28.3447 171.494 28.5127 171.821 28.746C172.148 28.9793 172.4 29.278 172.577 29.642C172.754 30.006 172.843 30.4447 172.843 30.958C172.843 31.5087 172.74 31.9707 172.535 32.344C172.33 32.7173 172.05 33.0207 171.695 33.254C171.35 33.478 170.944 33.6413 170.477 33.744C170.01 33.8467 169.516 33.898 168.993 33.898H167.635V38H165.871V28.088ZM168.867 32.414C169.156 32.414 169.432 32.3953 169.693 32.358C169.954 32.3113 170.188 32.2367 170.393 32.134C170.598 32.022 170.762 31.8727 170.883 31.686C171.004 31.4993 171.065 31.2567 171.065 30.958C171.065 30.6687 171.004 30.4353 170.883 30.258C170.762 30.0713 170.598 29.9267 170.393 29.824C170.197 29.7213 169.968 29.656 169.707 29.628C169.455 29.5907 169.194 29.572 168.923 29.572H167.635V32.414H168.867ZM173.296 31.28H175.158L177.034 36.166H177.062L178.728 31.28H180.478L177.3 39.442C177.179 39.75 177.048 40.0207 176.908 40.254C176.768 40.4967 176.6 40.6973 176.404 40.856C176.208 41.024 175.975 41.15 175.704 41.234C175.443 41.318 175.126 41.36 174.752 41.36C174.612 41.36 174.468 41.3507 174.318 41.332C174.178 41.3227 174.034 41.2993 173.884 41.262L174.024 39.806C174.136 39.8433 174.244 39.8667 174.346 39.876C174.458 39.8947 174.561 39.904 174.654 39.904C174.832 39.904 174.981 39.8807 175.102 39.834C175.224 39.7967 175.326 39.7313 175.41 39.638C175.494 39.554 175.569 39.4467 175.634 39.316C175.7 39.1853 175.77 39.0313 175.844 38.854L176.18 38L173.296 31.28ZM181.076 32.624V31.28H182.252V29.334H183.904V31.28H185.584V32.624H183.904V35.746C183.904 36.0447 183.955 36.292 184.058 36.488C184.17 36.684 184.413 36.782 184.786 36.782C184.898 36.782 185.019 36.7727 185.15 36.754C185.281 36.726 185.397 36.6887 185.5 36.642L185.556 37.958C185.407 38.014 185.229 38.056 185.024 38.084C184.819 38.1213 184.623 38.14 184.436 38.14C183.988 38.14 183.624 38.0793 183.344 37.958C183.064 37.8273 182.84 37.6547 182.672 37.44C182.513 37.216 182.401 36.964 182.336 36.684C182.28 36.3947 182.252 36.0867 182.252 35.76V32.624H181.076ZM191.098 31.084C191.536 31.084 191.91 31.1633 192.218 31.322C192.535 31.4713 192.792 31.672 192.988 31.924C193.193 32.176 193.342 32.4653 193.436 32.792C193.529 33.1187 193.576 33.4547 193.576 33.8V38H191.896V34.304C191.896 34.108 191.882 33.9073 191.854 33.702C191.826 33.4873 191.765 33.296 191.672 33.128C191.588 32.9507 191.462 32.806 191.294 32.694C191.135 32.582 190.92 32.526 190.65 32.526C190.379 32.526 190.146 32.5773 189.95 32.68C189.754 32.7827 189.59 32.9227 189.46 33.1C189.329 33.268 189.231 33.4593 189.166 33.674C189.1 33.8887 189.068 34.108 189.068 34.332V38H187.388V27.416H189.068V32.218H189.096C189.161 32.078 189.254 31.9427 189.376 31.812C189.506 31.672 189.656 31.5507 189.824 31.448C189.992 31.336 190.183 31.2473 190.398 31.182C190.612 31.1167 190.846 31.084 191.098 31.084ZM195.144 34.612C195.144 34.08 195.237 33.5993 195.424 33.17C195.62 32.7313 195.881 32.358 196.208 32.05C196.534 31.742 196.922 31.504 197.37 31.336C197.818 31.168 198.294 31.084 198.798 31.084C199.302 31.084 199.778 31.168 200.226 31.336C200.674 31.504 201.061 31.742 201.388 32.05C201.714 32.358 201.971 32.7313 202.158 33.17C202.354 33.5993 202.452 34.08 202.452 34.612C202.452 35.144 202.354 35.6293 202.158 36.068C201.971 36.5067 201.714 36.8847 201.388 37.202C201.061 37.51 200.674 37.7527 200.226 37.93C199.778 38.1073 199.302 38.196 198.798 38.196C198.294 38.196 197.818 38.1073 197.37 37.93C196.922 37.7527 196.534 37.51 196.208 37.202C195.881 36.8847 195.62 36.5067 195.424 36.068C195.237 35.6293 195.144 35.144 195.144 34.612ZM196.852 34.612C196.852 34.8733 196.889 35.1347 196.964 35.396C197.048 35.6573 197.169 35.8907 197.328 36.096C197.486 36.3013 197.687 36.4693 197.93 36.6C198.172 36.7307 198.462 36.796 198.798 36.796C199.134 36.796 199.423 36.7307 199.666 36.6C199.908 36.4693 200.109 36.3013 200.268 36.096C200.426 35.8907 200.543 35.6573 200.618 35.396C200.702 35.1347 200.744 34.8733 200.744 34.612C200.744 34.3507 200.702 34.094 200.618 33.842C200.543 33.5807 200.426 33.3473 200.268 33.142C200.109 32.9367 199.908 32.7733 199.666 32.652C199.423 32.5213 199.134 32.456 198.798 32.456C198.462 32.456 198.172 32.5213 197.93 32.652C197.687 32.7733 197.486 32.9367 197.328 33.142C197.169 33.3473 197.048 33.5807 196.964 33.842C196.889 34.094 196.852 34.3507 196.852 34.612ZM204.08 31.28H205.676V32.358H205.704C205.854 32.022 206.11 31.728 206.474 31.476C206.848 31.2147 207.286 31.084 207.79 31.084C208.229 31.084 208.602 31.1633 208.91 31.322C209.228 31.4713 209.484 31.672 209.68 31.924C209.886 32.176 210.035 32.4653 210.128 32.792C210.222 33.1187 210.268 33.4547 210.268 33.8V38H208.588V34.276C208.588 34.08 208.574 33.8747 208.546 33.66C208.518 33.4453 208.458 33.254 208.364 33.086C208.271 32.9087 208.14 32.764 207.972 32.652C207.814 32.54 207.599 32.484 207.328 32.484C207.058 32.484 206.824 32.54 206.628 32.652C206.432 32.7547 206.269 32.89 206.138 33.058C206.017 33.226 205.924 33.422 205.858 33.646C205.793 33.8607 205.76 34.08 205.76 34.304V38H204.08V31.28Z" fill="black"/>
<path d="M175.208 312.088H178.652C179.119 312.088 179.572 312.139 180.01 312.242C180.449 312.335 180.836 312.494 181.172 312.718C181.518 312.942 181.793 313.236 181.998 313.6C182.204 313.964 182.306 314.407 182.306 314.93C182.306 315.649 182.101 316.237 181.69 316.694C181.289 317.142 180.738 317.445 180.038 317.604L182.684 322H180.556L178.26 317.8H176.972V322H175.208V312.088ZM178.414 316.358C178.666 316.358 178.918 316.339 179.17 316.302C179.422 316.265 179.646 316.195 179.842 316.092C180.048 315.989 180.216 315.845 180.346 315.658C180.477 315.462 180.542 315.215 180.542 314.916C180.542 314.645 180.482 314.426 180.36 314.258C180.239 314.081 180.085 313.941 179.898 313.838C179.712 313.735 179.497 313.665 179.254 313.628C179.021 313.591 178.792 313.572 178.568 313.572H176.972V316.358H178.414ZM189.897 322H188.301V320.922H188.273C188.124 321.258 187.862 321.557 187.489 321.818C187.125 322.07 186.691 322.196 186.187 322.196C185.748 322.196 185.37 322.121 185.053 321.972C184.745 321.813 184.488 321.608 184.283 321.356C184.087 321.104 183.942 320.815 183.849 320.488C183.756 320.161 183.709 319.825 183.709 319.48V315.28H185.389V319.004C185.389 319.2 185.403 319.405 185.431 319.62C185.459 319.835 185.52 320.031 185.613 320.208C185.706 320.376 185.832 320.516 185.991 320.628C186.159 320.74 186.378 320.796 186.649 320.796C186.91 320.796 187.139 320.745 187.335 320.642C187.54 320.53 187.704 320.39 187.825 320.222C187.956 320.054 188.054 319.863 188.119 319.648C188.184 319.424 188.217 319.2 188.217 318.976V315.28H189.897V322ZM195.595 317.072C195.446 316.876 195.241 316.708 194.979 316.568C194.718 316.419 194.433 316.344 194.125 316.344C193.855 316.344 193.607 316.4 193.383 316.512C193.159 316.624 193.047 316.811 193.047 317.072C193.047 317.333 193.169 317.52 193.411 317.632C193.663 317.735 194.027 317.842 194.503 317.954C194.755 318.01 195.007 318.085 195.259 318.178C195.521 318.271 195.754 318.397 195.959 318.556C196.174 318.705 196.347 318.897 196.477 319.13C196.608 319.354 196.673 319.629 196.673 319.956C196.673 320.367 196.594 320.717 196.435 321.006C196.286 321.286 196.081 321.515 195.819 321.692C195.567 321.869 195.269 321.995 194.923 322.07C194.587 322.154 194.237 322.196 193.873 322.196C193.351 322.196 192.842 322.103 192.347 321.916C191.853 321.72 191.442 321.445 191.115 321.09L192.221 320.054C192.408 320.297 192.651 320.497 192.949 320.656C193.248 320.815 193.579 320.894 193.943 320.894C194.065 320.894 194.186 320.88 194.307 320.852C194.438 320.824 194.555 320.782 194.657 320.726C194.769 320.661 194.858 320.577 194.923 320.474C194.989 320.371 195.021 320.245 195.021 320.096C195.021 319.816 194.891 319.615 194.629 319.494C194.377 319.373 193.995 319.251 193.481 319.13C193.229 319.074 192.982 319.004 192.739 318.92C192.506 318.827 192.296 318.71 192.109 318.57C191.923 318.421 191.773 318.239 191.661 318.024C191.549 317.809 191.493 317.543 191.493 317.226C191.493 316.853 191.568 316.531 191.717 316.26C191.876 315.989 192.081 315.77 192.333 315.602C192.585 315.425 192.87 315.294 193.187 315.21C193.505 315.126 193.831 315.084 194.167 315.084C194.653 315.084 195.124 315.168 195.581 315.336C196.048 315.504 196.417 315.761 196.687 316.106L195.595 317.072ZM197.168 316.624V315.28H198.344V313.334H199.996V315.28H201.676V316.624H199.996V319.746C199.996 320.045 200.047 320.292 200.15 320.488C200.262 320.684 200.505 320.782 200.878 320.782C200.99 320.782 201.111 320.773 201.242 320.754C201.373 320.726 201.489 320.689 201.592 320.642L201.648 321.958C201.499 322.014 201.321 322.056 201.116 322.084C200.911 322.121 200.715 322.14 200.528 322.14C200.08 322.14 199.716 322.079 199.436 321.958C199.156 321.827 198.932 321.655 198.764 321.44C198.605 321.216 198.493 320.964 198.428 320.684C198.372 320.395 198.344 320.087 198.344 319.76V316.624H197.168Z" fill="black"/>
<path d="M294.733 35.794C294.733 36.158 294.691 36.5407 294.607 36.942C294.532 37.3433 294.387 37.7167 294.173 38.062C293.958 38.4073 293.655 38.692 293.263 38.916C292.871 39.14 292.367 39.252 291.751 39.252C290.948 39.252 290.304 39.0513 289.819 38.65C289.343 38.2487 289.016 37.7213 288.839 37.068L290.463 36.606C290.547 36.9327 290.701 37.194 290.925 37.39C291.149 37.5767 291.415 37.67 291.723 37.67C291.975 37.67 292.18 37.6233 292.339 37.53C292.507 37.4367 292.633 37.306 292.717 37.138C292.81 36.9607 292.875 36.7553 292.913 36.522C292.95 36.2793 292.969 36.018 292.969 35.738V29.088H294.733V35.794ZM300.839 38.146H300.797C300.629 38.4447 300.359 38.692 299.985 38.888C299.612 39.0747 299.187 39.168 298.711 39.168C298.441 39.168 298.156 39.1307 297.857 39.056C297.568 38.9907 297.297 38.8787 297.045 38.72C296.803 38.552 296.597 38.3373 296.429 38.076C296.271 37.8053 296.191 37.474 296.191 37.082C296.191 36.578 296.331 36.1767 296.611 35.878C296.901 35.5793 297.269 35.3507 297.717 35.192C298.165 35.0333 298.66 34.9307 299.201 34.884C299.752 34.828 300.289 34.8 300.811 34.8V34.632C300.811 34.212 300.657 33.904 300.349 33.708C300.051 33.5027 299.691 33.4 299.271 33.4C298.917 33.4 298.576 33.4747 298.249 33.624C297.923 33.7733 297.652 33.9553 297.437 34.17L296.569 33.148C296.952 32.7933 297.391 32.5273 297.885 32.35C298.389 32.1727 298.898 32.084 299.411 32.084C300.009 32.084 300.499 32.168 300.881 32.336C301.273 32.504 301.581 32.7233 301.805 32.994C302.029 33.2647 302.183 33.568 302.267 33.904C302.361 34.24 302.407 34.576 302.407 34.912V39H300.839V38.146ZM300.811 35.934H300.433C300.163 35.934 299.878 35.948 299.579 35.976C299.281 35.9947 299.005 36.046 298.753 36.13C298.501 36.2047 298.291 36.3167 298.123 36.466C297.955 36.606 297.871 36.802 297.871 37.054C297.871 37.2127 297.904 37.348 297.969 37.46C298.044 37.5627 298.137 37.6467 298.249 37.712C298.361 37.7773 298.487 37.824 298.627 37.852C298.767 37.88 298.907 37.894 299.047 37.894C299.626 37.894 300.065 37.74 300.363 37.432C300.662 37.124 300.811 36.704 300.811 36.172V35.934ZM303.356 32.28H305.19L306.954 37.18H306.982L308.76 32.28H310.538L307.864 39H306.072L303.356 32.28ZM315.714 38.146H315.672C315.504 38.4447 315.234 38.692 314.86 38.888C314.487 39.0747 314.062 39.168 313.586 39.168C313.316 39.168 313.031 39.1307 312.732 39.056C312.443 38.9907 312.172 38.8787 311.92 38.72C311.678 38.552 311.472 38.3373 311.304 38.076C311.146 37.8053 311.066 37.474 311.066 37.082C311.066 36.578 311.206 36.1767 311.486 35.878C311.776 35.5793 312.144 35.3507 312.592 35.192C313.04 35.0333 313.535 34.9307 314.076 34.884C314.627 34.828 315.164 34.8 315.686 34.8V34.632C315.686 34.212 315.532 33.904 315.224 33.708C314.926 33.5027 314.566 33.4 314.146 33.4C313.792 33.4 313.451 33.4747 313.124 33.624C312.798 33.7733 312.527 33.9553 312.312 34.17L311.444 33.148C311.827 32.7933 312.266 32.5273 312.76 32.35C313.264 32.1727 313.773 32.084 314.286 32.084C314.884 32.084 315.374 32.168 315.756 32.336C316.148 32.504 316.456 32.7233 316.68 32.994C316.904 33.2647 317.058 33.568 317.142 33.904C317.236 34.24 317.282 34.576 317.282 34.912V39H315.714V38.146ZM315.686 35.934H315.308C315.038 35.934 314.753 35.948 314.454 35.976C314.156 35.9947 313.88 36.046 313.628 36.13C313.376 36.2047 313.166 36.3167 312.998 36.466C312.83 36.606 312.746 36.802 312.746 37.054C312.746 37.2127 312.779 37.348 312.844 37.46C312.919 37.5627 313.012 37.6467 313.124 37.712C313.236 37.7773 313.362 37.824 313.502 37.852C313.642 37.88 313.782 37.894 313.922 37.894C314.501 37.894 314.94 37.74 315.238 37.432C315.537 37.124 315.686 36.704 315.686 36.172V35.934Z" fill="black"/>
<path d="M303.585 321.482C303.081 321.725 302.526 321.911 301.919 322.042C301.322 322.182 300.631 322.252 299.847 322.252C299.045 322.252 298.312 322.126 297.649 321.874C296.987 321.613 296.417 321.253 295.941 320.796C295.465 320.329 295.092 319.779 294.821 319.144C294.56 318.5 294.429 317.791 294.429 317.016C294.429 316.223 294.565 315.509 294.835 314.874C295.115 314.23 295.493 313.684 295.969 313.236C296.455 312.788 297.024 312.443 297.677 312.2C298.331 311.957 299.04 311.836 299.805 311.836C300.599 311.836 301.322 311.953 301.975 312.186C302.638 312.41 303.17 312.709 303.571 313.082L302.353 314.398C302.101 314.118 301.747 313.88 301.289 313.684C300.841 313.488 300.351 313.39 299.819 313.39C299.297 313.39 298.821 313.483 298.391 313.67C297.971 313.857 297.612 314.113 297.313 314.44C297.015 314.767 296.781 315.149 296.613 315.588C296.455 316.027 296.375 316.503 296.375 317.016C296.375 317.548 296.455 318.038 296.613 318.486C296.781 318.925 297.015 319.307 297.313 319.634C297.621 319.961 297.99 320.217 298.419 320.404C298.858 320.581 299.353 320.67 299.903 320.67C300.659 320.67 301.317 320.553 301.877 320.32V317.8H299.791V316.344H303.585V321.482ZM305.258 318.612C305.258 318.08 305.351 317.599 305.538 317.17C305.734 316.731 305.995 316.358 306.322 316.05C306.648 315.742 307.036 315.504 307.484 315.336C307.932 315.168 308.408 315.084 308.912 315.084C309.416 315.084 309.892 315.168 310.34 315.336C310.788 315.504 311.175 315.742 311.502 316.05C311.828 316.358 312.085 316.731 312.272 317.17C312.468 317.599 312.566 318.08 312.566 318.612C312.566 319.144 312.468 319.629 312.272 320.068C312.085 320.507 311.828 320.885 311.502 321.202C311.175 321.51 310.788 321.753 310.34 321.93C309.892 322.107 309.416 322.196 308.912 322.196C308.408 322.196 307.932 322.107 307.484 321.93C307.036 321.753 306.648 321.51 306.322 321.202C305.995 320.885 305.734 320.507 305.538 320.068C305.351 319.629 305.258 319.144 305.258 318.612ZM306.966 318.612C306.966 318.873 307.003 319.135 307.078 319.396C307.162 319.657 307.283 319.891 307.442 320.096C307.6 320.301 307.801 320.469 308.044 320.6C308.286 320.731 308.576 320.796 308.912 320.796C309.248 320.796 309.537 320.731 309.78 320.6C310.022 320.469 310.223 320.301 310.382 320.096C310.54 319.891 310.657 319.657 310.732 319.396C310.816 319.135 310.858 318.873 310.858 318.612C310.858 318.351 310.816 318.094 310.732 317.842C310.657 317.581 310.54 317.347 310.382 317.142C310.223 316.937 310.022 316.773 309.78 316.652C309.537 316.521 309.248 316.456 308.912 316.456C308.576 316.456 308.286 316.521 308.044 316.652C307.801 316.773 307.6 316.937 307.442 317.142C307.283 317.347 307.162 317.581 307.078 317.842C307.003 318.094 306.966 318.351 306.966 318.612Z" fill="black"/>
<path fill-rule="evenodd" clip-rule="evenodd" d="M263 48C261.343 48 260 49.3431 260 51V94C260 94.1725 260.015 94.3416 260.043 94.5062C260.077 94.7085 260.109 94.912 260.108 95.1172L260.057 101.779C260.046 103.312 261.949 104.029 262.952 102.871L267.38 97.7589C267.798 97.2769 268.404 97 269.042 97H344C345.657 97 347 95.6569 347 94V51C347 49.3431 345.657 48 344 48H263Z" fill="#2A2F35"/>
<rect x="320" y="58" width="17" height="5" rx="2.5" fill="white"/>
<rect x="270" y="58" width="18" height="5" rx="2.5" fill="white"/>
<rect x="286" y="82" width="18" height="5" rx="2.5" fill="#D2AE78"/>
<rect x="270" y="70" width="21" height="5" rx="2.5" fill="#D2AE78"/>
<rect x="311" y="70" width="12" height="5" rx="2.5" fill="white"/>
<rect x="270" y="82" width="12" height="5" rx="2.5" fill="white"/>
<rect x="306" y="58" width="10" height="5" rx="2.5" fill="#D2AE78"/>
<rect x="292" y="58" width="10" height="5" rx="2.5" fill="white"/>
<rect x="308" y="82" width="9" height="5" rx="2.5" fill="white"/>
<rect x="295" y="70" width="12" height="5" rx="2.5" fill="white"/>
<path fill-rule="evenodd" clip-rule="evenodd" d="M269.404 253C268.761 253 268.151 252.719 267.733 252.23L262.902 246.58C261.906 245.416 259.998 246.121 260 247.654L260.009 255.76C260.003 255.839 260 255.919 260 256V299C260 300.657 261.343 302 263 302H344C345.657 302 347 300.657 347 299V256C347 254.343 345.657 253 344 253H269.404Z" fill="#2A2F35"/>
<rect x="321" y="275" width="16" height="5" rx="2.5" fill="white"/>
<rect x="270.014" y="275.24" width="15" height="5" rx="2.5" fill="white"/>
<rect x="270.014" y="263.24" width="12" height="5" rx="2.5" fill="white"/>
<rect x="299.014" y="263.24" width="24" height="5" rx="2.5" fill="white"/>
<rect x="289.014" y="287.24" width="24" height="5" rx="2.5" fill="#88E7CE"/>
<rect x="270.014" y="287.24" width="15" height="5" rx="2.5" fill="white"/>
<rect x="302.014" y="275.24" width="15" height="5" rx="2.5" fill="#88E7CE"/>
<rect x="289.014" y="275.24" width="9" height="5" rx="2.5" fill="white"/>
<rect x="317.014" y="287.24" width="9" height="5" rx="2.5" fill="white"/>
<rect x="286.014" y="263.24" width="9" height="5" rx="2.5" fill="#88E7CE"/>
<path fill-rule="evenodd" clip-rule="evenodd" d="M147 48C145.343 48 144 49.3431 144 51V94C144 95.6569 145.343 97 147 97H182.383C183.307 97 184.132 97.5769 184.45 98.4443L186.781 104.82C187.303 106.246 189.311 106.27 189.867 104.857L192.405 98.3955C192.736 97.5536 193.548 97 194.453 97H229C230.657 97 232 95.6569 232 94V51C232 49.3431 230.657 48 229 48H147Z" fill="#2A2F35"/>
<rect x="201.667" y="58" width="15.1724" height="5" rx="2.5" fill="#72DAFF"/>
<rect x="154.126" y="58" width="13.1494" height="5" rx="2.5" fill="white"/>
<rect x="154.126" y="70" width="27.3103" height="5" rx="2.5" fill="white"/>
<rect x="185.483" y="70" width="15.1724" height="5" rx="2.5" fill="white"/>
<rect x="154.126" y="82" width="16.1839" height="5" rx="2.5" fill="white"/>
<rect x="188.517" y="58" width="9.10345" height="5" rx="2.5" fill="white"/>
<rect x="174.356" y="82" width="21.2414" height="5" rx="2.5" fill="#72DAFF"/>
<rect x="200" y="82" width="22" height="5" rx="2.5" fill="white"/>
<rect x="171.322" y="58" width="13.1494" height="5" rx="2.5" fill="#72DAFF"/>
<path fill-rule="evenodd" clip-rule="evenodd" d="M195.016 253C194.104 253 193.286 252.437 192.961 251.585L190.47 245.061C189.922 243.629 187.887 243.652 187.373 245.097L185.085 251.537C184.773 252.414 183.943 253 183.012 253H147C145.343 253 144 254.343 144 256V299C144 300.657 145.343 302 147 302H229C230.657 302 232 300.657 232 299V256C232 254.343 230.657 253 229 253H195.016Z" fill="#2A2F35"/>
<rect x="154" y="275" width="15" height="5" rx="2.5" fill="white"/>
<rect x="154" y="263" width="18" height="5" rx="2.5" fill="white"/>
<rect x="201" y="263" width="12" height="5" rx="2.5" fill="white"/>
<rect x="154" y="287" width="12" height="5" rx="2.5" fill="#FFA780"/>
<rect x="170" y="287" width="9" height="5" rx="2.5" fill="white"/>
<rect x="183" y="287" width="9" height="5" rx="2.5" fill="white"/>
<rect x="196" y="287" width="26" height="5" rx="2.5" fill="white"/>
<rect x="186" y="275" width="9" height="5" rx="2.5" fill="#FFA780"/>
<rect x="173" y="275" width="9" height="5" rx="2.5" fill="white"/>
<rect x="176" y="263" width="21" height="5" rx="2.5" fill="#FFA780"/>
<path fill-rule="evenodd" clip-rule="evenodd" d="M31 48C29.3431 48 28 49.3431 28 51V94C28 95.6569 29.3431 97 31 97H106.006C106.645 97 107.252 97.2775 107.67 97.7604L112.16 102.949C113.163 104.109 115.068 103.391 115.057 101.858L115 93.7398V51C115 49.3431 113.657 48 112 48H31Z" fill="#2A2F35"/>
<rect x="79" y="58" width="16" height="5" rx="2.5" fill="#FF7F8C"/>
<rect x="38" y="58" width="23" height="5" rx="2.5" fill="white"/>
<rect x="38" y="70" width="13" height="5" rx="2.5" fill="white"/>
<rect x="69" y="70" width="36" height="5" rx="2.5" fill="white"/>
<rect x="37.9995" y="82.0415" width="24.2" height="5" rx="2.5" fill="white"/>
<rect x="66" y="82" width="17" height="5" rx="2.5" fill="#FF7F8C"/>
<rect x="65" y="58" width="9.9" height="5" rx="2.5" fill="white"/>
<rect x="55" y="70" width="10" height="5" rx="2.5" fill="#FF7F8C"/>
<path fill-rule="evenodd" clip-rule="evenodd" d="M114.994 255.808L115.067 247.684C115.081 246.151 113.178 245.43 112.172 246.587L107.258 252.243C106.84 252.724 106.235 253 105.597 253H31C29.3431 253 28 254.343 28 256V299C28 300.657 29.3431 302 31 302H112C113.657 302 115 300.657 115 299V256C115 255.936 114.998 255.872 114.994 255.808Z" fill="#2A2F35"/>
<rect x="38" y="263" width="24" height="5" rx="2.5" fill="white"/>
<rect x="66" y="263" width="12" height="5" rx="2.5" fill="white"/>
<rect x="82" y="263" width="21" height="5" rx="2.5" fill="white"/>
<rect x="89" y="275" width="16" height="5" rx="2.5" fill="#C6BAEA"/>
<rect x="38" y="275" width="12" height="5" rx="2.5" fill="white"/>
<rect x="76" y="275" width="9" height="5" rx="2.5" fill="white"/>
<rect x="38" y="287" width="21" height="5" rx="2.5" fill="white"/>
<rect x="63" y="287" width="33" height="5" rx="2.5" fill="#C6BAEA"/>
<rect x="54" y="275" width="18" height="5" rx="2.5" fill="#C6BAEA"/>
<path d="M169.443 123.059C169.813 122.561 170.396 122.269 171.016 122.269H206.019C206.639 122.269 207.222 122.561 207.592 123.059L212.842 130.112H164.193L169.443 123.059Z" fill="#CCCCCC"/>
<path d="M164.193 130.112H212.842V220.308C212.842 221.391 211.964 222.269 210.881 222.269H166.154C165.071 222.269 164.193 221.391 164.193 220.308V130.112Z" fill="#A6A6A6"/>
<ellipse cx="188.517" cy="176.19" rx="4.86486" ry="4.90196" fill="#CCCCCC"/>
<path d="M168.085 210.958C168.085 209.624 169.167 208.542 170.502 208.542H206.534C207.868 208.542 208.95 209.624 208.95 210.958V213.969C208.95 215.303 207.868 216.385 206.534 216.385H170.502C169.167 216.385 168.085 215.303 168.085 213.969V210.958Z" fill="#CCCCCC"/>
<path d="M168.085 161.94C168.085 160.605 169.167 159.523 170.502 159.523H206.534C207.868 159.523 208.95 160.605 208.95 161.94V164.95C208.95 166.285 207.868 167.366 206.534 167.366H170.502C169.167 167.366 168.085 166.285 168.085 164.95V161.94Z" fill="#CCCCCC"/>
<path d="M168.085 199.195C168.085 197.86 169.167 196.779 170.502 196.779H206.534C207.868 196.779 208.95 197.86 208.95 199.195V202.205C208.95 203.54 207.868 204.622 206.534 204.622H170.502C169.167 204.622 168.085 203.54 168.085 202.205V199.195Z" fill="#CCCCCC"/>
<path d="M168.085 150.174C168.085 148.84 169.167 147.758 170.502 147.758H206.534C207.868 147.758 208.95 148.84 208.95 150.174V153.185C208.95 154.519 207.868 155.601 206.534 155.601H170.502C169.167 155.601 168.085 154.519 168.085 153.185V150.174Z" fill="#CCCCCC"/>
<path d="M168.085 187.43C168.085 186.095 169.167 185.014 170.502 185.014H206.534C207.868 185.014 208.95 186.095 208.95 187.43V190.44C208.95 191.775 207.868 192.857 206.534 192.857H170.502C169.167 192.857 168.085 191.775 168.085 190.44V187.43Z" fill="#CCCCCC"/>
<path d="M168.086 138.41C168.086 137.075 169.168 135.994 170.502 135.994H206.534C207.869 135.994 208.951 137.075 208.951 138.41V141.42C208.951 142.755 207.869 143.837 206.534 143.837H170.502C169.168 143.837 168.086 142.755 168.086 141.42V138.41Z" fill="#CCCCCC"/>
<path d="M248 163.099C248 163.76 247.549 164.302 246.998 164.302H203.002C202.451 164.302 202 163.76 202 163.099V137.197C202 136.536 202.451 135.994 203.002 135.994H246.973C247.524 135.994 247.975 136.536 247.975 137.197V163.099H248Z" fill="#A6E2E8"/>
<path d="M244.461 145.43H205.538V160.763H244.461V145.43Z" fill="white"/>
<rect x="209.077" y="147.792" width="3.53846" height="12.9744" fill="#30C8D6"/>
<path d="M207.897 143.074C209.2 143.074 210.256 142.018 210.256 140.715C210.256 139.412 209.2 138.356 207.897 138.356C206.594 138.356 205.538 139.412 205.538 140.715C205.538 142.018 206.594 143.074 207.897 143.074Z" fill="#30C8D6"/>
<rect x="216.153" y="151.325" width="3.53846" height="9.4359" fill="#30C8D6"/>
<rect x="223.23" y="153.687" width="3.53846" height="7.07692" fill="#30C8D6"/>
<rect x="230.308" y="148.969" width="3.53846" height="11.7949" fill="#30C8D6"/>
<rect x="237.385" y="151.325" width="3.53846" height="9.4359" fill="#30C8D6"/>
<path d="M225 177.302C225 176.749 225.448 176.302 226 176.302H236.562V187.864H226C225.448 187.864 225 187.417 225 186.864V177.302Z" fill="#30C8D6"/>
<path d="M225 190.021C225 189.468 225.448 189.021 226 189.021H236.562V200.583H226C225.448 200.583 225 200.135 225 199.583V190.021Z" fill="#30C8D6"/>
<path d="M225 202.739C225 202.187 225.448 201.739 226 201.739H236.562V213.302H226C225.448 213.302 225 212.854 225 212.302V202.739Z" fill="#30C8D6"/>
<path d="M236.562 176.302H257.531C258.084 176.302 258.531 176.749 258.531 177.302V186.864C258.531 187.417 258.084 187.864 257.531 187.864H236.562V176.302Z" fill="#A6E2E8"/>
<path d="M236.562 189.021H257.531C258.084 189.021 258.531 189.468 258.531 190.021V199.583C258.531 200.135 258.084 200.583 257.531 200.583H236.562V189.021Z" fill="#A6E2E8"/>
<path d="M236.562 201.739H257.531C258.084 201.739 258.531 202.187 258.531 202.739V212.302C258.531 212.854 258.084 213.302 257.531 213.302H236.562V201.739Z" fill="#A6E2E8"/>
<rect x="238.875" y="178.614" width="17.3438" height="2.3125" rx="1.15625" fill="white"/>
<rect x="238.875" y="191.333" width="17.3438" height="2.3125" rx="1.15625" fill="white"/>
<rect x="238.875" y="204.052" width="17.3438" height="2.3125" rx="1.15625" fill="white"/>
<rect x="238.875" y="183.239" width="12.7188" height="2.3125" rx="1.15625" fill="white"/>
<rect x="238.875" y="195.958" width="12.7188" height="2.3125" rx="1.15625" fill="white"/>
<rect x="238.875" y="208.677" width="12.7188" height="2.3125" rx="1.15625" fill="white"/>
<path d="M109.654 146.05C109.654 145.498 110.101 145.05 110.654 145.05H122.091C122.643 145.05 123.091 145.498 123.091 146.05V157.487C123.091 158.04 122.643 158.487 122.091 158.487H110.654C110.101 158.487 109.654 158.04 109.654 157.487V146.05Z" fill="#30C8D6"/>
<rect x="112.341" y="153.112" width="8.0625" height="2.6875" rx="1.34375" fill="white"/>
<path d="M109.654 160.831C109.654 160.279 110.101 159.831 110.654 159.831H122.091C122.643 159.831 123.091 160.279 123.091 160.831V172.269C123.091 172.821 122.643 173.269 122.091 173.269H110.654C110.101 173.269 109.654 172.821 109.654 172.269V160.831Z" fill="#A6E2E8"/>
<path d="M124.435 146.05C124.435 145.498 124.883 145.05 125.435 145.05H136.872C137.425 145.05 137.872 145.498 137.872 146.05V157.487C137.872 158.04 137.425 158.487 136.872 158.487H125.435C124.883 158.487 124.435 158.04 124.435 157.487V146.05Z" fill="#A6E2E8"/>
<path d="M124.435 160.831C124.435 160.279 124.883 159.831 125.435 159.831H136.872C137.425 159.831 137.872 160.279 137.872 160.831V172.269C137.872 172.821 137.425 173.269 136.872 173.269H125.435C124.883 173.269 124.435 172.821 124.435 172.269V160.831Z" fill="#30C8D6"/>
<path d="M139.216 146.05C139.216 145.498 139.664 145.05 140.216 145.05H151.654C152.206 145.05 152.654 145.498 152.654 146.05V157.487C152.654 158.04 152.206 158.487 151.654 158.487H140.216C139.664 158.487 139.216 158.04 139.216 157.487V146.05Z" fill="#30C8D6"/>
<path d="M139.216 160.831C139.216 160.279 139.664 159.831 140.216 159.831H151.654C152.206 159.831 152.654 160.279 152.654 160.831V172.269C152.654 172.821 152.206 173.269 151.654 173.269H140.216C139.664 173.269 139.216 172.821 139.216 172.269V160.831Z" fill="#A6E2E8"/>
<rect x="141.904" y="153.112" width="8.0625" height="2.6875" rx="1.34375" fill="white"/>
<rect x="127.122" y="153.112" width="8.0625" height="2.6875" rx="1.34375" fill="#30C8D6"/>
<rect x="141.904" y="167.894" width="8.0625" height="2.6875" rx="1.34375" fill="#30C8D6"/>
<rect x="112.341" y="167.894" width="8.0625" height="2.6875" rx="1.34375" fill="#30C8D6"/>
<rect x="127.122" y="167.894" width="8.0625" height="2.6875" rx="1.34375" fill="white"/>
<path d="M172.25 215.269H129.317C128.806 215.269 128.393 214.9 128.393 214.453V188.084C128.393 187.637 128.806 187.269 129.317 187.269H172.27C172.781 187.269 173.193 187.637 173.193 188.084V214.434C173.174 214.9 172.761 215.269 172.25 215.269Z" fill="#30C8D6"/>
<path d="M155.273 198.469C155.273 195.991 153.271 193.989 150.793 193.989C148.315 193.989 146.313 195.991 146.313 198.469C146.313 200.947 148.315 202.949 150.793 202.949C153.271 202.949 155.273 200.947 155.273 198.469Z" fill="white"/>
<rect x="131.754" y="208.548" width="38.08" height="3.36" rx="1.68" fill="white"/>
<rect x="131.754" y="208.548" width="16.8" height="3.36" rx="1.68" fill="#A6E2E8"/>
</svg>
