<svg width="375" height="425" viewBox="0 0 375 425" fill="none" xmlns="http://www.w3.org/2000/svg">
<rect width="375" height="425" fill="#FAFAFA"/>
<path d="M70 67.9419L331 67.9419" stroke="#9E9E9E" stroke-width="2" stroke-linecap="round"/>
<rect x="137" y="175" width="210" height="222" rx="3" fill="#CCE7FF"/>
<path d="M216.106 207.038C215.901 206.759 215.633 206.558 215.303 206.433C214.973 206.301 214.65 206.235 214.335 206.235C213.932 206.235 213.565 206.308 213.235 206.455C212.905 206.602 212.619 206.803 212.377 207.06C212.142 207.317 211.959 207.617 211.827 207.962C211.702 208.307 211.64 208.681 211.64 209.084C211.64 209.509 211.702 209.898 211.827 210.25C211.952 210.602 212.128 210.906 212.355 211.163C212.59 211.412 212.868 211.607 213.191 211.746C213.514 211.885 213.877 211.955 214.28 211.955C214.698 211.955 215.068 211.874 215.391 211.713C215.714 211.544 215.974 211.324 216.172 211.053L217.283 211.834C216.938 212.267 216.517 212.604 216.018 212.846C215.519 213.081 214.936 213.198 214.269 213.198C213.66 213.198 213.099 213.099 212.586 212.901C212.08 212.696 211.644 212.413 211.277 212.054C210.91 211.687 210.624 211.255 210.419 210.756C210.214 210.25 210.111 209.693 210.111 209.084C210.111 208.461 210.217 207.9 210.43 207.401C210.65 206.895 210.947 206.466 211.321 206.114C211.702 205.762 212.15 205.491 212.663 205.3C213.176 205.109 213.734 205.014 214.335 205.014C214.584 205.014 214.845 205.04 215.116 205.091C215.387 205.135 215.648 205.208 215.897 205.311C216.146 205.406 216.381 205.527 216.601 205.674C216.821 205.821 217.008 205.997 217.162 206.202L216.106 207.038ZM218.694 205.212H220.08V213H218.694V205.212ZM222.305 213.528L221.392 213.198L224.824 204.662L225.737 205.014L222.305 213.528ZM232.795 207.038C232.59 206.759 232.322 206.558 231.992 206.433C231.662 206.301 231.339 206.235 231.024 206.235C230.621 206.235 230.254 206.308 229.924 206.455C229.594 206.602 229.308 206.803 229.066 207.06C228.831 207.317 228.648 207.617 228.516 207.962C228.391 208.307 228.329 208.681 228.329 209.084C228.329 209.509 228.391 209.898 228.516 210.25C228.641 210.602 228.817 210.906 229.044 211.163C229.279 211.412 229.557 211.607 229.88 211.746C230.203 211.885 230.566 211.955 230.969 211.955C231.387 211.955 231.757 211.874 232.08 211.713C232.403 211.544 232.663 211.324 232.861 211.053L233.972 211.834C233.627 212.267 233.206 212.604 232.707 212.846C232.208 213.081 231.625 213.198 230.958 213.198C230.349 213.198 229.788 213.099 229.275 212.901C228.769 212.696 228.333 212.413 227.966 212.054C227.599 211.687 227.313 211.255 227.108 210.756C226.903 210.25 226.8 209.693 226.8 209.084C226.8 208.461 226.906 207.9 227.119 207.401C227.339 206.895 227.636 206.466 228.01 206.114C228.391 205.762 228.839 205.491 229.352 205.3C229.865 205.109 230.423 205.014 231.024 205.014C231.273 205.014 231.534 205.04 231.805 205.091C232.076 205.135 232.337 205.208 232.586 205.311C232.835 205.406 233.07 205.527 233.29 205.674C233.51 205.821 233.697 205.997 233.851 206.202L232.795 207.038ZM235.383 205.212H238.144C238.65 205.212 239.16 205.278 239.673 205.41C240.187 205.542 240.649 205.762 241.059 206.07C241.47 206.371 241.804 206.77 242.06 207.269C242.317 207.76 242.445 208.373 242.445 209.106C242.445 209.788 242.317 210.375 242.06 210.866C241.804 211.357 241.47 211.761 241.059 212.076C240.649 212.391 240.187 212.626 239.673 212.78C239.16 212.927 238.65 213 238.144 213H235.383V205.212ZM237.924 211.79C238.284 211.79 238.643 211.75 239.002 211.669C239.362 211.581 239.684 211.438 239.97 211.24C240.264 211.035 240.502 210.76 240.685 210.415C240.869 210.07 240.96 209.634 240.96 209.106C240.96 208.549 240.869 208.094 240.685 207.742C240.502 207.39 240.264 207.115 239.97 206.917C239.684 206.719 239.362 206.583 239.002 206.51C238.643 206.437 238.284 206.4 237.924 206.4H236.769V211.79H237.924ZM244.326 206.15C244.796 206.98 245.186 208.01 245.466 209.13L246.696 208.75C246.326 207.5 246.006 206.73 245.486 205.81L244.326 206.15ZM246.956 205.65C247.486 206.67 247.786 207.44 248.076 208.55L249.296 208.16C248.956 207.04 248.576 206.15 248.096 205.33L246.956 205.65ZM251.226 205.55C251.206 206.22 251.036 207.04 250.726 207.9C250.316 209.05 249.786 209.89 248.976 210.65C248.166 211.43 247.276 211.98 246.166 212.39C246.646 212.85 246.776 213.03 247.046 213.51C250.046 212.05 251.636 210.04 252.346 206.83C252.486 206.15 252.506 206.08 252.596 205.86L251.226 205.55ZM254.686 209.86C255.086 209.81 255.196 209.81 256.316 209.81H261.626C262.746 209.81 262.856 209.81 263.256 209.86V208.47C262.816 208.53 262.626 208.54 261.636 208.54H256.306C255.316 208.54 255.126 208.53 254.686 208.47V209.86ZM266.503 205.18C266.543 205.45 266.543 205.54 266.543 206.09C266.543 208.89 266.313 210.18 265.593 211.33C265.293 211.81 265.053 212.08 264.563 212.48C265.033 212.8 265.183 212.95 265.573 213.45C266.233 212.8 266.613 212.29 266.953 211.6C267.473 210.57 267.693 209.44 267.763 207.49C267.823 205.53 267.823 205.53 267.863 205.25L266.503 205.18ZM269.153 205.11C269.183 205.3 269.193 205.52 269.193 205.77V206.07L269.143 211.71C269.133 212.26 269.123 212.48 269.053 212.77L269.693 213.45C269.823 213.39 269.903 213.35 270.123 213.27C271.163 212.86 271.683 212.56 272.253 212.07C272.913 211.48 273.433 210.73 273.843 209.74C273.383 209.38 273.253 209.25 272.903 208.8C272.673 209.54 272.383 210.09 271.923 210.63C271.493 211.14 271.093 211.44 270.393 211.77L270.443 206.08C270.453 205.59 270.463 205.42 270.513 205.13L269.153 205.11Z" fill="#212121"/>
<rect x="151" y="231" width="181.8" height="30" rx="2" fill="white"/>
<path d="M235.089 245.92C235.769 245.92 235.999 245.93 236.359 245.97V244.78C235.979 244.84 235.749 244.85 235.069 244.85H229.219C228.529 244.85 228.309 244.84 227.929 244.78V245.97C228.289 245.93 228.519 245.92 229.199 245.92H231.639C231.609 246.7 231.459 247.35 231.199 247.81C230.779 248.58 230.029 249.11 228.829 249.48C229.259 249.9 229.389 250.07 229.639 250.58C230.989 250.04 231.719 249.49 232.249 248.61C232.679 247.9 232.899 247.07 232.949 245.92H235.089ZM228.939 243.48C229.269 243.44 229.509 243.43 230.209 243.43H234.089C234.789 243.43 235.029 243.44 235.359 243.48V242.26C234.989 242.32 234.789 242.33 234.069 242.33H230.229C229.509 242.33 229.309 242.32 228.939 242.26V243.48ZM245.981 249.29C244.771 248.12 244.771 248.12 244.521 247.9C243.841 247.29 243.301 246.87 242.671 246.45C243.281 245.63 243.771 244.76 244.231 243.69C244.341 243.44 244.421 243.3 244.551 243.15L243.891 242.47C243.641 242.56 243.561 242.57 243.001 242.58L239.481 242.63H239.241C238.831 242.63 238.641 242.62 238.361 242.57L238.401 243.85C238.741 243.8 239.011 243.78 239.491 243.77C242.641 243.72 242.641 243.72 242.801 243.71L242.691 243.97C242.041 245.53 240.841 246.98 239.331 248.04C238.581 248.57 238.101 248.84 237.331 249.14C237.741 249.57 237.861 249.73 238.141 250.25C239.671 249.5 240.821 248.62 241.951 247.36C243.041 248.19 244.191 249.31 245.021 250.33L245.981 249.29ZM250.671 250.45C250.641 250.12 250.631 249.86 250.631 249.34V246.7C250.631 246.42 250.621 246.3 250.591 246.02C250.671 246.07 250.701 246.08 250.931 246.19C252.601 246.96 253.641 247.53 254.471 248.1L255.171 246.92C253.571 246.02 252.001 245.29 250.631 244.81V242.95C250.631 242.33 250.631 242.2 250.671 241.9H249.301C249.341 242.17 249.361 242.43 249.361 242.92V249.33C249.361 249.86 249.351 250.13 249.301 250.45H250.671Z" fill="#212121"/>
<rect x="151" y="291" width="181.8" height="30" rx="2" fill="white"/>
<path d="M229.89 303.19C229.89 302.68 229.9 302.5 229.94 302.26H228.6C228.64 302.51 228.64 302.67 228.64 303.18L228.65 307.82C228.65 308.4 228.66 308.57 228.68 308.74C228.74 309.23 228.89 309.55 229.17 309.76C229.56 310.06 230.25 310.19 231.51 310.19C232.12 310.19 233.38 310.13 233.97 310.07C235.03 309.97 235.08 309.96 235.29 309.96L235.23 308.63C234.79 308.76 234.57 308.81 234.09 308.87C233.36 308.97 232.44 309.03 231.77 309.03C230.8 309.03 230.23 308.95 230.06 308.77C229.92 308.63 229.88 308.4 229.88 307.82C229.88 307.79 229.88 307.74 229.89 307.69V306.37C231.4 306.09 232.8 305.64 234.16 304.99C234.69 304.73 234.99 304.59 235.06 304.56L234.26 303.43C233.61 304.04 231.4 304.93 229.89 305.21V303.19ZM233.93 302.11C234.35 302.6 234.61 303 234.92 303.64L235.64 303.31C235.31 302.65 235.04 302.24 234.64 301.79L233.93 302.11ZM236.85 302.7C236.58 302.14 236.31 301.75 235.87 301.25L235.18 301.57C235.56 302.03 235.87 302.51 236.14 303.06L236.85 302.7ZM239.23 302.18C239.27 302.45 239.27 302.54 239.27 303.09C239.27 305.89 239.04 307.18 238.32 308.33C238.02 308.81 237.78 309.08 237.29 309.48C237.76 309.8 237.91 309.95 238.3 310.45C238.96 309.8 239.34 309.29 239.68 308.6C240.2 307.57 240.42 306.44 240.49 304.49C240.55 302.53 240.55 302.53 240.59 302.25L239.23 302.18ZM241.88 302.11C241.91 302.3 241.92 302.52 241.92 302.77V303.07L241.87 308.71C241.86 309.26 241.85 309.48 241.78 309.77L242.42 310.45C242.55 310.39 242.63 310.35 242.85 310.27C243.89 309.86 244.41 309.56 244.98 309.07C245.64 308.48 246.16 307.73 246.57 306.74C246.11 306.38 245.98 306.25 245.63 305.8C245.4 306.54 245.11 307.09 244.65 307.63C244.22 308.14 243.82 308.44 243.12 308.77L243.17 303.08C243.18 302.59 243.19 302.42 243.24 302.13L241.88 302.11ZM250.75 310.45C250.72 310.16 250.71 309.88 250.71 309.34V306.7C250.71 306.47 250.7 306.3 250.67 306.02C250.75 306.07 250.78 306.08 251.01 306.19C252.43 306.83 253.85 307.6 254.55 308.1L255.25 306.92C253.67 306.03 251.87 305.19 250.71 304.81V302.95C250.71 302.36 250.72 302.17 250.75 301.9H249.38C249.42 302.14 249.43 302.34 249.44 302.92V309.33C249.44 309.9 249.42 310.17 249.38 310.45H250.75ZM252.8 302.77C253.24 303.25 253.52 303.65 253.85 304.26L254.55 303.89C254.21 303.27 253.94 302.89 253.5 302.42L252.8 302.77ZM255.74 303.24C255.43 302.67 255.15 302.29 254.7 301.83L254.03 302.18C254.42 302.61 254.75 303.08 255.05 303.63L255.74 303.24Z" fill="#212121"/>
<rect x="151" y="351.667" width="181.8" height="30" rx="2" fill="white"/>
<path d="M229.12 362.957C228.79 363.017 228.59 363.027 227.83 363.027H224.89C224.14 363.027 223.94 363.017 223.6 362.957V364.177C223.92 364.137 224.05 364.127 224.87 364.127H227.85C228.67 364.127 228.81 364.137 229.12 364.177V362.957ZM229.75 366.627C230.53 366.627 230.68 366.637 231.02 366.677V365.487C230.67 365.547 230.47 365.557 229.73 365.557H223.88C223.14 365.557 222.94 365.547 222.59 365.487V366.677C222.93 366.637 223.08 366.627 223.86 366.627H226.29C226.22 368.567 225.44 369.557 223.48 370.177C223.89 370.567 224.06 370.787 224.3 371.287C226.56 370.417 227.5 369.097 227.61 366.627H229.75ZM231.87 363.437C231.63 362.847 231.39 362.447 230.99 361.917L230.27 362.177C230.61 362.647 230.9 363.157 231.13 363.727L231.87 363.437ZM228.96 362.567C229.33 363.087 229.56 363.497 229.84 364.167L230.59 363.887C230.31 363.227 230.08 362.827 229.7 362.307L228.96 362.567ZM234.27 363.397C233.59 363.397 233.35 363.387 232.99 363.327V364.627C233.32 364.577 233.51 364.567 234.25 364.567H239.01C238.37 367.227 236.56 369.087 233.79 369.947C234.24 370.387 234.41 370.617 234.67 371.137C237.83 369.817 239.6 367.777 240.41 364.507C240.48 364.517 240.54 364.527 240.6 364.527C241.24 364.527 241.76 364.007 241.76 363.367C241.76 362.737 241.24 362.217 240.6 362.217C239.96 362.217 239.46 362.727 239.45 363.377C239.28 363.387 239.16 363.397 238.86 363.397H234.27ZM240.6 362.717C240.97 362.717 241.26 363.007 241.26 363.367C241.26 363.727 240.97 364.027 240.6 364.027C240.24 364.027 239.95 363.727 239.95 363.367C239.95 363.007 240.24 362.717 240.6 362.717ZM249.31 370.087V370.777H250.6C250.57 370.547 250.56 370.277 250.56 369.907V364.187C250.56 363.817 250.57 363.617 250.59 363.357C250.36 363.377 250.18 363.387 249.75 363.387H244.07C243.67 363.387 243.46 363.377 243.22 363.357C243.25 363.627 243.26 363.817 243.26 364.197V369.927C243.26 370.307 243.25 370.547 243.22 370.787H244.51V370.087H249.31ZM249.31 368.947H244.51V364.517H249.31V368.947ZM259.54 362.547C259.25 363.037 258.57 363.727 257.68 364.417C256.09 365.647 254.41 366.477 252.43 367.017C252.78 367.467 252.89 367.637 253.1 368.157C254.94 367.497 255.5 367.237 256.67 366.537V370.057C256.67 370.647 256.66 370.847 256.61 371.137H258.01C257.97 370.867 257.96 370.577 257.96 370.027V365.757C258.82 365.127 259.57 364.477 260.32 363.697C260.47 363.537 260.52 363.497 260.69 363.347L259.54 362.547Z" fill="#212121"/>
<path d="M337 67.9419C337 67.9419 343.664 67.9419 347 67.9419" stroke="#9E9E9E" stroke-width="3" stroke-linecap="round" stroke-linejoin="round" stroke-dasharray="0.1 6"/>
<rect x="137" y="99" width="210" height="46" rx="3" fill="#EBEBEB"/>
<path fill-rule="evenodd" clip-rule="evenodd" d="M230.625 93.5132C230.625 93.7574 230.45 93.9695 230.21 94.0164C226.671 94.7093 224 97.8254 224 101.565C224 105.813 227.447 109.257 231.699 109.257C231.761 109.257 231.823 109.256 231.885 109.255H253.001C253.004 109.255 253.006 109.253 253.006 109.25C253.006 109.248 253.008 109.245 253.011 109.246C253.127 109.252 253.245 109.255 253.364 109.255C256.924 109.255 259.809 106.372 259.809 102.815C259.809 99.9194 257.896 97.47 255.264 96.6598C254.757 96.5038 254.409 96.005 254.432 95.4752C254.436 95.3881 254.438 95.3006 254.438 95.2127C254.438 91.903 251.752 89.22 248.44 89.22C247.537 89.22 246.68 89.4193 245.912 89.7763C245.391 90.0187 244.736 89.8484 244.418 89.3691C243.072 87.3388 240.765 86 238.145 86C233.991 86 230.625 89.3638 230.625 93.5132Z" fill="#BADBFF"/>
<path d="M217.253 128.593C216.857 128.784 216.421 128.93 215.944 129.033C215.475 129.143 214.932 129.198 214.316 129.198C213.686 129.198 213.11 129.099 212.589 128.901C212.069 128.696 211.621 128.413 211.247 128.054C210.873 127.687 210.58 127.255 210.367 126.756C210.162 126.25 210.059 125.693 210.059 125.084C210.059 124.461 210.166 123.9 210.378 123.401C210.598 122.895 210.895 122.466 211.269 122.114C211.651 121.762 212.098 121.491 212.611 121.3C213.125 121.109 213.682 121.014 214.283 121.014C214.907 121.014 215.475 121.106 215.988 121.289C216.509 121.465 216.927 121.7 217.242 121.993L216.285 123.027C216.087 122.807 215.809 122.62 215.449 122.466C215.097 122.312 214.712 122.235 214.294 122.235C213.884 122.235 213.51 122.308 213.172 122.455C212.842 122.602 212.56 122.803 212.325 123.06C212.091 123.317 211.907 123.617 211.775 123.962C211.651 124.307 211.588 124.681 211.588 125.084C211.588 125.502 211.651 125.887 211.775 126.239C211.907 126.584 212.091 126.884 212.325 127.141C212.567 127.398 212.857 127.599 213.194 127.746C213.539 127.885 213.928 127.955 214.36 127.955C214.954 127.955 215.471 127.863 215.911 127.68V125.7H214.272V124.556H217.253V128.593ZM219.117 123.72H220.437V129H219.117V123.72ZM218.93 121.927C218.93 121.714 219.007 121.531 219.161 121.377C219.322 121.216 219.524 121.135 219.766 121.135C220.008 121.135 220.21 121.212 220.371 121.366C220.54 121.513 220.624 121.7 220.624 121.927C220.624 122.154 220.54 122.345 220.371 122.499C220.21 122.646 220.008 122.719 219.766 122.719C219.524 122.719 219.322 122.642 219.161 122.488C219.007 122.327 218.93 122.14 218.93 121.927ZM221.499 124.776V123.72H222.423V122.191H223.721V123.72H225.041V124.776H223.721V127.229C223.721 127.464 223.762 127.658 223.842 127.812C223.93 127.966 224.121 128.043 224.414 128.043C224.502 128.043 224.598 128.036 224.7 128.021C224.803 127.999 224.895 127.97 224.975 127.933L225.019 128.967C224.902 129.011 224.763 129.044 224.601 129.066C224.44 129.095 224.286 129.11 224.139 129.11C223.787 129.11 223.501 129.062 223.281 128.967C223.061 128.864 222.885 128.729 222.753 128.56C222.629 128.384 222.541 128.186 222.489 127.966C222.445 127.739 222.423 127.497 222.423 127.24V124.776H221.499ZM227.465 121.11C227.495 121.37 227.505 121.5 227.505 122.01V124.76C227.505 125.12 227.485 125.43 227.455 125.66H228.825C228.785 125.41 228.785 125.28 228.785 124.78V122.02C228.785 121.49 228.785 121.4 228.825 121.12L227.465 121.11ZM231.975 121.13C232.015 121.36 232.025 121.57 232.025 122.08V123.33C232.025 124.13 232.015 124.57 231.975 125C231.865 126.32 231.535 126.93 230.595 127.55C229.995 127.95 229.415 128.16 228.435 128.35C228.855 128.88 228.955 129.05 229.135 129.54C230.055 129.27 230.555 129.07 231.085 128.77C232.125 128.19 232.765 127.44 233.055 126.44C233.235 125.81 233.305 124.97 233.315 123.41V122.06C233.315 121.49 233.325 121.38 233.365 121.13H231.975ZM241.215 122.63V122.1C241.215 121.46 241.225 121.31 241.255 121.04H239.905C239.945 121.28 239.965 121.5 239.965 122.07V122.63H237.765C237.025 122.63 236.835 122.62 236.485 122.56V123.79C236.815 123.75 236.965 123.74 237.745 123.74H239.965V128.58C239.965 129.14 239.945 129.44 239.905 129.71H241.265C241.225 129.44 241.215 129.14 241.215 128.59V123.74H243.525C244.315 123.74 244.465 123.75 244.795 123.79V122.61C245.255 122.43 245.555 122.01 245.555 121.52C245.555 120.89 245.035 120.37 244.395 120.37C243.765 120.37 243.245 120.89 243.245 121.52C243.245 122.03 243.565 122.46 244.055 122.62C243.815 122.63 243.715 122.63 243.505 122.63H241.215ZM244.395 120.87C244.765 120.87 245.055 121.16 245.055 121.52C245.055 121.88 244.765 122.18 244.395 122.18C244.035 122.18 243.745 121.88 243.745 121.52C243.745 121.16 244.035 120.87 244.395 120.87ZM237.725 124.47C237.585 125.7 236.805 127.49 236.035 128.32C236.515 128.51 236.725 128.63 237.195 128.97C237.925 127.99 238.555 126.55 238.875 125.08C238.895 124.99 238.915 124.93 238.915 124.91C238.925 124.89 238.935 124.83 238.955 124.77L237.725 124.47ZM242.215 124.77C242.285 124.92 242.295 124.96 242.375 125.23C242.845 126.82 243.295 127.85 244.015 128.97C244.465 128.65 244.655 128.53 245.165 128.28C244.505 127.5 243.705 125.77 243.395 124.47L242.215 124.77ZM247.555 122.16C248.285 122.39 249.415 122.98 250.225 123.53L250.865 122.43C250.145 121.98 249.145 121.5 248.205 121.14L247.555 122.16ZM246.765 124.59C247.685 124.93 248.815 125.54 249.475 126.05L250.095 124.92C249.345 124.43 248.365 123.93 247.435 123.56L246.765 124.59ZM252.705 121.29C253.145 121.77 253.425 122.17 253.755 122.78L254.455 122.41C254.115 121.79 253.845 121.41 253.405 120.94L252.705 121.29ZM247.335 129.41C247.525 129.35 247.605 129.33 248.035 129.24C251.615 128.54 253.725 126.9 254.965 123.87C254.505 123.56 254.315 123.4 253.925 122.98C253.205 125.11 251.705 126.75 249.875 127.39C248.815 127.8 247.765 128.03 246.985 128.04L247.335 129.41ZM255.645 121.76C255.335 121.19 255.055 120.81 254.605 120.35L253.935 120.7C254.325 121.13 254.655 121.6 254.955 122.15L255.645 121.76ZM259.645 129.45C259.615 129.12 259.605 128.86 259.605 128.34V125.7C259.605 125.42 259.595 125.3 259.565 125.02C259.645 125.07 259.675 125.08 259.905 125.19C261.575 125.96 262.615 126.53 263.445 127.1L264.145 125.92C262.545 125.02 260.975 124.29 259.605 123.81V121.95C259.605 121.33 259.605 121.2 259.645 120.9H258.275C258.315 121.17 258.335 121.43 258.335 121.92V128.33C258.335 128.86 258.325 129.13 258.275 129.45H259.645ZM266.465 121.11C266.495 121.37 266.505 121.5 266.505 122.01V124.76C266.505 125.12 266.485 125.43 266.455 125.66H267.825C267.785 125.41 267.785 125.28 267.785 124.78V122.02C267.785 121.49 267.785 121.4 267.825 121.12L266.465 121.11ZM270.975 121.13C271.015 121.36 271.025 121.57 271.025 122.08V123.33C271.025 124.13 271.015 124.57 270.975 125C270.865 126.32 270.535 126.93 269.595 127.55C268.995 127.95 268.415 128.16 267.435 128.35C267.855 128.88 267.955 129.05 268.135 129.54C269.055 129.27 269.555 129.07 270.085 128.77C271.125 128.19 271.765 127.44 272.055 126.44C272.235 125.81 272.305 124.97 272.315 123.41V122.06C272.315 121.49 272.325 121.38 272.365 121.13H270.975Z" fill="#212121"/>
<path d="M192.01 165.337L197.189 164.181C197.482 164.116 197.706 164.441 197.539 164.692L192.463 172.306C192.243 172.636 191.757 172.636 191.537 172.306L186.464 164.696C186.297 164.445 186.522 164.119 186.816 164.186L191.863 165.336C191.911 165.347 191.961 165.347 192.01 165.337Z" fill="#9E9E9E"/>
<path d="M192 67L192 168" stroke="#9E9E9E" stroke-width="4"/>
<rect x="163" y="55" width="58" height="24" rx="12" fill="white" stroke="#9E9E9E" stroke-width="2"/>
<path d="M179.19 70.51V71.12H180.53C180.49 70.87 180.48 70.59 180.48 70.09V64.6C180.48 64.14 180.48 64.04 180.51 63.77C180.16 63.79 180.16 63.79 179.64 63.79H174.83C174.1 63.79 173.91 63.78 173.54 63.72V65.02C173.9 64.98 174.11 64.97 174.82 64.97H179.2V69.33H174.65C173.95 69.33 173.77 69.32 173.4 69.26V70.55C173.7 70.52 173.94 70.51 174.63 70.51H179.19ZM184.22 64.16C185.98 64.33 188.03 64.76 189.68 65.31L190.08 64.08C187.85 63.48 186.6 63.23 184.67 63L184.22 64.16ZM184.06 66.91C185.09 67.04 185.74 67.15 186.59 67.35C187.84 67.63 188.55 67.84 189.34 68.15L189.73 66.92C187.72 66.32 186.12 65.96 184.52 65.76L184.06 66.91ZM183.25 69.72C184.34 69.86 185.16 70.01 186.39 70.3C187.97 70.67 188.89 70.96 189.93 71.42L190.36 70.16C188.03 69.35 186.14 68.9 183.72 68.58L183.25 69.72ZM193.6 65.56C194.05 66.44 194.25 66.97 194.51 67.98L195.64 67.62C195.28 66.5 195.08 66.02 194.66 65.25L193.6 65.56ZM195.74 65.14C196.16 65.96 196.46 66.73 196.65 67.49L197.76 67.14C197.51 66.27 197.32 65.83 196.79 64.84L195.74 65.14ZM199.18 65.04C199.18 65.35 199.13 65.7 199 66.19C198.57 67.79 197.9 68.81 196.73 69.66C196.14 70.09 195.73 70.31 195.03 70.58C195.45 70.98 195.57 71.13 195.83 71.57C197.31 70.82 198.14 70.17 198.88 69.16C199.52 68.29 199.97 67.19 200.26 65.83C200.32 65.52 200.34 65.47 200.4 65.32L199.18 65.04ZM206.02 71.45C205.99 71.12 205.98 70.86 205.98 70.34V67.7C205.98 67.42 205.97 67.3 205.94 67.02C206.02 67.07 206.05 67.08 206.28 67.19C207.95 67.96 208.99 68.53 209.82 69.1L210.52 67.92C208.92 67.02 207.35 66.29 205.98 65.81V63.95C205.98 63.33 205.98 63.2 206.02 62.9H204.65C204.69 63.17 204.71 63.43 204.71 63.92V70.33C204.71 70.86 204.7 71.13 204.65 71.45H206.02Z" fill="#212121"/>
<path d="M292 67L292 168" stroke="#9E9E9E" stroke-width="4"/>
<path d="M292.01 165.337L297.189 164.181C297.482 164.116 297.706 164.441 297.539 164.692L292.463 172.306C292.243 172.636 291.757 172.636 291.537 172.306L286.464 164.696C286.297 164.445 286.522 164.119 286.816 164.186L291.863 165.336C291.911 165.347 291.961 165.347 292.01 165.337Z" fill="#9E9E9E"/>
<rect x="263" y="55" width="58" height="24" rx="12" fill="white" stroke="#9E9E9E" stroke-width="2"/>
<path d="M279.19 70.51V71.12H280.53C280.49 70.87 280.48 70.59 280.48 70.09V64.6C280.48 64.14 280.48 64.04 280.51 63.77C280.16 63.79 280.16 63.79 279.64 63.79H274.83C274.1 63.79 273.91 63.78 273.54 63.72V65.02C273.9 64.98 274.11 64.97 274.82 64.97H279.2V69.33H274.65C273.95 69.33 273.77 69.32 273.4 69.26V70.55C273.7 70.52 273.94 70.51 274.63 70.51H279.19ZM284.22 64.16C285.98 64.33 288.03 64.76 289.68 65.31L290.08 64.08C287.85 63.48 286.6 63.23 284.67 63L284.22 64.16ZM284.06 66.91C285.09 67.04 285.74 67.15 286.59 67.35C287.84 67.63 288.55 67.84 289.34 68.15L289.73 66.92C287.72 66.32 286.12 65.96 284.52 65.76L284.06 66.91ZM283.25 69.72C284.34 69.86 285.16 70.01 286.39 70.3C287.97 70.67 288.89 70.96 289.93 71.42L290.36 70.16C288.03 69.35 286.14 68.9 283.72 68.58L283.25 69.72ZM293.6 65.56C294.05 66.44 294.25 66.97 294.51 67.98L295.64 67.62C295.28 66.5 295.08 66.02 294.66 65.25L293.6 65.56ZM295.74 65.14C296.16 65.96 296.46 66.73 296.65 67.49L297.76 67.14C297.51 66.27 297.32 65.83 296.79 64.84L295.74 65.14ZM299.18 65.04C299.18 65.35 299.13 65.7 299 66.19C298.57 67.79 297.9 68.81 296.73 69.66C296.14 70.09 295.73 70.31 295.03 70.58C295.45 70.98 295.57 71.13 295.83 71.57C297.31 70.82 298.14 70.17 298.88 69.16C299.52 68.29 299.97 67.19 300.26 65.83C300.32 65.52 300.34 65.47 300.4 65.32L299.18 65.04ZM306.02 71.45C305.99 71.12 305.98 70.86 305.98 70.34V67.7C305.98 67.42 305.97 67.3 305.94 67.02C306.02 67.07 306.05 67.08 306.28 67.19C307.95 67.96 308.99 68.53 309.82 69.1L310.52 67.92C308.92 67.02 307.35 66.29 305.98 65.81V63.95C305.98 63.33 305.98 63.2 306.02 62.9H304.65C304.69 63.17 304.71 63.43 304.71 63.92V70.33C304.71 70.86 304.7 71.13 304.65 71.45H306.02Z" fill="#212121"/>
<path d="M55 306L55 366L79.1999 366" stroke="#63B7FF" stroke-width="3" stroke-linecap="round" stroke-linejoin="round" stroke-dasharray="0.1 6"/>
<path d="M146 306L61 306" stroke="#63B7FF" stroke-width="3" stroke-linecap="round" stroke-dasharray="0.1 6"/>
<path d="M146 366L85.4739 366" stroke="#63B7FF" stroke-width="3" stroke-linecap="round" stroke-dasharray="0.1 6"/>
<path d="M55 300L55 246" stroke="#63B7FF" stroke-width="3" stroke-linecap="round" stroke-dasharray="0.1 6"/>
<path d="M55 240L55 115" stroke="#63B7FF" stroke-width="3" stroke-linecap="round" stroke-dasharray="0.1 6"/>
<path d="M146 246L61 246" stroke="#63B7FF" stroke-width="3" stroke-linecap="round" stroke-dasharray="0.1 6"/>
<path d="M43.43 93.36C42.92 93.36 42.67 93.35 42.39 93.32V94.24C42.65 94.2 42.93 94.19 43.45 94.19C43.33 95 43.05 95.45 42.38 95.97C42.72 96.21 42.92 96.38 43.18 96.66C43.95 95.91 44.28 95.25 44.39 94.19H45.51V95.66C45.51 96.1 45.5 96.28 45.46 96.52H46.51C46.47 96.3 46.46 96.13 46.46 95.67V94.19H46.61C47.09 94.19 47.34 94.2 47.64 94.24V93.32C47.36 93.35 47.11 93.36 46.61 93.36H46.46V92.44C46.96 92.44 47.23 92.45 47.5 92.48V91.58C47.22 91.62 46.95 91.63 46.46 91.63H43.56C43.09 91.63 42.82 91.62 42.55 91.58V92.48C42.82 92.45 43.09 92.44 43.55 92.44C43.55 92.9 43.55 93.01 43.53 93.36H43.43ZM45.51 92.44V93.36H44.46C44.48 92.89 44.48 92.89 44.48 92.44H45.51ZM41.86 91.16H43.72C44.07 91.16 44.38 91.17 44.64 91.19C44.62 90.93 44.61 90.74 44.61 90.29V88.75C44.61 88.4 44.62 88.11 44.64 87.82C44.37 87.85 44.14 87.86 43.62 87.86H41.8C41.31 87.86 41.05 87.85 40.77 87.82C40.8 88.14 40.81 88.42 40.81 88.94V95.54C40.81 96.16 40.79 96.49 40.75 96.78H41.92C41.88 96.49 41.86 96.15 41.86 95.56V91.16ZM41.86 88.61H43.63V89.14H41.86V88.61ZM41.86 89.85H43.63V90.39H41.86V89.85ZM49.22 88.93C49.22 88.43 49.23 88.19 49.26 87.82C48.98 87.85 48.73 87.86 48.23 87.86H46.32C45.81 87.86 45.58 87.85 45.3 87.82C45.32 88.11 45.33 88.37 45.33 88.75V90.29C45.33 90.74 45.33 90.9 45.31 91.19C45.55 91.17 45.87 91.16 46.22 91.16H48.18V95.41C48.18 95.63 48.12 95.67 47.8 95.67C47.56 95.67 47.24 95.64 46.88 95.59C47.04 95.98 47.09 96.2 47.15 96.65C47.48 96.67 47.62 96.67 47.8 96.67C48.92 96.67 49.22 96.44 49.22 95.55V88.93ZM46.32 88.61H48.18V89.14H46.32V88.61ZM46.32 89.85H48.18V90.39H46.32V89.85ZM53.28 92.62C53.28 92.73 53.28 92.8 53.27 92.93H51.84C51.35 92.93 51.1 92.92 50.79 92.87V93.94C51.12 93.89 51.38 93.88 51.84 93.88H53.12C52.97 94.36 52.76 94.68 52.41 94.99C51.97 95.39 51.49 95.62 50.56 95.88C50.88 96.2 51.08 96.49 51.27 96.86C52.5 96.38 53.1 95.98 53.6 95.32C53.9 94.92 54.09 94.48 54.22 93.88H55.51V95.82C55.51 96.52 55.83 96.69 57.19 96.69C59.11 96.69 59.29 96.54 59.51 94.85C59.11 94.79 58.82 94.69 58.43 94.5C58.4 95.05 58.34 95.38 58.25 95.5C58.14 95.64 57.9 95.69 57.35 95.69C57.01 95.69 56.84 95.68 56.71 95.64C56.56 95.6 56.55 95.58 56.55 95.37V93.88H58.14C58.59 93.88 58.88 93.9 59.19 93.94V92.87C58.89 92.92 58.63 92.93 58.14 92.93H56.55V91.85C57.03 91.85 57.21 91.86 57.51 91.89V91.46C58.05 91.82 58.34 91.98 59.16 92.36C59.43 91.78 59.49 91.67 59.72 91.37C58.99 91.09 58.66 90.93 58.12 90.61C58.47 90.3 58.76 90.01 59.02 89.69C59.22 89.47 59.24 89.44 59.3 89.38L58.38 88.86C58.14 89.25 57.77 89.68 57.34 90.07C57.13 89.91 57.02 89.82 56.75 89.59C57 89.36 57.31 89.05 57.49 88.84C57.72 88.57 57.85 88.42 57.88 88.38L56.96 87.87C56.93 87.92 56.93 87.92 56.88 88C56.84 88.08 56.81 88.11 56.67 88.29C56.47 88.55 56.4 88.61 56.08 88.93C55.7 88.47 55.56 88.24 55.46 87.84C55.23 87.87 55.07 87.88 54.6 87.88H52.75C52.4 87.88 52.11 87.86 51.92 87.83V88.87L51.6 88.61L50.78 89.22C51.28 89.57 51.62 89.88 52.18 90.53C51.51 90.97 51.04 91.21 50.27 91.5C50.54 91.82 50.69 92.06 50.86 92.42C51.66 92.06 52.03 91.85 52.62 91.45V91.89C52.87 91.87 52.98 91.86 53.29 91.85L53.28 92.62ZM54.35 91.85H55.51V92.93H54.34V92.7L54.35 91.85ZM53.99 88.83C53.69 89.24 53.43 89.52 53.01 89.9C52.68 89.53 52.45 89.31 51.92 88.87C52.13 88.84 52.35 88.83 52.53 88.83H53.99ZM53.61 90.91H53.34C54.05 90.33 54.47 89.88 55.03 89.1C55.58 89.87 56.02 90.33 56.73 90.91H56.52H53.61ZM64.42 91.42C63.1 92.23 61.82 92.81 60.3 93.26C60.59 93.63 60.72 93.85 60.89 94.26C61.66 93.95 61.87 93.86 62.48 93.56C62.47 93.74 62.47 93.96 62.47 94.12V95.67C62.47 96.11 62.45 96.47 62.41 96.8H63.58V96.37H67.21V96.8H68.37C68.33 96.53 68.31 96.19 68.31 95.67V93.2C68.31 92.64 68.32 92.4 68.35 92.11C68.06 92.13 67.78 92.14 67.3 92.14H65.83C65.57 92.14 65.24 92.14 65.02 92.15C65.47 91.86 65.72 91.69 66.1 91.42H68.25C68.76 91.42 69.16 91.44 69.49 91.48V90.38C69.17 90.42 68.87 90.44 68.35 90.44H67.32C67.85 89.96 68.28 89.53 68.68 89.06C68.91 88.79 69.06 88.62 69.13 88.55L68.14 87.9C67.93 88.31 67.51 88.87 66.98 89.42V88.56C66.69 88.6 66.37 88.62 65.86 88.62H65.14V88.45C65.14 88.04 65.15 87.83 65.2 87.57H63.98C64.02 87.84 64.04 88.06 64.04 88.45V88.62H62.58C62.05 88.62 61.66 88.6 61.4 88.56V89.61C61.69 89.58 62.01 89.57 62.54 89.57H64.04V90.44H61.76C61.19 90.44 60.81 90.42 60.54 90.38V91.48C60.89 91.44 61.24 91.42 61.74 91.42H64.42ZM65.14 90.44V89.57H65.96C66.36 89.57 66.53 89.58 66.8 89.6C66.48 89.92 66.21 90.15 65.84 90.44H65.14ZM63.58 93.05H67.2V93.79H63.58V93.05ZM63.58 94.66H67.2V95.43H63.58V94.66Z" fill="#212121"/>
<rect x="88" y="296" width="25" height="19" fill="#FAFAFA"/>
<path d="M94.88 302.74C94.36 302.74 94.07 302.73 93.76 302.69C93.79 303.03 93.8 303.28 93.8 303.86V307.02C93.8 307.53 93.79 307.84 93.75 308.11H94.88C94.83 307.87 94.82 307.61 94.82 307.02V306.51H96.17V306.93C96.17 307.45 96.15 307.75 96.11 308.04H97.22C97.17 307.73 97.16 307.48 97.16 306.93V306.51H98.66V306.9C98.66 307.16 98.65 307.18 98.43 307.18C98.27 307.18 98.04 307.16 97.77 307.12C97.91 307.42 97.97 307.67 98 308.07C98.19 308.08 98.36 308.08 98.45 308.08C99.07 308.08 99.32 308.02 99.5 307.85C99.64 307.7 99.68 307.5 99.68 306.93V303.85C99.68 303.29 99.69 302.96 99.72 302.69C99.48 302.73 99.2 302.74 98.7 302.74H97.9C98.3 302.48 98.79 302.13 99.19 301.79C99.48 301.55 99.53 301.51 99.69 301.41L99.18 300.79C99 300.84 98.68 300.86 98.05 300.86H94.81C94.25 300.86 93.94 300.84 93.62 300.8V301.82C93.94 301.78 94.17 301.77 94.66 301.77H95.61L94.84 302.22C95.11 302.36 95.13 302.37 95.67 302.74H94.88ZM97.16 303.59H98.66V304.24H97.16V303.59ZM96.17 303.59V304.24H94.82V303.59H96.17ZM94.82 305.04H96.17V305.71H94.82V305.04ZM98.66 305.71H97.16V305.04H98.66V305.71ZM97.73 301.77C97.45 302.01 97.44 302.02 96.73 302.52C96.14 302.08 96.05 302.02 95.69 301.77H97.73ZM90.85 301.46C91.55 302.06 91.97 302.53 92.55 303.33L93.38 302.52C92.9 301.88 92.37 301.34 91.65 300.71L90.85 301.46ZM90.88 305.49C91.11 305.45 91.27 305.44 91.52 305.44H92.03V307.57C91.55 308.01 91.08 308.36 90.71 308.53L91.25 309.63C92.01 309.02 92.01 309.02 92.36 308.66C92.4 308.63 92.45 308.58 92.52 308.51C92.93 308.99 93.19 309.18 93.68 309.36C94.12 309.52 94.91 309.61 95.93 309.61C97.61 309.61 98.62 309.59 99.93 309.53C100 309.1 100.09 308.7 100.22 308.34C98.22 308.57 97.67 308.6 96.04 308.6C95.13 308.6 94.51 308.54 94.05 308.42C93.91 308.38 93.74 308.29 93.55 308.16C93.34 308.01 93.23 307.89 93.06 307.6V305.46C93.06 304.92 93.07 304.68 93.1 304.37C92.87 304.41 92.64 304.42 92.34 304.42H91.64C91.3 304.42 91.13 304.41 90.88 304.37V305.49ZM103.04 302.86C103.03 303.59 103.01 304.12 102.99 304.43H102.14C101.56 304.43 101.31 304.42 101.02 304.37V305.49C101.31 305.44 101.58 305.43 102.11 305.43H102.88C102.78 306.01 102.66 306.43 102.47 306.84C102.1 307.59 101.58 308.16 100.79 308.65C101.2 308.94 101.4 309.15 101.62 309.55C102.69 308.66 103.16 308.04 103.55 307.02C103.88 307.65 104.38 308.25 105.1 308.91C105.29 308.44 105.45 308.15 105.71 307.82C105.1 307.35 104.8 307.06 104.41 306.56C104.2 306.3 104.12 306.18 103.89 305.77C103.92 305.62 103.93 305.57 103.95 305.43H104.62C105.05 305.43 105.32 305.44 105.59 305.48V304.38C105.31 304.42 105.08 304.43 104.65 304.43H104.05C104.09 303.92 104.09 303.92 104.11 302.86H104.48C104.86 302.86 105.18 302.88 105.47 302.91V301.82C105.19 301.86 104.95 301.87 104.48 301.87H102.97C103.06 301.62 103.12 301.45 103.18 301.24C103.27 300.94 103.3 300.85 103.35 300.72L102.22 300.5C102.21 300.69 102.18 300.86 102.1 301.12C101.82 302.12 101.46 302.78 100.82 303.46C101.2 303.71 101.42 303.91 101.68 304.22C102.08 303.73 102.27 303.43 102.55 302.86H103.04ZM106.89 308.82H108.61V309.51H109.74C109.7 309.14 109.68 308.71 109.68 308.25V302.46C109.68 302 109.69 301.72 109.73 301.4C109.44 301.44 109.2 301.45 108.8 301.45H106.7C106.27 301.45 106.07 301.44 105.78 301.4C105.82 301.73 105.84 302.06 105.84 302.46V308.35C105.84 308.75 105.81 309.18 105.78 309.5H106.89V308.82ZM106.91 302.45H108.61V307.82H106.91V302.45Z" fill="#212121"/>
<rect x="88" y="356" width="25" height="19" fill="#FAFAFA"/>
<path d="M94.88 362.74C94.36 362.74 94.07 362.73 93.76 362.69C93.79 363.03 93.8 363.28 93.8 363.86V367.02C93.8 367.53 93.79 367.84 93.75 368.11H94.88C94.83 367.87 94.82 367.61 94.82 367.02V366.51H96.17V366.93C96.17 367.45 96.15 367.75 96.11 368.04H97.22C97.17 367.73 97.16 367.48 97.16 366.93V366.51H98.66V366.9C98.66 367.16 98.65 367.18 98.43 367.18C98.27 367.18 98.04 367.16 97.77 367.12C97.91 367.42 97.97 367.67 98 368.07C98.19 368.08 98.36 368.08 98.45 368.08C99.07 368.08 99.32 368.02 99.5 367.85C99.64 367.7 99.68 367.5 99.68 366.93V363.85C99.68 363.29 99.69 362.96 99.72 362.69C99.48 362.73 99.2 362.74 98.7 362.74H97.9C98.3 362.48 98.79 362.13 99.19 361.79C99.48 361.55 99.53 361.51 99.69 361.41L99.18 360.79C99 360.84 98.68 360.86 98.05 360.86H94.81C94.25 360.86 93.94 360.84 93.62 360.8V361.82C93.94 361.78 94.17 361.77 94.66 361.77H95.61L94.84 362.22C95.11 362.36 95.13 362.37 95.67 362.74H94.88ZM97.16 363.59H98.66V364.24H97.16V363.59ZM96.17 363.59V364.24H94.82V363.59H96.17ZM94.82 365.04H96.17V365.71H94.82V365.04ZM98.66 365.71H97.16V365.04H98.66V365.71ZM97.73 361.77C97.45 362.01 97.44 362.02 96.73 362.52C96.14 362.08 96.05 362.02 95.69 361.77H97.73ZM90.85 361.46C91.55 362.06 91.97 362.53 92.55 363.33L93.38 362.52C92.9 361.88 92.37 361.34 91.65 360.71L90.85 361.46ZM90.88 365.49C91.11 365.45 91.27 365.44 91.52 365.44H92.03V367.57C91.55 368.01 91.08 368.36 90.71 368.53L91.25 369.63C92.01 369.02 92.01 369.02 92.36 368.66C92.4 368.63 92.45 368.58 92.52 368.51C92.93 368.99 93.19 369.18 93.68 369.36C94.12 369.52 94.91 369.61 95.93 369.61C97.61 369.61 98.62 369.59 99.93 369.53C100 369.1 100.09 368.7 100.22 368.34C98.22 368.57 97.67 368.6 96.04 368.6C95.13 368.6 94.51 368.54 94.05 368.42C93.91 368.38 93.74 368.29 93.55 368.16C93.34 368.01 93.23 367.89 93.06 367.6V365.46C93.06 364.92 93.07 364.68 93.1 364.37C92.87 364.41 92.64 364.42 92.34 364.42H91.64C91.3 364.42 91.13 364.41 90.88 364.37V365.49ZM103.04 362.86C103.03 363.59 103.01 364.12 102.99 364.43H102.14C101.56 364.43 101.31 364.42 101.02 364.37V365.49C101.31 365.44 101.58 365.43 102.11 365.43H102.88C102.78 366.01 102.66 366.43 102.47 366.84C102.1 367.59 101.58 368.16 100.79 368.65C101.2 368.94 101.4 369.15 101.62 369.55C102.69 368.66 103.16 368.04 103.55 367.02C103.88 367.65 104.38 368.25 105.1 368.91C105.29 368.44 105.45 368.15 105.71 367.82C105.1 367.35 104.8 367.06 104.41 366.56C104.2 366.3 104.12 366.18 103.89 365.77C103.92 365.62 103.93 365.57 103.95 365.43H104.62C105.05 365.43 105.32 365.44 105.59 365.48V364.38C105.31 364.42 105.08 364.43 104.65 364.43H104.05C104.09 363.92 104.09 363.92 104.11 362.86H104.48C104.86 362.86 105.18 362.88 105.47 362.91V361.82C105.19 361.86 104.95 361.87 104.48 361.87H102.97C103.06 361.62 103.12 361.45 103.18 361.24C103.27 360.94 103.3 360.85 103.35 360.72L102.22 360.5C102.21 360.69 102.18 360.86 102.1 361.12C101.82 362.12 101.46 362.78 100.82 363.46C101.2 363.71 101.42 363.91 101.68 364.22C102.08 363.73 102.27 363.43 102.55 362.86H103.04ZM106.89 368.82H108.61V369.51H109.74C109.7 369.14 109.68 368.71 109.68 368.25V362.46C109.68 362 109.69 361.72 109.73 361.4C109.44 361.44 109.2 361.45 108.8 361.45H106.7C106.27 361.45 106.07 361.44 105.78 361.4C105.82 361.73 105.84 362.06 105.84 362.46V368.35C105.84 368.75 105.81 369.18 105.78 369.5H106.89V368.82ZM106.91 362.45H108.61V367.82H106.91V362.45Z" fill="#212121"/>
<rect x="88" y="236" width="25" height="19" fill="#FAFAFA"/>
<path d="M94.88 242.74C94.36 242.74 94.07 242.73 93.76 242.69C93.79 243.03 93.8 243.28 93.8 243.86V247.02C93.8 247.53 93.79 247.84 93.75 248.11H94.88C94.83 247.87 94.82 247.61 94.82 247.02V246.51H96.17V246.93C96.17 247.45 96.15 247.75 96.11 248.04H97.22C97.17 247.73 97.16 247.48 97.16 246.93V246.51H98.66V246.9C98.66 247.16 98.65 247.18 98.43 247.18C98.27 247.18 98.04 247.16 97.77 247.12C97.91 247.42 97.97 247.67 98 248.07C98.19 248.08 98.36 248.08 98.45 248.08C99.07 248.08 99.32 248.02 99.5 247.85C99.64 247.7 99.68 247.5 99.68 246.93V243.85C99.68 243.29 99.69 242.96 99.72 242.69C99.48 242.73 99.2 242.74 98.7 242.74H97.9C98.3 242.48 98.79 242.13 99.19 241.79C99.48 241.55 99.53 241.51 99.69 241.41L99.18 240.79C99 240.84 98.68 240.86 98.05 240.86H94.81C94.25 240.86 93.94 240.84 93.62 240.8V241.82C93.94 241.78 94.17 241.77 94.66 241.77H95.61L94.84 242.22C95.11 242.36 95.13 242.37 95.67 242.74H94.88ZM97.16 243.59H98.66V244.24H97.16V243.59ZM96.17 243.59V244.24H94.82V243.59H96.17ZM94.82 245.04H96.17V245.71H94.82V245.04ZM98.66 245.71H97.16V245.04H98.66V245.71ZM97.73 241.77C97.45 242.01 97.44 242.02 96.73 242.52C96.14 242.08 96.05 242.02 95.69 241.77H97.73ZM90.85 241.46C91.55 242.06 91.97 242.53 92.55 243.33L93.38 242.52C92.9 241.88 92.37 241.34 91.65 240.71L90.85 241.46ZM90.88 245.49C91.11 245.45 91.27 245.44 91.52 245.44H92.03V247.57C91.55 248.01 91.08 248.36 90.71 248.53L91.25 249.63C92.01 249.02 92.01 249.02 92.36 248.66C92.4 248.63 92.45 248.58 92.52 248.51C92.93 248.99 93.19 249.18 93.68 249.36C94.12 249.52 94.91 249.61 95.93 249.61C97.61 249.61 98.62 249.59 99.93 249.53C100 249.1 100.09 248.7 100.22 248.34C98.22 248.57 97.67 248.6 96.04 248.6C95.13 248.6 94.51 248.54 94.05 248.42C93.91 248.38 93.74 248.29 93.55 248.16C93.34 248.01 93.23 247.89 93.06 247.6V245.46C93.06 244.92 93.07 244.68 93.1 244.37C92.87 244.41 92.64 244.42 92.34 244.42H91.64C91.3 244.42 91.13 244.41 90.88 244.37V245.49ZM103.04 242.86C103.03 243.59 103.01 244.12 102.99 244.43H102.14C101.56 244.43 101.31 244.42 101.02 244.37V245.49C101.31 245.44 101.58 245.43 102.11 245.43H102.88C102.78 246.01 102.66 246.43 102.47 246.84C102.1 247.59 101.58 248.16 100.79 248.65C101.2 248.94 101.4 249.15 101.62 249.55C102.69 248.66 103.16 248.04 103.55 247.02C103.88 247.65 104.38 248.25 105.1 248.91C105.29 248.44 105.45 248.15 105.71 247.82C105.1 247.35 104.8 247.06 104.41 246.56C104.2 246.3 104.12 246.18 103.89 245.77C103.92 245.62 103.93 245.57 103.95 245.43H104.62C105.05 245.43 105.32 245.44 105.59 245.48V244.38C105.31 244.42 105.08 244.43 104.65 244.43H104.05C104.09 243.92 104.09 243.92 104.11 242.86H104.48C104.86 242.86 105.18 242.88 105.47 242.91V241.82C105.19 241.86 104.95 241.87 104.48 241.87H102.97C103.06 241.62 103.12 241.45 103.18 241.24C103.27 240.94 103.3 240.85 103.35 240.72L102.22 240.5C102.21 240.69 102.18 240.86 102.1 241.12C101.82 242.12 101.46 242.78 100.82 243.46C101.2 243.71 101.42 243.91 101.68 244.22C102.08 243.73 102.27 243.43 102.55 242.86H103.04ZM106.89 248.82H108.61V249.51H109.74C109.7 249.14 109.68 248.71 109.68 248.25V242.46C109.68 242 109.69 241.72 109.73 241.4C109.44 241.44 109.2 241.45 108.8 241.45H106.7C106.27 241.45 106.07 241.44 105.78 241.4C105.82 241.73 105.84 242.06 105.84 242.46V248.35C105.84 248.75 105.81 249.18 105.78 249.5H106.89V248.82ZM106.91 242.45H108.61V247.82H106.91V242.45Z" fill="#212121"/>
<mask id="mask0" mask-type="alpha" maskUnits="userSpaceOnUse" x="21" y="24" width="70" height="54">
<rect width="69.8824" height="54" transform="matrix(-1 0 0 1 90.8823 24)" fill="#C4C4C4"/>
</mask>
<g mask="url(#mask0)">
<path d="M41.4478 77.9769C37.6714 82.3642 31.9151 81.7164 28.4971 78.3398C25.4696 75.349 26.2598 70.732 27.7942 68.6509C30.9871 64.3187 36.3529 65.6556 38.2319 67.8607C39.6469 69.5238 40.336 73.686 37.4969 75.3169C34.8093 76.8651 31.984 75.519 31.8737 74.5221C31.9518 76.0106 36.8307 78.813 40.4738 74.4302" fill="#7879BA"/>
<path opacity="0.23" d="M34.754 74.7279C35.0526 74.7463 36.4492 74.8152 37.9377 74.0021C38.5349 73.6759 38.9713 73.3038 39.2516 73.0327C38.9851 73.9515 38.4384 74.7739 37.4921 75.3206C34.8045 76.8688 31.9792 75.5227 31.8689 74.5258C31.8689 74.5258 31.8689 74.5258 31.8689 74.5212C31.7541 73.9975 31.7357 73.7264 31.8046 73.6989C31.8276 73.6897 31.8551 73.708 31.8965 73.7448C32.3421 74.048 33.3436 74.636 34.754 74.7279Z" fill="#615A86"/>
<path opacity="0.23" d="M40.9333 78.5239C39.8446 79.6173 38.6179 80.3294 37.3454 80.7199C39.8491 79.2314 40.1156 75.9742 40.2351 75.1289C40.4693 76.4107 40.7174 77.573 40.9333 78.5239Z" fill="#615A86"/>
<path d="M68.166 61.7958C70.5181 64.1066 73.6421 67.6394 75.5027 73.1293C75.4935 73.1248 75.4843 73.1156 75.4797 73.111C69.1399 68.6731 69.9898 71.2228 66.3191 69.7757C62.7679 68.3791 63.9716 66.0637 62.7679 64.2444C62.8276 64.2352 67.0818 62.71 68.166 61.7958Z" fill="#7879BA"/>
<path opacity="0.24" d="M67.9325 64.9817C66.8024 66.1716 66.3935 67.8438 66.5451 69.8652C66.4716 69.8376 66.3935 69.8101 66.3154 69.7779C64.4869 69.0612 63.9219 68.0965 63.6324 67.0858C65.3598 66.5023 66.7794 65.7902 67.9325 64.9817Z" fill="#615A86"/>
<path d="M69.4529 60.5099C72.4114 61.8054 76.1372 64.4838 78.177 67.3551C76.1372 66.8543 74.2077 66.744 72.4252 66.8819C72.4252 66.8819 69.8158 63.395 68.0425 61.8973C68.4559 61.5436 69.0853 60.9463 69.4529 60.5099Z" fill="#646DA9"/>
<path d="M41.5481 61.4003C44.6124 58.9378 57.6044 59.1584 61.0546 61.3957C66.3194 64.8091 61.0454 81.5177 61.0454 81.5177C61.0316 81.5958 59.7223 85.34 59.7223 85.34C58.9551 87.513 57.4206 87.7519 56.6534 85.5789C56.6534 85.5789 55.606 81.7704 55.5646 81.7428C53.8832 82.2068 47.9201 81.8898 46.8635 81.6509C46.7532 81.7015 45.9309 85.6294 45.9309 85.6294C45.1637 87.8024 43.5052 87.513 42.738 85.34L41.5435 81.5223C41.5435 81.5223 36.8714 65.1582 41.5481 61.4003Z" fill="#7879BA"/>
<path d="M45.0726 68.9986C45.0864 72.2696 51.27 74.8974 51.27 74.8974C51.27 74.8974 57.4306 72.2191 57.4168 68.9481C57.4031 65.6771 56.1397 63.0309 51.2194 63.0493C46.0281 63.0723 45.0542 65.7276 45.0726 68.9986Z" fill="#FDFEFF"/>
<mask id="mask1" mask-type="alpha" maskUnits="userSpaceOnUse" x="45" y="63" width="13" height="12">
<path d="M45.0726 68.9986C45.0864 72.2696 51.27 74.8974 51.27 74.8974C51.27 74.8974 57.4306 72.2191 57.4168 68.9481C57.4031 65.6771 56.1397 63.0309 51.2194 63.0493C46.0281 63.0723 45.0542 65.7276 45.0726 68.9986Z" fill="#FDFEFF"/>
</mask>
<g mask="url(#mask1)">
<path fill-rule="evenodd" clip-rule="evenodd" d="M53.9885 70.207C52.9338 69.5127 51.8039 68.7317 51.1507 68.2146L50.8655 68.5748C51.5355 69.1051 52.6796 69.8953 53.7359 70.5907C54.7871 71.2828 55.7753 71.8968 56.1277 72.0658L56.3263 71.6515C56.0079 71.4989 55.0482 70.9046 53.9885 70.207Z" fill="#615A86"/>
<path fill-rule="evenodd" clip-rule="evenodd" d="M50.0378 71.0839C48.2835 69.8572 46.4907 68.5465 45.8348 68.0272L45.5497 68.3874C46.2168 68.9156 48.0189 70.2327 49.7745 71.4604C50.653 72.0747 51.5222 72.6683 52.2342 73.1309C52.5901 73.3621 52.9083 73.5617 53.1696 73.7151C53.4258 73.8656 53.6419 73.9805 53.7873 74.0328L53.9429 73.6005C53.8426 73.5644 53.6602 73.4705 53.4022 73.319C53.1494 73.1705 52.8376 72.9751 52.4845 72.7457C51.7787 72.2871 50.9143 71.6968 50.0378 71.0839Z" fill="#615A86"/>
<path fill-rule="evenodd" clip-rule="evenodd" d="M48.648 70.5907C49.7043 69.8953 50.8484 69.1051 51.5183 68.5748L51.2332 68.2146C50.58 68.7317 49.4501 69.5127 48.3954 70.207C47.3356 70.9046 46.3759 71.4989 46.0576 71.6515L46.2562 72.0658C46.6086 71.8968 47.5967 71.2828 48.648 70.5907Z" fill="#615A86"/>
<path fill-rule="evenodd" clip-rule="evenodd" d="M52.6086 71.4631C54.3642 70.2354 56.1663 68.9183 56.8335 68.3901L56.5483 68.0299C55.8924 68.5492 54.0996 69.8599 52.3454 71.0866C51.4689 71.6995 50.6044 72.2897 49.8986 72.7484C49.5456 72.9777 49.2338 73.1732 48.9809 73.3217C48.723 73.4731 48.5406 73.5671 48.4403 73.6032L48.5958 74.0355C48.7413 73.9832 48.9573 73.8683 49.2136 73.7178C49.4748 73.5644 49.793 73.3648 50.1489 73.1336C50.8609 72.6709 51.7302 72.0774 52.6086 71.4631Z" fill="#615A86"/>
</g>
<path opacity="0.3" d="M56.6561 76.3034C57.6209 77.1073 58.6132 76.5285 59.5779 75.7429C59.5779 75.7429 62.316 73.3586 63.2808 70.5103C63.2119 71.305 63.1154 72.1044 63.0005 72.89C62.8949 73.0278 62.7892 73.1656 62.6789 73.2989C61.3145 74.9573 59.6744 76.0691 59.6744 76.0691C58.5167 76.8914 57.5565 77.2268 56.7021 76.5652C56.3759 76.3126 56.2564 75.9818 56.2518 75.6464C56.3024 75.8899 56.4264 76.115 56.6561 76.3034Z" fill="#615A86"/>
<path d="M59.1072 70.924C59.1072 70.924 56.9112 73.8917 56.8837 73.9147C56.5024 74.1858 55.726 75.5318 56.654 76.3082C57.6187 77.1122 58.611 76.5333 59.5758 75.7477C59.5758 75.7477 62.3184 73.3588 63.2832 70.5105" fill="#7979BA"/>
<path d="M59.5256 75.8123C59.5256 75.8123 57.6145 73.3958 56.8886 73.9195C56.5027 74.1998 55.708 75.5688 56.6543 76.3544C57.6329 77.1675 59.1397 76.3544 59.5256 75.8123Z" fill="#C6CED5"/>
<path opacity="0.3" d="M39.5688 70.6395C40.5335 73.4879 43.2762 75.8768 43.2762 75.8768C44.2409 76.6624 45.2333 77.2412 46.198 76.4372C46.4277 76.2489 46.5518 76.0238 46.6023 75.7895C46.5977 76.1248 46.4783 76.451 46.1521 76.7083C45.2976 77.3652 44.3374 77.0345 43.1797 76.2121C43.1797 76.2121 41.5442 75.1004 40.1752 73.4419C40.0511 73.2903 39.9271 73.1341 39.8123 72.9779C39.7066 72.2015 39.6239 71.4205 39.5688 70.6395C39.5642 70.6395 39.5688 70.6395 39.5688 70.6395Z" fill="#615A86"/>
<path d="M43.7415 71.0529C43.7415 71.0529 45.9374 74.0206 45.965 74.0436C46.3463 74.3147 47.1227 75.6607 46.1947 76.4371C45.23 77.2411 44.2376 76.6622 43.2729 75.8766C43.2729 75.8766 40.5302 73.4877 39.5655 70.6394" fill="#7979BA"/>
<path d="M43.3227 75.9422C43.3227 75.9422 45.2338 73.5257 45.9597 74.0494C46.3456 74.3296 47.1403 75.6987 46.1939 76.4843C45.2154 77.302 43.7086 76.4889 43.3227 75.9422Z" fill="#C6CED5"/>
<path opacity="0.3" d="M40.4047 67.2859C40.4093 68.1818 45.2101 71.5676 51.357 71.54C57.4992 71.5171 62.3552 68.4942 62.3506 67.5937C62.346 66.6979 57.6738 67.3824 51.5315 67.41C45.3847 67.4375 40.4001 66.3901 40.4047 67.2859Z" fill="#615A86"/>
<path d="M38.7539 34.312C40.7385 32.5939 47.0508 31.6567 51.6908 31.675C56.9786 31.6934 62.8866 33.0762 66.5388 34.9231C74.5785 31.891 80.6381 41.2399 80.9826 42.9902C81.2583 44.3776 77.4176 45.3516 70.8894 43.4405C70.8894 43.4405 72.4974 49.9594 72.5892 53.5612C72.7133 58.3253 71.8955 68.7216 51.5024 68.7216C31.1094 68.7216 30.0114 59.1476 30.0022 53.2304C29.9976 50.5245 31.238 44.1479 31.7939 41.6626C28.7618 40.877 26.3913 32.5479 28.0221 28.7578C28.8583 26.8145 37.1827 30.6552 38.7539 34.312Z" fill="#7879BA"/>
<path opacity="0.25" d="M80.9825 43.2158C80.5368 43.7717 75.3777 44.2265 70.5172 41.9387C69.4559 41.4425 69.7729 42.1684 70.9352 43.6247C70.9077 43.5007 70.8893 43.4318 70.8893 43.4318C77.0499 45.2464 80.8125 44.4792 80.9825 43.2158Z" fill="#615A86"/>
<path opacity="0.25" d="M32.9977 40.8251C28.399 38.891 27.6134 30.7181 27.641 30.1898C27.641 30.176 27.6364 30.1668 27.6272 30.1622C26.9289 34.2831 29.0835 40.917 31.7664 41.6566C33.1493 41.4131 33.7143 41.1283 32.9977 40.8251Z" fill="#615A86"/>
<path d="M51.6559 46.697C61.3815 46.697 67.1471 50.2436 67.1471 56.8775C67.1471 63.7778 60.8716 65.6016 51.6053 65.6062C42.3391 65.6062 36.059 63.7962 36.059 56.8867C36.059 49.8715 41.9302 46.7016 51.6559 46.697Z" fill="#E2C080"/>
<path opacity="0.2" d="M66.2874 52.9137L66.3931 53.2215C57.6414 50.2262 42.6601 50.681 36.6143 53.3548C38.6035 49.2063 44.2496 46.8496 51.7564 46.845C59.038 46.845 64.2063 49.0685 66.2874 52.9137Z" fill="#615A86"/>
<path d="M66.1764 52.5926L66.1718 52.5972C58.2011 50.2634 43.716 50.268 36.9489 52.6799C38.9381 48.5957 44.1386 46.6157 51.6407 46.6111C58.9269 46.6157 64.0953 48.8071 66.1764 52.5926Z" fill="#D2D2D2"/>
<path d="M55.7877 46.6812L51.5919 50.8794L47.3937 46.6836L51.5895 42.4853L55.7877 46.6812Z" fill="white"/>
<path opacity="0.23" d="M51.5953 50.8785L47.3964 46.6841L51.5907 42.4897L51.5953 50.8785Z" fill="#A0A1C2"/>
<path opacity="0.9" d="M59.415 53.7456C59.5941 54.5404 58.781 54.5082 58.0413 54.476C57.3017 54.4439 56.4012 54.8987 56.6264 53.6261C56.7182 53.1254 57.3017 52.7303 57.9908 52.7119C58.9877 52.7119 59.3277 53.3643 59.415 53.7456Z" fill="white"/>
<path opacity="0.9" d="M43.7947 53.6587C43.5604 54.4397 44.3735 54.4627 45.1178 54.4811C45.8574 54.4994 46.7257 55.014 46.5879 53.7322C46.5327 53.2269 45.9723 52.795 45.2878 52.7307C44.3322 52.6296 43.9095 53.282 43.7947 53.6587Z" fill="white"/>
<path d="M58.014 58.9098C57.197 58.9098 56.5347 58.2475 56.5347 57.4305C56.5347 56.6135 57.197 55.9512 58.014 55.9512C58.831 55.9512 59.4933 56.6135 59.4933 57.4305C59.4933 58.2475 58.831 58.9098 58.014 58.9098Z" fill="#2C376E"/>
<path d="M58.3607 58.0065C58.2522 58.0065 58.1643 57.9186 58.1643 57.8102C58.1643 57.7018 58.2522 57.6139 58.3607 57.6139C58.4691 57.6139 58.557 57.7018 58.557 57.8102C58.557 57.9186 58.4691 58.0065 58.3607 58.0065Z" fill="white"/>
<path d="M57.5963 57.5149C57.3375 57.5149 57.1278 57.3052 57.1278 57.0464C57.1278 56.7876 57.3375 56.5778 57.5963 56.5778C57.8551 56.5778 58.0649 56.7876 58.0649 57.0464C58.0649 57.3052 57.8551 57.5149 57.5963 57.5149Z" fill="white"/>
<path d="M45.1782 58.9083C44.3612 58.9083 43.6989 58.246 43.6989 57.429C43.6989 56.612 44.3612 55.9497 45.1782 55.9497C45.9952 55.9497 46.6575 56.612 46.6575 57.429C46.6575 58.246 45.9952 58.9083 45.1782 58.9083Z" fill="#2C376E"/>
<path d="M44.7387 58.0062C44.6303 58.0062 44.5424 57.9183 44.5424 57.8099C44.5424 57.7014 44.6303 57.6135 44.7387 57.6135C44.8472 57.6135 44.9351 57.7014 44.9351 57.8099C44.9351 57.9183 44.8472 58.0062 44.7387 58.0062Z" fill="white"/>
<path d="M45.5008 57.5167C45.242 57.5167 45.0322 57.3069 45.0322 57.0481C45.0322 56.7893 45.242 56.5795 45.5008 56.5795C45.7596 56.5795 45.9694 56.7893 45.9694 57.0481C45.9694 57.3069 45.7596 57.5167 45.5008 57.5167Z" fill="white"/>
<path d="M46.8827 60.4376C46.8827 62.2431 48.9914 63.3089 51.5916 63.3089C54.1919 63.3089 56.3005 62.2385 56.3005 60.433C56.3005 58.6275 54.1919 56.7715 51.5916 56.7761C48.9914 56.7761 46.8827 58.6321 46.8827 60.4376Z" fill="white"/>
<path d="M49.9375 58.7713C49.9375 59.3685 50.6772 59.8509 51.5914 59.8509C52.5056 59.8509 53.2452 59.3685 53.2452 58.7713C53.2452 58.1741 52.5056 58.05 51.5914 58.05C50.6772 58.05 49.9375 58.1741 49.9375 58.7713Z" fill="#2C376E"/>
<path opacity="0.8" d="M51.0168 58.5738C51.0168 58.7806 51.274 58.9506 51.591 58.9506C51.908 58.9506 52.1653 58.7806 52.1653 58.5738C52.1653 58.3671 51.908 58.3212 51.591 58.3212C51.274 58.3212 51.0168 58.3671 51.0168 58.5738Z" fill="white"/>
<path d="M49.57 59.9373C49.694 59.9051 49.8181 59.974 49.8502 60.0981C49.9054 60.3002 50.181 60.484 50.498 60.5299C50.6726 60.5575 51.0906 60.5666 51.3571 60.1899V59.2619C51.3571 59.1333 51.4582 59.0322 51.5868 59.0322C51.7154 59.0322 51.8165 59.1333 51.8165 59.2619V60.1899C52.083 60.5666 52.501 60.5575 52.6756 60.5299C52.9972 60.484 53.2682 60.3002 53.328 60.0981C53.3601 59.974 53.4887 59.9051 53.6082 59.9373C53.7322 59.9694 53.8011 60.0981 53.769 60.2175C53.6633 60.6034 53.2499 60.9112 52.7399 60.9847C52.3219 61.0444 51.8946 60.9342 51.5868 60.6264C51.1963 61.0261 50.7231 61.0352 50.4337 60.9847C49.9237 60.902 49.5103 60.6034 49.4046 60.2175C49.3771 60.0935 49.4506 59.9694 49.57 59.9373Z" fill="#2C376E"/>
</g>
<path d="M83.4705 61.5787C83.4705 60.66 82.7257 59.9153 81.8071 59.9153H55.2548C54.3361 59.9153 53.5914 60.66 53.5914 61.5787V76.3366C53.5914 77.2553 54.3361 78 55.2548 78H81.8071C82.7257 78 83.4705 77.2553 83.4705 76.3366V61.5787Z" fill="#B2B2B2"/>
<path d="M74.035 77.2134C74.035 76.7792 73.683 76.4271 73.2487 76.4271H44.9422C44.508 76.4271 44.156 76.7792 44.156 77.2134C44.156 77.6477 44.508 77.9997 44.9422 77.9997H73.2487C73.683 77.9997 74.035 77.6477 74.035 77.2134Z" fill="#B2B2B2"/>
<circle r="2.35888" transform="matrix(-1 0 0 1 68.5308 69.3508)" fill="#D9D9D9"/>
<circle r="4.97093" transform="matrix(0.98964 0.143574 0.143574 -0.98964 231.821 171.633)" fill="#FAFAFA"/>
<path d="M242.437 175.177C242.608 175.138 242.741 175.003 242.775 174.832L243.155 172.922C243.19 172.75 243.119 172.575 242.976 172.474L240.824 170.962C240.718 170.887 240.65 170.769 240.636 170.639C240.577 170.104 240.474 169.578 240.325 169.068C240.289 168.943 240.306 168.808 240.376 168.697L241.784 166.479C241.878 166.331 241.876 166.142 241.779 165.996L240.7 164.38C240.603 164.234 240.429 164.16 240.256 164.19L237.667 164.64C237.539 164.663 237.407 164.626 237.305 164.545C236.892 164.212 236.447 163.912 235.972 163.654C235.856 163.592 235.771 163.483 235.743 163.354L235.172 160.79C235.134 160.619 234.999 160.487 234.827 160.452L232.922 160.073C232.75 160.038 232.575 160.109 232.474 160.252L230.962 162.403C230.887 162.51 230.769 162.578 230.639 162.592C230.1 162.65 229.574 162.753 229.064 162.902C228.939 162.938 228.803 162.921 228.693 162.851L226.48 161.44C226.332 161.346 226.143 161.348 225.997 161.445L224.375 162.527C224.23 162.624 224.155 162.798 224.185 162.971L224.636 165.56C224.658 165.688 224.622 165.82 224.54 165.922C224.207 166.335 223.908 166.78 223.651 167.252C223.588 167.367 223.48 167.451 223.351 167.48L220.79 168.051C220.62 168.09 220.487 168.225 220.453 168.397L220.072 170.306C220.038 170.478 220.109 170.653 220.252 170.754L222.403 172.266C222.51 172.341 222.578 172.459 222.592 172.589C222.65 173.124 222.754 173.65 222.903 174.16C222.939 174.285 222.922 174.42 222.852 174.531L221.443 176.749C221.35 176.897 221.352 177.086 221.449 177.232L222.528 178.848C222.625 178.994 222.799 179.068 222.971 179.038L225.56 178.588C225.689 178.565 225.821 178.602 225.922 178.684C226.336 179.016 226.781 179.316 227.256 179.574C227.372 179.636 227.457 179.745 227.485 179.874L228.056 182.438C228.094 182.609 228.229 182.742 228.401 182.776L230.306 183.155C230.477 183.19 230.653 183.119 230.754 182.976L232.265 180.825C232.341 180.718 232.459 180.65 232.589 180.636C233.128 180.578 233.654 180.475 234.164 180.326C234.289 180.29 234.425 180.307 234.535 180.377L236.753 181.785C236.901 181.879 237.09 181.877 237.236 181.78L238.852 180.701C238.998 180.604 239.072 180.43 239.042 180.257L238.592 177.668C238.57 177.54 238.606 177.408 238.688 177.306C239.02 176.893 239.32 176.448 239.577 175.977C239.64 175.861 239.748 175.777 239.876 175.748L242.437 175.177ZM230.856 175.418C228.754 174.999 227.391 172.958 227.81 170.856C228.229 168.754 230.27 167.391 232.372 167.81C234.474 168.229 235.837 170.27 235.417 172.372C234.998 174.474 232.958 175.837 230.856 175.418Z" fill="#B2B2B2"/>
<path d="M264.341 173.952C264.451 173.931 264.537 173.847 264.562 173.738L264.868 172.409C264.893 172.3 264.852 172.186 264.762 172.12L263.298 171.025C263.231 170.975 263.19 170.898 263.184 170.815C263.155 170.44 263.093 170.07 262.999 169.712C262.978 169.631 262.992 169.545 263.038 169.476L264.063 167.963C264.126 167.871 264.128 167.75 264.069 167.655L263.346 166.501C263.287 166.406 263.177 166.356 263.067 166.371L261.258 166.631C261.176 166.643 261.092 166.618 261.029 166.563C260.748 166.322 260.443 166.103 260.116 165.914C260.043 165.872 259.991 165.801 259.976 165.719L259.631 163.924C259.61 163.815 259.527 163.728 259.418 163.703L258.092 163.397C257.983 163.372 257.869 163.414 257.802 163.503L256.708 164.968C256.658 165.035 256.581 165.075 256.498 165.082C256.12 165.111 255.751 165.172 255.392 165.266C255.311 165.287 255.225 165.273 255.156 165.226L253.647 164.2C253.554 164.138 253.433 164.135 253.338 164.195L252.181 164.919C252.086 164.978 252.035 165.088 252.051 165.198L252.311 167.007C252.323 167.09 252.297 167.173 252.243 167.236C252.002 167.517 251.783 167.822 251.595 168.147C251.553 168.219 251.482 168.271 251.4 168.287L249.608 168.631C249.498 168.653 249.411 168.736 249.386 168.845L249.08 170.174C249.055 170.283 249.097 170.397 249.186 170.463L250.651 171.558C250.717 171.608 250.758 171.685 250.765 171.768C250.794 172.143 250.856 172.513 250.949 172.871C250.97 172.952 250.957 173.038 250.91 173.107L249.886 174.62C249.823 174.713 249.821 174.833 249.88 174.928L250.603 176.082C250.662 176.177 250.771 176.228 250.882 176.212L252.691 175.952C252.773 175.94 252.856 175.965 252.92 176.02C253.201 176.261 253.506 176.48 253.833 176.669C253.905 176.711 253.957 176.782 253.973 176.864L254.317 178.659C254.338 178.768 254.422 178.855 254.531 178.88L255.857 179.186C255.966 179.211 256.079 179.169 256.146 179.08L257.241 177.615C257.291 177.549 257.368 177.508 257.451 177.501C257.828 177.473 258.198 177.411 258.557 177.317C258.638 177.296 258.724 177.31 258.793 177.356L260.306 178.381C260.398 178.443 260.519 178.446 260.614 178.386L261.768 177.664C261.863 177.605 261.913 177.495 261.898 177.385L261.638 175.576C261.626 175.494 261.651 175.41 261.705 175.347C261.947 175.066 262.165 174.761 262.354 174.437C262.396 174.364 262.467 174.312 262.549 174.296L264.341 173.952ZM256.377 173.885C254.944 173.556 254.05 172.128 254.38 170.695C254.71 169.261 256.138 168.368 257.571 168.698C259.005 169.028 259.898 170.455 259.568 171.889C259.238 173.322 257.811 174.215 256.377 173.885Z" fill="#B2B2B2"/>
<circle r="5.39757" transform="matrix(0.98964 0.143574 0.143574 -0.98964 246.477 183.47)" fill="#FAFAFA"/>
<path d="M255.754 184.6C255.885 184.542 255.97 184.412 255.97 184.268V182.672C255.97 182.528 255.885 182.398 255.754 182.34L253.781 181.469C253.683 181.426 253.61 181.341 253.577 181.239C253.444 180.818 253.277 180.412 253.076 180.026C253.026 179.931 253.018 179.819 253.057 179.719L253.834 177.709C253.886 177.575 253.854 177.423 253.752 177.322L252.625 176.195C252.524 176.093 252.372 176.061 252.238 176.113L250.228 176.89C250.128 176.929 250.016 176.921 249.921 176.871C249.536 176.67 249.129 176.5 248.706 176.369C248.603 176.337 248.517 176.264 248.474 176.165L247.604 174.194C247.546 174.062 247.415 173.977 247.272 173.977H245.679C245.535 173.977 245.405 174.062 245.347 174.194L244.477 176.166C244.433 176.264 244.349 176.338 244.246 176.37C243.823 176.503 243.416 176.67 243.03 176.871C242.935 176.921 242.823 176.929 242.723 176.89L240.717 176.11C240.583 176.058 240.431 176.09 240.329 176.192L239.199 177.322C239.097 177.423 239.065 177.575 239.117 177.709L239.894 179.719C239.933 179.819 239.925 179.931 239.875 180.026C239.674 180.411 239.504 180.817 239.373 181.238C239.341 181.341 239.268 181.426 239.169 181.47L237.201 182.34C237.07 182.398 236.985 182.528 236.985 182.671V184.268C236.985 184.412 237.07 184.542 237.201 184.6L239.174 185.471C239.272 185.514 239.345 185.598 239.377 185.7C239.51 186.122 239.678 186.528 239.879 186.914C239.928 187.009 239.936 187.121 239.898 187.221L239.121 189.231C239.069 189.365 239.101 189.516 239.202 189.618L240.329 190.745C240.431 190.846 240.583 190.878 240.717 190.827L242.727 190.049C242.827 190.011 242.938 190.019 243.033 190.068C243.419 190.27 243.825 190.44 244.248 190.57C244.352 190.602 244.437 190.676 244.481 190.775L245.351 192.746C245.409 192.878 245.539 192.962 245.683 192.962H247.276C247.419 192.962 247.549 192.878 247.607 192.746L248.478 190.774C248.521 190.676 248.606 190.602 248.708 190.57C249.132 190.437 249.539 190.269 249.925 190.068C250.02 190.019 250.132 190.011 250.232 190.049L252.242 190.827C252.376 190.878 252.527 190.846 252.629 190.745L253.756 189.618C253.858 189.516 253.89 189.365 253.838 189.231L253.061 187.221C253.022 187.121 253.03 187.009 253.08 186.914C253.281 186.528 253.451 186.123 253.581 185.702C253.614 185.599 253.687 185.514 253.786 185.47L255.754 184.6ZM246.477 186.651C244.719 186.651 243.297 185.228 243.297 183.47C243.297 181.712 244.719 180.289 246.477 180.289C248.235 180.289 249.658 181.712 249.658 183.47C249.658 185.228 248.235 186.651 246.477 186.651Z" fill="#B2B2B2"/>
<path d="M242.8 273.933L246.8 268.6C247.294 267.941 246.824 267 246 267H238C237.176 267 236.706 267.941 237.2 268.6L241.2 273.933C241.6 274.467 242.4 274.467 242.8 273.933Z" fill="#63B7FF"/>
<path d="M242.8 284.933L246.8 279.6C247.294 278.941 246.824 278 246 278H238C237.176 278 236.706 278.941 237.2 279.6L241.2 284.933C241.6 285.467 242.4 285.467 242.8 284.933Z" fill="#63B7FF"/>
<path d="M242.8 333.933L246.8 328.6C247.294 327.941 246.824 327 246 327H238C237.176 327 236.706 327.941 237.2 328.6L241.2 333.933C241.6 334.467 242.4 334.467 242.8 333.933Z" fill="#63B7FF"/>
<path d="M242.8 344.933L246.8 339.6C247.294 338.941 246.824 338 246 338H238C237.176 338 236.706 338.941 237.2 339.6L241.2 344.933C241.6 345.467 242.4 345.467 242.8 344.933Z" fill="#63B7FF"/>
<path d="M54.9904 109.663L49.8112 110.819C49.5177 110.884 49.2942 110.559 49.4611 110.308L54.5374 102.694C54.7575 102.364 55.2425 102.364 55.4626 102.694L60.5359 110.304C60.7031 110.555 60.4782 110.881 60.1842 110.814L55.1372 109.664C55.0889 109.653 55.0388 109.653 54.9904 109.663Z" fill="#63B7FF"/>
</svg>
