<svg width="120" height="39" viewBox="0 0 120 39" fill="none" xmlns="http://www.w3.org/2000/svg">
<path d="M11.3841 38.4755C9.9731 38.3793 8.01696 37.9945 5.83635 37.3531C3.84814 36.7759 1.18651 35.7497 1.15444 33.6332C1.15444 32.126 2.02027 30.8113 3.84814 29.6568C4.64984 29.1437 5.86841 28.5344 6.41357 28.31C7.1832 27.9572 8.75452 27.2517 9.94103 26.8348V7.97895L2.88611 7.20933V27.5083C2.88611 28.31 2.24475 28.8551 1.44305 28.8551C0.641357 28.8551 0 28.31 0 27.5083V5.60593C0 5.18905 0.160339 4.80424 0.481018 4.51563C0.73756 4.29115 1.09031 4.13081 1.44305 4.13081C1.50719 4.13081 1.53926 4.13081 1.60339 4.13081L11.5444 5.22112C12.282 5.28525 12.8271 5.92661 12.8271 6.66417V25.6483C14.2061 25.1032 15.5208 24.526 16.6753 24.0129C20.2989 22.3453 22.7682 20.6458 24.1791 18.8179C25.8787 16.6052 26.1353 13.8794 26.0391 11.9874C25.9429 9.93509 25.3015 8.10723 24.0188 6.34349C23.3454 5.44559 22.1268 4.22702 20.6517 3.58566C19.5614 3.10464 18.6635 2.88017 17.9901 2.81603C17.028 2.68776 16.547 1.98227 16.6111 1.30884C16.6753 0.603351 17.2204 0.0902653 18.0221 0.0261296C19.401 -0.102142 20.4272 0.250604 21.8382 0.891961C24.5319 2.11054 26.2315 4.35529 26.4239 4.61183C28.0273 6.79244 28.8931 9.2296 28.9893 11.8592C29.0855 13.9115 28.829 15.7394 28.2197 17.439C27.8349 18.5293 27.2256 19.6196 26.488 20.5816C23.9226 23.8846 19.4331 25.9369 17.958 26.6104C16.5791 27.2517 13.4685 28.5344 12.8592 28.791V37.0324C12.8592 37.4493 12.6668 37.8662 12.3461 38.1227C12.0896 38.3472 11.7368 38.4755 11.4482 38.4755C11.4162 38.4755 11.4162 38.4755 11.3841 38.4755ZM9.94103 29.9454C9.04313 30.2661 7.69628 30.7792 7.1832 31.0037C6.70218 31.2281 5.22706 31.9016 4.5857 32.4788C4.42536 32.6071 3.91228 33.0881 4.04055 33.4729C4.16882 33.8256 4.74604 34.0822 7.08699 34.6915C7.92076 34.9159 8.88279 35.1404 9.90896 35.3008V29.9454H9.94103Z" fill="#380953"/>
<path d="M40.8856 13.2578C41.78 13.2578 42.5053 12.5809 42.5053 11.6623C42.5053 10.7437 41.78 10.0668 40.8856 10.0668C40.0153 10.0668 39.2901 10.7437 39.2901 11.6623C39.2901 12.5809 40.0153 13.2578 40.8856 13.2578ZM38.6616 32.3312C41.0306 32.3312 42.0943 31.2192 42.0943 28.5117V15.1917H39.6769V28.4392C39.6769 29.7929 39.2418 30.228 38.1297 30.228C37.8638 30.228 37.5979 30.2039 37.4045 30.1797V32.2103C37.743 32.2829 38.1539 32.3312 38.6616 32.3312ZM50.9184 26.9162C54.327 26.9162 56.8411 24.4504 56.8411 20.8968C56.8411 17.3674 54.327 14.9016 50.9184 14.9016C47.5099 14.9016 44.9958 17.3674 44.9958 20.8968C44.9958 24.4504 47.5099 26.9162 50.9184 26.9162ZM50.9184 24.813C48.912 24.813 47.4615 23.2659 47.4615 20.8968C47.4615 18.5519 48.912 17.0048 50.9184 17.0048C52.9249 17.0048 54.3754 18.5519 54.3754 20.8968C54.3754 23.2659 52.9249 24.813 50.9184 24.813ZM67.2379 15.1917V21.3803C67.2379 23.6527 66.0775 24.7405 64.3853 24.7405C62.9107 24.7405 62.0405 23.8944 62.0405 21.5253V15.1917H59.623V22.3956C59.623 25.3207 61.2911 26.9162 63.6359 26.9162C65.1589 26.9162 66.5368 26.2393 67.2621 25.1273H67.3346L67.4796 26.6261H69.6553V15.1917H67.2379ZM78.7833 14.9741C77.3812 14.9741 76.1725 15.6994 75.6407 16.9323H75.5682L75.3989 15.1917H73.2233V26.6261H75.6407V20.8485C75.6407 18.4069 76.801 17.2465 78.9042 17.2465C79.2185 17.2465 79.5569 17.2707 79.9195 17.319V15.1675C79.6053 15.0467 79.2185 14.9741 78.7833 14.9741ZM88.3569 14.9016C86.7614 14.9016 85.4076 15.5785 84.6824 16.6905H84.6099L84.4648 15.1917H82.265V26.6261H84.6824V20.4133C84.6824 18.1651 85.8428 17.0531 87.6075 17.0531C89.1546 17.0531 90.0249 17.9234 90.0249 20.2683V26.6261H92.4423V19.4222C92.4423 16.5213 90.8226 14.9016 88.3569 14.9016ZM106.619 20.51C106.619 17.1015 104.346 14.9016 101.155 14.9016C97.771 14.9016 95.2327 17.3916 95.2327 20.9693C95.2327 24.4988 97.6743 26.9162 101.107 26.9162C103.621 26.9162 105.603 25.635 106.353 23.6768L104.177 23.0967C103.573 24.257 102.509 24.8614 101.155 24.8614C99.294 24.8614 97.8677 23.7252 97.6743 21.477H106.546C106.595 21.1386 106.619 20.8485 106.619 20.51ZM101.155 16.8839C102.775 16.8839 103.935 17.7784 104.201 19.7123H97.771C98.1578 17.875 99.439 16.8839 101.155 16.8839ZM116.911 15.1917L113.623 23.7252H113.551L110.336 15.1917H107.749L112.342 26.6744L110.191 32.0411H112.681L119.425 15.1917H116.911Z" fill="#151219"/>
</svg>
