<svg width="375" height="378" viewBox="0 0 375 378" fill="none" xmlns="http://www.w3.org/2000/svg">
<rect width="375" height="378" fill="#FAFAFA"/>
<rect x="27.4141" y="52.4141" width="320.172" height="162.172" rx="3.58594" fill="white"/>
<path d="M79.4835 119H52.5165C51.679 119 51 118.321 51 117.483V95.5165C51 94.679 51.679 94 52.5165 94H61.3332C62.016 94 62.5695 94.5535 62.5695 95.2363C62.5695 95.919 63.123 96.4725 63.8058 96.4725H79.4835C80.321 96.4725 81 97.1515 81 97.9891V117.483C81 118.321 80.321 119 79.4835 119Z" fill="#ACE9FF"/>
<path d="M51 100.736C51 99.8987 51.679 99.2197 52.5165 99.2197H79.4835C80.321 99.2197 81 99.8987 81 100.736V117.483C81 118.321 80.321 119 79.4835 119H52.5165C51.679 119 51 118.321 51 117.483V100.736Z" fill="#80DDFF"/>
<path d="M51.6603 132.032H51.6843L54.1923 125.504H56.0403V134H54.8523V126.896H54.8283L52.0083 134H51.2523L48.4443 126.896H48.4203V134H47.2683V125.504H49.1163L51.6603 132.032ZM63.8082 131.144C63.8082 131.584 63.7282 131.988 63.5682 132.356C63.4162 132.724 63.2002 133.044 62.9202 133.316C62.6482 133.58 62.3242 133.788 61.9482 133.94C61.5722 134.084 61.1682 134.156 60.7362 134.156C60.3042 134.156 59.9002 134.084 59.5242 133.94C59.1482 133.788 58.8242 133.58 58.5522 133.316C58.2802 133.044 58.0642 132.724 57.9042 132.356C57.7522 131.988 57.6762 131.584 57.6762 131.144C57.6762 130.704 57.7522 130.304 57.9042 129.944C58.0642 129.576 58.2802 129.26 58.5522 128.996C58.8242 128.732 59.1482 128.528 59.5242 128.384C59.9002 128.232 60.3042 128.156 60.7362 128.156C61.1682 128.156 61.5722 128.232 61.9482 128.384C62.3242 128.528 62.6482 128.732 62.9202 128.996C63.2002 129.26 63.4162 129.576 63.5682 129.944C63.7282 130.304 63.8082 130.704 63.8082 131.144ZM62.6322 131.144C62.6322 130.872 62.5882 130.612 62.5002 130.364C62.4202 130.116 62.3002 129.9 62.1402 129.716C61.9802 129.524 61.7802 129.372 61.5402 129.26C61.3082 129.148 61.0402 129.092 60.7362 129.092C60.4322 129.092 60.1602 129.148 59.9202 129.26C59.6882 129.372 59.4922 129.524 59.3322 129.716C59.1722 129.9 59.0482 130.116 58.9602 130.364C58.8802 130.612 58.8402 130.872 58.8402 131.144C58.8402 131.416 58.8802 131.676 58.9602 131.924C59.0482 132.172 59.1722 132.392 59.3322 132.584C59.4922 132.776 59.6882 132.928 59.9202 133.04C60.1602 133.152 60.4322 133.208 60.7362 133.208C61.0402 133.208 61.3082 133.152 61.5402 133.04C61.7802 132.928 61.9802 132.776 62.1402 132.584C62.3002 132.392 62.4202 132.172 62.5002 131.924C62.5882 131.676 62.6322 131.416 62.6322 131.144ZM68.0484 134H66.8244L64.5084 128.312H65.7564L67.4244 132.788H67.4484L69.1284 128.312H70.3284L68.0484 134ZM72.5593 134H71.4313V128.312H72.5593V134ZM72.7513 126.26C72.7513 126.468 72.6753 126.64 72.5233 126.776C72.3793 126.912 72.2033 126.98 71.9953 126.98C71.7873 126.98 71.6113 126.912 71.4673 126.776C71.3233 126.632 71.2513 126.46 71.2513 126.26C71.2513 126.052 71.3233 125.88 71.4673 125.744C71.6113 125.6 71.7873 125.528 71.9953 125.528C72.2033 125.528 72.3793 125.6 72.5233 125.744C72.6753 125.88 72.7513 126.052 72.7513 126.26ZM78.6887 130.652C78.6807 130.428 78.6407 130.22 78.5687 130.028C78.5047 129.828 78.4047 129.656 78.2687 129.512C78.1407 129.368 77.9767 129.256 77.7767 129.176C77.5847 129.088 77.3567 129.044 77.0927 129.044C76.8527 129.044 76.6247 129.088 76.4087 129.176C76.2007 129.256 76.0167 129.368 75.8567 129.512C75.7047 129.656 75.5767 129.828 75.4727 130.028C75.3767 130.22 75.3207 130.428 75.3047 130.652H78.6887ZM79.8287 131.108C79.8287 131.172 79.8287 131.236 79.8287 131.3C79.8287 131.364 79.8247 131.428 79.8167 131.492H75.3047C75.3127 131.732 75.3647 131.96 75.4607 132.176C75.5647 132.384 75.7007 132.568 75.8687 132.728C76.0367 132.88 76.2287 133 76.4447 133.088C76.6687 133.176 76.9047 133.22 77.1527 133.22C77.5367 133.22 77.8687 133.136 78.1487 132.968C78.4287 132.8 78.6487 132.596 78.8087 132.356L79.6007 132.992C79.2967 133.392 78.9367 133.688 78.5207 133.88C78.1127 134.064 77.6567 134.156 77.1527 134.156C76.7207 134.156 76.3207 134.084 75.9527 133.94C75.5847 133.796 75.2687 133.596 75.0047 133.34C74.7407 133.076 74.5327 132.76 74.3807 132.392C74.2287 132.024 74.1527 131.616 74.1527 131.168C74.1527 130.728 74.2247 130.324 74.3687 129.956C74.5207 129.58 74.7287 129.26 74.9927 128.996C75.2567 128.732 75.5687 128.528 75.9287 128.384C76.2887 128.232 76.6767 128.156 77.0927 128.156C77.5087 128.156 77.8847 128.224 78.2207 128.36C78.5647 128.496 78.8527 128.692 79.0847 128.948C79.3247 129.204 79.5087 129.516 79.6367 129.884C79.7647 130.244 79.8287 130.652 79.8287 131.108ZM84.4756 129.752C84.3476 129.544 84.1676 129.376 83.9356 129.248C83.7036 129.112 83.4436 129.044 83.1556 129.044C83.0276 129.044 82.8996 129.06 82.7716 129.092C82.6436 129.116 82.5276 129.16 82.4236 129.224C82.3276 129.28 82.2476 129.356 82.1836 129.452C82.1276 129.54 82.0996 129.652 82.0996 129.788C82.0996 130.028 82.2076 130.208 82.4236 130.328C82.6396 130.44 82.9636 130.544 83.3956 130.64C83.6676 130.704 83.9196 130.78 84.1516 130.868C84.3836 130.956 84.5836 131.068 84.7516 131.204C84.9276 131.332 85.0636 131.488 85.1596 131.672C85.2556 131.856 85.3036 132.072 85.3036 132.32C85.3036 132.656 85.2396 132.94 85.1116 133.172C84.9836 133.404 84.8116 133.596 84.5956 133.748C84.3876 133.892 84.1476 133.996 83.8756 134.06C83.6036 134.124 83.3236 134.156 83.0356 134.156C82.6036 134.156 82.1796 134.072 81.7636 133.904C81.3556 133.736 81.0156 133.48 80.7436 133.136L81.5476 132.452C81.6996 132.676 81.9076 132.864 82.1716 133.016C82.4436 133.168 82.7396 133.244 83.0596 133.244C83.2036 133.244 83.3396 133.232 83.4676 133.208C83.6036 133.176 83.7236 133.128 83.8276 133.064C83.9396 133 84.0276 132.916 84.0916 132.812C84.1556 132.708 84.1876 132.576 84.1876 132.416C84.1876 132.152 84.0596 131.956 83.8036 131.828C83.5556 131.7 83.1876 131.58 82.6996 131.468C82.5076 131.42 82.3116 131.364 82.1116 131.3C81.9196 131.228 81.7436 131.132 81.5836 131.012C81.4236 130.892 81.2916 130.744 81.1876 130.568C81.0916 130.384 81.0436 130.16 81.0436 129.896C81.0436 129.592 81.1036 129.332 81.2236 129.116C81.3516 128.892 81.5156 128.712 81.7156 128.576C81.9156 128.432 82.1436 128.328 82.3996 128.264C82.6556 128.192 82.9196 128.156 83.1916 128.156C83.5996 128.156 83.9916 128.236 84.3676 128.396C84.7516 128.556 85.0476 128.788 85.2556 129.092L84.4756 129.752Z" fill="#212121"/>
<path fill-rule="evenodd" clip-rule="evenodd" d="M111.525 89C110.683 89 110 89.6828 110 90.5251V117.475C110 118.317 110.683 119 111.525 119H132.475C133.317 119 134 118.317 134 117.475V90.5251C134 90.5203 134 90.5156 134 90.5109V98.0265L124.831 89H111.525Z" fill="#EBEBEB"/>
<path d="M125 89L134 98L126.525 98C125.683 98 125 97.3172 125 96.4749L125 89Z" fill="#D9D9D9"/>
<path d="M109.082 132.032H109.106L111.614 125.504H113.462V134H112.274V126.896H112.25L109.43 134H108.674L105.866 126.896H105.842V134H104.69V125.504H106.538L109.082 132.032ZM119.634 130.652C119.626 130.428 119.586 130.22 119.514 130.028C119.45 129.828 119.35 129.656 119.214 129.512C119.086 129.368 118.922 129.256 118.722 129.176C118.53 129.088 118.302 129.044 118.038 129.044C117.798 129.044 117.57 129.088 117.354 129.176C117.146 129.256 116.962 129.368 116.802 129.512C116.65 129.656 116.522 129.828 116.418 130.028C116.322 130.22 116.266 130.428 116.25 130.652H119.634ZM120.774 131.108C120.774 131.172 120.774 131.236 120.774 131.3C120.774 131.364 120.77 131.428 120.762 131.492H116.25C116.258 131.732 116.31 131.96 116.406 132.176C116.51 132.384 116.646 132.568 116.814 132.728C116.982 132.88 117.174 133 117.39 133.088C117.614 133.176 117.85 133.22 118.098 133.22C118.482 133.22 118.814 133.136 119.094 132.968C119.374 132.8 119.594 132.596 119.754 132.356L120.546 132.992C120.242 133.392 119.882 133.688 119.466 133.88C119.058 134.064 118.602 134.156 118.098 134.156C117.666 134.156 117.266 134.084 116.898 133.94C116.53 133.796 116.214 133.596 115.95 133.34C115.686 133.076 115.478 132.76 115.326 132.392C115.174 132.024 115.098 131.616 115.098 131.168C115.098 130.728 115.17 130.324 115.314 129.956C115.466 129.58 115.674 129.26 115.938 128.996C116.202 128.732 116.514 128.528 116.874 128.384C117.234 128.232 117.622 128.156 118.038 128.156C118.454 128.156 118.83 128.224 119.166 128.36C119.51 128.496 119.798 128.692 120.03 128.948C120.27 129.204 120.454 129.516 120.582 129.884C120.71 130.244 120.774 130.652 120.774 131.108ZM123.453 129.248C123.597 128.944 123.825 128.688 124.137 128.48C124.457 128.264 124.833 128.156 125.265 128.156C125.649 128.156 125.993 128.244 126.297 128.42C126.609 128.596 126.853 128.888 127.029 129.296C127.221 128.928 127.489 128.648 127.833 128.456C128.177 128.256 128.553 128.156 128.961 128.156C129.329 128.156 129.645 128.22 129.909 128.348C130.173 128.468 130.393 128.632 130.569 128.84C130.745 129.048 130.873 129.292 130.953 129.572C131.041 129.852 131.085 130.152 131.085 130.472V134H129.957V130.844C129.957 130.612 129.937 130.392 129.897 130.184C129.857 129.976 129.789 129.792 129.693 129.632C129.597 129.472 129.469 129.344 129.309 129.248C129.149 129.152 128.945 129.104 128.697 129.104C128.441 129.104 128.221 129.16 128.037 129.272C127.853 129.376 127.701 129.516 127.581 129.692C127.469 129.86 127.385 130.052 127.329 130.268C127.281 130.484 127.257 130.704 127.257 130.928V134H126.129V130.616C126.129 130.392 126.109 130.188 126.069 130.004C126.029 129.82 125.961 129.664 125.865 129.536C125.769 129.4 125.645 129.296 125.493 129.224C125.341 129.144 125.153 129.104 124.929 129.104C124.513 129.104 124.165 129.276 123.885 129.62C123.613 129.956 123.477 130.408 123.477 130.976V134H122.349V129.536C122.349 129.384 122.345 129.188 122.337 128.948C122.329 128.708 122.317 128.496 122.301 128.312H123.369C123.385 128.456 123.397 128.62 123.405 128.804C123.413 128.98 123.417 129.128 123.417 129.248H123.453ZM138.75 131.144C138.75 131.584 138.67 131.988 138.51 132.356C138.358 132.724 138.142 133.044 137.862 133.316C137.59 133.58 137.266 133.788 136.89 133.94C136.514 134.084 136.11 134.156 135.678 134.156C135.246 134.156 134.842 134.084 134.466 133.94C134.09 133.788 133.766 133.58 133.494 133.316C133.222 133.044 133.006 132.724 132.846 132.356C132.694 131.988 132.618 131.584 132.618 131.144C132.618 130.704 132.694 130.304 132.846 129.944C133.006 129.576 133.222 129.26 133.494 128.996C133.766 128.732 134.09 128.528 134.466 128.384C134.842 128.232 135.246 128.156 135.678 128.156C136.11 128.156 136.514 128.232 136.89 128.384C137.266 128.528 137.59 128.732 137.862 128.996C138.142 129.26 138.358 129.576 138.51 129.944C138.67 130.304 138.75 130.704 138.75 131.144ZM137.574 131.144C137.574 130.872 137.53 130.612 137.442 130.364C137.362 130.116 137.242 129.9 137.082 129.716C136.922 129.524 136.722 129.372 136.482 129.26C136.25 129.148 135.982 129.092 135.678 129.092C135.374 129.092 135.102 129.148 134.862 129.26C134.63 129.372 134.434 129.524 134.274 129.716C134.114 129.9 133.99 130.116 133.902 130.364C133.822 130.612 133.782 130.872 133.782 131.144C133.782 131.416 133.822 131.676 133.902 131.924C133.99 132.172 134.114 132.392 134.274 132.584C134.434 132.776 134.63 132.928 134.862 133.04C135.102 133.152 135.374 133.208 135.678 133.208C135.982 133.208 136.25 133.152 136.482 133.04C136.722 132.928 136.922 132.776 137.082 132.584C137.242 132.392 137.362 132.172 137.442 131.924C137.53 131.676 137.574 131.416 137.574 131.144Z" fill="#212121"/>
<path d="M28 56.5156C28 54.574 29.574 53 31.5156 53H343.859C345.801 53 347.375 54.574 347.375 56.5156V77H28V56.5156Z" fill="#E8E8E8"/>
<circle cx="41.0576" cy="64.2051" r="3" fill="#FF8B81"/>
<circle cx="51" cy="64.2031" r="3" fill="#FFC54E"/>
<circle cx="61" cy="64.2031" r="3" fill="#7ADA6D"/>
<path d="M182.915 70.2473C182.355 70.2473 181.867 70.1553 181.451 69.9712C181.035 69.7792 180.691 69.5272 180.419 69.2152C180.147 68.9032 179.943 68.5472 179.807 68.1472C179.679 67.7392 179.615 67.3192 179.615 66.8872V61.5352H180.803V66.8152C180.803 67.1032 180.839 67.3912 180.911 67.6792C180.983 67.9592 181.099 68.2112 181.259 68.4352C181.427 68.6592 181.643 68.8392 181.907 68.9752C182.179 69.1112 182.515 69.1792 182.915 69.1792C183.307 69.1792 183.639 69.1112 183.911 68.9752C184.183 68.8392 184.399 68.6592 184.559 68.4352C184.727 68.2112 184.847 67.9592 184.919 67.6792C184.991 67.3912 185.027 67.1032 185.027 66.8152V61.5352H186.215V66.8872C186.215 67.3192 186.147 67.7392 186.011 68.1472C185.883 68.5472 185.683 68.9032 185.411 69.2152C185.139 69.5272 184.795 69.7792 184.379 69.9712C183.963 70.1553 183.475 70.2473 182.915 70.2473ZM191.23 65.7832C191.102 65.5752 190.922 65.4072 190.69 65.2792C190.458 65.1432 190.198 65.0752 189.91 65.0752C189.782 65.0752 189.654 65.0912 189.526 65.1232C189.398 65.1472 189.282 65.1912 189.178 65.2552C189.082 65.3112 189.002 65.3872 188.938 65.4832C188.882 65.5712 188.854 65.6832 188.854 65.8192C188.854 66.0592 188.962 66.2392 189.178 66.3592C189.394 66.4712 189.718 66.5752 190.15 66.6712C190.422 66.7352 190.674 66.8112 190.906 66.8992C191.138 66.9872 191.338 67.0992 191.506 67.2352C191.682 67.3632 191.818 67.5192 191.914 67.7032C192.01 67.8872 192.058 68.1032 192.058 68.3512C192.058 68.6872 191.994 68.9712 191.866 69.2032C191.738 69.4352 191.566 69.6272 191.35 69.7792C191.142 69.9232 190.902 70.0273 190.63 70.0913C190.358 70.1553 190.078 70.1873 189.79 70.1873C189.358 70.1873 188.934 70.1033 188.518 69.9352C188.11 69.7672 187.77 69.5112 187.498 69.1672L188.302 68.4832C188.454 68.7072 188.662 68.8952 188.926 69.0472C189.198 69.1992 189.494 69.2752 189.814 69.2752C189.958 69.2752 190.094 69.2632 190.222 69.2393C190.358 69.2072 190.478 69.1592 190.582 69.0952C190.694 69.0312 190.782 68.9472 190.846 68.8432C190.91 68.7392 190.942 68.6072 190.942 68.4473C190.942 68.1832 190.814 67.9872 190.558 67.8592C190.31 67.7312 189.942 67.6112 189.454 67.4992C189.262 67.4512 189.066 67.3952 188.866 67.3312C188.674 67.2592 188.498 67.1632 188.338 67.0432C188.178 66.9232 188.046 66.7752 187.942 66.5992C187.846 66.4152 187.798 66.1912 187.798 65.9272C187.798 65.6232 187.858 65.3632 187.978 65.1472C188.106 64.9232 188.27 64.7432 188.47 64.6072C188.67 64.4632 188.898 64.3592 189.154 64.2952C189.41 64.2232 189.674 64.1872 189.946 64.1872C190.354 64.1872 190.746 64.2672 191.122 64.4272C191.506 64.5872 191.802 64.8192 192.01 65.1232L191.23 65.7832ZM197.654 66.6832C197.646 66.4592 197.606 66.2512 197.534 66.0592C197.47 65.8592 197.37 65.6872 197.234 65.5432C197.106 65.3992 196.942 65.2872 196.742 65.2072C196.55 65.1192 196.322 65.0752 196.058 65.0752C195.818 65.0752 195.59 65.1192 195.374 65.2072C195.166 65.2872 194.982 65.3992 194.822 65.5432C194.67 65.6872 194.542 65.8592 194.438 66.0592C194.342 66.2512 194.286 66.4592 194.27 66.6832H197.654ZM198.794 67.1392C198.794 67.2032 198.794 67.2672 198.794 67.3312C198.794 67.3952 198.79 67.4592 198.782 67.5232H194.27C194.278 67.7632 194.33 67.9912 194.426 68.2072C194.53 68.4152 194.666 68.5992 194.834 68.7592C195.002 68.9112 195.194 69.0312 195.41 69.1192C195.634 69.2072 195.87 69.2512 196.118 69.2512C196.502 69.2512 196.834 69.1672 197.114 68.9992C197.394 68.8312 197.614 68.6272 197.774 68.3872L198.566 69.0232C198.262 69.4232 197.902 69.7192 197.486 69.9112C197.078 70.0952 196.622 70.1873 196.118 70.1873C195.686 70.1873 195.286 70.1153 194.918 69.9712C194.55 69.8272 194.234 69.6272 193.97 69.3712C193.706 69.1072 193.498 68.7912 193.346 68.4232C193.194 68.0552 193.118 67.6472 193.118 67.1992C193.118 66.7592 193.19 66.3552 193.334 65.9872C193.486 65.6112 193.694 65.2912 193.958 65.0272C194.222 64.7632 194.534 64.5592 194.894 64.4152C195.254 64.2632 195.642 64.1872 196.058 64.1872C196.474 64.1872 196.85 64.2552 197.186 64.3912C197.53 64.5272 197.818 64.7232 198.05 64.9792C198.29 65.2352 198.474 65.5472 198.602 65.9152C198.73 66.2752 198.794 66.6832 198.794 67.1392ZM200.368 65.5672C200.368 65.4152 200.364 65.2192 200.356 64.9792C200.348 64.7392 200.336 64.5272 200.32 64.3432H201.388C201.404 64.4872 201.416 64.6552 201.424 64.8472C201.432 65.0312 201.436 65.1832 201.436 65.3032H201.472C201.632 64.9672 201.864 64.6992 202.168 64.4992C202.48 64.2912 202.828 64.1872 203.212 64.1872C203.388 64.1872 203.536 64.2032 203.656 64.2352L203.608 65.2792C203.448 65.2392 203.276 65.2192 203.092 65.2192C202.82 65.2192 202.584 65.2712 202.384 65.3752C202.184 65.4712 202.016 65.6032 201.88 65.7712C201.752 65.9392 201.656 66.1352 201.592 66.3592C201.528 66.5752 201.496 66.8032 201.496 67.0432V70.0312H200.368V65.5672ZM207.788 65.7832C207.66 65.5752 207.48 65.4072 207.248 65.2792C207.016 65.1432 206.756 65.0752 206.468 65.0752C206.34 65.0752 206.212 65.0912 206.084 65.1232C205.956 65.1472 205.84 65.1912 205.736 65.2552C205.64 65.3112 205.56 65.3872 205.496 65.4832C205.44 65.5712 205.412 65.6832 205.412 65.8192C205.412 66.0592 205.52 66.2392 205.736 66.3592C205.952 66.4712 206.276 66.5752 206.708 66.6712C206.98 66.7352 207.232 66.8112 207.464 66.8992C207.696 66.9872 207.896 67.0992 208.064 67.2352C208.24 67.3632 208.376 67.5192 208.472 67.7032C208.568 67.8872 208.616 68.1032 208.616 68.3512C208.616 68.6872 208.552 68.9712 208.424 69.2032C208.296 69.4352 208.124 69.6272 207.908 69.7792C207.7 69.9232 207.46 70.0273 207.188 70.0913C206.916 70.1553 206.636 70.1873 206.348 70.1873C205.916 70.1873 205.492 70.1033 205.076 69.9352C204.668 69.7672 204.328 69.5112 204.056 69.1672L204.86 68.4832C205.012 68.7072 205.22 68.8952 205.484 69.0472C205.756 69.1992 206.052 69.2752 206.372 69.2752C206.516 69.2752 206.652 69.2632 206.78 69.2393C206.916 69.2072 207.036 69.1592 207.14 69.0952C207.252 69.0312 207.34 68.9472 207.404 68.8432C207.468 68.7392 207.5 68.6072 207.5 68.4473C207.5 68.1832 207.372 67.9872 207.116 67.8592C206.868 67.7312 206.5 67.6112 206.012 67.4992C205.82 67.4512 205.624 67.3952 205.424 67.3312C205.232 67.2592 205.056 67.1632 204.896 67.0432C204.736 66.9232 204.604 66.7752 204.5 66.5992C204.404 66.4152 204.356 66.1912 204.356 65.9272C204.356 65.6232 204.416 65.3632 204.536 65.1472C204.664 64.9232 204.828 64.7432 205.028 64.6072C205.228 64.4632 205.456 64.3592 205.712 64.2952C205.968 64.2232 206.232 64.1872 206.504 64.1872C206.912 64.1872 207.304 64.2672 207.68 64.4272C208.064 64.5872 208.36 64.8192 208.568 65.1232L207.788 65.7832Z" fill="#212121"/>
<path d="M175.488 70H166.512C166.229 70 166 69.7706 166 69.4877V62.5123C166 62.2294 166.229 62 166.512 62H169.461C169.679 62 169.857 62.1771 169.857 62.3956C169.857 62.6141 170.034 62.7912 170.252 62.7912H175.488C175.771 62.7912 176 63.0206 176 63.3035V69.4877C176 69.7706 175.771 70 175.488 70Z" fill="#ACE9FF"/>
<path d="M166 64.1827C166 63.8998 166.229 63.6704 166.512 63.6704H175.488C175.771 63.6704 176 63.8998 176 64.1827V69.4878C176 69.7707 175.771 70.0001 175.488 70.0001H166.512C166.229 70.0001 166 69.7707 166 69.4878V64.1827Z" fill="#80DDFF"/>
<rect x="159.586" y="92.5859" width="171.828" height="105.828" rx="2.41406" fill="#F2F2F1"/>
<path d="M186.326 166.712C185.582 166.856 185.078 166.916 184.55 166.94L184.754 167.78C184.91 167.732 185.126 167.684 185.318 167.636C187.094 167.288 188.21 167.012 189.77 166.568V165.836C188.546 166.196 188.03 166.34 187.058 166.556V163.748C187.634 163.256 187.742 163.148 188.222 162.632H188.354C189.41 165.056 190.85 166.46 193.502 167.66C193.646 167.396 193.79 167.18 194.018 166.94C192.65 166.424 191.69 165.872 190.838 165.08C191.51 164.576 192.074 164.084 192.578 163.592C192.734 163.436 192.734 163.436 192.818 163.364L192.122 162.896C191.738 163.4 191.15 163.964 190.358 164.576C189.77 163.892 189.506 163.484 189.11 162.632H192.458C192.974 162.632 193.394 162.656 193.766 162.704V161.888C193.466 161.936 193.094 161.96 192.458 161.96H188.702V160.796H191.366C192.086 160.796 192.35 160.808 192.638 160.844V160.076C192.35 160.112 192.074 160.124 191.366 160.124H188.702V158.996H192.026C192.626 158.996 192.986 159.008 193.322 159.056V158.264C192.998 158.312 192.614 158.336 192.002 158.336H188.702V158.06C188.702 157.568 188.714 157.34 188.773 157.016H187.898C187.946 157.304 187.97 157.544 187.97 158.06V158.336H184.886C184.286 158.336 183.902 158.312 183.59 158.264V159.056C183.902 159.008 184.274 158.996 184.862 158.996H187.97V160.124H185.486C184.814 160.124 184.538 160.112 184.262 160.076V160.844C184.526 160.808 184.802 160.796 185.486 160.796H187.97V161.96H184.43C183.746 161.96 183.41 161.948 183.098 161.888V162.704C183.458 162.656 183.89 162.632 184.43 162.632H187.322C186.242 163.748 184.802 164.612 182.99 165.236C183.242 165.524 183.362 165.692 183.47 165.92C184.754 165.344 185.378 164.996 186.326 164.324V166.712ZM200.15 161.276V166.568C200.15 166.82 200.066 166.868 199.574 166.868C199.046 166.868 198.518 166.82 197.858 166.712C197.978 167.036 198.026 167.192 198.062 167.54C198.554 167.588 199.178 167.612 199.646 167.612C200.714 167.612 200.954 167.432 200.954 166.652V161.276H204.362C204.866 161.276 205.25 161.3 205.61 161.348V160.46C205.262 160.508 204.89 160.532 204.35 160.532H196.586C196.021 160.532 195.674 160.508 195.326 160.46V161.348C195.698 161.3 196.058 161.276 196.574 161.276H200.15ZM204.41 157.736C204.062 157.784 203.678 157.808 203.162 157.808H197.69C197.138 157.808 196.778 157.784 196.43 157.736V158.612C196.814 158.564 197.222 158.54 197.678 158.54H203.15C203.642 158.54 204.038 158.564 204.41 158.612V157.736ZM197.618 162.32C197.186 163.82 196.226 165.308 195.122 166.22C195.434 166.412 195.554 166.52 195.806 166.772C196.922 165.716 197.75 164.384 198.386 162.62L197.618 162.32ZM202.646 162.62C203.486 164.492 204.086 165.428 205.274 166.712C205.526 166.424 205.694 166.268 205.946 166.088C205.526 165.704 205.298 165.464 204.998 165.092C204.326 164.252 203.918 163.568 203.354 162.308L202.646 162.62Z" fill="#212121"/>
<path d="M186.326 189.712C185.582 189.856 185.078 189.916 184.55 189.94L184.754 190.78C184.91 190.732 185.126 190.684 185.318 190.636C187.094 190.288 188.21 190.012 189.77 189.568V188.836C188.546 189.196 188.03 189.34 187.058 189.556V186.748C187.634 186.256 187.742 186.148 188.222 185.632H188.354C189.41 188.056 190.85 189.46 193.502 190.66C193.646 190.396 193.79 190.18 194.018 189.94C192.65 189.424 191.69 188.872 190.838 188.08C191.51 187.576 192.074 187.084 192.578 186.592C192.734 186.436 192.734 186.436 192.818 186.364L192.122 185.896C191.738 186.4 191.15 186.964 190.358 187.576C189.77 186.892 189.506 186.484 189.11 185.632H192.458C192.974 185.632 193.394 185.656 193.766 185.704V184.888C193.466 184.936 193.094 184.96 192.458 184.96H188.702V183.796H191.366C192.086 183.796 192.35 183.808 192.638 183.844V183.076C192.35 183.112 192.074 183.124 191.366 183.124H188.702V181.996H192.026C192.626 181.996 192.986 182.008 193.322 182.056V181.264C192.998 181.312 192.614 181.336 192.002 181.336H188.702V181.06C188.702 180.568 188.714 180.34 188.773 180.016H187.898C187.946 180.304 187.97 180.544 187.97 181.06V181.336H184.886C184.286 181.336 183.902 181.312 183.59 181.264V182.056C183.902 182.008 184.274 181.996 184.862 181.996H187.97V183.124H185.486C184.814 183.124 184.538 183.112 184.262 183.076V183.844C184.526 183.808 184.802 183.796 185.486 183.796H187.97V184.96H184.43C183.746 184.96 183.41 184.948 183.098 184.888V185.704C183.458 185.656 183.89 185.632 184.43 185.632H187.322C186.242 186.748 184.802 187.612 182.99 188.236C183.242 188.524 183.362 188.692 183.47 188.92C184.754 188.344 185.378 187.996 186.326 187.324V189.712ZM200.15 184.276V189.568C200.15 189.82 200.066 189.868 199.574 189.868C199.046 189.868 198.518 189.82 197.858 189.712C197.978 190.036 198.026 190.192 198.062 190.54C198.554 190.588 199.178 190.612 199.646 190.612C200.714 190.612 200.954 190.432 200.954 189.652V184.276H204.362C204.866 184.276 205.25 184.3 205.61 184.348V183.46C205.262 183.508 204.89 183.532 204.35 183.532H196.586C196.021 183.532 195.674 183.508 195.326 183.46V184.348C195.698 184.3 196.058 184.276 196.574 184.276H200.15ZM204.41 180.736C204.062 180.784 203.678 180.808 203.162 180.808H197.69C197.138 180.808 196.778 180.784 196.43 180.736V181.612C196.814 181.564 197.222 181.54 197.678 181.54H203.15C203.642 181.54 204.038 181.564 204.41 181.612V180.736ZM197.618 185.32C197.186 186.82 196.226 188.308 195.122 189.22C195.434 189.412 195.554 189.52 195.806 189.772C196.922 188.716 197.75 187.384 198.386 185.62L197.618 185.32ZM202.646 185.62C203.486 187.492 204.086 188.428 205.274 189.712C205.526 189.424 205.694 189.268 205.946 189.088C205.526 188.704 205.298 188.464 204.998 188.092C204.326 187.252 203.918 186.568 203.354 185.308L202.646 185.62ZM214.466 181.144C214.358 181.552 214.214 181.984 214.01 182.416H213.362C212.846 182.416 212.63 182.404 212.318 182.368C212.354 182.692 212.366 183.016 212.366 183.496V187.384C212.366 187.828 212.354 188.164 212.318 188.488C212.654 188.452 212.93 188.44 213.362 188.44H216.314C216.746 188.44 216.986 188.452 217.358 188.488C217.322 188.152 217.31 187.828 217.31 187.348V183.46C217.31 182.968 217.322 182.692 217.358 182.368C217.106 182.404 216.806 182.416 216.254 182.416H214.754C214.91 182.08 215.09 181.588 215.222 181.144H216.698C217.262 181.144 217.55 181.156 217.862 181.216V180.388C217.598 180.436 217.262 180.46 216.698 180.46H213.062C212.402 180.46 212.138 180.448 211.898 180.4V181.204C212.174 181.156 212.414 181.144 213.062 181.144H214.466ZM213.074 183.052H216.59V184.192H213.074V183.052ZM213.074 184.804H216.59V185.944H213.074V184.804ZM213.074 186.556H216.59V187.792H213.074V186.556ZM207.542 180.244C207.59 180.604 207.614 180.868 207.614 181.456V184.396C207.614 185.728 207.53 186.964 207.398 187.924C207.278 188.74 207.086 189.292 206.726 189.94C207.002 190.12 207.026 190.144 207.362 190.492C208.034 189.112 208.298 187.42 208.298 184.444V181.456C208.298 180.796 208.31 180.544 208.358 180.244H207.542ZM209.138 180.604C209.174 180.94 209.186 181.144 209.186 181.84V187.84C209.186 188.392 209.162 188.692 209.126 189.052H209.918C209.882 188.752 209.87 188.428 209.87 187.852V181.84C209.87 181.12 209.87 180.892 209.918 180.604H209.138ZM210.698 180.256C210.746 180.58 210.758 180.868 210.758 181.672V189.064C210.758 189.904 210.746 190.18 210.698 190.492H211.49C211.454 190.192 211.442 189.916 211.442 189.064V181.672C211.442 180.82 211.454 180.568 211.502 180.256H210.698ZM215.246 189.028C216.074 189.892 216.602 190.276 217.706 190.852C217.838 190.6 217.994 190.372 218.162 190.192C217.106 189.736 216.566 189.364 215.87 188.644L215.246 189.028ZM213.59 188.656C212.99 189.424 212.462 189.832 211.478 190.276C211.682 190.444 211.814 190.6 211.982 190.864C213.002 190.312 213.518 189.892 214.25 189.052L213.59 188.656ZM223.274 184.06C224.51 184.768 225.17 185.212 225.746 185.728H222.302C221.678 185.728 221.39 185.716 221.102 185.668V186.46C221.39 186.412 221.69 186.4 222.278 186.4H224.87V189.832C224.87 190.072 224.762 190.132 224.378 190.132C223.862 190.132 223.406 190.096 222.83 189.988C222.938 190.264 222.986 190.468 223.034 190.792C223.526 190.816 224.03 190.84 224.414 190.84C225.314 190.84 225.638 190.6 225.638 189.952V186.4H228.614C227.954 187.084 227.642 187.324 226.742 187.864C226.97 188.008 227.126 188.152 227.318 188.392C228.17 187.804 228.746 187.3 229.274 186.664C229.514 186.376 229.562 186.316 229.67 186.208L229.19 185.68C228.998 185.716 228.674 185.728 228.158 185.728H225.95L226.382 185.404C226.166 185.224 226.106 185.164 225.95 185.044C226.79 184.54 227.666 183.928 228.206 183.448C228.47 183.22 228.47 183.22 228.602 183.112L228.122 182.608C227.93 182.632 227.63 182.644 227.15 182.644H222.998C222.422 182.644 222.182 182.632 221.858 182.584V183.352C222.182 183.304 222.47 183.292 222.974 183.292H227.366C226.742 183.82 226.202 184.18 225.398 184.648C224.858 184.264 224.546 184.06 223.754 183.616L223.274 184.06ZM224.438 181.048H221.306C220.706 181.048 220.358 181.036 219.986 180.988C220.021 181.444 220.034 181.816 220.034 182.632C220.034 185.2 219.914 186.964 219.674 188.128C219.494 188.932 219.278 189.484 218.833 190.168C219.158 190.384 219.302 190.516 219.458 190.732C219.986 189.856 220.238 189.184 220.442 188.152C220.706 186.796 220.79 185.224 220.802 181.732H228.578C229.202 181.732 229.502 181.744 229.802 181.792V180.976C229.466 181.024 229.106 181.048 228.566 181.048H225.194V180.736C225.194 180.352 225.206 180.148 225.266 179.944H224.366C224.414 180.16 224.438 180.364 224.438 180.724V181.048Z" fill="#212121"/>
<path d="M189.412 129.54V130.356H187.984C187.48 130.356 187.192 130.344 186.88 130.296V131.004C187.228 130.956 187.492 130.944 187.972 130.944H189.412V131.832H187.444C186.856 131.832 186.52 131.808 186.22 131.76V132.528C186.532 132.48 186.88 132.456 187.444 132.456H192.544C192.976 132.456 193.348 132.48 193.732 132.528V131.76C193.432 131.808 193.084 131.832 192.544 131.832H190.12V130.944H191.98C192.472 130.944 192.772 130.956 193.096 131.004V130.296C192.784 130.344 192.508 130.356 191.992 130.356H190.12V129.54H192.352C192.892 129.54 193.192 129.552 193.516 129.6V128.856C193.192 128.916 192.94 128.928 192.34 128.928H190.12C190.12 128.448 190.132 128.304 190.192 127.992H189.34C189.4 128.304 189.412 128.46 189.412 128.928H187.624C187.06 128.928 186.796 128.916 186.484 128.856V129.6C186.796 129.552 187.072 129.54 187.612 129.54H189.412ZM187.696 136.836H192.052V137.772C192.052 138.048 191.98 138.096 191.584 138.096C191.248 138.096 190.792 138.048 190.24 137.952C190.348 138.216 190.396 138.396 190.432 138.708C190.948 138.744 191.332 138.768 191.656 138.768C192.556 138.768 192.784 138.576 192.784 137.832V134.424C192.784 133.8 192.796 133.428 192.832 133.14C192.592 133.188 192.292 133.2 191.728 133.2H188.044C187.588 133.2 187.228 133.188 186.928 133.152C186.964 133.476 186.964 133.644 186.964 134.196V137.58C186.964 138.228 186.952 138.564 186.904 138.876H187.768C187.72 138.576 187.696 138.204 187.696 137.58V136.836ZM187.696 136.224V135.324H192.052V136.224H187.696ZM187.696 134.724V133.812H192.052V134.724H187.696ZM183.472 133.776C183.82 132.552 183.904 132.012 183.988 130.476L183.328 130.296C183.256 131.928 183.184 132.348 182.824 133.476L183.472 133.776ZM185.308 138.9C185.248 138.492 185.224 138.048 185.224 137.532V129.204C185.224 128.736 185.248 128.376 185.308 127.992H184.384C184.444 128.4 184.468 128.748 184.468 129.204V137.52C184.468 138.012 184.444 138.516 184.384 138.9H185.308ZM186.532 131.448C186.316 130.776 186.16 130.356 185.932 129.864L185.392 130.092C185.656 130.656 185.8 131.064 185.944 131.724L186.532 131.448ZM201.784 132.96C202.192 134.592 202.576 135.54 203.2 136.416C202.756 137.076 202.252 137.604 201.532 138.168C201.772 138.384 201.904 138.528 202.072 138.768C202.744 138.18 203.176 137.7 203.656 137.004C204.304 137.76 204.784 138.204 205.576 138.78C205.72 138.516 205.84 138.336 206.068 138.108C205.156 137.52 204.688 137.112 204.052 136.368C204.568 135.468 205 134.328 205.264 133.188C205.336 132.912 205.348 132.84 205.408 132.696L204.976 132.252C204.784 132.288 204.52 132.3 204.016 132.3H201.412V129.24H204.736C204.628 130.62 204.568 130.776 204.112 130.776C203.764 130.776 203.26 130.716 202.732 130.608C202.816 130.884 202.852 131.028 202.888 131.328C203.368 131.388 203.704 131.412 204.064 131.412C204.676 131.412 204.928 131.328 205.108 131.064C205.264 130.812 205.384 130.236 205.468 129.36C205.528 128.712 205.528 128.712 205.552 128.508C205.348 128.544 205.036 128.556 204.544 128.556H201.772C201.304 128.556 200.968 128.544 200.644 128.496C200.68 128.832 200.704 129.204 200.704 129.624V137.688C200.704 138.168 200.68 138.444 200.62 138.888H201.496C201.436 138.456 201.412 138.144 201.412 137.688V132.96H201.784ZM204.568 132.96C204.304 134.172 204.028 134.94 203.596 135.768C203.044 134.952 202.864 134.484 202.456 132.96H204.568ZM198.184 131.28V130.056H199.144C199.54 130.056 199.744 130.068 200.032 130.104V129.348C199.78 129.384 199.576 129.396 199.144 129.396H198.184V129.036C198.184 128.64 198.208 128.376 198.256 128.004H197.404C197.452 128.304 197.476 128.652 197.476 129.036V129.396H196.348C195.904 129.396 195.7 129.384 195.448 129.348V130.104C195.724 130.068 195.952 130.056 196.348 130.056H197.476V131.28H196.048C195.592 131.28 195.376 131.268 195.088 131.22V132C195.388 131.964 195.604 131.952 196.048 131.952H199.432C199.888 131.952 200.092 131.964 200.38 132V131.22C200.092 131.268 199.912 131.28 199.432 131.28H198.184ZM198.928 133.968C199.192 133.416 199.36 132.972 199.564 132.276L198.904 132.084C198.748 132.816 198.628 133.176 198.256 133.968H196.048C195.568 133.968 195.376 133.956 195.088 133.908V134.688C195.388 134.652 195.628 134.64 196.048 134.64H197.476V135.852H196.252C195.82 135.852 195.616 135.84 195.352 135.804V136.572C195.64 136.536 195.844 136.524 196.252 136.524H197.476V137.748C197.476 138.168 197.452 138.468 197.392 138.888H198.256C198.208 138.48 198.184 138.168 198.184 137.748V136.524H199.288C199.684 136.524 199.876 136.536 200.176 136.572V135.804C199.912 135.84 199.708 135.852 199.288 135.852H198.184V134.64H199.432C199.852 134.64 200.116 134.652 200.38 134.688V133.908C200.128 133.956 199.924 133.968 199.432 133.968H198.928ZM197.14 133.62C196.984 132.96 196.9 132.696 196.66 132.072L196.06 132.264C196.264 132.78 196.408 133.272 196.516 133.836L197.14 133.62ZM210.568 129.924C209.344 129.924 208.432 129.876 208 129.792L207.988 130.62C208.12 130.608 208.144 130.608 208.252 130.608C208.288 130.608 208.384 130.608 208.444 130.608C208.888 130.62 210.016 130.644 210.208 130.644C210.268 130.644 210.388 130.632 210.436 130.62C210.364 130.74 210.364 130.74 210.328 130.8C209.464 132.336 208.468 133.596 207.64 134.232L208.312 134.904C208.504 134.58 208.768 134.304 209.236 133.908C210.208 133.08 211.156 132.636 211.912 132.636C212.476 132.636 212.764 132.924 212.86 133.584C212.056 133.932 211.48 134.244 211.072 134.544C210.256 135.156 209.848 135.78 209.848 136.44C209.848 137.676 210.892 138.288 213.04 138.288C213.964 138.288 215.008 138.204 215.956 138.048C216.196 138.012 216.256 138 216.436 137.988L216.328 137.064C215.644 137.34 214.312 137.532 213.124 137.532C211.432 137.532 210.688 137.184 210.688 136.392C210.688 135.672 211.312 135.108 212.944 134.34C212.956 134.484 212.956 134.508 212.956 134.7C212.956 135.432 212.92 136.164 212.884 136.428L213.7 136.416C213.676 136.248 213.676 136.152 213.676 135.984C213.676 135.876 213.676 135.708 213.688 135.444C213.7 135.204 213.7 134.94 213.7 134.784C213.7 134.484 213.7 134.364 213.676 134.052C215.176 133.464 216.256 133.104 216.88 132.996L216.496 132.156C216.304 132.288 216.268 132.3 215.68 132.504C215.152 132.696 214.468 132.948 213.592 133.296C213.436 132.408 212.896 131.964 212.008 131.964C211.384 131.964 210.748 132.168 210.196 132.552C210.076 132.636 210.076 132.636 209.644 132.972C209.632 132.96 209.632 132.96 209.62 132.936C209.62 132.936 209.62 132.936 209.62 132.924C209.62 132.924 209.632 132.924 209.632 132.912C209.644 132.9 209.704 132.852 209.788 132.792C209.836 132.756 210.076 132.48 210.196 132.336C210.616 131.82 210.916 131.34 211.276 130.632C212.728 130.584 213.988 130.488 215.236 130.32C215.452 130.284 215.524 130.272 215.716 130.26L215.644 129.444C214.984 129.66 213.784 129.804 211.864 129.9C211.756 129.9 211.756 129.9 211.612 129.912C211.672 129.804 211.828 129.48 211.984 129.096C212.188 128.604 212.188 128.604 212.296 128.448L211.336 128.28C211.3 128.664 211.156 129.084 210.76 129.924H210.568ZM222.748 135.396C222.664 135.888 222.64 135.972 222.532 136.224C222.256 136.884 221.692 137.412 220.864 137.772C220.36 138 219.94 138.108 219.028 138.276C219.232 138.528 219.328 138.696 219.448 138.996C220.936 138.672 221.812 138.264 222.52 137.58C223.12 137.004 223.408 136.392 223.576 135.396H225.04V137.808C225.04 138.192 225.112 138.348 225.328 138.48C225.568 138.624 226.108 138.684 227.092 138.684C229.372 138.684 229.504 138.576 229.78 136.428C229.54 136.356 229.36 136.284 229.024 136.104C228.952 137.04 228.868 137.472 228.736 137.676C228.568 137.928 228.292 137.976 227.152 137.976C225.928 137.976 225.808 137.94 225.808 137.568V135.396H226.852C227.5 135.396 227.86 135.408 228.196 135.432C228.148 135.072 228.136 134.736 228.136 134.172V130.104C228.136 129.432 228.16 128.76 228.196 128.508C227.848 128.544 227.404 128.568 226.912 128.568H221.896C221.38 128.568 221.008 128.556 220.612 128.508C220.648 128.772 220.672 129.408 220.672 130.104V134.172C220.672 134.724 220.66 135.06 220.612 135.432C220.984 135.408 221.296 135.396 221.968 135.396H222.748ZM221.416 129.276H227.392V130.584H221.416V129.276ZM221.416 131.256H227.392V132.636H221.416V131.256ZM221.416 133.308H227.392V134.736H221.416V133.308ZM233.296 129.96C233.56 129.924 233.68 129.912 233.944 129.9C235.768 129.84 237.208 129.756 237.592 129.684C237.664 129.672 237.664 129.672 237.7 129.672L237.724 129.696L237.676 129.744C237.652 129.768 237.628 129.792 237.628 129.792C237.532 129.888 237.532 129.888 237.46 129.96C236.632 130.776 234.736 132.444 233.452 133.464C232.636 134.124 232.204 134.436 231.772 134.688L232.312 135.456C233.704 134.172 235.6 133.404 237.364 133.404C238.984 133.404 239.944 134.088 239.944 135.24C239.944 136.26 239.284 136.992 238.024 137.34C237.856 136.812 237.724 136.524 237.472 136.188C236.992 135.552 236.296 135.204 235.492 135.204C234.496 135.204 233.752 135.804 233.752 136.608C233.752 137.712 234.724 138.336 236.416 138.336C239.08 138.336 240.82 137.1 240.82 135.228C240.82 133.692 239.536 132.708 237.532 132.708C236.476 132.708 235.504 132.96 234.592 133.452L234.568 133.416C235.408 132.876 236.86 131.628 238.516 130.008C238.9 129.636 238.96 129.588 239.128 129.504L238.624 128.844C238.468 128.928 238.36 128.952 238.048 128.976C236.968 129.06 235.372 129.132 234.376 129.132C233.8 129.132 233.584 129.12 233.248 129.06L233.296 129.96ZM237.232 137.556C236.8 137.628 236.656 137.64 236.356 137.64C235.84 137.64 235.324 137.532 235.012 137.364C234.688 137.172 234.532 136.944 234.532 136.632C234.532 136.176 234.904 135.888 235.504 135.888C236.368 135.888 236.968 136.464 237.232 137.556Z" fill="#212121"/>
<path d="M159 148L332 148" stroke="#D9D9D9" stroke-width="1.17188"/>
<rect x="160" y="95" width="171" height="22" fill="#228BE5"/>
<path d="M189.809 104.808V102.756C191.357 102.504 192.269 102.276 193.265 101.868C193.577 101.736 193.589 101.736 193.697 101.7L193.085 101.028C192.785 101.244 192.485 101.376 191.981 101.544C190.997 101.856 189.773 102.096 189.137 102.096C189.113 102.096 189.053 102.096 188.993 102.096C189.029 102.444 189.053 102.96 189.053 104.316C189.053 108.324 188.693 110.004 187.541 111.42C187.841 111.576 187.973 111.684 188.225 111.924C188.633 111.372 188.873 110.916 189.113 110.28C189.533 109.188 189.785 107.568 189.797 105.972C189.797 105.66 189.797 105.66 189.797 105.504H191.681V110.736C191.681 111.324 191.657 111.624 191.609 111.936H192.533C192.473 111.636 192.461 111.336 192.461 110.736V105.504H192.905C193.397 105.504 193.661 105.516 193.961 105.564V104.736C193.685 104.784 193.397 104.808 192.857 104.808H189.809ZM186.269 102.132V101.808C186.269 101.412 186.281 101.22 186.329 100.968H185.453C185.501 101.232 185.513 101.424 185.513 101.808V102.132H184.313C183.785 102.132 183.533 102.12 183.257 102.072V102.876C183.569 102.828 183.797 102.816 184.301 102.816H187.373C187.841 102.816 188.069 102.828 188.393 102.876V102.072C188.105 102.12 187.877 102.132 187.385 102.132H186.269ZM184.013 104.892C183.533 104.892 183.281 104.88 183.017 104.832V105.636C183.293 105.588 183.545 105.576 184.013 105.576H187.577C188.009 105.576 188.249 105.588 188.549 105.636V104.832C188.273 104.88 188.033 104.892 187.577 104.892H186.869C187.145 104.424 187.397 103.872 187.685 103.152L186.965 102.924C186.797 103.644 186.581 104.184 186.161 104.892H184.013ZM185.261 107.568C184.925 108.192 184.745 108.444 184.385 108.852C183.941 109.344 183.425 109.776 182.825 110.172C183.017 110.376 183.149 110.568 183.281 110.844C184.373 110.004 185.057 109.212 185.549 108.18C185.525 108.576 185.513 108.888 185.513 109.176V110.88C185.513 111.276 185.489 111.6 185.441 111.912H186.269C186.221 111.588 186.209 111.3 186.209 110.88V109.14C186.197 108.696 186.185 108.348 186.161 108.084C186.629 108.804 186.881 109.08 187.661 109.74C187.805 109.464 187.889 109.32 188.081 109.092C187.181 108.516 186.845 108.204 186.389 107.568H187.529C187.985 107.568 188.225 107.58 188.501 107.628V106.848C188.189 106.908 187.949 106.92 187.529 106.92H186.209V106.284C186.209 106.128 186.221 105.936 186.257 105.792H185.453C185.489 105.936 185.513 106.128 185.513 106.284V106.92H184.049C183.557 106.92 183.317 106.908 183.041 106.848V107.64C183.329 107.58 183.557 107.568 184.025 107.568H185.261ZM185.273 104.556C185.069 103.896 184.925 103.536 184.589 102.936L183.953 103.176C184.277 103.74 184.433 104.112 184.637 104.784L185.273 104.556ZM198.593 106.728C198.929 106.728 199.205 106.74 199.493 106.788V105.972C199.181 106.02 198.917 106.032 198.545 106.032H197.729C197.789 105.216 197.813 104.796 197.825 104.052H198.581C198.929 104.052 199.193 104.064 199.481 104.112V103.308C199.193 103.344 198.881 103.368 198.533 103.368H197.837C197.849 102.948 197.849 102.888 197.849 102.576C197.849 101.856 197.861 101.628 197.909 101.268H197.057C197.105 101.556 197.129 101.844 197.129 102.336V102.864C197.129 102.972 197.129 103.14 197.129 103.368H196.289C195.905 103.368 195.605 103.344 195.305 103.296V104.124C195.629 104.076 195.929 104.052 196.289 104.052H197.105C197.081 104.988 197.057 105.648 197.033 106.032H196.097C195.713 106.032 195.413 106.008 195.113 105.96V106.8C195.437 106.752 195.749 106.728 196.133 106.728H196.973C196.889 107.544 196.745 108.132 196.493 108.768C196.109 109.764 195.725 110.304 194.897 111C195.209 111.192 195.305 111.276 195.497 111.54C196.601 110.496 197.237 109.284 197.549 107.652C197.969 108.528 198.377 109.104 199.193 109.944C199.457 109.512 199.457 109.512 199.661 109.284C198.761 108.468 198.305 107.868 197.705 106.728H198.593ZM201.065 108.288C201.005 108.984 200.873 109.464 200.609 109.884C200.189 110.544 199.421 111.024 198.257 111.336C198.485 111.516 198.629 111.672 198.821 111.948C199.289 111.768 199.481 111.672 199.721 111.552C200.333 111.228 200.801 110.856 201.113 110.424C201.509 109.872 201.689 109.308 201.797 108.288H202.757V110.916C202.757 111.564 202.997 111.72 203.993 111.72C205.613 111.72 205.745 111.6 205.973 109.764C205.697 109.68 205.541 109.596 205.301 109.416C205.241 110.184 205.169 110.592 205.049 110.796C204.953 110.976 204.749 111.036 204.185 111.036C203.549 111.036 203.465 111 203.465 110.76V108.288H203.873C204.329 108.288 204.713 108.3 204.953 108.336C204.917 108.036 204.905 107.76 204.905 107.244V102.78C204.905 102.252 204.917 101.916 204.953 101.556C204.641 101.604 204.389 101.616 203.789 101.616H201.053C200.537 101.616 200.213 101.604 199.901 101.556C199.949 101.856 199.961 102.204 199.961 102.744V107.172C199.961 107.772 199.949 108.096 199.925 108.324C200.177 108.3 200.477 108.288 200.825 108.288H201.065ZM200.681 102.288H204.185V103.608H200.681V102.288ZM200.681 104.256H204.185V105.612H200.681V104.256ZM200.681 106.26H204.185V107.664H200.681V106.26ZM216.185 102.48C215.981 102.564 215.897 102.576 215.417 102.576H209.513C208.853 102.576 208.613 102.564 208.157 102.492V103.464C208.553 103.404 208.889 103.392 209.501 103.392H215.609C214.925 106.08 213.797 107.796 211.829 109.104C210.905 109.728 210.197 110.052 209.117 110.376C209.429 110.688 209.525 110.82 209.705 111.216C211.325 110.592 212.357 109.968 213.473 108.96C214.937 107.628 215.849 106.056 216.485 103.752C216.653 103.14 216.653 103.14 216.737 103.008L216.185 102.48ZM224.801 105.996C224.321 106.8 223.745 107.46 222.941 108.168C222.017 108.96 221.153 109.524 220.193 109.944C220.469 110.184 220.553 110.292 220.733 110.592C222.881 109.44 224.585 107.904 225.233 106.548C225.281 106.452 225.281 106.452 225.293 106.416C225.269 106.764 225.245 107.064 225.245 107.088L225.269 110.664V110.712C225.269 111.132 225.269 111.288 225.233 111.6H226.145C226.097 111.324 226.085 111.216 226.085 110.664L226.025 105.996H227.177C227.657 105.996 227.969 106.008 228.257 106.056V105.228C227.945 105.276 227.741 105.288 227.177 105.288H226.013L226.001 104.4V104.208C226.001 103.932 226.013 103.764 226.049 103.548H225.185C225.233 103.812 225.245 104.004 225.245 104.448L225.257 105.288H221.729C221.165 105.288 220.973 105.276 220.661 105.216V106.056C220.937 106.008 221.237 105.996 221.741 105.996H224.801ZM233.152 101.856C233.188 102.132 233.2 102.276 233.2 102.708C233.2 105.24 233.032 106.812 232.66 107.856C232.264 108.972 231.616 109.836 230.632 110.616C230.992 110.844 231.112 110.952 231.352 111.264C232.444 110.22 233.02 109.416 233.428 108.3C233.884 107.088 233.98 106.2 234.076 102.948C234.1 102.216 234.1 102.216 234.148 101.916L233.152 101.856ZM236.14 101.772C236.188 102.06 236.188 102.06 236.188 102.84L236.116 109.86C236.116 110.376 236.104 110.472 236.032 110.676L236.512 111.228C236.62 111.168 236.644 111.156 236.788 111.096C236.956 111.036 236.956 111.036 237.172 110.952C237.88 110.676 238.36 110.436 238.888 110.076C239.92 109.368 240.712 108.372 241.3 106.992C240.976 106.728 240.88 106.62 240.628 106.296C240.34 107.22 239.872 108.012 239.212 108.696C238.588 109.332 237.976 109.716 236.98 110.088L237.052 102.84C237.052 102.288 237.064 102.072 237.124 101.784L236.14 101.772ZM246.532 101.1C246.472 101.448 246.22 102.024 245.824 102.732C245.068 104.088 243.964 105.324 242.764 106.164C243.064 106.332 243.196 106.428 243.46 106.74C244.54 105.9 245.572 104.748 246.316 103.536L250.516 103.488C250.156 104.628 249.46 106.068 248.848 106.968C247.972 106.224 247.132 105.636 246.196 105.108L245.644 105.72C246.436 106.14 247.6 106.98 248.332 107.652C247.408 108.9 245.548 110.208 243.772 110.868C244.048 111.096 244.18 111.264 244.36 111.612C247.972 109.932 249.76 107.976 251.272 104.004L251.332 103.824L251.392 103.656C251.404 103.632 251.428 103.572 251.452 103.488L250.756 102.72C250.576 102.744 250.456 102.756 250.024 102.768L247.132 102.792C246.844 102.804 246.832 102.804 246.688 102.828C246.808 102.624 246.94 102.396 247.06 102.168C247.192 101.88 247.276 101.712 247.3 101.664C247.36 101.556 247.384 101.508 247.48 101.364L246.532 101.1ZM250.708 101.484C251.092 101.88 251.632 102.708 251.932 103.332L252.532 102.972C252.16 102.252 251.896 101.856 251.308 101.16L250.708 101.484ZM252.064 100.824C252.568 101.4 253.012 102.06 253.288 102.66L253.888 102.312C253.468 101.532 253.252 101.22 252.652 100.488L252.064 100.824Z" fill="white"/>
<path d="M159 120L332 120" stroke="#D9D9D9" stroke-width="1.17188"/>
<path d="M310 166V158L316 162L310 166Z" fill="#212121"/>
<path d="M310 189V181L316 185L310 189Z" fill="#212121"/>
<path d="M289 119.977V106L299 115.497L294.635 115.881L296.921 120.95L294.426 122L292.131 116.88L289 119.977Z" fill="white" stroke="#666666"/>
<rect x="159.586" y="92.5859" width="171.828" height="105.828" rx="2.41406" stroke="#D9D9D9" stroke-width="1.17188"/>
<rect x="27.4141" y="52.4141" width="320.172" height="162.172" rx="3.58594" stroke="#D9D9D9" stroke-width="1.17188"/>
<path d="M28.5 270C28.5 268.619 29.6193 267.5 31 267.5H344C345.381 267.5 346.5 268.619 346.5 270V290.5H28.5V270Z" fill="#E8E8E8"/>
<circle cx="41.0576" cy="278.205" r="3" fill="#FF8B81"/>
<circle cx="51" cy="278.203" r="3" fill="#FFC54E"/>
<circle cx="61" cy="278.203" r="3" fill="#7ADA6D"/>
<path d="M167.684 275.828C167.48 275.912 167.216 275.948 166.892 275.948H163.616C163.712 275.792 163.796 275.648 163.868 275.504C163.988 275.276 164.204 274.868 164.396 274.556L163.316 274.208C163.232 274.52 163.052 274.952 162.932 275.168C162.392 276.26 161.144 278.06 159.08 279.332L159.884 279.956C161.228 279.044 162.296 277.868 163.064 276.8H167.144C166.916 277.748 166.328 278.984 165.596 280.004C164.66 279.44 163.652 278.864 162.956 278.504L162.344 279.212C163.016 279.584 164.024 280.184 164.972 280.796C163.88 281.996 162.32 283.148 160.232 283.784L161.096 284.528C163.208 283.748 164.72 282.572 165.8 281.336C166.256 281.648 166.652 281.936 166.94 282.164L167.6 281.3C167.3 281.084 166.892 280.808 166.436 280.52C167.276 279.344 167.888 278.012 168.188 276.956C168.26 276.764 168.368 276.476 168.464 276.308L167.684 275.828ZM171.224 279.98C171.596 279.944 172.232 279.92 172.892 279.92H179.48C180.02 279.92 180.524 279.968 180.764 279.98V278.804C180.5 278.828 180.068 278.864 179.468 278.864H172.892C172.22 278.864 171.584 278.828 171.224 278.804V279.98ZM185.444 274.916L185.096 275.804C186.752 276.02 189.896 276.704 191.36 277.232L191.744 276.308C190.232 275.78 187.004 275.12 185.444 274.916ZM184.904 278.084L184.544 278.984C186.248 279.236 189.176 279.896 190.568 280.448L190.952 279.524C189.452 278.972 186.548 278.36 184.904 278.084ZM184.244 281.576L183.872 282.488C185.816 282.8 189.38 283.604 190.976 284.3L191.384 283.376C189.74 282.716 186.26 281.888 184.244 281.576ZM200.828 277.52V275.912C200.828 275.552 200.864 274.952 200.9 274.712H199.712C199.772 274.952 199.82 275.54 199.82 275.9V277.52H196.28C195.848 277.52 195.416 277.484 195.176 277.46V278.492C195.416 278.468 195.848 278.456 196.304 278.456H199.82C199.808 280.928 198.824 282.692 196.568 283.76L197.504 284.456C199.928 283.04 200.828 281.096 200.828 278.456H204.008C204.38 278.456 204.872 278.468 205.064 278.492V277.472C204.872 277.496 204.416 277.52 204.02 277.52H200.828ZM207.692 284.288C208.7 283.46 209.468 282.284 209.828 281C210.152 279.8 210.2 277.232 210.2 275.9C210.2 275.54 210.248 275.18 210.26 275.036H209.156C209.204 275.288 209.24 275.552 209.24 275.912C209.24 277.244 209.228 279.632 208.88 280.736C208.52 281.9 207.8 282.968 206.792 283.688L207.692 284.288ZM212.924 284.276C213.044 284.18 213.152 284.096 213.332 284C214.724 283.304 216.392 282.08 217.424 280.676L216.848 279.86C215.936 281.216 214.46 282.308 213.356 282.812V275.888C213.356 275.432 213.392 275.096 213.404 275H212.3C212.312 275.096 212.372 275.432 212.372 275.888V283.076C212.372 283.316 212.336 283.556 212.288 283.748L212.924 284.276Z" fill="#212121"/>
<path d="M28.5 270C28.5 268.619 29.6193 267.5 31 267.5H344C345.381 267.5 346.5 268.619 346.5 270V290.5H28.5V270Z" stroke="#D9D9D9"/>
<path d="M28 290H347V347C347 348.657 345.657 350 344 350H31C29.3431 350 28 348.657 28 347V290Z" fill="#2A2F35"/>
<path d="M45.2695 304.062H46.4531V310.033C46.4531 310.818 46.5176 311.355 46.6465 311.645C46.7793 311.93 46.9805 312.148 47.25 312.301C47.5234 312.449 47.8262 312.523 48.1582 312.523C48.5098 312.523 48.8223 312.443 49.0957 312.283C49.373 312.119 49.5762 311.865 49.7051 311.521C49.8379 311.174 49.9043 310.523 49.9043 309.57V304.062H50.9941V309.998C50.9941 310.846 50.8672 311.51 50.6133 311.99C50.3633 312.467 50.0352 312.826 49.6289 313.068C49.2227 313.311 48.7109 313.432 48.0938 313.432C47.5234 313.432 47.0215 313.326 46.5879 313.115C46.1543 312.904 45.8262 312.588 45.6035 312.166C45.3809 311.744 45.2695 310.982 45.2695 309.881V304.062ZM52.7227 312.811V311.656C53.1602 311.941 53.623 312.143 54.1113 312.26C54.5996 312.373 55.0137 312.43 55.3535 312.43C55.9043 312.43 56.3008 312.342 56.543 312.166C56.7852 311.986 56.9062 311.764 56.9062 311.498C56.9062 311.322 56.8496 311.172 56.7363 311.047C56.623 310.922 56.3418 310.768 55.8926 310.584L55.5176 310.432L54.7617 310.133C53.9492 309.816 53.4375 309.523 53.2266 309.254C53.0117 308.988 52.9043 308.664 52.9043 308.281C52.9043 307.742 53.1113 307.299 53.5254 306.951C53.9434 306.604 54.6191 306.43 55.5527 306.43C56.252 306.43 56.9141 306.531 57.5391 306.734V307.725C56.8203 307.467 56.1445 307.338 55.5117 307.338C55.0508 307.338 54.6895 307.42 54.4277 307.584C54.1699 307.744 54.041 307.945 54.041 308.188C54.041 308.422 54.1543 308.609 54.3809 308.75C54.6035 308.891 54.9668 309.053 55.4707 309.236L56.209 309.506C56.8848 309.752 57.3594 310.02 57.6328 310.309C57.9062 310.598 58.043 310.959 58.043 311.393C58.043 311.959 57.8242 312.426 57.3867 312.793C56.9531 313.156 56.2578 313.338 55.3008 313.338C54.4648 313.338 53.6055 313.162 52.7227 312.811ZM65.2969 312.723C64.4258 313.137 63.6016 313.344 62.8242 313.344C62.2344 313.344 61.707 313.197 61.2422 312.904C60.7773 312.611 60.4043 312.193 60.123 311.65C59.8457 311.104 59.707 310.52 59.707 309.898C59.707 309.301 59.8398 308.727 60.1055 308.176C60.3711 307.625 60.7422 307.197 61.2188 306.893C61.6953 306.584 62.2266 306.43 62.8125 306.43C63.5898 306.43 64.2129 306.707 64.6816 307.262C65.1543 307.816 65.3906 308.672 65.3906 309.828V310.062H60.8789C60.8789 310.516 60.9727 310.93 61.1602 311.305C61.3516 311.68 61.6016 311.961 61.9102 312.148C62.2188 312.336 62.5703 312.43 62.9648 312.43C63.668 312.43 64.4453 312.195 65.2969 311.727V312.723ZM60.9434 309.248H64.207V309.09C64.207 308.555 64.0762 308.129 63.8145 307.812C63.5527 307.496 63.2031 307.338 62.7656 307.338C62.3242 307.338 61.9414 307.5 61.6172 307.824C61.2969 308.145 61.0723 308.619 60.9434 309.248ZM67.6172 313.156V306.611H68.707V308.041C69.0469 307.502 69.4355 307.1 69.873 306.834C70.3145 306.564 70.8047 306.43 71.3438 306.43C71.7383 306.43 72.1328 306.49 72.5273 306.611V308.973H71.4785V307.479C71.2949 307.447 71.1504 307.432 71.0449 307.432C70.6387 307.432 70.2402 307.592 69.8496 307.912C69.459 308.232 69.0781 308.713 68.707 309.354V313.156H67.6172ZM74.3438 312.811V311.656C74.7812 311.941 75.2441 312.143 75.7324 312.26C76.2207 312.373 76.6348 312.43 76.9746 312.43C77.5254 312.43 77.9219 312.342 78.1641 312.166C78.4062 311.986 78.5273 311.764 78.5273 311.498C78.5273 311.322 78.4707 311.172 78.3574 311.047C78.2441 310.922 77.9629 310.768 77.5137 310.584L77.1387 310.432L76.3828 310.133C75.5703 309.816 75.0586 309.523 74.8477 309.254C74.6328 308.988 74.5254 308.664 74.5254 308.281C74.5254 307.742 74.7324 307.299 75.1465 306.951C75.5645 306.604 76.2402 306.43 77.1738 306.43C77.873 306.43 78.5352 306.531 79.1602 306.734V307.725C78.4414 307.467 77.7656 307.338 77.1328 307.338C76.6719 307.338 76.3105 307.42 76.0488 307.584C75.791 307.744 75.6621 307.945 75.6621 308.188C75.6621 308.422 75.7754 308.609 76.002 308.75C76.2246 308.891 76.5879 309.053 77.0918 309.236L77.8301 309.506C78.5059 309.752 78.9805 310.02 79.2539 310.309C79.5273 310.598 79.6641 310.959 79.6641 311.393C79.6641 311.959 79.4453 312.426 79.0078 312.793C78.5742 313.156 77.8789 313.338 76.9219 313.338C76.0859 313.338 75.2266 313.162 74.3438 312.811ZM91.1719 314.064V313.145C90.9102 313.145 90.6387 313.131 90.3574 313.104C90.0762 313.076 89.8125 313.035 89.5664 312.98C89.3203 312.922 89.0371 312.82 88.7168 312.676V311.551C88.9746 311.684 89.2266 311.797 89.4727 311.891C89.7227 311.984 89.9844 312.059 90.2578 312.113C90.5352 312.168 90.8398 312.207 91.1719 312.23V308.967L90.5449 308.627C89.3574 307.99 88.7637 307.221 88.7637 306.318C88.7637 305.838 88.9609 305.371 89.3555 304.918C89.75 304.461 90.3555 304.197 91.1719 304.127V303.154H91.9922V304.127C92.4531 304.127 92.998 304.207 93.627 304.367V305.381L93.4219 305.322C92.832 305.158 92.3555 305.059 91.9922 305.023V308.211L92.6484 308.586C93.2656 308.941 93.6875 309.291 93.9141 309.635C94.1445 309.979 94.2598 310.344 94.2598 310.73C94.2598 311.078 94.1719 311.416 93.9961 311.744C93.8242 312.068 93.5762 312.348 93.252 312.582C92.9277 312.816 92.5078 312.979 91.9922 313.068V314.064H91.1719ZM91.1719 307.719V305.012C90.7773 305.102 90.4727 305.25 90.2578 305.457C90.0469 305.664 89.9414 305.906 89.9414 306.184C89.9414 306.445 90.0312 306.697 90.2109 306.939C90.3945 307.178 90.7148 307.438 91.1719 307.719ZM91.9922 309.453V312.148C92.418 311.996 92.7051 311.811 92.8535 311.592C93.0059 311.369 93.082 311.121 93.082 310.848C93.082 310.582 93.0078 310.355 92.8594 310.168C92.7109 309.977 92.4219 309.738 91.9922 309.453ZM102.604 313.156V306.611H103.559V308.111C103.859 307.475 104.139 307.035 104.396 306.793C104.658 306.551 104.922 306.43 105.188 306.43C105.504 306.43 105.758 306.555 105.949 306.805C106.145 307.051 106.242 307.402 106.242 307.859V308.211C106.371 307.812 106.525 307.49 106.705 307.244C106.889 306.994 107.078 306.797 107.273 306.652C107.469 306.504 107.693 306.43 107.947 306.43C108.229 306.43 108.469 306.549 108.668 306.787C108.867 307.025 108.967 307.5 108.967 308.211V313.156H108.012V308.686C108.012 308.318 108 308.068 107.977 307.936C107.953 307.799 107.906 307.695 107.836 307.625C107.766 307.555 107.689 307.52 107.607 307.52C107.404 307.52 107.186 307.676 106.951 307.988C106.721 308.297 106.484 308.811 106.242 309.529V313.156H105.328V308.691C105.328 308.113 105.271 307.773 105.158 307.672C105.045 307.57 104.943 307.52 104.854 307.52C104.654 307.52 104.439 307.693 104.209 308.041C103.982 308.389 103.766 308.834 103.559 309.377V313.156H102.604ZM110.596 313.156V303.699H111.686V309.641L114.832 306.611H116.285L113.145 309.641L116.367 313.156H114.867L111.686 309.641V313.156H110.596ZM121.881 311.686C121.549 312.232 121.148 312.645 120.68 312.922C120.215 313.199 119.787 313.338 119.396 313.338C118.85 313.338 118.357 313.102 117.92 312.629C117.486 312.156 117.27 311.439 117.27 310.479C117.27 309.721 117.414 309.045 117.703 308.451C117.992 307.854 118.379 307.383 118.863 307.039C119.348 306.691 119.947 306.518 120.662 306.518C120.869 306.518 121.182 306.539 121.6 306.582C121.662 306.59 121.756 306.6 121.881 306.611V303.699H122.977V313.156H121.881V311.686ZM121.881 310.391V307.584C121.494 307.482 121.135 307.432 120.803 307.432C120.131 307.432 119.57 307.691 119.121 308.211C118.676 308.73 118.453 309.438 118.453 310.332C118.453 310.98 118.574 311.471 118.816 311.803C119.062 312.131 119.342 312.295 119.654 312.295C119.994 312.295 120.369 312.123 120.779 311.779C121.189 311.436 121.557 310.973 121.881 310.391ZM126.551 313.156V307.52H124.734V306.611H127.641V312.248H129.463V313.156H126.551ZM126.369 304.25C126.369 304.004 126.453 303.82 126.621 303.699C126.789 303.578 126.947 303.518 127.096 303.518C127.248 303.518 127.408 303.578 127.576 303.699C127.744 303.82 127.828 304.004 127.828 304.25C127.828 304.492 127.744 304.674 127.576 304.795C127.408 304.916 127.248 304.977 127.096 304.977C126.947 304.977 126.789 304.916 126.621 304.795C126.453 304.674 126.369 304.492 126.369 304.25ZM132.48 313.156V306.611H133.57V308.041C133.91 307.502 134.299 307.1 134.736 306.834C135.178 306.564 135.668 306.43 136.207 306.43C136.602 306.43 136.996 306.49 137.391 306.611V308.973H136.342V307.479C136.158 307.447 136.014 307.432 135.908 307.432C135.502 307.432 135.104 307.592 134.713 307.912C134.322 308.232 133.941 308.713 133.57 309.354V313.156H132.48ZM146.713 313.156H145.758V304.062H146.947L149.045 310.051L151.143 304.062H152.303V313.156H151.213V307.361L151.242 306.564H151.213L150.955 307.361L149.549 311.34H148.365L146.941 307.361L146.713 306.564H146.684L146.713 307.361V313.156ZM158.93 306.611V313.156H157.84V311.721C157.488 312.26 157.098 312.664 156.668 312.934C156.238 313.203 155.809 313.338 155.379 313.338C154.996 313.338 154.645 313.236 154.324 313.033C154.008 312.826 153.787 312.557 153.662 312.225C153.537 311.889 153.475 311.236 153.475 310.268V306.611H154.564V310.402C154.564 311.031 154.594 311.447 154.652 311.65C154.715 311.85 154.826 312.014 154.986 312.143C155.15 312.271 155.326 312.336 155.514 312.336C155.896 312.336 156.307 312.156 156.744 311.797C157.186 311.434 157.551 310.977 157.84 310.426V306.611H158.93ZM160.828 312.811V311.656C161.266 311.941 161.729 312.143 162.217 312.26C162.705 312.373 163.119 312.43 163.459 312.43C164.01 312.43 164.406 312.342 164.648 312.166C164.891 311.986 165.012 311.764 165.012 311.498C165.012 311.322 164.955 311.172 164.842 311.047C164.729 310.922 164.447 310.768 163.998 310.584L163.623 310.432L162.867 310.133C162.055 309.816 161.543 309.523 161.332 309.254C161.117 308.988 161.01 308.664 161.01 308.281C161.01 307.742 161.217 307.299 161.631 306.951C162.049 306.604 162.725 306.43 163.658 306.43C164.357 306.43 165.02 306.531 165.645 306.734V307.725C164.926 307.467 164.25 307.338 163.617 307.338C163.156 307.338 162.795 307.42 162.533 307.584C162.275 307.744 162.146 307.945 162.146 308.188C162.146 308.422 162.26 308.609 162.486 308.75C162.709 308.891 163.072 309.053 163.576 309.236L164.314 309.506C164.99 309.752 165.465 310.02 165.738 310.309C166.012 310.598 166.148 310.959 166.148 311.393C166.148 311.959 165.93 312.426 165.492 312.793C165.059 313.156 164.363 313.338 163.406 313.338C162.57 313.338 161.711 313.162 160.828 312.811ZM169.793 313.156V307.52H167.977V306.611H170.883V312.248H172.705V313.156H169.793ZM169.611 304.25C169.611 304.004 169.695 303.82 169.863 303.699C170.031 303.578 170.189 303.518 170.338 303.518C170.49 303.518 170.65 303.578 170.818 303.699C170.986 303.82 171.07 304.004 171.07 304.25C171.07 304.492 170.986 304.674 170.818 304.795C170.65 304.916 170.49 304.977 170.338 304.977C170.189 304.977 170.031 304.916 169.863 304.795C169.695 304.674 169.611 304.492 169.611 304.25ZM180.674 312.969C179.943 313.215 179.248 313.338 178.588 313.338C177.932 313.338 177.348 313.188 176.836 312.887C176.328 312.582 175.932 312.172 175.646 311.656C175.361 311.137 175.219 310.547 175.219 309.887C175.219 308.895 175.541 308.07 176.186 307.414C176.834 306.758 177.615 306.43 178.529 306.43C179.205 306.43 179.92 306.557 180.674 306.811V307.859C179.912 307.512 179.23 307.338 178.629 307.338C178.23 307.338 177.855 307.438 177.504 307.637C177.152 307.832 176.881 308.139 176.689 308.557C176.498 308.975 176.402 309.404 176.402 309.846C176.402 310.436 176.586 310.998 176.953 311.533C177.324 312.068 177.904 312.336 178.693 312.336C178.932 312.336 179.166 312.32 179.396 312.289C179.627 312.254 180.053 312.131 180.674 311.92V312.969Z" fill="white"/>
<path d="M38.47 39.445C37.93 39.705 37.335 39.905 36.685 40.045C36.045 40.195 35.305 40.27 34.465 40.27C33.605 40.27 32.82 40.135 32.11 39.865C31.4 39.585 30.79 39.2 30.28 38.71C29.77 38.21 29.37 37.62 29.08 36.94C28.8 36.25 28.66 35.49 28.66 34.66C28.66 33.81 28.805 33.045 29.095 32.365C29.395 31.675 29.8 31.09 30.31 30.61C30.83 30.13 31.44 29.76 32.14 29.5C32.84 29.24 33.6 29.11 34.42 29.11C35.27 29.11 36.045 29.235 36.745 29.485C37.455 29.725 38.025 30.045 38.455 30.445L37.15 31.855C36.88 31.555 36.5 31.3 36.01 31.09C35.53 30.88 35.005 30.775 34.435 30.775C33.875 30.775 33.365 30.875 32.905 31.075C32.455 31.275 32.07 31.55 31.75 31.9C31.43 32.25 31.18 32.66 31 33.13C30.83 33.6 30.745 34.11 30.745 34.66C30.745 35.23 30.83 35.755 31 36.235C31.18 36.705 31.43 37.115 31.75 37.465C32.08 37.815 32.475 38.09 32.935 38.29C33.405 38.48 33.935 38.575 34.525 38.575C35.335 38.575 36.04 38.45 36.64 38.2V35.5H34.405V33.94H38.47V39.445ZM49.2316 36.1C49.2316 36.74 49.1216 37.32 48.9016 37.84C48.6816 38.35 48.3816 38.785 48.0016 39.145C47.6216 39.505 47.1716 39.785 46.6516 39.985C46.1316 40.175 45.5666 40.27 44.9566 40.27C44.3466 40.27 43.7816 40.175 43.2616 39.985C42.7416 39.785 42.2866 39.505 41.8966 39.145C41.5166 38.785 41.2166 38.35 40.9966 37.84C40.7866 37.32 40.6816 36.74 40.6816 36.1V29.38H42.5716V36.025C42.5716 36.335 42.6116 36.645 42.6916 36.955C42.7716 37.255 42.9016 37.525 43.0816 37.765C43.2716 38.005 43.5166 38.2 43.8166 38.35C44.1266 38.5 44.5066 38.575 44.9566 38.575C45.4066 38.575 45.7816 38.5 46.0816 38.35C46.3916 38.2 46.6366 38.005 46.8166 37.765C47.0066 37.525 47.1416 37.255 47.2216 36.955C47.3016 36.645 47.3416 36.335 47.3416 36.025V29.38H49.2316V36.1ZM51.4796 29.38H53.3696V40H51.4796V29.38ZM62.493 37.075H58.893V35.545H62.493V37.075ZM74.6837 33.556V31.972C76.2557 31.696 77.0117 31.516 77.9717 31.156C78.1877 31.084 78.2357 31.06 78.3677 31.024L77.3837 29.86C76.7717 30.316 74.6957 30.844 73.3397 30.88C73.3997 31.36 73.4117 31.744 73.4117 32.752C73.4117 37.3 73.1117 38.872 71.9717 40.264C72.4757 40.528 72.6797 40.66 73.1597 41.056C73.6157 40.42 73.9877 39.58 74.2277 38.644C74.5157 37.552 74.6597 36.292 74.6717 34.768H75.9557V39.604C75.9557 40.3 75.9437 40.648 75.8837 41.02H77.2877C77.2277 40.66 77.2157 40.324 77.2157 39.604V34.768H77.5157C77.9837 34.768 78.1757 34.78 78.4757 34.816V33.484C78.2117 33.532 77.9117 33.556 77.3837 33.556H74.6837ZM69.6917 34.96C69.6917 34.984 69.6917 34.984 69.6917 35.2V35.812H68.4797C67.9157 35.812 67.6757 35.8 67.3637 35.752V37.024C67.6877 36.976 67.9397 36.964 68.4557 36.964H69.2357C68.7197 37.804 68.0477 38.464 67.1357 39.028C67.4117 39.424 67.5797 39.76 67.7477 40.252C68.6837 39.58 69.2357 38.956 69.7277 38.032C69.7037 38.308 69.6917 38.62 69.6917 38.848V40.048C69.6917 40.432 69.6677 40.72 69.6317 40.996H71.0117C70.9637 40.708 70.9397 40.42 70.9397 40V38.8C70.9397 38.74 70.9277 38.368 70.9277 38.332C70.9157 38.02 70.9157 38.02 70.9037 37.864C71.2877 38.416 71.4797 38.62 72.0797 39.16C72.2597 38.716 72.3917 38.464 72.6557 38.02C72.0797 37.636 71.7797 37.384 71.4197 36.964H71.8637C72.3677 36.964 72.6437 36.976 72.9557 37.012V35.752C72.6437 35.8 72.3797 35.812 71.8637 35.812H70.9397V34.96H71.9117C72.4277 34.96 72.6797 34.972 73.0157 35.008V33.724C72.7037 33.772 72.4517 33.784 71.9117 33.784H71.6717C71.8037 33.544 71.8517 33.46 71.9357 33.256C72.0677 32.932 72.0677 32.932 72.1397 32.812C72.2477 32.548 72.2477 32.548 72.3197 32.392L71.2997 32.104H71.7917C72.3077 32.104 72.5957 32.116 72.9197 32.152V30.868C72.6077 30.916 72.3677 30.928 71.8037 30.928H70.9877V30.748C70.9877 30.316 70.9997 30.16 71.0477 29.872H69.5957C69.6437 30.172 69.6557 30.34 69.6557 30.748V30.928H68.7437C68.1677 30.928 67.8917 30.916 67.5917 30.868V32.152C67.9157 32.116 68.1917 32.104 68.7197 32.104H69.2837L68.2277 32.368C68.4677 32.8 68.5877 33.112 68.7557 33.784H68.4677C67.9037 33.784 67.6517 33.772 67.3517 33.724V35.008C67.6637 34.972 67.9397 34.96 68.4437 34.96H69.6917ZM71.1317 32.104C70.9517 32.776 70.7957 33.16 70.4597 33.784H68.8157L69.8837 33.496C69.7277 32.872 69.6317 32.62 69.3677 32.104H71.1317ZM83.0717 35.8C83.4317 35.8 83.6837 35.812 84.0077 35.86V34.528C83.6837 34.576 83.3717 34.588 82.9637 34.588H82.4237C82.4597 33.964 82.4717 33.712 82.4837 33.028H83.0237C83.3837 33.028 83.6357 33.04 83.9597 33.088V31.828C83.6237 31.876 83.3357 31.888 82.9157 31.888H82.4957C82.5077 30.472 82.5077 30.472 82.5677 30.076H81.1757C81.2477 30.52 81.2477 30.712 81.2477 31.888H80.6837C80.2517 31.888 79.9517 31.864 79.6157 31.816V33.088C79.9757 33.052 80.2757 33.028 80.6237 33.028H81.2357C81.2237 33.7 81.2117 34.06 81.1877 34.588H80.5037C80.0837 34.588 79.7597 34.564 79.4357 34.516V35.872C79.7597 35.824 80.1437 35.8 80.5637 35.8H81.1037C80.9957 36.628 80.8397 37.204 80.5997 37.768C80.2757 38.524 79.9157 38.98 79.1837 39.604C79.6277 39.976 79.7837 40.144 80.1317 40.648C80.7797 40.048 81.0797 39.64 81.4757 38.884C81.7637 38.32 81.9317 37.864 82.0877 37.252C82.4957 38.02 82.8197 38.44 83.5277 39.148C83.8397 38.56 83.8397 38.56 84.0917 38.224C84.1277 38.176 84.1757 38.104 84.2477 38.008C83.4197 37.324 82.9517 36.772 82.3997 35.8H83.0717ZM87.1157 37.336V40.012C87.1157 40.648 87.5117 40.876 88.6157 40.876C90.1997 40.876 90.3917 40.648 90.5117 38.548C90.0557 38.416 89.7797 38.272 89.3957 38.008C89.3357 39.58 89.2997 39.676 88.7957 39.676C88.4117 39.676 88.3157 39.628 88.3157 39.412V37.336H88.5917C88.6157 37.336 88.8077 37.348 89.0957 37.36C89.1677 37.36 89.2517 37.36 89.3357 37.36C89.5037 37.36 89.5397 37.36 89.6837 37.384C89.6477 37.012 89.6357 36.724 89.6357 36.232V31.576C89.6357 31.036 89.6477 30.7 89.6837 30.364C89.3717 30.4 89.1677 30.412 88.5197 30.412H85.4957C84.9557 30.412 84.6197 30.4 84.3437 30.364C84.3797 30.64 84.3917 31.048 84.3917 31.552V36.184C84.3917 36.7 84.3797 37.072 84.3557 37.372C84.6437 37.348 84.9677 37.336 85.3037 37.336C85.1357 38.8 84.4397 39.532 82.7357 40.072C83.1197 40.396 83.2877 40.576 83.6717 41.116C84.8117 40.552 85.3277 40.156 85.7957 39.52C86.2157 38.92 86.3837 38.428 86.5037 37.336H87.1157ZM85.6157 31.576H88.4117V32.38H85.6157V31.576ZM85.6157 33.46H88.4117V34.264H85.6157V33.46ZM85.6157 35.344H88.4117V36.184H85.6157V35.344ZM100.664 31.132C100.292 31.228 100.052 31.252 99.3797 31.252H93.8717C93.0557 31.252 92.8037 31.24 92.3357 31.168V32.728C92.7677 32.668 93.0437 32.656 93.8477 32.656H99.5597C98.9717 34.984 97.7957 36.676 95.9237 37.888C95.0357 38.464 94.3517 38.776 93.2957 39.112C93.8597 39.664 94.0157 39.892 94.3517 40.54C96.3557 39.676 97.6397 38.8 98.8157 37.48C99.9677 36.184 100.676 34.744 101.276 32.452C101.336 32.2 101.372 32.116 101.48 31.912L100.664 31.132ZM108.656 35.128C108.284 35.74 107.636 36.472 106.904 37.096C106.136 37.756 105.284 38.284 104.324 38.716C104.78 39.148 104.924 39.328 105.212 39.844C106.928 38.92 108.284 37.816 109.1 36.676C109.268 36.436 109.34 36.328 109.508 36.004C109.508 36.148 109.496 36.616 109.496 36.748L109.508 39.748C109.508 40.18 109.496 40.444 109.46 40.732H110.924C110.876 40.444 110.852 40.204 110.852 39.712L110.792 35.14H111.824C112.352 35.14 112.592 35.152 112.916 35.188V33.892C112.604 33.952 112.364 33.964 111.836 33.964H110.792L110.78 33.172C110.78 32.632 110.78 32.548 110.816 32.272H109.412C109.448 32.524 109.472 32.788 109.472 33.22V33.952H105.98C105.44 33.952 105.224 33.94 104.9 33.88V35.176C105.236 35.14 105.488 35.128 105.98 35.128H108.656ZM117.28 30.616C117.328 30.94 117.328 31.048 117.328 31.708C117.328 35.068 117.052 36.616 116.188 37.996C115.828 38.572 115.54 38.896 114.952 39.376C115.516 39.76 115.696 39.94 116.164 40.54C116.956 39.76 117.412 39.148 117.82 38.32C118.444 37.084 118.708 35.728 118.792 33.388C118.864 31.036 118.864 31.036 118.912 30.7L117.28 30.616ZM120.46 30.532C120.496 30.76 120.508 31.024 120.508 31.324V31.684L120.448 38.452C120.436 39.112 120.424 39.376 120.34 39.724L121.108 40.54C121.264 40.468 121.36 40.42 121.624 40.324C122.872 39.832 123.496 39.472 124.18 38.884C124.972 38.176 125.596 37.276 126.088 36.088C125.536 35.656 125.38 35.5 124.96 34.96C124.684 35.848 124.336 36.508 123.784 37.156C123.268 37.768 122.788 38.128 121.948 38.524L122.008 31.696C122.02 31.108 122.032 30.904 122.092 30.556L120.46 30.532ZM136.372 31.888L136.816 31.744C136.492 30.988 136.204 30.508 135.712 29.884L134.788 30.16C135.16 30.64 135.376 30.976 135.652 31.516C135.52 31.54 135.244 31.552 134.992 31.564L132.496 31.588H132.208C132.028 31.6 131.992 31.6 131.872 31.612C131.932 31.504 131.956 31.456 132.16 31.036C132.376 30.592 132.388 30.58 132.52 30.352L130.96 30.004C130.864 30.448 130.66 30.916 130.252 31.672C129.556 32.98 128.476 34.204 127.252 35.104C127.852 35.452 128.08 35.632 128.452 36.064C129.544 35.164 130.6 33.964 131.26 32.836L134.992 32.8C134.656 33.832 134.152 34.9 133.648 35.632C132.808 34.972 132.184 34.552 131.236 34.024L130.324 35.092C131.08 35.488 132.052 36.16 132.784 36.796C131.824 37.936 130.276 38.968 128.476 39.664C128.896 40.024 129.112 40.3 129.472 40.912C133.096 39.232 134.956 37.168 136.384 33.244C136.564 32.74 136.612 32.632 136.756 32.44L136.372 31.888ZM138.436 31.288C138.112 30.556 137.824 30.076 137.332 29.488L136.444 29.776C136.876 30.34 137.224 30.952 137.512 31.612L138.436 31.288ZM139.804 32.74C139.888 32.728 139.96 32.728 139.996 32.728C140.104 32.728 140.104 32.728 140.332 32.74C140.596 32.74 141.652 32.764 141.844 32.764C141.844 32.764 142 32.752 142.048 32.752C142 32.812 142 32.812 141.952 32.908C141.712 33.364 140.98 34.408 140.512 34.96C140.092 35.452 139.744 35.788 139.432 36.028L140.524 37.108C140.788 36.736 141.064 36.436 141.568 36.016C142.492 35.2 143.332 34.78 144.028 34.78C144.46 34.78 144.7 34.984 144.76 35.428C143.404 35.992 142.72 36.448 142.18 37.12C141.796 37.576 141.652 37.96 141.652 38.452C141.652 39.112 141.976 39.688 142.528 40C143.14 40.36 143.932 40.504 145.204 40.504C146.26 40.504 147.412 40.42 148.276 40.288C148.564 40.252 148.624 40.24 148.828 40.24L148.708 38.692C147.856 39.016 146.62 39.196 145.18 39.196C143.728 39.196 143.152 38.944 143.152 38.32C143.152 37.972 143.356 37.648 143.776 37.336C144.028 37.156 144.34 36.988 144.928 36.712C144.928 36.832 144.928 36.832 144.928 37C144.928 37.564 144.904 38.176 144.856 38.392L146.248 38.356C146.224 38.152 146.212 37.984 146.212 37.72C146.212 37.636 146.212 37.528 146.224 37.324C146.224 37.168 146.224 36.964 146.224 36.844C146.224 36.676 146.224 36.676 146.212 36.364V36.232C147.244 35.872 147.844 35.668 148.012 35.62C148.648 35.44 149.008 35.344 149.344 35.296L148.78 33.916C148.588 34.036 148.54 34.048 147.892 34.276C147.592 34.372 146.98 34.588 146.056 34.924C145.864 34.096 145.276 33.652 144.34 33.652C143.728 33.652 143.092 33.856 142.648 34.192C142.492 34.312 142.492 34.312 142.408 34.372L142.396 34.348C142.816 33.916 143.152 33.436 143.5 32.752C144.712 32.716 146.236 32.62 147.112 32.512C147.724 32.44 147.724 32.44 148.06 32.416L147.976 31.048C147.316 31.24 146.224 31.372 144.832 31.456C144.172 31.492 144.172 31.492 144.076 31.504C144.1 31.456 144.124 31.42 144.184 31.288C144.592 30.328 144.592 30.328 144.664 30.208L143.092 30.04C143.044 30.448 142.936 30.808 142.612 31.528C141.088 31.528 140.32 31.48 139.828 31.372L139.804 32.74ZM157.06 32.8V39.568C157.06 40.3 157.048 40.66 156.988 41.008H158.44C158.38 40.672 158.356 40.288 158.356 39.568V38.188H160.324C160.78 38.188 161.128 38.212 161.524 38.26V36.952C161.164 37.012 160.84 37.024 160.324 37.024H158.356V35.488H160.3C160.756 35.488 161.116 35.512 161.5 35.56V34.264C161.14 34.312 160.816 34.336 160.312 34.336H158.356V32.8H160.636C161.164 32.8 161.584 32.824 161.932 32.86V31.564C161.596 31.612 161.224 31.636 160.636 31.636H157.372C157.48 31.372 157.492 31.336 157.672 30.832C157.756 30.592 157.792 30.484 157.912 30.196L156.556 29.8C156.496 30.22 156.316 30.82 156.016 31.54C155.5 32.752 154.912 33.664 154 34.6C154.408 35.02 154.576 35.236 154.864 35.728C155.68 34.804 156.304 33.868 156.832 32.8H157.06ZM153.544 29.764C153.472 30.232 153.304 30.724 153.04 31.348C152.428 32.728 151.648 33.856 150.76 34.66C151.06 35.164 151.228 35.512 151.396 36.064C151.828 35.62 152.128 35.248 152.548 34.684C152.512 35.692 152.512 35.752 152.512 36.052V39.472C152.512 40.096 152.488 40.504 152.428 40.96H153.868C153.808 40.516 153.784 40.036 153.784 39.472V32.824C154.408 31.42 154.408 31.42 154.6 30.904C154.708 30.616 154.744 30.532 154.876 30.232L153.544 29.764ZM167.212 35.02C167.404 34.912 167.404 34.912 167.704 34.708C167.944 34.552 168.808 33.904 169.024 33.724C169.432 33.376 170.308 32.596 170.908 32.044C171.244 31.732 171.328 31.66 171.532 31.552L170.788 30.496C170.596 30.592 170.464 30.616 170.044 30.652C168.88 30.736 167.416 30.796 166.396 30.796C165.736 30.796 165.388 30.772 164.98 30.724L165.04 32.164C165.268 32.128 165.352 32.116 165.616 32.104C167.788 32.008 168.556 31.96 169.012 31.9L169.024 31.912C168.952 31.984 168.832 32.104 168.808 32.128C167.896 33.052 166.336 34.396 165.22 35.248C164.428 35.848 163.948 36.172 163.528 36.376L164.344 37.672C165.784 36.364 167.536 35.656 169.288 35.656C170.74 35.656 171.664 36.268 171.664 37.204C171.664 38.056 171.232 38.572 170.236 38.944C170.056 38.428 169.924 38.164 169.684 37.864C169.18 37.228 168.448 36.88 167.608 36.88C166.408 36.88 165.544 37.6 165.544 38.596C165.544 39.136 165.808 39.64 166.264 39.976C166.744 40.336 167.584 40.528 168.592 40.528C169.696 40.528 170.716 40.288 171.496 39.844C172.564 39.244 173.128 38.332 173.128 37.192C173.128 35.548 171.808 34.492 169.756 34.492C168.856 34.492 168.328 34.612 167.236 35.044L167.212 35.02ZM168.94 39.292C168.604 39.34 168.544 39.34 168.316 39.34C167.428 39.34 166.888 39.064 166.888 38.584C166.888 38.248 167.164 38.032 167.596 38.032C168.268 38.032 168.724 38.464 168.94 39.292Z" fill="#212121"/>
<path d="M40.4756 247.87C40.1956 247.49 39.8306 247.215 39.3806 247.045C38.9306 246.865 38.4906 246.775 38.0606 246.775C37.5106 246.775 37.0106 246.875 36.5606 247.075C36.1106 247.275 35.7206 247.55 35.3906 247.9C35.0706 248.25 34.8206 248.66 34.6406 249.13C34.4706 249.6 34.3856 250.11 34.3856 250.66C34.3856 251.24 34.4706 251.77 34.6406 252.25C34.8106 252.73 35.0506 253.145 35.3606 253.495C35.6806 253.835 36.0606 254.1 36.5006 254.29C36.9406 254.48 37.4356 254.575 37.9856 254.575C38.5556 254.575 39.0606 254.465 39.5006 254.245C39.9406 254.015 40.2956 253.715 40.5656 253.345L42.0806 254.41C41.6106 255 41.0356 255.46 40.3556 255.79C39.6756 256.11 38.8806 256.27 37.9706 256.27C37.1406 256.27 36.3756 256.135 35.6756 255.865C34.9856 255.585 34.3906 255.2 33.8906 254.71C33.3906 254.21 33.0006 253.62 32.7206 252.94C32.4406 252.25 32.3006 251.49 32.3006 250.66C32.3006 249.81 32.4456 249.045 32.7356 248.365C33.0356 247.675 33.4406 247.09 33.9506 246.61C34.4706 246.13 35.0806 245.76 35.7806 245.5C36.4806 245.24 37.2406 245.11 38.0606 245.11C38.4006 245.11 38.7556 245.145 39.1256 245.215C39.4956 245.275 39.8506 245.375 40.1906 245.515C40.5306 245.645 40.8506 245.81 41.1506 246.01C41.4506 246.21 41.7056 246.45 41.9156 246.73L40.4756 247.87ZM51.715 252.1C51.715 252.74 51.605 253.32 51.385 253.84C51.165 254.35 50.865 254.785 50.485 255.145C50.105 255.505 49.655 255.785 49.135 255.985C48.615 256.175 48.05 256.27 47.44 256.27C46.83 256.27 46.265 256.175 45.745 255.985C45.225 255.785 44.77 255.505 44.38 255.145C44 254.785 43.7 254.35 43.48 253.84C43.27 253.32 43.165 252.74 43.165 252.1V245.38H45.055V252.025C45.055 252.335 45.095 252.645 45.175 252.955C45.255 253.255 45.385 253.525 45.565 253.765C45.755 254.005 46 254.2 46.3 254.35C46.61 254.5 46.99 254.575 47.44 254.575C47.89 254.575 48.265 254.5 48.565 254.35C48.875 254.2 49.12 254.005 49.3 253.765C49.49 253.525 49.625 253.255 49.705 252.955C49.785 252.645 49.825 252.335 49.825 252.025V245.38H51.715V252.1ZM53.963 245.38H55.853V256H53.963V245.38ZM64.9764 253.075H61.3764V251.545H64.9764V253.075ZM77.1671 249.556V247.972C78.7391 247.696 79.4951 247.516 80.4551 247.156C80.6711 247.084 80.7191 247.06 80.8511 247.024L79.8671 245.86C79.2551 246.316 77.1791 246.844 75.8231 246.88C75.8831 247.36 75.8951 247.744 75.8951 248.752C75.8951 253.3 75.5951 254.872 74.4551 256.264C74.9591 256.528 75.1631 256.66 75.6431 257.056C76.0991 256.42 76.4711 255.58 76.7111 254.644C76.9991 253.552 77.1431 252.292 77.1551 250.768H78.4391V255.604C78.4391 256.3 78.4271 256.648 78.3671 257.02H79.7711C79.7111 256.66 79.6991 256.324 79.6991 255.604V250.768H79.9991C80.4671 250.768 80.6591 250.78 80.9591 250.816V249.484C80.6951 249.532 80.3951 249.556 79.8671 249.556H77.1671ZM72.1751 250.96C72.1751 250.984 72.1751 250.984 72.1751 251.2V251.812H70.9631C70.3991 251.812 70.1591 251.8 69.8471 251.752V253.024C70.1711 252.976 70.4231 252.964 70.9391 252.964H71.7191C71.2031 253.804 70.5311 254.464 69.6191 255.028C69.8951 255.424 70.0631 255.76 70.2311 256.252C71.1671 255.58 71.7191 254.956 72.2111 254.032C72.1871 254.308 72.1751 254.62 72.1751 254.848V256.048C72.1751 256.432 72.1511 256.72 72.1151 256.996H73.4951C73.4471 256.708 73.4231 256.42 73.4231 256V254.8C73.4231 254.74 73.4111 254.368 73.4111 254.332C73.3991 254.02 73.3991 254.02 73.3871 253.864C73.7711 254.416 73.9631 254.62 74.5631 255.16C74.7431 254.716 74.8751 254.464 75.1391 254.02C74.5631 253.636 74.2631 253.384 73.9031 252.964H74.3471C74.8511 252.964 75.1271 252.976 75.4391 253.012V251.752C75.1271 251.8 74.8631 251.812 74.3471 251.812H73.4231V250.96H74.3951C74.9111 250.96 75.1631 250.972 75.4991 251.008V249.724C75.1871 249.772 74.9351 249.784 74.3951 249.784H74.1551C74.2871 249.544 74.3351 249.46 74.4191 249.256C74.5511 248.932 74.5511 248.932 74.6231 248.812C74.7311 248.548 74.7311 248.548 74.8031 248.392L73.7831 248.104H74.2751C74.7911 248.104 75.0791 248.116 75.4031 248.152V246.868C75.0911 246.916 74.8511 246.928 74.2871 246.928H73.4711V246.748C73.4711 246.316 73.4831 246.16 73.5311 245.872H72.0791C72.1271 246.172 72.1391 246.34 72.1391 246.748V246.928H71.2271C70.6511 246.928 70.3751 246.916 70.0751 246.868V248.152C70.3991 248.116 70.6751 248.104 71.2031 248.104H71.7671L70.7111 248.368C70.9511 248.8 71.0711 249.112 71.2391 249.784H70.9511C70.3871 249.784 70.1351 249.772 69.8351 249.724V251.008C70.1471 250.972 70.4231 250.96 70.9271 250.96H72.1751ZM73.6151 248.104C73.4351 248.776 73.2791 249.16 72.9431 249.784H71.2991L72.3671 249.496C72.2111 248.872 72.1151 248.62 71.8511 248.104H73.6151ZM85.5551 251.8C85.9151 251.8 86.1671 251.812 86.4911 251.86V250.528C86.1671 250.576 85.8551 250.588 85.4471 250.588H84.9071C84.9431 249.964 84.9551 249.712 84.9671 249.028H85.5071C85.8671 249.028 86.1191 249.04 86.4431 249.088V247.828C86.1071 247.876 85.8191 247.888 85.3991 247.888H84.9791C84.9911 246.472 84.9911 246.472 85.0511 246.076H83.6591C83.7311 246.52 83.7311 246.712 83.7311 247.888H83.1671C82.7351 247.888 82.4351 247.864 82.0991 247.816V249.088C82.4591 249.052 82.7591 249.028 83.1071 249.028H83.7191C83.7071 249.7 83.6951 250.06 83.6711 250.588H82.9871C82.5671 250.588 82.2431 250.564 81.9191 250.516V251.872C82.2431 251.824 82.6271 251.8 83.0471 251.8H83.5871C83.4791 252.628 83.3231 253.204 83.0831 253.768C82.7591 254.524 82.3991 254.98 81.6671 255.604C82.1111 255.976 82.2671 256.144 82.6151 256.648C83.2631 256.048 83.5631 255.64 83.9591 254.884C84.2471 254.32 84.4151 253.864 84.5711 253.252C84.9791 254.02 85.3031 254.44 86.0111 255.148C86.3231 254.56 86.3231 254.56 86.5751 254.224C86.6111 254.176 86.6591 254.104 86.7311 254.008C85.9031 253.324 85.4351 252.772 84.8831 251.8H85.5551ZM89.5991 253.336V256.012C89.5991 256.648 89.9951 256.876 91.0991 256.876C92.6831 256.876 92.8751 256.648 92.9951 254.548C92.5391 254.416 92.2631 254.272 91.8791 254.008C91.8191 255.58 91.7831 255.676 91.2791 255.676C90.8951 255.676 90.7991 255.628 90.7991 255.412V253.336H91.0751C91.0991 253.336 91.2911 253.348 91.5791 253.36C91.6511 253.36 91.7351 253.36 91.8191 253.36C91.9871 253.36 92.0231 253.36 92.1671 253.384C92.1311 253.012 92.1191 252.724 92.1191 252.232V247.576C92.1191 247.036 92.1311 246.7 92.1671 246.364C91.8551 246.4 91.6511 246.412 91.0031 246.412H87.9791C87.4391 246.412 87.1031 246.4 86.8271 246.364C86.8631 246.64 86.8751 247.048 86.8751 247.552V252.184C86.8751 252.7 86.8631 253.072 86.8391 253.372C87.1271 253.348 87.4511 253.336 87.7871 253.336C87.6191 254.8 86.9231 255.532 85.2191 256.072C85.6031 256.396 85.7711 256.576 86.1551 257.116C87.2951 256.552 87.8111 256.156 88.2791 255.52C88.6991 254.92 88.8671 254.428 88.9871 253.336H89.5991ZM88.0991 247.576H90.8951V248.38H88.0991V247.576ZM88.0991 249.46H90.8951V250.264H88.0991V249.46ZM88.0991 251.344H90.8951V252.184H88.0991V251.344ZM103.147 247.132C102.775 247.228 102.535 247.252 101.863 247.252H96.3551C95.5391 247.252 95.2871 247.24 94.8191 247.168V248.728C95.2511 248.668 95.5271 248.656 96.3311 248.656H102.043C101.455 250.984 100.279 252.676 98.4071 253.888C97.5191 254.464 96.8351 254.776 95.7791 255.112C96.3431 255.664 96.4991 255.892 96.8351 256.54C98.8391 255.676 100.123 254.8 101.299 253.48C102.451 252.184 103.159 250.744 103.759 248.452C103.819 248.2 103.855 248.116 103.963 247.912L103.147 247.132ZM111.139 251.128C110.767 251.74 110.119 252.472 109.387 253.096C108.619 253.756 107.767 254.284 106.807 254.716C107.263 255.148 107.407 255.328 107.695 255.844C109.411 254.92 110.767 253.816 111.583 252.676C111.751 252.436 111.823 252.328 111.991 252.004C111.991 252.148 111.979 252.616 111.979 252.748L111.991 255.748C111.991 256.18 111.979 256.444 111.943 256.732H113.407C113.359 256.444 113.335 256.204 113.335 255.712L113.275 251.14H114.307C114.835 251.14 115.075 251.152 115.399 251.188V249.892C115.087 249.952 114.847 249.964 114.319 249.964H113.275L113.263 249.172C113.263 248.632 113.263 248.548 113.299 248.272H111.895C111.931 248.524 111.955 248.788 111.955 249.22V249.952H108.463C107.923 249.952 107.707 249.94 107.383 249.88V251.176C107.719 251.14 107.971 251.128 108.463 251.128H111.139ZM119.764 246.616C119.812 246.94 119.812 247.048 119.812 247.708C119.812 251.068 119.536 252.616 118.672 253.996C118.312 254.572 118.024 254.896 117.436 255.376C118 255.76 118.18 255.94 118.648 256.54C119.44 255.76 119.896 255.148 120.304 254.32C120.928 253.084 121.192 251.728 121.276 249.388C121.348 247.036 121.348 247.036 121.396 246.7L119.764 246.616ZM122.944 246.532C122.98 246.76 122.992 247.024 122.992 247.324V247.684L122.932 254.452C122.92 255.112 122.908 255.376 122.824 255.724L123.592 256.54C123.748 256.468 123.844 256.42 124.108 256.324C125.356 255.832 125.98 255.472 126.664 254.884C127.456 254.176 128.08 253.276 128.572 252.088C128.02 251.656 127.864 251.5 127.444 250.96C127.168 251.848 126.82 252.508 126.268 253.156C125.752 253.768 125.272 254.128 124.432 254.524L124.492 247.696C124.504 247.108 124.516 246.904 124.576 246.556L122.944 246.532ZM138.856 247.888L139.3 247.744C138.976 246.988 138.688 246.508 138.196 245.884L137.272 246.16C137.644 246.64 137.86 246.976 138.136 247.516C138.004 247.54 137.728 247.552 137.476 247.564L134.98 247.588H134.692C134.512 247.6 134.476 247.6 134.356 247.612C134.416 247.504 134.44 247.456 134.644 247.036C134.86 246.592 134.872 246.58 135.004 246.352L133.444 246.004C133.348 246.448 133.144 246.916 132.736 247.672C132.04 248.98 130.96 250.204 129.736 251.104C130.336 251.452 130.564 251.632 130.936 252.064C132.028 251.164 133.084 249.964 133.744 248.836L137.476 248.8C137.14 249.832 136.636 250.9 136.132 251.632C135.292 250.972 134.668 250.552 133.72 250.024L132.808 251.092C133.564 251.488 134.536 252.16 135.268 252.796C134.308 253.936 132.76 254.968 130.96 255.664C131.38 256.024 131.596 256.3 131.956 256.912C135.58 255.232 137.44 253.168 138.868 249.244C139.048 248.74 139.096 248.632 139.24 248.44L138.856 247.888ZM140.92 247.288C140.596 246.556 140.308 246.076 139.816 245.488L138.928 245.776C139.36 246.34 139.708 246.952 139.996 247.612L140.92 247.288ZM149.524 257.26C148.828 256.24 148.54 255.7 148.276 254.884C148.024 254.092 147.892 253.216 147.892 252.28C147.892 251.332 148.024 250.456 148.3 249.628C148.564 248.788 148.852 248.248 149.548 247.24L148.276 246.424C147.448 247.612 147.1 248.272 146.776 249.268C146.464 250.192 146.308 251.212 146.308 252.256C146.308 253.516 146.524 254.668 147.004 255.832C147.328 256.648 147.604 257.14 148.276 258.112L149.524 257.26ZM156.463 256.144C156.535 255.784 156.751 255.112 156.991 254.548L158.791 250.324C158.959 249.892 159.187 249.22 159.343 248.572C159.331 248.752 159.295 249.364 159.247 250.408V254.392C159.247 255.22 159.223 255.652 159.151 256.144H160.831C160.759 255.7 160.735 255.268 160.735 254.392V248.368C160.735 247.564 160.759 247.168 160.831 246.592H158.623C158.539 247.048 158.431 247.432 158.191 248.02L155.767 253.972L153.331 248.02C153.127 247.516 152.971 247.012 152.887 246.592H150.691C150.763 247.084 150.787 247.588 150.787 248.368V254.392C150.787 255.196 150.763 255.664 150.691 256.144H152.371C152.299 255.676 152.275 255.22 152.275 254.392V250.456C152.275 250.192 152.227 249.208 152.179 248.572C152.455 249.544 152.563 249.868 152.791 250.408L154.519 254.524C154.795 255.196 154.987 255.76 155.047 256.144H156.463ZM167.279 249.256C167.339 249.772 167.375 250.228 167.375 250.816V253.24C166.835 254.428 166.151 255.016 165.287 255.016C165.059 255.016 164.807 254.944 164.627 254.848C164.255 254.62 164.075 254.176 164.075 253.48V250.816C164.075 250.204 164.087 249.796 164.159 249.256H162.419C162.479 249.7 162.515 250.156 162.515 250.816V253.852C162.515 254.836 162.827 255.508 163.487 255.928C163.883 256.168 164.315 256.276 164.927 256.276C166.067 256.276 166.727 255.928 167.387 254.992C167.375 255.292 167.375 255.328 167.375 255.508V256.144H169.007C168.935 255.652 168.911 255.244 168.911 254.584V250.816C168.911 250.144 168.923 249.772 169.007 249.256H167.279ZM170.205 254.188C170.349 254.728 170.457 254.968 170.673 255.256C171.189 255.952 172.113 256.324 173.349 256.324C174.441 256.324 175.281 256.06 175.833 255.544C176.193 255.208 176.421 254.68 176.421 254.188C176.421 253.528 176.193 253.036 175.725 252.7C175.329 252.4 174.837 252.232 173.613 251.968C172.929 251.812 172.677 251.74 172.413 251.608C172.173 251.476 172.041 251.272 172.041 251.044C172.041 250.54 172.545 250.204 173.289 250.204C174.069 250.204 174.477 250.492 174.609 251.152L176.193 250.948C176.025 250.36 175.857 250.06 175.545 249.76C175.053 249.304 174.273 249.064 173.289 249.064C172.197 249.064 171.381 249.376 170.889 250C170.649 250.3 170.517 250.696 170.517 251.116C170.517 251.812 170.889 252.388 171.573 252.712C171.981 252.904 172.353 253.024 173.301 253.228C174.261 253.444 174.333 253.456 174.561 253.612C174.753 253.744 174.873 253.972 174.873 254.212C174.873 254.776 174.321 255.124 173.433 255.124C172.497 255.124 172.053 254.8 171.849 253.984L170.205 254.188ZM177.618 246.592V248.116H179.382V246.592H177.618ZM177.618 249.256C177.69 249.748 177.714 250.156 177.714 250.816V254.584C177.714 255.184 177.69 255.604 177.618 256.144H179.37C179.31 255.64 179.286 255.232 179.286 254.572V250.828C179.286 250.096 179.31 249.7 179.37 249.256H177.618ZM187.128 251.212C186.96 250.768 186.864 250.576 186.708 250.336C186.132 249.496 185.196 249.04 184.02 249.04C183.036 249.04 182.196 249.352 181.608 249.952C180.948 250.624 180.588 251.596 180.588 252.724C180.588 254.944 181.956 256.372 184.068 256.372C185.208 256.372 186.132 255.952 186.708 255.16C186.924 254.872 187.044 254.62 187.212 254.14L185.724 253.84C185.652 254.14 185.592 254.272 185.484 254.44C185.184 254.872 184.704 255.112 184.104 255.112C182.892 255.112 182.148 254.188 182.148 252.688C182.148 251.2 182.88 250.276 184.056 250.276C184.584 250.276 185.004 250.468 185.292 250.828C185.448 251.02 185.532 251.188 185.664 251.56L187.128 251.212ZM189.192 258.112C189.864 257.14 190.14 256.648 190.476 255.832C190.944 254.668 191.16 253.528 191.16 252.256C191.16 251.2 191.004 250.204 190.704 249.268C190.368 248.272 190.02 247.612 189.192 246.424L187.92 247.24C188.616 248.248 188.904 248.788 189.168 249.628C189.444 250.456 189.576 251.332 189.576 252.28C189.576 253.228 189.444 254.08 189.192 254.884C188.928 255.7 188.64 256.24 187.944 257.26L189.192 258.112ZM197.823 248.74C197.907 248.728 197.979 248.728 198.015 248.728C198.123 248.728 198.123 248.728 198.351 248.74C198.615 248.74 199.671 248.764 199.863 248.764C199.863 248.764 200.019 248.752 200.067 248.752C200.019 248.812 200.019 248.812 199.971 248.908C199.731 249.364 198.999 250.408 198.531 250.96C198.111 251.452 197.763 251.788 197.451 252.028L198.543 253.108C198.807 252.736 199.083 252.436 199.587 252.016C200.511 251.2 201.351 250.78 202.047 250.78C202.479 250.78 202.719 250.984 202.779 251.428C201.423 251.992 200.739 252.448 200.199 253.12C199.815 253.576 199.671 253.96 199.671 254.452C199.671 255.112 199.995 255.688 200.547 256C201.159 256.36 201.951 256.504 203.223 256.504C204.279 256.504 205.431 256.42 206.295 256.288C206.583 256.252 206.643 256.24 206.847 256.24L206.727 254.692C205.875 255.016 204.639 255.196 203.199 255.196C201.747 255.196 201.171 254.944 201.171 254.32C201.171 253.972 201.375 253.648 201.795 253.336C202.047 253.156 202.359 252.988 202.947 252.712C202.947 252.832 202.947 252.832 202.947 253C202.947 253.564 202.923 254.176 202.875 254.392L204.267 254.356C204.243 254.152 204.231 253.984 204.231 253.72C204.231 253.636 204.231 253.528 204.243 253.324C204.243 253.168 204.243 252.964 204.243 252.844C204.243 252.676 204.243 252.676 204.231 252.364V252.232C205.263 251.872 205.863 251.668 206.031 251.62C206.667 251.44 207.027 251.344 207.363 251.296L206.799 249.916C206.607 250.036 206.559 250.048 205.911 250.276C205.611 250.372 204.999 250.588 204.075 250.924C203.883 250.096 203.295 249.652 202.359 249.652C201.747 249.652 201.111 249.856 200.667 250.192C200.511 250.312 200.511 250.312 200.427 250.372L200.415 250.348C200.835 249.916 201.171 249.436 201.519 248.752C202.731 248.716 204.255 248.62 205.131 248.512C205.743 248.44 205.743 248.44 206.079 248.416L205.995 247.048C205.335 247.24 204.243 247.372 202.851 247.456C202.191 247.492 202.191 247.492 202.095 247.504C202.119 247.456 202.143 247.42 202.203 247.288C202.611 246.328 202.611 246.328 202.683 246.208L201.111 246.04C201.063 246.448 200.955 246.808 200.631 247.528C199.107 247.528 198.339 247.48 197.847 247.372L197.823 248.74ZM215.079 248.8V255.568C215.079 256.3 215.067 256.66 215.007 257.008H216.459C216.399 256.672 216.375 256.288 216.375 255.568V254.188H218.343C218.799 254.188 219.147 254.212 219.543 254.26V252.952C219.183 253.012 218.859 253.024 218.343 253.024H216.375V251.488H218.319C218.775 251.488 219.135 251.512 219.519 251.56V250.264C219.159 250.312 218.835 250.336 218.331 250.336H216.375V248.8H218.655C219.183 248.8 219.603 248.824 219.951 248.86V247.564C219.615 247.612 219.243 247.636 218.655 247.636H215.391C215.499 247.372 215.511 247.336 215.691 246.832C215.775 246.592 215.811 246.484 215.931 246.196L214.575 245.8C214.515 246.22 214.335 246.82 214.035 247.54C213.519 248.752 212.931 249.664 212.019 250.6C212.427 251.02 212.595 251.236 212.883 251.728C213.699 250.804 214.323 249.868 214.851 248.8H215.079ZM211.563 245.764C211.491 246.232 211.323 246.724 211.059 247.348C210.447 248.728 209.667 249.856 208.779 250.66C209.079 251.164 209.247 251.512 209.415 252.064C209.847 251.62 210.147 251.248 210.567 250.684C210.531 251.692 210.531 251.752 210.531 252.052V255.472C210.531 256.096 210.507 256.504 210.447 256.96H211.887C211.827 256.516 211.803 256.036 211.803 255.472V248.824C212.427 247.42 212.427 247.42 212.619 246.904C212.727 246.616 212.763 246.532 212.895 246.232L211.563 245.764ZM225.231 251.02C225.423 250.912 225.423 250.912 225.723 250.708C225.963 250.552 226.827 249.904 227.043 249.724C227.451 249.376 228.327 248.596 228.927 248.044C229.263 247.732 229.347 247.66 229.551 247.552L228.807 246.496C228.615 246.592 228.483 246.616 228.063 246.652C226.899 246.736 225.435 246.796 224.415 246.796C223.755 246.796 223.407 246.772 222.999 246.724L223.059 248.164C223.287 248.128 223.371 248.116 223.635 248.104C225.807 248.008 226.575 247.96 227.031 247.9L227.043 247.912C226.971 247.984 226.851 248.104 226.827 248.128C225.915 249.052 224.355 250.396 223.239 251.248C222.447 251.848 221.967 252.172 221.547 252.376L222.363 253.672C223.803 252.364 225.555 251.656 227.307 251.656C228.759 251.656 229.683 252.268 229.683 253.204C229.683 254.056 229.251 254.572 228.255 254.944C228.075 254.428 227.943 254.164 227.703 253.864C227.199 253.228 226.467 252.88 225.627 252.88C224.427 252.88 223.563 253.6 223.563 254.596C223.563 255.136 223.827 255.64 224.283 255.976C224.763 256.336 225.603 256.528 226.611 256.528C227.715 256.528 228.735 256.288 229.515 255.844C230.583 255.244 231.147 254.332 231.147 253.192C231.147 251.548 229.827 250.492 227.775 250.492C226.875 250.492 226.347 250.612 225.255 251.044L225.231 251.02ZM226.959 255.292C226.623 255.34 226.563 255.34 226.335 255.34C225.447 255.34 224.907 255.064 224.907 254.584C224.907 254.248 225.183 254.032 225.615 254.032C226.287 254.032 226.743 254.464 226.959 255.292Z" fill="#212121"/>
</svg>
