<svg width="375" height="222" viewBox="0 0 375 222" fill="none" xmlns="http://www.w3.org/2000/svg">
<rect width="375" height="222" fill="#FAFAFA"/>
<path d="M28.5 53C28.5 51.6193 29.6193 50.5 31 50.5H175C176.381 50.5 177.5 51.6193 177.5 53V197C177.5 198.381 176.381 199.5 175 199.5H31C29.6193 199.5 28.5 198.381 28.5 197V53Z" fill="white" stroke="#D9D9D9"/>
<path d="M39.4507 68.5532L46.3442 65.1064V66.2046L41.6343 68.5469L46.3442 70.9145V72L39.4507 68.5532ZM50.1655 69.1943L49.8735 62.1484H51.4478L51.1494 69.1943H50.1655ZM50.7114 72.2983C50.4618 72.2983 50.2459 72.2073 50.064 72.0254C49.8862 71.8476 49.7974 71.6339 49.7974 71.3843C49.7974 71.1346 49.8862 70.9209 50.064 70.7431C50.2459 70.5654 50.4618 70.4765 50.7114 70.4765C50.9569 70.4765 51.1685 70.5654 51.3462 70.7431C51.5282 70.9166 51.6191 71.1303 51.6191 71.3843C51.6191 71.6382 51.5282 71.854 51.3462 72.0317C51.1642 72.2094 50.9526 72.2983 50.7114 72.2983ZM55.5991 72V62.1484H57.9351C59.0099 62.1484 59.8076 62.3367 60.3281 62.7134C60.8529 63.0858 61.2464 63.6507 61.5088 64.4082C61.7712 65.1657 61.9023 66.0628 61.9023 67.0996C61.9023 68.0814 61.7627 68.9446 61.4834 69.6894C61.2083 70.43 60.8169 71.0013 60.3091 71.4033C59.8013 71.8011 59.0099 72 57.9351 72H55.5991ZM56.8813 70.9145H57.7383C58.6058 70.9145 59.2236 70.7601 59.5918 70.4511C59.9642 70.1422 60.2287 69.7148 60.3853 69.1689C60.5461 68.6188 60.6265 67.8613 60.6265 66.8965C60.6265 65.9528 60.5334 65.227 60.3472 64.7192C60.161 64.2114 59.8944 63.8221 59.5474 63.5512C59.2004 63.2762 58.6312 63.1386 57.8398 63.1386H56.8813V70.9145ZM66.3203 72.2983C65.2031 72.2983 64.3483 71.8286 63.7559 70.8891C63.1676 69.9455 62.8735 68.6738 62.8735 67.0742C62.8735 65.4788 63.1676 64.2114 63.7559 63.2719C64.3483 62.3283 65.2031 61.8564 66.3203 61.8564C67.4417 61.8564 68.2965 62.3283 68.8848 63.2719C69.473 64.2114 69.7671 65.4788 69.7671 67.0742C69.7671 68.6738 69.473 69.9455 68.8848 70.8891C68.2965 71.8286 67.4417 72.2983 66.3203 72.2983ZM66.3203 71.3081C66.9382 71.3081 67.4523 70.959 67.8628 70.2607C68.2775 69.5582 68.4849 68.4961 68.4849 67.0742C68.4849 65.6523 68.2775 64.5923 67.8628 63.894C67.4523 63.1915 66.9382 62.8403 66.3203 62.8403C65.7025 62.8403 65.1862 63.1915 64.7715 63.894C64.361 64.5923 64.1558 65.6523 64.1558 67.0742C64.1558 68.4961 64.361 69.5582 64.7715 70.2607C65.1862 70.959 65.7025 71.3081 66.3203 71.3081ZM77.1367 71.8857C76.4004 72.1608 75.7402 72.2983 75.1562 72.2983C74.3861 72.2983 73.6772 72.0931 73.0298 71.6826C72.3823 71.2679 71.8787 70.6543 71.519 69.8418C71.1593 69.025 70.9795 68.1025 70.9795 67.0742C70.9795 66.0543 71.1572 65.1382 71.5127 64.3257C71.8682 63.5132 72.3696 62.8974 73.0171 62.4785C73.6646 62.0595 74.3776 61.8501 75.1562 61.8501C75.7402 61.8501 76.4004 61.9876 77.1367 62.2627V63.4306C76.4554 63.0371 75.7783 62.8403 75.1055 62.8403C74.5977 62.8403 74.1322 63.0138 73.709 63.3608C73.29 63.7078 72.9515 64.2178 72.6934 64.8906C72.4352 65.5592 72.3062 66.2871 72.3062 67.0742C72.3062 67.874 72.4395 68.6124 72.7061 69.2895C72.9727 69.9666 73.3133 70.4744 73.728 70.813C74.1427 71.1473 74.6019 71.3144 75.1055 71.3144C75.7741 71.3144 76.4512 71.1177 77.1367 70.7241V71.8857ZM81.2944 72V63.2339H78.3428V62.1484H85.5347V63.2339H82.5767V72H81.2944ZM89.1084 72V67.4424L86.1758 62.1484H87.6294L89.8193 66.0586L92.0029 62.1484H93.3169L90.3906 67.4424V72H89.1084ZM96.0527 68.4072V72H94.7705V62.1484H97.2207C98.2279 62.1484 98.9621 62.2627 99.4233 62.4912C99.8846 62.7155 100.238 63.0456 100.483 63.4814C100.729 63.9173 100.852 64.4039 100.852 64.9414C100.852 65.5719 100.687 66.1601 100.356 66.706C100.026 67.2519 99.5651 67.673 98.9727 67.9692C98.3844 68.2612 97.5846 68.4072 96.5732 68.4072H96.0527ZM96.0527 67.4233H96.605C97.3963 67.4233 97.9845 67.3218 98.3696 67.1186C98.7547 66.9113 99.0509 66.615 99.2583 66.23C99.4657 65.8449 99.5693 65.428 99.5693 64.9795C99.5693 64.4124 99.3831 63.9638 99.0107 63.6338C98.6426 63.3037 97.9126 63.1386 96.8208 63.1386H96.0527V67.4233ZM108.069 70.9145V72H102.75V62.1484H107.967V63.1386H104.032V66.4839H107.574V67.4678H104.032V70.9145H108.069ZM118.06 72V61.7549H119.241V66.4585C119.579 65.9126 119.988 65.4852 120.466 65.1762C120.944 64.8673 121.422 64.7129 121.9 64.7129C122.302 64.7129 122.668 64.8165 122.999 65.0239C123.333 65.227 123.566 65.4746 123.697 65.7666C123.803 65.9909 123.875 66.23 123.913 66.4839C123.951 66.7335 123.97 67.2519 123.97 68.039V72H122.789V67.893C122.789 67.2117 122.755 66.7632 122.688 66.5473C122.624 66.3273 122.503 66.1474 122.326 66.0078C122.152 65.8681 121.962 65.7983 121.754 65.7983C121.34 65.7983 120.893 65.9951 120.415 66.3886C119.941 66.7822 119.55 67.2752 119.241 67.8677V72H118.06ZM131.796 71.7143C131.242 71.9471 130.84 72.0846 130.59 72.1269C130.341 72.1735 130.099 72.1968 129.867 72.1968C129.372 72.1968 128.919 72.1015 128.508 71.9111C128.098 71.7207 127.787 71.4393 127.575 71.0669C127.368 70.6945 127.264 70.119 127.264 69.3403V66.4839H125.493V65.5H127.264V62.6435H128.445V65.5H131.6V66.4839H128.445V69.3213C128.445 69.8926 128.513 70.2967 128.648 70.5337C128.783 70.7664 128.963 70.9378 129.188 71.0478C129.416 71.1579 129.685 71.2129 129.994 71.2129C130.565 71.2129 131.166 71.033 131.796 70.6733V71.7143ZM133.142 72V64.9096H134.177V66.5346C134.503 65.8449 134.805 65.3688 135.084 65.1064C135.368 64.8441 135.654 64.7129 135.941 64.7129C136.284 64.7129 136.559 64.8483 136.767 65.1191C136.978 65.3857 137.084 65.7666 137.084 66.2617V66.6426C137.224 66.2109 137.391 65.8618 137.585 65.5952C137.784 65.3244 137.99 65.1107 138.201 64.9541C138.413 64.7933 138.656 64.7129 138.931 64.7129C139.236 64.7129 139.496 64.8419 139.712 65.1001C139.928 65.3582 140.036 65.8724 140.036 66.6426V72H139.001V67.1567C139.001 66.7589 138.988 66.4881 138.963 66.3442C138.938 66.1961 138.887 66.084 138.811 66.0078C138.734 65.9316 138.652 65.8935 138.563 65.8935C138.343 65.8935 138.106 66.0628 137.852 66.4013C137.602 66.7357 137.346 67.2921 137.084 68.0708V72H136.094V67.1631C136.094 66.5368 136.032 66.1686 135.91 66.0586C135.787 65.9485 135.677 65.8935 135.58 65.8935C135.364 65.8935 135.131 66.0818 134.881 66.4585C134.636 66.8351 134.401 67.3175 134.177 67.9057V72H133.142ZM143.387 72V62.7451H141.267V61.7549H144.568V71.0161H146.783V72H143.387ZM155.651 68.5532L148.757 72V70.9018L153.474 68.5595L148.757 66.1919V65.1064L155.651 68.5532ZM39.4507 87.5532L46.3442 84.1064V85.2046L41.6343 87.5469L46.3442 89.9145V91L39.4507 87.5532ZM47.7915 91V80.7549H48.9722V85.4585C49.3107 84.9126 49.7191 84.4852 50.1973 84.1762C50.6755 83.8673 51.1536 83.7129 51.6318 83.7129C52.0339 83.7129 52.3999 83.8165 52.73 84.0239C53.0643 84.227 53.297 84.4746 53.4282 84.7666C53.534 84.9909 53.606 85.23 53.644 85.4839C53.6821 85.7335 53.7012 86.2519 53.7012 87.039V91H52.5205V86.893C52.5205 86.2117 52.4867 85.7632 52.4189 85.5473C52.3555 85.3273 52.2349 85.1474 52.0571 85.0078C51.8836 84.8681 51.6932 84.7983 51.4858 84.7983C51.0711 84.7983 50.6247 84.9951 50.1465 85.3886C49.6725 85.7822 49.2811 86.2752 48.9722 86.8677V91H47.7915ZM61.5278 90.7143C60.9735 90.9471 60.5715 91.0846 60.3218 91.1269C60.0721 91.1735 59.8309 91.1968 59.5981 91.1968C59.103 91.1968 58.6502 91.1015 58.2397 90.9111C57.8293 90.7207 57.5182 90.4393 57.3066 90.0669C57.0993 89.6945 56.9956 89.119 56.9956 88.3403V85.4839H55.2246V84.5H56.9956V81.6435H58.1763V84.5H61.3311V85.4839H58.1763V88.3213C58.1763 88.8926 58.244 89.2967 58.3794 89.5337C58.5148 89.7664 58.6947 89.9378 58.9189 90.0478C59.1475 90.1579 59.4162 90.2129 59.7251 90.2129C60.2964 90.2129 60.8973 90.033 61.5278 89.6733V90.7143ZM62.8735 91V83.9096H63.9082V85.5346C64.234 84.8449 64.5366 84.3688 64.8159 84.1064C65.0994 83.8441 65.3851 83.7129 65.6729 83.7129C66.0156 83.7129 66.2907 83.8483 66.498 84.1191C66.7096 84.3857 66.8154 84.7666 66.8154 85.2617V85.6426C66.9551 85.2109 67.1222 84.8618 67.3169 84.5952C67.5158 84.3244 67.721 84.1107 67.9326 83.9541C68.1442 83.7933 68.3875 83.7129 68.6626 83.7129C68.9673 83.7129 69.2275 83.8419 69.4434 84.1001C69.6592 84.3582 69.7671 84.8724 69.7671 85.6426V91H68.7324V86.1567C68.7324 85.7589 68.7197 85.4881 68.6943 85.3442C68.6689 85.1961 68.6182 85.084 68.542 85.0078C68.4658 84.9316 68.3833 84.8935 68.2944 84.8935C68.0744 84.8935 67.8374 85.0628 67.5835 85.4013C67.3338 85.7357 67.0778 86.2921 66.8154 87.0708V91H65.8252V86.1631C65.8252 85.5368 65.7638 85.1686 65.6411 85.0586C65.5184 84.9485 65.4084 84.8935 65.311 84.8935C65.0952 84.8935 64.8625 85.0818 64.6128 85.4585C64.3674 85.8351 64.1325 86.3175 63.9082 86.9057V91H62.8735ZM73.1187 91V81.7451H70.9985V80.7549H74.2993V90.0161H76.5146V91H73.1187ZM85.3823 87.5532L78.4888 91V89.9018L83.2051 87.5595L78.4888 85.1919V84.1064L85.3823 87.5532ZM55.0659 106.553L61.9595 103.106V104.205L57.2495 106.547L61.9595 108.915V110L55.0659 106.553ZM63.4067 110V99.7549H64.5874V104.458C64.9259 103.913 65.3343 103.485 65.8125 103.176C66.2907 102.867 66.7689 102.713 67.2471 102.713C67.6491 102.713 68.0151 102.817 68.3452 103.024C68.6795 103.227 68.9123 103.475 69.0435 103.767C69.1493 103.991 69.2212 104.23 69.2593 104.484C69.2974 104.734 69.3164 105.252 69.3164 106.039V110H68.1357V105.893C68.1357 105.212 68.1019 104.763 68.0342 104.547C67.9707 104.327 67.8501 104.147 67.6724 104.008C67.4989 103.868 67.3084 103.798 67.1011 103.798C66.6864 103.798 66.2399 103.995 65.7617 104.389C65.2878 104.782 64.8963 105.275 64.5874 105.868V110H63.4067Z" fill="#212121"/>
<path d="M197 53C197 51.3431 198.343 50 200 50H344C345.657 50 347 51.3431 347 53V197C347 198.657 345.657 200 344 200H200C198.343 200 197 198.657 197 197V53Z" fill="#2A2F35"/>
<path d="M208.451 68.5532L215.344 65.1064V66.2046L210.634 68.5469L215.344 70.9146V72L208.451 68.5532ZM219.166 69.1943L218.874 62.1484H220.448L220.149 69.1943H219.166ZM219.711 72.2983C219.462 72.2983 219.246 72.2074 219.064 72.0254C218.886 71.8477 218.797 71.634 218.797 71.3843C218.797 71.1346 218.886 70.9209 219.064 70.7432C219.246 70.5654 219.462 70.4766 219.711 70.4766C219.957 70.4766 220.168 70.5654 220.346 70.7432C220.528 70.9167 220.619 71.1304 220.619 71.3843C220.619 71.6382 220.528 71.854 220.346 72.0317C220.164 72.2095 219.953 72.2983 219.711 72.2983ZM324.651 68.5532L317.757 72V70.9019L322.474 68.5596L317.757 66.1919V65.1064L324.651 68.5532ZM208.451 87.5532L215.344 84.1064V85.2046L210.634 87.5469L215.344 89.9146V91L208.451 87.5532ZM254.382 87.5532L247.489 91V89.9019L252.205 87.5596L247.489 85.1919V84.1064L254.382 87.5532ZM224.066 106.553L230.959 103.106V104.205L226.25 106.547L230.959 108.915V110L224.066 106.553Z" fill="white"/>
<path d="M224.599 72V62.1484H226.935C228.01 62.1484 228.808 62.3368 229.328 62.7134C229.853 63.0858 230.246 63.6507 230.509 64.4082C230.771 65.1657 230.902 66.0628 230.902 67.0996C230.902 68.0814 230.763 68.9447 230.483 69.6895C230.208 70.43 229.817 71.0013 229.309 71.4033C228.801 71.8011 228.01 72 226.935 72H224.599ZM225.881 70.9146H226.738C227.606 70.9146 228.224 70.7601 228.592 70.4512C228.964 70.1423 229.229 69.7148 229.385 69.1689C229.546 68.6188 229.626 67.8613 229.626 66.8965C229.626 65.9528 229.533 65.2271 229.347 64.7192C229.161 64.2114 228.894 63.8221 228.547 63.5513C228.2 63.2762 227.631 63.1387 226.84 63.1387H225.881V70.9146ZM235.32 72.2983C234.203 72.2983 233.348 71.8286 232.756 70.8892C232.168 69.9455 231.874 68.6738 231.874 67.0742C231.874 65.4788 232.168 64.2114 232.756 63.272C233.348 62.3283 234.203 61.8564 235.32 61.8564C236.442 61.8564 237.297 62.3283 237.885 63.272C238.473 64.2114 238.767 65.4788 238.767 67.0742C238.767 68.6738 238.473 69.9455 237.885 70.8892C237.297 71.8286 236.442 72.2983 235.32 72.2983ZM235.32 71.3081C235.938 71.3081 236.452 70.959 236.863 70.2607C237.278 69.5583 237.485 68.4961 237.485 67.0742C237.485 65.6523 237.278 64.5923 236.863 63.894C236.452 63.1916 235.938 62.8403 235.32 62.8403C234.702 62.8403 234.186 63.1916 233.771 63.894C233.361 64.5923 233.156 65.6523 233.156 67.0742C233.156 68.4961 233.361 69.5583 233.771 70.2607C234.186 70.959 234.702 71.3081 235.32 71.3081ZM246.137 71.8857C245.4 72.1608 244.74 72.2983 244.156 72.2983C243.386 72.2983 242.677 72.0931 242.03 71.6826C241.382 71.2679 240.879 70.6543 240.519 69.8418C240.159 69.0251 239.979 68.1025 239.979 67.0742C239.979 66.0544 240.157 65.1382 240.513 64.3257C240.868 63.5132 241.37 62.8975 242.017 62.4785C242.665 62.0596 243.378 61.8501 244.156 61.8501C244.74 61.8501 245.4 61.9876 246.137 62.2627V63.4307C245.455 63.0371 244.778 62.8403 244.105 62.8403C243.598 62.8403 243.132 63.0138 242.709 63.3608C242.29 63.7078 241.951 64.2178 241.693 64.8906C241.435 65.5592 241.306 66.2871 241.306 67.0742C241.306 67.874 241.439 68.6125 241.706 69.2896C241.973 69.9666 242.313 70.4744 242.728 70.813C243.143 71.1473 243.602 71.3145 244.105 71.3145C244.774 71.3145 245.451 71.1177 246.137 70.7241V71.8857ZM250.294 72V63.2339H247.343V62.1484H254.535V63.2339H251.577V72H250.294ZM258.108 72V67.4424L255.176 62.1484H256.629L258.819 66.0586L261.003 62.1484H262.317L259.391 67.4424V72H258.108ZM265.053 68.4072V72H263.771V62.1484H266.221C267.228 62.1484 267.962 62.2627 268.423 62.4912C268.885 62.7155 269.238 63.0456 269.483 63.4814C269.729 63.9173 269.852 64.404 269.852 64.9414C269.852 65.5719 269.687 66.1602 269.356 66.7061C269.026 67.252 268.565 67.673 267.973 67.9692C267.384 68.2612 266.585 68.4072 265.573 68.4072H265.053ZM265.053 67.4233H265.605C266.396 67.4233 266.985 67.3218 267.37 67.1187C267.755 66.9113 268.051 66.6151 268.258 66.23C268.466 65.8449 268.569 65.4281 268.569 64.9795C268.569 64.4124 268.383 63.9639 268.011 63.6338C267.643 63.3037 266.913 63.1387 265.821 63.1387H265.053V67.4233ZM277.069 70.9146V72H271.75V62.1484H276.967V63.1387H273.032V66.4839H276.574V67.4678H273.032V70.9146H277.069ZM216.792 91V80.7549H217.972V85.4585C218.311 84.9126 218.719 84.4852 219.197 84.1763C219.675 83.8674 220.154 83.7129 220.632 83.7129C221.034 83.7129 221.4 83.8166 221.73 84.0239C222.064 84.2271 222.297 84.4746 222.428 84.7666C222.534 84.9909 222.606 85.23 222.644 85.4839C222.682 85.7336 222.701 86.252 222.701 87.0391V91H221.521V86.8931C221.521 86.2118 221.487 85.7632 221.419 85.5474C221.355 85.3273 221.235 85.1475 221.057 85.0078C220.884 84.8682 220.693 84.7983 220.486 84.7983C220.071 84.7983 219.625 84.9951 219.146 85.3887C218.673 85.7822 218.281 86.2752 217.972 86.8677V91H216.792ZM230.528 90.7144C229.973 90.9471 229.571 91.0846 229.322 91.127C229.072 91.1735 228.831 91.1968 228.598 91.1968C228.103 91.1968 227.65 91.1016 227.24 90.9111C226.829 90.7207 226.518 90.4393 226.307 90.0669C226.099 89.6945 225.996 89.119 225.996 88.3403V85.4839H224.225V84.5H225.996V81.6436H227.176V84.5H230.331V85.4839H227.176V88.3213C227.176 88.8926 227.244 89.2967 227.379 89.5337C227.515 89.7664 227.695 89.9378 227.919 90.0479C228.147 90.1579 228.416 90.2129 228.725 90.2129C229.296 90.2129 229.897 90.033 230.528 89.6733V90.7144ZM231.874 91V83.9097H232.908V85.5347C233.234 84.8449 233.537 84.3688 233.816 84.1064C234.099 83.8441 234.385 83.7129 234.673 83.7129C235.016 83.7129 235.291 83.8483 235.498 84.1191C235.71 84.3857 235.815 84.7666 235.815 85.2617V85.6426C235.955 85.2109 236.122 84.8618 236.317 84.5952C236.516 84.3244 236.721 84.1107 236.933 83.9541C237.144 83.7933 237.388 83.7129 237.663 83.7129C237.967 83.7129 238.228 83.842 238.443 84.1001C238.659 84.3582 238.767 84.8724 238.767 85.6426V91H237.732V86.1567C237.732 85.759 237.72 85.4881 237.694 85.3442C237.669 85.1961 237.618 85.084 237.542 85.0078C237.466 84.9316 237.383 84.8936 237.294 84.8936C237.074 84.8936 236.837 85.0628 236.583 85.4014C236.334 85.7357 236.078 86.2922 235.815 87.0708V91H234.825V86.1631C234.825 85.5368 234.764 85.1686 234.641 85.0586C234.518 84.9486 234.408 84.8936 234.311 84.8936C234.095 84.8936 233.862 85.0819 233.613 85.4585C233.367 85.8351 233.132 86.3175 232.908 86.9058V91H231.874ZM242.119 91V81.7451H239.999V80.7549H243.299V90.0161H245.515V91H242.119ZM232.407 110V99.7549H233.587V104.458C233.926 103.913 234.334 103.485 234.812 103.176C235.291 102.867 235.769 102.713 236.247 102.713C236.649 102.713 237.015 102.817 237.345 103.024C237.68 103.227 237.912 103.475 238.043 103.767C238.149 103.991 238.221 104.23 238.259 104.484C238.297 104.734 238.316 105.252 238.316 106.039V110H237.136V105.893C237.136 105.212 237.102 104.763 237.034 104.547C236.971 104.327 236.85 104.147 236.672 104.008C236.499 103.868 236.308 103.798 236.101 103.798C235.686 103.798 235.24 103.995 234.762 104.389C234.288 104.782 233.896 105.275 233.587 105.868V110H232.407Z" fill="#FF0E5B"/>
<path d="M287.06 72V61.7549H288.241V66.4585C288.579 65.9126 288.988 65.4852 289.466 65.1763C289.944 64.8674 290.422 64.7129 290.9 64.7129C291.302 64.7129 291.668 64.8166 291.999 65.0239C292.333 65.2271 292.566 65.4746 292.697 65.7666C292.803 65.9909 292.875 66.23 292.913 66.4839C292.951 66.7336 292.97 67.252 292.97 68.0391V72H291.789V67.8931C291.789 67.2118 291.755 66.7632 291.688 66.5474C291.624 66.3273 291.503 66.1475 291.326 66.0078C291.152 65.8682 290.962 65.7983 290.754 65.7983C290.34 65.7983 289.893 65.9951 289.415 66.3887C288.941 66.7822 288.55 67.2752 288.241 67.8677V72H287.06ZM300.796 71.7144C300.242 71.9471 299.84 72.0846 299.59 72.127C299.341 72.1735 299.099 72.1968 298.867 72.1968C298.372 72.1968 297.919 72.1016 297.508 71.9111C297.098 71.7207 296.787 71.4393 296.575 71.0669C296.368 70.6945 296.264 70.119 296.264 69.3403V66.4839H294.493V65.5H296.264V62.6436H297.445V65.5H300.6V66.4839H297.445V69.3213C297.445 69.8926 297.513 70.2967 297.648 70.5337C297.783 70.7664 297.963 70.9378 298.188 71.0479C298.416 71.1579 298.685 71.2129 298.994 71.2129C299.565 71.2129 300.166 71.033 300.796 70.6733V71.7144ZM302.142 72V64.9097H303.177V66.5347C303.503 65.8449 303.805 65.3688 304.084 65.1064C304.368 64.8441 304.654 64.7129 304.941 64.7129C305.284 64.7129 305.559 64.8483 305.767 65.1191C305.978 65.3857 306.084 65.7666 306.084 66.2617V66.6426C306.224 66.2109 306.391 65.8618 306.585 65.5952C306.784 65.3244 306.99 65.1107 307.201 64.9541C307.413 64.7933 307.656 64.7129 307.931 64.7129C308.236 64.7129 308.496 64.842 308.712 65.1001C308.928 65.3582 309.036 65.8724 309.036 66.6426V72H308.001V67.1567C308.001 66.759 307.988 66.4881 307.963 66.3442C307.938 66.1961 307.887 66.084 307.811 66.0078C307.734 65.9316 307.652 65.8936 307.563 65.8936C307.343 65.8936 307.106 66.0628 306.852 66.4014C306.602 66.7357 306.346 67.2922 306.084 68.0708V72H305.094V67.1631C305.094 66.5368 305.032 66.1686 304.91 66.0586C304.787 65.9486 304.677 65.8936 304.58 65.8936C304.364 65.8936 304.131 66.0819 303.881 66.4585C303.636 66.8351 303.401 67.3175 303.177 67.9058V72H302.142ZM312.387 72V62.7451H310.267V61.7549H313.568V71.0161H315.783V72H312.387Z" fill="#A0CA40"/>
<path d="M36.076 29.388C35.92 30.252 35.152 31.992 34.384 33.252C34.288 33.192 34.288 33.192 33.388 32.544C32.8 32.124 32.284 31.788 31.408 31.272L30.352 32.328C31.42 32.916 32.572 33.696 33.532 34.488C33.064 35.088 32.584 35.604 32.008 36.12C31.06 36.984 30.232 37.536 28.9 38.196C29.44 38.652 29.632 38.868 29.956 39.444C31.18 38.76 31.948 38.22 32.812 37.464C33.544 36.816 34.168 36.144 34.684 35.46C35.776 36.432 36.496 37.176 37.12 37.992L38.272 36.756C37.228 35.652 36.604 35.064 35.596 34.212C36.064 33.516 36.532 32.604 37.288 30.816C37.528 30.276 37.576 30.18 37.708 29.952L36.076 29.388ZM44.2927 34.704V37.068C44.2927 38.76 44.8447 39.156 47.1847 39.156C47.7607 39.156 48.5647 39.12 49.0927 39.084C49.9567 39.012 49.9567 39.012 50.0647 39.012C50.1127 39.012 50.1847 39.012 50.2687 39.024L50.2327 37.5C49.8127 37.62 49.5727 37.656 49.1167 37.704C48.4927 37.764 47.7607 37.8 47.3287 37.8C46.6927 37.8 46.3207 37.752 46.0927 37.644C45.8287 37.524 45.7687 37.344 45.7687 36.624V34.704H49.1287C49.9087 34.704 50.2207 34.716 50.6407 34.764V33.312C50.1967 33.384 49.9207 33.396 49.1047 33.396H45.7687V31.32H48.3487C49.2247 31.32 49.4767 31.332 49.8847 31.38V29.928C49.4407 30 49.1887 30.012 48.3247 30.012H42.8527C42.0007 30.012 41.7487 30 41.3047 29.928V31.38C41.7127 31.332 41.9647 31.32 42.8287 31.32H44.2927V33.396H42.1207C41.2927 33.396 41.0287 33.384 40.5847 33.312V34.764C41.0047 34.716 41.3167 34.704 42.0967 34.704H44.2927ZM58.8247 35.34C59.1007 36.672 59.7847 37.824 60.8767 38.808C61.4407 39.312 61.7887 39.54 62.6647 39.996C62.8207 39.516 63.0247 39.144 63.3727 38.7C62.5807 38.4 61.9567 38.016 61.3567 37.464C61.8487 37.08 62.0887 36.864 62.7367 36.216L61.7767 35.448C61.4647 35.844 61.1767 36.144 60.6127 36.6C60.3127 36.156 60.1567 35.844 60.0127 35.34H61.9807C62.3887 35.34 62.7247 35.364 63.0967 35.4V34.188C62.8327 34.236 62.5087 34.248 62.0287 34.248H58.4047V33.6H61.2487C61.7167 33.6 61.9327 33.612 62.2207 33.648V32.556C61.9807 32.592 61.7407 32.604 61.2487 32.604H58.4047V32.004H61.2487C61.5487 32.004 61.9687 32.028 62.2207 32.064V30.948C61.9807 30.996 61.7167 31.008 61.2487 31.008H58.4047V30.408H61.4647C62.0767 30.408 62.3047 30.42 62.6287 30.456V29.268C62.3047 29.316 61.9087 29.34 61.2847 29.34H58.3807C57.8407 29.34 57.4327 29.316 57.0727 29.28C57.1207 29.616 57.1327 29.88 57.1327 30.456V34.248H56.5327V31.896C56.5327 31.356 56.5327 31.2 56.5687 30.876C56.3407 30.912 56.1487 30.924 55.7167 30.924H55.0327V30.144C55.0327 29.58 55.0447 29.232 55.0927 28.932H53.7607C53.8207 29.232 53.8327 29.592 53.8447 30.144V30.924H53.2807C52.8607 30.924 52.5367 30.912 52.3087 30.876C52.3327 31.152 52.3447 31.464 52.3447 31.968V36.108C52.3447 36.612 52.3207 37.044 52.2847 37.404H53.4727C53.4367 37.068 53.4247 36.756 53.4247 36.18V32.088H53.8447V38.592C53.8447 39.288 53.8327 39.66 53.7727 40.02H55.0927C55.0327 39.696 55.0207 39.312 55.0207 38.604V32.088H55.4287V35.892C55.4287 35.988 55.4047 36.012 55.3327 36.012C55.2847 36.012 55.2247 36.012 55.1647 36L55.0567 35.988C55.2127 36.276 55.2607 36.564 55.2727 37.2C55.4287 37.2 55.5007 37.2 55.5967 37.2C56.3167 37.2 56.5327 36.984 56.5327 36.204V35.34H57.0847V38.46C56.3407 38.58 56.0647 38.604 55.8247 38.604L56.0407 39.972C56.5567 39.864 56.5927 39.852 56.6407 39.852C58.3447 39.516 58.8367 39.396 59.9047 39.06L59.8807 37.836C59.1847 38.04 58.9687 38.1 58.3567 38.232V35.34H58.8247Z" fill="#212121"/>
<path d="M203.672 31.968H205.688C206.492 31.968 206.792 31.98 207.224 32.028V30.528C206.768 30.6 206.48 30.612 205.664 30.612H200.324C199.508 30.612 199.22 30.6 198.764 30.528V32.028C199.196 31.98 199.508 31.968 200.3 31.968H202.136V36.9H199.424C198.584 36.9 198.332 36.888 197.864 36.816V38.328C198.296 38.28 198.608 38.268 199.4 38.268H206.6C207.392 38.268 207.704 38.28 208.136 38.328V36.816C207.668 36.888 207.416 36.9 206.576 36.9H203.672V31.968ZM217.664 29.748C217.268 29.82 217.028 29.832 216.116 29.832H212.588C211.688 29.832 211.448 29.82 211.04 29.748V31.212C211.424 31.164 211.58 31.152 212.564 31.152H216.14C217.124 31.152 217.292 31.164 217.664 31.212V29.748ZM218.42 34.152C219.356 34.152 219.536 34.164 219.944 34.212V32.784C219.524 32.856 219.284 32.868 218.396 32.868H211.376C210.488 32.868 210.248 32.856 209.828 32.784V34.212C210.236 34.164 210.416 34.152 211.352 34.152H214.268C214.184 36.48 213.248 37.668 210.896 38.412C211.388 38.88 211.592 39.144 211.88 39.744C214.592 38.7 215.72 37.116 215.852 34.152H218.42ZM220.964 30.324C220.676 29.616 220.388 29.136 219.908 28.5L219.044 28.812C219.452 29.376 219.8 29.988 220.076 30.672L220.964 30.324ZM217.472 29.28C217.916 29.904 218.192 30.396 218.528 31.2L219.428 30.864C219.092 30.072 218.816 29.592 218.36 28.968L217.472 29.28ZM229.064 31.248C228.872 31.548 228.728 31.716 228.332 32.112C227.324 33.096 226.268 33.852 224.924 34.548C223.94 35.052 223.208 35.328 222.08 35.628C222.464 36.12 222.572 36.324 222.824 36.876C224.276 36.372 225.14 35.988 226.22 35.352V38.568C226.22 39.132 226.208 39.36 226.16 39.708L227.708 39.72C227.66 39.42 227.648 39.12 227.648 38.568V34.488C228.404 33.948 229.28 33.168 229.88 32.52C230.12 32.256 230.12 32.256 230.288 32.124L229.064 31.248ZM241.888 30.384C241.576 30.492 241.324 30.516 240.832 30.528C237.904 30.552 237.904 30.552 237.712 30.576C237.772 30.468 237.856 30.324 238 30C238.228 29.544 238.228 29.544 238.36 29.328L236.8 28.98C236.692 29.424 236.452 30.012 236.104 30.648C235.372 31.992 234.412 33.084 233.092 34.068C233.716 34.428 233.896 34.584 234.292 35.028C235.504 34.008 236.356 33.036 237.1 31.8L240.832 31.764C240.46 32.892 240.052 33.732 239.488 34.596C238.588 33.888 238.084 33.552 237.076 32.988L236.164 34.056C237.064 34.548 237.784 35.052 238.624 35.772C238.012 36.456 237.508 36.888 236.656 37.44C235.936 37.92 235.336 38.22 234.316 38.64C234.772 39.024 234.928 39.228 235.312 39.876C237.868 38.7 239.56 37.284 240.784 35.292C241.276 34.488 241.936 33.084 242.32 31.992C242.512 31.44 242.536 31.392 242.692 31.188L241.888 30.384Z" fill="#212121"/>
<path d="M73 97V115" stroke="#212121"/>
<rect x="244" y="115" width="88" height="22" fill="#474F59" stroke="#474F59"/>
<rect x="244" y="137" width="88" height="48" fill="#373D45" stroke="#474F59"/>
<path d="M269.831 131V120.755H271.011V125.458C271.35 124.913 271.758 124.485 272.236 124.176C272.715 123.867 273.193 123.713 273.671 123.713C274.073 123.713 274.439 123.817 274.769 124.024C275.103 124.227 275.336 124.475 275.467 124.767C275.573 124.991 275.645 125.23 275.683 125.484C275.721 125.734 275.74 126.252 275.74 127.039V131H274.56V126.893C274.56 126.212 274.526 125.763 274.458 125.547C274.395 125.327 274.274 125.147 274.096 125.008C273.923 124.868 273.732 124.798 273.525 124.798C273.11 124.798 272.664 124.995 272.186 125.389C271.712 125.782 271.32 126.275 271.011 126.868V131H269.831Z" fill="#30C8D6"/>
<path d="M283.535 130.53C282.592 130.979 281.699 131.203 280.857 131.203C280.218 131.203 279.646 131.044 279.143 130.727C278.639 130.41 278.235 129.957 277.93 129.369C277.63 128.776 277.48 128.144 277.48 127.471C277.48 126.823 277.623 126.201 277.911 125.604C278.199 125.008 278.601 124.544 279.117 124.214C279.634 123.88 280.209 123.713 280.844 123.713C281.686 123.713 282.361 124.013 282.869 124.614C283.381 125.215 283.637 126.142 283.637 127.395V127.648H278.749C278.749 128.139 278.851 128.588 279.054 128.994C279.261 129.4 279.532 129.705 279.866 129.908C280.201 130.111 280.582 130.213 281.009 130.213C281.771 130.213 282.613 129.959 283.535 129.451V130.53ZM278.819 126.766H282.355V126.595C282.355 126.015 282.213 125.554 281.929 125.211C281.646 124.868 281.267 124.697 280.793 124.697C280.315 124.697 279.9 124.872 279.549 125.224C279.202 125.571 278.959 126.085 278.819 126.766ZM290.105 129.407C289.745 129.999 289.312 130.446 288.804 130.746C288.3 131.047 287.837 131.197 287.414 131.197C286.821 131.197 286.288 130.941 285.814 130.429C285.344 129.917 285.109 129.14 285.109 128.099C285.109 127.278 285.266 126.546 285.579 125.903C285.892 125.255 286.311 124.745 286.836 124.373C287.361 123.996 288.01 123.808 288.785 123.808C289.009 123.808 289.348 123.831 289.8 123.878C289.868 123.886 289.97 123.897 290.105 123.91H291.292V128.918C291.292 129.773 291.381 130.467 291.559 131H290.327C290.234 130.611 290.16 130.08 290.105 129.407ZM290.105 128.004V124.963C289.686 124.853 289.297 124.798 288.937 124.798C288.209 124.798 287.602 125.08 287.115 125.643C286.633 126.205 286.392 126.971 286.392 127.94C286.392 128.643 286.523 129.174 286.785 129.534C287.052 129.889 287.354 130.067 287.693 130.067C288.061 130.067 288.467 129.881 288.912 129.508C289.356 129.136 289.754 128.634 290.105 128.004ZM297.989 129.407C297.629 129.999 297.195 130.446 296.688 130.746C296.184 131.047 295.721 131.197 295.297 131.197C294.705 131.197 294.172 130.941 293.698 130.429C293.228 129.917 292.993 129.14 292.993 128.099C292.993 127.278 293.15 126.546 293.463 125.903C293.776 125.255 294.195 124.745 294.72 124.373C295.245 123.996 295.894 123.808 296.669 123.808C296.893 123.808 297.231 123.831 297.684 123.878C297.752 123.886 297.853 123.897 297.989 123.91V120.755H299.176V131H297.989V129.407ZM297.989 128.004V124.963C297.57 124.853 297.181 124.798 296.821 124.798C296.093 124.798 295.486 125.08 294.999 125.643C294.517 126.205 294.276 126.971 294.276 127.94C294.276 128.643 294.407 129.174 294.669 129.534C294.936 129.889 295.238 130.067 295.577 130.067C295.945 130.067 296.351 129.881 296.796 129.508C297.24 129.136 297.638 128.634 297.989 128.004Z" fill="white"/>
<path d="M257.581 123.448L259.568 121.446C259.071 120.945 257.432 120.594 256.091 121.946C254.899 123.148 255.263 124.784 255.594 125.451L251.62 129.457C251.123 129.958 251.123 130.458 251.62 130.959C252.117 131.46 252.613 131.46 253.11 130.959L257.084 126.953C257.747 127.12 259.548 127.474 260.562 126.453C261.555 125.451 262.052 123.949 261.058 122.948L259.071 124.951L257.581 123.448Z" fill="#D9D9D9"/>
<path d="M269.831 154V143.755H271.011V148.458C271.35 147.913 271.758 147.485 272.236 147.176C272.715 146.867 273.193 146.713 273.671 146.713C274.073 146.713 274.439 146.817 274.769 147.024C275.103 147.227 275.336 147.475 275.467 147.767C275.573 147.991 275.645 148.23 275.683 148.484C275.721 148.734 275.74 149.252 275.74 150.039V154H274.56V149.893C274.56 149.212 274.526 148.763 274.458 148.547C274.395 148.327 274.274 148.147 274.096 148.008C273.923 147.868 273.732 147.798 273.525 147.798C273.11 147.798 272.664 147.995 272.186 148.389C271.712 148.782 271.32 149.275 271.011 149.868V154H269.831Z" fill="#30C8D6"/>
<path d="M283.535 153.53C282.592 153.979 281.699 154.203 280.857 154.203C280.218 154.203 279.646 154.044 279.143 153.727C278.639 153.41 278.235 152.957 277.93 152.369C277.63 151.776 277.48 151.144 277.48 150.471C277.48 149.823 277.623 149.201 277.911 148.604C278.199 148.008 278.601 147.544 279.117 147.214C279.634 146.88 280.209 146.713 280.844 146.713C281.686 146.713 282.361 147.013 282.869 147.614C283.381 148.215 283.637 149.142 283.637 150.395V150.648H278.749C278.749 151.139 278.851 151.588 279.054 151.994C279.261 152.4 279.532 152.705 279.866 152.908C280.201 153.111 280.582 153.213 281.009 153.213C281.771 153.213 282.613 152.959 283.535 152.451V153.53ZM278.819 149.766H282.355V149.595C282.355 149.015 282.213 148.554 281.929 148.211C281.646 147.868 281.267 147.697 280.793 147.697C280.315 147.697 279.9 147.872 279.549 148.224C279.202 148.571 278.959 149.085 278.819 149.766ZM290.105 152.407C289.745 152.999 289.312 153.446 288.804 153.746C288.3 154.047 287.837 154.197 287.414 154.197C286.821 154.197 286.288 153.941 285.814 153.429C285.344 152.917 285.109 152.14 285.109 151.099C285.109 150.278 285.266 149.546 285.579 148.903C285.892 148.255 286.311 147.745 286.836 147.373C287.361 146.996 288.01 146.808 288.785 146.808C289.009 146.808 289.348 146.831 289.8 146.878C289.868 146.886 289.97 146.897 290.105 146.91H291.292V151.918C291.292 152.773 291.381 153.467 291.559 154H290.327C290.234 153.611 290.16 153.08 290.105 152.407ZM290.105 151.004V147.963C289.686 147.853 289.297 147.798 288.937 147.798C288.209 147.798 287.602 148.08 287.115 148.643C286.633 149.205 286.392 149.971 286.392 150.94C286.392 151.643 286.523 152.174 286.785 152.534C287.052 152.889 287.354 153.067 287.693 153.067C288.061 153.067 288.467 152.881 288.912 152.508C289.356 152.136 289.754 151.634 290.105 151.004ZM297.989 152.407C297.629 152.999 297.195 153.446 296.688 153.746C296.184 154.047 295.721 154.197 295.297 154.197C294.705 154.197 294.172 153.941 293.698 153.429C293.228 152.917 292.993 152.14 292.993 151.099C292.993 150.278 293.15 149.546 293.463 148.903C293.776 148.255 294.195 147.745 294.72 147.373C295.245 146.996 295.894 146.808 296.669 146.808C296.893 146.808 297.231 146.831 297.684 146.878C297.752 146.886 297.853 146.897 297.989 146.91V143.755H299.176V154H297.989V152.407ZM297.989 151.004V147.963C297.57 147.853 297.181 147.798 296.821 147.798C296.093 147.798 295.486 148.08 294.999 148.643C294.517 149.205 294.276 149.971 294.276 150.94C294.276 151.643 294.407 152.174 294.669 152.534C294.936 152.889 295.238 153.067 295.577 153.067C295.945 153.067 296.351 152.881 296.796 152.508C297.24 152.136 297.638 151.634 297.989 151.004ZM306.958 153.53C306.014 153.979 305.122 154.203 304.279 154.203C303.64 154.203 303.069 154.044 302.566 153.727C302.062 153.41 301.658 152.957 301.353 152.369C301.053 151.776 300.902 151.144 300.902 150.471C300.902 149.823 301.046 149.201 301.334 148.604C301.622 148.008 302.024 147.544 302.54 147.214C303.056 146.88 303.632 146.713 304.267 146.713C305.109 146.713 305.784 147.013 306.292 147.614C306.804 148.215 307.06 149.142 307.06 150.395V150.648H302.172C302.172 151.139 302.274 151.588 302.477 151.994C302.684 152.4 302.955 152.705 303.289 152.908C303.623 153.111 304.004 153.213 304.432 153.213C305.193 153.213 306.036 152.959 306.958 152.451V153.53ZM302.242 149.766H305.777V149.595C305.777 149.015 305.636 148.554 305.352 148.211C305.069 147.868 304.69 147.697 304.216 147.697C303.738 147.697 303.323 147.872 302.972 148.224C302.625 148.571 302.381 149.085 302.242 149.766ZM309.472 154V146.91H310.652V148.458C311.021 147.875 311.442 147.439 311.916 147.151C312.394 146.859 312.925 146.713 313.509 146.713C313.936 146.713 314.364 146.778 314.791 146.91V149.468H313.655V147.849C313.456 147.815 313.299 147.798 313.185 147.798C312.745 147.798 312.313 147.972 311.89 148.319C311.467 148.666 311.054 149.186 310.652 149.88V154H309.472Z" fill="white"/>
<path d="M257.581 146.551L259.568 144.464C259.071 143.943 257.432 143.577 256.091 144.986C254.899 146.238 255.263 147.943 255.594 148.638L251.62 152.812C251.123 153.334 251.123 153.856 251.62 154.378C252.117 154.899 252.613 154.899 253.11 154.378L257.084 150.204C257.747 150.377 259.548 150.746 260.562 149.682C261.555 148.638 262.052 147.073 261.058 146.03L259.071 148.117L257.581 146.551Z" fill="#D9D9D9"/>
<path d="M269.831 178V167.755H271.011V172.458C271.35 171.913 271.758 171.485 272.236 171.176C272.715 170.867 273.193 170.713 273.671 170.713C274.073 170.713 274.439 170.817 274.769 171.024C275.103 171.227 275.336 171.475 275.467 171.767C275.573 171.991 275.645 172.23 275.683 172.484C275.721 172.734 275.74 173.252 275.74 174.039V178H274.56V173.893C274.56 173.212 274.526 172.763 274.458 172.547C274.395 172.327 274.274 172.147 274.096 172.008C273.923 171.868 273.732 171.798 273.525 171.798C273.11 171.798 272.664 171.995 272.186 172.389C271.712 172.782 271.32 173.275 271.011 173.868V178H269.831Z" fill="#30C8D6"/>
<path d="M280.26 177.016V169.412C279.904 169.695 279.56 169.936 279.225 170.135C278.891 170.334 278.432 170.537 277.848 170.745V169.678C278.775 169.285 279.579 168.775 280.26 168.148H281.441V177.016H283.808V178H277.848V177.016H280.26Z" fill="white"/>
<path d="M257.581 170.45L259.568 168.446C259.071 167.945 257.432 167.594 256.091 168.947C254.899 170.15 255.263 171.787 255.594 172.455L251.62 176.463C251.123 176.964 251.123 177.465 251.62 177.967C252.117 178.468 252.613 178.468 253.11 177.967L257.084 173.958C257.747 174.125 259.548 174.479 260.562 173.457C261.555 172.455 262.052 170.951 261.058 169.949L259.071 171.954L257.581 170.45Z" fill="#D9D9D9"/>
<rect x="208" y="97" width="124" height="18" stroke="#474F59"/>
<path d="M242 97L242 115" stroke="white"/>
</svg>
