<svg width="375" height="330" viewBox="0 0 375 330" fill="none" xmlns="http://www.w3.org/2000/svg">
<rect width="375" height="330" fill="#FAFAFA"/>
<rect x="28" y="221.5" width="154" height="80" rx="3" fill="#F0E5FF"/>
<path d="M46 263.561C45.34 263.561 44.81 264.091 44.81 264.751C44.81 265.411 45.34 265.941 46 265.941C46.66 265.941 47.19 265.411 47.19 264.751C47.19 264.091 46.66 263.561 46 263.561ZM55.18 262.291C54.66 262.291 54.37 262.281 54.06 262.241C54.09 262.581 54.1 262.831 54.1 263.411V266.571C54.1 267.081 54.09 267.391 54.05 267.661H55.18C55.13 267.421 55.12 267.161 55.12 266.571V266.061H56.47V266.481C56.47 267.001 56.45 267.301 56.41 267.591H57.52C57.47 267.281 57.46 267.031 57.46 266.481V266.061H58.96V266.451C58.96 266.711 58.95 266.731 58.73 266.731C58.57 266.731 58.34 266.711 58.07 266.671C58.21 266.971 58.27 267.221 58.3 267.621C58.49 267.631 58.66 267.631 58.75 267.631C59.37 267.631 59.62 267.571 59.8 267.401C59.94 267.251 59.98 267.051 59.98 266.481V263.401C59.98 262.841 59.99 262.511 60.02 262.241C59.78 262.281 59.5 262.291 59 262.291H58.2C58.6 262.031 59.09 261.681 59.49 261.341C59.78 261.101 59.83 261.061 59.99 260.961L59.48 260.341C59.3 260.391 58.98 260.411 58.35 260.411H55.11C54.55 260.411 54.24 260.391 53.92 260.351V261.371C54.24 261.331 54.47 261.321 54.96 261.321H55.91L55.14 261.771C55.41 261.911 55.43 261.921 55.97 262.291H55.18ZM57.46 263.141H58.96V263.791H57.46V263.141ZM56.47 263.141V263.791H55.12V263.141H56.47ZM55.12 264.591H56.47V265.261H55.12V264.591ZM58.96 265.261H57.46V264.591H58.96V265.261ZM58.03 261.321C57.75 261.561 57.74 261.571 57.03 262.071C56.44 261.631 56.35 261.571 55.99 261.321H58.03ZM51.15 261.011C51.85 261.611 52.27 262.081 52.85 262.881L53.68 262.071C53.2 261.431 52.67 260.891 51.95 260.261L51.15 261.011ZM51.18 265.041C51.41 265.001 51.57 264.991 51.82 264.991H52.33V267.121C51.85 267.561 51.38 267.911 51.01 268.081L51.55 269.181C52.31 268.571 52.31 268.571 52.66 268.211C52.7 268.181 52.75 268.131 52.82 268.061C53.23 268.541 53.49 268.731 53.98 268.911C54.42 269.071 55.21 269.161 56.23 269.161C57.91 269.161 58.92 269.141 60.23 269.081C60.3 268.651 60.39 268.251 60.52 267.891C58.52 268.121 57.97 268.151 56.34 268.151C55.43 268.151 54.81 268.091 54.35 267.971C54.21 267.931 54.04 267.841 53.85 267.711C53.64 267.561 53.53 267.441 53.36 267.151V265.011C53.36 264.471 53.37 264.231 53.4 263.921C53.17 263.961 52.94 263.971 52.64 263.971H51.94C51.6 263.971 51.43 263.961 51.18 263.921V265.041ZM63.02 262.491C63.28 261.931 63.4 261.641 63.6 261.021C63.7 260.721 63.77 260.521 63.8 260.421L62.7 260.041C62.64 260.491 62.54 260.841 62.33 261.421C61.94 262.481 61.47 263.271 60.81 263.991C61.02 264.411 61.13 264.701 61.27 265.181C61.68 264.671 61.79 264.501 62.01 264.101C61.98 264.831 61.98 264.861 61.98 265.211V268.191C61.98 268.681 61.96 268.971 61.92 269.361H63.07C63.03 268.961 63.02 268.631 63.02 268.201V262.491ZM69.45 260.471C69.18 260.511 68.87 260.531 68.39 260.531H65.19C64.77 260.531 64.49 260.511 64.2 260.471V261.431C64.44 261.401 64.7 261.391 65.1 261.391H68.47C68.89 261.391 69.18 261.401 69.45 261.431V260.471ZM69.45 263.341C69.21 263.371 68.99 263.381 68.66 263.381H64.84C64.49 263.381 64.34 263.371 64.13 263.341V264.291C64.36 264.261 64.5 264.251 64.84 264.251H68.67C69 264.251 69.23 264.261 69.45 264.291V263.341ZM69.45 264.751C69.22 264.781 69 264.791 68.67 264.791H64.84C64.5 264.791 64.34 264.781 64.13 264.751V265.701C64.33 265.671 64.49 265.661 64.84 265.661H68.68C69.01 265.661 69.2 265.671 69.45 265.701V264.751ZM65.1 268.901H68.4V269.361H69.5C69.46 269.061 69.45 268.801 69.45 268.421V267.021C69.45 266.661 69.46 266.421 69.49 266.171C69.27 266.191 69.03 266.201 68.64 266.201H64.85C64.51 266.201 64.24 266.191 64.03 266.171C64.06 266.411 64.07 266.711 64.07 267.031V268.441C64.07 268.811 64.05 269.111 64.02 269.371H65.1V268.901ZM65.1 267.961V267.121H68.4V267.961H65.1ZM63.55 262.901C63.8 262.861 64.07 262.851 64.38 262.851H69.25C69.63 262.851 69.92 262.871 70.19 262.901V261.871C69.93 261.911 69.65 261.931 69.25 261.931H64.38C64.03 261.931 63.8 261.921 63.55 261.881V262.901ZM77.62 260.841C77.29 260.901 77.09 260.911 76.33 260.911H73.39C72.64 260.911 72.44 260.901 72.1 260.841V262.061C72.42 262.021 72.55 262.011 73.37 262.011H76.35C77.17 262.011 77.31 262.021 77.62 262.061V260.841ZM78.25 264.511C79.03 264.511 79.18 264.521 79.52 264.561V263.371C79.17 263.431 78.97 263.441 78.23 263.441H72.38C71.64 263.441 71.44 263.431 71.09 263.371V264.561C71.43 264.521 71.58 264.511 72.36 264.511H74.79C74.72 266.451 73.94 267.441 71.98 268.061C72.39 268.451 72.56 268.671 72.8 269.171C75.06 268.301 76 266.981 76.11 264.511H78.25ZM80.37 261.321C80.13 260.731 79.89 260.331 79.49 259.801L78.77 260.061C79.11 260.531 79.4 261.041 79.63 261.611L80.37 261.321ZM77.46 260.451C77.83 260.971 78.06 261.381 78.34 262.051L79.09 261.771C78.81 261.111 78.58 260.711 78.2 260.191L77.46 260.451ZM80.91 265.411C81.31 265.361 81.42 265.361 82.54 265.361H87.85C88.97 265.361 89.08 265.361 89.48 265.411V264.021C89.04 264.081 88.85 264.091 87.86 264.091H82.53C81.54 264.091 81.35 264.081 80.91 264.021V265.411ZM98.11 261.371C97.85 261.461 97.64 261.481 97.23 261.491C94.79 261.511 94.79 261.511 94.63 261.531C94.68 261.441 94.75 261.321 94.87 261.051C95.06 260.671 95.06 260.671 95.17 260.491L93.87 260.201C93.78 260.571 93.58 261.061 93.29 261.591C92.68 262.711 91.88 263.621 90.78 264.441C91.3 264.741 91.45 264.871 91.78 265.241C92.79 264.391 93.5 263.581 94.12 262.551L97.23 262.521C96.92 263.461 96.58 264.161 96.11 264.881C95.36 264.291 94.94 264.011 94.1 263.541L93.34 264.431C94.09 264.841 94.69 265.261 95.39 265.861C94.88 266.431 94.46 266.791 93.75 267.251C93.15 267.651 92.65 267.901 91.8 268.251C92.18 268.571 92.31 268.741 92.63 269.281C94.76 268.301 96.17 267.121 97.19 265.461C97.6 264.791 98.15 263.621 98.47 262.711C98.63 262.251 98.65 262.211 98.78 262.041L98.11 261.371ZM105.58 262.141C106.02 262.181 106.28 262.261 106.59 262.441C107.39 262.921 107.82 263.701 107.82 264.661C107.82 265.731 107.3 266.681 106.43 267.161C105.96 267.431 105.36 267.591 104.44 267.711C104.76 268.131 104.88 268.351 105.05 268.881C105.75 268.761 106.14 268.661 106.62 268.461C108.15 267.841 109.05 266.461 109.05 264.731C109.05 262.481 107.49 261.021 105.09 261.021C103.67 261.021 102.49 261.501 101.65 262.421C100.94 263.201 100.55 264.231 100.55 265.331C100.55 266.941 101.37 268.101 102.51 268.101C103.33 268.101 103.97 267.511 104.54 266.221C105.04 265.091 105.39 263.711 105.58 262.141ZM104.36 262.151C104.24 263.281 103.91 264.631 103.53 265.531C103.17 266.391 102.83 266.811 102.5 266.811C102.06 266.811 101.71 266.161 101.71 265.341C101.71 264.271 102.23 263.241 103.07 262.641C103.48 262.351 103.84 262.211 104.36 262.151ZM116.76 261.021V260.831C116.76 260.561 116.77 260.351 116.81 260.151H115.63C115.67 260.361 115.68 260.601 115.68 260.851V261.021H114.76C114.27 261.021 114.01 261.011 113.68 260.971V262.011C113.97 261.971 114.18 261.961 114.69 261.961H115.14L114.31 262.261C114.53 262.711 114.62 262.961 114.75 263.461H114.44C114.1 263.461 113.77 263.441 113.47 263.411V264.481C113.74 264.451 114.13 264.431 114.54 264.431H118.2C118.69 264.431 118.97 264.441 119.27 264.481V263.411C118.99 263.451 118.71 263.461 118.25 263.461H117.69C117.86 263.121 117.99 262.821 118.21 262.261L117.26 261.961H118C118.54 261.961 118.74 261.971 119.01 262.011V260.971C118.69 261.011 118.41 261.021 117.92 261.021H116.76ZM114.91 263.461L115.71 263.191C115.54 262.641 115.42 262.331 115.23 261.961H117.22C117.07 262.541 116.88 263.021 116.64 263.461H114.91ZM110.37 267.561C110.37 268.101 110.36 268.441 110.32 268.751H111.33V267.791H112.3V268.311H113.29C113.27 268.041 113.26 267.871 113.26 267.501V261.421C113.26 261.091 113.27 260.891 113.29 260.621C113.1 260.651 112.86 260.661 112.5 260.661H111.08C110.75 260.661 110.57 260.651 110.33 260.621C110.36 260.921 110.37 261.221 110.37 261.631V267.561ZM111.34 261.651H112.31V263.711H111.34V261.651ZM111.34 264.641H112.31V266.801H111.34V264.641ZM113.98 268.221C113.98 268.771 113.97 269.101 113.93 269.361H114.99V268.921H117.57V269.351H118.66C118.61 269.041 118.6 268.741 118.6 268.211V265.741C118.6 265.311 118.61 265.101 118.64 264.871C118.42 264.901 118.19 264.911 117.72 264.911H114.85C114.41 264.911 114.2 264.901 113.95 264.871C113.97 265.121 113.98 265.341 113.98 265.721V268.221ZM114.99 265.791H117.57V266.451H114.99V265.791ZM114.99 267.301H117.57V268.001H114.99V267.301ZM122.1 264.911C121.8 265.641 121.4 266.331 120.83 267.091L122.03 267.311C122.27 266.941 122.35 266.811 122.49 266.561H126.5C126.4 267.431 126.29 267.881 126.14 268.081C126.02 268.231 125.8 268.291 125.31 268.291C124.95 268.291 124.22 268.231 123.54 268.151C123.73 268.571 123.8 268.871 123.81 269.221C124.42 269.261 124.8 269.281 125.32 269.281C126.37 269.281 126.75 269.171 127.06 268.791C127.33 268.461 127.52 267.681 127.69 266.241C127.74 265.811 127.76 265.661 127.77 265.601C127.5 265.631 127.27 265.641 126.74 265.641H122.97C123.1 265.381 123.15 265.261 123.3 264.911H127.8C128.3 264.911 128.69 264.931 128.98 264.971V263.891C128.69 263.931 128.31 263.951 127.8 263.951H121C120.49 263.951 120.11 263.931 119.83 263.891V264.971C120.13 264.931 120.51 264.911 120.99 264.911H122.1ZM121.1 262.541C121.1 262.891 121.09 263.111 121.06 263.391C121.36 263.361 121.6 263.351 122.09 263.351H126.71C127.22 263.351 127.44 263.361 127.74 263.391C127.71 263.121 127.7 262.911 127.7 262.541V261.241C127.7 260.901 127.71 260.651 127.74 260.411C127.47 260.451 127.17 260.461 126.6 260.461H122.19C121.73 260.461 121.41 260.451 121.06 260.411C121.09 260.691 121.1 260.901 121.1 261.241V262.541ZM126.6 261.401V262.431H122.17V261.401H126.6ZM135.04 264.921C136.39 264.211 137.33 263.561 138.42 262.581C138.52 262.501 138.56 262.461 138.64 262.401L137.77 261.521C137.22 262.251 136.19 263.061 135.04 263.671V261.441C135.04 260.921 135.06 260.541 135.1 260.241H133.85C133.89 260.531 133.91 260.941 133.91 261.441V268.031C133.91 268.941 134.21 269.111 135.83 269.111C137.45 269.111 138 269.001 138.31 268.621C138.55 268.321 138.69 267.661 138.77 266.421C138.42 266.341 138.08 266.221 137.69 266.031C137.64 267.241 137.58 267.631 137.41 267.861C137.28 268.021 136.92 268.081 136.02 268.081C135.22 268.081 135.04 268.021 135.04 267.751V264.921ZM131.08 268.061C131.08 268.541 131.06 268.921 131.01 269.361H132.24C132.2 268.941 132.18 268.491 132.18 268.081V262.711C132.63 261.701 132.67 261.611 132.9 260.971C132.99 260.731 133.03 260.621 133.12 260.421L131.95 260.081C131.84 260.761 131.47 261.681 130.94 262.561C130.51 263.261 130.18 263.691 129.54 264.341C129.84 264.881 129.87 264.931 130.07 265.521C130.46 265.101 130.87 264.581 131.1 264.221C131.08 264.891 131.08 264.991 131.08 265.341V268.061ZM46 281.561C45.34 281.561 44.81 282.091 44.81 282.751C44.81 283.411 45.34 283.941 46 283.941C46.66 283.941 47.19 283.411 47.19 282.751C47.19 282.091 46.66 281.561 46 281.561ZM58.88 279.161C58.57 279.241 58.37 279.261 57.81 279.261H53.22C52.54 279.261 52.33 279.251 51.94 279.191V280.491C52.3 280.441 52.53 280.431 53.2 280.431H57.96C57.47 282.371 56.49 283.781 54.93 284.791C54.19 285.271 53.62 285.531 52.74 285.811C53.21 286.271 53.34 286.461 53.62 287.001C55.29 286.281 56.36 285.551 57.34 284.451C58.3 283.371 58.89 282.171 59.39 280.261C59.44 280.051 59.47 279.981 59.56 279.811L58.88 279.161ZM64.48 282.101C64.5 282.261 64.5 282.311 64.5 282.471C64.5 283.431 64.38 284.141 64.12 284.631C63.75 285.331 63.07 285.801 61.98 286.121C62.36 286.511 62.47 286.661 62.7 287.141C64.02 286.621 64.74 286.051 65.18 285.131C65.45 284.601 65.59 284.011 65.63 283.201C65.98 283.471 66.1 283.591 66.4 283.981C66.89 283.701 67.14 283.531 67.45 283.241C67.93 282.811 68.36 282.241 68.66 281.621C68.84 281.241 68.84 281.241 68.96 281.081L68.4 280.401C68.16 280.471 68.07 280.481 67.54 280.481L63.29 280.491C62.82 280.491 62.54 280.471 62.22 280.421L62.23 281.561C62.56 281.521 62.75 281.511 63.29 281.511L67.25 281.491C67.34 281.491 67.45 281.491 67.53 281.471L67.54 281.481C67.52 281.521 67.51 281.531 67.49 281.561C67.47 281.591 67.46 281.611 67.46 281.621C67.03 282.331 66.49 282.771 65.63 283.151C65.64 283.051 65.64 282.971 65.65 282.791C65.67 282.351 65.68 282.271 65.71 282.101H64.48ZM77.74 278.431C77.45 278.921 76.77 279.611 75.88 280.301C74.29 281.531 72.61 282.361 70.63 282.901C70.98 283.351 71.09 283.521 71.3 284.041C73.14 283.381 73.7 283.121 74.87 282.421V285.941C74.87 286.531 74.86 286.731 74.81 287.021H76.21C76.17 286.751 76.16 286.461 76.16 285.911V281.641C77.02 281.011 77.77 280.361 78.52 279.581C78.67 279.421 78.72 279.381 78.89 279.231L77.74 278.431ZM88.49 278.901C88.21 278.981 88.12 278.991 87.52 278.991H82.3C81.61 278.991 81.3 278.971 80.92 278.911V280.161C81.33 280.111 81.58 280.101 82.28 280.101H87.53C87.3 280.581 86.99 280.991 86.58 281.371C86.17 281.761 85.79 281.991 85.12 282.291C85.57 282.631 85.72 282.781 86.02 283.201C86.49 282.941 86.82 282.721 87.22 282.371C87.83 281.851 88.41 281.101 88.76 280.361C89.02 279.841 89.02 279.831 89.16 279.661L88.49 278.901ZM83.74 280.921C83.78 281.131 83.79 281.221 83.79 281.521C83.79 283.411 83.47 284.271 82.45 285.081C81.96 285.471 81.51 285.691 80.7 285.931C81.1 286.351 81.23 286.531 81.49 287.071C82.74 286.551 83.47 286.041 84.07 285.271C84.75 284.401 85.02 283.441 85.06 281.731C85.07 281.121 85.07 281.111 85.1 280.921H83.74ZM89.8096 283.411C90.2096 283.361 90.3196 283.361 91.4396 283.361H96.7496C97.8696 283.361 97.9796 283.361 98.3796 283.411V282.021C97.9396 282.081 97.7496 282.091 96.7596 282.091H91.4296C90.4396 282.091 90.2496 282.081 89.8096 282.021V283.411ZM107.19 279.871C106.95 279.951 106.95 279.951 106.21 279.951H104.41V279.091C104.41 278.811 104.43 278.541 104.46 278.371H103.07C103.11 278.601 103.12 278.781 103.12 279.101V279.961H101.16C100.61 279.961 100.43 279.951 100.08 279.911C100.11 280.181 100.12 280.441 100.12 280.861V282.311C100.12 282.591 100.1 282.901 100.07 283.151H101.41C101.39 282.931 101.38 282.661 101.38 282.351V281.061H106.26C106.07 282.901 105.31 284.171 103.86 285.071C103.23 285.461 102.68 285.671 101.73 285.901C102.18 286.401 102.3 286.581 102.53 287.091C103.4 286.791 103.92 286.561 104.52 286.191C105.7 285.471 106.5 284.581 106.99 283.431C107.3 282.721 107.45 282.161 107.62 281.011C107.67 280.711 107.68 280.651 107.77 280.461L107.19 279.871ZM113.34 282.491C113.03 283.001 112.49 283.611 111.88 284.131C111.24 284.681 110.53 285.121 109.73 285.481C110.11 285.841 110.23 285.991 110.47 286.421C111.9 285.651 113.03 284.731 113.71 283.781C113.85 283.581 113.91 283.491 114.05 283.221C114.05 283.341 114.04 283.731 114.04 283.841L114.05 286.341C114.05 286.701 114.04 286.921 114.01 287.161H115.23C115.19 286.921 115.17 286.721 115.17 286.311L115.12 282.501H115.98C116.42 282.501 116.62 282.511 116.89 282.541V281.461C116.63 281.511 116.43 281.521 115.99 281.521H115.12L115.11 280.861C115.11 280.411 115.11 280.341 115.14 280.111H113.97C114 280.321 114.02 280.541 114.02 280.901V281.511H111.11C110.66 281.511 110.48 281.501 110.21 281.451V282.531C110.49 282.501 110.7 282.491 111.11 282.491H113.34ZM118.91 283.411C119.31 283.361 119.42 283.361 120.54 283.361H125.85C126.97 283.361 127.08 283.361 127.48 283.411V282.021C127.04 282.081 126.85 282.091 125.86 282.091H120.53C119.54 282.091 119.35 282.081 118.91 282.021V283.411ZM129.927 278.731C129.967 279.001 129.967 279.091 129.967 279.641C129.967 282.441 129.737 283.731 129.017 284.881C128.717 285.361 128.477 285.631 127.987 286.031C128.457 286.351 128.607 286.501 128.997 287.001C129.657 286.351 130.037 285.841 130.377 285.151C130.897 284.121 131.117 282.991 131.187 281.041C131.247 279.081 131.247 279.081 131.287 278.801L129.927 278.731ZM132.577 278.661C132.607 278.851 132.617 279.071 132.617 279.321V279.621L132.567 285.261C132.557 285.811 132.547 286.031 132.477 286.321L133.117 287.001C133.247 286.941 133.327 286.901 133.547 286.821C134.587 286.411 135.107 286.111 135.677 285.621C136.337 285.031 136.857 284.281 137.267 283.291C136.807 282.931 136.677 282.801 136.327 282.351C136.097 283.091 135.807 283.641 135.347 284.181C134.917 284.691 134.517 284.991 133.817 285.321L133.867 279.631C133.877 279.141 133.887 278.971 133.937 278.681L132.577 278.661ZM143.077 280.141C143.517 280.181 143.777 280.261 144.087 280.441C144.887 280.921 145.317 281.701 145.317 282.661C145.317 283.731 144.797 284.681 143.927 285.161C143.457 285.431 142.857 285.591 141.937 285.711C142.257 286.131 142.377 286.351 142.547 286.881C143.247 286.761 143.637 286.661 144.117 286.461C145.647 285.841 146.547 284.461 146.547 282.731C146.547 280.481 144.987 279.021 142.587 279.021C141.167 279.021 139.987 279.501 139.147 280.421C138.437 281.201 138.047 282.231 138.047 283.331C138.047 284.941 138.867 286.101 140.007 286.101C140.827 286.101 141.467 285.511 142.037 284.221C142.537 283.091 142.887 281.711 143.077 280.141ZM141.857 280.151C141.737 281.281 141.407 282.631 141.027 283.531C140.667 284.391 140.327 284.811 139.997 284.811C139.557 284.811 139.207 284.161 139.207 283.341C139.207 282.271 139.727 281.241 140.567 280.641C140.977 280.351 141.337 280.211 141.857 280.151ZM151.007 278.871C150.517 278.871 150.287 278.861 150.057 278.821V279.741C150.297 279.711 150.597 279.701 151.067 279.701H152.547C152.477 279.831 152.457 279.871 152.397 279.981H151.597C151.147 279.981 150.807 279.971 150.617 279.951C150.647 280.131 150.657 280.371 150.657 280.721V282.541C150.657 282.921 150.647 283.101 150.627 283.281C150.887 283.271 151.117 283.261 151.567 283.261H154.997C155.387 283.261 155.517 283.261 155.767 283.281C155.737 283.101 155.727 282.841 155.727 282.481V280.731C155.727 280.381 155.737 280.191 155.767 279.951C155.557 279.971 155.297 279.981 154.857 279.981H153.517C153.587 279.861 153.587 279.841 153.657 279.701H155.407C155.877 279.701 156.177 279.711 156.407 279.741V278.821C156.157 278.861 155.917 278.871 155.407 278.871H154.777C154.897 278.701 154.997 278.561 155.207 278.251L154.107 278.041C153.947 278.371 153.837 278.561 153.607 278.871H152.627C152.507 278.631 152.327 278.331 152.097 278.021L151.027 278.211C151.217 278.431 151.347 278.611 151.497 278.871H151.007ZM151.637 280.661H154.727V280.941H151.637V280.661ZM151.637 281.451H154.727V281.741H151.637V281.451ZM151.637 282.281H154.727V282.561H151.637V282.281ZM153.677 284.751H148.787C148.217 284.751 147.907 284.731 147.597 284.691V285.701C147.937 285.661 148.247 285.641 148.807 285.641H150.027L149.447 286.071C150.037 286.471 150.377 286.781 150.837 287.331L151.657 286.611C151.227 286.201 150.927 285.951 150.477 285.641H153.677V286.181C153.677 286.371 153.607 286.411 153.277 286.411C152.947 286.411 152.587 286.381 152.157 286.331C152.347 286.701 152.417 286.931 152.457 287.361C152.837 287.381 152.997 287.381 153.217 287.381C154.447 287.381 154.747 287.221 154.747 286.541V285.641H155.267C155.827 285.641 156.157 285.661 156.477 285.701V284.691C156.157 284.731 155.857 284.751 155.287 284.751H154.747V284.411C156.127 284.391 156.127 284.391 156.427 284.381C156.507 283.921 156.507 283.921 156.717 283.461C155.807 283.541 154.537 283.581 152.507 283.581C151.477 283.581 150.977 283.541 150.637 283.441C150.257 283.311 150.057 283.141 149.877 282.781V281.571C149.877 281.051 149.887 280.861 149.917 280.631C149.687 280.661 149.487 280.671 149.157 280.671H148.407C148.027 280.671 147.867 280.661 147.607 280.621V281.601C147.847 281.571 147.997 281.561 148.287 281.561H148.867V282.741C148.397 283.051 147.747 283.391 147.447 283.471L147.867 284.481C148.537 284.101 149.047 283.781 149.357 283.511C149.817 284.241 150.507 284.441 152.527 284.441C152.717 284.441 152.717 284.441 153.677 284.421V284.751ZM147.667 278.861C148.327 279.341 148.697 279.681 149.207 280.261L149.937 279.491C149.327 278.881 149.097 278.691 148.377 278.181L147.667 278.861ZM161.097 279.701C161.057 280.511 160.967 281.031 160.767 281.721C160.447 282.801 159.837 283.871 159.057 284.681C158.387 285.381 157.897 285.761 157.047 286.251C157.427 286.561 157.657 286.861 157.867 287.301C158.957 286.571 159.707 285.871 160.347 285.041C161.017 284.151 161.417 283.301 161.777 282.021C161.937 282.641 162.027 282.891 162.287 283.441C162.577 284.051 162.797 284.431 163.167 284.921C163.847 285.841 164.597 286.571 165.597 287.271C165.877 286.771 166.067 286.511 166.447 286.141C165.767 285.741 165.477 285.531 164.967 285.061C164.277 284.441 163.787 283.841 163.367 283.141C162.657 281.921 162.297 280.601 162.297 279.181C162.297 278.931 162.297 278.841 162.327 278.551C162.097 278.591 161.827 278.601 161.417 278.601H159.827C159.387 278.601 159.177 278.591 158.887 278.551V279.751C159.277 279.721 159.577 279.701 159.847 279.701H161.097Z" fill="#212121"/>
<path d="M46.684 246.267C46.624 245.919 46.624 245.727 46.624 245.199V242.559C46.624 242.451 46.612 242.115 46.6 241.971C46.72 242.031 46.744 242.031 46.9 242.103C48.4 242.739 49.336 243.231 50.56 244.023L51.352 242.763C49.924 241.923 48.616 241.335 47.164 240.879C48.316 239.979 48.94 239.415 49.612 238.635C49.924 238.287 49.936 238.275 50.14 238.119L49.444 237.303C49.216 237.375 48.988 237.411 48.628 237.411H46.6V236.415C46.6 236.019 46.612 235.803 46.66 235.575H45.052C45.1 235.827 45.1 235.995 45.112 236.439V237.423H43.108C42.592 237.423 42.136 237.387 41.824 237.315V238.767C42.268 238.719 42.4 238.707 43.096 238.707C47.416 238.683 47.416 238.683 47.488 238.671C47.644 238.671 47.644 238.671 47.74 238.671C46.708 239.703 45.412 240.579 44.02 241.215C42.808 241.767 41.872 242.079 40.684 242.331C41.056 242.859 41.164 243.063 41.392 243.639C42.856 243.183 43.876 242.775 44.776 242.295C44.932 242.211 45.016 242.163 45.136 242.067C45.136 242.391 45.136 242.595 45.136 242.679V245.199C45.136 245.595 45.112 245.943 45.064 246.267H46.684ZM53.92 238.971C54.46 240.027 54.7 240.663 55.012 241.875L56.368 241.443C55.936 240.099 55.696 239.523 55.192 238.599L53.92 238.971ZM56.488 238.467C56.992 239.451 57.352 240.375 57.58 241.287L58.912 240.867C58.612 239.823 58.384 239.295 57.748 238.107L56.488 238.467ZM60.616 238.347C60.616 238.719 60.556 239.139 60.4 239.727C59.884 241.647 59.08 242.871 57.676 243.891C56.968 244.407 56.476 244.671 55.636 244.995C56.14 245.475 56.284 245.655 56.596 246.183C58.372 245.283 59.368 244.503 60.256 243.291C61.024 242.247 61.564 240.927 61.912 239.295C61.984 238.923 62.008 238.863 62.08 238.683L60.616 238.347ZM68.824 246.039C68.788 245.643 68.776 245.331 68.776 244.707V241.539C68.776 241.203 68.764 241.059 68.728 240.723C68.824 240.783 68.86 240.795 69.136 240.927C71.14 241.851 72.388 242.535 73.384 243.219L74.224 241.803C72.304 240.723 70.42 239.847 68.776 239.271V237.039C68.776 236.295 68.776 236.139 68.824 235.779H67.18C67.228 236.103 67.252 236.415 67.252 237.003V244.695C67.252 245.331 67.24 245.655 67.18 246.039H68.824ZM85.924 236.487C85.504 236.595 85.252 236.619 84.448 236.619H78.64C78.352 236.619 77.968 236.595 77.644 236.559C77.68 236.883 77.68 237.027 77.68 237.531V239.823C77.68 240.363 77.668 240.567 77.632 240.855L79.24 240.843C79.204 240.639 79.204 240.639 79.192 239.787V237.999L84.904 237.987C84.664 240.591 83.764 242.355 82.048 243.519C81.268 244.047 80.632 244.335 79.612 244.635C80.104 245.163 80.248 245.367 80.596 246.015C82.18 245.403 83.38 244.635 84.316 243.639C85.564 242.295 86.128 240.879 86.512 238.071C86.56 237.687 86.596 237.567 86.716 237.219L85.924 236.487ZM88.852 241.731C89.332 241.671 89.464 241.671 90.808 241.671H97.18C98.524 241.671 98.656 241.671 99.136 241.731V240.063C98.608 240.135 98.38 240.147 97.192 240.147H90.796C89.608 240.147 89.38 240.135 88.852 240.063V241.731ZM109.732 237.063C109.456 237.159 109.324 237.183 108.856 237.183L106.228 237.219C106 237.219 105.808 237.231 105.652 237.243C105.772 237.027 105.772 237.027 105.844 236.859C105.964 236.619 105.964 236.619 106 236.547C106.12 236.271 106.12 236.271 106.156 236.211C106.288 235.947 106.288 235.947 106.36 235.839L104.716 235.515C104.668 235.947 104.476 236.415 104.104 237.099C103.228 238.683 102.364 239.643 100.996 240.579C101.62 240.963 101.8 241.119 102.16 241.611C103.3 240.735 104.236 239.703 104.968 238.539L108.58 238.479C107.92 240.627 106.792 242.271 105.076 243.543C104.32 244.107 103.648 244.467 102.448 244.959C102.976 245.415 103.132 245.619 103.468 246.219C105.316 245.367 106.636 244.431 107.74 243.171C108.796 241.983 109.648 240.363 110.2 238.539C110.332 238.107 110.38 237.999 110.5 237.819L109.732 237.063Z" fill="#8560BF"/>
<rect x="193" y="221.5" width="154" height="80" rx="3" fill="#F0E5FF"/>
<path d="M211 263.561C210.34 263.561 209.81 264.091 209.81 264.751C209.81 265.411 210.34 265.941 211 265.941C211.66 265.941 212.19 265.411 212.19 264.751C212.19 264.091 211.66 263.561 211 263.561ZM224.29 262.181C224.06 262.281 224.05 262.291 223.52 262.351L219.88 262.791V261.531C219.88 261.101 219.89 260.891 219.94 260.601H218.56C218.61 260.941 218.62 261.051 218.62 261.551V262.921L217.56 263.051C217.29 263.091 216.86 263.121 216.68 263.121C216.63 263.121 216.55 263.121 216.44 263.111L216.57 264.351C216.9 264.261 216.9 264.261 217.68 264.161L218.62 264.041V266.331C218.62 267.131 218.63 267.281 218.72 267.591C218.83 268.021 219.17 268.391 219.58 268.511C219.96 268.621 220.55 268.681 221.36 268.681C222.02 268.681 222.76 268.631 223.84 268.511C224.1 268.481 224.18 268.481 224.45 268.471L224.39 267.121C223.56 267.371 222.47 267.511 221.32 267.511C220.3 267.511 219.98 267.401 219.91 267.011C219.88 266.841 219.88 266.841 219.87 266.151V263.901C220.91 263.751 221.94 263.621 222.95 263.501C223.1 263.481 223.17 263.471 223.33 263.441C223.15 263.741 223.09 263.831 222.95 264.031C222.51 264.611 221.99 265.061 221.3 265.441C221.76 265.711 221.91 265.821 222.3 266.251C223.46 265.391 224.17 264.551 224.75 263.331C224.89 263.041 224.91 263.011 225.03 262.841L224.29 262.181ZM229.49 262.351L227.63 262.641C227.21 262.701 226.89 262.741 226.53 262.751L226.73 263.981C227 263.901 227.37 263.831 227.83 263.751L229.69 263.461L229.99 265.101L227.56 265.491C227.13 265.561 226.84 265.591 226.5 265.591L226.7 266.821C227.06 266.721 227.24 266.681 227.72 266.601L230.19 266.211L230.55 268.181C230.63 268.651 230.67 268.931 230.68 269.231L232.02 268.991C231.91 268.651 231.9 268.621 231.78 267.961L231.42 266.021L233.8 265.641C234 265.611 234.13 265.591 234.2 265.581C234.25 265.571 234.3 265.561 234.36 265.561C234.57 265.521 234.61 265.521 234.82 265.511L234.6 264.311C234.33 264.391 233.98 264.471 233.56 264.541L231.21 264.911L230.91 263.271L233.02 262.941C233.71 262.831 233.71 262.831 233.98 262.811L233.77 261.611C233.51 261.701 233.3 261.751 232.81 261.831L230.7 262.161L230.54 261.291C230.47 260.901 230.43 260.611 230.42 260.351L229.1 260.561C229.21 260.841 229.25 261.011 229.34 261.501L229.49 262.351ZM241.637 267.671C241.807 266.771 241.917 266.061 242.067 264.961C242.177 264.131 242.177 264.131 242.297 263.821L241.747 263.341C241.507 263.411 241.357 263.431 241.007 263.431H238.477C238.087 263.431 237.807 263.411 237.557 263.371V264.501C237.817 264.471 237.967 264.461 238.447 264.461H240.927C240.827 265.371 240.617 266.781 240.447 267.671H237.497C237.037 267.671 236.857 267.661 236.577 267.611V268.751C236.847 268.721 237.057 268.711 237.497 268.711H242.687C243.107 268.711 243.337 268.721 243.607 268.751V267.611C243.337 267.661 243.147 267.671 242.687 267.671H241.637ZM246.635 260.661C246.665 260.921 246.675 261.051 246.675 261.561V264.311C246.675 264.671 246.655 264.981 246.625 265.211H247.995C247.955 264.961 247.955 264.831 247.955 264.331V261.571C247.955 261.041 247.955 260.951 247.995 260.671L246.635 260.661ZM251.145 260.681C251.185 260.911 251.195 261.121 251.195 261.631V262.881C251.195 263.681 251.185 264.121 251.145 264.551C251.035 265.871 250.705 266.481 249.765 267.101C249.165 267.501 248.585 267.711 247.605 267.901C248.025 268.431 248.125 268.601 248.305 269.091C249.225 268.821 249.725 268.621 250.255 268.321C251.295 267.741 251.935 266.991 252.225 265.991C252.405 265.361 252.475 264.521 252.485 262.961V261.611C252.485 261.041 252.495 260.931 252.535 260.681H251.145ZM262.335 264.471C263.015 264.471 263.245 264.481 263.605 264.521V263.331C263.225 263.391 262.995 263.401 262.315 263.401H256.465C255.775 263.401 255.555 263.391 255.175 263.331V264.521C255.535 264.481 255.765 264.471 256.445 264.471H258.885C258.855 265.251 258.705 265.901 258.445 266.361C258.025 267.131 257.275 267.661 256.075 268.031C256.505 268.451 256.635 268.621 256.885 269.131C258.235 268.591 258.965 268.041 259.495 267.161C259.925 266.451 260.145 265.621 260.195 264.471H262.335ZM256.185 262.031C256.515 261.991 256.755 261.981 257.455 261.981H261.335C262.035 261.981 262.275 261.991 262.605 262.031V260.811C262.235 260.871 262.035 260.881 261.315 260.881H257.475C256.755 260.881 256.555 260.871 256.185 260.811V262.031ZM271.315 262.091C271.155 262.341 271.035 262.481 270.705 262.811C269.865 263.631 268.985 264.261 267.865 264.841C267.045 265.261 266.435 265.491 265.495 265.741C265.815 266.151 265.905 266.321 266.115 266.781C267.325 266.361 268.045 266.041 268.945 265.511V268.191C268.945 268.661 268.935 268.851 268.895 269.141L270.185 269.151C270.145 268.901 270.135 268.651 270.135 268.191V264.791C270.765 264.341 271.495 263.691 271.995 263.151C272.195 262.931 272.195 262.931 272.335 262.821L271.315 262.091ZM276.256 261.061C276.256 261.121 276.256 261.171 276.256 261.201C276.256 261.421 276.226 261.761 276.166 262.171C276.006 263.431 275.656 264.671 275.226 265.601C274.806 266.521 274.396 267.131 273.796 267.731C274.276 267.991 274.466 268.141 274.936 268.591C276.276 267.051 277.056 265.081 277.476 262.211L277.506 261.971L277.556 261.681L277.576 261.511C277.586 261.431 277.596 261.421 277.626 261.311L276.256 261.061ZM279.226 261.301C279.276 261.451 279.306 261.611 279.366 262.021C279.756 264.711 280.686 267.011 282.016 268.601C282.396 268.171 282.606 268.001 283.116 267.681C282.076 266.561 281.376 265.211 280.886 263.361C280.656 262.501 280.476 261.521 280.466 261.061L279.226 261.301ZM282.146 260.501C281.516 260.501 280.996 261.021 280.996 261.651C280.996 262.291 281.516 262.811 282.146 262.811C282.786 262.811 283.306 262.291 283.306 261.651C283.306 261.021 282.786 260.501 282.146 260.501ZM282.146 261.001C282.516 261.001 282.806 261.291 282.806 261.651C282.806 262.011 282.516 262.311 282.146 262.311C281.786 262.311 281.496 262.011 281.496 261.651C281.496 261.291 281.786 261.001 282.146 261.001ZM284.896 263.111C285.346 263.991 285.546 264.521 285.806 265.531L286.936 265.171C286.576 264.051 286.376 263.571 285.956 262.801L284.896 263.111ZM287.036 262.691C287.456 263.511 287.756 264.281 287.946 265.041L289.056 264.691C288.806 263.821 288.616 263.381 288.086 262.391L287.036 262.691ZM290.476 262.591C290.476 262.901 290.426 263.251 290.296 263.741C289.866 265.341 289.196 266.361 288.026 267.211C287.436 267.641 287.026 267.861 286.326 268.131C286.746 268.531 286.866 268.681 287.126 269.121C288.606 268.371 289.436 267.721 290.176 266.711C290.816 265.841 291.266 264.741 291.556 263.381C291.616 263.071 291.636 263.021 291.696 262.871L290.476 262.591ZM300.696 260.431C300.356 260.621 300.066 260.731 299.486 260.901C298.256 261.251 296.546 261.481 295.206 261.481C295.056 261.481 294.896 261.481 294.586 261.461C294.806 261.941 294.856 262.091 294.956 262.541C296.606 262.461 296.916 262.431 297.726 262.311C297.726 263.011 297.726 263.401 297.706 263.821H295.146C294.466 263.821 294.296 263.811 293.926 263.751V264.951C294.296 264.911 294.486 264.901 295.126 264.901H297.596C297.556 265.231 297.526 265.401 297.486 265.571C297.316 266.221 296.936 266.791 296.336 267.271C295.886 267.641 295.506 267.851 294.786 268.111C295.206 268.471 295.366 268.661 295.656 269.171C296.116 268.961 296.306 268.851 296.586 268.671C297.286 268.221 297.866 267.661 298.216 267.081C298.566 266.501 298.776 265.831 298.886 264.901H301.096C301.736 264.901 301.926 264.911 302.296 264.951V263.751C301.926 263.811 301.756 263.821 301.076 263.821H298.956C298.976 263.481 298.976 263.481 298.986 262.131C299.766 261.981 300.086 261.901 300.656 261.721C301.376 261.481 301.376 261.481 301.496 261.451L300.696 260.431ZM308.676 262.141C309.116 262.181 309.376 262.261 309.686 262.441C310.486 262.921 310.916 263.701 310.916 264.661C310.916 265.731 310.396 266.681 309.526 267.161C309.056 267.431 308.456 267.591 307.536 267.711C307.856 268.131 307.976 268.351 308.146 268.881C308.846 268.761 309.236 268.661 309.716 268.461C311.246 267.841 312.146 266.461 312.146 264.731C312.146 262.481 310.586 261.021 308.186 261.021C306.766 261.021 305.586 261.501 304.746 262.421C304.036 263.201 303.646 264.231 303.646 265.331C303.646 266.941 304.466 268.101 305.606 268.101C306.426 268.101 307.066 267.511 307.636 266.221C308.136 265.091 308.486 263.711 308.676 262.141ZM307.456 262.151C307.336 263.281 307.006 264.631 306.626 265.531C306.266 266.391 305.926 266.811 305.596 266.811C305.156 266.811 304.806 266.161 304.806 265.341C304.806 264.271 305.326 263.241 306.166 262.641C306.576 262.351 306.936 262.211 307.456 262.151ZM319.736 266.911C319.836 267.261 319.866 267.361 319.916 267.751C320.096 267.761 320.226 267.761 320.286 267.761C320.856 267.761 321.236 267.731 321.416 267.671C321.766 267.561 321.896 267.331 321.896 266.791V263.361C321.896 262.831 321.906 262.591 321.936 262.291C321.646 262.321 321.406 262.331 320.956 262.331H320.516C320.716 261.941 320.716 261.941 320.816 261.701H321.216C321.636 261.701 321.906 261.711 322.186 261.751V260.761C321.906 260.801 321.626 260.821 321.156 260.821H319.446C319.456 260.461 319.466 260.341 319.506 260.101H318.326C318.366 260.341 318.376 260.471 318.386 260.821H316.726C316.256 260.821 315.966 260.801 315.676 260.761V261.741C315.976 261.711 316.176 261.701 316.706 261.701H317.006C317.116 261.911 317.196 262.091 317.296 262.331H317.016C316.506 262.331 316.266 262.321 315.976 262.301C315.996 262.621 316.006 262.821 316.006 263.341V266.571C316.006 266.991 315.986 267.431 315.966 267.701H317.046C317.016 267.511 317.006 267.031 317.006 266.571V263.171H318.476V263.651H318.036C317.696 263.651 317.466 263.641 317.216 263.611V264.421C317.486 264.391 317.706 264.381 318.036 264.381H318.476V264.871H318.186C317.816 264.871 317.656 264.861 317.486 264.841C317.506 265.061 317.516 265.191 317.516 265.501V266.711C317.516 266.991 317.506 267.161 317.486 267.371H318.386V266.911H319.736ZM320.346 265.511C320.346 265.231 320.356 265.031 320.376 264.841C320.186 264.861 320.006 264.871 319.706 264.871H319.396V264.381H319.856C320.196 264.381 320.406 264.391 320.686 264.421V263.611C320.436 263.641 320.196 263.651 319.856 263.651H319.396V263.171H320.896V266.611C320.896 266.791 320.836 266.821 320.516 266.821C320.496 266.821 320.446 266.821 320.346 266.821C320.346 266.741 320.346 266.611 320.346 266.381V265.511ZM318.366 262.331C318.216 261.941 318.216 261.941 318.096 261.701H319.696C319.596 261.971 319.516 262.171 319.446 262.331H318.366ZM318.366 265.581H319.486V266.201H318.366V265.581ZM313.136 260.991C313.786 261.571 314.216 262.051 314.816 262.871L315.646 262.061C315.046 261.291 314.676 260.911 313.936 260.241L313.136 260.991ZM313.096 265.021C313.336 264.981 313.496 264.971 313.766 264.971H314.296V267.121C313.776 267.591 313.266 267.951 312.896 268.101L313.386 269.241C313.986 268.791 314.406 268.441 314.816 268.041C315.196 268.531 315.586 268.801 316.086 268.951C316.626 269.111 317.286 269.161 318.976 269.161C320.076 269.161 321.176 269.141 322.166 269.101C322.246 268.551 322.276 268.441 322.466 267.961C321.356 268.101 320.056 268.161 318.046 268.161C317.396 268.161 316.876 268.111 316.426 268.021C316.206 267.971 315.986 267.871 315.776 267.721C315.606 267.591 315.496 267.461 315.346 267.191V265.031C315.346 264.501 315.356 264.251 315.386 263.941C315.146 263.981 314.926 263.991 314.626 263.991H313.896C313.506 263.991 313.346 263.981 313.096 263.941V265.021ZM327.066 266.231V267.881C327.066 268.471 327.046 268.761 327.006 269.061H328.186C328.146 268.771 328.136 268.451 328.136 267.871V266.231H330.536V267.981C330.536 268.191 330.446 268.231 330.036 268.231C329.716 268.231 329.276 268.201 328.776 268.151C328.936 268.571 329.006 268.811 329.056 269.191C329.356 269.211 329.866 269.231 330.176 269.231C331.316 269.231 331.616 269.021 331.616 268.191V261.621C331.616 261.081 331.626 260.831 331.656 260.491C331.346 260.521 331.066 260.531 330.506 260.531H324.896C324.356 260.531 324.096 260.521 323.746 260.491C323.786 260.901 323.796 261.221 323.796 261.941C323.796 263.121 323.756 264.541 323.706 265.381C323.676 265.921 323.606 266.441 323.506 266.911C323.366 267.551 323.136 268.081 322.776 268.601C323.186 268.881 323.326 268.991 323.746 269.391C324.326 268.501 324.626 267.561 324.766 266.231H327.066ZM327.066 265.241H324.836C324.836 265.041 324.836 264.971 324.846 264.501C324.846 264.361 324.856 264.161 324.856 263.871H327.066V265.241ZM328.136 265.241V263.871H330.536V265.241H328.136ZM327.066 262.891H324.876L324.886 262.611V261.581H327.066V262.891ZM328.136 262.891V261.581H330.536V262.891H328.136ZM211 281.561C210.34 281.561 209.81 282.091 209.81 282.751C209.81 283.411 210.34 283.941 211 283.941C211.66 283.941 212.19 283.411 212.19 282.751C212.19 282.091 211.66 281.561 211 281.561ZM220.64 279.741C220.21 280.491 219.88 280.931 219.22 281.601C218.29 282.561 217.36 283.251 216.07 283.931C216.43 284.331 216.61 284.591 216.77 284.951C217.66 284.391 218.18 284.031 218.67 283.631C219.3 283.111 219.78 282.631 220.13 282.171C220.12 282.611 220.12 282.741 220.12 283.101V286.101C220.12 286.521 220.09 286.981 220.05 287.361H221.34C221.29 286.981 221.27 286.571 221.27 286.101V280.851C221.66 280.321 221.78 280.131 221.98 279.741H224C224.43 279.741 224.9 279.761 225.3 279.801V278.621C224.98 278.661 224.56 278.681 223.97 278.681H217.61C217.11 278.681 216.68 278.661 216.28 278.621V279.801C216.68 279.761 217.22 279.741 217.65 279.741H220.64ZM221.35 281.961C222.34 283.181 223.39 284.071 224.9 284.941C225.12 284.501 225.3 284.231 225.59 283.851C224.86 283.531 224.29 283.171 223.54 282.571C222.96 282.101 222.58 281.731 222.08 281.151L221.35 281.961ZM227.33 283.331C226.78 283.331 226.46 283.311 226.18 283.271V284.311C226.51 284.281 226.84 284.261 227.33 284.261H228.4C228.05 284.671 227.86 284.851 227.41 285.241C228.42 285.481 228.59 285.521 229.75 285.831C228.86 286.161 227.77 286.321 226.39 286.321C226.34 286.321 226.27 286.321 226.17 286.321C226.43 286.761 226.5 286.931 226.62 287.341C228.61 287.241 229.96 286.911 231.13 286.251C232.66 286.801 232.66 286.801 233.51 287.191C233.64 287.251 233.84 287.341 234.09 287.451L234.79 286.531C233.68 286.081 233.32 285.951 232.05 285.561C232.43 285.171 232.7 284.781 232.96 284.261H233.86C234.35 284.261 234.69 284.281 235.02 284.311V283.271C234.74 283.321 234.44 283.331 233.86 283.331H230.33C230.45 283.131 230.48 283.071 230.69 282.701H233.22C233.79 282.701 234.1 282.711 234.35 282.741C234.33 282.491 234.32 282.261 234.32 281.761V281.081C234.32 280.591 234.33 280.341 234.36 280.061C234.07 280.101 233.75 280.111 233.24 280.111H232.08V279.481H233.87C234.35 279.481 234.71 279.501 235.03 279.531V278.471C234.76 278.511 234.37 278.531 233.79 278.531H227.43C226.87 278.531 226.5 278.511 226.2 278.471V279.531C226.51 279.501 226.88 279.481 227.35 279.481H229.01V280.111H227.92C227.45 280.111 227.13 280.101 226.81 280.061C226.84 280.361 226.85 280.621 226.85 281.081V281.771C226.85 282.221 226.84 282.451 226.81 282.741C227.12 282.711 227.45 282.701 227.97 282.701H229.49C229.35 282.971 229.28 283.091 229.12 283.331H227.33ZM231.77 284.261C231.54 284.661 231.26 284.961 230.9 285.221C230.55 285.121 230.41 285.081 230.3 285.061C229.52 284.881 229.52 284.881 229.17 284.781C229.42 284.531 229.5 284.441 229.65 284.261H231.77ZM230 279.481H231.09V280.111H230V279.481ZM229.01 280.921V281.871H227.91V280.921H229.01ZM230 280.921H231.09V281.871H230V280.921ZM232.08 280.921H233.25V281.871H232.08V280.921ZM238.45 278.261C238.43 278.691 238.32 279.291 238.15 280.001C237.93 280.011 237.76 280.011 237.64 280.011C237.03 280.011 236.65 279.991 236.29 279.921V281.061L236.82 281.071C237.03 281.081 237.09 281.081 237.22 281.081C237.34 281.081 237.4 281.081 237.85 281.071C237.47 282.221 237.3 282.631 236.91 283.431C236.57 284.121 236.29 284.571 235.94 285.031L237.09 285.671C237.15 285.551 237.15 285.551 237.28 285.311C237.66 284.611 237.75 284.431 237.98 283.941C238.43 282.991 238.79 282.041 239.08 281.041C239.7 280.991 240.31 280.921 240.67 280.861C240.86 280.821 240.88 280.821 240.99 280.811L240.96 279.661C240.57 279.781 240.05 279.871 239.36 279.941C239.47 279.501 239.52 279.301 239.57 279.061C239.67 278.581 239.67 278.581 239.73 278.391L238.45 278.261ZM244.85 280.861C243.96 280.321 243.21 279.971 242.03 279.521L241.43 280.491C242.55 280.881 243.44 281.311 244.31 281.891L244.85 280.861ZM244.81 285.371C244.74 285.311 244.74 285.311 244.66 285.231C244.5 285.101 244.46 285.061 244.31 284.961C243.55 284.411 243.45 284.361 242.73 284.041C242.66 283.471 242.64 283.071 242.64 282.671C242.64 282.261 242.66 282.031 242.76 281.661L241.6 281.601C241.54 281.931 241.52 282.221 241.52 282.611C241.52 282.911 241.54 283.301 241.57 283.761C241.15 283.691 240.94 283.671 240.64 283.671C239.37 283.671 238.48 284.381 238.48 285.391C238.48 286.411 239.34 287.071 240.66 287.071C241.37 287.071 241.97 286.871 242.32 286.511C242.58 286.251 242.75 285.821 242.75 285.451C242.75 285.411 242.74 285.341 242.73 285.251C243.32 285.591 243.9 286.061 244.26 286.491L244.81 285.371ZM241.61 284.821C241.61 284.821 241.63 285.061 241.63 285.161C241.63 285.721 241.3 286.001 240.62 286.001C240 286.001 239.64 285.761 239.64 285.351C239.64 284.931 240.06 284.661 240.71 284.661C241.02 284.661 241.26 284.701 241.61 284.821ZM253.89 278.901C253.61 278.981 253.52 278.991 252.92 278.991H247.7C247.01 278.991 246.7 278.971 246.32 278.911V280.161C246.73 280.111 246.98 280.101 247.68 280.101H252.93C252.7 280.581 252.39 280.991 251.98 281.371C251.57 281.761 251.19 281.991 250.52 282.291C250.97 282.631 251.12 282.781 251.42 283.201C251.89 282.941 252.22 282.721 252.62 282.371C253.23 281.851 253.81 281.101 254.16 280.361C254.42 279.841 254.42 279.831 254.56 279.661L253.89 278.901ZM249.14 280.921C249.18 281.131 249.19 281.221 249.19 281.521C249.19 283.411 248.87 284.271 247.85 285.081C247.36 285.471 246.91 285.691 246.1 285.931C246.5 286.351 246.63 286.531 246.89 287.071C248.14 286.551 248.87 286.041 249.47 285.271C250.15 284.401 250.42 283.441 250.46 281.731C250.47 281.121 250.47 281.111 250.5 280.921H249.14ZM263.26 280.141C263.01 280.221 262.92 280.231 262.47 280.231L260.25 280.241C260.28 279.921 260.28 279.831 260.29 279.611C260.31 279.091 260.31 279.091 260.33 278.881C260.33 278.811 260.34 278.751 260.34 278.691C260.35 278.551 260.36 278.511 260.38 278.381L259.04 278.351C259.07 278.531 259.07 278.611 259.07 278.741V278.991C259.07 279.281 259.05 279.861 259.02 280.241L257.27 280.251C256.77 280.251 256.5 280.231 256.16 280.171L256.17 281.401C256.5 281.361 256.64 281.351 257.25 281.351L258.91 281.341C258.9 281.411 258.88 281.511 258.86 281.651C258.77 282.351 258.62 282.841 258.35 283.391C257.82 284.461 257 285.251 255.75 285.911C256.17 286.281 256.31 286.441 256.65 286.971C257.91 286.171 258.8 285.261 259.35 284.201C259.8 283.341 260.01 282.591 260.15 281.341L262.48 281.331C262.48 282.481 262.38 283.841 262.26 284.531C262.1 285.401 261.95 285.621 261.52 285.621C261.19 285.621 260.79 285.551 260.2 285.391C260.38 285.851 260.41 286.041 260.43 286.671C260.95 286.751 261.29 286.781 261.67 286.781C262.87 286.781 263.22 286.371 263.48 284.641C263.58 283.981 263.69 282.441 263.72 281.311C263.73 280.961 263.75 280.821 263.83 280.641L263.26 280.141ZM273.19 279.871C272.95 279.951 272.95 279.951 272.21 279.951H270.41V279.091C270.41 278.811 270.43 278.541 270.46 278.371H269.07C269.11 278.601 269.12 278.781 269.12 279.101V279.961H267.16C266.61 279.961 266.43 279.951 266.08 279.911C266.11 280.181 266.12 280.441 266.12 280.861V282.311C266.12 282.591 266.1 282.901 266.07 283.151H267.41C267.39 282.931 267.38 282.661 267.38 282.351V281.061H272.26C272.07 282.901 271.31 284.171 269.86 285.071C269.23 285.461 268.68 285.671 267.73 285.901C268.18 286.401 268.3 286.581 268.53 287.091C269.4 286.791 269.92 286.561 270.52 286.191C271.7 285.471 272.5 284.581 272.99 283.431C273.3 282.721 273.45 282.161 273.62 281.011C273.67 280.711 273.68 280.651 273.77 280.461L273.19 279.871ZM275.82 280.131C276.75 280.651 277.57 281.311 278.37 282.161L279.23 281.071C278.46 280.341 277.84 279.881 276.65 279.141L275.82 280.131ZM276.17 286.731C276.4 286.651 276.43 286.641 276.83 286.561C278.38 286.231 279.62 285.741 280.64 285.061C282.01 284.151 282.96 282.971 283.81 281.141C283.3 280.781 283.14 280.631 282.75 280.161C282.45 280.971 282.17 281.521 281.73 282.161C280.94 283.301 280.01 284.071 278.76 284.611C277.85 285.011 276.66 285.301 275.8 285.351L276.17 286.731ZM288.42 287.001C288.39 286.671 288.38 286.411 288.38 285.891V283.251C288.38 282.971 288.37 282.851 288.34 282.571C288.42 282.621 288.45 282.631 288.68 282.741C290.35 283.511 291.39 284.081 292.22 284.651L292.92 283.471C291.32 282.571 289.75 281.841 288.38 281.361V279.501C288.38 278.881 288.38 278.751 288.42 278.451H287.05C287.09 278.721 287.11 278.981 287.11 279.471V285.881C287.11 286.411 287.1 286.681 287.05 287.001H288.42ZM299.98 280.141C300.42 280.181 300.68 280.261 300.99 280.441C301.79 280.921 302.22 281.701 302.22 282.661C302.22 283.731 301.7 284.681 300.83 285.161C300.36 285.431 299.76 285.591 298.84 285.711C299.16 286.131 299.28 286.351 299.45 286.881C300.15 286.761 300.54 286.661 301.02 286.461C302.55 285.841 303.45 284.461 303.45 282.731C303.45 280.481 301.89 279.021 299.49 279.021C298.07 279.021 296.89 279.501 296.05 280.421C295.34 281.201 294.95 282.231 294.95 283.331C294.95 284.941 295.77 286.101 296.91 286.101C297.73 286.101 298.37 285.511 298.94 284.221C299.44 283.091 299.79 281.711 299.98 280.141ZM298.76 280.151C298.64 281.281 298.31 282.631 297.93 283.531C297.57 284.391 297.23 284.811 296.9 284.811C296.46 284.811 296.11 284.161 296.11 283.341C296.11 282.271 296.63 281.241 297.47 280.641C297.88 280.351 298.24 280.211 298.76 280.151ZM306.66 280.881H305.6C305.35 280.881 305.09 280.871 304.83 280.841C304.86 281.091 304.87 281.321 304.87 281.691V286.211C304.87 286.661 304.85 286.991 304.8 287.371H305.98C305.94 287.021 305.92 286.651 305.92 286.201V285.151H308.4V286.121C308.4 286.281 308.34 286.331 308.14 286.331C307.91 286.331 307.61 286.301 307.09 286.231C307.22 286.611 307.27 286.821 307.31 287.221C307.87 287.261 308.01 287.271 308.31 287.271C308.79 287.271 309.02 287.211 309.2 287.051C309.37 286.891 309.44 286.681 309.44 286.291V281.661C309.44 281.321 309.45 281.091 309.48 280.841C309.18 280.871 308.96 280.881 308.59 280.881H307.74V278.941C307.74 278.581 307.76 278.361 307.8 278.131H306.6C306.64 278.341 306.66 278.591 306.66 278.951V280.881ZM305.92 283.501H308.4V284.231H305.92V283.501ZM308.4 282.571H305.92V281.831H308.4V282.571ZM304.48 278.841C304.95 279.551 305.16 279.971 305.44 280.761L306.33 280.291C306.01 279.461 305.85 279.131 305.37 278.351L304.48 278.841ZM308.87 278.381C308.56 279.261 308.38 279.641 307.92 280.341L308.82 280.811C309.22 280.181 309.38 279.881 309.85 278.841L308.87 278.381ZM310.18 278.931C310.22 279.211 310.23 279.501 310.23 279.991V283.981C310.23 284.551 310.22 284.761 310.18 285.051H311.32C311.28 284.791 311.27 284.571 311.27 283.991V279.971C311.27 279.461 311.28 279.211 311.32 278.931H310.18ZM312.18 278.251C312.22 278.551 312.24 278.911 312.24 279.481V285.961C312.24 286.211 312.16 286.261 311.76 286.261C311.39 286.261 311.01 286.231 310.51 286.161C310.67 286.551 310.73 286.751 310.8 287.231C311.35 287.261 311.55 287.271 311.79 287.271C312.36 287.271 312.71 287.211 312.94 287.061C313.21 286.891 313.29 286.671 313.29 286.121V279.461C313.29 278.861 313.31 278.521 313.36 278.251H312.18ZM319.65 283.641V286.021C319.65 286.221 319.54 286.281 319.16 286.281C318.92 286.281 318.5 286.241 318.2 286.191C318.38 286.581 318.45 286.851 318.48 287.251C318.93 287.271 319.17 287.281 319.37 287.281C320.43 287.281 320.71 287.071 320.71 286.271V283.641H322.35C322.76 283.641 323.06 283.661 323.31 283.701V282.611C323 282.651 322.81 282.661 322.35 282.661H320.71V281.851H321.46C321.9 281.851 321.98 281.851 322.31 281.881V281.201C322.62 281.411 322.79 281.511 323.22 281.741C323.35 281.241 323.44 281.021 323.67 280.631C322.34 280.061 321.38 279.261 320.74 278.191H319.63C319.29 278.811 319 279.181 318.46 279.681C318.08 280.041 317.79 280.251 317.31 280.511C317.51 280.051 317.61 279.791 317.79 279.261C317.84 279.121 317.85 279.101 317.94 278.901L317.36 278.401C317.19 278.431 316.98 278.441 316.65 278.441H315.32C315 278.441 314.74 278.431 314.56 278.411C314.58 278.691 314.59 279.001 314.59 279.361V286.121C314.59 286.591 314.57 287.021 314.53 287.351H315.68C315.65 287.011 315.63 286.551 315.63 286.131V279.401H316.71C316.47 280.241 316.23 280.801 315.78 281.571C316.17 281.961 316.32 282.191 316.46 282.661C316.55 282.931 316.59 283.251 316.59 283.581C316.59 284.001 316.49 284.141 316.18 284.141C316.06 284.141 315.97 284.131 315.71 284.111C315.86 284.441 315.9 284.621 315.91 285.111C315.99 285.111 316.06 285.111 316.09 285.111C317.19 285.111 317.58 284.731 317.59 283.641H319.65ZM319.65 282.661H317.47C317.35 282.201 317.24 281.981 316.87 281.461C317.05 281.101 317.1 281.001 317.19 280.791C317.41 281.071 317.46 281.151 317.66 281.591C317.93 281.431 318 281.381 318.22 281.231V281.881C318.56 281.851 318.63 281.851 319.07 281.851H319.65V282.661ZM319.08 280.911C318.84 280.911 318.78 280.911 318.64 280.911C319.33 280.341 319.7 279.931 320.22 279.141C320.68 279.821 321.21 280.381 321.9 280.901C321.76 280.911 321.67 280.911 321.46 280.911H319.08ZM321.21 284.311C321.66 285.481 321.98 286.011 322.83 286.991C323.1 286.571 323.27 286.371 323.57 286.101C323.17 285.741 323.02 285.571 322.75 285.171C322.45 284.741 322.33 284.501 322.1 283.961L321.21 284.311ZM318.13 283.921C317.92 284.561 317.78 284.851 317.48 285.281C317.22 285.651 317.03 285.841 316.59 286.191C316.92 286.451 317.07 286.611 317.35 287.001C317.8 286.581 317.97 286.381 318.25 285.981C318.61 285.441 318.8 285.071 319.09 284.291L318.13 283.921Z" fill="#212121"/>
<path d="M209.428 238.107V236.871C209.428 236.259 209.428 236.235 209.476 235.839H207.904C207.952 236.151 207.964 236.403 207.964 236.907V238.107H207.256C206.404 238.107 206.164 238.095 205.696 238.023V239.487C206.116 239.439 206.44 239.427 207.232 239.427H207.964V241.203C207.964 241.647 207.952 241.971 207.916 242.235H209.476C209.44 241.923 209.428 241.731 209.428 241.227V239.427H212.536C212.512 240.255 212.512 240.543 212.488 240.819C212.38 242.199 212.032 242.991 211.216 243.699C210.64 244.203 210.064 244.491 208.924 244.839C209.44 245.367 209.596 245.595 209.824 246.111C210.928 245.715 211.516 245.403 212.164 244.851C213.208 243.963 213.724 242.943 213.892 241.407C213.952 240.951 213.952 240.867 213.976 239.427H214.78C215.572 239.427 215.896 239.439 216.316 239.487V238.023C215.848 238.095 215.608 238.107 214.756 238.107H213.988C214 237.387 214 237.387 214 236.655C214 236.187 214.012 236.127 214.048 235.851H212.5C212.548 236.127 212.56 236.391 212.56 237.183V237.567L212.548 238.107H209.428ZM217.852 241.731C218.332 241.671 218.464 241.671 219.808 241.671H226.18C227.524 241.671 227.656 241.671 228.136 241.731V240.063C227.608 240.135 227.38 240.147 226.192 240.147H219.796C218.608 240.147 218.38 240.135 217.852 240.063V241.731ZM231.961 236.511C231.961 236.583 231.961 236.643 231.961 236.679C231.961 236.943 231.925 237.351 231.853 237.843C231.661 239.355 231.241 240.843 230.725 241.959C230.221 243.063 229.729 243.795 229.009 244.515C229.585 244.827 229.813 245.007 230.377 245.547C231.985 243.699 232.921 241.335 233.425 237.891L233.461 237.603L233.521 237.255L233.545 237.051C233.557 236.955 233.569 236.943 233.605 236.811L231.961 236.511ZM235.525 236.799C235.585 236.979 235.621 237.171 235.693 237.663C236.161 240.891 237.277 243.651 238.873 245.559C239.329 245.043 239.581 244.839 240.193 244.455C238.945 243.111 238.105 241.491 237.517 239.271C237.241 238.239 237.025 237.063 237.013 236.511L235.525 236.799ZM237.133 236.055C237.589 236.727 237.841 237.243 238.117 238.011L239.029 237.723C238.741 236.919 238.477 236.415 238.033 235.791L237.133 236.055ZM240.601 237.243C240.337 236.523 240.073 236.019 239.617 235.383L238.729 235.635C239.113 236.187 239.413 236.787 239.689 237.531L240.601 237.243ZM241.008 241.731C241.488 241.671 241.62 241.671 242.964 241.671H249.336C250.68 241.671 250.812 241.671 251.292 241.731V240.063C250.764 240.135 250.536 240.147 249.348 240.147H242.952C241.764 240.147 241.536 240.135 241.008 240.063V241.731Z" fill="#8560BF"/>
<path d="M277.118 159.103C277.445 159.301 277.622 159.674 277.568 160.052L277.185 162.747C277.131 163.125 276.857 163.435 276.488 163.533L272.61 164.568C272.338 164.641 272.113 164.832 271.986 165.084C271.641 165.77 271.244 166.425 270.797 167.041C270.626 167.277 270.561 167.574 270.63 167.857L271.548 171.596C271.64 171.972 271.495 172.367 271.181 172.594L268.9 174.241C268.604 174.455 268.211 174.48 267.889 174.306L264.316 172.365C264.077 172.235 263.795 172.215 263.537 172.301C262.779 172.551 261.993 172.744 261.188 172.871C260.909 172.914 260.659 173.07 260.507 173.307L258.396 176.593C258.195 176.906 257.83 177.073 257.462 177.021L254.585 176.612C254.216 176.56 253.912 176.298 253.806 175.941L252.693 172.194C252.613 171.926 252.419 171.708 252.165 171.588C251.427 171.239 250.725 170.838 250.066 170.387C249.841 170.234 249.563 170.174 249.297 170.233L245.333 171.107C244.975 171.186 244.604 171.053 244.378 170.764L242.641 168.54C242.402 168.235 242.373 167.815 242.566 167.479L244.489 164.143C244.634 163.891 244.655 163.588 244.556 163.314C244.298 162.599 244.095 161.86 243.957 161.106C243.906 160.827 243.743 160.579 243.5 160.432L240.074 158.361C239.747 158.163 239.57 157.79 239.624 157.412L240.006 154.717C240.06 154.339 240.334 154.029 240.703 153.931L244.582 152.896C244.854 152.823 245.079 152.632 245.205 152.38C245.55 151.694 245.948 151.039 246.395 150.423C246.565 150.187 246.631 149.89 246.561 149.607L245.644 145.868C245.551 145.492 245.696 145.097 246.011 144.87L248.291 143.223C248.588 143.009 248.981 142.984 249.303 143.158L252.876 145.099C253.115 145.229 253.397 145.248 253.655 145.163C254.413 144.913 255.198 144.72 256.003 144.593C256.282 144.55 256.532 144.394 256.685 144.157L258.795 140.871C258.996 140.558 259.361 140.391 259.73 140.443L262.607 140.852C262.975 140.904 263.279 141.166 263.385 141.523L264.498 145.27C264.578 145.538 264.773 145.756 265.026 145.876C265.765 146.225 266.467 146.626 267.127 147.077C267.351 147.231 267.628 147.29 267.893 147.232L271.866 146.363C272.223 146.285 272.594 146.419 272.819 146.707L274.551 148.924C274.789 149.229 274.819 149.649 274.625 149.985L272.703 153.321C272.557 153.573 272.537 153.876 272.636 154.15C272.894 154.865 273.097 155.604 273.234 156.358C273.285 156.637 273.448 156.885 273.691 157.032L277.118 159.103ZM259.457 152.672C255.979 152.178 252.778 154.489 252.303 157.838C251.827 161.187 254.257 164.298 257.735 164.792C261.213 165.286 264.413 162.975 264.889 159.626C265.365 156.277 262.935 153.166 259.457 152.672Z" fill="#B3B3B3"/>
<path d="M315.555 137.834C315.906 137.984 316.134 138.329 316.134 138.71V142.347C316.134 142.729 315.906 143.074 315.555 143.223L310.785 145.251C310.525 145.361 310.33 145.582 310.241 145.849C309.923 146.813 309.524 147.743 309.049 148.629C308.912 148.885 308.89 149.189 308.998 149.459L310.856 154.087C311.001 154.446 310.912 154.858 310.633 155.127L307.936 157.724C307.673 157.978 307.287 158.058 306.944 157.93L302.038 156.103C301.783 156.008 301.5 156.028 301.257 156.15C300.322 156.619 299.337 157.016 298.311 157.323C298.041 157.404 297.815 157.594 297.698 157.851L295.595 162.436C295.44 162.774 295.102 162.991 294.73 162.991H290.876C290.504 162.991 290.166 162.774 290.011 162.436L287.908 157.847C287.791 157.593 287.567 157.404 287.299 157.322C286.273 157.011 285.287 156.619 284.35 156.15C284.107 156.028 283.823 156.009 283.568 156.104L278.672 157.937C278.329 158.066 277.942 157.986 277.678 157.732L274.973 155.127C274.694 154.858 274.606 154.446 274.75 154.087L276.609 149.459C276.717 149.189 276.695 148.885 276.557 148.629C276.081 147.744 275.678 146.815 275.364 145.853C275.276 145.583 275.08 145.361 274.819 145.249L270.061 143.224C269.71 143.074 269.482 142.729 269.482 142.348V138.711C269.482 138.329 269.71 137.984 270.061 137.835L274.831 135.807C275.09 135.697 275.286 135.476 275.375 135.209C275.693 134.245 276.091 133.315 276.566 132.429C276.704 132.173 276.726 131.869 276.618 131.599L274.76 126.971C274.615 126.611 274.703 126.2 274.983 125.931L277.679 123.334C277.943 123.08 278.329 123 278.672 123.128L283.578 124.955C283.833 125.05 284.115 125.03 284.358 124.908C285.294 124.439 286.279 124.042 287.305 123.735C287.575 123.654 287.801 123.464 287.918 123.207L290.02 118.622C290.175 118.284 290.513 118.067 290.885 118.067H294.739C295.111 118.067 295.449 118.284 295.605 118.622L297.708 123.211C297.825 123.465 298.048 123.654 298.316 123.736C299.343 124.047 300.33 124.44 301.266 124.908C301.51 125.03 301.792 125.05 302.047 124.955L306.953 123.128C307.296 123 307.682 123.08 307.946 123.334L310.642 125.931C310.922 126.2 311.01 126.611 310.865 126.971L309.007 131.599C308.899 131.869 308.921 132.173 309.059 132.429C309.534 133.314 309.937 134.243 310.251 135.205C310.339 135.475 310.536 135.697 310.797 135.809L315.555 137.834ZM292.808 133.002C288.488 133.002 284.992 136.369 284.992 140.529C284.992 144.689 288.488 148.056 292.808 148.056C297.128 148.056 300.624 144.689 300.624 140.529C300.624 136.369 297.128 133.002 292.808 133.002Z" fill="#B3B3B3"/>
<path d="M134.766 187.4C134.766 187.719 134.784 190.32 134.766 190.549C134.728 191.051 134.322 191.501 133.749 191.501H59.7684C59.196 191.501 58.7903 191.051 58.7514 190.549C58.7336 190.32 58.7483 187.719 58.7483 187.4C84.0887 187.4 109.426 187.398 134.766 187.4Z" fill="#B3B3B3"/>
<path d="M65.5587 140.322C65.5587 138.971 66.6536 137.876 68.0043 137.876H125.513C126.864 137.876 127.959 138.971 127.959 140.322V177.967H65.5587V140.322Z" fill="#B3B3B3"/>
<path d="M65.5588 177.967H127.959L134.35 186.593C134.933 187.38 134.371 188.495 133.392 188.495H60.1252C59.1463 188.495 58.5847 187.38 59.1675 186.593L65.5588 177.967Z" fill="#D1D1D1"/>
<path d="M68.567 174.286C68.567 174.54 68.7805 174.743 69.0474 174.743H123.79C124.057 174.743 124.27 174.54 124.27 174.286V145.417H68.567V174.286Z" fill="white"/>
<path d="M68.567 142.029C68.567 141.586 68.9259 141.228 69.3687 141.228H123.469C123.911 141.228 124.27 141.586 124.27 142.029V145.417H68.567V142.029Z" fill="#D1D1D1"/>
<ellipse cx="70.7663" cy="143.563" rx="0.536714" ry="0.540906" fill="white"/>
<ellipse cx="72.4808" cy="143.562" rx="0.536714" ry="0.540906" fill="white"/>
<ellipse cx="74.1949" cy="143.562" rx="0.536714" ry="0.540906" fill="white"/>
<path d="M77.0925 142.391C77.1199 142.205 77.2801 142.066 77.4688 142.066H86.3804C86.572 142.066 86.7338 142.209 86.7578 142.399L87.1295 145.342H76.6587L77.0925 142.391Z" fill="white"/>
<rect x="78.0291" y="143.377" width="7.69166" height="0.645979" rx="0.322989" fill="#D1D1D1"/>
<path d="M214.712 118.551C214.992 118.242 215.39 118.066 215.807 118.066H240.987C241.392 118.066 241.78 118.233 242.059 118.526L246.862 123.574H210.145L214.712 118.551Z" fill="#B3B3B3"/>
<path d="M210.145 123.574H246.862V189.664C246.862 190.678 246.04 191.5 245.026 191.5H211.981C210.967 191.5 210.145 190.678 210.145 189.664V123.574Z" fill="#D1D1D1"/>
<circle cx="228.504" cy="157.537" r="3.67168" fill="#B3B3B3"/>
<path d="M213.483 184.157C213.483 183.143 214.305 182.321 215.319 182.321H241.688C242.702 182.321 243.524 183.143 243.524 184.157V185.993C243.524 187.007 242.702 187.829 241.688 187.829H215.319C214.305 187.829 213.483 187.007 213.483 185.993V184.157Z" fill="#B3B3B3"/>
<path d="M213.483 147.44C213.483 146.426 214.305 145.604 215.319 145.604H241.688C242.702 145.604 243.524 146.426 243.524 147.44V149.276C243.524 150.29 242.702 151.112 241.688 151.112H215.319C214.305 151.112 213.483 150.29 213.483 149.276V147.44Z" fill="#B3B3B3"/>
<path d="M213.483 174.978C213.483 173.964 214.305 173.142 215.319 173.142H241.688C242.702 173.142 243.524 173.964 243.524 174.978V176.814C243.524 177.828 242.702 178.65 241.688 178.65H215.319C214.305 178.65 213.483 177.828 213.483 176.814V174.978Z" fill="#B3B3B3"/>
<path d="M213.483 138.261C213.483 137.247 214.305 136.425 215.319 136.425H241.688C242.702 136.425 243.524 137.247 243.524 138.261V140.097C243.524 141.111 242.702 141.933 241.688 141.933H215.319C214.305 141.933 213.483 141.111 213.483 140.097V138.261Z" fill="#B3B3B3"/>
<path d="M213.483 165.799C213.483 164.785 214.305 163.963 215.319 163.963H241.688C242.702 163.963 243.524 164.785 243.524 165.799V167.635C243.524 168.648 242.702 169.47 241.688 169.47H215.319C214.305 169.47 213.483 168.648 213.483 167.635V165.799Z" fill="#B3B3B3"/>
<path d="M213.483 129.081C213.483 128.068 214.305 127.246 215.319 127.246H241.688C242.702 127.246 243.524 128.068 243.524 129.081V130.917C243.524 131.931 242.702 132.753 241.688 132.753H215.319C214.305 132.753 213.483 131.931 213.483 130.917V129.081Z" fill="#B3B3B3"/>
<path d="M182.532 161.33L155.759 161.33" stroke="#B2B2B2" stroke-width="5"/>
<path d="M157.506 161.32L159.005 167.272C159.057 167.479 158.833 167.646 158.65 167.537L148.728 161.674C148.466 161.52 148.466 161.141 148.728 160.986L158.646 155.125C158.83 155.016 159.054 155.184 159.001 155.391L157.507 161.202C157.497 161.241 157.497 161.281 157.506 161.32Z" fill="#B2B2B2"/>
<path d="M180.784 161.097L179.286 155.145C179.234 154.938 179.457 154.771 179.64 154.88L189.562 160.743C189.824 160.897 189.824 161.276 189.562 161.431L179.644 167.292C179.46 167.401 179.236 167.233 179.289 167.026L180.784 161.215C180.793 161.176 180.794 161.136 180.784 161.097Z" fill="#B2B2B2"/>
<rect x="27" y="28" width="319" height="62" rx="3" fill="#F0E5FF"/>
<path d="M45.1101 70.0608C44.4501 70.0608 43.9201 70.5908 43.9201 71.2508C43.9201 71.9108 44.4501 72.4408 45.1101 72.4408C45.7701 72.4408 46.3001 71.9108 46.3001 71.2508C46.3001 70.5908 45.7701 70.0608 45.1101 70.0608ZM57.8001 69.1208C57.9701 68.8908 58.1601 68.6108 58.2801 68.3908C58.4901 68.0508 58.6101 67.8508 58.6901 67.7508L58.2201 67.2508C57.9601 67.2808 57.7601 67.2908 57.3601 67.2908H56.3101C56.4601 66.9908 56.5601 66.8208 56.5901 66.7608L55.4801 66.5808C55.4101 66.8208 55.3101 67.0308 55.1101 67.3608C54.7501 67.9708 54.3401 68.4408 53.8301 68.8508V67.8308C53.8301 67.4008 53.8401 67.1408 53.8601 66.9108C53.6501 66.9508 53.4501 66.9608 53.0701 66.9608H51.9901C51.6301 66.9608 51.3901 66.9508 51.0801 66.9108C51.1201 67.3308 51.1301 67.6808 51.1301 69.0108C51.1301 71.2408 51.0601 72.7308 50.9301 73.5908C50.8301 74.2208 50.7101 74.6008 50.4601 75.1008C50.8001 75.3408 50.9801 75.5108 51.3301 75.9108C51.5301 75.4908 51.6201 75.2208 51.7201 74.7608C51.8301 74.2708 51.9601 73.3508 52.0201 72.5908H52.9001V74.5208C52.9001 74.7308 52.8501 74.7708 52.5701 74.7708C52.4301 74.7708 52.2401 74.7508 51.9801 74.7008C52.1401 75.1208 52.1901 75.3508 52.2201 75.7508C52.4401 75.7608 52.5601 75.7608 52.6601 75.7608C53.3901 75.7608 53.6401 75.6508 53.7701 75.2808C54.0301 75.4608 54.2301 75.6408 54.5201 75.9308C54.8001 75.3708 54.9401 74.9808 55.0601 74.4108C55.3001 73.3508 55.3801 72.5608 55.4301 70.9208L55.4501 70.3908V70.0808H58.6801C59.1701 70.0808 59.4901 70.0908 59.7801 70.1308V69.0608C59.4401 69.1008 59.1001 69.1208 58.6301 69.1208H57.8001ZM55.4301 69.1208C55.3701 69.1208 55.3101 69.1208 55.0501 69.1208C55.3201 68.8208 55.4501 68.6608 55.7401 68.2208H57.2401C57.0601 68.5408 56.8701 68.8408 56.6501 69.1208H55.4301ZM53.8301 74.6908V69.1908C54.0001 69.4108 54.1001 69.5908 54.2201 69.8908C54.3301 69.8008 54.3601 69.7808 54.4501 69.7008C54.4601 69.9208 54.4601 69.9208 54.4601 70.1508C54.4601 72.5408 54.2601 74.0008 53.8201 74.8808L53.8301 74.6908ZM52.9001 69.3008H52.1001V67.9708H52.9001V69.3008ZM52.9001 70.2608V71.6308H52.0601C52.0701 71.2608 52.0701 71.2608 52.0801 70.8108C52.0801 70.6908 52.0801 70.5108 52.0801 70.2608H52.9001ZM56.5101 70.7308C56.1401 70.7308 55.9901 70.7208 55.8501 70.7008C55.8701 70.9108 55.8801 71.0808 55.8801 71.3608V74.8408C55.8801 75.6008 56.1201 75.7308 57.5701 75.7308C58.7801 75.7308 59.2001 75.6508 59.4401 75.3608C59.6501 75.1108 59.7501 74.7208 59.8401 73.8208C59.4601 73.7408 59.2301 73.6708 58.8501 73.4908C58.8301 74.1108 58.7801 74.4208 58.6601 74.5908C58.5801 74.7208 58.3301 74.7608 57.6201 74.7608C56.8901 74.7608 56.8201 74.7308 56.8201 74.3908V71.6408H58.1501C58.1401 72.1608 58.1301 72.3608 58.0801 72.6008C58.0401 72.7708 57.9701 72.8208 57.7701 72.8208C57.6601 72.8208 57.4501 72.7908 57.2501 72.7608C57.3701 73.0908 57.4101 73.3008 57.4201 73.6508C57.6001 73.6608 57.7901 73.6708 57.9201 73.6708C58.1601 73.6708 58.3901 73.6508 58.5001 73.6108C58.7401 73.5308 58.9001 73.3308 58.9801 72.9908C59.0601 72.6308 59.1201 72.0008 59.1301 71.3608C59.1401 71.0808 59.1401 70.9208 59.1601 70.7008C58.9401 70.7208 58.7501 70.7308 58.4001 70.7308H56.5101ZM61.6201 71.3508L61.0001 71.9708C61.5501 72.3008 61.8801 72.5308 62.3001 72.9308L63.0101 72.2008C62.5501 71.8308 62.1501 71.5708 61.7001 71.3508H63.7701C63.7401 72.6208 63.6301 73.8108 63.5001 74.3108C63.4001 74.6508 63.2801 74.7408 62.8801 74.7408C62.6301 74.7408 62.2901 74.7108 61.8301 74.6408C61.9901 75.0908 62.0301 75.2808 62.0601 75.7108C62.4501 75.7308 62.7301 75.7408 62.9201 75.7408C63.8201 75.7408 64.2001 75.5808 64.3801 75.1108C64.6301 74.4808 64.7901 73.2108 64.8301 71.5408C64.8501 70.6508 64.8501 70.6508 64.8701 70.4008C64.6701 70.4308 64.4801 70.4408 64.0901 70.4408H62.0501C62.0801 70.3008 62.1001 70.2208 62.1901 69.6508H64.0401C64.3501 69.6508 64.5801 69.6608 64.8001 69.6808C64.7801 69.4108 64.7701 69.2508 64.7701 68.8608V67.7208C64.7701 67.4408 64.7801 67.1908 64.8001 66.9508C64.5701 66.9808 64.3001 66.9908 63.9001 66.9908H61.9901C61.5001 66.9908 61.2301 66.9808 60.9501 66.9408V67.9608C61.2201 67.9208 61.4501 67.9108 61.8401 67.9108H63.7201V68.7608H62.0501C61.6301 68.7608 61.4501 68.7508 61.2201 68.7208C61.1601 69.6808 61.0801 70.2308 60.8101 71.3708C61.0901 71.3508 61.2001 71.3508 61.5201 71.3508H61.6201ZM66.1101 71.3508L65.4801 71.9808C66.0301 72.3808 66.3001 72.6108 66.7001 73.0608L67.4401 72.3208C67.0701 71.9608 66.6501 71.6408 66.1901 71.3508H68.3001C68.2601 72.8908 68.1801 73.7808 68.0301 74.2808C67.9201 74.6508 67.8201 74.7308 67.4001 74.7308C67.1201 74.7308 66.7701 74.7008 66.2701 74.6308C66.4101 74.9908 66.4801 75.3008 66.5101 75.7008C66.8401 75.7208 67.2501 75.7308 67.5701 75.7308C68.6001 75.7308 68.9001 75.4808 69.1101 74.4608C69.2401 73.8208 69.3501 72.6308 69.3701 71.6008C69.3901 70.7208 69.4001 70.6708 69.4301 70.4008C69.2301 70.4308 69.0401 70.4408 68.6501 70.4408H66.3401C66.3801 70.2608 66.4001 70.1608 66.4101 70.0408L66.4701 69.6508H68.4101C68.7201 69.6508 68.9501 69.6608 69.1701 69.6808C69.1501 69.4108 69.1401 69.2508 69.1401 68.8608V67.7208C69.1401 67.4108 69.1501 67.2208 69.1701 66.9508C68.9401 66.9808 68.6701 66.9908 68.2701 66.9908H66.2501C65.7701 66.9908 65.4901 66.9808 65.2101 66.9408V67.9808C65.4801 67.9408 65.7101 67.9308 66.1001 67.9308H68.0901V68.7608H66.3001C65.8801 68.7608 65.7401 68.7508 65.4901 68.7308C65.4501 69.6708 65.3801 70.2008 65.1101 71.3708C65.4001 71.3508 65.5101 71.3508 65.8301 71.3508H66.1101ZM63.2201 72.7108C62.0401 73.2908 61.1701 73.6108 60.5401 73.7008L60.9201 74.8108C61.0001 74.7608 61.0201 74.7508 61.1601 74.6908C61.4001 74.5808 61.6101 74.4808 62.4301 74.1308C62.6901 74.0208 62.9601 73.8908 63.4401 73.6408L63.2201 72.7108ZM67.8001 72.6308C66.6401 73.2308 65.5901 73.6308 64.9801 73.7208L65.3701 74.8308C65.5701 74.7108 65.9201 74.5508 66.5001 74.3008C67.1901 74.0008 67.3401 73.9308 68.0201 73.5708L67.8001 72.6308ZM75.2001 68.6908C75.2501 68.4308 75.3201 68.0208 75.3501 67.8308C75.3801 67.6308 75.3901 67.5808 75.4201 67.4708L74.3501 67.2708C74.3501 67.8708 74.1701 68.8308 73.9201 69.5808C73.7901 69.1208 73.6401 68.6908 73.4601 68.3108L72.7901 68.6308C73.0301 69.1708 73.0901 69.3608 73.2501 70.1208L73.8301 69.8408C73.6601 70.2708 73.5501 70.4808 73.3001 70.8408C73.7901 71.1108 73.7901 71.1108 74.2001 71.4008C74.1301 71.3908 74.1101 71.3908 74.0401 71.3808V72.4608C74.3001 72.4208 74.7201 72.4008 75.1501 72.4008H76.0501V74.5208H74.4601C73.9701 74.5208 73.5601 74.5008 73.2801 74.4608V75.5908C73.6301 75.5408 73.9901 75.5208 74.4601 75.5208H78.4801C78.9401 75.5208 79.3001 75.5408 79.6501 75.5908V74.4608C79.3601 74.5008 78.9701 74.5208 78.4801 74.5208H77.1201V72.4008H78.1101C78.5901 72.4008 78.9401 72.4208 79.2001 72.4608V71.3808C78.9201 71.4208 78.6301 71.4308 78.1201 71.4308H77.1201V69.6808H78.3001C78.6901 69.6808 79.0601 69.7008 79.3901 69.7408V68.6308C79.1401 68.6708 78.8201 68.6908 78.2901 68.6908H77.1201V67.6908C77.1201 67.2508 77.1401 66.9708 77.1901 66.6308H75.9801C76.0301 66.9608 76.0501 67.2708 76.0501 67.6908V68.6908H75.2001ZM76.0501 69.6808V71.4308H75.0001C74.6801 71.4308 74.4601 71.4208 74.2401 71.4008C74.5701 70.8208 74.7701 70.3308 74.9601 69.6808H76.0501ZM71.1601 71.4808C71.3801 70.6508 71.4701 69.9108 71.5301 68.6808L70.7201 68.5808C70.7101 69.5708 70.6201 70.2608 70.3601 71.1808L71.1601 71.4808ZM72.8301 75.8808C72.7901 75.5208 72.7701 75.2108 72.7701 74.7008V67.6608C72.7701 67.2108 72.7901 66.9408 72.8301 66.6008H71.6301C71.6801 66.9408 71.7001 67.2208 71.7001 67.6608V74.6208C71.7001 75.0908 71.6801 75.5108 71.6301 75.8808H72.8301ZM81.2101 69.0008C81.2801 68.9908 81.3401 68.9908 81.3701 68.9908C81.4601 68.9908 81.4601 68.9908 81.6501 69.0008C81.8701 69.0008 82.7501 69.0208 82.9101 69.0208C82.9101 69.0208 83.0401 69.0108 83.0801 69.0108C83.0401 69.0608 83.0401 69.0608 83.0001 69.1408C82.8001 69.5208 82.1901 70.3908 81.8001 70.8508C81.4501 71.2608 81.1601 71.5408 80.9001 71.7408L81.8101 72.6408C82.0301 72.3308 82.2601 72.0808 82.6801 71.7308C83.4501 71.0508 84.1501 70.7008 84.7301 70.7008C85.0901 70.7008 85.2901 70.8708 85.3401 71.2408C84.2101 71.7108 83.6401 72.0908 83.1901 72.6508C82.8701 73.0308 82.7501 73.3508 82.7501 73.7608C82.7501 74.3108 83.0201 74.7908 83.4801 75.0508C83.9901 75.3508 84.6501 75.4708 85.7101 75.4708C86.5901 75.4708 87.5501 75.4008 88.2701 75.2908C88.5101 75.2608 88.5601 75.2508 88.7301 75.2508L88.6301 73.9608C87.9201 74.2308 86.8901 74.3808 85.6901 74.3808C84.4801 74.3808 84.0001 74.1708 84.0001 73.6508C84.0001 73.3608 84.1701 73.0908 84.5201 72.8308C84.7301 72.6808 84.9901 72.5408 85.4801 72.3108C85.4801 72.4108 85.4801 72.4108 85.4801 72.5508C85.4801 73.0208 85.4601 73.5308 85.4201 73.7108L86.5801 73.6808C86.5601 73.5108 86.5501 73.3708 86.5501 73.1508C86.5501 73.0808 86.5501 72.9908 86.5601 72.8208C86.5601 72.6908 86.5601 72.5208 86.5601 72.4208C86.5601 72.2808 86.5601 72.2808 86.5501 72.0208V71.9108C87.4101 71.6108 87.9101 71.4408 88.0501 71.4008C88.5801 71.2508 88.8801 71.1708 89.1601 71.1308L88.6901 69.9808C88.5301 70.0808 88.4901 70.0908 87.9501 70.2808C87.7001 70.3608 87.1901 70.5408 86.4201 70.8208C86.2601 70.1308 85.7701 69.7608 84.9901 69.7608C84.4801 69.7608 83.9501 69.9308 83.5801 70.2108C83.4501 70.3108 83.4501 70.3108 83.3801 70.3608L83.3701 70.3408C83.7201 69.9808 84.0001 69.5808 84.2901 69.0108C85.3001 68.9808 86.5701 68.9008 87.3001 68.8108C87.8101 68.7508 87.8101 68.7508 88.0901 68.7308L88.0201 67.5908C87.4701 67.7508 86.5601 67.8608 85.4001 67.9308C84.8501 67.9608 84.8501 67.9608 84.7701 67.9708C84.7901 67.9308 84.8101 67.9008 84.8601 67.7908C85.2001 66.9908 85.2001 66.9908 85.2601 66.8908L83.9501 66.7508C83.9101 67.0908 83.8201 67.3908 83.5501 67.9908C82.2801 67.9908 81.6401 67.9508 81.2301 67.8608L81.2101 69.0008ZM94.6601 69.6108V71.4508H93.1101C92.5601 71.4508 92.2301 71.4308 91.9101 71.3908V72.4908C92.2501 72.4508 92.6501 72.4308 93.1201 72.4308H94.6601V74.5508H92.0901C91.5601 74.5508 91.1301 74.5308 90.7001 74.4808V75.6208C91.1701 75.5708 91.6001 75.5508 92.1201 75.5508H98.2401C98.7701 75.5508 99.1301 75.5708 99.6001 75.6208V74.4808C99.2001 74.5308 98.7801 74.5508 98.2101 74.5508H95.8101V72.4308H97.5401C98.0101 72.4308 98.4101 72.4508 98.7701 72.4908V71.3908C98.4401 71.4308 98.0401 71.4508 97.5401 71.4508H95.8101V69.6108H97.9201C98.4001 69.6108 98.8101 69.6308 99.2401 69.6708V68.5708C98.8301 68.6108 98.4001 68.6308 97.8901 68.6308H95.8101V67.8608C95.8101 67.3308 95.8301 67.0008 95.8701 66.6708H94.5901C94.6401 67.0408 94.6601 67.3508 94.6601 67.8708V68.6308H93.0301C93.1601 68.2808 93.2501 68.0308 93.3001 67.8808C93.3701 67.6308 93.3701 67.6208 93.4001 67.5508C93.4701 67.3708 93.4701 67.3708 93.4901 67.2908L92.3501 67.0108C92.3101 67.3008 92.2601 67.5108 92.1301 67.9408C91.7901 69.0508 91.1901 70.1008 90.4401 70.8608C90.7701 71.0908 91.0001 71.3308 91.2601 71.7108C91.8101 71.0708 92.2101 70.4708 92.6201 69.6108H94.6601ZM109.1 73.9908C108.96 73.9108 108.91 73.8708 108.74 73.7608C107.66 73.0008 106.88 72.6108 106 72.3508C105.99 72.1108 105.99 72.1108 105.96 71.1408C106.35 71.1208 106.5 71.1108 106.64 71.1008C107.39 71.0308 107.84 70.9808 107.99 70.9608C108.22 70.9308 108.47 70.9008 108.64 70.8908L108.61 69.7908C108.16 69.9108 108 69.9308 107.37 70.0108C106.45 70.1108 106.45 70.1108 105.95 70.1408C105.94 69.5208 105.94 69.4008 105.93 69.1508C106.81 69.1008 107.2 69.0708 108.08 68.9508C108.65 68.8708 108.65 68.8708 108.87 68.8608L108.82 67.7508C108.17 67.9408 107.3 68.0508 105.94 68.1308C105.95 67.3108 105.96 67.1808 106.01 66.9108H104.74C104.78 67.1608 104.78 67.1708 104.79 68.1708C104.54 68.1808 104.2 68.1908 104.04 68.1908C102.89 68.1908 101.86 68.1108 101.35 67.9808L101.34 69.0908C101.41 69.0908 101.46 69.0908 101.5 69.0908C101.53 69.0908 101.61 69.0908 101.72 69.1008C102.39 69.1508 103.68 69.2008 104.17 69.2008C104.32 69.2008 104.48 69.2008 104.8 69.1908C104.81 69.7608 104.81 70.1008 104.81 70.1908C104.53 70.2008 104.19 70.2108 103.99 70.2108C103.04 70.2108 102.09 70.1408 101.66 70.0408L101.64 71.1208C101.79 71.1208 101.89 71.1208 102.02 71.1308C102.85 71.1908 103.22 71.2008 103.83 71.2008C104.04 71.2008 104.35 71.1908 104.83 71.1808C104.84 71.5808 104.84 71.5808 104.85 71.7208C104.85 71.8208 104.85 71.8908 104.85 71.9408C104.86 72.0608 104.86 72.0608 104.86 72.1808C104.6 72.1508 104.43 72.1408 104.19 72.1408C102.51 72.1408 101.52 72.7808 101.52 73.8708C101.52 74.8608 102.36 75.4308 103.82 75.4308C104.55 75.4308 105.09 75.2908 105.47 75.0008C105.85 74.7108 106.03 74.2808 106.03 73.6508C106.03 73.6308 106.03 73.5908 106.03 73.5408C106.27 73.6408 106.35 73.6708 106.57 73.7908C107.29 74.1608 107.98 74.6708 108.42 75.1608L109.1 73.9908ZM104.88 73.2208C104.88 73.2208 104.88 73.4208 104.88 73.4608C104.88 73.7608 104.84 73.9708 104.76 74.1008C104.62 74.3008 104.31 74.4208 103.89 74.4208C103.18 74.4208 102.75 74.1908 102.75 73.8208C102.75 73.3908 103.24 73.1308 104.05 73.1308C104.35 73.1308 104.55 73.1508 104.88 73.2208ZM113.16 66.7608C113.14 67.1908 113.03 67.7908 112.86 68.5008C112.64 68.5108 112.47 68.5108 112.35 68.5108C111.74 68.5108 111.36 68.4908 111 68.4208V69.5608L111.53 69.5708C111.74 69.5808 111.8 69.5808 111.93 69.5808C112.05 69.5808 112.11 69.5808 112.56 69.5708C112.18 70.7208 112.01 71.1308 111.62 71.9308C111.28 72.6208 111 73.0708 110.65 73.5308L111.8 74.1708C111.86 74.0508 111.86 74.0508 111.99 73.8108C112.37 73.1108 112.46 72.9308 112.69 72.4408C113.14 71.4908 113.5 70.5408 113.79 69.5408C114.41 69.4908 115.02 69.4208 115.38 69.3608C115.57 69.3208 115.59 69.3208 115.7 69.3108L115.67 68.1608C115.28 68.2808 114.76 68.3708 114.07 68.4408C114.18 68.0008 114.23 67.8008 114.28 67.5608C114.38 67.0808 114.38 67.0808 114.44 66.8908L113.16 66.7608ZM119.56 69.3608C118.67 68.8208 117.92 68.4708 116.74 68.0208L116.14 68.9908C117.26 69.3808 118.15 69.8108 119.02 70.3908L119.56 69.3608ZM119.52 73.8708C119.45 73.8108 119.45 73.8108 119.37 73.7308C119.21 73.6008 119.17 73.5608 119.02 73.4608C118.26 72.9108 118.16 72.8608 117.44 72.5408C117.37 71.9708 117.35 71.5708 117.35 71.1708C117.35 70.7608 117.37 70.5308 117.47 70.1608L116.31 70.1008C116.25 70.4308 116.23 70.7208 116.23 71.1108C116.23 71.4108 116.25 71.8008 116.28 72.2608C115.86 72.1908 115.65 72.1708 115.35 72.1708C114.08 72.1708 113.19 72.8808 113.19 73.8908C113.19 74.9108 114.05 75.5708 115.37 75.5708C116.08 75.5708 116.68 75.3708 117.03 75.0108C117.29 74.7508 117.46 74.3208 117.46 73.9508C117.46 73.9108 117.45 73.8408 117.44 73.7508C118.03 74.0908 118.61 74.5608 118.97 74.9908L119.52 73.8708ZM116.32 73.3208C116.32 73.3208 116.34 73.5608 116.34 73.6608C116.34 74.2208 116.01 74.5008 115.33 74.5008C114.71 74.5008 114.35 74.2608 114.35 73.8508C114.35 73.4308 114.77 73.1608 115.42 73.1608C115.73 73.1608 115.97 73.2008 116.32 73.3208ZM121.18 67.7008C121.21 67.9208 121.21 67.9908 121.22 68.3408C121.26 71.1108 121.44 72.5608 121.85 73.5608C122.25 74.5208 122.79 75.0108 123.46 75.0108C124.31 75.0108 124.89 74.2008 125.41 72.2508C124.92 71.8908 124.76 71.7408 124.41 71.3408C124.3 72.0108 124.12 72.6108 123.88 73.1508C123.76 73.4308 123.62 73.5808 123.47 73.5808C123.15 73.5808 122.83 72.9408 122.66 71.9008C122.55 71.2908 122.47 70.0908 122.47 69.2208C122.47 68.5608 122.5 68.0708 122.55 67.7008H121.18ZM126.23 68.6508C126.83 69.3908 127.31 70.2008 127.65 71.1108C128 72.0208 128.23 73.0608 128.29 74.0008L129.53 73.5308C129.24 71.3308 128.54 69.6608 127.28 68.1508L126.23 68.6508ZM138.49 71.2308C138.98 71.2308 139.28 71.2508 139.59 71.2908V70.1608C139.31 70.2008 139.07 70.2108 138.49 70.2108H134.69C134.95 69.6608 134.95 69.6608 135.08 69.4008C135.18 69.1908 135.18 69.1908 135.28 68.9808L134.08 68.8008C133.98 69.1808 133.82 69.5708 133.48 70.2108H131.76C131.19 70.2108 130.96 70.2008 130.67 70.1608V71.2908C130.96 71.2508 131.27 71.2308 131.76 71.2308H132.91C132.53 71.8408 132.3 72.1708 131.71 72.9008C133.28 73.3208 133.46 73.3808 134.39 73.7308C133.41 74.3008 132.35 74.6008 130.65 74.8008C130.9 75.1808 131.05 75.4708 131.2 75.8708C133.27 75.4708 134.46 75.0108 135.53 74.2008C136.74 74.7308 137.48 75.1208 138.61 75.8408L139.44 74.9208C138.15 74.2208 137.54 73.9308 136.37 73.4508C136.95 72.8008 137.27 72.2408 137.64 71.2308H138.49ZM136.48 71.2308C136.19 72.0208 135.89 72.5008 135.32 73.0408C134.61 72.7808 134.37 72.7108 133.38 72.4208C133.75 71.9008 133.86 71.7208 134.15 71.2308H136.48ZM134.45 67.5908H131.92C131.42 67.5908 131.11 67.5808 130.77 67.5408C130.8 67.8008 130.82 68.0708 130.82 68.3108V69.0508C130.82 69.3508 130.8 69.5608 130.77 69.7908H131.87V68.5908H138.33V69.7908H139.43C139.39 69.5608 139.38 69.3408 139.38 69.0508V68.3108C139.38 68.0308 139.39 67.8008 139.42 67.5408C139.08 67.5808 138.76 67.5908 138.27 67.5908H135.57V67.4108C135.57 67.1108 135.59 66.8708 135.62 66.6608H134.4C134.44 66.9008 134.45 67.1208 134.45 67.4208V67.5908ZM144.49 70.9908V72.1208H143.02C142.52 72.1208 142.22 72.1108 141.91 72.0708V73.1908C142.18 73.1608 142.52 73.1408 143.02 73.1408H144.49V74.4908H142.01C141.45 74.4908 141.02 74.4708 140.73 74.4308V75.6008C141.06 75.5508 141.47 75.5308 141.98 75.5308H148.22C148.73 75.5308 149.15 75.5508 149.48 75.6008V74.4308C149.17 74.4708 148.74 74.4908 148.21 74.4908H145.61V73.1408H147.23C147.72 73.1408 148.06 73.1608 148.33 73.1908V72.0708C148.07 72.1008 147.75 72.1208 147.23 72.1208H145.61V70.9908H147.02C147.48 70.9908 147.79 71.0108 148.08 71.0408V70.3108C148.53 70.5708 148.82 70.7308 149.27 70.9408C149.43 70.5308 149.55 70.3108 149.91 69.7908C148.95 69.4508 148.29 69.1108 147.46 68.5208C146.72 67.9908 146.24 67.5108 145.68 66.7508H144.41C144.19 67.1008 144.08 67.2408 143.87 67.4708C143.56 67.8308 143.1 68.2608 142.77 68.5208C142.11 69.0308 141.3 69.4708 140.35 69.8408C140.71 70.3408 140.71 70.3408 141.01 70.9008C141.44 70.7108 141.62 70.6108 142.1 70.3308V71.0408C142.37 71.0108 142.71 70.9908 143.19 70.9908H144.49ZM143.11 69.9808C142.96 69.9808 142.87 69.9808 142.67 69.9708C143.78 69.2408 144.5 68.5608 145.08 67.7008C145.81 68.6608 146.44 69.2408 147.54 69.9708C147.35 69.9808 147.28 69.9808 147.07 69.9808H143.11ZM153.16 66.7608C153.14 67.1908 153.03 67.7908 152.86 68.5008C152.64 68.5108 152.47 68.5108 152.35 68.5108C151.74 68.5108 151.36 68.4908 151 68.4208V69.5608L151.53 69.5708C151.74 69.5808 151.8 69.5808 151.93 69.5808C152.05 69.5808 152.11 69.5808 152.56 69.5708C152.18 70.7208 152.01 71.1308 151.62 71.9308C151.28 72.6208 151 73.0708 150.65 73.5308L151.8 74.1708C151.86 74.0508 151.86 74.0508 151.99 73.8108C152.37 73.1108 152.46 72.9308 152.69 72.4408C153.14 71.4908 153.5 70.5408 153.79 69.5408C154.41 69.4908 155.02 69.4208 155.38 69.3608C155.57 69.3208 155.59 69.3208 155.7 69.3108L155.67 68.1608C155.28 68.2808 154.76 68.3708 154.07 68.4408C154.18 68.0008 154.23 67.8008 154.28 67.5608C154.38 67.0808 154.38 67.0808 154.44 66.8908L153.16 66.7608ZM159.56 69.3608C158.67 68.8208 157.92 68.4708 156.74 68.0208L156.14 68.9908C157.26 69.3808 158.15 69.8108 159.02 70.3908L159.56 69.3608ZM159.52 73.8708C159.45 73.8108 159.45 73.8108 159.37 73.7308C159.21 73.6008 159.17 73.5608 159.02 73.4608C158.26 72.9108 158.16 72.8608 157.44 72.5408C157.37 71.9708 157.35 71.5708 157.35 71.1708C157.35 70.7608 157.37 70.5308 157.47 70.1608L156.31 70.1008C156.25 70.4308 156.23 70.7208 156.23 71.1108C156.23 71.4108 156.25 71.8008 156.28 72.2608C155.86 72.1908 155.65 72.1708 155.35 72.1708C154.08 72.1708 153.19 72.8808 153.19 73.8908C153.19 74.9108 154.05 75.5708 155.37 75.5708C156.08 75.5708 156.68 75.3708 157.03 75.0108C157.29 74.7508 157.46 74.3208 157.46 73.9508C157.46 73.9108 157.45 73.8408 157.44 73.7508C158.03 74.0908 158.61 74.5608 158.97 74.9908L159.52 73.8708ZM156.32 73.3208C156.32 73.3208 156.34 73.5608 156.34 73.6608C156.34 74.2208 156.01 74.5008 155.33 74.5008C154.71 74.5008 154.35 74.2608 154.35 73.8508C154.35 73.4308 154.77 73.1608 155.42 73.1608C155.73 73.1608 155.97 73.2008 156.32 73.3208ZM167.3 74.5608V75.1708H168.64C168.6 74.9208 168.59 74.6408 168.59 74.1408V68.6508C168.59 68.1908 168.59 68.0908 168.62 67.8208C168.27 67.8408 168.27 67.8408 167.75 67.8408H162.94C162.21 67.8408 162.02 67.8308 161.65 67.7708V69.0708C162.01 69.0308 162.22 69.0208 162.93 69.0208H167.31V73.3808H162.76C162.06 73.3808 161.88 73.3708 161.51 73.3108V74.6008C161.81 74.5708 162.05 74.5608 162.74 74.5608H167.3ZM170.82 71.9108C171.22 71.8608 171.33 71.8608 172.45 71.8608H177.76C178.88 71.8608 178.99 71.8608 179.39 71.9108V70.5208C178.95 70.5808 178.76 70.5908 177.77 70.5908H172.44C171.45 70.5908 171.26 70.5808 170.82 70.5208V71.9108ZM187.33 67.3408C187 67.4008 186.8 67.4108 186.04 67.4108H183.1C182.35 67.4108 182.15 67.4008 181.81 67.3408V68.5608C182.13 68.5208 182.26 68.5108 183.08 68.5108H186.06C186.88 68.5108 187.02 68.5208 187.33 68.5608V67.3408ZM187.96 71.0108C188.74 71.0108 188.89 71.0208 189.23 71.0608V69.8708C188.88 69.9308 188.68 69.9408 187.94 69.9408H182.09C181.35 69.9408 181.15 69.9308 180.8 69.8708V71.0608C181.14 71.0208 181.29 71.0108 182.07 71.0108H184.5C184.43 72.9508 183.65 73.9408 181.69 74.5608C182.1 74.9508 182.27 75.1708 182.51 75.6708C184.77 74.8008 185.71 73.4808 185.82 71.0108H187.96ZM190.08 67.8208C189.84 67.2308 189.6 66.8308 189.2 66.3008L188.48 66.5608C188.82 67.0308 189.11 67.5408 189.34 68.1108L190.08 67.8208ZM187.17 66.9508C187.54 67.4708 187.77 67.8808 188.05 68.5508L188.8 68.2708C188.52 67.6108 188.29 67.2108 187.91 66.6908L187.17 66.9508ZM196.83 68.5908C196.67 68.8408 196.55 68.9808 196.22 69.3108C195.38 70.1308 194.5 70.7608 193.38 71.3408C192.56 71.7608 191.95 71.9908 191.01 72.2408C191.33 72.6508 191.42 72.8208 191.63 73.2808C192.84 72.8608 193.56 72.5408 194.46 72.0108V74.6908C194.46 75.1608 194.45 75.3508 194.41 75.6408L195.7 75.6508C195.66 75.4008 195.65 75.1508 195.65 74.6908V71.2908C196.28 70.8408 197.01 70.1908 197.51 69.6508C197.71 69.4308 197.71 69.4308 197.85 69.3208L196.83 68.5908ZM200.93 68.6308C201.86 69.1508 202.68 69.8108 203.48 70.6608L204.34 69.5708C203.57 68.8408 202.95 68.3808 201.76 67.6408L200.93 68.6308ZM201.28 75.2308C201.51 75.1508 201.54 75.1408 201.94 75.0608C203.49 74.7308 204.73 74.2408 205.75 73.5608C207.12 72.6508 208.07 71.4708 208.92 69.6408C208.41 69.2808 208.25 69.1308 207.86 68.6608C207.56 69.4708 207.28 70.0208 206.84 70.6608C206.05 71.8008 205.12 72.5708 203.87 73.1108C202.96 73.5108 201.77 73.8008 200.91 73.8508L201.28 75.2308ZM217.9 68.4508L218.33 68.2908C218.06 67.6308 217.83 67.2308 217.44 66.7108L216.7 66.9608C217.02 67.3908 217.2 67.7108 217.43 68.2108C217.35 68.2208 217.18 68.2308 216.91 68.2308L214.72 68.2608C214.52 68.2608 214.36 68.2708 214.24 68.2808L214.32 68.1308C214.34 68.0908 214.34 68.0808 214.39 67.9908C214.49 67.7908 214.58 67.5908 214.66 67.4108C214.75 67.2208 214.76 67.2008 214.83 67.1108L213.46 66.8308C213.43 67.1508 213.25 67.6208 212.95 68.1608C212.24 69.4408 211.44 70.3408 210.36 71.0608C210.88 71.3808 211.03 71.5108 211.33 71.9208C212.16 71.3108 213.11 70.2708 213.67 69.3508L216.68 69.3108C215.88 71.9108 214.19 73.7008 211.57 74.7008C211.98 75.0608 212.16 75.2808 212.42 75.7508C213.86 75.1208 215.09 74.2408 215.98 73.2208C216.92 72.1108 217.4 71.2208 217.99 69.4408C218.1 69.0908 218.15 68.9708 218.24 68.8408L217.9 68.4508ZM219.63 67.8408C219.39 67.2508 219.16 66.8508 218.75 66.3208L218.03 66.5708C218.36 67.0208 218.65 67.5308 218.89 68.1208L219.63 67.8408Z" fill="#212121"/>
<path d="M49.5294 42.818C49.1934 42.914 49.0854 42.926 48.3654 42.926H42.1014C41.2734 42.926 40.9014 42.902 40.4454 42.83V44.33C40.9374 44.27 41.2374 44.258 42.0774 44.258H48.3774C48.1014 44.834 47.7294 45.326 47.2374 45.782C46.7454 46.25 46.2894 46.526 45.4854 46.886C46.0254 47.294 46.2054 47.474 46.5654 47.978C47.1294 47.666 47.5254 47.402 48.0054 46.982C48.7374 46.358 49.4334 45.458 49.8534 44.57C50.1654 43.946 50.1654 43.934 50.3334 43.73L49.5294 42.818ZM43.8294 45.242C43.8774 45.494 43.8894 45.602 43.8894 45.962C43.8894 48.23 43.5054 49.262 42.2814 50.234C41.6934 50.702 41.1534 50.966 40.1814 51.254C40.6614 51.758 40.8174 51.974 41.1294 52.622C42.6294 51.998 43.5054 51.386 44.2254 50.462C45.0414 49.418 45.3654 48.266 45.4134 46.214C45.4254 45.482 45.4254 45.47 45.4614 45.242H43.8294ZM53.9454 43.274C53.1294 43.274 52.8414 43.262 52.4094 43.19V44.75C52.8054 44.69 53.0334 44.678 53.9214 44.678H59.6334C58.8654 47.87 56.6934 50.102 53.3694 51.134C53.9094 51.662 54.1134 51.938 54.4254 52.562C58.2174 50.978 60.3414 48.53 61.3134 44.606C61.3974 44.618 61.4694 44.63 61.5414 44.63C62.3094 44.63 62.9334 44.006 62.9334 43.238C62.9334 42.482 62.3094 41.858 61.5414 41.858C60.7734 41.858 60.1734 42.47 60.1614 43.25C59.9574 43.262 59.8134 43.274 59.4534 43.274H53.9454ZM61.5414 42.458C61.9854 42.458 62.3334 42.806 62.3334 43.238C62.3334 43.67 61.9854 44.03 61.5414 44.03C61.1094 44.03 60.7614 43.67 60.7614 43.238C60.7614 42.806 61.1094 42.458 61.5414 42.458ZM65.5494 42.53C65.5854 42.842 65.5974 42.998 65.5974 43.61V46.91C65.5974 47.342 65.5734 47.714 65.5374 47.99H67.1814C67.1334 47.69 67.1334 47.534 67.1334 46.934V43.622C67.1334 42.986 67.1334 42.878 67.1814 42.542L65.5494 42.53ZM70.9614 42.554C71.0094 42.83 71.0214 43.082 71.0214 43.694V45.194C71.0214 46.154 71.0094 46.682 70.9614 47.198C70.8294 48.782 70.4334 49.514 69.3054 50.258C68.5854 50.738 67.8894 50.99 66.7134 51.218C67.2174 51.854 67.3374 52.058 67.5534 52.646C68.6574 52.322 69.2574 52.082 69.8934 51.722C71.1414 51.026 71.9094 50.126 72.2574 48.926C72.4734 48.17 72.5574 47.162 72.5694 45.29V43.67C72.5694 42.986 72.5814 42.854 72.6294 42.554H70.9614ZM84.7254 45.674C85.0974 45.686 85.3614 45.686 85.5174 45.686C85.9374 45.686 85.9374 45.686 86.2494 45.722V44.246C85.7454 44.306 85.6014 44.318 84.7374 44.318C79.8414 44.318 79.8414 44.318 79.4934 44.33C79.6374 44.03 79.7574 43.766 79.8534 43.55C80.2134 42.71 80.2134 42.71 80.3094 42.518L78.7494 42.146C78.6534 42.674 78.5094 43.118 78.1494 43.862C77.5134 45.23 76.7214 46.262 75.6174 47.162C76.1934 47.474 76.3854 47.618 76.8414 48.11C77.7054 47.318 78.1374 46.79 78.8334 45.674H81.7134C81.5934 47.714 81.0894 48.95 79.9974 49.922C79.2894 50.546 78.5934 50.942 77.5614 51.302C78.0774 51.77 78.2574 52.01 78.5574 52.622C80.0454 51.938 80.9094 51.326 81.6774 50.426C82.6254 49.298 83.0694 48.026 83.2254 45.986C83.2374 45.794 83.2374 45.794 83.2494 45.674H84.7254ZM87.9534 48.23C88.4334 48.17 88.5654 48.17 89.9094 48.17H96.2814C97.6254 48.17 97.7574 48.17 98.2374 48.23V46.562C97.7094 46.634 97.4814 46.646 96.2934 46.646H89.8974C88.7094 46.646 88.4814 46.634 87.9534 46.562V48.23ZM101.393 43.682C102.437 44.042 103.505 44.606 104.597 45.338L105.365 44.018C104.357 43.406 103.409 42.95 102.173 42.47L101.393 43.682ZM100.445 46.598C101.669 47.078 102.737 47.654 103.697 48.362L104.441 47.006C103.409 46.334 102.485 45.866 101.249 45.374L100.445 46.598ZM101.129 52.382C101.369 52.31 101.537 52.274 101.969 52.19C104.921 51.602 106.961 50.534 108.485 48.782C109.229 47.906 109.733 47.078 110.285 45.746C109.709 45.35 109.529 45.194 109.037 44.678C108.665 45.746 108.293 46.466 107.645 47.33C106.685 48.614 105.665 49.394 104.177 49.97C102.929 50.45 101.621 50.738 100.709 50.75L101.129 52.382ZM119.129 52.19V52.754H120.509C120.473 52.478 120.461 52.298 120.461 51.842V46.346C120.461 45.818 120.473 45.518 120.497 45.086C120.149 45.122 119.813 45.134 119.381 45.134H114.653C114.173 45.134 113.909 45.11 113.573 45.05V46.382C113.885 46.346 114.065 46.334 114.653 46.334H119.141V48.002H114.965C114.485 48.002 114.209 47.978 113.885 47.918V49.226C114.185 49.19 114.365 49.178 114.965 49.178H119.141V50.99H114.533C114.065 50.99 113.777 50.966 113.453 50.906V52.238C113.753 52.202 113.933 52.19 114.533 52.19H119.129ZM124.565 44.294C125.681 44.918 126.665 45.71 127.625 46.73L128.657 45.422C127.733 44.546 126.989 43.994 125.561 43.106L124.565 44.294ZM124.985 52.214C125.261 52.118 125.297 52.106 125.777 52.01C127.637 51.614 129.125 51.026 130.349 50.21C131.993 49.118 133.133 47.702 134.153 45.506C133.541 45.074 133.349 44.894 132.881 44.33C132.521 45.302 132.185 45.962 131.657 46.73C130.709 48.098 129.593 49.022 128.093 49.67C127.001 50.15 125.573 50.498 124.541 50.558L124.985 52.214Z" fill="#8560BF"/>
<path fill-rule="evenodd" clip-rule="evenodd" d="M139.2 217.614C140.028 217.614 140.7 216.943 140.7 216.114L140.7 216.066C140.702 215.238 140.032 214.564 139.204 214.562C138.375 214.561 137.702 215.231 137.7 216.059L137.7 216.114C137.7 216.943 138.372 217.614 139.2 217.614ZM139.913 210.555C140.686 210.852 141.554 210.465 141.85 209.692L141.883 209.606C142.184 208.834 141.802 207.965 141.03 207.664C140.258 207.363 139.389 207.745 139.088 208.517L139.049 208.618C138.753 209.391 139.139 210.259 139.913 210.555ZM143.164 204.204C143.8 204.735 144.746 204.65 145.277 204.014L145.338 203.941C145.871 203.307 145.789 202.361 145.155 201.828C144.521 201.295 143.575 201.376 143.042 202.01L142.974 202.091C142.443 202.727 142.528 203.673 143.164 204.204ZM148.085 199.017C148.619 199.651 149.565 199.731 150.198 199.196L150.274 199.133C150.908 198.599 150.989 197.653 150.456 197.019C149.922 196.385 148.976 196.304 148.342 196.837L148.263 196.904C147.63 197.438 147.55 198.384 148.085 199.017ZM153.652 194.519C154.161 195.173 155.103 195.29 155.757 194.782L155.837 194.72C156.491 194.211 156.608 193.269 156.1 192.615C155.591 191.961 154.649 191.843 153.995 192.352L153.916 192.414C153.262 192.922 153.144 193.865 153.652 194.519ZM159.251 190.058C159.807 190.672 160.755 190.72 161.37 190.165L161.447 190.095C162.06 189.539 162.107 188.59 161.55 187.976C160.993 187.363 160.045 187.317 159.431 187.873L159.358 187.939C158.744 188.494 158.696 189.443 159.251 190.058ZM164.329 185.017C164.995 185.509 165.935 185.368 166.427 184.702L166.49 184.616C166.979 183.948 166.834 183.009 166.166 182.519C165.498 182.03 164.559 182.175 164.07 182.843L164.013 182.92C163.521 183.586 163.663 184.525 164.329 185.017ZM168.066 178.931C168.852 179.192 169.701 178.766 169.962 177.98L169.996 177.877C170.253 177.09 169.822 176.243 169.035 175.986C168.247 175.729 167.401 176.159 167.144 176.947L167.114 177.035C166.854 177.822 167.28 178.671 168.066 178.931ZM169.639 171.96C170.467 171.962 171.14 171.291 171.142 170.463L171.142 170.408C171.142 169.58 170.47 168.908 169.642 168.908C168.814 168.908 168.142 169.58 168.142 170.408L168.142 170.457C168.14 171.285 168.811 171.958 169.639 171.96Z" fill="#E0CAFF"/>
<path fill-rule="evenodd" clip-rule="evenodd" d="M273.1 121.975C272.74 122.721 271.843 123.033 271.097 122.673L271.75 121.322C271.097 122.673 271.097 122.673 271.097 122.673L271.093 122.671L271.084 122.667L271.056 122.653C270.312 122.287 270.006 121.388 270.371 120.645C270.737 119.901 271.636 119.595 272.379 119.96L272.399 119.97L272.402 119.972C273.148 120.332 273.461 121.229 273.1 121.975ZM267 118.613C266.536 119.299 265.603 119.479 264.917 119.015L264.834 118.959C264.149 118.494 263.97 117.561 264.435 116.876C264.9 116.19 265.833 116.012 266.519 116.477L266.597 116.53C267.284 116.994 267.464 117.926 267 118.613ZM261.32 114.482C260.771 115.103 259.824 115.161 259.203 114.613L259.126 114.544C258.506 113.995 258.449 113.047 258.999 112.427C259.549 111.807 260.497 111.751 261.117 112.3L261.189 112.364C261.81 112.913 261.869 113.861 261.32 114.482ZM256.275 109.597C255.625 110.11 254.681 109.998 254.169 109.347L254.105 109.266C253.594 108.613 253.709 107.671 254.361 107.16C255.013 106.649 255.956 106.764 256.467 107.416L256.525 107.49C257.038 108.141 256.926 109.084 256.275 109.597ZM252.322 103.799C251.557 104.116 250.679 103.752 250.362 102.987L250.322 102.889C250.009 102.122 250.377 101.246 251.143 100.933C251.91 100.62 252.786 100.987 253.099 101.754L253.134 101.839C253.451 102.605 253.088 103.482 252.322 103.799ZM250.331 97.08C249.503 97.0825 248.829 96.413 248.827 95.5845L248.827 95.5301C248.827 94.7017 249.498 94.0301 250.327 94.0301C251.155 94.0301 251.827 94.7017 251.827 95.5301L251.827 95.5756C251.829 96.404 251.16 97.0776 250.331 97.08Z" fill="#E0CAFF"/>
<path fill-rule="evenodd" clip-rule="evenodd" d="M266.115 217.277C266.944 217.277 267.615 216.606 267.615 215.777L267.615 215.723C267.613 214.895 266.94 214.225 266.111 214.227C265.283 214.229 264.613 214.903 264.615 215.731L264.615 215.777C264.615 216.606 265.287 217.277 266.115 217.277ZM265.356 210.337C266.13 210.043 266.52 209.177 266.226 208.402L266.188 208.303C265.89 207.53 265.022 207.145 264.249 207.442C263.476 207.74 263.091 208.608 263.388 209.381L263.421 209.467C263.715 210.242 264.581 210.631 265.356 210.337ZM262.292 204.002C262.957 203.508 263.096 202.569 262.602 201.904L262.54 201.821C262.044 201.157 261.104 201.022 260.44 201.518C259.777 202.014 259.641 202.954 260.137 203.617L260.194 203.693C260.688 204.358 261.627 204.496 262.292 204.002ZM257.753 198.612C258.309 197.999 258.263 197.05 257.649 196.494L257.573 196.425C256.958 195.87 256.01 195.919 255.455 196.534C254.9 197.149 254.949 198.098 255.564 198.653L255.634 198.716C256.248 199.273 257.196 199.226 257.753 198.612ZM252.326 194.116C252.754 193.407 252.526 192.485 251.816 192.057L251.778 192.034L251.767 192.028L251.762 192.025L251.761 192.024C251.047 191.604 250.128 191.842 249.707 192.556C249.287 193.269 249.525 194.188 250.238 194.609C250.238 194.609 250.238 194.609 250.238 194.609L250.998 193.32C250.239 194.609 250.238 194.609 250.238 194.609L250.243 194.612L250.267 194.626C250.977 195.054 251.899 194.826 252.326 194.116Z" fill="#E0CAFF"/>
</svg>
