<svg width="375" height="306" viewBox="0 0 375 306" fill="none" xmlns="http://www.w3.org/2000/svg">
<rect width="375" height="306" fill="#FAFAFA"/>
<path fill-rule="evenodd" clip-rule="evenodd" d="M198.204 224.231C198.091 224.231 198 224.322 198 224.435L198 229.606C198 229.718 198.091 229.809 198.204 229.809L207.989 229.809C208.101 229.809 208.193 229.901 208.193 230.013L208.193 232.834C208.193 233.011 208.402 233.104 208.533 232.985L214.929 227.17C215.018 227.089 215.018 226.949 214.929 226.869L208.533 221.054C208.402 220.935 208.193 221.027 208.193 221.204L208.193 224.027C208.193 224.14 208.101 224.231 207.989 224.231L198.204 224.231Z" fill="#BFBFBF"/>
<path fill-rule="evenodd" clip-rule="evenodd" d="M214.796 244.846C214.909 244.846 215 244.755 215 244.642L215 239.472C215 239.359 214.909 239.268 214.796 239.268L205.012 239.268C204.899 239.268 204.808 239.177 204.808 239.064L204.808 236.243C204.808 236.066 204.598 235.973 204.467 236.092L198.072 241.907C197.983 241.988 197.983 242.128 198.072 242.209L204.467 248.024C204.598 248.143 204.808 248.05 204.808 247.873L204.808 245.05C204.808 244.937 204.899 244.846 205.012 244.846L214.796 244.846Z" fill="#BFBFBF"/>
<path fill-rule="evenodd" clip-rule="evenodd" d="M266.204 224.231C266.091 224.231 266 224.322 266 224.435L266 229.606C266 229.718 266.091 229.809 266.204 229.809L275.989 229.809C276.101 229.809 276.193 229.901 276.193 230.013L276.193 232.834C276.193 233.011 276.403 233.104 276.533 232.985L282.929 227.17C283.018 227.089 283.018 226.949 282.929 226.869L276.533 221.054C276.403 220.935 276.193 221.027 276.193 221.204L276.193 224.027C276.193 224.14 276.101 224.231 275.989 224.231L266.204 224.231Z" fill="#BFBFBF"/>
<path fill-rule="evenodd" clip-rule="evenodd" d="M282.796 244.808C282.909 244.808 283 244.716 283 244.604L283 239.433C283 239.32 282.909 239.229 282.796 239.229L273.012 239.229C272.899 239.229 272.808 239.138 272.808 239.026L272.808 236.204C272.808 236.027 272.598 235.934 272.467 236.053L266.072 241.868C265.983 241.949 265.983 242.089 266.072 242.17L272.467 247.985C272.598 248.104 272.808 248.011 272.808 247.834L272.808 245.011C272.808 244.899 272.899 244.808 273.012 244.808L282.796 244.808Z" fill="#BFBFBF"/>
<path d="M228.25 202.653C228.544 202.243 229.018 202 229.523 202H251.469C251.974 202 252.448 202.243 252.742 202.653L255.992 207.176H225L228.25 202.653Z" fill="#A5A5A5"/>
<path d="M225 207.175H255.992V266.43C255.992 267.296 255.29 267.998 254.424 267.998H226.568C225.702 267.998 225 267.296 225 266.43V207.175Z" fill="#CCCCCC"/>
<ellipse cx="240.496" cy="237.588" rx="3.09922" ry="3.23529" fill="#A5A5A5"/>
<path d="M227.48 260.871C227.48 259.804 228.345 258.939 229.412 258.939H251.581C252.648 258.939 253.513 259.804 253.513 260.871V262.183C253.513 263.25 252.648 264.115 251.581 264.115H229.412C228.345 264.115 227.48 263.25 227.48 262.183V260.871Z" fill="#A5A5A5"/>
<path d="M227.48 228.519C227.48 227.452 228.345 226.587 229.412 226.587H251.581C252.648 226.587 253.513 227.452 253.513 228.519V229.831C253.513 230.898 252.648 231.763 251.581 231.763H229.412C228.345 231.763 227.48 230.898 227.48 229.831V228.519Z" fill="#A5A5A5"/>
<path d="M227.48 253.109C227.48 252.042 228.345 251.177 229.412 251.177H251.581C252.648 251.177 253.513 252.042 253.513 253.109V254.421C253.513 255.488 252.648 256.353 251.581 256.353H229.412C228.345 256.353 227.48 255.488 227.48 254.421V253.109Z" fill="#A5A5A5"/>
<path d="M227.48 220.755C227.48 219.688 228.345 218.823 229.412 218.823H251.581C252.648 218.823 253.513 219.688 253.513 220.755V222.067C253.513 223.134 252.648 223.999 251.581 223.999H229.412C228.345 223.999 227.48 223.134 227.48 222.067V220.755Z" fill="#A5A5A5"/>
<path d="M227.48 245.344C227.48 244.277 228.345 243.412 229.412 243.412H251.581C252.648 243.412 253.513 244.277 253.513 245.344V246.656C253.513 247.724 252.648 248.589 251.581 248.589H229.412C228.345 248.589 227.48 247.724 227.48 246.656V245.344Z" fill="#A5A5A5"/>
<path d="M227.48 212.991C227.48 211.924 228.345 211.059 229.412 211.059H251.582C252.649 211.059 253.514 211.924 253.514 212.991V214.303C253.514 215.371 252.649 216.236 251.582 216.236H229.412C228.345 216.236 227.48 215.371 227.48 214.303V212.991Z" fill="#A5A5A5"/>
<path d="M293.163 217.046V251.731C293.163 254.054 301.349 258.248 311.014 258.248C320.679 258.248 328.074 255.022 328.074 251.731V217.046H293.163Z" fill="#CCCCCC"/>
<path d="M328.074 216.958C328.074 220.489 320.26 223.35 310.619 223.35C300.979 223.35 293.163 220.489 293.163 216.958C293.163 213.427 300.977 210.566 310.618 210.566C320.258 210.566 328.074 213.427 328.074 216.958Z" fill="#A5A5A5"/>
<path fill-rule="evenodd" clip-rule="evenodd" d="M293.122 226.415C293.032 226.6 293 227.559 293 227.931C293 232.031 300.887 235.386 310.617 235.386V232.938C301.634 232.937 294.207 229.955 293.122 226.415ZM328.115 226.415C328.205 226.6 328.237 227.559 328.237 227.931C328.237 232.031 320.35 235.386 310.62 235.386V232.938C319.603 232.937 327.03 229.955 328.115 226.415Z" fill="#A5A5A5"/>
<path fill-rule="evenodd" clip-rule="evenodd" d="M293.122 238.027C293.032 238.213 293 239.171 293 239.544C293 243.644 300.887 246.998 310.617 246.998V244.55C301.634 244.549 294.207 241.567 293.122 238.027ZM328.115 238.027C328.205 238.213 328.237 239.171 328.237 239.544C328.237 243.644 320.35 246.998 310.62 246.998V244.55C319.603 244.549 327.03 241.567 328.115 238.027Z" fill="#A5A5A5"/>
<path fill-rule="evenodd" clip-rule="evenodd" d="M293.122 249.639C293.032 249.825 293 250.783 293 251.156C293 255.256 300.887 258.61 310.617 258.611V256.162C301.634 256.161 294.207 253.179 293.122 249.639ZM328.115 249.639C328.205 249.825 328.237 250.783 328.237 251.156C328.237 255.256 320.35 258.61 310.62 258.611V256.162C319.603 256.161 327.03 253.179 328.115 249.639Z" fill="#A5A5A5"/>
<path d="M148.608 35.3363C148.608 35.9763 148.498 36.5563 148.278 37.0763C148.058 37.5863 147.758 38.0213 147.378 38.3813C146.998 38.7413 146.548 39.0213 146.028 39.2213C145.508 39.4113 144.943 39.5063 144.333 39.5063C143.723 39.5063 143.158 39.4113 142.638 39.2213C142.118 39.0213 141.663 38.7413 141.273 38.3813C140.893 38.0213 140.593 37.5863 140.373 37.0763C140.163 36.5563 140.058 35.9763 140.058 35.3363V28.6163H141.948V35.2613C141.948 35.5713 141.988 35.8813 142.068 36.1913C142.148 36.4913 142.278 36.7613 142.458 37.0013C142.648 37.2413 142.893 37.4363 143.193 37.5863C143.503 37.7363 143.883 37.8113 144.333 37.8113C144.783 37.8113 145.158 37.7363 145.458 37.5863C145.768 37.4363 146.013 37.2413 146.193 37.0013C146.383 36.7613 146.518 36.4913 146.598 36.1913C146.678 35.8813 146.718 35.5713 146.718 35.2613V28.6163H148.608V35.3363ZM154.711 33.9563C154.551 33.7463 154.331 33.5663 154.051 33.4163C153.771 33.2563 153.466 33.1763 153.136 33.1763C152.846 33.1763 152.581 33.2363 152.341 33.3563C152.101 33.4763 151.981 33.6763 151.981 33.9563C151.981 34.2363 152.111 34.4363 152.371 34.5563C152.641 34.6663 153.031 34.7813 153.541 34.9013C153.811 34.9613 154.081 35.0413 154.351 35.1413C154.631 35.2413 154.881 35.3763 155.101 35.5463C155.331 35.7063 155.516 35.9113 155.656 36.1613C155.796 36.4013 155.866 36.6963 155.866 37.0463C155.866 37.4863 155.781 37.8613 155.611 38.1713C155.451 38.4713 155.231 38.7163 154.951 38.9063C154.681 39.0963 154.361 39.2313 153.991 39.3113C153.631 39.4013 153.256 39.4463 152.866 39.4463C152.306 39.4463 151.761 39.3463 151.231 39.1463C150.701 38.9363 150.261 38.6413 149.911 38.2613L151.096 37.1513C151.296 37.4113 151.556 37.6263 151.876 37.7963C152.196 37.9663 152.551 38.0513 152.941 38.0513C153.071 38.0513 153.201 38.0363 153.331 38.0063C153.471 37.9763 153.596 37.9313 153.706 37.8713C153.826 37.8013 153.921 37.7113 153.991 37.6013C154.061 37.4913 154.096 37.3563 154.096 37.1963C154.096 36.8963 153.956 36.6813 153.676 36.5513C153.406 36.4213 152.996 36.2913 152.446 36.1613C152.176 36.1013 151.911 36.0263 151.651 35.9363C151.401 35.8363 151.176 35.7113 150.976 35.5613C150.776 35.4013 150.616 35.2063 150.496 34.9763C150.376 34.7463 150.316 34.4613 150.316 34.1213C150.316 33.7213 150.396 33.3763 150.556 33.0863C150.726 32.7963 150.946 32.5613 151.216 32.3813C151.486 32.1913 151.791 32.0513 152.131 31.9613C152.471 31.8713 152.821 31.8263 153.181 31.8263C153.701 31.8263 154.206 31.9163 154.696 32.0963C155.196 32.2763 155.591 32.5513 155.881 32.9213L154.711 33.9563ZM162.501 34.9163C162.501 34.6863 162.466 34.4663 162.396 34.2563C162.336 34.0463 162.236 33.8613 162.096 33.7013C161.956 33.5413 161.776 33.4163 161.556 33.3263C161.346 33.2263 161.096 33.1763 160.806 33.1763C160.266 33.1763 159.806 33.3413 159.426 33.6713C159.056 33.9913 158.851 34.4063 158.811 34.9163H162.501ZM164.301 35.7263C164.301 35.8063 164.301 35.8863 164.301 35.9663C164.301 36.0463 164.296 36.1263 164.286 36.2063H158.811C158.831 36.4663 158.896 36.7063 159.006 36.9263C159.126 37.1363 159.281 37.3213 159.471 37.4813C159.661 37.6313 159.876 37.7513 160.116 37.8413C160.356 37.9313 160.606 37.9763 160.866 37.9763C161.316 37.9763 161.696 37.8963 162.006 37.7363C162.316 37.5663 162.571 37.3363 162.771 37.0463L163.971 38.0063C163.261 38.9663 162.231 39.4463 160.881 39.4463C160.321 39.4463 159.806 39.3613 159.336 39.1913C158.866 39.0113 158.456 38.7613 158.106 38.4413C157.766 38.1213 157.496 37.7313 157.296 37.2713C157.106 36.8013 157.011 36.2713 157.011 35.6813C157.011 35.1013 157.106 34.5763 157.296 34.1063C157.496 33.6263 157.766 33.2213 158.106 32.8913C158.446 32.5513 158.846 32.2913 159.306 32.1113C159.776 31.9213 160.281 31.8263 160.821 31.8263C161.321 31.8263 161.781 31.9113 162.201 32.0813C162.631 32.2413 163.001 32.4863 163.311 32.8163C163.621 33.1363 163.861 33.5413 164.031 34.0313C164.211 34.5113 164.301 35.0763 164.301 35.7263ZM166.044 32.0363H167.769V33.2363H167.799C167.999 32.8163 168.279 32.4763 168.639 32.2163C168.999 31.9563 169.419 31.8263 169.899 31.8263C169.969 31.8263 170.044 31.8313 170.124 31.8413C170.204 31.8413 170.274 31.8513 170.334 31.8713V33.5213C170.214 33.4913 170.109 33.4713 170.019 33.4613C169.939 33.4513 169.859 33.4463 169.779 33.4463C169.369 33.4463 169.039 33.5213 168.789 33.6713C168.539 33.8213 168.344 34.0013 168.204 34.2113C168.064 34.4213 167.969 34.6363 167.919 34.8563C167.869 35.0763 167.844 35.2513 167.844 35.3813V39.2363H166.044V32.0363ZM184 33.9323C184.884 33.9323 185.183 33.9453 185.651 33.9973V32.4503C185.157 32.5283 184.858 32.5413 183.974 32.5413H176.369C175.472 32.5413 175.186 32.5283 174.692 32.4503V33.9973C175.16 33.9453 175.459 33.9323 176.343 33.9323H179.515C179.476 34.9463 179.281 35.7913 178.943 36.3893C178.397 37.3903 177.422 38.0793 175.862 38.5603C176.421 39.1063 176.59 39.3273 176.915 39.9903C178.67 39.2883 179.619 38.5733 180.308 37.4293C180.867 36.5063 181.153 35.4273 181.218 33.9323H184ZM176.005 30.7603C176.434 30.7083 176.746 30.6953 177.656 30.6953H182.7C183.61 30.6953 183.922 30.7083 184.351 30.7603V29.1743C183.87 29.2523 183.61 29.2653 182.674 29.2653H177.682C176.746 29.2653 176.486 29.2523 176.005 29.1743V30.7603ZM187.601 35.1543C188.121 35.0893 188.264 35.0893 189.72 35.0893H196.623C198.079 35.0893 198.222 35.0893 198.742 35.1543V33.3473C198.17 33.4253 197.923 33.4383 196.636 33.4383H189.707C188.42 33.4383 188.173 33.4253 187.601 33.3473V35.1543ZM210.442 30.6693L210.962 30.4613C210.611 29.6033 210.312 29.0703 209.805 28.4073L208.856 28.7583C209.194 29.2133 209.441 29.6033 209.662 30.0713C209.415 30.0973 209.194 30.1103 208.726 30.1103H202.759C201.875 30.1103 201.563 30.0973 201.095 30.0193V31.7093C201.524 31.6443 201.771 31.6313 202.733 31.6313H208.921C208.089 35.0893 205.736 37.5073 202.135 38.6253C202.72 39.1973 202.941 39.4963 203.279 40.1723C207.322 38.4953 209.662 35.8303 210.676 31.7353C210.754 31.4623 210.793 31.3453 210.897 31.1503L210.442 30.6693ZM212.626 29.8373C212.327 29.0703 212.015 28.5503 211.482 27.8613L210.546 28.2123C210.988 28.7973 211.352 29.4603 211.664 30.2273L212.626 29.8373ZM215.059 29.0703C215.111 29.4213 215.111 29.5383 215.111 30.2533C215.111 33.8933 214.812 35.5703 213.876 37.0653C213.486 37.6893 213.174 38.0403 212.537 38.5603C213.148 38.9763 213.343 39.1713 213.85 39.8213C214.708 38.9763 215.202 38.3133 215.644 37.4163C216.32 36.0773 216.606 34.6083 216.697 32.0733C216.775 29.5253 216.775 29.5253 216.827 29.1613L215.059 29.0703ZM218.504 28.9793C218.543 29.2263 218.556 29.5123 218.556 29.8373V30.2273L218.491 37.5593C218.478 38.2743 218.465 38.5603 218.374 38.9373L219.206 39.8213C219.375 39.7433 219.479 39.6913 219.765 39.5873C221.117 39.0543 221.793 38.6643 222.534 38.0273C223.392 37.2603 224.068 36.2853 224.601 34.9983C224.003 34.5303 223.834 34.3613 223.379 33.7763C223.08 34.7383 222.703 35.4533 222.105 36.1553C221.546 36.8183 221.026 37.2083 220.116 37.6373L220.181 30.2403C220.194 29.6033 220.207 29.3823 220.272 29.0053L218.504 28.9793Z" fill="black"/>
<path d="M72.0771 79.5008L72.0771 50" stroke="white"/>
<path d="M170 79.5008L170 50" stroke="white"/>
<path d="M323 79.5008L323 50" stroke="white"/>
<g clip-path="url(#clip0)">
<rect x="48.5" y="190.5" width="139" height="88" rx="1.5" fill="white"/>
<path d="M66.43 261.01H61.51C60.97 261.01 60.74 261 60.38 260.95V261.75C60.68 261.71 60.92 261.69 61.5 261.69H66.59C66.24 263.15 65.66 264.32 64.84 265.25C63.94 266.27 62.52 267.15 61.18 267.52C61.42 267.76 61.53 267.9 61.67 268.21C63.14 267.66 64.27 266.93 65.31 265.84C66.22 264.89 66.86 263.64 67.35 261.86C67.36 261.83 67.36 261.83 67.37 261.8C67.51 261.84 67.61 261.85 67.72 261.85C68.35 261.85 68.86 261.34 68.86 260.71C68.86 260.09 68.35 259.58 67.73 259.58C67.1 259.58 66.59 260.09 66.59 260.72C66.59 260.81 66.6 260.9 66.63 261.01H66.43ZM67.73 260C68.12 260 68.44 260.32 68.44 260.71C68.44 261.11 68.12 261.43 67.73 261.43C67.33 261.43 67.01 261.11 67.01 260.71C67.01 260.32 67.33 260 67.73 260ZM76.38 267.18V267.89H77.14C77.12 267.68 77.11 267.42 77.11 267.12V261.71C77.11 261.3 77.11 261.17 77.14 260.93C76.91 260.96 76.79 260.96 76.36 260.96H71.03C70.64 260.96 70.45 260.95 70.25 260.93C70.28 261.17 70.29 261.3 70.29 261.71V267.14C70.29 267.47 70.28 267.67 70.25 267.89H71.02V267.18H76.38ZM76.38 266.53H71.02V261.62H76.38V266.53ZM82.32 259.91C82.3 260.17 82.09 260.67 81.69 261.36C80.96 262.61 80.16 263.49 79.18 264.11C79.47 264.28 79.57 264.38 79.74 264.62C80.63 263.98 81.58 262.93 82.13 262.02L85.5 261.97C84.73 264.74 82.85 266.84 80.25 267.84C80.5 268.03 80.6 268.16 80.75 268.43C83.53 267.19 85.27 265.23 86.19 262.29C86.27 262.03 86.28 262.01 86.36 261.9L85.76 261.27C85.62 261.33 85.59 261.33 85.24 261.34L82.82 261.38C82.63 261.38 82.54 261.39 82.46 261.41C82.56 261.27 82.67 261.04 82.92 260.53C83.04 260.26 83.05 260.25 83.14 260.12L82.32 259.91ZM85.73 260.07C86.05 260.4 86.5 261.09 86.75 261.61L87.25 261.31C86.94 260.71 86.72 260.38 86.23 259.8L85.73 260.07ZM86.86 259.52C87.28 260 87.64 260.55 87.88 261.05L88.38 260.76C88.02 260.11 87.85 259.85 87.35 259.24L86.86 259.52ZM90.34 261.2C90.61 261.16 90.85 261.15 91.38 261.15H94.74C95.27 261.15 95.51 261.16 95.78 261.2V260.43C95.49 260.49 95.29 260.5 94.73 260.5H91.39C90.83 260.5 90.63 260.49 90.34 260.43V261.2ZM89.48 263.5C89.82 263.46 90.11 263.45 90.64 263.45H95.86C95.4 264.68 94.95 265.42 94.24 266.07C93.49 266.76 92.61 267.21 91.27 267.59C91.51 267.88 91.58 267.99 91.7 268.28C94.29 267.41 95.67 266.13 96.52 263.8C96.69 263.36 96.71 263.31 96.8 263.17L96.43 262.74C96.26 262.8 96.15 262.81 95.78 262.81H90.65C90.05 262.81 89.84 262.8 89.48 262.75V263.5ZM100.28 260.89C101.94 261.09 104.04 261.57 105.35 262.05L105.61 261.32C103.76 260.77 102.23 260.44 100.57 260.22L100.28 260.89ZM100.1 263.62C101.89 263.87 103.65 264.3 105.06 264.84L105.32 264.12C103.54 263.56 102.07 263.21 100.39 262.95L100.1 263.62ZM99.31 266.43C100.31 266.58 101.12 266.74 102.33 267.04C103.96 267.45 104.78 267.72 105.72 268.16L106 267.43C103.88 266.63 102.14 266.17 99.61 265.76L99.31 266.43ZM109.06 261.47C109.93 262 110.72 262.65 111.44 263.43L111.96 262.81C111.24 262.1 110.62 261.61 109.55 260.93L109.06 261.47ZM109.13 267.97C109.38 267.89 109.46 267.87 109.73 267.81C111.4 267.43 112.43 267.02 113.46 266.32C114.78 265.41 115.71 264.24 116.51 262.5C116.23 262.31 116.13 262.22 115.9 261.91C115.09 264.03 113.75 265.5 111.82 266.36C110.89 266.79 109.69 267.1 108.91 267.13L109.13 267.97ZM121.12 259.91C121.1 260.17 120.89 260.67 120.49 261.36C119.76 262.61 118.96 263.49 117.98 264.11C118.27 264.28 118.37 264.38 118.54 264.62C119.43 263.98 120.38 262.93 120.93 262.02L124.3 261.97C123.53 264.74 121.65 266.84 119.05 267.84C119.3 268.03 119.4 268.16 119.55 268.43C122.33 267.19 124.07 265.23 124.99 262.29C125.07 262.03 125.08 262.01 125.16 261.9L124.56 261.27C124.42 261.33 124.39 261.33 124.04 261.34L121.62 261.38C121.43 261.38 121.34 261.39 121.26 261.41C121.36 261.27 121.47 261.04 121.72 260.53C121.84 260.26 121.85 260.25 121.94 260.12L121.12 259.91ZM124.53 260.07C124.85 260.4 125.3 261.09 125.55 261.61L126.05 261.31C125.74 260.71 125.52 260.38 125.03 259.8L124.53 260.07ZM125.66 259.52C126.08 260 126.44 260.55 126.68 261.05L127.18 260.76C126.82 260.11 126.65 259.85 126.15 259.24L125.66 259.52ZM130.37 261.27C129.35 261.27 128.59 261.23 128.23 261.16L128.22 261.85C128.33 261.84 128.35 261.84 128.44 261.84C128.47 261.84 128.55 261.84 128.6 261.84C128.97 261.85 129.91 261.87 130.07 261.87C130.12 261.87 130.22 261.86 130.26 261.85C130.2 261.95 130.2 261.95 130.17 262C129.45 263.28 128.62 264.33 127.93 264.86L128.49 265.42C128.65 265.15 128.87 264.92 129.26 264.59C130.07 263.9 130.86 263.53 131.49 263.53C131.96 263.53 132.2 263.77 132.28 264.32C131.61 264.61 131.13 264.87 130.79 265.12C130.11 265.63 129.77 266.15 129.77 266.7C129.77 267.73 130.64 268.24 132.43 268.24C133.2 268.24 134.07 268.17 134.86 268.04C135.06 268.01 135.11 268 135.26 267.99L135.17 267.22C134.6 267.45 133.49 267.61 132.5 267.61C131.09 267.61 130.47 267.32 130.47 266.66C130.47 266.06 130.99 265.59 132.35 264.95C132.36 265.07 132.36 265.09 132.36 265.25C132.36 265.86 132.33 266.47 132.3 266.69L132.98 266.68C132.96 266.54 132.96 266.46 132.96 266.32C132.96 266.23 132.96 266.09 132.97 265.87C132.98 265.67 132.98 265.45 132.98 265.32C132.98 265.07 132.98 264.97 132.96 264.71C134.21 264.22 135.11 263.92 135.63 263.83L135.31 263.13C135.15 263.24 135.12 263.25 134.63 263.42C134.19 263.58 133.62 263.79 132.89 264.08C132.76 263.34 132.31 262.97 131.57 262.97C131.05 262.97 130.52 263.14 130.06 263.46C129.96 263.53 129.96 263.53 129.6 263.81C129.59 263.8 129.59 263.8 129.58 263.78C129.58 263.78 129.58 263.78 129.58 263.77C129.58 263.77 129.59 263.77 129.59 263.76C129.6 263.75 129.65 263.71 129.72 263.66C129.76 263.63 129.96 263.4 130.06 263.28C130.41 262.85 130.66 262.45 130.96 261.86C132.17 261.82 133.22 261.74 134.26 261.6C134.44 261.57 134.5 261.56 134.66 261.55L134.6 260.87C134.05 261.05 133.05 261.17 131.45 261.25C131.36 261.25 131.36 261.25 131.24 261.26C131.29 261.17 131.42 260.9 131.55 260.58C131.72 260.17 131.72 260.17 131.81 260.04L131.01 259.9C130.98 260.22 130.86 260.57 130.53 261.27H130.37ZM138.55 261.3C138 261.3 137.78 261.29 137.41 261.25C137.44 261.51 137.45 261.71 137.45 262.08V262.82C137.45 263.07 137.43 263.29 137.4 263.52H138.06V261.84H145.12V263.52H145.78C145.75 263.29 145.73 263.05 145.73 262.82V262.08C145.73 261.71 145.74 261.51 145.77 261.25C145.42 261.28 145.2 261.29 144.62 261.29H143.84C144.17 260.91 144.38 260.62 144.8 259.95L144.17 259.68C143.88 260.32 143.61 260.75 143.14 261.29H142.04C141.82 260.68 141.66 260.34 141.28 259.68L140.66 259.85C141.01 260.37 141.2 260.76 141.39 261.29H139.93C139.58 260.68 139.37 260.38 138.91 259.81L138.31 260C138.78 260.54 138.96 260.79 139.25 261.3H138.55ZM141.95 265.81H144.91C145.35 265.81 145.69 265.83 145.97 265.87V265.18C145.69 265.22 145.37 265.24 144.92 265.24H141.95V264.93C142.94 264.42 143.56 264.01 144.23 263.45C144.45 263.26 144.45 263.26 144.58 263.16L144.2 262.76C144.03 262.79 143.83 262.8 143.46 262.8H139.85C139.48 262.8 139.16 262.78 138.88 262.75V263.4C139.15 263.37 139.49 263.35 139.83 263.35H143.49C142.96 263.79 142.39 264.15 141.7 264.48H141.28C141.3 264.69 141.31 264.87 141.31 265.07V265.24H138.3C137.87 265.24 137.55 265.22 137.26 265.18V265.87C137.56 265.83 137.87 265.81 138.31 265.81H141.31V267.82C141.31 268.03 141.24 268.06 140.78 268.06C140.45 268.06 139.98 268.02 139.47 267.95C139.57 268.17 139.61 268.3 139.68 268.59C140.03 268.63 140.55 268.65 140.83 268.65C141.76 268.65 141.95 268.53 141.95 267.91V265.81ZM151.34 264.56C151.5 264.3 151.56 264.2 151.74 263.85L151.08 263.71C151.01 263.95 150.85 264.29 150.68 264.56H149.33C148.84 264.56 148.58 264.55 148.24 264.52C148.27 264.86 148.28 265.05 148.28 265.63V267.74C148.28 268.23 148.26 268.51 148.22 268.77H148.9V268.32H153.8V268.77H154.49C154.45 268.52 154.43 268.24 154.43 267.74V265.63C154.43 265.02 154.44 264.84 154.47 264.52C154.16 264.55 153.87 264.56 153.37 264.56H151.34ZM148.9 265.1H153.8V266.1H148.9V265.1ZM148.9 266.64H153.8V267.78H148.9V266.64ZM150.45 260.54V263.1C150.45 263.35 150.4 263.39 150.1 263.39C149.76 263.39 149.4 263.35 149.02 263.28C149.09 263.49 149.13 263.65 149.16 263.87C149.47 263.91 149.79 263.93 150.07 263.93C150.47 263.93 150.64 263.9 150.81 263.8C150.98 263.69 151.04 263.53 151.04 263.15V260.92C151.04 260.44 151.05 260.21 151.08 259.95C150.89 259.98 150.62 259.99 150.12 259.99H148.05C147.61 259.99 147.3 259.97 147.03 259.93V260.6C147.33 260.55 147.53 260.54 147.98 260.54H150.45ZM149.34 261.69C148.78 261.27 148.5 261.1 147.9 260.78L147.5 261.17C148.13 261.48 148.44 261.69 148.93 262.11L149.34 261.69ZM154.74 260.54V263.12C154.74 263.4 154.73 263.41 154.36 263.41C154.05 263.41 153.72 263.37 153.28 263.3C153.36 263.52 153.39 263.67 153.4 263.9C153.87 263.94 154.17 263.96 154.43 263.96C154.95 263.96 155.17 263.88 155.29 263.66C155.34 263.55 155.35 263.51 155.35 263.18V260.92C155.35 260.47 155.36 260.19 155.39 259.95C155.21 259.98 154.93 259.99 154.44 259.99H152.41C151.97 259.99 151.67 259.97 151.39 259.93V260.6C151.69 260.55 151.9 260.54 152.34 260.54H154.74ZM153.57 261.72C152.99 261.3 152.7 261.12 152.08 260.8L151.69 261.19C152.26 261.47 152.61 261.7 153.18 262.13L153.57 261.72ZM149.95 261.91C148.76 262.61 147.72 263.08 147.03 263.23L147.28 263.84C147.41 263.77 147.49 263.73 147.63 263.67C148.76 263.17 149.13 262.98 150.01 262.47L149.95 261.91ZM154.27 261.93C153.15 262.53 152.13 262.92 151.48 263.02L151.71 263.65C151.85 263.58 151.93 263.55 152.13 263.47C153.04 263.12 153.58 262.87 154.31 262.5L154.27 261.93ZM160.59 261.56H157.81C157.49 261.56 157.3 261.55 157.06 261.52C157.09 261.78 157.11 262 157.11 262.31V265.04C157.11 265.36 157.09 265.64 157.05 265.93H157.77V265.25H160.59V267.58C160.59 268.12 160.57 268.38 160.52 268.72H161.32C161.26 268.4 161.25 268.15 161.25 267.58V265.25H164.23V265.93H164.95C164.91 265.63 164.89 265.37 164.89 265.04V262.31C164.89 261.99 164.9 261.78 164.94 261.52C164.71 261.55 164.52 261.56 164.18 261.56H161.25V260.68C161.25 260.25 161.27 259.97 161.32 259.66H160.52C160.57 259.97 160.59 260.21 160.59 260.7V261.56ZM160.59 262.16V264.65H157.77V262.16H160.59ZM161.25 264.65V262.16H164.23V264.65H161.25ZM167.37 263.58C167.03 263.58 166.75 263.86 166.75 264.2C166.75 264.54 167.03 264.82 167.37 264.82C167.71 264.82 167.99 264.54 167.99 264.2C167.99 263.85 167.72 263.58 167.37 263.58ZM170.7 263.58C170.36 263.58 170.08 263.86 170.08 264.2C170.08 264.54 170.36 264.82 170.7 264.82C171.04 264.82 171.32 264.54 171.32 264.2C171.32 263.85 171.05 263.58 170.7 263.58ZM174.04 263.58C173.7 263.58 173.42 263.86 173.42 264.2C173.42 264.54 173.7 264.82 174.04 264.82C174.38 264.82 174.66 264.54 174.66 264.2C174.66 263.85 174.39 263.58 174.04 263.58Z" fill="#212121"/>
<path d="M88.64 245.74C88.63 245.61 88.63 245.53 88.63 245.47C88.63 244.76 88.97 243.6 89.52 242.44L88.72 242.08C88.33 242.98 88.31 243.05 88.2 243.4C88.21 243.15 88.22 243.07 88.22 242.85C88.23 241.98 88.27 241.39 88.37 240.64C88.53 239.36 88.76 238.24 89 237.65L87.68 237.51C87.66 237.78 87.64 237.88 87.53 238.44C87.24 239.92 87.12 241.06 87.12 242.35C87.12 243.36 87.19 244.13 87.38 245.34C87.41 245.57 87.42 245.63 87.43 245.81L88.64 245.74ZM90.02 239.75C91.08 239.86 91.09 239.86 91.82 239.86C92.56 239.86 93.32 239.82 93.96 239.74C94.44 239.68 94.59 239.66 94.67 239.65L94.61 238.44C93.95 238.62 93 238.71 91.89 238.71C91.02 238.71 90.49 238.67 90.04 238.55L90.02 239.75ZM90.71 241.4C90.09 242.14 89.79 242.81 89.79 243.46C89.79 243.82 89.9 244.19 90.09 244.44C90.53 245.03 91.33 245.31 92.57 245.31C93.23 245.31 93.84 245.25 94.64 245.12C94.87 245.08 94.91 245.07 95.05 245.06L94.95 243.79C94.32 244.03 93.45 244.17 92.57 244.17C91.53 244.17 90.98 243.87 90.98 243.3C90.98 242.87 91.19 242.44 91.69 241.86L90.71 241.4ZM99.12 241.79C99.34 241.32 99.78 240.23 100.35 238.77C100.65 238 100.7 237.89 100.84 237.62L99.49 237.28C99.42 237.69 99.42 237.69 97.12 244.08C96.8 244.95 96.71 245.19 96.57 245.48L97.86 245.9C97.99 245.29 98.4 244.18 98.7 243.61C99.19 242.71 99.75 242.21 100.29 242.21C100.49 242.21 100.67 242.3 100.74 242.44C100.8 242.57 100.82 242.72 100.82 243.03C100.82 243.13 100.82 243.37 100.81 243.73C100.81 243.77 100.81 243.82 100.81 243.83C100.81 244.32 100.87 244.68 100.98 244.94C101.23 245.51 101.78 245.81 102.55 245.81C104.06 245.81 105.04 244.77 105.47 242.7C104.85 242.39 104.7 242.29 104.37 241.95C104.32 242.47 104.17 243.09 103.99 243.54C103.7 244.24 103.27 244.61 102.74 244.61C102.5 244.61 102.32 244.56 102.21 244.47C102.03 244.32 101.99 244.12 101.99 243.4C101.99 242.25 101.94 241.89 101.74 241.57C101.52 241.23 101.08 241 100.62 241C100.17 241 99.65 241.24 99.33 241.59C99.2 241.74 99.2 241.74 99.14 241.81L99.12 241.79ZM108.03 237.55C108.06 237.81 108.07 237.95 108.07 238.23C108.07 238.37 108.07 238.58 108.06 238.88C108 241.38 107.98 242.39 107.98 242.91C107.98 244.25 108.27 245.02 108.96 245.48C109.38 245.76 110.02 245.92 110.71 245.92C111.97 245.92 112.96 245.5 113.71 244.65C114.2 244.1 114.5 243.45 114.9 242.1C114.44 241.89 114.22 241.76 113.69 241.33C113.58 242.02 113.45 242.49 113.23 243.01C112.76 244.11 111.89 244.72 110.81 244.72C110.18 244.72 109.7 244.53 109.47 244.2C109.27 243.9 109.21 243.54 109.21 242.59C109.21 241.88 109.27 239.85 109.31 238.92C109.35 238.15 109.37 237.86 109.43 237.57L108.03 237.55ZM111.58 238.36C112.01 238.84 112.29 239.24 112.63 239.85L113.33 239.48C112.98 238.86 112.71 238.48 112.28 238.01L111.58 238.36ZM114.52 238.83C114.2 238.26 113.93 237.88 113.48 237.42L112.81 237.77C113.19 238.2 113.52 238.67 113.83 239.22L114.52 238.83ZM118.23 239.59C118.38 239.87 118.61 240.49 118.78 241.06C118.38 241.19 118.38 241.19 118.31 241.21C118.01 241.3 117.79 241.37 117.75 241.38C117.51 241.46 117.48 241.47 117.3 241.5L117.65 242.55C117.9 242.42 118.33 242.26 119.07 242.02C119.2 242.43 119.53 243.76 119.7 244.54C119.91 245.47 120.01 246 120.02 246.29L121.2 246.04C121.1 245.79 121.08 245.71 120.97 245.21C120.78 244.38 120.51 243.29 120.35 242.72C120.12 241.92 120.12 241.92 120.07 241.72C120.16 241.7 120.16 241.7 120.23 241.67C120.71 241.52 120.72 241.52 120.95 241.46C121.5 241.32 122.13 241.23 122.54 241.23C123.13 241.23 123.47 241.51 123.47 241.99C123.47 242.53 123.04 242.85 122.33 242.85C121.85 242.85 121.48 242.76 120.94 242.5C121.07 242.99 121.1 243.17 121.12 243.64C121.74 243.83 122.03 243.88 122.43 243.88C122.98 243.88 123.48 243.72 123.89 243.43C124.35 243.09 124.58 242.6 124.58 242C124.58 240.97 123.83 240.26 122.75 240.26C122.58 240.26 122.52 240.26 122.21 240.28C122.22 239.47 122.23 239.27 122.27 239.03H121.15C121.18 239.22 121.19 239.49 121.2 240.42C120.63 240.54 120.28 240.63 119.79 240.78C119.41 239.57 119.4 239.53 119.35 239.28L118.23 239.59ZM127.03 244.28C127.16 244.08 127.44 243.77 127.8 243.42C128.1 243.13 128.17 243.05 128.24 242.95H128.26C128.24 243.15 128.24 243.26 128.24 243.54V244.43C128.24 245.44 128.23 245.73 128.18 246.03H129.48C129.43 245.59 129.4 244.47 129.4 243.04L129.41 242C130.51 241 131.49 240.49 132.32 240.49C133.37 240.49 134.03 241.16 134.03 242.23C134.03 243.45 133.19 244.3 131.99 244.3C131.39 244.3 130.77 244.17 130.21 243.93C130.37 244.48 130.4 244.7 130.4 245.23C130.91 245.38 131.38 245.45 131.89 245.45C132.57 245.45 133.16 245.32 133.67 245.07C134.66 244.56 135.26 243.5 135.26 242.24C135.26 241.43 134.99 240.7 134.49 240.18C133.99 239.67 133.26 239.36 132.54 239.36C131.56 239.36 130.75 239.67 129.66 240.46C129.53 240.55 129.46 240.61 129.42 240.65L129.4 240.66C129.41 240.63 129.42 240.41 129.44 239.98C129.8 239.53 129.87 239.45 130.01 239.33L129.63 238.92C129.58 238.95 129.56 238.95 129.49 238.97C129.49 238.87 129.49 238.87 129.49 238.79C129.51 238.51 129.51 238.51 129.52 238.32C129.56 237.63 129.56 237.62 129.62 237.36L128.33 237.35C128.36 237.55 128.37 237.63 128.37 237.79C128.37 237.8 128.37 237.84 128.37 237.89C128.37 237.98 128.36 238.12 128.36 238.31C128.36 238.67 128.35 238.8 128.33 239.06C127.77 239.1 127.22 239.13 127.04 239.13C126.95 239.13 126.87 239.12 126.71 239.11L126.78 240.24C127.09 240.18 127.09 240.18 128.3 240.09C128.28 240.91 128.28 240.92 128.26 241.53C127.07 242.63 126.68 242.97 126.45 243.13L127.03 244.28ZM139.12 241.79C139.34 241.32 139.78 240.23 140.35 238.77C140.65 238 140.7 237.89 140.84 237.62L139.49 237.28C139.42 237.69 139.42 237.69 137.12 244.08C136.8 244.95 136.71 245.19 136.57 245.48L137.86 245.9C137.99 245.29 138.4 244.18 138.7 243.61C139.19 242.71 139.75 242.21 140.29 242.21C140.49 242.21 140.67 242.3 140.74 242.44C140.8 242.57 140.82 242.72 140.82 243.03C140.82 243.13 140.82 243.37 140.81 243.73C140.81 243.77 140.81 243.82 140.81 243.83C140.81 244.32 140.87 244.68 140.98 244.94C141.23 245.51 141.78 245.81 142.55 245.81C144.06 245.81 145.04 244.77 145.47 242.7C144.85 242.39 144.7 242.29 144.37 241.95C144.32 242.47 144.17 243.09 143.99 243.54C143.7 244.24 143.27 244.61 142.74 244.61C142.5 244.61 142.32 244.56 142.21 244.47C142.03 244.32 141.99 244.12 141.99 243.4C141.99 242.25 141.94 241.89 141.74 241.57C141.52 241.23 141.08 241 140.62 241C140.17 241 139.65 241.24 139.33 241.59C139.2 241.74 139.2 241.74 139.14 241.81L139.12 241.79ZM148.13 239.15C148.27 239.15 148.3 239.16 148.5 239.18C148.99 239.25 149.82 239.3 150.33 239.3C150.96 239.3 151.39 239.28 151.83 239.22C151.37 239.48 150.88 239.78 150.36 240.11L151.23 240.8C152.22 240.08 153.3 239.41 153.9 239.14L153.86 238.02C153.2 238.16 152.49 238.21 151.22 238.21C149.88 238.21 148.99 238.14 148.22 237.96L148.13 239.15ZM148.87 241.41C147.97 242.16 147.58 242.82 147.58 243.58C147.58 244.36 148 244.92 148.86 245.25C149.39 245.47 150.27 245.58 151.36 245.58C152.22 245.58 152.86 245.53 154.06 245.36C154.27 245.33 154.33 245.33 154.5 245.32L154.39 243.95C153.75 244.19 152.44 244.37 151.25 244.37C149.56 244.37 148.83 244.09 148.83 243.44C148.83 243.01 149.11 242.59 149.74 242.07L148.87 241.41Z" fill="#212121"/>
<g clip-path="url(#clip1)">
<path d="M69.4782 254.412C76.3454 254.412 81.9124 248.845 81.9124 241.978C81.9124 235.111 76.3454 229.544 69.4782 229.544C62.6109 229.544 57.0439 235.111 57.0439 241.978C57.0439 248.845 62.6109 254.412 69.4782 254.412Z" fill="white"/>
<mask id="mask0" mask-type="alpha" maskUnits="userSpaceOnUse" x="58" y="231" width="22" height="22">
<path d="M69.4122 252.351C75.1773 252.351 79.8508 247.677 79.8508 241.912C79.8508 236.147 75.1773 231.474 69.4122 231.474C63.6472 231.474 58.9736 236.147 58.9736 241.912C58.9736 247.677 63.6472 252.351 69.4122 252.351Z" fill="#88E7CE"/>
</mask>
<g mask="url(#mask0)">
<path d="M69.4122 252.351C75.1773 252.351 79.8508 247.677 79.8508 241.912C79.8508 236.147 75.1773 231.474 69.4122 231.474C63.6472 231.474 58.9736 236.147 58.9736 241.912C58.9736 247.677 63.6472 252.351 69.4122 252.351Z" fill="#88E7CE"/>
<path d="M73.3158 253.886C74.7412 255.553 76.9123 255.311 78.2061 254.039C79.3465 252.921 79.0614 251.167 78.4912 250.377C77.2851 248.732 75.2675 249.237 74.5658 250.07C74.0395 250.706 73.7763 252.263 74.829 252.877C75.8377 253.469 76.9123 252.965 76.9561 252.592C76.9342 253.162 75.0921 254.215 73.7105 252.548" fill="#7879BA"/>
<path opacity="0.23" d="M75.8376 252.68C75.728 252.68 75.2016 252.702 74.6315 252.395C74.4122 252.263 74.2367 252.132 74.1271 252.022C74.2367 252.373 74.4341 252.68 74.785 252.877C75.7937 253.469 76.8683 252.965 76.9122 252.592C76.956 252.395 76.956 252.285 76.9341 252.285C76.9341 252.285 76.9122 252.285 76.8902 252.307C76.7587 252.417 76.3858 252.636 75.8376 252.68Z" fill="#615A86"/>
<path d="M63.2719 247.548C62.3728 248.426 61.2105 249.741 60.4868 251.825C62.8772 250.158 62.5482 251.123 63.9517 250.575C65.2894 250.048 64.8509 249.171 65.2894 248.491C65.2675 248.469 63.6666 247.877 63.2719 247.548Z" fill="#7879BA"/>
<path d="M62.7675 247.044C61.6491 247.526 60.2456 248.535 59.478 249.61C60.2456 249.412 60.9693 249.39 61.6491 249.434C61.6491 249.434 62.6359 248.119 63.3157 247.548C63.1622 247.439 62.921 247.219 62.7675 247.044Z" fill="#646DA9"/>
<path d="M73.2938 247.417C72.1316 246.496 67.2412 246.562 65.9473 247.395C63.9517 248.667 65.9254 254.983 65.9254 254.983C65.9254 255.004 66.4298 256.43 66.4298 256.43C66.7149 257.241 67.2851 257.351 67.5921 256.518C67.5921 256.518 67.9868 255.092 68.0088 255.07C68.6447 255.246 70.8816 255.136 71.2982 255.048C71.3421 255.07 71.6491 256.54 71.6491 256.54C71.9342 257.351 72.5702 257.241 72.8552 256.43L73.3158 254.983C73.2719 255.004 75.0702 248.842 73.2938 247.417Z" fill="#7879BA"/>
<path opacity="0.24" d="M63.3376 248.732C63.7543 249.193 63.9078 249.807 63.864 250.575C63.8859 250.575 63.9298 250.553 63.9517 250.553C64.6315 250.289 64.8508 249.917 64.9605 249.544C64.3245 249.325 63.7762 249.039 63.3376 248.732Z" fill="#615A86"/>
<path opacity="0.3" d="M73.7325 249.632C73.7325 249.961 71.9123 251.233 69.5877 251.233C67.2632 251.211 65.443 250.07 65.443 249.741C65.443 249.412 67.1974 249.676 69.5219 249.676C71.8465 249.697 73.7325 249.303 73.7325 249.632Z" fill="#615A86"/>
<path d="M71.9561 250.267C71.9561 251.496 69.6096 252.482 69.6096 252.482C69.6096 252.482 67.307 251.474 67.307 250.246C67.307 249.017 67.7895 248.009 69.6535 248.031C71.6053 248.053 71.9781 249.039 71.9561 250.267Z" fill="#FDFEFF"/>
<path d="M69.719 250.048C69.2147 250.443 68.0085 251.233 67.7454 251.342" stroke="#615A86" stroke-width="0.143268" stroke-miterlimit="10"/>
<path d="M71.7365 249.982C71.2321 250.377 69.0172 251.956 68.6444 252.088" stroke="#615A86" stroke-width="0.143268" stroke-miterlimit="10"/>
<path d="M69.5874 250.048C70.0918 250.443 71.2979 251.233 71.5611 251.364" stroke="#615A86" stroke-width="0.143268" stroke-miterlimit="10"/>
<path d="M67.592 249.96C68.0964 250.355 70.2894 251.956 70.6622 252.088" stroke="#615A86" stroke-width="0.143268" stroke-miterlimit="10"/>
</g>
<path d="M66.7149 251.079C66.7149 251.079 67.5263 252.197 67.5482 252.197C67.6798 252.307 67.9868 252.812 67.6359 253.097C67.285 253.404 66.9122 253.184 66.5394 252.877C66.5394 252.877 65.5087 251.978 65.1578 250.926" fill="#7979BA"/>
<path d="M66.5614 252.921C66.5614 252.921 67.2851 252.022 67.5482 252.219C67.7018 252.329 67.9868 252.833 67.636 253.14C67.2632 253.425 66.693 253.118 66.5614 252.921Z" fill="#C6CED5"/>
<path d="M72.4605 251.145L71.6272 252.263C71.4736 252.373 71.1886 252.877 71.5394 253.162C71.8903 253.469 72.2631 253.25 72.6359 252.965C72.6359 252.965 73.6666 252.066 74.0175 251.013" fill="#7979BA"/>
<path d="M72.614 252.965C72.614 252.965 71.9122 252.066 71.6272 252.263C71.4736 252.373 71.1886 252.877 71.5394 253.184C71.8903 253.491 72.4605 253.184 72.614 252.965Z" fill="#C6CED5"/>
<path d="M64.7634 237.197C65.509 236.561 67.8993 236.21 69.6537 236.21C71.6493 236.232 73.8642 236.759 75.2458 237.439C78.2721 236.32 80.5528 239.851 80.6844 240.509C80.7941 241.035 79.3467 241.386 76.8686 240.662C76.8686 240.662 77.4607 243.118 77.5046 244.478C77.5485 246.276 77.2195 250.202 69.5441 250.18C61.8467 250.158 61.452 246.539 61.452 244.325C61.452 243.294 61.9344 240.903 62.1318 239.96C60.9914 239.653 60.0923 236.518 60.7283 235.092C61.0353 234.368 64.1713 235.816 64.7634 237.197Z" fill="#7879BA"/>
<path opacity="0.25" d="M80.6844 240.597C80.5089 240.816 78.5791 240.969 76.737 240.114C76.3422 239.917 76.4519 240.202 76.8905 240.75C76.8905 240.706 76.8686 240.684 76.8686 240.684C79.1931 241.364 80.6186 241.079 80.6844 240.597Z" fill="#615A86"/>
<path opacity="0.25" d="M62.5923 239.654C60.8598 238.93 60.5528 235.838 60.5747 235.64C60.2896 237.175 61.101 239.675 62.1098 239.961C62.6361 239.873 62.8554 239.763 62.5923 239.654Z" fill="#615A86"/>
<path d="M69.5221 241.89C65.8599 241.89 63.6669 243.206 63.6669 245.706C63.6669 248.316 66.0353 248.996 69.5221 249.018C73.009 249.018 75.3774 248.36 75.3993 245.75C75.3993 243.097 73.2063 241.89 69.5221 241.89Z" fill="#E2C080"/>
<path opacity="0.2" d="M63.9958 244.215L63.9519 244.324C67.2633 243.206 72.9212 243.403 75.2019 244.412C74.4563 242.855 72.3291 241.956 69.5001 241.934C66.737 241.934 64.7852 242.767 63.9958 244.215Z" fill="#615A86"/>
<path d="M64.0397 244.083C67.0441 243.206 72.5046 243.228 75.0704 244.149C74.3248 242.614 72.373 241.846 69.5441 241.846C66.7809 241.846 64.8291 242.658 64.0397 244.083Z" fill="#D2D2D2"/>
<path d="M67.9651 241.868L69.544 243.447L71.123 241.868L69.544 240.29L67.9651 241.868Z" fill="white"/>
<path opacity="0.23" d="M69.5439 243.469L71.1229 241.89L69.5439 240.312V243.469Z" fill="#A0A1C2"/>
<path opacity="0.9" d="M66.6054 244.544C66.5396 244.851 66.8467 244.829 67.1318 244.829C67.4168 244.807 67.7458 244.983 67.6581 244.5C67.6142 244.303 67.3949 244.171 67.1537 244.149C66.7589 244.149 66.6274 244.39 66.6054 244.544Z" fill="white"/>
<path opacity="0.9" d="M72.4826 244.522C72.5704 244.807 72.2633 244.829 71.9783 244.829C71.6932 244.829 71.3642 245.026 71.43 244.544C71.4519 244.346 71.6712 244.193 71.9125 244.171C72.2853 244.127 72.4388 244.368 72.4826 244.522Z" fill="white"/>
<path d="M67.1099 246.474C67.4169 246.474 67.6581 246.232 67.6801 245.925C67.6801 245.618 67.4388 245.377 67.1318 245.355C66.8248 245.355 66.5836 245.596 66.5616 245.903C66.5616 246.232 66.8029 246.474 67.1099 246.474Z" fill="#2C376E"/>
<path d="M67.0002 246.145C67.0441 246.145 67.066 246.101 67.066 246.079C67.066 246.035 67.0221 246.013 67.0002 246.013C66.9564 246.013 66.9344 246.057 66.9344 246.079C66.9125 246.101 66.9564 246.145 67.0002 246.145Z" fill="white"/>
<path d="M67.2853 245.969C67.373 245.969 67.4607 245.882 67.4607 245.794C67.4607 245.706 67.373 245.618 67.2853 245.618C67.1976 245.618 67.1099 245.706 67.1099 245.794C67.1099 245.882 67.1757 245.969 67.2853 245.969Z" fill="white"/>
<path d="M71.9562 246.496C72.2632 246.496 72.5045 246.254 72.5264 245.947C72.5264 245.64 72.2852 245.399 71.9781 245.377C71.6711 245.377 71.4299 245.618 71.408 245.925C71.408 246.254 71.6492 246.496 71.9562 246.496Z" fill="#2C376E"/>
<path d="M72.1317 246.167C72.1755 246.167 72.1975 246.123 72.1975 246.101C72.1975 246.057 72.1536 246.035 72.1317 246.035C72.0878 246.035 72.0659 246.079 72.0659 246.101C72.044 246.123 72.0878 246.167 72.1317 246.167Z" fill="white"/>
<path d="M71.3203 247.066C71.3203 247.746 70.5309 248.14 69.544 248.14C68.5572 248.14 67.7677 247.724 67.7677 247.044C67.7677 246.364 68.5572 245.662 69.544 245.662C70.5309 245.684 71.3203 246.386 71.3203 247.066Z" fill="white"/>
<path d="M70.158 246.43C70.158 246.649 69.8729 246.847 69.544 246.825C69.1931 246.825 68.9299 246.649 68.9299 246.408C68.9299 246.189 69.215 246.145 69.544 246.145C69.8948 246.167 70.158 246.211 70.158 246.43Z" fill="#2C376E"/>
<path opacity="0.8" d="M69.7633 246.364C69.7633 246.452 69.6756 246.496 69.544 246.496C69.4344 246.496 69.3247 246.43 69.3247 246.364C69.3247 246.276 69.4124 246.276 69.544 246.276C69.6537 246.276 69.7633 246.276 69.7633 246.364Z" fill="white"/>
<path d="M70.3116 246.89C70.2677 246.868 70.2239 246.912 70.2019 246.956C70.18 247.022 70.0703 247.11 69.9607 247.11C69.8949 247.11 69.7414 247.132 69.6317 246.978V246.627C69.6317 246.583 69.5879 246.54 69.544 246.54C69.5002 246.54 69.4563 246.583 69.4563 246.627V246.978C69.3467 247.11 69.1931 247.11 69.1274 247.11C68.9958 247.088 68.9081 247.022 68.8861 246.956C68.8642 246.912 68.8203 246.89 68.7765 246.89C68.7326 246.912 68.7107 246.956 68.7107 247C68.7546 247.154 68.9081 247.263 69.1054 247.285C69.2589 247.307 69.4344 247.263 69.544 247.154C69.6975 247.307 69.873 247.307 69.9826 247.285C70.18 247.263 70.3335 247.132 70.3774 247C70.3774 246.934 70.3554 246.89 70.3116 246.89Z" fill="#2C376E"/>
<path d="M71.8466 245.969C71.9343 245.969 72.022 245.882 72.022 245.794C72.022 245.706 71.9343 245.618 71.8466 245.618C71.7589 245.618 71.6711 245.706 71.6711 245.794C71.6711 245.882 71.7369 245.969 71.8466 245.969Z" fill="white"/>
</g>
<path d="M59 224L176 224" stroke="#D9D9D9"/>
</g>
<rect x="48.5" y="190.5" width="139" height="88" rx="1.5" stroke="#D9D9D9"/>
<path d="M59.78 211.92H62.09C62.4967 211.92 62.8633 211.957 63.19 212.03C63.5167 212.103 63.7967 212.223 64.03 212.39C64.2633 212.557 64.4433 212.77 64.57 213.03C64.6967 213.29 64.76 213.603 64.76 213.97C64.76 214.363 64.6867 214.693 64.54 214.96C64.3933 215.227 64.1933 215.443 63.94 215.61C63.6933 215.77 63.4033 215.887 63.07 215.96C62.7367 216.033 62.3833 216.07 62.01 216.07H61.04V219H59.78V211.92ZM61.92 215.01C62.1267 215.01 62.3233 214.997 62.51 214.97C62.6967 214.937 62.8633 214.883 63.01 214.81C63.1567 214.73 63.2733 214.623 63.36 214.49C63.4467 214.357 63.49 214.183 63.49 213.97C63.49 213.763 63.4467 213.597 63.36 213.47C63.2733 213.337 63.1567 213.233 63.01 213.16C62.87 213.087 62.7067 213.04 62.52 213.02C62.34 212.993 62.1533 212.98 61.96 212.98H61.04V215.01H61.92ZM65.3645 214.2H66.5145V215H66.5345C66.6679 214.72 66.8545 214.493 67.0945 214.32C67.3345 214.147 67.6145 214.06 67.9345 214.06C67.9812 214.06 68.0312 214.063 68.0845 214.07C68.1379 214.07 68.1845 214.077 68.2245 214.09V215.19C68.1445 215.17 68.0745 215.157 68.0145 215.15C67.9612 215.143 67.9079 215.14 67.8545 215.14C67.5812 215.14 67.3612 215.19 67.1945 215.29C67.0279 215.39 66.8979 215.51 66.8045 215.65C66.7112 215.79 66.6479 215.933 66.6145 216.08C66.5812 216.227 66.5645 216.343 66.5645 216.43V219H65.3645V214.2ZM68.5513 216.58C68.5513 216.2 68.618 215.857 68.7513 215.55C68.8913 215.237 69.078 214.97 69.3113 214.75C69.5447 214.53 69.8213 214.36 70.1413 214.24C70.4613 214.12 70.8013 214.06 71.1613 214.06C71.5213 214.06 71.8613 214.12 72.1813 214.24C72.5013 214.36 72.778 214.53 73.0113 214.75C73.2447 214.97 73.428 215.237 73.5613 215.55C73.7013 215.857 73.7713 216.2 73.7713 216.58C73.7713 216.96 73.7013 217.307 73.5613 217.62C73.428 217.933 73.2447 218.203 73.0113 218.43C72.778 218.65 72.5013 218.823 72.1813 218.95C71.8613 219.077 71.5213 219.14 71.1613 219.14C70.8013 219.14 70.4613 219.077 70.1413 218.95C69.8213 218.823 69.5447 218.65 69.3113 218.43C69.078 218.203 68.8913 217.933 68.7513 217.62C68.618 217.307 68.5513 216.96 68.5513 216.58ZM69.7713 216.58C69.7713 216.767 69.798 216.953 69.8513 217.14C69.9113 217.327 69.998 217.493 70.1113 217.64C70.2247 217.787 70.368 217.907 70.5413 218C70.7147 218.093 70.9213 218.14 71.1613 218.14C71.4013 218.14 71.608 218.093 71.7813 218C71.9547 217.907 72.098 217.787 72.2113 217.64C72.3247 217.493 72.408 217.327 72.4613 217.14C72.5213 216.953 72.5513 216.767 72.5513 216.58C72.5513 216.393 72.5213 216.21 72.4613 216.03C72.408 215.843 72.3247 215.677 72.2113 215.53C72.098 215.383 71.9547 215.267 71.7813 215.18C71.608 215.087 71.4013 215.04 71.1613 215.04C70.9213 215.04 70.7147 215.087 70.5413 215.18C70.368 215.267 70.2247 215.383 70.1113 215.53C69.998 215.677 69.9113 215.843 69.8513 216.03C69.798 216.21 69.7713 216.393 69.7713 216.58ZM78.3148 214.2H79.5148V219H78.3148V214.2ZM78.1448 212.57C78.1448 212.377 78.2148 212.21 78.3548 212.07C78.5015 211.923 78.6848 211.85 78.9048 211.85C79.1248 211.85 79.3082 211.92 79.4548 212.06C79.6082 212.193 79.6848 212.363 79.6848 212.57C79.6848 212.777 79.6082 212.95 79.4548 213.09C79.3082 213.223 79.1248 213.29 78.9048 213.29C78.6848 213.29 78.5015 213.22 78.3548 213.08C78.2148 212.933 78.1448 212.763 78.1448 212.57ZM75.1248 215.16H74.2148V214.2H75.1248V213.49C75.1248 213.203 75.1548 212.93 75.2148 212.67C75.2815 212.403 75.3882 212.17 75.5348 211.97C75.6882 211.77 75.8882 211.613 76.1348 211.5C76.3815 211.38 76.6915 211.32 77.0648 211.32C77.1982 211.32 77.3082 211.327 77.3948 211.34C77.4882 211.347 77.5815 211.363 77.6748 211.39L77.5948 212.41C77.5282 212.39 77.4548 212.373 77.3748 212.36C77.3015 212.347 77.2215 212.34 77.1348 212.34C76.9615 212.34 76.8215 212.373 76.7148 212.44C76.6082 212.507 76.5248 212.593 76.4648 212.7C76.4115 212.807 76.3748 212.923 76.3548 213.05C76.3348 213.177 76.3248 213.3 76.3248 213.42V214.2H77.4348V215.16H76.3248V219H75.1248V215.16ZM80.8826 211.44H82.0826V219H80.8826V211.44ZM86.9184 216.12C86.9184 215.967 86.895 215.82 86.8484 215.68C86.8084 215.54 86.7417 215.417 86.6484 215.31C86.555 215.203 86.435 215.12 86.2884 215.06C86.1484 214.993 85.9817 214.96 85.7884 214.96C85.4284 214.96 85.1217 215.07 84.8684 215.29C84.6217 215.503 84.485 215.78 84.4584 216.12H86.9184ZM88.1184 216.66C88.1184 216.713 88.1184 216.767 88.1184 216.82C88.1184 216.873 88.115 216.927 88.1084 216.98H84.4584C84.4717 217.153 84.515 217.313 84.5884 217.46C84.6684 217.6 84.7717 217.723 84.8984 217.83C85.025 217.93 85.1684 218.01 85.3284 218.07C85.4884 218.13 85.655 218.16 85.8284 218.16C86.1284 218.16 86.3817 218.107 86.5884 218C86.795 217.887 86.965 217.733 87.0984 217.54L87.8984 218.18C87.425 218.82 86.7384 219.14 85.8384 219.14C85.465 219.14 85.1217 219.083 84.8084 218.97C84.495 218.85 84.2217 218.683 83.9884 218.47C83.7617 218.257 83.5817 217.997 83.4484 217.69C83.3217 217.377 83.2584 217.023 83.2584 216.63C83.2584 216.243 83.3217 215.893 83.4484 215.58C83.5817 215.26 83.7617 214.99 83.9884 214.77C84.215 214.543 84.4817 214.37 84.7884 214.25C85.1017 214.123 85.4384 214.06 85.7984 214.06C86.1317 214.06 86.4384 214.117 86.7184 214.23C87.005 214.337 87.2517 214.5 87.4584 214.72C87.665 214.933 87.825 215.203 87.9384 215.53C88.0584 215.85 88.1184 216.227 88.1184 216.66Z" fill="#70E0C9"/>
<path d="M48 192C48 190.895 48.8954 190 50 190H186C187.105 190 188 190.895 188 192V202H48V192Z" fill="#4E596D"/>
<circle cx="54.5636" cy="196.81" r="1.48204" fill="#FFB24D"/>
<circle cx="59.2228" cy="196.809" r="1.48204" fill="#FFD177"/>
<circle cx="63.8794" cy="196.809" r="1.48204" fill="#ACFD76"/>
<path d="M69.513 195.234C69.5606 194.805 69.9232 194.481 70.3547 194.481H90.8586C91.2902 194.481 91.6527 194.805 91.7004 195.234L92.4636 202.103H68.7498L69.513 195.234Z" fill="#E8EBEF"/>
<rect x="71.2919" y="197.448" width="15.2438" height="1.69376" rx="0.84688" fill="#D2D5D9"/>
<rect x="87.3843" y="197.446" width="1.69376" height="1.69376" rx="0.84688" fill="#D2D5D9"/>
<path d="M93.7837 196.219C93.7566 195.968 93.9528 195.75 94.2047 195.75H99.2693C99.4851 195.75 99.6664 195.912 99.6901 196.127L100.16 200.361C100.187 200.612 99.991 200.831 99.7386 200.831H94.6635C94.4473 200.831 94.2658 200.668 94.2425 200.453L93.7837 196.219Z" fill="#E8EBEF"/>
<rect x="95.8528" y="197.974" width="2.54064" height="0.63516" rx="0.31758" fill="#D1D5D9"/>
<rect x="97.4399" y="197.021" width="2.54064" height="0.63516" rx="0.31758" transform="rotate(90 97.4399 197.021)" fill="#D1D5D9"/>
<mask id="mask1" mask-type="alpha" maskUnits="userSpaceOnUse" x="335" y="45" width="16" height="130">
<path d="M336.976 62.7273C338.967 59.1818 338.967 54.4545 336.976 50.9091C335.995 49.1613 335.53 47.0689 335.533 45H350.41V175H338.469C338.469 172.932 337.971 170.864 336.976 169.091C334.986 165.545 334.986 160.818 336.976 157.273C338.967 153.727 338.967 149 336.976 145.455C334.986 141.909 334.986 137.182 336.976 133.636C338.967 130.091 338.967 125.364 336.976 121.818C334.986 118.273 334.986 113.545 336.976 110C338.967 106.455 338.967 101.727 336.976 98.1818C334.986 94.6364 334.986 89.9091 336.976 86.3636C338.967 82.8182 338.967 78.0909 336.976 74.5455C334.986 71 334.986 66.2727 336.976 62.7273Z" fill="#9E9E9E"/>
</mask>
<g mask="url(#mask1)">
<path d="M320.054 50H343.979C345.636 50 346.979 51.3431 346.979 53V80H320.054V50Z" fill="#6AD4BE"/>
<rect x="320.054" y="80" width="26.4529" height="30" fill="white" stroke="#D9D9D9"/>
<rect x="320.054" y="110" width="26.4529" height="30" fill="white" stroke="#D9D9D9"/>
<path d="M320.054 140H346.507V167C346.507 168.657 345.164 170 343.507 170H320.054V140Z" fill="white" stroke="#D9D9D9"/>
</g>
<mask id="mask2" mask-type="alpha" maskUnits="userSpaceOnUse" x="318" y="45" width="15" height="130">
<path d="M331.006 62.7273C332.996 59.1818 332.996 54.4545 331.006 50.9091C330.025 49.1613 329.56 47.0689 329.562 45H318.567V175H332.498C332.498 172.932 332.001 170.864 331.006 169.091C329.016 165.545 329.016 160.818 331.006 157.273C332.996 153.727 332.996 149 331.006 145.455C329.016 141.909 329.016 137.182 331.006 133.636C332.996 130.091 332.996 125.364 331.006 121.818C329.016 118.273 329.016 113.545 331.006 110C332.996 106.455 332.996 101.727 331.006 98.1818C329.016 94.6364 329.016 89.9091 331.006 86.3636C332.996 82.8182 332.996 78.0909 331.006 74.5455C329.016 71 329.016 66.2727 331.006 62.7273Z" fill="#9E9E9E"/>
</mask>
<g mask="url(#mask2)">
<rect x="322.044" y="50" width="26.4529" height="30" fill="#6AD4BE"/>
<rect x="322.044" y="80" width="26.4529" height="30" fill="white" stroke="#D9D9D9"/>
<rect x="322.044" y="110" width="26.4529" height="30" fill="white" stroke="#D9D9D9"/>
<rect x="322.044" y="140" width="26.4529" height="30" fill="white" stroke="#D9D9D9"/>
</g>
<path d="M329.563 45C329.56 47.0689 330.025 49.1613 331.006 50.9091C332.996 54.4545 332.996 59.1818 331.006 62.7273C329.016 66.2727 329.016 71 331.006 74.5455C332.996 78.0909 332.996 82.8182 331.006 86.3636C329.016 89.9091 329.016 94.6364 331.006 98.1818C332.996 101.727 332.996 106.455 331.006 110C329.016 113.545 329.016 118.273 331.006 121.818C332.996 125.364 332.996 130.091 331.006 133.636C329.016 137.182 329.016 141.909 331.006 145.455C332.996 149 332.996 153.727 331.006 157.273C329.016 160.818 329.016 165.545 331.006 169.091C332.001 170.864 332.498 172.932 332.498 175" stroke="#D9D9D9" stroke-linecap="round"/>
<path d="M335.533 45C335.53 47.0689 335.995 49.1613 336.976 50.9091C338.967 54.4545 338.967 59.1818 336.976 62.7273C334.986 66.2727 334.986 71 336.976 74.5455C338.967 78.0909 338.967 82.8182 336.976 86.3636C334.986 89.9091 334.986 94.6364 336.976 98.1818C338.967 101.727 338.967 106.455 336.976 110C334.986 113.545 334.986 118.273 336.976 121.818C338.967 125.364 338.967 130.091 336.976 133.636C334.986 137.182 334.986 141.909 336.976 145.455C338.967 149 338.967 153.727 336.976 157.273C334.986 160.818 334.986 165.545 336.976 169.091C337.971 170.864 338.469 172.932 338.469 175" stroke="#D9D9D9" stroke-linecap="round"/>
<rect x="169.795" y="50" width="152.249" height="30" fill="#6AD4BE"/>
<rect x="169.795" y="80" width="152.249" height="30" fill="white" stroke="#D9D9D9"/>
<rect x="169.795" y="110" width="152.249" height="30" fill="white" stroke="#D9D9D9"/>
<path fill-rule="evenodd" clip-rule="evenodd" d="M322.044 140H169.795V170H302.827C302.827 170 302.827 170.001 302.827 170.001L309.205 188.008C309.676 189.34 311.561 189.34 312.032 188.008L318.41 170.001C318.41 170.001 318.41 170 318.41 170H322.044V140Z" fill="white"/>
<path d="M169.795 140V139.5H169.295V140H169.795ZM322.044 140H322.544V139.5H322.044V140ZM169.795 170H169.295V170.5H169.795V170ZM302.827 170L303.298 169.832L303.18 169.5H302.827V170ZM302.827 170.001L303.298 169.834L303.298 169.833L302.827 170.001ZM309.205 188.008L308.733 188.175L309.205 188.008ZM312.032 188.008L312.504 188.175L312.032 188.008ZM318.41 170.001L317.939 169.833L317.939 169.834L318.41 170.001ZM318.41 170V169.5H318.057L317.939 169.832L318.41 170ZM322.044 170V170.5H322.544V170H322.044ZM169.795 140.5H322.044V139.5H169.795V140.5ZM170.295 170V140H169.295V170H170.295ZM302.827 169.5H169.795V170.5H302.827V169.5ZM302.356 170.168L302.356 170.168L303.298 169.833L303.298 169.832L302.356 170.168ZM302.356 170.168L308.733 188.175L309.676 187.841L303.298 169.834L302.356 170.168ZM308.733 188.175C309.362 189.951 311.875 189.951 312.504 188.175L311.561 187.841C311.247 188.729 309.99 188.729 309.676 187.841L308.733 188.175ZM312.504 188.175L318.881 170.168L317.939 169.834L311.561 187.841L312.504 188.175ZM318.881 170.168L318.881 170.168L317.939 169.832L317.939 169.833L318.881 170.168ZM322.044 169.5H318.41V170.5H322.044V169.5ZM321.544 140V170H322.544V140H321.544Z" fill="#D9D9D9"/>
<rect x="72.2759" y="50" width="97.5191" height="30" fill="#6AD4BE"/>
<rect x="72.2759" y="80" width="97.5191" height="30" fill="white" stroke="#D9D9D9"/>
<rect x="72.2759" y="110" width="97.5191" height="30" fill="white" stroke="#D9D9D9"/>
<rect x="72.2759" y="140" width="97.5191" height="30" fill="white" stroke="#D9D9D9"/>
<path d="M221.409 69H220.041V68.136H220.017C219.817 68.472 219.537 68.728 219.177 68.904C218.825 69.08 218.445 69.168 218.037 69.168C217.597 69.168 217.201 69.088 216.849 68.928C216.505 68.76 216.209 68.54 215.961 68.268C215.721 67.988 215.533 67.664 215.397 67.296C215.269 66.92 215.205 66.52 215.205 66.096C215.205 65.672 215.273 65.276 215.409 64.908C215.545 64.54 215.737 64.22 215.985 63.948C216.233 63.676 216.529 63.464 216.873 63.312C217.217 63.152 217.593 63.072 218.001 63.072C218.265 63.072 218.501 63.104 218.709 63.168C218.917 63.224 219.097 63.296 219.249 63.384C219.409 63.472 219.545 63.568 219.657 63.672C219.769 63.776 219.861 63.876 219.933 63.972H219.969V59.928H221.409V69ZM216.669 66.096C216.669 66.32 216.701 66.544 216.765 66.768C216.837 66.992 216.941 67.192 217.077 67.368C217.213 67.544 217.385 67.688 217.593 67.8C217.801 67.912 218.045 67.968 218.325 67.968C218.589 67.968 218.825 67.916 219.033 67.812C219.241 67.7 219.417 67.556 219.561 67.38C219.713 67.204 219.825 67.008 219.897 66.792C219.977 66.568 220.017 66.344 220.017 66.12C220.017 65.896 219.977 65.672 219.897 65.448C219.825 65.224 219.713 65.024 219.561 64.848C219.417 64.672 219.241 64.528 219.033 64.416C218.825 64.304 218.589 64.248 218.325 64.248C218.045 64.248 217.801 64.304 217.593 64.416C217.385 64.52 217.213 64.66 217.077 64.836C216.941 65.012 216.837 65.212 216.765 65.436C216.701 65.652 216.669 65.872 216.669 66.096ZM227.214 65.544C227.214 65.36 227.186 65.184 227.13 65.016C227.082 64.848 227.002 64.7 226.89 64.572C226.778 64.444 226.634 64.344 226.458 64.272C226.29 64.192 226.09 64.152 225.858 64.152C225.426 64.152 225.058 64.284 224.754 64.548C224.458 64.804 224.294 65.136 224.262 65.544H227.214ZM228.654 66.192C228.654 66.256 228.654 66.32 228.654 66.384C228.654 66.448 228.65 66.512 228.642 66.576H224.262C224.278 66.784 224.33 66.976 224.418 67.152C224.514 67.32 224.638 67.468 224.79 67.596C224.942 67.716 225.114 67.812 225.306 67.884C225.498 67.956 225.698 67.992 225.906 67.992C226.266 67.992 226.57 67.928 226.818 67.8C227.066 67.664 227.27 67.48 227.43 67.248L228.39 68.016C227.822 68.784 226.998 69.168 225.918 69.168C225.47 69.168 225.058 69.1 224.682 68.964C224.306 68.82 223.978 68.62 223.698 68.364C223.426 68.108 223.21 67.796 223.05 67.428C222.898 67.052 222.822 66.628 222.822 66.156C222.822 65.692 222.898 65.272 223.05 64.896C223.21 64.512 223.426 64.188 223.698 63.924C223.97 63.652 224.29 63.444 224.658 63.3C225.034 63.148 225.438 63.072 225.87 63.072C226.27 63.072 226.638 63.14 226.974 63.276C227.318 63.404 227.614 63.6 227.862 63.864C228.11 64.12 228.302 64.444 228.438 64.836C228.582 65.22 228.654 65.672 228.654 66.192ZM233.205 64.776C233.077 64.608 232.901 64.464 232.677 64.344C232.453 64.216 232.209 64.152 231.945 64.152C231.713 64.152 231.501 64.2 231.309 64.296C231.117 64.392 231.021 64.552 231.021 64.776C231.021 65 231.125 65.16 231.333 65.256C231.549 65.344 231.861 65.436 232.269 65.532C232.485 65.58 232.701 65.644 232.917 65.724C233.141 65.804 233.341 65.912 233.517 66.048C233.701 66.176 233.849 66.34 233.961 66.54C234.073 66.732 234.129 66.968 234.129 67.248C234.129 67.6 234.061 67.9 233.925 68.148C233.797 68.388 233.621 68.584 233.397 68.736C233.181 68.888 232.925 68.996 232.629 69.06C232.341 69.132 232.041 69.168 231.729 69.168C231.281 69.168 230.845 69.088 230.421 68.928C229.997 68.76 229.645 68.524 229.365 68.22L230.313 67.332C230.473 67.54 230.681 67.712 230.937 67.848C231.193 67.984 231.477 68.052 231.789 68.052C231.893 68.052 231.997 68.04 232.101 68.016C232.213 67.992 232.313 67.956 232.401 67.908C232.497 67.852 232.573 67.78 232.629 67.692C232.685 67.604 232.713 67.496 232.713 67.368C232.713 67.128 232.601 66.956 232.377 66.852C232.161 66.748 231.833 66.644 231.393 66.54C231.177 66.492 230.965 66.432 230.757 66.36C230.557 66.28 230.377 66.18 230.217 66.06C230.057 65.932 229.929 65.776 229.833 65.592C229.737 65.408 229.689 65.18 229.689 64.908C229.689 64.588 229.753 64.312 229.881 64.08C230.017 63.848 230.193 63.66 230.409 63.516C230.625 63.364 230.869 63.252 231.141 63.18C231.413 63.108 231.693 63.072 231.981 63.072C232.397 63.072 232.801 63.144 233.193 63.288C233.593 63.432 233.909 63.652 234.141 63.948L233.205 64.776ZM239.317 64.836C239.205 64.676 239.037 64.544 238.813 64.44C238.589 64.328 238.361 64.272 238.129 64.272C237.865 64.272 237.633 64.328 237.433 64.44C237.233 64.544 237.065 64.684 236.929 64.86C236.801 65.036 236.705 65.236 236.641 65.46C236.577 65.676 236.545 65.896 236.545 66.12C236.545 66.344 236.577 66.568 236.641 66.792C236.713 67.008 236.817 67.204 236.953 67.38C237.089 67.556 237.257 67.7 237.457 67.812C237.665 67.916 237.905 67.968 238.177 67.968C238.401 67.968 238.625 67.924 238.849 67.836C239.073 67.748 239.253 67.62 239.389 67.452L240.289 68.364C240.049 68.62 239.741 68.82 239.365 68.964C238.997 69.1 238.597 69.168 238.165 69.168C237.741 69.168 237.337 69.1 236.953 68.964C236.577 68.828 236.245 68.628 235.957 68.364C235.677 68.1 235.453 67.78 235.285 67.404C235.125 67.028 235.045 66.6 235.045 66.12C235.045 65.656 235.125 65.236 235.285 64.86C235.453 64.484 235.677 64.164 235.957 63.9C236.237 63.636 236.561 63.432 236.929 63.288C237.305 63.144 237.705 63.072 238.129 63.072C238.553 63.072 238.961 63.152 239.353 63.312C239.753 63.472 240.069 63.692 240.301 63.972L239.317 64.836ZM241.24 63.24H242.62V64.2H242.644C242.804 63.864 243.028 63.592 243.316 63.384C243.604 63.176 243.94 63.072 244.324 63.072C244.38 63.072 244.44 63.076 244.504 63.084C244.568 63.084 244.624 63.092 244.672 63.108V64.428C244.576 64.404 244.492 64.388 244.42 64.38C244.356 64.372 244.292 64.368 244.228 64.368C243.9 64.368 243.636 64.428 243.436 64.548C243.236 64.668 243.08 64.812 242.968 64.98C242.856 65.148 242.78 65.32 242.74 65.496C242.7 65.672 242.68 65.812 242.68 65.916V69H241.24V63.24ZM245.636 63.24H247.076V69H245.636V63.24ZM245.432 61.284C245.432 61.052 245.516 60.852 245.684 60.684C245.86 60.508 246.08 60.42 246.344 60.42C246.608 60.42 246.828 60.504 247.004 60.672C247.188 60.832 247.28 61.036 247.28 61.284C247.28 61.532 247.188 61.74 247.004 61.908C246.828 62.068 246.608 62.148 246.344 62.148C246.08 62.148 245.86 62.064 245.684 61.896C245.516 61.72 245.432 61.516 245.432 61.284ZM250.202 63.24V64.044H250.238C250.31 63.932 250.402 63.82 250.514 63.708C250.634 63.588 250.778 63.484 250.946 63.396C251.114 63.3 251.302 63.224 251.51 63.168C251.726 63.104 251.966 63.072 252.23 63.072C252.638 63.072 253.014 63.152 253.358 63.312C253.702 63.464 253.998 63.676 254.246 63.948C254.494 64.22 254.686 64.54 254.822 64.908C254.958 65.276 255.026 65.672 255.026 66.096C255.026 66.52 254.958 66.92 254.822 67.296C254.694 67.664 254.506 67.988 254.258 68.268C254.018 68.54 253.722 68.76 253.37 68.928C253.026 69.088 252.634 69.168 252.194 69.168C251.786 69.168 251.41 69.084 251.066 68.916C250.73 68.748 250.47 68.52 250.286 68.232H250.262V71.88H248.822V63.24H250.202ZM253.562 66.096C253.562 65.872 253.526 65.652 253.454 65.436C253.39 65.212 253.29 65.012 253.154 64.836C253.018 64.66 252.846 64.52 252.638 64.416C252.43 64.304 252.186 64.248 251.906 64.248C251.642 64.248 251.406 64.304 251.198 64.416C250.99 64.528 250.81 64.672 250.658 64.848C250.514 65.024 250.402 65.224 250.322 65.448C250.25 65.672 250.214 65.896 250.214 66.12C250.214 66.344 250.25 66.568 250.322 66.792C250.402 67.008 250.514 67.204 250.658 67.38C250.81 67.556 250.99 67.7 251.198 67.812C251.406 67.916 251.642 67.968 251.906 67.968C252.186 67.968 252.43 67.912 252.638 67.8C252.846 67.688 253.018 67.544 253.154 67.368C253.29 67.192 253.39 66.992 253.454 66.768C253.526 66.544 253.562 66.32 253.562 66.096ZM255.588 64.392V63.24H256.596V61.572H258.012V63.24H259.452V64.392H258.012V67.068C258.012 67.324 258.056 67.536 258.144 67.704C258.24 67.872 258.448 67.956 258.768 67.956C258.864 67.956 258.968 67.948 259.08 67.932C259.192 67.908 259.292 67.876 259.38 67.836L259.428 68.964C259.3 69.012 259.148 69.048 258.972 69.072C258.796 69.104 258.628 69.12 258.468 69.12C258.084 69.12 257.772 69.068 257.532 68.964C257.292 68.852 257.1 68.704 256.956 68.52C256.82 68.328 256.724 68.112 256.668 67.872C256.62 67.624 256.596 67.36 256.596 67.08V64.392H255.588ZM260.518 63.24H261.958V69H260.518V63.24ZM260.314 61.284C260.314 61.052 260.398 60.852 260.566 60.684C260.742 60.508 260.962 60.42 261.226 60.42C261.49 60.42 261.71 60.504 261.886 60.672C262.07 60.832 262.162 61.036 262.162 61.284C262.162 61.532 262.07 61.74 261.886 61.908C261.71 62.068 261.49 62.148 261.226 62.148C260.962 62.148 260.742 62.064 260.566 61.896C260.398 61.72 260.314 61.516 260.314 61.284ZM263.369 66.096C263.369 65.64 263.449 65.228 263.609 64.86C263.777 64.484 264.001 64.164 264.281 63.9C264.561 63.636 264.893 63.432 265.277 63.288C265.661 63.144 266.069 63.072 266.501 63.072C266.933 63.072 267.341 63.144 267.725 63.288C268.109 63.432 268.441 63.636 268.721 63.9C269.001 64.164 269.221 64.484 269.381 64.86C269.549 65.228 269.633 65.64 269.633 66.096C269.633 66.552 269.549 66.968 269.381 67.344C269.221 67.72 269.001 68.044 268.721 68.316C268.441 68.58 268.109 68.788 267.725 68.94C267.341 69.092 266.933 69.168 266.501 69.168C266.069 69.168 265.661 69.092 265.277 68.94C264.893 68.788 264.561 68.58 264.281 68.316C264.001 68.044 263.777 67.72 263.609 67.344C263.449 66.968 263.369 66.552 263.369 66.096ZM264.833 66.096C264.833 66.32 264.865 66.544 264.929 66.768C265.001 66.992 265.105 67.192 265.241 67.368C265.377 67.544 265.549 67.688 265.757 67.8C265.965 67.912 266.213 67.968 266.501 67.968C266.789 67.968 267.037 67.912 267.245 67.8C267.453 67.688 267.625 67.544 267.761 67.368C267.897 67.192 267.997 66.992 268.061 66.768C268.133 66.544 268.169 66.32 268.169 66.096C268.169 65.872 268.133 65.652 268.061 65.436C267.997 65.212 267.897 65.012 267.761 64.836C267.625 64.66 267.453 64.52 267.245 64.416C267.037 64.304 266.789 64.248 266.501 64.248C266.213 64.248 265.965 64.304 265.757 64.416C265.549 64.52 265.377 64.66 265.241 64.836C265.105 65.012 265.001 65.212 264.929 65.436C264.865 65.652 264.833 65.872 264.833 66.096ZM271.029 63.24H272.397V64.164H272.421C272.549 63.876 272.769 63.624 273.081 63.408C273.401 63.184 273.777 63.072 274.209 63.072C274.585 63.072 274.905 63.14 275.169 63.276C275.441 63.404 275.661 63.576 275.829 63.792C276.005 64.008 276.133 64.256 276.213 64.536C276.293 64.816 276.333 65.104 276.333 65.4V69H274.893V65.808C274.893 65.64 274.881 65.464 274.857 65.28C274.833 65.096 274.781 64.932 274.701 64.788C274.621 64.636 274.509 64.512 274.365 64.416C274.229 64.32 274.045 64.272 273.813 64.272C273.581 64.272 273.381 64.32 273.213 64.416C273.045 64.504 272.905 64.62 272.793 64.764C272.689 64.908 272.609 65.076 272.553 65.268C272.497 65.452 272.469 65.64 272.469 65.832V69H271.029V63.24Z" fill="white"/>
<path d="M188.092 121.311H182.68C182.086 121.311 181.833 121.3 181.437 121.245V122.125C181.767 122.081 182.031 122.059 182.669 122.059H188.268C187.883 123.665 187.245 124.952 186.343 125.975C185.353 127.097 183.791 128.065 182.317 128.472C182.581 128.736 182.702 128.89 182.856 129.231C184.473 128.626 185.716 127.823 186.86 126.624C187.861 125.579 188.565 124.204 189.104 122.246C189.115 122.213 189.115 122.213 189.126 122.18C189.28 122.224 189.39 122.235 189.511 122.235C190.204 122.235 190.765 121.674 190.765 120.981C190.765 120.299 190.204 119.738 189.522 119.738C188.829 119.738 188.268 120.299 188.268 120.992C188.268 121.091 188.279 121.19 188.312 121.311H188.092ZM189.522 120.2C189.951 120.2 190.303 120.552 190.303 120.981C190.303 121.421 189.951 121.773 189.522 121.773C189.082 121.773 188.73 121.421 188.73 120.981C188.73 120.552 189.082 120.2 189.522 120.2ZM199.367 128.098V128.879H200.203C200.181 128.648 200.17 128.362 200.17 128.032V122.081C200.17 121.63 200.17 121.487 200.203 121.223C199.95 121.256 199.818 121.256 199.345 121.256H193.482C193.053 121.256 192.844 121.245 192.624 121.223C192.657 121.487 192.668 121.63 192.668 122.081V128.054C192.668 128.417 192.657 128.637 192.624 128.879H193.471V128.098H199.367ZM199.367 127.383H193.471V121.982H199.367V127.383ZM206.231 120.101C206.209 120.387 205.978 120.937 205.538 121.696C204.735 123.071 203.855 124.039 202.777 124.721C203.096 124.908 203.206 125.018 203.393 125.282C204.372 124.578 205.417 123.423 206.022 122.422L209.729 122.367C208.882 125.414 206.814 127.724 203.954 128.824C204.229 129.033 204.339 129.176 204.504 129.473C207.562 128.109 209.476 125.953 210.488 122.719C210.576 122.433 210.587 122.411 210.675 122.29L210.015 121.597C209.861 121.663 209.828 121.663 209.443 121.674L206.781 121.718C206.572 121.718 206.473 121.729 206.385 121.751C206.495 121.597 206.616 121.344 206.891 120.783C207.023 120.486 207.034 120.475 207.133 120.332L206.231 120.101ZM209.982 120.277C210.334 120.64 210.829 121.399 211.104 121.971L211.654 121.641C211.313 120.981 211.071 120.618 210.532 119.98L209.982 120.277ZM211.225 119.672C211.687 120.2 212.083 120.805 212.347 121.355L212.897 121.036C212.501 120.321 212.314 120.035 211.764 119.364L211.225 119.672ZM215.383 121.52C215.68 121.476 215.944 121.465 216.527 121.465H220.223C220.806 121.465 221.07 121.476 221.367 121.52V120.673C221.048 120.739 220.828 120.75 220.212 120.75H216.538C215.922 120.75 215.702 120.739 215.383 120.673V121.52ZM214.437 124.05C214.811 124.006 215.13 123.995 215.713 123.995H221.455C220.949 125.348 220.454 126.162 219.673 126.877C218.848 127.636 217.88 128.131 216.406 128.549C216.67 128.868 216.747 128.989 216.879 129.308C219.728 128.351 221.246 126.943 222.181 124.38C222.368 123.896 222.39 123.841 222.489 123.687L222.082 123.214C221.895 123.28 221.774 123.291 221.367 123.291H215.724C215.064 123.291 214.833 123.28 214.437 123.225V124.05ZM226.647 121.179C228.473 121.399 230.783 121.927 232.224 122.455L232.51 121.652C230.475 121.047 228.792 120.684 226.966 120.442L226.647 121.179ZM226.449 124.182C228.418 124.457 230.354 124.93 231.905 125.524L232.191 124.732C230.233 124.116 228.616 123.731 226.768 123.445L226.449 124.182ZM225.58 127.273C226.68 127.438 227.571 127.614 228.902 127.944C230.695 128.395 231.597 128.692 232.631 129.176L232.939 128.373C230.607 127.493 228.693 126.987 225.91 126.536L225.58 127.273ZM236.635 121.817C237.592 122.4 238.461 123.115 239.253 123.973L239.825 123.291C239.033 122.51 238.351 121.971 237.174 121.223L236.635 121.817ZM236.712 128.967C236.987 128.879 237.075 128.857 237.372 128.791C239.209 128.373 240.342 127.922 241.475 127.152C242.927 126.151 243.95 124.864 244.83 122.95C244.522 122.741 244.412 122.642 244.159 122.301C243.268 124.633 241.794 126.25 239.671 127.196C238.648 127.669 237.328 128.01 236.47 128.043L236.712 128.967ZM250.231 120.101C250.209 120.387 249.978 120.937 249.538 121.696C248.735 123.071 247.855 124.039 246.777 124.721C247.096 124.908 247.206 125.018 247.393 125.282C248.372 124.578 249.417 123.423 250.022 122.422L253.729 122.367C252.882 125.414 250.814 127.724 247.954 128.824C248.229 129.033 248.339 129.176 248.504 129.473C251.562 128.109 253.476 125.953 254.488 122.719C254.576 122.433 254.587 122.411 254.675 122.29L254.015 121.597C253.861 121.663 253.828 121.663 253.443 121.674L250.781 121.718C250.572 121.718 250.473 121.729 250.385 121.751C250.495 121.597 250.616 121.344 250.891 120.783C251.023 120.486 251.034 120.475 251.133 120.332L250.231 120.101ZM253.982 120.277C254.334 120.64 254.829 121.399 255.104 121.971L255.654 121.641C255.313 120.981 255.071 120.618 254.532 119.98L253.982 120.277ZM255.225 119.672C255.687 120.2 256.083 120.805 256.347 121.355L256.897 121.036C256.501 120.321 256.314 120.035 255.764 119.364L255.225 119.672ZM260.736 121.597C259.614 121.597 258.778 121.553 258.382 121.476L258.371 122.235C258.492 122.224 258.514 122.224 258.613 122.224C258.646 122.224 258.734 122.224 258.789 122.224C259.196 122.235 260.23 122.257 260.406 122.257C260.461 122.257 260.571 122.246 260.615 122.235C260.549 122.345 260.549 122.345 260.516 122.4C259.724 123.808 258.811 124.963 258.052 125.546L258.668 126.162C258.844 125.865 259.086 125.612 259.515 125.249C260.406 124.49 261.275 124.083 261.968 124.083C262.485 124.083 262.749 124.347 262.837 124.952C262.1 125.271 261.572 125.557 261.198 125.832C260.45 126.393 260.076 126.965 260.076 127.57C260.076 128.703 261.033 129.264 263.002 129.264C263.849 129.264 264.806 129.187 265.675 129.044C265.895 129.011 265.95 129 266.115 128.989L266.016 128.142C265.389 128.395 264.168 128.571 263.079 128.571C261.528 128.571 260.846 128.252 260.846 127.526C260.846 126.866 261.418 126.349 262.914 125.645C262.925 125.777 262.925 125.799 262.925 125.975C262.925 126.646 262.892 127.317 262.859 127.559L263.607 127.548C263.585 127.394 263.585 127.306 263.585 127.152C263.585 127.053 263.585 126.899 263.596 126.657C263.607 126.437 263.607 126.195 263.607 126.052C263.607 125.777 263.607 125.667 263.585 125.381C264.96 124.842 265.95 124.512 266.522 124.413L266.17 123.643C265.994 123.764 265.961 123.775 265.422 123.962C264.938 124.138 264.311 124.369 263.508 124.688C263.365 123.874 262.87 123.467 262.056 123.467C261.484 123.467 260.901 123.654 260.395 124.006C260.285 124.083 260.285 124.083 259.889 124.391C259.878 124.38 259.878 124.38 259.867 124.358C259.867 124.358 259.867 124.358 259.867 124.347C259.867 124.347 259.878 124.347 259.878 124.336C259.889 124.325 259.944 124.281 260.021 124.226C260.065 124.193 260.285 123.94 260.395 123.808C260.78 123.335 261.055 122.895 261.385 122.246C262.716 122.202 263.871 122.114 265.015 121.96C265.213 121.927 265.279 121.916 265.455 121.905L265.389 121.157C264.784 121.355 263.684 121.487 261.924 121.575C261.825 121.575 261.825 121.575 261.693 121.586C261.748 121.487 261.891 121.19 262.034 120.838C262.221 120.387 262.221 120.387 262.32 120.244L261.44 120.09C261.407 120.442 261.275 120.827 260.912 121.597H260.736ZM270.064 121.63C269.459 121.63 269.217 121.619 268.81 121.575C268.843 121.861 268.854 122.081 268.854 122.488V123.302C268.854 123.577 268.832 123.819 268.799 124.072H269.525V122.224H277.291V124.072H278.017C277.984 123.819 277.962 123.555 277.962 123.302V122.488C277.962 122.081 277.973 121.861 278.006 121.575C277.621 121.608 277.379 121.619 276.741 121.619H275.883C276.246 121.201 276.477 120.882 276.939 120.145L276.246 119.848C275.927 120.552 275.63 121.025 275.113 121.619H273.903C273.661 120.948 273.485 120.574 273.067 119.848L272.385 120.035C272.77 120.607 272.979 121.036 273.188 121.619H271.582C271.197 120.948 270.966 120.618 270.46 119.991L269.8 120.2C270.317 120.794 270.515 121.069 270.834 121.63H270.064ZM273.804 126.591H277.06C277.544 126.591 277.918 126.613 278.226 126.657V125.898C277.918 125.942 277.566 125.964 277.071 125.964H273.804V125.623C274.893 125.062 275.575 124.611 276.312 123.995C276.554 123.786 276.554 123.786 276.697 123.676L276.279 123.236C276.092 123.269 275.872 123.28 275.465 123.28H271.494C271.087 123.28 270.735 123.258 270.427 123.225V123.94C270.724 123.907 271.098 123.885 271.472 123.885H275.498C274.915 124.369 274.288 124.765 273.529 125.128H273.067C273.089 125.359 273.1 125.557 273.1 125.777V125.964H269.789C269.316 125.964 268.964 125.942 268.645 125.898V126.657C268.975 126.613 269.316 126.591 269.8 126.591H273.1V128.802C273.1 129.033 273.023 129.066 272.517 129.066C272.154 129.066 271.637 129.022 271.076 128.945C271.186 129.187 271.23 129.33 271.307 129.649C271.692 129.693 272.264 129.715 272.572 129.715C273.595 129.715 273.804 129.583 273.804 128.901V126.591ZM284.463 125.216C284.639 124.93 284.705 124.82 284.903 124.435L284.177 124.281C284.1 124.545 283.924 124.919 283.737 125.216H282.252C281.713 125.216 281.427 125.205 281.053 125.172C281.086 125.546 281.097 125.755 281.097 126.393V128.714C281.097 129.253 281.075 129.561 281.031 129.847H281.779V129.352H287.169V129.847H287.928C287.884 129.572 287.862 129.264 287.862 128.714V126.393C287.862 125.722 287.873 125.524 287.906 125.172C287.565 125.205 287.246 125.216 286.696 125.216H284.463ZM281.779 125.81H287.169V126.91H281.779V125.81ZM281.779 127.504H287.169V128.758H281.779V127.504ZM283.484 120.794V123.61C283.484 123.885 283.429 123.929 283.099 123.929C282.725 123.929 282.329 123.885 281.911 123.808C281.988 124.039 282.032 124.215 282.065 124.457C282.406 124.501 282.758 124.523 283.066 124.523C283.506 124.523 283.693 124.49 283.88 124.38C284.067 124.259 284.133 124.083 284.133 123.665V121.212C284.133 120.684 284.144 120.431 284.177 120.145C283.968 120.178 283.671 120.189 283.121 120.189H280.844C280.36 120.189 280.019 120.167 279.722 120.123V120.86C280.052 120.805 280.272 120.794 280.767 120.794H283.484ZM282.263 122.059C281.647 121.597 281.339 121.41 280.679 121.058L280.239 121.487C280.932 121.828 281.273 122.059 281.812 122.521L282.263 122.059ZM288.203 120.794V123.632C288.203 123.94 288.192 123.951 287.785 123.951C287.444 123.951 287.081 123.907 286.597 123.83C286.685 124.072 286.718 124.237 286.729 124.49C287.246 124.534 287.576 124.556 287.862 124.556C288.434 124.556 288.676 124.468 288.808 124.226C288.863 124.105 288.874 124.061 288.874 123.698V121.212C288.874 120.717 288.885 120.409 288.918 120.145C288.72 120.178 288.412 120.189 287.873 120.189H285.64C285.156 120.189 284.826 120.167 284.518 120.123V120.86C284.848 120.805 285.079 120.794 285.563 120.794H288.203ZM286.916 122.092C286.278 121.63 285.959 121.432 285.277 121.08L284.848 121.509C285.475 121.817 285.86 122.07 286.487 122.543L286.916 122.092ZM282.934 122.301C281.625 123.071 280.481 123.588 279.722 123.753L279.997 124.424C280.14 124.347 280.228 124.303 280.382 124.237C281.625 123.687 282.032 123.478 283 122.917L282.934 122.301ZM287.686 122.323C286.454 122.983 285.332 123.412 284.617 123.522L284.87 124.215C285.024 124.138 285.112 124.105 285.332 124.017C286.333 123.632 286.927 123.357 287.73 122.95L287.686 122.323ZM294.968 121.916H291.91C291.558 121.916 291.349 121.905 291.085 121.872C291.118 122.158 291.14 122.4 291.14 122.741V125.744C291.14 126.096 291.118 126.404 291.074 126.723H291.866V125.975H294.968V128.538C294.968 129.132 294.946 129.418 294.891 129.792H295.771C295.705 129.44 295.694 129.165 295.694 128.538V125.975H298.972V126.723H299.764C299.72 126.393 299.698 126.107 299.698 125.744V122.741C299.698 122.389 299.709 122.158 299.753 121.872C299.5 121.905 299.291 121.916 298.917 121.916H295.694V120.948C295.694 120.475 295.716 120.167 295.771 119.826H294.891C294.946 120.167 294.968 120.431 294.968 120.97V121.916ZM294.968 122.576V125.315H291.866V122.576H294.968ZM295.694 125.315V122.576H298.972V125.315H295.694ZM302.756 124.138C302.382 124.138 302.074 124.446 302.074 124.82C302.074 125.194 302.382 125.502 302.756 125.502C303.13 125.502 303.438 125.194 303.438 124.82C303.438 124.435 303.141 124.138 302.756 124.138ZM306.419 124.138C306.045 124.138 305.737 124.446 305.737 124.82C305.737 125.194 306.045 125.502 306.419 125.502C306.793 125.502 307.101 125.194 307.101 124.82C307.101 124.435 306.804 124.138 306.419 124.138ZM310.093 124.138C309.719 124.138 309.411 124.446 309.411 124.82C309.411 125.194 309.719 125.502 310.093 125.502C310.467 125.502 310.775 125.194 310.775 124.82C310.775 124.435 310.478 124.138 310.093 124.138Z" fill="black"/>
<path d="M106.325 63.24H107.693V64.164H107.717C107.845 63.876 108.065 63.624 108.377 63.408C108.697 63.184 109.073 63.072 109.505 63.072C109.881 63.072 110.201 63.14 110.465 63.276C110.737 63.404 110.957 63.576 111.125 63.792C111.301 64.008 111.429 64.256 111.509 64.536C111.589 64.816 111.629 65.104 111.629 65.4V69H110.189V65.808C110.189 65.64 110.177 65.464 110.153 65.28C110.129 65.096 110.077 64.932 109.997 64.788C109.917 64.636 109.805 64.512 109.661 64.416C109.525 64.32 109.341 64.272 109.109 64.272C108.877 64.272 108.677 64.32 108.509 64.416C108.341 64.504 108.201 64.62 108.089 64.764C107.985 64.908 107.905 65.076 107.849 65.268C107.793 65.452 107.765 65.64 107.765 65.832V69H106.325V63.24ZM116.886 68.268H116.85C116.706 68.524 116.474 68.736 116.154 68.904C115.834 69.064 115.47 69.144 115.062 69.144C114.83 69.144 114.586 69.112 114.33 69.048C114.082 68.992 113.85 68.896 113.634 68.76C113.426 68.616 113.25 68.432 113.106 68.208C112.97 67.976 112.902 67.692 112.902 67.356C112.902 66.924 113.022 66.58 113.262 66.324C113.51 66.068 113.826 65.872 114.21 65.736C114.594 65.6 115.018 65.512 115.482 65.472C115.954 65.424 116.414 65.4 116.862 65.4V65.256C116.862 64.896 116.73 64.632 116.466 64.464C116.21 64.288 115.902 64.2 115.542 64.2C115.238 64.2 114.946 64.264 114.666 64.392C114.386 64.52 114.154 64.676 113.97 64.86L113.226 63.984C113.554 63.68 113.93 63.452 114.354 63.3C114.786 63.148 115.222 63.072 115.662 63.072C116.174 63.072 116.594 63.144 116.922 63.288C117.258 63.432 117.522 63.62 117.714 63.852C117.906 64.084 118.038 64.344 118.11 64.632C118.19 64.92 118.23 65.208 118.23 65.496V69H116.886V68.268ZM116.862 66.372H116.538C116.306 66.372 116.062 66.384 115.806 66.408C115.55 66.424 115.314 66.468 115.098 66.54C114.882 66.604 114.702 66.7 114.558 66.828C114.414 66.948 114.342 67.116 114.342 67.332C114.342 67.468 114.37 67.584 114.426 67.68C114.49 67.768 114.57 67.84 114.666 67.896C114.762 67.952 114.87 67.992 114.99 68.016C115.11 68.04 115.23 68.052 115.35 68.052C115.846 68.052 116.222 67.92 116.478 67.656C116.734 67.392 116.862 67.032 116.862 66.576V66.372ZM126.783 63.072C127.159 63.072 127.479 63.14 127.743 63.276C128.015 63.404 128.235 63.576 128.403 63.792C128.579 64.008 128.707 64.256 128.787 64.536C128.867 64.816 128.907 65.104 128.907 65.4V69H127.467V65.808C127.467 65.64 127.455 65.464 127.431 65.28C127.407 65.096 127.355 64.932 127.275 64.788C127.195 64.636 127.083 64.512 126.939 64.416C126.803 64.32 126.619 64.272 126.387 64.272C126.163 64.272 125.971 64.32 125.811 64.416C125.651 64.512 125.519 64.636 125.415 64.788C125.311 64.94 125.235 65.112 125.187 65.304C125.139 65.488 125.115 65.672 125.115 65.856V69H123.675V65.52C123.675 65.16 123.587 64.864 123.411 64.632C123.243 64.392 122.975 64.272 122.607 64.272C122.391 64.272 122.203 64.32 122.043 64.416C121.883 64.504 121.751 64.62 121.647 64.764C121.551 64.908 121.475 65.076 121.419 65.268C121.371 65.452 121.347 65.64 121.347 65.832V69H119.907V63.24H121.275V64.164H121.299C121.363 64.02 121.447 63.884 121.551 63.756C121.663 63.628 121.791 63.512 121.935 63.408C122.087 63.304 122.259 63.224 122.451 63.168C122.643 63.104 122.855 63.072 123.087 63.072C123.535 63.072 123.907 63.172 124.203 63.372C124.499 63.572 124.727 63.836 124.887 64.164C125.079 63.812 125.335 63.544 125.655 63.36C125.975 63.168 126.351 63.072 126.783 63.072ZM134.639 65.544C134.639 65.36 134.611 65.184 134.555 65.016C134.507 64.848 134.427 64.7 134.315 64.572C134.203 64.444 134.059 64.344 133.883 64.272C133.715 64.192 133.515 64.152 133.283 64.152C132.851 64.152 132.483 64.284 132.179 64.548C131.883 64.804 131.719 65.136 131.687 65.544H134.639ZM136.079 66.192C136.079 66.256 136.079 66.32 136.079 66.384C136.079 66.448 136.075 66.512 136.067 66.576H131.687C131.703 66.784 131.755 66.976 131.843 67.152C131.939 67.32 132.063 67.468 132.215 67.596C132.367 67.716 132.539 67.812 132.731 67.884C132.923 67.956 133.123 67.992 133.331 67.992C133.691 67.992 133.995 67.928 134.243 67.8C134.491 67.664 134.695 67.48 134.855 67.248L135.815 68.016C135.247 68.784 134.423 69.168 133.343 69.168C132.895 69.168 132.483 69.1 132.107 68.964C131.731 68.82 131.403 68.62 131.123 68.364C130.851 68.108 130.635 67.796 130.475 67.428C130.323 67.052 130.247 66.628 130.247 66.156C130.247 65.692 130.323 65.272 130.475 64.896C130.635 64.512 130.851 64.188 131.123 63.924C131.395 63.652 131.715 63.444 132.083 63.3C132.459 63.148 132.863 63.072 133.295 63.072C133.695 63.072 134.063 63.14 134.399 63.276C134.743 63.404 135.039 63.6 135.287 63.864C135.535 64.12 135.727 64.444 135.863 64.836C136.007 65.22 136.079 65.672 136.079 66.192Z" fill="white"/>
<path d="M84.6694 120.42C84.6474 120.673 84.6254 120.783 84.5154 121.3C84.1524 122.928 84.0204 124.094 84.0204 125.656C84.0204 126.811 84.0974 127.603 84.3064 128.769C84.3394 128.978 84.3504 129.033 84.3724 129.209L85.1644 129.143C85.1644 129.066 85.1644 129.011 85.1644 128.978C85.1644 128.362 85.5604 127.042 86.0554 125.953L85.5274 125.7C85.1754 126.503 84.9664 127.108 84.8124 127.845C84.7684 127.262 84.7464 126.613 84.7464 125.755C84.7464 124.435 84.8454 123.467 85.0764 122.312C85.2414 121.564 85.3734 121.025 85.5384 120.552L84.6694 120.42ZM86.9354 122.499C87.6504 122.576 88.0794 122.609 88.6954 122.609C89.5424 122.609 90.4224 122.554 91.0604 122.466C91.5444 122.4 91.7974 122.367 91.8194 122.367L91.7644 121.586C91.0274 121.784 90.0374 121.883 88.8164 121.883C87.9584 121.883 87.4194 121.839 86.9464 121.718L86.9354 122.499ZM87.7384 124.644C87.0564 125.425 86.7814 126.019 86.7814 126.69C86.7814 127.097 86.8914 127.427 87.1114 127.702C87.5844 128.274 88.3764 128.538 89.6304 128.538C90.3784 128.538 91.1154 128.472 91.8854 128.318C92.1054 128.285 92.1274 128.274 92.2704 128.263L92.1604 127.416C91.5664 127.658 90.6314 127.801 89.6304 127.801C88.2114 127.801 87.5184 127.405 87.5184 126.591C87.5184 126.107 87.7934 125.579 88.3434 124.974L87.7384 124.644ZM97.7044 120.189C97.6384 120.519 97.3964 121.212 96.1974 124.391C94.6134 128.615 94.6134 128.615 94.4704 128.923L95.3174 129.187C95.4604 128.527 95.9664 127.273 96.3294 126.657C96.9454 125.612 97.6604 125.029 98.2984 125.029C98.6284 125.029 98.8264 125.161 98.9254 125.436C98.9914 125.612 99.0134 125.821 99.0134 126.272V126.899C99.0134 127.515 99.0464 127.867 99.1124 128.087C99.3214 128.714 99.9044 129.077 100.718 129.077C101.62 129.077 102.401 128.648 102.907 127.878C103.248 127.361 103.468 126.811 103.688 125.942C103.369 125.755 103.248 125.656 102.962 125.381C102.896 125.975 102.775 126.437 102.544 126.943C102.137 127.867 101.565 128.318 100.784 128.318C100.421 128.318 100.091 128.186 99.9484 127.977C99.8164 127.779 99.7724 127.504 99.7724 126.932V126.184C99.7724 125.557 99.7174 125.205 99.5854 124.941C99.3874 124.545 98.9584 124.292 98.4854 124.292C97.7044 124.292 97.1434 124.688 96.4174 125.733L96.3624 125.711C96.4064 125.612 96.4174 125.59 96.4614 125.513C96.5164 125.403 96.5604 125.315 96.5824 125.271C97.0334 124.325 97.0334 124.325 97.3744 123.456C98.4524 120.695 98.4524 120.695 98.5954 120.431L97.7044 120.189ZM107.087 120.497C107.12 120.728 107.131 120.849 107.131 121.08C107.131 121.267 107.131 121.465 107.12 121.795C107.032 125.26 107.021 125.535 107.021 126.272C107.021 127.427 107.175 128.01 107.626 128.527C108.066 129.033 108.759 129.297 109.694 129.297C110.981 129.297 112.015 128.846 112.796 127.933C113.28 127.361 113.599 126.712 114.017 125.436C113.687 125.26 113.522 125.15 113.225 124.897C113.071 125.678 112.939 126.107 112.686 126.624C112.059 127.878 111.047 128.538 109.738 128.538C109.166 128.538 108.671 128.384 108.363 128.109C108.033 127.812 107.89 127.449 107.846 126.789C107.835 126.547 107.824 126.261 107.824 126.129C107.824 125.634 107.857 124.138 107.901 122.818C107.934 121.432 107.978 120.871 108.044 120.508L107.087 120.497ZM110.563 121.025C110.882 121.366 111.41 122.191 111.685 122.774L112.246 122.444C111.905 121.795 111.608 121.333 111.113 120.739L110.563 121.025ZM111.784 120.398C112.213 120.904 112.675 121.608 112.906 122.125L113.467 121.806C113.093 121.113 112.818 120.706 112.323 120.101L111.784 120.398ZM117.471 125.579C117.724 125.436 117.856 125.381 119.121 124.952C119.561 126.349 120.177 129.011 120.21 129.715L120.991 129.539C120.903 129.308 120.881 129.231 120.771 128.725C120.507 127.471 120.298 126.624 119.924 125.359C119.836 125.062 119.781 124.853 119.748 124.754C120.32 124.578 120.683 124.468 120.826 124.435C121.519 124.248 122.223 124.138 122.718 124.138C123.51 124.138 124.005 124.545 124.005 125.183C124.005 125.887 123.422 126.371 122.575 126.371C122.036 126.371 121.574 126.239 121.024 125.931C121.09 126.25 121.101 126.371 121.101 126.514C121.101 126.547 121.101 126.602 121.09 126.679C121.728 126.932 122.102 127.02 122.597 127.02C123.807 127.02 124.698 126.25 124.698 125.183C124.698 124.193 123.939 123.522 122.828 123.522C122.586 123.522 122.421 123.533 122.08 123.566C122.102 122.345 122.102 122.345 122.135 122.136H121.409C121.442 122.367 121.442 122.4 121.442 123.665C120.815 123.797 120.287 123.929 119.572 124.171C119.506 123.984 119.506 123.984 119.451 123.797C119.242 123.181 119.242 123.181 119.198 123.06C119.066 122.653 119.066 122.653 119.033 122.488L118.285 122.719C118.439 122.961 118.604 123.412 118.934 124.358C118.23 124.578 117.845 124.699 117.768 124.732C117.427 124.842 117.394 124.853 117.218 124.886L117.471 125.579ZM127.811 127.339C127.943 127.152 128.383 126.679 128.801 126.294C129.197 125.92 129.296 125.821 129.373 125.689H129.395C129.373 125.953 129.373 126.041 129.362 127.383C129.362 129.121 129.362 129.121 129.307 129.462H130.176C130.121 128.956 130.11 128.406 130.11 125.095C131.551 123.797 132.541 123.28 133.619 123.28C134.873 123.28 135.72 124.149 135.72 125.436C135.72 125.931 135.621 126.349 135.412 126.756C135.005 127.526 134.158 127.999 133.212 127.999C132.552 127.999 131.881 127.845 131.265 127.57C131.331 127.878 131.353 128.01 131.353 128.208C131.353 128.241 131.353 128.307 131.342 128.395C132.024 128.626 132.585 128.725 133.212 128.725C135.214 128.725 136.534 127.405 136.534 125.414C136.534 123.731 135.324 122.554 133.575 122.554C132.596 122.554 131.749 122.884 130.792 123.643C130.462 123.907 130.264 124.083 130.154 124.204L130.121 124.237H130.099C130.099 124.215 130.121 123.841 130.154 123.126C130.583 122.543 130.583 122.543 130.737 122.411L130.451 122.048C130.363 122.092 130.341 122.092 130.198 122.114C130.209 121.861 130.209 121.861 130.22 121.487C130.253 120.695 130.264 120.53 130.33 120.211H129.461C129.494 120.398 129.494 120.475 129.494 120.64C129.494 121.069 129.483 121.487 129.45 122.169C128.548 122.235 128.086 122.257 127.921 122.257C127.833 122.257 127.767 122.257 127.613 122.246L127.668 123.005C127.943 122.95 128.163 122.928 128.878 122.873C129.285 122.851 129.285 122.851 129.439 122.84C129.406 123.775 129.406 123.874 129.384 124.787C129.241 124.908 129.241 124.908 129.065 125.073C128.691 125.414 128.691 125.414 128.317 125.766C127.789 126.261 127.58 126.437 127.371 126.58L127.811 127.339ZM141.704 120.189C141.638 120.519 141.396 121.212 140.197 124.391C138.613 128.615 138.613 128.615 138.47 128.923L139.317 129.187C139.46 128.527 139.966 127.273 140.329 126.657C140.945 125.612 141.66 125.029 142.298 125.029C142.628 125.029 142.826 125.161 142.925 125.436C142.991 125.612 143.013 125.821 143.013 126.272V126.899C143.013 127.515 143.046 127.867 143.112 128.087C143.321 128.714 143.904 129.077 144.718 129.077C145.62 129.077 146.401 128.648 146.907 127.878C147.248 127.361 147.468 126.811 147.688 125.942C147.369 125.755 147.248 125.656 146.962 125.381C146.896 125.975 146.775 126.437 146.544 126.943C146.137 127.867 145.565 128.318 144.784 128.318C144.421 128.318 144.091 128.186 143.948 127.977C143.816 127.779 143.772 127.504 143.772 126.932V126.184C143.772 125.557 143.717 125.205 143.585 124.941C143.387 124.545 142.958 124.292 142.485 124.292C141.704 124.292 141.143 124.688 140.417 125.733L140.362 125.711C140.406 125.612 140.417 125.59 140.461 125.513C140.516 125.403 140.56 125.315 140.582 125.271C141.033 124.325 141.033 124.325 141.374 123.456C142.452 120.695 142.452 120.695 142.595 120.431L141.704 120.189ZM151.12 121.872C151.263 121.872 151.285 121.883 151.483 121.905C152.198 121.993 153.133 122.048 153.903 122.048C154.53 122.048 154.904 122.015 155.564 121.905C155.454 121.971 155.432 121.971 155.355 122.015C155.223 122.081 155.201 122.092 155.08 122.158C154.585 122.433 154.321 122.598 153.617 123.071L154.178 123.522C155.256 122.741 156.268 122.136 156.95 121.85L156.895 121.124C156.29 121.278 155.399 121.355 154.112 121.355C152.858 121.355 151.989 121.278 151.186 121.091L151.12 121.872ZM151.78 124.688C150.933 125.403 150.515 126.096 150.515 126.811C150.515 127.57 150.944 128.131 151.769 128.472C152.308 128.681 153.243 128.813 154.299 128.813C155.267 128.813 156.312 128.725 157.269 128.56C157.456 128.527 157.5 128.516 157.643 128.505L157.544 127.603C156.928 127.856 155.619 128.021 154.244 128.021C153.375 128.021 152.649 127.944 152.231 127.801C151.615 127.592 151.296 127.229 151.296 126.723C151.296 126.206 151.626 125.7 152.341 125.106L151.78 124.688Z" fill="black"/>
<rect x="82.2267" y="93" width="77.6172" height="5" rx="2.5" fill="#D9D9D9"/>
<rect x="82.2267" y="153" width="77.6172" height="5" rx="2.5" fill="#D9D9D9"/>
<rect x="179.746" y="153" width="132.347" height="5" rx="2.5" fill="#D9D9D9"/>
<rect x="179.746" y="93" width="132.347" height="5" rx="2.5" fill="#D9D9D9"/>
<path d="M28 53C28 51.3431 29.3431 50 31 50H72.276V80H28V53Z" fill="#6AD4BE"/>
<path d="M72.2761 79.5008L72.2761 50" stroke="white"/>
<path d="M169.718 79.5008L169.718 50" stroke="white"/>
<path d="M321.968 79.5008L321.968 50" stroke="white"/>
<rect x="28.4917" y="80" width="43.7841" height="30" fill="white" stroke="#D9D9D9"/>
<rect x="28.4917" y="110" width="43.7841" height="30" fill="white" stroke="#D9D9D9"/>
<path d="M28.4917 140H72.2758V170H31.4917C29.8348 170 28.4917 168.657 28.4917 167V140Z" fill="white" stroke="#D9D9D9"/>
<path d="M45.8635 63.24H47.3035V69H45.8635V63.24ZM45.6595 61.284C45.6595 61.052 45.7435 60.852 45.9115 60.684C46.0875 60.508 46.3075 60.42 46.5715 60.42C46.8355 60.42 47.0555 60.504 47.2315 60.672C47.4155 60.832 47.5075 61.036 47.5075 61.284C47.5075 61.532 47.4155 61.74 47.2315 61.908C47.0555 62.068 46.8355 62.148 46.5715 62.148C46.3075 62.148 46.0875 62.064 45.9115 61.896C45.7435 61.72 45.6595 61.516 45.6595 61.284ZM54.9065 69H53.5385V68.136H53.5145C53.3145 68.472 53.0345 68.728 52.6745 68.904C52.3225 69.08 51.9425 69.168 51.5345 69.168C51.0945 69.168 50.6985 69.088 50.3465 68.928C50.0025 68.76 49.7065 68.54 49.4585 68.268C49.2185 67.988 49.0305 67.664 48.8945 67.296C48.7665 66.92 48.7025 66.52 48.7025 66.096C48.7025 65.672 48.7705 65.276 48.9065 64.908C49.0425 64.54 49.2345 64.22 49.4825 63.948C49.7305 63.676 50.0265 63.464 50.3705 63.312C50.7145 63.152 51.0905 63.072 51.4985 63.072C51.7625 63.072 51.9985 63.104 52.2065 63.168C52.4145 63.224 52.5945 63.296 52.7465 63.384C52.9065 63.472 53.0425 63.568 53.1545 63.672C53.2665 63.776 53.3585 63.876 53.4305 63.972H53.4665V59.928H54.9065V69ZM50.1665 66.096C50.1665 66.32 50.1985 66.544 50.2625 66.768C50.3345 66.992 50.4385 67.192 50.5745 67.368C50.7105 67.544 50.8825 67.688 51.0905 67.8C51.2985 67.912 51.5425 67.968 51.8225 67.968C52.0865 67.968 52.3225 67.916 52.5305 67.812C52.7385 67.7 52.9145 67.556 53.0585 67.38C53.2105 67.204 53.3225 67.008 53.3945 66.792C53.4745 66.568 53.5145 66.344 53.5145 66.12C53.5145 65.896 53.4745 65.672 53.3945 65.448C53.3225 65.224 53.2105 65.024 53.0585 64.848C52.9145 64.672 52.7385 64.528 52.5305 64.416C52.3225 64.304 52.0865 64.248 51.8225 64.248C51.5425 64.248 51.2985 64.304 51.0905 64.416C50.8825 64.52 50.7105 64.66 50.5745 64.836C50.4385 65.012 50.3345 65.212 50.2625 65.436C50.1985 65.652 50.1665 65.872 50.1665 66.096Z" fill="white"/>
<rect x="38.4426" y="93" width="23.8822" height="5" rx="2.5" fill="#D9D9D9"/>
<rect x="38.4426" y="122" width="23.8822" height="5" rx="2.5" fill="#D9D9D9"/>
<rect x="38.4426" y="153" width="23.8822" height="5" rx="2.5" fill="#D9D9D9"/>
<defs>
<clipPath id="clip0">
</clipPath>
<clipPath id="clip1">
<rect width="25" height="25" fill="white" transform="translate(57 229.5)"/>
</clipPath>
</defs>
</svg>
