<svg width="140" height="131" viewBox="0 0 140 131" fill="none" xmlns="http://www.w3.org/2000/svg">
<circle cx="65.5" cy="65.5" r="65.5" fill="#88E7CE"/>
<path d="M33.9118 18.3179C38.8699 14.4931 54.9649 11.9959 66.547 12.2391C85.533 12.2391 94.1293 16.5472 103.241 20.8454C123.303 14.4033 138.419 35.4922 139.282 39.3942C139.969 42.4944 130.383 44.5515 114.101 40.0826C114.101 40.0826 116.518 54.7254 116.752 62.7805C117.062 73.4332 116.618 96.6781 65.7272 96.6781C14.836 96.6781 12.0977 74.7758 12.0744 61.2375C12.0637 55.0484 15.1575 40.4993 16.5483 34.8337C8.98469 32.9246 3.06522 13.7531 7.14046 5.14313C9.22871 0.736937 29.9924 9.90986 33.9118 18.3179Z" fill="#7779B8"/>
<path opacity="0.25" d="M139.29 39.9009C138.18 41.1207 125.302 41.9837 113.175 36.7231C110.531 35.5724 111.321 37.2099 114.216 40.5136C114.143 40.2378 114.1 40.0827 114.1 40.0827C129.475 44.3031 138.867 42.7018 139.29 39.9009Z" fill="#605985"/>
<path opacity="0.25" d="M19.5541 32.9582C8.08295 28.3709 6.12254 9.62183 6.18964 8.41393C6.19118 8.38653 6.17824 8.36593 6.15256 8.35138C4.40695 17.7591 9.78783 33.0352 16.4862 34.8138C19.9278 34.3066 21.3388 33.67 19.5541 32.9582Z" fill="#605985"/>
<path d="M65.566 47.2753C41.2984 47.2699 26.912 56.0351 26.9082 72.4237C26.9043 89.476 42.5673 93.9815 65.6912 93.9867C88.8146 93.9919 104.48 89.5099 104.484 72.4412C104.488 55.1154 89.8337 47.2808 65.566 47.2753Z" fill="#E1BF7F"/>
<path opacity="0.2" d="M29.0563 62.6251L28.793 63.3908C50.6346 55.9861 88.0162 57.1161 103.106 63.7156C98.1462 53.4705 84.0492 47.6397 65.3238 47.6354C47.1501 47.6313 34.256 53.1302 29.0563 62.6251Z" fill="#605985"/>
<path d="M29.332 61.8308L29.3482 61.8467C49.2367 56.0855 85.3844 56.0962 102.265 62.054C97.3049 51.9632 84.3249 47.0712 65.5995 47.067C47.4258 47.0629 34.5318 52.479 29.332 61.8308Z" fill="#D1D1D1"/>
<path d="M65.7306 37.6793L76.1982 47.6436L65.7258 57.6035L55.2578 47.6391L65.7306 37.6793Z" fill="white"/>
<path opacity="0.23" d="M65.7246 57.6033L65.7248 57.6035L76.1972 47.6437L65.7319 37.6815L65.7246 57.6033Z" fill="#9E9FC1"/>
<path d="M49.7004 78.4343C51.7365 78.4343 53.3871 76.8002 53.3871 74.7844C53.3871 72.7686 51.7365 71.1345 49.7004 71.1345C47.6643 71.1345 46.0137 72.7686 46.0137 74.7844C46.0137 76.8002 47.6643 78.4343 49.7004 78.4343Z" fill="#2B366E"/>
<path d="M48.8458 76.2075C49.1166 76.2075 49.3362 75.9901 49.3362 75.722C49.3362 75.4539 49.1166 75.2366 48.8458 75.2366C48.575 75.2366 48.3555 75.4539 48.3555 75.722C48.3555 75.9901 48.575 76.2075 48.8458 76.2075Z" fill="white"/>
<path d="M50.7511 74.9961C51.3967 74.9961 51.9201 74.4779 51.9201 73.8388C51.9201 73.1996 51.3967 72.6814 50.7511 72.6814C50.1054 72.6814 49.582 73.1996 49.582 73.8388C49.582 74.4779 50.1054 74.9961 50.7511 74.9961Z" fill="white"/>
<path d="M81.7314 78.4331C83.7674 78.4331 85.4179 76.799 85.4179 74.7834C85.4179 72.7677 83.7674 71.1337 81.7314 71.1337C79.6954 71.1337 78.0449 72.7677 78.0449 74.7834C78.0449 76.799 79.6954 78.4331 81.7314 78.4331Z" fill="#2B366E"/>
<path d="M82.838 76.2077C83.1088 76.2077 83.3283 75.9904 83.3283 75.7223C83.3283 75.4542 83.1088 75.2368 82.838 75.2368C82.5672 75.2368 82.3477 75.4542 82.3477 75.7223C82.3477 75.9904 82.5672 76.2077 82.838 76.2077Z" fill="white"/>
<path d="M80.9365 74.9954C81.5821 74.9954 82.1055 74.4773 82.1055 73.8381C82.1055 73.199 81.5821 72.6808 80.9365 72.6808C80.2909 72.6808 79.7676 73.199 79.7676 73.8381C79.7676 74.4773 80.2909 74.9954 80.9365 74.9954Z" fill="white"/>
<path d="M77.4767 80.1184C77.4757 84.5756 72.2135 87.2168 65.723 87.2153C59.2326 87.2139 53.9716 84.5703 53.9727 80.1131C53.9737 75.6558 59.2363 71.0728 65.7268 71.0743C72.2172 71.0757 77.4777 75.6612 77.4767 80.1184Z" fill="white"/>
<path d="M70.686 80.4571C70.3821 80.3785 70.0658 80.5525 69.9819 80.855C69.8425 81.3593 69.1601 81.8082 68.3602 81.9213C67.9271 81.9862 66.8796 82.0068 66.2153 81.0768V78.7813C66.2153 78.4677 65.9589 78.2139 65.6421 78.2139C65.3252 78.2139 65.0689 78.4677 65.0689 78.7813V81.0769C64.4055 82.0074 63.3581 81.9809 62.925 81.9224C62.1246 81.8082 61.4417 81.3593 61.3023 80.855C61.2183 80.5513 60.902 80.3751 60.5975 80.4571C60.2925 80.5403 60.1128 80.8528 60.1962 81.1543C60.4598 82.1052 61.4903 82.8697 62.7627 83.0451C63.8035 83.1886 64.8685 82.9163 65.6422 82.1593C66.6222 83.1437 67.8 83.1645 68.5226 83.0451C69.7898 82.8357 70.8248 82.1052 71.0879 81.1543C71.1713 80.8517 70.9917 80.5403 70.686 80.4571Z" fill="#2B366E"/>
<path d="M69.8508 76.4738C69.8504 77.9479 68.0013 79.1427 65.7213 79.1421C63.4414 79.1416 61.5934 77.9461 61.5938 76.472C61.5941 74.9979 63.4424 74.6929 65.7223 74.6934C68.0023 74.6939 69.8511 74.9997 69.8508 76.4738Z" fill="#2B366E"/>
<path opacity="0.8" d="M67.1612 75.9892C67.1611 76.5024 66.5175 76.9182 65.7238 76.918C64.9302 76.9179 64.287 76.5017 64.2871 75.9886C64.2872 75.4755 64.9306 75.3693 65.7242 75.3695C66.5178 75.3697 67.1613 75.4761 67.1612 75.9892Z" fill="white"/>
<path opacity="0.9" d="M46.2863 66.2631C45.5109 68.0899 47.4894 68.3539 49.2925 68.5947C51.0956 68.8354 53.0751 70.3053 53.0738 67.1687C53.0732 65.93 51.8251 64.7389 50.1721 64.403C47.7664 63.9764 46.6598 65.3834 46.2863 66.2631Z" fill="white"/>
<path opacity="0.9" d="M85.266 66.4146C85.9627 68.2721 83.9747 68.4532 82.1629 68.6184C80.3512 68.7835 78.3108 70.1693 78.4458 67.0356C78.4993 65.798 79.7971 64.6601 81.4629 64.3936C83.7802 64.0064 84.9302 65.52 85.266 66.4146Z" fill="white"/>
<mask id="mask0" mask-type="alpha" maskUnits="userSpaceOnUse" x="0" y="0" width="131" height="131">
<circle cx="65.5" cy="65.5" r="65.5" fill="#88E7CE"/>
</mask>
<g mask="url(#mask0)">
<path d="M35.3244 92.2231C34.4184 91.8892 33.2483 91.4457 31.9825 90.9425C29.6145 89.9983 26.9017 88.8423 24.9161 87.7784C24.1511 87.3699 23.4943 86.9712 23.0061 86.6075C23.0011 86.605 22.9961 86.6 22.991 86.595C22.903 86.5303 22.8224 86.4655 22.7469 86.4032C22.3896 86.7495 22.0247 87.1083 21.6548 87.477C20.6431 88.4835 19.5912 89.5722 18.5167 90.7482C16.1587 93.3292 13.6926 96.3388 11.3396 99.8491C9.04963 103.265 6.86279 107.156 4.98044 111.596C4.33119 113.126 3.71717 114.723 3.14844 116.387C3.17108 116.372 3.19121 116.357 3.21135 116.342C6.29154 114.207 8.73507 112.685 10.7332 111.596C17.7391 107.782 19.2515 109.334 23.366 108.731C24.2694 108.599 25.2986 108.362 26.5393 107.944C26.7607 107.866 26.9923 107.787 27.2313 107.694C27.2817 107.677 27.332 107.66 27.3823 107.64C27.483 107.605 27.5861 107.565 27.6918 107.523C27.8605 107.458 28.024 107.391 28.1851 107.323C28.3159 107.268 28.4418 107.216 28.5651 107.159C28.9652 106.982 29.3402 106.8 29.6925 106.613C29.7579 106.581 29.8208 106.546 29.8837 106.509C30.0976 106.394 30.3014 106.274 30.4952 106.155C30.5858 106.098 30.6764 106.043 30.762 105.985C30.8677 105.918 30.9708 105.848 31.069 105.779C31.1923 105.694 31.3106 105.609 31.4238 105.52C31.4968 105.467 31.5673 105.412 31.6377 105.355C31.7283 105.285 31.8164 105.213 31.8994 105.141C31.9825 105.071 32.063 105.001 32.141 104.932C32.146 104.927 32.1511 104.922 32.1536 104.919C32.2241 104.854 32.292 104.79 32.36 104.725C32.4455 104.645 32.5286 104.563 32.6066 104.478C32.677 104.403 32.7475 104.329 32.8154 104.254C32.8834 104.179 32.9488 104.102 33.0142 104.027C33.0193 104.02 33.0268 104.012 33.0344 104.005C33.0319 104.002 33.0344 104.002 33.0344 104.002C33.0973 103.928 33.1552 103.855 33.2156 103.778C33.3917 103.554 33.5503 103.327 33.6937 103.095C33.7969 102.936 33.89 102.777 33.973 102.617C34.0158 102.537 34.0586 102.458 34.0988 102.378C34.1391 102.296 34.1794 102.216 34.2171 102.134C34.2549 102.054 34.2926 101.972 34.3278 101.89C34.3631 101.81 34.3983 101.728 34.431 101.645C34.5669 101.309 34.6852 100.968 34.7909 100.624C34.811 100.554 34.8311 100.487 34.8513 100.417C34.8538 100.412 34.8538 100.407 34.8538 100.402C35.2061 99.1715 35.3999 97.9109 35.6817 96.6702V96.6677C35.9837 95.3647 36.3864 94.0841 37.1866 92.8858C37.1438 92.8783 36.4266 92.6291 35.3244 92.2231Z" fill="#7779B8"/>
<path opacity="0.24" d="M22.0723 85.9754C25.6178 92.3709 24.2123 100.44 21.2375 108.875C21.8395 108.875 23.1522 108.832 24.5723 108.475C33.344 107.535 36.1675 100.962 38.5723 96.9754C32.5723 94.9754 26.1682 90.7654 22.0723 85.9754Z" fill="#615A85"/>
<path d="M19.3082 83C11.4048 86.4233 1.45189 93.5103 -4 101.102C1.45015 99.7793 6.60204 99.4912 11.3708 99.8525C11.3708 99.8525 18.3392 90.6302 23.0767 86.6682C21.98 85.7242 20.2946 84.1484 19.3082 83Z" fill="#636DA8"/>
<path d="M45.6836 92.2726C53.3832 88.7743 57.3569 87.1614 65.5245 84.2523C65.5938 102.971 65.6285 112.33 65.698 131.05C58.9895 133.954 55.7457 135.536 49.5016 138.92C47.9742 120.261 47.2107 110.931 45.6836 92.2726Z" fill="#E7F0FC"/>
<path d="M27.3201 87.9596C34.2452 89.2789 38.3703 90.2649 45.6833 92.2726C47.2104 110.931 47.9739 120.261 49.5013 138.92C43.7202 136.889 40.3484 135.827 34.9807 134.417C33.2968 133.975 32.0303 132.601 31.7576 130.908C29.2028 115.05 27.7347 105.934 25.1673 89.9954C24.9701 88.7712 26.0825 87.7238 27.3201 87.9596Z" fill="#D6E2F0"/>
<path d="M65.5254 84.2523C74.1038 87.1012 78.2787 88.5008 86.3684 92C84.9104 110.664 84.1815 120.195 82.7237 138.86C76.159 135.476 72.7486 133.904 65.6989 131.05C65.6295 112.33 65.5948 102.971 65.5254 84.2523Z" fill="#D6E2F0"/>
<path d="M86.3655 92C94.301 89.9151 98.6457 89.1447 106.402 87.795C107.298 87.6391 108.081 88.4141 107.938 89.2978C105.319 105.559 103.847 114.694 101.289 130.578C100.987 132.453 99.5741 133.984 97.7012 134.445C92.2026 135.799 88.6917 136.852 82.7207 138.86C84.1785 120.195 84.9075 110.664 86.3655 92Z" fill="#E7F0FC"/>
<path d="M29.3632 116.031C30.6994 115.087 32.6819 112.719 33.3243 111.746C34.6627 109.719 36.9205 105.51 34.7178 102.097C32.928 99.3241 28.0943 102.477 27.2539 102.977L29.3632 116.031Z" fill="#93A7B5" fill-opacity="0.19"/>
<path d="M25.5492 114.451C26.2304 115.158 27.1122 115.744 27.9355 115.966C28.3058 116.033 28.8126 116.191 29.363 116.033L29.3162 115.744C29.2425 115.298 29.1828 114.897 29.1857 114.893C30.9115 113.871 32.4676 111.421 32.4676 111.421C34.3119 108.406 34.605 105.234 32.9466 102.868C30.7792 99.7757 27.0563 102.2 26.9158 102.314C24.8375 103.999 23.9424 107.002 24.0588 110.056C24.0643 110.695 24.1395 111.24 24.2943 112.037C24.51 112.91 25.0718 113.892 25.5492 114.451Z" fill="#7979B8"/>
<path d="M32.4581 111.433C32.4581 111.433 29.8496 111.371 27.7583 108.514C26.6829 107.045 25.4091 103.86 26.3136 102.663C27.7661 100.741 32.1789 98.3197 34.4046 101.659C36.7166 105.127 33.8314 109.691 32.4581 111.433Z" fill="#C5CDD4"/>
<path d="M103.628 116.031C102.291 115.087 100.309 112.719 99.6664 111.746C98.3281 109.719 96.0703 105.51 98.273 102.097C100.063 99.3241 104.896 102.477 105.737 102.977L103.628 116.031Z" fill="#93A7B5" fill-opacity="0.19"/>
<path d="M108.695 112.037C108.85 111.24 108.925 110.695 108.931 110.056C109.047 107.002 108.152 103.999 106.074 102.314C105.933 102.2 102.21 99.7757 100.043 102.868C98.3846 105.234 98.6777 108.406 100.522 111.421C100.522 111.421 102.078 113.871 103.804 114.893C103.807 114.897 103.747 115.298 103.673 115.744L103.627 116.033C104.177 116.191 104.684 116.033 105.054 115.966C105.877 115.744 106.759 115.158 107.44 114.451C107.918 113.892 108.48 112.91 108.695 112.037Z" fill="#7979B8"/>
<path d="M98.585 101.659C100.811 98.3197 105.223 100.741 106.676 102.663C107.58 103.86 106.307 107.045 105.231 108.514C103.14 111.371 100.531 111.433 100.531 111.433C99.1581 109.691 96.273 105.127 98.585 101.659Z" fill="#C5CDD4"/>
</g>
</svg>
