<svg width="1920" height="800" viewBox="0 0 1920 800" fill="none" xmlns="http://www.w3.org/2000/svg">
<g clip-path="url(#clip0)">
<rect width="1920" height="800" fill="#F9FBFE"/>
<path d="M-154.855 -35.522C-341.855 350.478 53.6445 522.081 383.645 229.581C476.453 147.319 682.645 255.957 682.645 122.581C682.645 -10.7961 545.482 -348.31 383.645 -253.419C234.145 -165.762 32.1445 -421.522 -154.855 -35.522Z" fill="#F4F8FE"/>
<g filter="url(#filter0_d)">
<path d="M787 -323.671C992.014 -384.02 285 401.393 335 -15.171C349.78 -138.306 36 11.2059 36 -122.171" stroke="#F39D2E" stroke-width="4"/>
</g>
<path d="M890.5 720.24C1077.5 1106.24 682 1277.84 352 985.343C259.191 903.081 53 1011.72 53 878.343C53 744.966 190.163 407.452 352 502.343C501.5 590 703.5 334.24 890.5 720.24Z" fill="white"/>
<path d="M1985.29 51.5001C2494.79 202 1728.24 601.967 1576.3 540C953.498 286 1445 248 1084.5 14.5C927.038 -87.4891 1352.41 -73.2469 1533.3 -123C1715.73 -173.18 1867.73 16.7723 1985.29 51.5001Z" fill="white"/>
<path d="M1285.14 647.478C1098.14 1033.48 1493.64 1205.08 1823.64 912.581C1916.45 830.319 2122.64 938.957 2122.64 805.581C2122.64 672.204 1985.48 334.69 1823.64 429.581C1674.14 517.238 1472.14 261.478 1285.14 647.478Z" fill="#F4F8FE"/>
<g filter="url(#filter1_d)">
<path d="M546.565 560.855C559.269 557.115 569.145 555.737 576.508 556.274C583.849 556.809 588.463 559.219 591.077 562.844C593.725 566.515 594.638 571.862 593.605 578.932C592.575 585.982 589.644 594.482 584.956 604.151C566.184 642.872 520.091 698.679 461.913 751.322C403.763 803.94 333.781 853.178 267.404 878.913C200.958 904.674 138.763 906.675 95.3682 865.977C72.2999 844.342 41.8039 835.304 9.3394 831.694C-16.1122 828.865 -42.9962 829.356 -68.6618 829.826C-75.6973 829.954 -82.6413 830.081 -89.4391 830.138C-121.217 830.402 -149.667 829.117 -170.166 819.676C-180.345 814.988 -188.505 808.31 -194.143 798.826C-199.792 789.324 -203 776.852 -203 760.436C-203 694.429 -168.315 625.804 -113.566 561.102C-58.8474 496.435 15.7293 435.906 95.063 386.13C179.932 332.881 235.89 321.676 275.663 333.004C315.421 344.328 339.725 378.36 360.8 417.637C366.057 427.434 371.096 437.523 376.121 447.635C376.501 448.399 376.88 449.163 377.26 449.927C381.9 459.269 386.541 468.613 391.327 477.707C401.675 497.372 412.758 515.991 426.134 531.124C439.529 546.277 455.269 557.988 474.931 563.75C494.59 569.512 517.976 569.27 546.565 560.855Z" stroke="#32DDC9" stroke-width="4"/>
</g>
<g filter="url(#filter2_d)">
<path d="M975.381 1210.3L975.25 1209.81L974.903 1209.44C939.671 1172.13 924.68 1136.41 924.118 1101.35C923.555 1066.23 937.459 1031.47 960.658 996.104C983.858 960.738 1016.24 924.944 1052.39 887.79C1066 873.801 1080.16 859.61 1094.55 845.182C1118.33 821.352 1142.74 796.878 1166.41 771.607C1234.63 698.749 1306.66 673.701 1372.93 675.443C1439.28 677.188 1500.08 705.798 1545.71 740.652C1568.52 758.072 1587.49 777.021 1601.43 794.886C1615.41 812.792 1624.22 829.46 1626.89 842.314C1628.23 848.736 1628 854.012 1626.33 857.987C1624.69 861.874 1621.58 864.736 1616.62 866.255C1611.59 867.798 1604.62 867.952 1595.44 866.197C1586.29 864.445 1575.07 860.82 1561.63 854.956C1499.98 828.051 1452.67 815.526 1416.68 814.121C1380.63 812.715 1355.78 822.467 1339.39 840.261C1323.08 857.984 1315.46 883.369 1313.16 912.632C1310.85 941.919 1313.84 975.355 1318.99 1009.45C1323.34 1038.2 1329.23 1067.51 1334.81 1095.27C1335.85 1100.44 1336.88 1105.56 1337.88 1110.61C1344.3 1142.83 1349.78 1172.27 1351.29 1195.64C1352.05 1207.32 1351.81 1217.38 1350.24 1225.45C1348.66 1233.53 1345.81 1239.4 1341.53 1242.99C1337.32 1246.54 1331.4 1248.14 1323.1 1247.04C1314.76 1245.94 1304.17 1242.12 1290.9 1235.02C1263.02 1220.09 1231.22 1219.25 1198.93 1224.17C1173.61 1228.02 1147.77 1235.46 1123.1 1242.55C1116.34 1244.5 1109.66 1246.42 1103.11 1248.23C1072.49 1256.71 1044.67 1262.83 1022.43 1259.02C1011.38 1257.13 1001.77 1252.79 993.872 1245.09C985.957 1237.37 979.63 1226.15 975.381 1210.3Z" stroke="#0366D6" stroke-width="4"/>
</g>
<g filter="url(#filter3_d)">
<path d="M1305 74C1305 74 1655.23 137.801 1571.08 221.741C1375.09 417.255 1884.34 384.259 1876.68 326.102C1872.36 293.259 1747.64 352.256 1786.68 425.259C1824.76 496.458 1962.8 485.732 1962.8 485.732" stroke="#451780" stroke-width="4" stroke-linecap="round"/>
</g>
</g>
<defs>
<filter id="filter0_d" x="34" y="-329" width="792.399" height="462.207" filterUnits="userSpaceOnUse" color-interpolation-filters="sRGB">
<feFlood flood-opacity="0" result="BackgroundImageFix"/>
<feColorMatrix in="SourceAlpha" type="matrix" values="0 0 0 0 0 0 0 0 0 0 0 0 0 0 0 0 0 0 127 0"/>
<feOffset dy="24"/>
<feColorMatrix type="matrix" values="0 0 0 0 0 0 0 0 0 0 0 0 0 0 0 0 0 0 0.07 0"/>
<feBlend mode="normal" in2="BackgroundImageFix" result="effect1_dropShadow"/>
<feBlend mode="normal" in="SourceGraphic" in2="effect1_dropShadow" result="shape"/>
</filter>
<filter id="filter1_d" x="-205" y="327" width="801.02" height="596.536" filterUnits="userSpaceOnUse" color-interpolation-filters="sRGB">
<feFlood flood-opacity="0" result="BackgroundImageFix"/>
<feColorMatrix in="SourceAlpha" type="matrix" values="0 0 0 0 0 0 0 0 0 0 0 0 0 0 0 0 0 0 127 0"/>
<feOffset dy="24"/>
<feColorMatrix type="matrix" values="0 0 0 0 0 0 0 0 0 0 0 0 0 0 0 0 0 0 0.07 0"/>
<feBlend mode="normal" in2="BackgroundImageFix" result="effect1_dropShadow"/>
<feBlend mode="normal" in="SourceGraphic" in2="effect1_dropShadow" result="shape"/>
</filter>
<filter id="filter2_d" x="839.016" y="611.132" width="871.893" height="755.77" filterUnits="userSpaceOnUse" color-interpolation-filters="sRGB">
<feFlood flood-opacity="0" result="BackgroundImageFix"/>
<feColorMatrix in="SourceAlpha" type="matrix" values="0 0 0 0 0 0 0 0 0 0 0 0 0 0 0 0 0 0 127 0"/>
<feOffset dy="24"/>
<feColorMatrix type="matrix" values="0 0 0 0 0 0 0 0 0 0 0 0 0 0 0 0 0 0 0.07 0"/>
<feBlend mode="normal" in2="BackgroundImageFix" result="effect1_dropShadow"/>
<feBlend mode="normal" in="SourceGraphic" in2="effect1_dropShadow" result="shape"/>
</filter>
<filter id="filter3_d" x="1302.41" y="-96.8312" width="662.975" height="777.395" filterUnits="userSpaceOnUse" color-interpolation-filters="sRGB">
<feFlood flood-opacity="0" result="BackgroundImageFix"/>
<feColorMatrix in="SourceAlpha" type="matrix" values="0 0 0 0 0 0 0 0 0 0 0 0 0 0 0 0 0 0 127 0"/>
<feOffset dy="24"/>
<feColorMatrix type="matrix" values="0 0 0 0 0 0 0 0 0 0 0 0 0 0 0 0 0 0 0.03 0"/>
<feBlend mode="normal" in2="BackgroundImageFix" result="effect1_dropShadow"/>
<feBlend mode="normal" in="SourceGraphic" in2="effect1_dropShadow" result="shape"/>
</filter>
<clipPath id="clip0">
<rect width="1920" height="800" fill="white"/>
</clipPath>
</defs>
</svg>
