<svg width="375" height="530" viewBox="0 0 375 530" fill="none" xmlns="http://www.w3.org/2000/svg">
<g clip-path="url(#clip0)">
<rect width="375" height="530" fill="#F9FBFE"/>
<path d="M38.3111 373.197C103.133 506.864 -33.9634 566.288 -148.355 464.999C-180.526 436.512 -252 474.133 -252 427.946C-252 381.759 -204.454 264.882 -148.355 297.742C-96.5319 328.096 -26.5106 239.53 38.3111 373.197Z" fill="white"/>
<path d="M368.418 270.082C245.448 186.734 334.464 66.7228 484.175 97.2462C526.279 105.831 569.367 37.5133 592.461 77.5122C615.554 117.511 632.816 242.503 567.803 242.095C507.746 241.719 491.389 353.43 368.418 270.082Z" fill="white"/>
<path d="M-45.8851 -44.4797C-143.434 157.214 62.8797 246.881 235.026 94.0429C283.44 51.0589 391 107.825 391 38.1327C391 -31.5598 319.449 -207.919 235.026 -158.336C157.038 -112.533 51.6642 -246.174 -45.8851 -44.4797Z" fill="#F4F8FE"/>
<path d="M144.115 570.52C46.5657 772.214 252.88 861.881 425.026 709.043C473.44 666.059 581 722.825 581 653.133C581 583.44 509.449 407.081 425.026 456.664C347.038 502.467 241.664 368.826 144.115 570.52Z" fill="#F4F8FE"/>
<g filter="url(#filter0_d)">
<path d="M118.077 476.622C121.936 475.488 124.813 475.109 126.859 475.258C128.882 475.406 129.859 476.041 130.351 476.721C130.875 477.447 131.179 478.68 130.886 480.685C130.596 482.67 129.751 485.155 128.333 488.078C122.635 499.814 108.516 516.925 90.5545 533.154C72.6201 549.358 51.0966 564.463 30.7605 572.336C10.3556 580.235 -8.2158 580.646 -21.061 568.616C-28.5159 561.635 -38.3033 558.784 -48.4872 557.653C-56.465 556.768 -64.9084 556.922 -72.8658 557.068C-75.0307 557.108 -77.1595 557.147 -79.2332 557.164C-89.1109 557.246 -97.613 556.827 -103.638 554.056C-106.582 552.702 -108.874 550.81 -110.453 548.158C-112.042 545.489 -113 541.895 -113 536.997C-113 517.062 -102.494 496.158 -85.6385 476.266C-68.8125 456.411 -45.8429 437.786 -21.3662 422.451C4.81867 406.046 21.706 402.849 33.4383 406.185C45.1551 409.518 52.447 419.557 58.9585 431.675C60.5746 434.682 62.1258 437.783 63.682 440.91C63.8002 441.148 63.9184 441.385 64.0367 441.623C65.4716 444.508 66.9153 447.41 68.4045 450.236C71.623 456.343 75.1158 462.217 79.3689 467.021C83.6401 471.846 88.7239 475.645 95.1225 477.518C101.519 479.39 109.035 479.28 118.077 476.622Z" stroke="#32DDC9" stroke-width="4"/>
</g>
<g filter="url(#filter1_d)">
<path d="M501.077 516.622C504.936 515.488 507.813 515.109 509.859 515.258C511.882 515.406 512.859 516.041 513.351 516.721C513.875 517.447 514.179 518.68 513.886 520.685C513.596 522.67 512.751 525.155 511.333 528.078C505.635 539.814 491.516 556.925 473.554 573.154C455.62 589.358 434.097 604.463 413.761 612.336C393.356 620.235 374.784 620.646 361.939 608.616C354.484 601.635 344.697 598.784 334.513 597.653C326.535 596.768 318.092 596.922 310.134 597.068C307.969 597.108 305.841 597.147 303.767 597.164C293.889 597.246 285.387 596.827 279.362 594.056C276.418 592.702 274.126 590.81 272.547 588.158C270.958 585.489 270 581.895 270 576.997C270 557.062 280.506 536.158 297.361 516.266C314.187 496.411 337.157 477.786 361.634 462.451C387.819 446.046 404.706 442.849 416.438 446.185C428.155 449.518 435.447 459.557 441.959 471.675C443.575 474.682 445.126 477.783 446.682 480.91C446.8 481.148 446.918 481.385 447.037 481.623C448.472 484.508 449.915 487.41 451.404 490.236C454.623 496.343 458.116 502.217 462.369 507.021C466.64 511.846 471.724 515.645 478.122 517.518C484.519 519.39 492.035 519.28 501.077 516.622Z" stroke="#0366D6" stroke-width="4"/>
</g>
<g filter="url(#filter2_d)">
<path d="M186.501 -110C221.17 -162.133 42.9997 228 -48.4977 -23" stroke="#F39D2E" stroke-width="4"/>
</g>
<g filter="url(#filter3_d)">
<path d="M234 42C234 42 311.979 56.2054 293.244 74.8947C249.605 118.426 362.991 111.08 361.286 98.1308C360.323 90.8183 332.553 103.954 341.246 120.208C349.725 136.061 380.459 133.673 380.459 133.673" stroke="#451780" stroke-width="4" stroke-linecap="round"/>
</g>
</g>
<defs>
<filter id="filter0_d" x="-115" y="403" width="248" height="190" filterUnits="userSpaceOnUse" color-interpolation-filters="sRGB">
<feFlood flood-opacity="0" result="BackgroundImageFix"/>
<feColorMatrix in="SourceAlpha" type="matrix" values="0 0 0 0 0 0 0 0 0 0 0 0 0 0 0 0 0 0 127 0"/>
<feOffset dy="13"/>
<feColorMatrix type="matrix" values="0 0 0 0 0 0 0 0 0 0 0 0 0 0 0 0 0 0 0.03 0"/>
<feBlend mode="normal" in2="BackgroundImageFix" result="effect1_dropShadow"/>
<feBlend mode="normal" in="SourceGraphic" in2="effect1_dropShadow" result="shape"/>
</filter>
<filter id="filter1_d" x="268" y="443" width="248" height="190" filterUnits="userSpaceOnUse" color-interpolation-filters="sRGB">
<feFlood flood-opacity="0" result="BackgroundImageFix"/>
<feColorMatrix in="SourceAlpha" type="matrix" values="0 0 0 0 0 0 0 0 0 0 0 0 0 0 0 0 0 0 127 0"/>
<feOffset dy="13"/>
<feColorMatrix type="matrix" values="0 0 0 0 0 0 0 0 0 0 0 0 0 0 0 0 0 0 0.03 0"/>
<feBlend mode="normal" in2="BackgroundImageFix" result="effect1_dropShadow"/>
<feBlend mode="normal" in="SourceGraphic" in2="effect1_dropShadow" result="shape"/>
</filter>
<filter id="filter2_d" x="-61.1836" y="-180.56" width="286.736" height="284.401" filterUnits="userSpaceOnUse" color-interpolation-filters="sRGB">
<feFlood flood-opacity="0" result="BackgroundImageFix"/>
<feColorMatrix in="SourceAlpha" type="matrix" values="0 0 0 0 0 0 0 0 0 0 0 0 0 0 0 0 0 0 127 0"/>
<feOffset dy="13"/>
<feColorMatrix type="matrix" values="0 0 0 0 0 0 0 0 0 0 0 0 0 0 0 0 0 0 0.03 0"/>
<feBlend mode="normal" in2="BackgroundImageFix" result="effect1_dropShadow"/>
<feBlend mode="normal" in="SourceGraphic" in2="effect1_dropShadow" result="shape"/>
</filter>
<filter id="filter3_d" x="231.41" y="1.95081" width="151.639" height="195.771" filterUnits="userSpaceOnUse" color-interpolation-filters="sRGB">
<feFlood flood-opacity="0" result="BackgroundImageFix"/>
<feColorMatrix in="SourceAlpha" type="matrix" values="0 0 0 0 0 0 0 0 0 0 0 0 0 0 0 0 0 0 127 0"/>
<feOffset dy="24"/>
<feColorMatrix type="matrix" values="0 0 0 0 0 0 0 0 0 0 0 0 0 0 0 0 0 0 0.03 0"/>
<feBlend mode="normal" in2="BackgroundImageFix" result="effect1_dropShadow"/>
<feBlend mode="normal" in="SourceGraphic" in2="effect1_dropShadow" result="shape"/>
</filter>
<clipPath id="clip0">
<rect width="375" height="530" fill="white"/>
</clipPath>
</defs>
</svg>
