<?xml version="1.0" encoding="utf-8"?>
<!-- Generator: Adobe Illustrator 24.3.0, SVG Export Plug-In . SVG Version: 6.00 Build 0)  -->
<svg version="1.1" id="レイヤー_1" xmlns="http://www.w3.org/2000/svg" xmlns:xlink="http://www.w3.org/1999/xlink" x="0px"
	 y="0px" viewBox="0 0 1920 800" style="enable-background:new 0 0 1920 800;" xml:space="preserve">
<style type="text/css">
	.st0{fill:none;}
	.st1{fill:#F9FBFE;}
	.st2{fill:#F4F8FE;}
	.st3{opacity:4.000000e-02;}
	.st4{fill:none;stroke:#000000;stroke-width:6;}
	.st5{fill:none;stroke:#F39D2E;stroke-width:6;}
	.st6{fill:#FFFFFF;}
	.st7{fill:none;stroke:#32DDC9;stroke-width:6;}
	.st8{fill:none;stroke:#0366D6;stroke-width:6;}
	.st9{fill:none;stroke:#000000;stroke-width:6;stroke-linecap:round;}
	.st10{fill:none;stroke:#451780;stroke-width:6;stroke-linecap:round;}
</style>
<rect y="0" class="st0" width="1920" height="800"/>
<path class="st1" d="M0,0h1920v800H0V0z"/>
<path class="st2" d="M-154.9-35.5c-187,386,208.5,557.6,538.5,265.1c92.8-82.3,299,26.4,299-107s-137.2-470.9-299-376
	C234.2-165.8,32.2-421.5-154.9-35.5L-154.9-35.5z"/>
<g>
	<g class="st3">
		<path class="st4" d="M857-271.7C1062-332,355,453.4,405,36.8c14.8-123.1-299,26.4-299-107"/>
	</g>
	<g>
		<path class="st5" d="M857-295.7C1062-356,355,429.4,405,12.8c14.8-123.1-299,26.4-299-107"/>
	</g>
</g>
<path class="st6" d="M890.5,720.2c187,386-208.5,557.6-538.5,265.1c-92.8-82.3-299,26.4-299-107s137.2-470.9,299-376
	C501.5,590,703.5,334.2,890.5,720.2z M1985.3,51.5c509.5,150.5-257,550.5-409,488.5C953.5,286,1445,248,1084.5,14.5
	C927-87.5,1352.4-73.2,1533.3-123C1715.7-173.2,1867.7,16.8,1985.3,51.5z"/>
<path class="st2" d="M1285.1,647.5c-187,386,208.5,557.6,538.5,265.1c92.8-82.3,299,26.4,299-107s-137.2-470.9-299-376
	C1674.1,517.2,1472.1,261.5,1285.1,647.5L1285.1,647.5z"/>
<g>
	<g class="st3">
		<path class="st4" d="M586.8,585.8c12.7-3.7,22.4-5.1,29.6-4.5s11.5,2.8,13.8,6.2s3.4,8.4,2.3,15.4s-3.9,15.3-8.6,24.9
			c-18.7,38.6-64.7,94.3-122.8,146.9S373.3,876.3,307,902s-128,27.6-171-12.7c-23.3-21.8-54-30.9-86.6-34.5
			c-25.5-2.8-52.5-2.3-78.2-1.9c-7,0.1-14,0.2-20.7,0.3c-31.8,0.3-60-1-80.3-10.4c-10-4.6-18-11.2-23.5-20.5s-8.7-21.6-8.7-37.9
			c0-65.7,34.5-134.1,89.2-198.7S56.3,460.7,135.6,411c84.8-53.2,140.4-64.2,179.8-53s63.5,44.9,84.5,84.1
			c5.2,9.8,10.3,19.9,15.3,30l1.1,2.3c4.6,9.3,9.3,18.7,14.1,27.8c10.4,19.7,21.5,38.4,34.9,53.6s29.4,27.1,49.3,32.9
			S558.1,594.3,586.8,585.8z"/>
	</g>
	<g>
		<path class="st7" d="M586.8,561.8c12.7-3.7,22.4-5.1,29.6-4.5s11.5,2.8,13.8,6.2s3.4,8.4,2.3,15.4s-3.9,15.3-8.6,24.9
			c-18.7,38.6-64.7,94.3-122.8,146.9S373.3,852.3,307,878s-128,27.6-171-12.7c-23.3-21.8-54-30.9-86.6-34.5
			c-25.5-2.8-52.5-2.3-78.2-1.9c-7,0.1-14,0.2-20.7,0.3c-31.8,0.3-60-1-80.3-10.4c-10-4.6-18-11.2-23.5-20.5s-8.7-21.6-8.7-37.9
			c0-65.7,34.5-134.1,89.2-198.7S56.3,436.7,135.6,387c84.8-53.2,140.4-64.2,179.8-53s63.5,44.9,84.5,84.1
			c5.2,9.8,10.3,19.9,15.3,30l1.1,2.3c4.6,9.3,9.3,18.7,14.1,27.8c10.4,19.7,21.5,38.4,34.9,53.6s29.4,27.1,49.3,32.9
			S558.1,570.3,586.8,561.8z"/>
	</g>
</g>
<g>
	<g class="st3">
		<path class="st4" d="M946.3,1234l-0.2-0.7l-0.5-0.6c-35.1-37.2-50-72.7-50.5-107.4s13.2-69.4,36.4-104.7s55.5-71,91.6-108.2
			c13.6-14,27.7-28.2,42.1-42.6c23.8-23.8,48.2-48.3,71.9-73.6c68-72.7,139.8-97.6,205.8-95.8s126.7,30.2,172.2,65
			c22.8,17.4,41.7,36.3,55.6,54s22.6,34.4,25.3,47c1.3,6.3,1,11.4-0.5,15.1s-4.4,6.3-9.1,7.7s-11.6,1.7-20.7-0.1
			s-20.2-5.3-33.6-11.2c-61.7-26.9-109.1-39.5-145.3-40.9s-61.4,8.4-78.1,26.5s-24.2,43.6-26.5,73s0.7,62.9,5.8,97
			c4.3,28.8,10.2,58.1,15.8,85.9c1,5.2,2.1,10.3,3.1,15.3c6.4,32.2,11.9,61.6,13.4,84.9c0.8,11.7,0.5,21.6-1,29.6s-4.3,13.6-8.4,17
			s-9.6,4.9-17.7,3.8s-18.6-4.8-31.9-11.9c-28.2-15.1-60.2-15.9-92.6-11c-25.4,3.9-51.3,11.3-76,18.4c-6.8,1.9-13.4,3.9-19.9,5.7
			c-30.7,8.5-58.3,14.5-80.2,10.8c-10.9-1.9-20.3-6.1-28-13.7S950.6,1249.7,946.3,1234L946.3,1234z"/>
	</g>
	<g>
		<path class="st8" d="M946.3,1210l-0.2-0.7l-0.5-0.6c-35.1-37.2-50-72.7-50.5-107.4s13.2-69.4,36.4-104.7s55.5-71,91.6-108.2
			c13.6-14,27.7-28.2,42.1-42.6c23.8-23.8,48.2-48.3,71.9-73.6c68-72.7,139.8-97.6,205.8-95.8s126.7,30.2,172.2,65
			c22.8,17.4,41.7,36.3,55.6,54s22.6,34.4,25.3,47c1.3,6.3,1,11.4-0.5,15.1s-4.4,6.3-9.1,7.7s-11.6,1.7-20.7-0.1
			s-20.2-5.3-33.6-11.2c-61.7-26.9-109.1-39.5-145.3-40.9s-61.4,8.4-78.1,26.5s-24.2,43.6-26.5,73s0.7,62.9,5.8,97
			c4.3,28.8,10.2,58.1,15.8,85.9c1,5.2,2.1,10.3,3.1,15.3c6.4,32.2,11.9,61.6,13.4,84.9c0.8,11.7,0.5,21.6-1,29.6s-4.3,13.6-8.4,17
			s-9.6,4.9-17.7,3.8s-18.6-4.8-31.9-11.9c-28.2-15.1-60.2-15.9-92.6-11c-25.4,3.9-51.3,11.3-76,18.4c-6.8,1.9-13.4,3.9-19.9,5.7
			c-30.7,8.5-58.3,14.5-80.2,10.8c-10.9-1.9-20.3-6.1-28-13.7S950.6,1225.7,946.3,1210L946.3,1210z"/>
	</g>
</g>
<g>
	<g class="st3">
		<path class="st9" d="M1255,98c0,0,350.2,63.8,266.1,147.7c-196,195.5,313.3,162.5,305.6,104.4c-4.3-32.8-122.6,23-90,99.2
			c37.3,87.2,322.8,61.2,322.8,61.2"/>
	</g>
	<g>
		<path class="st10" d="M1255,74c0,0,350.2,63.8,266.1,147.7c-196,195.5,313.3,162.5,305.6,104.4c-4.3-32.8-122.6,23-90,99.2
			c37.3,87.2,322.8,61.2,322.8,61.2"/>
	</g>
</g>
</svg>
