<?xml version="1.0" encoding="utf-8"?>
<!-- Generator: Adobe Illustrator 24.3.0, SVG Export Plug-In . SVG Version: 6.00 Build 0)  -->
<svg version="1.1" id="レイヤー_1" xmlns="http://www.w3.org/2000/svg" xmlns:xlink="http://www.w3.org/1999/xlink" x="0px"
	 y="0px" viewBox="0 0 375 530" style="enable-background:new 0 0 375 530;" xml:space="preserve">
<style type="text/css">
	.st0{fill:none;}
	.st1{fill:#F9FBFE;}
	.st2{fill:#FFFFFF;}
	.st3{fill:#F4F8FE;}
	.st4{opacity:4.000000e-02;}
	.st5{fill:none;stroke:#000000;stroke-width:4;}
	.st6{fill:none;stroke:#32DDC9;stroke-width:4;}
	.st7{fill:none;stroke:#0366D6;stroke-width:4;}
	.st8{fill:none;stroke:#F39D2E;stroke-width:4;}
	.st9{fill:none;stroke:#000000;stroke-width:4;stroke-linecap:round;}
	.st10{fill:none;stroke:#451780;stroke-width:4;stroke-linecap:round;}
</style>
<rect y="0" class="st0" width="375" height="530"/>
<rect y="0" class="st1" width="375" height="530"/>
<path class="st2" d="M26.6,487.1c-83.3,123-203.4,33.9-172.8-115.8c8.6-42.1-59.8-85.2-19.8-108.3S-1,222.7-1.4,287.7
	C-1.8,347.8,109.9,364.1,26.6,487.1z"/>
<path class="st2" d="M319.4,193.1C146.9,76.2,271.8-92.2,481.8-49.3c59.1,12,119.5-83.8,151.9-27.7s56.6,231.4-34.6,230.9
	C514.9,153.3,491.9,310,319.4,193.1z"/>
<path class="st3" d="M-50.6-44.5C-129.9,157.2,38,246.9,178.1,94c39.4-43,85.4-21.2,126.9-55.9c142.5-119.1-58.2-246-126.9-196.4
	C114.6-112.5,28.8-246.2-50.6-44.5z"/>
<path class="st3" d="M144.1,570.5C46.6,772.2,252.9,861.9,425,709c48.4-43,156,13.8,156-55.9s-71.5-246-156-196.5
	C347,502.5,241.7,368.8,144.1,570.5z"/>
<g>
	<g class="st4">
		<path class="st5" d="M118.1,489.6c2.8-1,5.8-1.4,8.8-1.4c2,0.1,3,0.8,3.5,1.5s0.8,2,0.5,4c-0.5,2.6-1.3,5.1-2.6,7.4
			c-5.7,11.7-19.8,28.8-37.8,45.1s-39.5,31.3-59.8,39.2s-39,8.3-51.8-3.7c-7.5-7-17.2-9.8-27.4-11c-8-0.9-16.4-0.7-24.4-0.6
			c-2.2,0-4.3,0.1-6.4,0.1c-9.9,0.1-18.4-0.3-24.4-3.1c-2.8-1.2-5.2-3.3-6.8-5.9c-1.6-2.6-2.6-6.2-2.6-11.1
			c0-19.9,10.5-40.8,27.4-60.7s39.8-38.5,64.3-53.8c26.2-16.4,43.1-19.6,54.8-16.3s19,13.4,25.5,25.5c1.6,3,3.2,6.1,4.7,9.2l0.4,0.7
			c1.4,2.9,2.9,5.8,4.4,8.6c3.2,6.1,6.7,12,11,16.8c4.1,4.9,9.6,8.6,15.8,10.5C101.5,492.4,109,492.3,118.1,489.6z"/>
	</g>
	<g>
		<path class="st6" d="M118.1,476.6c2.8-1,5.8-1.4,8.8-1.4c2,0.1,3,0.8,3.5,1.5s0.8,2,0.5,4c-0.5,2.6-1.3,5.1-2.6,7.4
			c-5.7,11.7-19.8,28.8-37.8,45.1s-39.5,31.3-59.8,39.2s-39,8.3-51.8-3.7c-7.5-7-17.2-9.8-27.4-11c-8-0.9-16.4-0.7-24.4-0.6
			c-2.2,0-4.3,0.1-6.4,0.1c-9.9,0.1-18.4-0.3-24.4-3.1c-2.8-1.2-5.2-3.3-6.8-5.9c-1.6-2.6-2.6-6.2-2.6-11.1
			c0-19.9,10.5-40.8,27.4-60.7s39.8-38.5,64.3-53.8c26.2-16.4,43.1-19.6,54.8-16.3s19,13.4,25.5,25.5c1.6,3,3.2,6.1,4.7,9.2l0.4,0.7
			c1.4,2.9,2.9,5.8,4.4,8.6c3.2,6.1,6.7,12,11,16.8c4.1,4.9,9.6,8.6,15.8,10.5C101.5,479.4,109,479.3,118.1,476.6z"/>
	</g>
</g>
<g>
	<g class="st4">
		<path class="st5" d="M501.1,529.6c2.8-1,5.8-1.4,8.8-1.4c2,0.2,3,0.8,3.5,1.5s0.8,2,0.5,4c-0.5,2.6-1.3,5.1-2.6,7.4
			c-5.7,11.7-19.8,28.8-37.8,45.1s-39.5,31.3-59.8,39.2s-39,8.3-51.8-3.7c-7.5-7-17.2-9.8-27.4-11c-8-0.9-16.4-0.7-24.4-0.6
			c-2.2,0-4.3,0.1-6.4,0.1c-9.9,0.1-18.4-0.3-24.4-3.1c-2.8-1.2-5.2-3.3-6.8-5.9c-1.5-2.7-2.5-6.3-2.5-11.2
			c0-19.9,10.5-40.8,27.4-60.7s39.8-38.5,64.3-53.8c26.2-16.4,43.1-19.6,54.8-16.3s19,13.4,25.5,25.5c1.6,3,3.2,6.1,4.7,9.2l0.4,0.7
			c1.4,2.9,2.9,5.8,4.4,8.6c3.2,6.1,6.7,12,11,16.8c4.1,4.9,9.6,8.6,15.8,10.5C484.5,532.4,492,532.3,501.1,529.6z"/>
	</g>
	<g>
		<path class="st7" d="M501.1,516.6c2.8-1,5.8-1.4,8.8-1.4c2,0.2,3,0.8,3.5,1.5s0.8,2,0.5,4c-0.5,2.6-1.3,5.1-2.6,7.4
			c-5.7,11.7-19.8,28.8-37.8,45.1s-39.5,31.3-59.8,39.2s-39,8.3-51.8-3.7c-7.5-7-17.2-9.8-27.4-11c-8-0.9-16.4-0.7-24.4-0.6
			c-2.2,0-4.3,0.1-6.4,0.1c-9.9,0.1-18.4-0.3-24.4-3.1c-2.8-1.2-5.2-3.3-6.8-5.9c-1.5-2.7-2.5-6.3-2.5-11.2
			c0-19.9,10.5-40.8,27.4-60.7s39.8-38.5,64.3-53.8c26.2-16.4,43.1-19.6,54.8-16.3s19,13.4,25.5,25.5c1.6,3,3.2,6.1,4.7,9.2l0.4,0.7
			c1.4,2.9,2.9,5.8,4.4,8.6c3.2,6.1,6.7,12,11,16.8c4.1,4.9,9.6,8.6,15.8,10.5C484.5,519.4,492,519.3,501.1,516.6z"/>
	</g>
</g>
<g>
	<g class="st4">
		<path class="st5" d="M186.5-97c34.7-52.1-143.5,338-235,87"/>
	</g>
	<g>
		<path class="st8" d="M186.5-110c34.7-52.1-143.5,338-235,87"/>
	</g>
</g>
<g>
	<g class="st4">
		<path class="st9" d="M234,55c0,0,78,14.2,59.2,32.9c-43.6,43.5,69.8,36.2,68.1,23.2c-1-7.3-28.7,5.8-20,22.1
			c8.5,15.8,39.2,13.5,39.2,13.5"/>
	</g>
	<g>
		<path class="st10" d="M234,42c0,0,78,14.2,59.2,32.9c-43.6,43.5,69.8,36.2,68.1,23.2c-1-7.3-28.7,5.8-20,22.1
			c8.5,15.8,39.2,13.5,39.2,13.5"/>
	</g>
</g>
</svg>
