<svg width="375" height="445" viewBox="0 0 375 445" fill="none" xmlns="http://www.w3.org/2000/svg">
<rect width="375" height="445" fill="#FAFAFA"/>
<path fill-rule="evenodd" clip-rule="evenodd" d="M31 107.591C29.3431 107.591 28 108.934 28 110.591V315.591C28 317.248 29.3431 318.591 31 318.591H238.687L244.879 332.934C245.223 333.73 246.347 333.742 246.707 332.953L253.273 318.591H344C345.657 318.591 347 317.248 347 315.591V110.591C347 108.934 345.657 107.591 344 107.591H31Z" fill="#E6E6E6"/>
<path fill-rule="evenodd" clip-rule="evenodd" d="M31 107.591C29.3431 107.591 28 108.934 28 110.591V315.591C28 317.248 29.3431 318.591 31 318.591H238.687L244.879 332.934C245.223 333.73 246.347 333.742 246.707 332.953L253.273 318.591H344C345.657 318.591 347 317.248 347 315.591V110.591C347 108.934 345.657 107.591 344 107.591H31Z" fill="url(#paint0_linear)"/>
<path d="M135.594 293.803H137.112L138.619 299.523H138.641L140.357 293.803H141.787L143.47 299.523H143.492L145.032 293.803H146.506L144.229 301.591H142.887L141.061 295.75H141.039L139.213 301.591H137.871L135.594 293.803ZM150.683 298.423C150.683 298.254 150.658 298.093 150.606 297.939C150.562 297.785 150.489 297.649 150.386 297.532C150.284 297.414 150.152 297.323 149.99 297.257C149.836 297.183 149.653 297.147 149.44 297.147C149.044 297.147 148.707 297.268 148.428 297.51C148.157 297.744 148.007 298.049 147.977 298.423H150.683ZM152.003 299.017C152.003 299.075 152.003 299.134 152.003 299.193C152.003 299.251 152 299.31 151.992 299.369H147.977C147.992 299.559 148.04 299.735 148.12 299.897C148.208 300.051 148.322 300.186 148.461 300.304C148.601 300.414 148.758 300.502 148.934 300.568C149.11 300.634 149.294 300.667 149.484 300.667C149.814 300.667 150.093 300.608 150.32 300.491C150.548 300.366 150.735 300.197 150.881 299.985L151.761 300.689C151.241 301.393 150.485 301.745 149.495 301.745C149.085 301.745 148.707 301.682 148.362 301.558C148.018 301.426 147.717 301.242 147.46 301.008C147.211 300.773 147.013 300.487 146.866 300.15C146.727 299.805 146.657 299.416 146.657 298.984C146.657 298.558 146.727 298.173 146.866 297.829C147.013 297.477 147.211 297.18 147.46 296.938C147.71 296.688 148.003 296.498 148.34 296.366C148.685 296.226 149.055 296.157 149.451 296.157C149.818 296.157 150.155 296.219 150.463 296.344C150.779 296.461 151.05 296.641 151.277 296.883C151.505 297.117 151.681 297.414 151.805 297.774C151.937 298.126 152.003 298.54 152.003 299.017ZM154.624 293.275V296.982H154.657C154.723 296.894 154.807 296.802 154.91 296.707C155.012 296.611 155.133 296.523 155.273 296.443C155.419 296.362 155.588 296.296 155.779 296.245C155.969 296.186 156.186 296.157 156.428 296.157C156.802 296.157 157.146 296.23 157.462 296.377C157.777 296.516 158.048 296.71 158.276 296.96C158.503 297.209 158.679 297.502 158.804 297.84C158.928 298.177 158.991 298.54 158.991 298.929C158.991 299.317 158.928 299.684 158.804 300.029C158.686 300.366 158.514 300.663 158.287 300.92C158.067 301.169 157.795 301.371 157.473 301.525C157.157 301.671 156.798 301.745 156.395 301.745C156.021 301.745 155.669 301.664 155.339 301.503C155.016 301.341 154.763 301.107 154.58 300.799H154.558V301.591H153.304V293.275H154.624ZM157.649 298.929C157.649 298.723 157.616 298.522 157.55 298.324C157.491 298.118 157.399 297.935 157.275 297.774C157.15 297.612 156.992 297.484 156.802 297.389C156.611 297.286 156.387 297.235 156.131 297.235C155.889 297.235 155.672 297.286 155.482 297.389C155.291 297.491 155.126 297.623 154.987 297.785C154.855 297.946 154.752 298.129 154.679 298.335C154.613 298.54 154.58 298.745 154.58 298.951C154.58 299.156 154.613 299.361 154.679 299.567C154.752 299.765 154.855 299.944 154.987 300.106C155.126 300.267 155.291 300.399 155.482 300.502C155.672 300.597 155.889 300.645 156.131 300.645C156.387 300.645 156.611 300.593 156.802 300.491C156.992 300.388 157.15 300.256 157.275 300.095C157.399 299.933 157.491 299.75 157.55 299.545C157.616 299.339 157.649 299.134 157.649 298.929ZM168.162 293.941C167.882 294.021 167.792 294.031 167.192 294.031H161.972C161.282 294.031 160.972 294.011 160.592 293.951V295.201C161.002 295.151 161.252 295.141 161.952 295.141H167.202C166.972 295.621 166.662 296.031 166.252 296.411C165.842 296.801 165.462 297.031 164.792 297.331C165.242 297.671 165.392 297.821 165.692 298.241C166.162 297.981 166.492 297.761 166.892 297.411C167.502 296.891 168.082 296.141 168.432 295.401C168.692 294.881 168.692 294.871 168.832 294.701L168.162 293.941ZM163.412 295.961C163.452 296.171 163.462 296.261 163.462 296.561C163.462 298.451 163.142 299.311 162.122 300.121C161.632 300.511 161.182 300.731 160.372 300.971C160.772 301.391 160.902 301.571 161.162 302.111C162.412 301.591 163.142 301.081 163.742 300.311C164.422 299.441 164.692 298.481 164.732 296.771C164.742 296.161 164.742 296.151 164.772 295.961H163.412ZM171.842 294.321C171.162 294.321 170.922 294.311 170.562 294.251V295.551C170.892 295.501 171.082 295.491 171.822 295.491H176.582C175.942 298.151 174.132 300.011 171.362 300.871C171.812 301.311 171.982 301.541 172.242 302.061C175.402 300.741 177.172 298.701 177.982 295.431C178.052 295.441 178.112 295.451 178.172 295.451C178.812 295.451 179.332 294.931 179.332 294.291C179.332 293.661 178.812 293.141 178.172 293.141C177.532 293.141 177.032 293.651 177.022 294.301C176.852 294.311 176.732 294.321 176.432 294.321H171.842ZM178.172 293.641C178.542 293.641 178.832 293.931 178.832 294.291C178.832 294.651 178.542 294.951 178.172 294.951C177.812 294.951 177.522 294.651 177.522 294.291C177.522 293.931 177.812 293.641 178.172 293.641ZM181.512 293.701C181.542 293.961 181.552 294.091 181.552 294.601V297.351C181.552 297.711 181.532 298.021 181.502 298.251H182.872C182.832 298.001 182.832 297.871 182.832 297.371V294.611C182.832 294.081 182.832 293.991 182.872 293.711L181.512 293.701ZM186.022 293.721C186.062 293.951 186.072 294.161 186.072 294.671V295.921C186.072 296.721 186.062 297.161 186.022 297.591C185.912 298.911 185.582 299.521 184.642 300.141C184.042 300.541 183.462 300.751 182.482 300.941C182.902 301.471 183.002 301.641 183.182 302.131C184.102 301.861 184.602 301.661 185.132 301.361C186.172 300.781 186.812 300.031 187.102 299.031C187.282 298.401 187.352 297.561 187.362 296.001V294.651C187.362 294.081 187.372 293.971 187.412 293.721H186.022ZM197.492 296.321C197.802 296.331 198.022 296.331 198.152 296.331C198.502 296.331 198.502 296.331 198.762 296.361V295.131C198.342 295.181 198.222 295.191 197.502 295.191C193.422 295.191 193.422 295.191 193.132 295.201C193.252 294.951 193.352 294.731 193.432 294.551C193.732 293.851 193.732 293.851 193.812 293.691L192.512 293.381C192.432 293.821 192.312 294.191 192.012 294.811C191.482 295.951 190.822 296.811 189.902 297.561C190.382 297.821 190.542 297.941 190.922 298.351C191.642 297.691 192.002 297.251 192.582 296.321H194.982C194.882 298.021 194.462 299.051 193.552 299.861C192.962 300.381 192.382 300.711 191.522 301.011C191.952 301.401 192.102 301.601 192.352 302.111C193.592 301.541 194.312 301.031 194.952 300.281C195.742 299.341 196.112 298.281 196.242 296.581C196.252 296.421 196.252 296.421 196.262 296.321H197.492ZM200.182 298.451C200.582 298.401 200.692 298.401 201.812 298.401H207.122C208.242 298.401 208.352 298.401 208.752 298.451V297.061C208.312 297.121 208.122 297.131 207.132 297.131H201.802C200.812 297.131 200.622 297.121 200.182 297.061V298.451ZM211.382 294.661C212.252 294.961 213.142 295.431 214.052 296.041L214.692 294.941C213.852 294.431 213.062 294.051 212.032 293.651L211.382 294.661ZM210.592 297.091C211.612 297.491 212.502 297.971 213.302 298.561L213.922 297.431C213.062 296.871 212.292 296.481 211.262 296.071L210.592 297.091ZM211.162 301.911C211.362 301.851 211.502 301.821 211.862 301.751C214.322 301.261 216.022 300.371 217.292 298.911C217.912 298.181 218.332 297.491 218.792 296.381C218.312 296.051 218.162 295.921 217.752 295.491C217.442 296.381 217.132 296.981 216.592 297.701C215.792 298.771 214.942 299.421 213.702 299.901C212.662 300.301 211.572 300.541 210.812 300.551L211.162 301.911ZM226.162 301.751V302.221H227.312C227.282 301.991 227.272 301.841 227.272 301.461V296.881C227.272 296.441 227.282 296.191 227.302 295.831C227.012 295.861 226.732 295.871 226.372 295.871H222.432C222.032 295.871 221.812 295.851 221.532 295.801V296.911C221.792 296.881 221.942 296.871 222.432 296.871H226.172V298.261H222.692C222.292 298.261 222.062 298.241 221.792 298.191V299.281C222.042 299.251 222.192 299.241 222.692 299.241H226.172V300.751H222.332C221.942 300.751 221.702 300.731 221.432 300.681V301.791C221.682 301.761 221.832 301.751 222.332 301.751H226.162ZM230.692 295.171C231.622 295.691 232.442 296.351 233.242 297.201L234.102 296.111C233.332 295.381 232.712 294.921 231.522 294.181L230.692 295.171ZM231.042 301.771C231.272 301.691 231.302 301.681 231.702 301.601C233.252 301.271 234.492 300.781 235.512 300.101C236.882 299.191 237.832 298.011 238.682 296.181C238.172 295.821 238.012 295.671 237.622 295.201C237.322 296.011 237.042 296.561 236.602 297.201C235.812 298.341 234.882 299.111 233.632 299.651C232.722 300.051 231.532 300.341 230.672 300.391L231.042 301.771Z" fill="#212121"/>
<rect x="43" y="122.591" width="289" height="156" rx="3" fill="white"/>
<path d="M161.629 253.201C161.319 253.281 161.119 253.301 160.559 253.301H155.969C155.289 253.301 155.079 253.291 154.689 253.231V254.531C155.049 254.481 155.279 254.471 155.949 254.471H160.709C160.219 256.411 159.239 257.821 157.679 258.831C156.939 259.311 156.369 259.571 155.489 259.851C155.959 260.311 156.089 260.501 156.369 261.041C158.039 260.321 159.109 259.591 160.089 258.491C161.049 257.411 161.639 256.211 162.139 254.301C162.189 254.091 162.219 254.021 162.309 253.851L161.629 253.201ZM165.449 252.721C165.499 253.051 165.499 253.051 165.499 253.751L165.459 259.151C165.459 259.731 165.439 259.911 165.369 260.181L166.009 260.951C166.219 260.871 166.339 260.831 166.609 260.781C168.229 260.471 169.249 260.081 170.249 259.411C171.149 258.811 171.789 258.141 172.479 257.081C172.049 256.721 171.919 256.581 171.529 256.061C171.029 257.031 170.409 257.721 169.489 258.351C168.739 258.871 167.799 259.251 166.759 259.451L166.809 253.741C166.819 253.251 166.829 253.001 166.869 252.731L165.449 252.721ZM174.159 257.451C174.559 257.401 174.669 257.401 175.789 257.401H181.099C182.219 257.401 182.329 257.401 182.729 257.451V256.061C182.289 256.121 182.099 256.131 181.109 256.131H175.779C174.789 256.131 174.599 256.121 174.159 256.061V257.451ZM186.959 252.481C186.889 253.071 186.699 253.781 186.229 255.251C185.709 256.891 185.309 258.021 184.779 259.281C184.359 259.301 184.119 259.311 183.919 259.311C183.799 259.311 183.799 259.311 183.659 259.311L183.839 260.661C184.039 260.611 184.189 260.591 184.749 260.541C187.739 260.251 189.399 260.041 190.409 259.831C190.639 259.781 190.639 259.781 190.769 259.751C191.119 260.581 191.119 260.581 191.249 260.991L192.459 260.361C191.849 258.771 190.969 257.091 190.039 255.731L188.909 256.171C189.239 256.641 189.419 256.931 189.859 257.761C190.099 258.211 190.219 258.431 190.329 258.671C189.469 258.851 187.739 259.061 186.169 259.181C186.809 257.641 187.389 255.981 188.149 253.481C188.289 253.001 188.299 252.981 188.409 252.761L186.959 252.481ZM200.821 253.081C200.471 253.171 200.261 253.191 199.591 253.191H194.751C194.511 253.191 194.191 253.171 193.921 253.141C193.951 253.411 193.951 253.531 193.951 253.951V255.861C193.951 256.311 193.941 256.481 193.911 256.721L195.251 256.711C195.221 256.541 195.221 256.541 195.211 255.831V254.341L199.971 254.331C199.771 256.501 199.021 257.971 197.591 258.941C196.941 259.381 196.411 259.621 195.561 259.871C195.971 260.311 196.091 260.481 196.381 261.021C197.701 260.511 198.701 259.871 199.481 259.041C200.521 257.921 200.991 256.741 201.311 254.401C201.351 254.081 201.381 253.981 201.481 253.691L200.821 253.081ZM203.261 257.451C203.661 257.401 203.771 257.401 204.891 257.401H210.201C211.321 257.401 211.431 257.401 211.831 257.451V256.061C211.391 256.121 211.201 256.131 210.211 256.131H204.881C203.891 256.131 203.701 256.121 203.261 256.061V257.451ZM220.661 253.561C220.431 253.641 220.321 253.661 219.931 253.661L217.741 253.691C217.551 253.691 217.391 253.701 217.261 253.711C217.361 253.531 217.361 253.531 217.421 253.391C217.521 253.191 217.521 253.191 217.551 253.131C217.651 252.901 217.651 252.901 217.681 252.851C217.791 252.631 217.791 252.631 217.851 252.541L216.481 252.271C216.441 252.631 216.281 253.021 215.971 253.591C215.241 254.911 214.521 255.711 213.381 256.491C213.901 256.811 214.051 256.941 214.351 257.351C215.301 256.621 216.081 255.761 216.691 254.791L219.701 254.741C219.151 256.531 218.211 257.901 216.781 258.961C216.151 259.431 215.591 259.731 214.591 260.141C215.031 260.521 215.161 260.691 215.441 261.191C216.981 260.481 218.081 259.701 219.001 258.651C219.881 257.661 220.591 256.311 221.051 254.791C221.161 254.431 221.201 254.341 221.301 254.191L220.661 253.561Z" fill="#212121"/>
<path d="M145.055 194.796H131.625" stroke="#CBCBCB" stroke-width="4"/>
<path d="M144.441 194.799L143.37 190.3C143.326 190.115 143.528 189.97 143.689 190.07L150.769 194.496C150.991 194.634 150.991 194.958 150.769 195.096L143.692 199.519C143.531 199.62 143.328 199.474 143.373 199.289L144.441 194.899C144.448 194.866 144.449 194.832 144.441 194.799Z" fill="#CBCBCB"/>
<path d="M134.059 194.792L135.13 199.292C135.174 199.477 134.972 199.622 134.811 199.521L127.731 195.096C127.509 194.958 127.509 194.634 127.731 194.496L134.808 190.072C134.969 189.971 135.172 190.118 135.127 190.303L134.059 194.693C134.052 194.726 134.051 194.76 134.059 194.792Z" fill="#CBCBCB"/>
<path d="M242.055 194.796H228.625" stroke="#CBCBCB" stroke-width="4"/>
<path d="M241.441 194.799L240.37 190.3C240.326 190.115 240.528 189.97 240.689 190.07L247.769 194.496C247.991 194.634 247.991 194.958 247.769 195.096L240.692 199.519C240.531 199.62 240.328 199.474 240.373 199.289L241.441 194.899C241.448 194.866 241.449 194.832 241.441 194.799Z" fill="#CBCBCB"/>
<path d="M231.059 194.792L232.13 199.292C232.174 199.477 231.972 199.622 231.811 199.521L224.731 195.096C224.509 194.958 224.509 194.634 224.731 194.496L231.808 190.072C231.969 189.971 232.172 190.118 232.127 190.303L231.059 194.693C231.052 194.726 231.051 194.76 231.059 194.792Z" fill="#CBCBCB"/>
<path d="M209 377.591L173 377.591" stroke="#B2B2B2" stroke-width="4"/>
<path d="M205.505 377.879L204.12 383.698C204.076 383.883 204.278 384.028 204.439 383.928L213.608 378.197C213.83 378.058 213.83 377.735 213.608 377.596L204.442 371.868C204.281 371.767 204.078 371.913 204.123 372.098L205.505 377.78C205.512 377.813 205.513 377.847 205.505 377.879Z" fill="#B2B2B2"/>
<path d="M176.584 377.914L177.969 372.095C178.013 371.91 177.811 371.765 177.649 371.865L168.48 377.596C168.259 377.735 168.259 378.058 168.48 378.197L177.646 383.925C177.808 384.026 178.011 383.88 177.966 383.695L176.584 378.013C176.576 377.98 176.576 377.946 176.584 377.914Z" fill="#B2B2B2"/>
<path d="M122.02 409.339C121.71 409.419 121.51 409.439 120.91 409.439H118C117.46 409.439 117.24 409.419 116.89 409.359V410.629C117.24 410.579 117.45 410.569 118.01 410.569H121.13C120.99 411.939 120.78 413.349 120.5 414.669H117.01C116.3 414.669 116.08 414.659 115.7 414.599V415.859C116.06 415.819 116.29 415.809 116.99 415.809H123.03C123.72 415.809 123.95 415.819 124.31 415.859V414.599C123.93 414.659 123.71 414.669 123.01 414.669H121.83C122.09 413.169 122.2 412.459 122.44 410.689C122.49 410.309 122.54 410.099 122.65 409.859L122.02 409.339ZM125.71 413.289C126.11 413.239 126.22 413.239 127.34 413.239H132.65C133.77 413.239 133.88 413.239 134.28 413.289V411.899C133.84 411.959 133.65 411.969 132.66 411.969H127.33C126.34 411.969 126.15 411.959 125.71 411.899V413.289ZM138.59 410.339V409.299C138.59 408.819 138.59 408.779 138.63 408.449H137.32C137.36 408.699 137.37 408.829 137.37 409.339V410.339H136.78C136.03 410.339 135.84 410.329 135.48 410.269V411.489C135.82 411.449 135.96 411.439 136.76 411.439H137.37V412.909C137.36 413.449 137.36 413.559 137.33 413.769H138.63C138.6 413.529 138.59 413.379 138.59 412.929V411.439H141.18C141.16 412.849 141.1 413.339 140.86 413.939C140.43 414.909 139.59 415.539 138.17 415.939C138.58 416.359 138.75 416.599 138.92 416.999C140.36 416.519 141.34 415.749 141.89 414.669C142.26 413.879 142.36 413.239 142.38 411.439H143.04C143.85 411.439 143.99 411.449 144.33 411.489V410.269C143.97 410.329 143.78 410.339 143.02 410.339H142.39C142.39 409.939 142.4 409.549 142.4 409.179C142.4 408.829 142.4 408.759 142.43 408.519H141.15C141.18 408.749 141.19 408.979 141.19 409.509C141.19 409.529 141.19 409.629 141.19 409.749C141.19 409.839 141.19 410.079 141.19 410.339H138.59ZM142.42 408.129C142.7 408.569 142.91 409.059 143.1 409.699L143.79 409.499C143.62 408.909 143.4 408.429 143.1 407.939L142.42 408.129ZM144.97 409.159C144.77 408.549 144.56 408.079 144.29 407.659L143.65 407.859C143.95 408.349 144.18 408.859 144.33 409.369L144.97 409.159ZM145.71 413.289C146.11 413.239 146.22 413.239 147.34 413.239H152.65C153.77 413.239 153.88 413.239 154.28 413.289V411.899C153.84 411.959 153.65 411.969 152.66 411.969H147.33C146.34 411.969 146.15 411.959 145.71 411.899V413.289Z" fill="#212121"/>
<path d="M230.041 410.269V409.239C230.041 408.729 230.041 408.709 230.081 408.379H228.771C228.811 408.639 228.821 408.849 228.821 409.269V410.269H228.231C227.521 410.269 227.321 410.259 226.931 410.199V411.419C227.281 411.379 227.551 411.369 228.211 411.369H228.821V412.849C228.821 413.219 228.811 413.489 228.781 413.709H230.081C230.051 413.449 230.041 413.289 230.041 412.869V411.369H232.631C232.611 412.059 232.611 412.299 232.591 412.529C232.501 413.679 232.211 414.339 231.531 414.929C231.051 415.349 230.571 415.589 229.621 415.879C230.051 416.319 230.181 416.509 230.371 416.939C231.291 416.609 231.781 416.349 232.321 415.889C233.191 415.149 233.621 414.299 233.761 413.019C233.811 412.639 233.811 412.569 233.831 411.369H234.501C235.161 411.369 235.431 411.379 235.781 411.419V410.199C235.391 410.259 235.191 410.269 234.481 410.269H233.841C233.851 409.669 233.851 409.669 233.851 409.059C233.851 408.669 233.861 408.619 233.891 408.389H232.601C232.641 408.619 232.651 408.839 232.651 409.499V409.819L232.641 410.269H230.041ZM237.061 413.289C237.461 413.239 237.571 413.239 238.691 413.239H244.001C245.121 413.239 245.231 413.239 245.631 413.289V411.899C245.191 411.959 245.001 411.969 244.011 411.969H238.681C237.691 411.969 237.501 411.959 237.061 411.899V413.289ZM248.819 408.939C248.819 408.999 248.819 409.049 248.819 409.079C248.819 409.299 248.789 409.639 248.729 410.049C248.569 411.309 248.219 412.549 247.789 413.479C247.369 414.399 246.959 415.009 246.359 415.609C246.839 415.869 247.029 416.019 247.499 416.469C248.839 414.929 249.619 412.959 250.039 410.089L250.069 409.849L250.119 409.559L250.139 409.389C250.149 409.309 250.159 409.299 250.189 409.189L248.819 408.939ZM251.789 409.179C251.839 409.329 251.869 409.489 251.929 409.899C252.319 412.589 253.249 414.889 254.579 416.479C254.959 416.049 255.169 415.879 255.679 415.559C254.639 414.439 253.939 413.089 253.449 411.239C253.219 410.379 253.039 409.399 253.029 408.939L251.789 409.179ZM253.129 408.559C253.509 409.119 253.719 409.549 253.949 410.189L254.709 409.949C254.469 409.279 254.249 408.859 253.879 408.339L253.129 408.559ZM256.019 409.549C255.799 408.949 255.579 408.529 255.199 407.999L254.459 408.209C254.779 408.669 255.029 409.169 255.259 409.789L256.019 409.549ZM256.358 413.289C256.758 413.239 256.868 413.239 257.988 413.239H263.298C264.418 413.239 264.528 413.239 264.928 413.289V411.899C264.488 411.959 264.298 411.969 263.308 411.969H257.978C256.988 411.969 256.798 411.959 256.358 411.899V413.289Z" fill="#212121"/>
<path d="M176.43 34.36C175.92 34.36 175.67 34.35 175.39 34.32V35.24C175.65 35.2 175.93 35.19 176.45 35.19C176.33 36 176.05 36.45 175.38 36.97C175.72 37.21 175.92 37.38 176.18 37.66C176.95 36.91 177.28 36.25 177.39 35.19H178.51V36.66C178.51 37.1 178.5 37.28 178.46 37.52H179.51C179.47 37.3 179.46 37.13 179.46 36.67V35.19H179.61C180.09 35.19 180.34 35.2 180.64 35.24V34.32C180.36 34.35 180.11 34.36 179.61 34.36H179.46V33.44C179.96 33.44 180.23 33.45 180.5 33.48V32.58C180.22 32.62 179.95 32.63 179.46 32.63H176.56C176.09 32.63 175.82 32.62 175.55 32.58V33.48C175.82 33.45 176.09 33.44 176.55 33.44C176.55 33.9 176.55 34.01 176.53 34.36H176.43ZM178.51 33.44V34.36H177.46C177.48 33.89 177.48 33.89 177.48 33.44H178.51ZM174.86 32.16H176.72C177.07 32.16 177.38 32.17 177.64 32.19C177.62 31.93 177.61 31.74 177.61 31.29V29.75C177.61 29.4 177.62 29.11 177.64 28.82C177.37 28.85 177.14 28.86 176.62 28.86H174.8C174.31 28.86 174.05 28.85 173.77 28.82C173.8 29.14 173.81 29.42 173.81 29.94V36.54C173.81 37.16 173.79 37.49 173.75 37.78H174.92C174.88 37.49 174.86 37.15 174.86 36.56V32.16ZM174.86 29.61H176.63V30.14H174.86V29.61ZM174.86 30.85H176.63V31.39H174.86V30.85ZM182.22 29.93C182.22 29.43 182.23 29.19 182.26 28.82C181.98 28.85 181.73 28.86 181.23 28.86H179.32C178.81 28.86 178.58 28.85 178.3 28.82C178.32 29.11 178.33 29.37 178.33 29.75V31.29C178.33 31.74 178.33 31.9 178.31 32.19C178.55 32.17 178.87 32.16 179.22 32.16H181.18V36.41C181.18 36.63 181.12 36.67 180.8 36.67C180.56 36.67 180.24 36.64 179.88 36.59C180.04 36.98 180.09 37.2 180.15 37.65C180.48 37.67 180.62 37.67 180.8 37.67C181.92 37.67 182.22 37.44 182.22 36.55V29.93ZM179.32 29.61H181.18V30.14H179.32V29.61ZM179.32 30.85H181.18V31.39H179.32V30.85ZM186.28 33.62C186.28 33.73 186.28 33.8 186.27 33.93H184.84C184.35 33.93 184.1 33.92 183.79 33.87V34.94C184.12 34.89 184.38 34.88 184.84 34.88H186.12C185.97 35.36 185.76 35.68 185.41 35.99C184.97 36.39 184.49 36.62 183.56 36.88C183.88 37.2 184.08 37.49 184.27 37.86C185.5 37.38 186.1 36.98 186.6 36.32C186.9 35.92 187.09 35.48 187.22 34.88H188.51V36.82C188.51 37.52 188.83 37.69 190.19 37.69C192.11 37.69 192.29 37.54 192.51 35.85C192.11 35.79 191.82 35.69 191.43 35.5C191.4 36.05 191.34 36.38 191.25 36.5C191.14 36.64 190.9 36.69 190.35 36.69C190.01 36.69 189.84 36.68 189.71 36.64C189.56 36.6 189.55 36.58 189.55 36.37V34.88H191.14C191.59 34.88 191.88 34.9 192.19 34.94V33.87C191.89 33.92 191.63 33.93 191.14 33.93H189.55V32.85C190.03 32.85 190.21 32.86 190.51 32.89V32.46C191.05 32.82 191.34 32.98 192.16 33.36C192.43 32.78 192.49 32.67 192.72 32.37C191.99 32.09 191.66 31.93 191.12 31.61C191.47 31.3 191.76 31.01 192.02 30.69C192.22 30.47 192.24 30.44 192.3 30.38L191.38 29.86C191.14 30.25 190.77 30.68 190.34 31.07C190.13 30.91 190.02 30.82 189.75 30.59C190 30.36 190.31 30.05 190.49 29.84C190.72 29.57 190.85 29.42 190.88 29.38L189.96 28.87C189.93 28.92 189.93 28.92 189.88 29C189.84 29.08 189.81 29.11 189.67 29.29C189.47 29.55 189.4 29.61 189.08 29.93C188.7 29.47 188.56 29.24 188.46 28.84C188.23 28.87 188.07 28.88 187.6 28.88H185.75C185.4 28.88 185.11 28.86 184.92 28.83V29.87C184.76 29.74 184.76 29.74 184.6 29.61L183.78 30.22C184.28 30.57 184.62 30.88 185.18 31.53C184.51 31.97 184.04 32.21 183.27 32.5C183.54 32.82 183.69 33.06 183.86 33.42C184.66 33.06 185.03 32.85 185.62 32.45V32.89C185.87 32.87 185.98 32.86 186.29 32.85L186.28 33.62ZM187.35 32.85H188.51V33.93H187.34C187.34 33.83 187.34 33.79 187.34 33.7L187.35 32.85ZM186.99 29.83C186.69 30.24 186.43 30.52 186.01 30.9C185.68 30.53 185.45 30.31 184.92 29.87C185.13 29.84 185.35 29.83 185.53 29.83H186.99ZM186.61 31.91C186.5 31.91 186.45 31.91 186.34 31.91C187.05 31.33 187.47 30.88 188.03 30.1C188.58 30.87 189.02 31.33 189.73 31.91C189.65 31.91 189.65 31.91 189.52 31.91H186.61ZM197.42 32.42C196.1 33.23 194.82 33.81 193.3 34.26C193.59 34.63 193.72 34.85 193.89 35.26C194.66 34.95 194.87 34.86 195.48 34.56C195.47 34.74 195.47 34.96 195.47 35.12V36.67C195.47 37.11 195.45 37.47 195.41 37.8H196.58V37.37H200.21V37.8H201.37C201.33 37.53 201.31 37.19 201.31 36.67V34.2C201.31 33.64 201.32 33.4 201.35 33.11C201.06 33.13 200.78 33.14 200.3 33.14H198.83C198.57 33.14 198.24 33.14 198.02 33.15C198.47 32.86 198.72 32.69 199.1 32.42H201.25C201.76 32.42 202.16 32.44 202.49 32.48V31.38C202.17 31.42 201.87 31.44 201.35 31.44H200.32C200.85 30.96 201.28 30.53 201.68 30.06C201.91 29.79 202.06 29.62 202.13 29.55L201.14 28.9C200.93 29.31 200.51 29.87 199.98 30.42V29.56C199.69 29.6 199.37 29.62 198.86 29.62H198.14V29.45C198.14 29.04 198.15 28.83 198.2 28.57H196.98C197.02 28.84 197.04 29.06 197.04 29.45V29.62H195.58C195.05 29.62 194.66 29.6 194.4 29.56V30.61C194.69 30.58 195.01 30.57 195.54 30.57H197.04V31.44H194.76C194.19 31.44 193.81 31.42 193.54 31.38V32.48C193.89 32.44 194.24 32.42 194.74 32.42H197.42ZM198.14 31.44V30.57H198.96C199.36 30.57 199.53 30.58 199.8 30.6C199.48 30.92 199.21 31.15 198.84 31.44H198.14ZM196.58 34.05H200.2V34.79H196.58V34.05ZM196.58 35.66H200.2V36.43H196.58V35.66Z" fill="#212121"/>
<rect x="58.4196" y="153" width="64.1447" height="85" rx="2" fill="#EEEEEE"/>
<path d="M79.1356 219.92H80.5456L82.4956 225.37H82.5356L84.5056 219.92H85.8656L83.0256 227H81.9356L79.1356 219.92ZM86.233 222.2H87.433V227H86.233V222.2ZM86.063 220.57C86.063 220.377 86.133 220.21 86.273 220.07C86.4196 219.923 86.603 219.85 86.823 219.85C87.043 219.85 87.2263 219.92 87.373 220.06C87.5263 220.193 87.603 220.363 87.603 220.57C87.603 220.777 87.5263 220.95 87.373 221.09C87.2263 221.223 87.043 221.29 86.823 221.29C86.603 221.29 86.4196 221.22 86.273 221.08C86.133 220.933 86.063 220.763 86.063 220.57ZM92.1688 224.12C92.1688 223.967 92.1454 223.82 92.0988 223.68C92.0588 223.54 91.9921 223.417 91.8988 223.31C91.8054 223.203 91.6854 223.12 91.5388 223.06C91.3988 222.993 91.2321 222.96 91.0388 222.96C90.6788 222.96 90.3721 223.07 90.1188 223.29C89.8721 223.503 89.7354 223.78 89.7088 224.12H92.1688ZM93.3688 224.66C93.3688 224.713 93.3688 224.767 93.3688 224.82C93.3688 224.873 93.3654 224.927 93.3588 224.98H89.7088C89.7221 225.153 89.7654 225.313 89.8388 225.46C89.9188 225.6 90.0221 225.723 90.1488 225.83C90.2754 225.93 90.4188 226.01 90.5788 226.07C90.7388 226.13 90.9054 226.16 91.0788 226.16C91.3788 226.16 91.6321 226.107 91.8388 226C92.0454 225.887 92.2154 225.733 92.3488 225.54L93.1488 226.18C92.6754 226.82 91.9888 227.14 91.0888 227.14C90.7154 227.14 90.3721 227.083 90.0588 226.97C89.7454 226.85 89.4721 226.683 89.2388 226.47C89.0121 226.257 88.8321 225.997 88.6988 225.69C88.5721 225.377 88.5088 225.023 88.5088 224.63C88.5088 224.243 88.5721 223.893 88.6988 223.58C88.8321 223.26 89.0121 222.99 89.2388 222.77C89.4654 222.543 89.7321 222.37 90.0388 222.25C90.3521 222.123 90.6888 222.06 91.0488 222.06C91.3821 222.06 91.6888 222.117 91.9688 222.23C92.2554 222.337 92.5021 222.5 92.7088 222.72C92.9154 222.933 93.0754 223.203 93.1888 223.53C93.3088 223.85 93.3688 224.227 93.3688 224.66ZM93.7509 222.2H95.0509L96.0509 225.64H96.0709L97.1009 222.2H98.3809L99.4209 225.64H99.4409L100.461 222.2H101.711L100.051 227H98.8309L97.7409 223.64H97.7209L96.6409 227H95.4209L93.7509 222.2Z" fill="#212121"/>
<rect x="68.4194" y="175" width="33.105" height="4" rx="2" fill="#70D7E0"/>
<rect x="68.4194" y="184.995" width="44.14" height="4" rx="2" fill="#70D7E0"/>
<rect x="68.4194" y="194.99" width="44.14" height="4" rx="2" fill="#70D7E0"/>
<rect x="68.4194" y="204.985" width="33.105" height="4" rx="2" fill="#70D7E0"/>
<path d="M109 153L123 167L111.051 167C109.918 167 109 166.082 109 164.949L109 153Z" fill="#B2B2B2"/>
<path d="M123 167L109 153L120.949 153C122.082 153 123 153.918 123 155.051L123 167Z" fill="white"/>
<rect x="155.92" y="153" width="64.1447" height="85" rx="2" fill="#EEEEEE"/>
<path d="M171.095 221.58C170.908 221.327 170.665 221.143 170.365 221.03C170.065 220.91 169.772 220.85 169.485 220.85C169.118 220.85 168.785 220.917 168.485 221.05C168.185 221.183 167.925 221.367 167.705 221.6C167.492 221.833 167.325 222.107 167.205 222.42C167.092 222.733 167.035 223.073 167.035 223.44C167.035 223.827 167.092 224.18 167.205 224.5C167.318 224.82 167.478 225.097 167.685 225.33C167.898 225.557 168.152 225.733 168.445 225.86C168.738 225.987 169.068 226.05 169.435 226.05C169.815 226.05 170.152 225.977 170.445 225.83C170.738 225.677 170.975 225.477 171.155 225.23L172.165 225.94C171.852 226.333 171.468 226.64 171.015 226.86C170.562 227.073 170.032 227.18 169.425 227.18C168.872 227.18 168.362 227.09 167.895 226.91C167.435 226.723 167.038 226.467 166.705 226.14C166.372 225.807 166.112 225.413 165.925 224.96C165.738 224.5 165.645 223.993 165.645 223.44C165.645 222.873 165.742 222.363 165.935 221.91C166.135 221.45 166.405 221.06 166.745 220.74C167.092 220.42 167.498 220.173 167.965 220C168.432 219.827 168.938 219.74 169.485 219.74C169.712 219.74 169.948 219.763 170.195 219.81C170.442 219.85 170.678 219.917 170.905 220.01C171.132 220.097 171.345 220.207 171.545 220.34C171.745 220.473 171.915 220.633 172.055 220.82L171.095 221.58ZM172.391 224.58C172.391 224.2 172.457 223.857 172.591 223.55C172.731 223.237 172.917 222.97 173.151 222.75C173.384 222.53 173.661 222.36 173.981 222.24C174.301 222.12 174.641 222.06 175.001 222.06C175.361 222.06 175.701 222.12 176.021 222.24C176.341 222.36 176.617 222.53 176.851 222.75C177.084 222.97 177.267 223.237 177.401 223.55C177.541 223.857 177.611 224.2 177.611 224.58C177.611 224.96 177.541 225.307 177.401 225.62C177.267 225.933 177.084 226.203 176.851 226.43C176.617 226.65 176.341 226.823 176.021 226.95C175.701 227.077 175.361 227.14 175.001 227.14C174.641 227.14 174.301 227.077 173.981 226.95C173.661 226.823 173.384 226.65 173.151 226.43C172.917 226.203 172.731 225.933 172.591 225.62C172.457 225.307 172.391 224.96 172.391 224.58ZM173.611 224.58C173.611 224.767 173.637 224.953 173.691 225.14C173.751 225.327 173.837 225.493 173.951 225.64C174.064 225.787 174.207 225.907 174.381 226C174.554 226.093 174.761 226.14 175.001 226.14C175.241 226.14 175.447 226.093 175.621 226C175.794 225.907 175.937 225.787 176.051 225.64C176.164 225.493 176.247 225.327 176.301 225.14C176.361 224.953 176.391 224.767 176.391 224.58C176.391 224.393 176.361 224.21 176.301 224.03C176.247 223.843 176.164 223.677 176.051 223.53C175.937 223.383 175.794 223.267 175.621 223.18C175.447 223.087 175.241 223.04 175.001 223.04C174.761 223.04 174.554 223.087 174.381 223.18C174.207 223.267 174.064 223.383 173.951 223.53C173.837 223.677 173.751 223.843 173.691 224.03C173.637 224.21 173.611 224.393 173.611 224.58ZM178.674 222.2H179.814V222.97H179.834C179.941 222.73 180.124 222.52 180.384 222.34C180.651 222.153 180.964 222.06 181.324 222.06C181.637 222.06 181.904 222.117 182.124 222.23C182.351 222.337 182.534 222.48 182.674 222.66C182.821 222.84 182.927 223.047 182.994 223.28C183.061 223.513 183.094 223.753 183.094 224V227H181.894V224.34C181.894 224.2 181.884 224.053 181.864 223.9C181.844 223.747 181.801 223.61 181.734 223.49C181.667 223.363 181.574 223.26 181.454 223.18C181.341 223.1 181.187 223.06 180.994 223.06C180.801 223.06 180.634 223.1 180.494 223.18C180.354 223.253 180.237 223.35 180.144 223.47C180.057 223.59 179.991 223.73 179.944 223.89C179.897 224.043 179.874 224.2 179.874 224.36V227H178.674V222.2ZM183.704 223.16V222.2H184.544V220.81H185.724V222.2H186.924V223.16H185.724V225.39C185.724 225.603 185.761 225.78 185.834 225.92C185.914 226.06 186.088 226.13 186.354 226.13C186.434 226.13 186.521 226.123 186.614 226.11C186.708 226.09 186.791 226.063 186.864 226.03L186.904 226.97C186.798 227.01 186.671 227.04 186.524 227.06C186.378 227.087 186.238 227.1 186.104 227.1C185.784 227.1 185.524 227.057 185.324 226.97C185.124 226.877 184.964 226.753 184.844 226.6C184.731 226.44 184.651 226.26 184.604 226.06C184.564 225.853 184.544 225.633 184.544 225.4V223.16H183.704ZM187.693 222.2H188.843V223H188.863C188.996 222.72 189.183 222.493 189.423 222.32C189.663 222.147 189.943 222.06 190.263 222.06C190.31 222.06 190.36 222.063 190.413 222.07C190.466 222.07 190.513 222.077 190.553 222.09V223.19C190.473 223.17 190.403 223.157 190.343 223.15C190.29 223.143 190.236 223.14 190.183 223.14C189.91 223.14 189.69 223.19 189.523 223.29C189.356 223.39 189.226 223.51 189.133 223.65C189.04 223.79 188.976 223.933 188.943 224.08C188.91 224.227 188.893 224.343 188.893 224.43V227H187.693V222.2ZM190.78 224.58C190.78 224.2 190.846 223.857 190.98 223.55C191.12 223.237 191.306 222.97 191.54 222.75C191.773 222.53 192.05 222.36 192.37 222.24C192.69 222.12 193.03 222.06 193.39 222.06C193.75 222.06 194.09 222.12 194.41 222.24C194.73 222.36 195.006 222.53 195.24 222.75C195.473 222.97 195.656 223.237 195.79 223.55C195.93 223.857 196 224.2 196 224.58C196 224.96 195.93 225.307 195.79 225.62C195.656 225.933 195.473 226.203 195.24 226.43C195.006 226.65 194.73 226.823 194.41 226.95C194.09 227.077 193.75 227.14 193.39 227.14C193.03 227.14 192.69 227.077 192.37 226.95C192.05 226.823 191.773 226.65 191.54 226.43C191.306 226.203 191.12 225.933 190.98 225.62C190.846 225.307 190.78 224.96 190.78 224.58ZM192 224.58C192 224.767 192.026 224.953 192.08 225.14C192.14 225.327 192.226 225.493 192.34 225.64C192.453 225.787 192.596 225.907 192.77 226C192.943 226.093 193.15 226.14 193.39 226.14C193.63 226.14 193.836 226.093 194.01 226C194.183 225.907 194.326 225.787 194.44 225.64C194.553 225.493 194.636 225.327 194.69 225.14C194.75 224.953 194.78 224.767 194.78 224.58C194.78 224.393 194.75 224.21 194.69 224.03C194.636 223.843 194.553 223.677 194.44 223.53C194.326 223.383 194.183 223.267 194.01 223.18C193.836 223.087 193.63 223.04 193.39 223.04C193.15 223.04 192.943 223.087 192.77 223.18C192.596 223.267 192.453 223.383 192.34 223.53C192.226 223.677 192.14 223.843 192.08 224.03C192.026 224.21 192 224.393 192 224.58ZM197.083 219.44H198.283V227H197.083V219.44ZM199.659 219.44H200.859V227H199.659V219.44ZM205.595 224.12C205.595 223.967 205.571 223.82 205.525 223.68C205.485 223.54 205.418 223.417 205.325 223.31C205.231 223.203 205.111 223.12 204.965 223.06C204.825 222.993 204.658 222.96 204.465 222.96C204.105 222.96 203.798 223.07 203.545 223.29C203.298 223.503 203.161 223.78 203.135 224.12H205.595ZM206.795 224.66C206.795 224.713 206.795 224.767 206.795 224.82C206.795 224.873 206.791 224.927 206.785 224.98H203.135C203.148 225.153 203.191 225.313 203.265 225.46C203.345 225.6 203.448 225.723 203.575 225.83C203.701 225.93 203.845 226.01 204.005 226.07C204.165 226.13 204.331 226.16 204.505 226.16C204.805 226.16 205.058 226.107 205.265 226C205.471 225.887 205.641 225.733 205.775 225.54L206.575 226.18C206.101 226.82 205.415 227.14 204.515 227.14C204.141 227.14 203.798 227.083 203.485 226.97C203.171 226.85 202.898 226.683 202.665 226.47C202.438 226.257 202.258 225.997 202.125 225.69C201.998 225.377 201.935 225.023 201.935 224.63C201.935 224.243 201.998 223.893 202.125 223.58C202.258 223.26 202.438 222.99 202.665 222.77C202.891 222.543 203.158 222.37 203.465 222.25C203.778 222.123 204.115 222.06 204.475 222.06C204.808 222.06 205.115 222.117 205.395 222.23C205.681 222.337 205.928 222.5 206.135 222.72C206.341 222.933 206.501 223.203 206.615 223.53C206.735 223.85 206.795 224.227 206.795 224.66ZM207.857 222.2H209.007V223H209.027C209.16 222.72 209.347 222.493 209.587 222.32C209.827 222.147 210.107 222.06 210.427 222.06C210.474 222.06 210.524 222.063 210.577 222.07C210.63 222.07 210.677 222.077 210.717 222.09V223.19C210.637 223.17 210.567 223.157 210.507 223.15C210.454 223.143 210.4 223.14 210.347 223.14C210.074 223.14 209.854 223.19 209.687 223.29C209.52 223.39 209.39 223.51 209.297 223.65C209.204 223.79 209.14 223.933 209.107 224.08C209.074 224.227 209.057 224.343 209.057 224.43V227H207.857V222.2Z" fill="#212121"/>
<rect x="165.92" y="175" width="44.14" height="4" rx="2" fill="#70D7E0"/>
<rect x="165.92" y="185.377" width="34.2085" height="4" rx="2" fill="#70D7E0"/>
<rect x="165.92" y="195.754" width="44.14" height="4" rx="2" fill="#70D7E0"/>
<rect x="165.92" y="206.131" width="34.2085" height="4" rx="2" fill="#70D7E0"/>
<path d="M206.065 153L220.064 167L208.116 167C206.983 167 206.065 166.082 206.065 164.949L206.065 153Z" fill="#B2B2B2"/>
<path d="M220.065 167L206.065 153L218.014 153C219.147 153 220.065 153.918 220.065 155.051L220.065 167Z" fill="white"/>
<rect x="252.42" y="153" width="64.1447" height="85" rx="2" fill="#EEEEEE"/>
<path d="M270.443 219.92H272.413L274.253 224.95H274.283L276.103 219.92H278.083V227H276.833V221.31H276.813L274.663 227H273.783L271.663 221.31H271.643V227H270.443V219.92ZM279.202 224.58C279.202 224.2 279.269 223.857 279.402 223.55C279.542 223.237 279.729 222.97 279.962 222.75C280.195 222.53 280.472 222.36 280.792 222.24C281.112 222.12 281.452 222.06 281.812 222.06C282.172 222.06 282.512 222.12 282.832 222.24C283.152 222.36 283.429 222.53 283.662 222.75C283.895 222.97 284.079 223.237 284.212 223.55C284.352 223.857 284.422 224.2 284.422 224.58C284.422 224.96 284.352 225.307 284.212 225.62C284.079 225.933 283.895 226.203 283.662 226.43C283.429 226.65 283.152 226.823 282.832 226.95C282.512 227.077 282.172 227.14 281.812 227.14C281.452 227.14 281.112 227.077 280.792 226.95C280.472 226.823 280.195 226.65 279.962 226.43C279.729 226.203 279.542 225.933 279.402 225.62C279.269 225.307 279.202 224.96 279.202 224.58ZM280.422 224.58C280.422 224.767 280.449 224.953 280.502 225.14C280.562 225.327 280.649 225.493 280.762 225.64C280.875 225.787 281.019 225.907 281.192 226C281.365 226.093 281.572 226.14 281.812 226.14C282.052 226.14 282.259 226.093 282.432 226C282.605 225.907 282.749 225.787 282.862 225.64C282.975 225.493 283.059 225.327 283.112 225.14C283.172 224.953 283.202 224.767 283.202 224.58C283.202 224.393 283.172 224.21 283.112 224.03C283.059 223.843 282.975 223.677 282.862 223.53C282.749 223.383 282.605 223.267 282.432 223.18C282.259 223.087 282.052 223.04 281.812 223.04C281.572 223.04 281.365 223.087 281.192 223.18C281.019 223.267 280.875 223.383 280.762 223.53C280.649 223.677 280.562 223.843 280.502 224.03C280.449 224.21 280.422 224.393 280.422 224.58ZM290.365 227H289.225V226.28H289.205C289.039 226.56 288.805 226.773 288.505 226.92C288.212 227.067 287.895 227.14 287.555 227.14C287.189 227.14 286.859 227.073 286.565 226.94C286.279 226.8 286.032 226.617 285.825 226.39C285.625 226.157 285.469 225.887 285.355 225.58C285.249 225.267 285.195 224.933 285.195 224.58C285.195 224.227 285.252 223.897 285.365 223.59C285.479 223.283 285.639 223.017 285.845 222.79C286.052 222.563 286.299 222.387 286.585 222.26C286.872 222.127 287.185 222.06 287.525 222.06C287.745 222.06 287.942 222.087 288.115 222.14C288.289 222.187 288.439 222.247 288.565 222.32C288.699 222.393 288.812 222.473 288.905 222.56C288.999 222.647 289.075 222.73 289.135 222.81H289.165V219.44H290.365V227ZM286.415 224.58C286.415 224.767 286.442 224.953 286.495 225.14C286.555 225.327 286.642 225.493 286.755 225.64C286.869 225.787 287.012 225.907 287.185 226C287.359 226.093 287.562 226.14 287.795 226.14C288.015 226.14 288.212 226.097 288.385 226.01C288.559 225.917 288.705 225.797 288.825 225.65C288.952 225.503 289.045 225.34 289.105 225.16C289.172 224.973 289.205 224.787 289.205 224.6C289.205 224.413 289.172 224.227 289.105 224.04C289.045 223.853 288.952 223.687 288.825 223.54C288.705 223.393 288.559 223.273 288.385 223.18C288.212 223.087 288.015 223.04 287.795 223.04C287.562 223.04 287.359 223.087 287.185 223.18C287.012 223.267 286.869 223.383 286.755 223.53C286.642 223.677 286.555 223.843 286.495 224.03C286.442 224.21 286.415 224.393 286.415 224.58ZM295.103 224.12C295.103 223.967 295.08 223.82 295.033 223.68C294.993 223.54 294.927 223.417 294.833 223.31C294.74 223.203 294.62 223.12 294.473 223.06C294.333 222.993 294.167 222.96 293.973 222.96C293.613 222.96 293.307 223.07 293.053 223.29C292.807 223.503 292.67 223.78 292.643 224.12H295.103ZM296.303 224.66C296.303 224.713 296.303 224.767 296.303 224.82C296.303 224.873 296.3 224.927 296.293 224.98H292.643C292.657 225.153 292.7 225.313 292.773 225.46C292.853 225.6 292.957 225.723 293.083 225.83C293.21 225.93 293.353 226.01 293.513 226.07C293.673 226.13 293.84 226.16 294.013 226.16C294.313 226.16 294.567 226.107 294.773 226C294.98 225.887 295.15 225.733 295.283 225.54L296.083 226.18C295.61 226.82 294.923 227.14 294.023 227.14C293.65 227.14 293.307 227.083 292.993 226.97C292.68 226.85 292.407 226.683 292.173 226.47C291.947 226.257 291.767 225.997 291.633 225.69C291.507 225.377 291.443 225.023 291.443 224.63C291.443 224.243 291.507 223.893 291.633 223.58C291.767 223.26 291.947 222.99 292.173 222.77C292.4 222.543 292.667 222.37 292.973 222.25C293.287 222.123 293.623 222.06 293.983 222.06C294.317 222.06 294.623 222.117 294.903 222.23C295.19 222.337 295.437 222.5 295.643 222.72C295.85 222.933 296.01 223.203 296.123 223.53C296.243 223.85 296.303 224.227 296.303 224.66ZM297.385 219.44H298.585V227H297.385V219.44Z" fill="#212121"/>
<rect x="262.419" y="175" width="44.14" height="4" rx="2" fill="#70D7E0"/>
<rect x="262.419" y="184.772" width="36.4155" height="4" rx="2" fill="#70D7E0"/>
<rect x="262.419" y="194.545" width="36.4155" height="4" rx="2" fill="#70D7E0"/>
<rect x="262.419" y="204.317" width="44.14" height="4" rx="2" fill="#70D7E0"/>
<path d="M302.565 153L316.564 167L304.615 167C303.483 167 302.565 166.082 302.565 164.949L302.565 153Z" fill="#B2B2B2"/>
<path d="M316.564 167L302.564 153L314.513 153C315.646 153 316.564 153.918 316.564 155.051L316.564 167Z" fill="white"/>
<path d="M284.497 161.191L288.996 160.12C289.181 160.076 289.326 160.278 289.226 160.439L284.801 167.519C284.662 167.741 284.339 167.741 284.2 167.519L279.777 160.442C279.676 160.281 279.822 160.078 280.007 160.123L284.397 161.191C284.43 161.198 284.464 161.199 284.497 161.191Z" fill="#30C8D6"/>
<path d="M187.997 161.191L192.496 160.12C192.681 160.076 192.826 160.278 192.726 160.439L188.301 167.519C188.162 167.741 187.839 167.741 187.7 167.519L183.277 160.442C183.176 160.281 183.322 160.078 183.507 160.123L187.897 161.191C187.93 161.198 187.964 161.199 187.997 161.191Z" fill="#30C8D6"/>
<path d="M188 156.196L188 138" stroke="#30C8D6" stroke-width="3" stroke-linecap="round" stroke-dasharray="0.1 6"/>
<path d="M188 132.348L188 98.4282" stroke="#30C8D6" stroke-width="3" stroke-linecap="round" stroke-dasharray="0.1 6"/>
<path d="M90.4885 161.191L94.988 160.12C95.1729 160.076 95.3181 160.278 95.2174 160.439L90.7923 167.519C90.6536 167.741 90.3303 167.741 90.1916 167.519L85.7684 160.442C85.6674 160.281 85.8137 160.078 85.9988 160.123L90.3891 161.191C90.4217 161.198 90.4558 161.199 90.4885 161.191Z" fill="#30C8D6"/>
<path d="M90.4644 156.197V138C90.4644 138 128.352 138 182.297 138" stroke="#30C8D6" stroke-width="3" stroke-linecap="round" stroke-linejoin="round" stroke-dasharray="0.1 6"/>
<path d="M284.1 156.197V138C284.1 138 219.09 138 193.879 138" stroke="#30C8D6" stroke-width="3" stroke-linecap="round" stroke-linejoin="round" stroke-dasharray="0.1 6"/>
<path d="M164 92C164 91.4477 164.448 91 165 91H212C212.552 91 213 91.4477 213 92C213 92.5523 212.552 93 212 93H165C164.448 93 164 92.5523 164 92Z" fill="#9E9E9E"/>
<mask id="mask0" mask-type="alpha" maskUnits="userSpaceOnUse" x="160" y="40" width="56" height="51">
<rect x="160" y="40" width="56" height="51" fill="#C4C4C4"/>
</mask>
<g mask="url(#mask0)">
<path d="M196.688 91.442C200.255 95.5856 205.691 94.9738 208.919 91.7847C211.779 88.9601 211.032 84.5996 209.583 82.6341C206.568 78.5426 201.5 79.8052 199.725 81.8878C198.389 83.4585 197.738 87.3895 200.42 88.9298C202.958 90.392 205.626 89.1207 205.73 88.1792C205.657 89.5849 201.049 92.2316 197.608 88.0924" fill="#7879BA"/>
<path opacity="0.23" d="M203.01 88.3737C202.728 88.3911 201.409 88.4562 200.003 87.6882C199.439 87.3801 199.027 87.0287 198.762 86.7727C199.014 87.6405 199.53 88.4171 200.424 88.9335C202.962 90.3956 205.631 89.1244 205.735 88.1828C205.735 88.1828 205.735 88.1828 205.735 88.1785C205.843 87.6839 205.861 87.4279 205.796 87.4018C205.774 87.3932 205.748 87.4105 205.709 87.4452C205.288 87.7316 204.342 88.287 203.01 88.3737Z" fill="#615A86"/>
<path opacity="0.23" d="M197.174 91.9588C198.202 92.9915 199.361 93.664 200.563 94.0328C198.198 92.627 197.946 89.5508 197.834 88.7524C197.612 89.963 197.378 91.0607 197.174 91.9588Z" fill="#615A86"/>
<path d="M171.455 75.5962C169.233 77.7786 166.283 81.1152 164.525 86.3001C164.534 86.2958 164.543 86.2871 164.547 86.2828C170.535 82.0914 169.732 84.4995 173.199 83.1328C176.553 81.8138 175.416 79.627 176.553 77.9088C176.496 77.9001 172.478 76.4596 171.455 75.5962Z" fill="#7879BA"/>
<path opacity="0.24" d="M171.675 78.6052C172.743 79.729 173.129 81.3083 172.986 83.2174C173.055 83.1914 173.129 83.1654 173.202 83.135C174.929 82.4581 175.463 81.547 175.736 80.5924C174.105 80.0414 172.764 79.3689 171.675 78.6052Z" fill="#615A86"/>
<path d="M170.239 74.3818C167.445 75.6054 163.926 78.1349 162 80.8467C163.926 80.3738 165.749 80.2697 167.432 80.3998C167.432 80.3998 169.896 77.1066 171.571 75.6922C171.181 75.3581 170.586 74.794 170.239 74.3818Z" fill="#646DA9"/>
<path d="M196.593 75.223C193.699 72.8973 181.429 73.1056 178.171 75.2186C173.198 78.4424 178.179 94.2228 178.179 94.2228C178.192 94.2965 179.429 97.8327 179.429 97.8327C180.154 99.885 181.603 100.111 182.327 98.0583C182.327 98.0583 183.317 94.4614 183.356 94.4354C184.944 94.8736 190.575 94.5742 191.573 94.3486C191.678 94.3963 192.454 98.106 192.454 98.106C193.179 100.158 194.745 99.885 195.47 97.8327L196.598 94.2271C196.598 94.2271 201.01 78.7721 196.593 75.223Z" fill="#7879BA"/>
<path d="M193.265 82.3992C193.252 85.4884 187.412 87.9702 187.412 87.9702C187.412 87.9702 181.594 85.4407 181.607 82.3514C181.62 79.2622 182.813 76.763 187.46 76.7804C192.363 76.8021 193.282 79.3099 193.265 82.3992Z" fill="#FDFEFF"/>
<mask id="mask1" mask-type="alpha" maskUnits="userSpaceOnUse" x="181" y="76" width="13" height="12">
<path d="M193.265 82.3992C193.252 85.4884 187.412 87.9702 187.412 87.9702C187.412 87.9702 181.594 85.4407 181.607 82.3514C181.62 79.2622 182.813 76.763 187.46 76.7804C192.363 76.8021 193.282 79.3099 193.265 82.3992Z" fill="#FDFEFF"/>
</mask>
<g mask="url(#mask1)">
<path fill-rule="evenodd" clip-rule="evenodd" d="M184.845 83.5406C185.841 82.8849 186.908 82.1473 187.525 81.6589L187.794 81.9991C187.161 82.5 186.081 83.2463 185.083 83.9031C184.09 84.5567 183.157 85.1366 182.824 85.2961L182.637 84.9049C182.937 84.7607 183.844 84.1995 184.845 83.5406Z" fill="#615A86"/>
<path fill-rule="evenodd" clip-rule="evenodd" d="M188.576 84.3688C190.232 83.2102 191.926 81.9724 192.545 81.4819L192.814 81.8221C192.184 82.321 190.482 83.5649 188.824 84.7244C187.995 85.3045 187.174 85.8651 186.501 86.3021C186.165 86.5205 185.865 86.7089 185.618 86.8538C185.376 86.9959 185.172 87.1045 185.034 87.1539L184.887 86.7456C184.982 86.7115 185.154 86.6228 185.398 86.4797C185.637 86.3395 185.931 86.1549 186.265 85.9382C186.931 85.5051 187.748 84.9476 188.576 84.3688Z" fill="#615A86"/>
<path fill-rule="evenodd" clip-rule="evenodd" d="M189.888 83.9031C188.891 83.2463 187.81 82.5 187.178 81.9991L187.447 81.6589C188.064 82.1473 189.131 82.8849 190.127 83.5406C191.128 84.1995 192.034 84.7607 192.335 84.9049L192.147 85.2961C191.815 85.1366 190.881 84.5567 189.888 83.9031Z" fill="#615A86"/>
<path fill-rule="evenodd" clip-rule="evenodd" d="M186.148 84.7271C184.49 83.5676 182.788 82.3236 182.158 81.8248L182.427 81.4846C183.046 81.975 184.74 83.2129 186.396 84.3715C187.224 84.9503 188.041 85.5078 188.707 85.9409C189.041 86.1576 189.335 86.3421 189.574 86.4824C189.818 86.6255 189.99 86.7142 190.085 86.7483L189.938 87.1566C189.8 87.1071 189.596 86.9986 189.354 86.8565C189.107 86.7116 188.807 86.5231 188.471 86.3048C187.798 85.8678 186.977 85.3072 186.148 84.7271Z" fill="#615A86"/>
</g>
<path opacity="0.3" d="M182.325 89.2979C181.414 90.0572 180.477 89.5105 179.565 88.7686C179.565 88.7686 176.98 86.5167 176.068 83.8267C176.133 84.5773 176.225 85.3322 176.333 86.0742C176.433 86.2043 176.533 86.3345 176.637 86.4603C177.925 88.0267 179.474 89.0767 179.474 89.0767C180.568 89.8533 181.475 90.1701 182.282 89.5453C182.59 89.3066 182.702 88.9942 182.707 88.6775C182.659 88.9074 182.542 89.1201 182.325 89.2979Z" fill="#615A86"/>
<path d="M180.01 84.2174C180.01 84.2174 182.084 87.0203 182.11 87.042C182.47 87.298 183.203 88.5693 182.327 89.3025C181.416 90.0618 180.479 89.5151 179.567 88.7732C179.567 88.7732 176.977 86.517 176.066 83.8269" fill="#7979BA"/>
<path d="M179.615 88.8339C179.615 88.8339 181.42 86.5516 182.105 87.0463C182.47 87.3109 183.22 88.6039 182.327 89.3458C181.402 90.1138 179.979 89.3458 179.615 88.8339Z" fill="#C6CED5"/>
<path opacity="0.3" d="M198.463 83.9487C197.552 86.6388 194.962 88.895 194.962 88.895C194.05 89.637 193.113 90.1837 192.202 89.4244C191.985 89.2465 191.868 89.0339 191.82 88.8126C191.825 89.1293 191.937 89.4374 192.245 89.6803C193.052 90.3008 193.959 89.9884 195.053 89.2117C195.053 89.2117 196.597 88.1617 197.89 86.5954C198.007 86.4522 198.125 86.3047 198.233 86.1572C198.333 85.4239 198.411 84.6863 198.463 83.9487C198.467 83.9487 198.463 83.9487 198.463 83.9487Z" fill="#615A86"/>
<path d="M194.521 84.3392C194.521 84.3392 192.447 87.1421 192.421 87.1638C192.061 87.4198 191.328 88.6911 192.204 89.4244C193.115 90.1836 194.052 89.637 194.964 88.895C194.964 88.895 197.554 86.6388 198.465 83.9487" fill="#7979BA"/>
<path d="M194.917 88.9569C194.917 88.9569 193.112 86.6747 192.427 87.1693C192.062 87.434 191.312 88.7269 192.206 89.4689C193.13 90.2412 194.553 89.4732 194.917 88.9569Z" fill="#C6CED5"/>
<path opacity="0.3" d="M197.673 80.7816C197.669 81.6277 193.135 84.8254 187.33 84.7994C181.529 84.7777 176.942 81.9227 176.947 81.0723C176.951 80.2262 181.364 80.8727 187.165 80.8988C192.97 80.9248 197.678 79.9355 197.673 80.7816Z" fill="#615A86"/>
<path d="M175.068 49.6392C176.943 48.0165 182.904 47.1314 187.286 47.1487C192.28 47.1661 197.86 48.4721 201.309 50.2163C208.902 47.3527 214.625 56.1822 214.951 57.8353C215.211 59.1457 211.584 60.0655 205.418 58.2605C205.418 58.2605 206.937 64.4173 207.024 67.819C207.141 72.3184 206.369 82.1372 187.108 82.1372C167.848 82.1372 166.811 73.095 166.803 67.5066C166.798 64.951 167.97 58.9287 168.495 56.5814C165.631 55.8395 163.392 47.9731 164.933 44.3936C165.722 42.5582 173.584 46.1855 175.068 49.6392Z" fill="#7879BA"/>
<path opacity="0.25" d="M214.951 58.0483C214.53 58.5733 209.658 59.0029 205.067 56.8421C204.065 56.3736 204.364 57.0591 205.462 58.4345C205.436 58.3174 205.418 58.2523 205.418 58.2523C211.237 59.9661 214.79 59.2415 214.951 58.0483Z" fill="#615A86"/>
<path opacity="0.25" d="M169.632 55.7904C165.289 53.9638 164.547 46.245 164.573 45.746C164.573 45.733 164.568 45.7243 164.56 45.72C163.9 49.6119 165.935 55.8772 168.469 56.5758C169.775 56.3458 170.309 56.0768 169.632 55.7904Z" fill="#615A86"/>
<path d="M187.048 61.3364C177.862 61.3364 172.417 64.686 172.417 70.9513C172.417 77.4683 178.344 79.1908 187.095 79.1951C195.847 79.1951 201.778 77.4856 201.778 70.96C201.778 64.3346 196.233 61.3408 187.048 61.3364Z" fill="#E2C080"/>
<path opacity="0.2" d="M173.229 67.2077L173.129 67.4984C181.395 64.6695 195.544 65.099 201.253 67.6242C199.375 63.7062 194.042 61.4804 186.953 61.4761C180.076 61.4761 175.194 63.5761 173.229 67.2077Z" fill="#615A86"/>
<path d="M173.334 66.9045L173.338 66.9089C180.866 64.7048 194.546 64.7091 200.937 66.987C199.059 63.1298 194.147 61.2597 187.062 61.2554C180.18 61.2597 175.299 63.3293 173.334 66.9045Z" fill="#D2D2D2"/>
<path d="M183.145 61.3216L187.108 65.2866L191.073 61.3239L187.11 57.3589L183.145 61.3216Z" fill="white"/>
<path opacity="0.23" d="M187.105 65.2858L191.07 61.3244L187.109 57.363L187.105 65.2858Z" fill="#A0A1C2"/>
<path opacity="0.9" d="M179.72 67.9936C179.551 68.7442 180.319 68.7138 181.018 68.6835C181.716 68.6531 182.567 69.0826 182.354 67.8808C182.267 67.4078 181.716 67.0347 181.065 67.0173C180.124 67.0173 179.803 67.6335 179.72 67.9936Z" fill="white"/>
<path opacity="0.9" d="M194.472 67.9115C194.693 68.6491 193.925 68.6708 193.222 68.6882C192.524 68.7055 191.704 69.1915 191.834 67.9809C191.886 67.5037 192.415 67.0958 193.062 67.0351C193.964 66.9396 194.364 67.5557 194.472 67.9115Z" fill="white"/>
<path d="M181.043 72.8711C181.814 72.8711 182.44 72.2456 182.44 71.474C182.44 70.7024 181.814 70.0769 181.043 70.0769C180.271 70.0769 179.646 70.7024 179.646 71.474C179.646 72.2456 180.271 72.8711 181.043 72.8711Z" fill="#2C376E"/>
<path d="M180.716 72.0181C180.818 72.0181 180.901 71.935 180.901 71.8326C180.901 71.7302 180.818 71.6472 180.716 71.6472C180.613 71.6472 180.53 71.7302 180.53 71.8326C180.53 71.935 180.613 72.0181 180.716 72.0181Z" fill="white"/>
<path d="M181.437 71.5538C181.682 71.5538 181.88 71.3557 181.88 71.1113C181.88 70.8668 181.682 70.6687 181.437 70.6687C181.193 70.6687 180.995 70.8668 180.995 71.1113C180.995 71.3557 181.193 71.5538 181.437 71.5538Z" fill="white"/>
<path d="M193.166 72.8694C193.937 72.8694 194.563 72.2439 194.563 71.4723C194.563 70.7007 193.937 70.0752 193.166 70.0752C192.394 70.0752 191.769 70.7007 191.769 71.4723C191.769 72.2439 192.394 72.8694 193.166 72.8694Z" fill="#2C376E"/>
<path d="M193.581 72.0173C193.683 72.0173 193.766 71.9343 193.766 71.8319C193.766 71.7295 193.683 71.6465 193.581 71.6465C193.479 71.6465 193.396 71.7295 193.396 71.8319C193.396 71.9343 193.479 72.0173 193.581 72.0173Z" fill="white"/>
<path d="M192.861 71.555C193.105 71.555 193.304 71.3569 193.304 71.1125C193.304 70.8681 193.105 70.6699 192.861 70.6699C192.617 70.6699 192.418 70.8681 192.418 71.1125C192.418 71.3569 192.617 71.555 192.861 71.555Z" fill="white"/>
<path d="M191.556 74.3138C191.556 76.0189 189.564 77.0256 187.108 77.0256C184.653 77.0256 182.661 76.0146 182.661 74.3094C182.661 72.6043 184.653 70.8514 187.108 70.8557C189.564 70.8557 191.556 72.6086 191.556 74.3138Z" fill="white"/>
<path d="M188.671 72.8809C188.671 73.445 187.972 73.9005 187.109 73.9005C186.245 73.9005 185.547 73.445 185.547 72.8809C185.547 72.3169 186.245 72.1997 187.109 72.1997C187.972 72.1997 188.671 72.3169 188.671 72.8809Z" fill="#2C376E"/>
<path opacity="0.8" d="M187.652 72.6944C187.652 72.8897 187.409 73.0502 187.109 73.0502C186.81 73.0502 186.567 72.8897 186.567 72.6944C186.567 72.4992 186.81 72.4558 187.109 72.4558C187.409 72.4558 187.652 72.4992 187.652 72.6944Z" fill="white"/>
<path d="M189.018 73.9822C188.901 73.9518 188.784 74.0169 188.753 74.1341C188.701 74.325 188.441 74.4985 188.141 74.5419C187.976 74.5679 187.582 74.5766 187.33 74.2208V73.3444C187.33 73.2229 187.235 73.1274 187.113 73.1274C186.992 73.1274 186.896 73.2229 186.896 73.3444V74.2208C186.644 74.5766 186.25 74.5679 186.085 74.5419C185.781 74.4985 185.525 74.325 185.469 74.1341C185.438 74.0169 185.317 73.9518 185.204 73.9822C185.087 74.0126 185.022 74.1341 185.052 74.2469C185.152 74.6113 185.542 74.902 186.024 74.9715C186.419 75.0279 186.822 74.9237 187.113 74.633C187.482 75.0105 187.929 75.0192 188.202 74.9715C188.684 74.8934 189.074 74.6113 189.174 74.2469C189.2 74.1297 189.131 74.0126 189.018 73.9822Z" fill="#2C376E"/>
</g>
<path d="M173 75.4714C173 74.6037 173.703 73.9004 174.571 73.9004H199.648C200.516 73.9004 201.219 74.6037 201.219 75.4714V89.4294C201.219 90.297 200.516 91.0004 199.648 91.0004H174.571C173.703 91.0004 173 90.297 173 89.4294V75.4714Z" fill="#B2B2B2"/>
<circle cx="187.11" cy="82.8118" r="2.22783" fill="#D9D9D9"/>
<path d="M121.641 370.517C121.641 371.037 121.487 371.547 121.197 371.98C120.908 372.413 120.497 372.75 120.016 372.95C119.534 373.149 119.005 373.201 118.494 373.1C117.983 372.998 117.514 372.747 117.146 372.379C116.778 372.011 116.527 371.541 116.425 371.031C116.324 370.52 116.376 369.99 116.575 369.509C116.775 369.028 117.112 368.617 117.545 368.328C117.978 368.038 118.487 367.884 119.008 367.884C119.354 367.884 119.696 367.952 120.016 368.084C120.335 368.217 120.625 368.411 120.87 368.655C121.114 368.9 121.308 369.19 121.44 369.509C121.573 369.829 121.641 370.171 121.641 370.517Z" fill="#E2BE97"/>
<path d="M152.459 370.517C152.459 371.037 152.304 371.547 152.015 371.98C151.726 372.413 151.315 372.75 150.833 372.95C150.352 373.149 149.823 373.201 149.312 373.1C148.801 372.998 148.332 372.747 147.964 372.379C147.595 372.011 147.345 371.541 147.243 371.031C147.141 370.52 147.194 369.99 147.393 369.509C147.592 369.028 147.93 368.617 148.363 368.328C148.796 368.038 149.305 367.884 149.826 367.884C150.524 367.884 151.194 368.161 151.688 368.655C152.181 369.149 152.459 369.818 152.459 370.517Z" fill="#E2BE97"/>
<path d="M134.535 381.154C123.685 381.153 116.854 390.46 116.854 394.78C116.854 399.1 125.695 399.765 134.535 399.765C143.375 399.765 152.216 399.1 152.216 394.78C152.216 390.46 145.384 381.154 134.535 381.154Z" fill="#319BD0"/>
<path d="M150.42 366.695C150.42 376.056 144.111 383.645 134.75 383.645C125.39 383.645 118.442 376.056 118.442 366.695C118.442 357.335 125.39 349.746 134.75 349.746C144.11 349.746 150.42 357.333 150.42 366.695Z" fill="#EAC39B"/>
<path d="M128.951 369.336C128.951 369.623 128.866 369.904 128.706 370.143C128.546 370.382 128.32 370.568 128.054 370.678C127.789 370.788 127.497 370.817 127.215 370.761C126.933 370.705 126.674 370.567 126.471 370.364C126.268 370.161 126.13 369.902 126.074 369.62C126.018 369.338 126.046 369.046 126.156 368.781C126.266 368.515 126.452 368.288 126.691 368.129C126.93 367.969 127.211 367.884 127.498 367.884C127.883 367.884 128.253 368.037 128.525 368.309C128.797 368.582 128.95 368.951 128.951 369.336Z" fill="#804C3F"/>
<path d="M143.156 369.336C143.156 369.623 143.071 369.904 142.912 370.143C142.752 370.382 142.525 370.568 142.26 370.678C141.994 370.788 141.702 370.817 141.42 370.761C141.139 370.705 140.88 370.567 140.677 370.364C140.473 370.16 140.335 369.902 140.279 369.62C140.223 369.338 140.252 369.046 140.362 368.78C140.472 368.515 140.658 368.288 140.897 368.129C141.136 367.969 141.417 367.884 141.704 367.884C142.089 367.884 142.458 368.037 142.731 368.309C143.003 368.582 143.156 368.951 143.156 369.336Z" fill="#804C3F"/>
<path d="M130.993 376.026C132.413 377.965 137.264 378.071 138.507 376.026" stroke="#804C3F" stroke-width="1.00631" stroke-linecap="round" stroke-linejoin="round"/>
<path d="M134.431 383.645H134.749C134.642 383.645 134.537 383.638 134.431 383.636V383.645Z" fill="#B52A22"/>
<path d="M135.533 371.969C135.561 372.25 135.479 372.53 135.302 372.751C135.126 372.972 134.871 373.115 134.591 373.15C134.324 373.089 134.085 372.939 133.913 372.724C133.742 372.51 133.649 372.243 133.649 371.969C133.649 371.695 133.742 371.428 133.913 371.214C134.085 370.999 134.324 370.849 134.591 370.788C134.871 370.823 135.126 370.966 135.302 371.187C135.479 371.407 135.561 371.688 135.533 371.969Z" fill="#D36744"/>
<path d="M126.805 348.845C122.677 350.038 115.259 355.793 118.059 366.696C120.056 363.148 124.89 358.808 128.31 358.297C127.455 360.691 128.37 363.041 129.602 364.572C132.509 362.521 135.245 362.008 138.836 362.521C142.428 363.034 147.215 363.376 148.412 362.349C148.241 365.192 149.885 365.244 150.48 366.696C151.505 364.472 152.003 352.945 144.308 349.696C136.613 346.447 129.729 346.226 127.55 343C126.106 345.586 126.78 347.644 126.805 348.845Z" fill="#FFD95C"/>
<path d="M120.257 383.927C120.257 382.672 121.274 381.655 122.528 381.655H146.977C148.232 381.655 149.249 382.672 149.249 383.927V396.564C149.249 397.819 148.232 398.836 146.977 398.836H122.528C121.274 398.836 120.257 397.819 120.257 396.564V383.927Z" fill="#B2B2B2"/>
<circle cx="134.216" cy="390.246" r="2.14754" fill="#D9D9D9"/>
<path d="M112.201 399.767C112.201 399.253 112.618 398.836 113.132 398.836H156.868C157.382 398.836 157.799 399.253 157.799 399.767C157.799 400.28 157.382 400.697 156.868 400.697H113.132C112.618 400.697 112.201 400.28 112.201 399.767Z" fill="#9E9E9E"/>
<path d="M234.675 340.973C234.9 340.73 235.217 340.591 235.55 340.591H256.275C256.597 340.591 256.906 340.722 257.131 340.954L261.086 345.041H230.914L234.675 340.973Z" fill="#B2B2B2"/>
<path d="M230.914 345.042H261.086V398.451C261.086 399.268 260.424 399.929 259.608 399.929H232.392C231.576 399.929 230.914 399.268 230.914 398.451V345.042Z" fill="#D3D3D3"/>
<path d="M233.657 393.99C233.657 393.173 234.318 392.512 235.135 392.512H256.865C257.681 392.512 258.343 393.173 258.343 393.99V395.484C258.343 396.3 257.681 396.962 256.865 396.962H235.135C234.318 396.962 233.657 396.3 233.657 395.484V393.99Z" fill="#B2B2B2"/>
<path d="M233.657 364.321C233.657 363.504 234.318 362.843 235.135 362.843H256.865C257.681 362.843 258.343 363.504 258.343 364.321V365.815C258.343 366.631 257.681 367.293 256.865 367.293H235.135C234.318 367.293 233.657 366.631 233.657 365.815V364.321Z" fill="#B2B2B2"/>
<circle cx="245.939" cy="372.367" r="2.9559" fill="#B2B2B2"/>
<path d="M233.657 386.573C233.657 385.756 234.318 385.095 235.135 385.095H256.865C257.681 385.095 258.343 385.756 258.343 386.573V388.067C258.343 388.883 257.681 389.545 256.865 389.545H235.135C234.318 389.545 233.657 388.883 233.657 388.067V386.573Z" fill="#B2B2B2"/>
<path d="M233.657 356.904C233.657 356.087 234.318 355.426 235.135 355.426H256.865C257.681 355.426 258.343 356.087 258.343 356.904V358.398C258.343 359.214 257.681 359.876 256.865 359.876H235.135C234.318 359.876 233.657 359.214 233.657 358.398V356.904Z" fill="#B2B2B2"/>
<path d="M233.657 379.155C233.657 378.338 234.318 377.677 235.135 377.677H256.865C257.681 377.677 258.343 378.338 258.343 379.155V380.649C258.343 381.465 257.681 382.127 256.865 382.127H235.135C234.318 382.127 233.657 381.465 233.657 380.649V379.155Z" fill="#B2B2B2"/>
<path d="M233.657 349.487C233.657 348.67 234.319 348.009 235.135 348.009H256.865C257.681 348.009 258.343 348.67 258.343 349.487V350.981C258.343 351.797 257.681 352.459 256.865 352.459H235.135C234.319 352.459 233.657 351.797 233.657 350.981V349.487Z" fill="#B2B2B2"/>
<defs>
<linearGradient id="paint0_linear" x1="187.5" y1="319.5" x2="187.5" y2="332.5" gradientUnits="userSpaceOnUse">
<stop stop-color="#E6E6E6"/>
<stop offset="1" stop-color="#DEDEDE"/>
</linearGradient>
</defs>
</svg>
