<svg width="375" height="416" viewBox="0 0 375 416" fill="none" xmlns="http://www.w3.org/2000/svg">
<rect width="375" height="416" fill="#FAFAFA"/>
<rect x="28.5" y="53.707" width="318" height="119" rx="2.5" fill="white" stroke="#D9D9D9"/>
<path d="M38.196 195.148C36.744 193.744 36.744 193.744 36.444 193.48C35.628 192.748 34.98 192.244 34.224 191.74C34.956 190.756 35.544 189.712 36.096 188.428C36.228 188.128 36.324 187.96 36.48 187.78L35.688 186.964C35.388 187.072 35.292 187.084 34.62 187.096L30.396 187.156C30.252 187.156 30.156 187.156 30.108 187.156C29.616 187.156 29.388 187.144 29.052 187.084L29.1 188.62C29.508 188.56 29.832 188.536 30.408 188.524C34.188 188.464 34.188 188.464 34.38 188.452L34.248 188.764C33.468 190.636 32.028 192.376 30.216 193.648C29.316 194.284 28.74 194.608 27.816 194.968C28.308 195.484 28.452 195.676 28.788 196.3C30.624 195.4 32.004 194.344 33.36 192.832C34.668 193.828 36.048 195.172 37.044 196.396L38.196 195.148ZM48.1435 189.676C48.5155 189.688 48.7795 189.688 48.9355 189.688C49.3555 189.688 49.3555 189.688 49.6675 189.724V188.248C49.1635 188.308 49.0195 188.32 48.1555 188.32C43.2595 188.32 43.2595 188.32 42.9115 188.332C43.0555 188.032 43.1755 187.768 43.2715 187.552C43.6315 186.712 43.6315 186.712 43.7275 186.52L42.1675 186.148C42.0715 186.676 41.9275 187.12 41.5675 187.864C40.9315 189.232 40.1395 190.264 39.0355 191.164C39.6115 191.476 39.8035 191.62 40.2595 192.112C41.1235 191.32 41.5555 190.792 42.2515 189.676H45.1315C45.0115 191.716 44.5075 192.952 43.4155 193.924C42.7075 194.548 42.0115 194.944 40.9795 195.304C41.4955 195.772 41.6755 196.012 41.9755 196.624C43.4635 195.94 44.3275 195.328 45.0955 194.428C46.0435 193.3 46.4875 192.028 46.6435 189.988C46.6555 189.796 46.6555 189.796 46.6675 189.676H48.1435ZM51.3715 192.232C51.8515 192.172 51.9835 192.172 53.3275 192.172H59.6995C61.0435 192.172 61.1755 192.172 61.6555 192.232V190.564C61.1275 190.636 60.8995 190.648 59.7115 190.648H53.3155C52.1275 190.648 51.8995 190.636 51.3715 190.564V192.232ZM64.9523 186.616C65.0003 186.94 65.0003 187.048 65.0003 187.708C65.0003 191.068 64.7243 192.616 63.8603 193.996C63.5003 194.572 63.2123 194.896 62.6243 195.376C63.1883 195.76 63.3683 195.94 63.8363 196.54C64.6283 195.76 65.0843 195.148 65.4923 194.32C66.1163 193.084 66.3803 191.728 66.4643 189.388C66.5363 187.036 66.5363 187.036 66.5843 186.7L64.9523 186.616ZM68.1323 186.532C68.1683 186.76 68.1803 187.024 68.1803 187.324V187.684L68.1203 194.452C68.1083 195.112 68.0963 195.376 68.0123 195.724L68.7803 196.54C68.9362 196.468 69.0323 196.42 69.2963 196.324C70.5443 195.832 71.1683 195.472 71.8523 194.884C72.6443 194.176 73.2683 193.276 73.7603 192.088C73.2083 191.656 73.0523 191.5 72.6323 190.96C72.3563 191.848 72.0083 192.508 71.4563 193.156C70.9403 193.768 70.4603 194.128 69.6203 194.524L69.6803 187.696C69.6923 187.108 69.7043 186.904 69.7643 186.556L68.1323 186.532ZM84.1038 186.82C83.7678 186.916 83.6598 186.928 82.9398 186.928H76.6758C75.8478 186.928 75.4758 186.904 75.0198 186.832V188.332C75.5118 188.272 75.8118 188.26 76.6518 188.26H82.9518C82.6758 188.836 82.3038 189.328 81.8118 189.784C81.3198 190.252 80.8638 190.528 80.0598 190.888C80.5998 191.296 80.7798 191.476 81.1398 191.98C81.7038 191.668 82.0998 191.404 82.5798 190.984C83.3118 190.36 84.0078 189.46 84.4278 188.572C84.7398 187.948 84.7398 187.936 84.9078 187.732L84.1038 186.82ZM78.4038 189.244C78.4518 189.496 78.4638 189.604 78.4638 189.964C78.4638 192.232 78.0798 193.264 76.8558 194.236C76.2678 194.704 75.7278 194.968 74.7558 195.256C75.2358 195.76 75.3918 195.976 75.7038 196.624C77.2038 196 78.0798 195.388 78.7998 194.464C79.6158 193.42 79.9398 192.268 79.9878 190.216C79.9998 189.484 79.9998 189.472 80.0358 189.244H78.4038ZM95.7438 187.984C95.4558 188.08 95.4558 188.08 94.5678 188.08H92.4078V187.048C92.4078 186.712 92.4318 186.388 92.4678 186.184H90.7998C90.8478 186.46 90.8598 186.676 90.8598 187.06V188.092H88.5078C87.8478 188.092 87.6318 188.08 87.2118 188.032C87.2478 188.356 87.2598 188.668 87.2598 189.172V190.912C87.2598 191.248 87.2358 191.62 87.1998 191.92H88.8078C88.7838 191.656 88.7718 191.332 88.7718 190.96V189.412H94.6278C94.3998 191.62 93.4878 193.144 91.7478 194.224C90.9918 194.692 90.3318 194.944 89.1918 195.22C89.7318 195.82 89.8758 196.036 90.1518 196.648C91.1958 196.288 91.8198 196.012 92.5398 195.568C93.9558 194.704 94.9158 193.636 95.5038 192.256C95.8758 191.404 96.0558 190.732 96.2598 189.352C96.3198 188.992 96.3318 188.92 96.4398 188.692L95.7438 187.984ZM102.5 196.54C102.464 196.144 102.452 195.832 102.452 195.208V192.04C102.452 191.704 102.44 191.56 102.404 191.224C102.5 191.284 102.536 191.296 102.812 191.428C104.816 192.352 106.064 193.036 107.06 193.72L107.9 192.304C105.98 191.224 104.096 190.348 102.452 189.772V187.54C102.452 186.796 102.452 186.64 102.5 186.28H100.856C100.904 186.604 100.928 186.916 100.928 187.504V195.196C100.928 195.832 100.916 196.156 100.856 196.54H102.5Z" fill="#212121"/>
<rect x="28.5" y="207.5" width="318" height="180.32" rx="2.5" fill="white" stroke="#D9D9D9"/>
<path fill-rule="evenodd" clip-rule="evenodd" d="M229.323 295.999C229.046 295.999 228.823 296.223 228.823 296.499L228.823 301.499C228.823 301.775 229.046 301.999 229.323 301.999L262.578 301.999C262.854 301.999 263.078 302.223 263.078 302.499L263.078 305.887C263.078 306.318 263.588 306.547 263.91 306.26L271.658 299.374C271.881 299.175 271.881 298.825 271.658 298.626L263.91 291.74C263.588 291.453 263.078 291.682 263.078 292.114L263.078 295.499C263.078 295.775 262.854 295.999 262.578 295.999L229.323 295.999Z" fill="#B4DCFF"/>
<path fill-rule="evenodd" clip-rule="evenodd" d="M227.651 280.808C227.414 280.949 227.336 281.256 227.477 281.493L230.03 285.792C230.171 286.029 230.478 286.108 230.715 285.966L265.106 265.538C265.343 265.397 265.421 265.09 265.28 264.853L262.727 260.554C262.586 260.317 262.279 260.238 262.042 260.379L227.651 280.808ZM271.19 258.001C271.484 258.058 271.663 258.359 271.572 258.644L268.428 268.521C268.297 268.932 267.742 268.996 267.522 268.625L260.488 256.783C260.267 256.412 260.589 255.955 261.012 256.037L271.19 258.001Z" fill="#B4DCFF"/>
<path fill-rule="evenodd" clip-rule="evenodd" d="M227.651 316.112C227.414 315.971 227.336 315.664 227.477 315.427L230.03 311.128C230.171 310.891 230.478 310.812 230.715 310.953L265.106 331.382C265.343 331.523 265.421 331.83 265.28 332.067L262.727 336.366C262.586 336.603 262.279 336.682 262.042 336.54L227.651 316.112ZM271.19 338.919C271.484 338.862 271.663 338.561 271.572 338.276L268.428 328.399C268.297 327.988 267.742 327.924 267.522 328.295L260.488 340.137C260.267 340.507 260.589 340.965 261.012 340.883L271.19 338.919Z" fill="#B4DCFF"/>
<path d="M280.078 229.763C280.078 228.614 281.009 227.683 282.158 227.683H298.797C299.946 227.683 300.877 228.614 300.877 229.763V265.814C300.877 266.963 299.946 267.894 298.797 267.894H282.158C281.009 267.894 280.078 266.963 280.078 265.814V229.763Z" fill="#B3B3B3"/>
<circle cx="290.478" cy="251.255" r="2.07992" fill="#D9D9D9"/>
<rect x="282.851" y="230.456" width="15.2527" height="3.46653" rx="0.693306" fill="#D9D9D9"/>
<rect x="282.851" y="236.696" width="15.2527" height="3.46653" rx="0.693306" fill="#D9D9D9"/>
<rect x="282.851" y="242.935" width="15.2527" height="3.46653" rx="0.693306" fill="#D9D9D9"/>
<rect x="282.851" y="256.108" width="15.2527" height="3.46653" rx="0.693306" fill="#D9D9D9"/>
<rect x="282.851" y="262.348" width="15.2527" height="3.46653" rx="0.693306" fill="#D9D9D9"/>
<path d="M280.078 279.974C280.078 278.826 281.009 277.895 282.158 277.895H298.797C299.946 277.895 300.877 278.826 300.877 279.974V316.026C300.877 317.175 299.946 318.106 298.797 318.106H282.158C281.009 318.106 280.078 317.175 280.078 316.026V279.974Z" fill="#B3B3B3"/>
<circle cx="290.478" cy="301.467" r="2.07992" fill="#D9D9D9"/>
<rect x="282.851" y="280.668" width="15.2527" height="3.46653" rx="0.693306" fill="#D9D9D9"/>
<rect x="282.851" y="286.908" width="15.2527" height="3.46653" rx="0.693306" fill="#D9D9D9"/>
<rect x="282.851" y="293.147" width="15.2527" height="3.46653" rx="0.693306" fill="#D9D9D9"/>
<rect x="282.851" y="306.32" width="15.2527" height="3.46653" rx="0.693306" fill="#D9D9D9"/>
<rect x="282.851" y="312.56" width="15.2527" height="3.46653" rx="0.693306" fill="#D9D9D9"/>
<path d="M280.078 330.185C280.078 329.037 281.009 328.105 282.158 328.105H298.797C299.946 328.105 300.877 329.037 300.877 330.185V366.237C300.877 367.386 299.946 368.317 298.797 368.317H282.158C281.009 368.317 280.078 367.386 280.078 366.237V330.185Z" fill="#B3B3B3"/>
<circle cx="290.478" cy="351.678" r="2.07992" fill="#D9D9D9"/>
<rect x="282.851" y="330.879" width="15.2527" height="3.46653" rx="0.693306" fill="#D9D9D9"/>
<rect x="282.851" y="337.119" width="15.2527" height="3.46653" rx="0.693306" fill="#D9D9D9"/>
<rect x="282.851" y="343.358" width="15.2527" height="3.46653" rx="0.693306" fill="#D9D9D9"/>
<rect x="282.851" y="356.531" width="15.2527" height="3.46653" rx="0.693306" fill="#D9D9D9"/>
<rect x="282.851" y="362.771" width="15.2527" height="3.46653" rx="0.693306" fill="#D9D9D9"/>
<path d="M194.681 337.42V338.11H195.971C195.941 337.88 195.931 337.61 195.931 337.24V331.52C195.931 331.15 195.941 330.95 195.961 330.69C195.731 330.71 195.551 330.72 195.121 330.72H189.441C189.041 330.72 188.831 330.71 188.591 330.69C188.621 330.96 188.631 331.15 188.631 331.53V337.26C188.631 337.64 188.621 337.88 188.591 338.12H189.881V337.42H194.681ZM194.681 336.28H189.881V331.85H194.681V336.28ZM197.681 334.86C198.081 334.81 198.191 334.81 199.311 334.81H204.621C205.741 334.81 205.851 334.81 206.251 334.86V333.47C205.811 333.53 205.621 333.54 204.631 333.54H199.301C198.311 333.54 198.121 333.53 197.681 333.47V334.86ZM210.521 338.45C210.491 338.16 210.481 337.88 210.481 337.34V334.7C210.481 334.47 210.471 334.3 210.441 334.02C210.521 334.07 210.551 334.08 210.781 334.19C212.201 334.83 213.621 335.6 214.321 336.1L215.021 334.92C213.441 334.03 211.641 333.19 210.481 332.81V330.95C210.481 330.36 210.491 330.17 210.521 329.9H209.151C209.191 330.14 209.201 330.34 209.211 330.92V337.33C209.211 337.9 209.191 338.17 209.151 338.45H210.521ZM212.571 330.77C213.011 331.25 213.291 331.65 213.621 332.26L214.321 331.89C213.981 331.27 213.711 330.89 213.271 330.42L212.571 330.77ZM215.511 331.24C215.201 330.67 214.921 330.29 214.471 329.83L213.801 330.18C214.191 330.61 214.521 331.08 214.821 331.63L215.511 331.24ZM185.191 345.51C185.191 345.57 185.191 345.62 185.191 345.65C185.191 345.87 185.161 346.21 185.101 346.62C184.941 347.88 184.591 349.12 184.161 350.05C183.741 350.97 183.331 351.58 182.731 352.18C183.211 352.44 183.401 352.59 183.871 353.04C185.211 351.5 185.991 349.53 186.411 346.66L186.441 346.42L186.491 346.13L186.511 345.96C186.521 345.88 186.531 345.87 186.561 345.76L185.191 345.51ZM188.161 345.75C188.211 345.9 188.241 346.06 188.301 346.47C188.691 349.16 189.621 351.46 190.951 353.05C191.331 352.62 191.541 352.45 192.051 352.13C191.011 351.01 190.311 349.66 189.821 347.81C189.591 346.95 189.411 345.97 189.401 345.51L188.161 345.75ZM189.501 345.13C189.881 345.69 190.091 346.12 190.321 346.76L191.081 346.52C190.841 345.85 190.621 345.43 190.251 344.91L189.501 345.13ZM192.391 346.12C192.171 345.52 191.951 345.1 191.571 344.57L190.831 344.78C191.151 345.24 191.401 345.74 191.631 346.36L192.391 346.12ZM194.141 346.37C194.451 346.33 194.641 346.32 195.291 346.32H198.821C199.471 346.32 199.661 346.33 199.971 346.37V345.14C199.641 345.2 199.431 345.21 198.801 345.21H195.311C194.681 345.21 194.471 345.2 194.141 345.14V346.37ZM200.481 347.53C200.171 347.6 199.971 347.62 199.351 347.62H194.591C193.891 347.62 193.671 347.61 193.291 347.55V348.77C193.651 348.73 193.901 348.72 194.571 348.72H199.441C199.001 349.83 198.571 350.44 197.831 351.06C197.061 351.7 196.271 352.07 195.051 352.38C195.491 352.87 195.611 353.04 195.831 353.54C197.091 353.07 197.741 352.73 198.451 352.18C199.491 351.38 200.251 350.27 200.771 348.8C200.891 348.49 200.951 348.35 201.051 348.17L200.481 347.53ZM203.041 346.58C203.971 347.1 204.791 347.76 205.591 348.61L206.451 347.52C205.681 346.79 205.061 346.33 203.871 345.59L203.041 346.58ZM203.391 353.18C203.621 353.1 203.651 353.09 204.051 353.01C205.601 352.68 206.841 352.19 207.861 351.51C209.231 350.6 210.181 349.42 211.031 347.59C210.521 347.23 210.361 347.08 209.971 346.61C209.671 347.42 209.391 347.97 208.951 348.61C208.161 349.75 207.231 350.52 205.981 351.06C205.071 351.46 203.881 351.75 203.021 351.8L203.391 353.18ZM215.211 346.84V345.81C215.211 345.3 215.211 345.28 215.251 344.95H213.941C213.981 345.21 213.991 345.42 213.991 345.84V346.84H213.401C212.691 346.84 212.491 346.83 212.101 346.77V347.99C212.451 347.95 212.721 347.94 213.381 347.94H213.991V349.42C213.991 349.79 213.981 350.06 213.951 350.28H215.251C215.221 350.02 215.211 349.86 215.211 349.44V347.94H217.801C217.781 348.63 217.781 348.87 217.761 349.1C217.671 350.25 217.381 350.91 216.701 351.5C216.221 351.92 215.741 352.16 214.791 352.45C215.221 352.89 215.351 353.08 215.541 353.51C216.461 353.18 216.951 352.92 217.491 352.46C218.361 351.72 218.791 350.87 218.931 349.59C218.981 349.21 218.981 349.14 219.001 347.94H219.671C220.331 347.94 220.601 347.95 220.951 347.99V346.77C220.561 346.83 220.361 346.84 219.651 346.84H219.011C219.021 346.24 219.021 346.24 219.021 345.63C219.021 345.24 219.031 345.19 219.061 344.96H217.771C217.811 345.19 217.821 345.41 217.821 346.07V346.39L217.811 346.84H215.211Z" fill="#212121"/>
<path d="M185.376 280.184C185.376 278.978 186.354 278 187.56 278H216.587C217.794 278 218.771 278.978 218.771 280.184V317.816C218.771 319.022 217.794 320 216.587 320H187.56C186.354 320 185.376 319.022 185.376 317.816V280.184Z" fill="#B2B2B2"/>
<rect x="189.483" y="294.8" width="8.4" height="8.4" rx="1" fill="#E7E7E7"/>
<rect x="206.171" y="282.2" width="8.4" height="8.4" rx="1" fill="#E7E7E7"/>
<rect x="206.171" y="294.8" width="8.4" height="8.4" rx="1" fill="#E7E7E7"/>
<rect x="206.171" y="307.4" width="8.4" height="8.4" rx="1" fill="#E7E7E7"/>
<path d="M206.171 299H199.346H197.771" stroke="#E7E7E7" stroke-width="2.1"/>
<path d="M211.568 285.387L200.823 296.448L198.343 299" stroke="#E7E7E7" stroke-width="2.1"/>
<path d="M198.343 299L209.088 310.177L211.568 312.757" stroke="#E7E7E7" stroke-width="2.1"/>
<path d="M38.196 36.148C36.744 34.744 36.744 34.744 36.444 34.48C35.628 33.748 34.98 33.244 34.224 32.74C34.956 31.756 35.544 30.712 36.096 29.428C36.228 29.128 36.324 28.96 36.48 28.78L35.688 27.964C35.388 28.072 35.292 28.084 34.62 28.096L30.396 28.156C30.252 28.156 30.156 28.156 30.108 28.156C29.616 28.156 29.388 28.144 29.052 28.084L29.1 29.62C29.508 29.56 29.832 29.536 30.408 29.524C34.188 29.464 34.188 29.464 34.38 29.452L34.248 29.764C33.468 31.636 32.028 33.376 30.216 34.648C29.316 35.284 28.74 35.608 27.816 35.968C28.308 36.484 28.452 36.676 28.788 37.3C30.624 36.4 32.004 35.344 33.36 33.832C34.668 34.828 36.048 36.172 37.044 37.396L38.196 36.148ZM48.1435 30.676C48.5155 30.688 48.7795 30.688 48.9355 30.688C49.3555 30.688 49.3555 30.688 49.6675 30.724V29.248C49.1635 29.308 49.0195 29.32 48.1555 29.32C43.2595 29.32 43.2595 29.32 42.9115 29.332C43.0555 29.032 43.1755 28.768 43.2715 28.552C43.6315 27.712 43.6315 27.712 43.7275 27.52L42.1675 27.148C42.0715 27.676 41.9275 28.12 41.5675 28.864C40.9315 30.232 40.1395 31.264 39.0355 32.164C39.6115 32.476 39.8035 32.62 40.2595 33.112C41.1235 32.32 41.5555 31.792 42.2515 30.676H45.1315C45.0115 32.716 44.5075 33.952 43.4155 34.924C42.7075 35.548 42.0115 35.944 40.9795 36.304C41.4955 36.772 41.6755 37.012 41.9755 37.624C43.4635 36.94 44.3275 36.328 45.0955 35.428C46.0435 34.3 46.4875 33.028 46.6435 30.988C46.6555 30.796 46.6555 30.796 46.6675 30.676H48.1435ZM51.3715 33.232C51.8515 33.172 51.9835 33.172 53.3275 33.172H59.6995C61.0435 33.172 61.1755 33.172 61.6555 33.232V31.564C61.1275 31.636 60.8995 31.648 59.7115 31.648H53.3155C52.1275 31.648 51.8995 31.636 51.3715 31.564V33.232ZM64.9523 27.616C65.0003 27.94 65.0003 28.048 65.0003 28.708C65.0003 32.068 64.7243 33.616 63.8603 34.996C63.5003 35.572 63.2123 35.896 62.6243 36.376C63.1883 36.76 63.3683 36.94 63.8363 37.54C64.6283 36.76 65.0843 36.148 65.4923 35.32C66.1163 34.084 66.3803 32.728 66.4643 30.388C66.5363 28.036 66.5363 28.036 66.5843 27.7L64.9523 27.616ZM68.1323 27.532C68.1683 27.76 68.1803 28.024 68.1803 28.324V28.684L68.1203 35.452C68.1083 36.112 68.0963 36.376 68.0123 36.724L68.7803 37.54C68.9362 37.468 69.0323 37.42 69.2963 37.324C70.5443 36.832 71.1683 36.472 71.8523 35.884C72.6443 35.176 73.2683 34.276 73.7603 33.088C73.2083 32.656 73.0523 32.5 72.6323 31.96C72.3563 32.848 72.0083 33.508 71.4563 34.156C70.9403 34.768 70.4603 35.128 69.6203 35.524L69.6803 28.696C69.6923 28.108 69.7043 27.904 69.7643 27.556L68.1323 27.532ZM84.1038 27.82C83.7678 27.916 83.6598 27.928 82.9398 27.928H76.6758C75.8478 27.928 75.4758 27.904 75.0198 27.832V29.332C75.5118 29.272 75.8118 29.26 76.6518 29.26H82.9518C82.6758 29.836 82.3038 30.328 81.8118 30.784C81.3198 31.252 80.8638 31.528 80.0598 31.888C80.5998 32.296 80.7798 32.476 81.1398 32.98C81.7038 32.668 82.0998 32.404 82.5798 31.984C83.3118 31.36 84.0078 30.46 84.4278 29.572C84.7398 28.948 84.7398 28.936 84.9078 28.732L84.1038 27.82ZM78.4038 30.244C78.4518 30.496 78.4638 30.604 78.4638 30.964C78.4638 33.232 78.0798 34.264 76.8558 35.236C76.2678 35.704 75.7278 35.968 74.7558 36.256C75.2358 36.76 75.3918 36.976 75.7038 37.624C77.2038 37 78.0798 36.388 78.7998 35.464C79.6158 34.42 79.9398 33.268 79.9878 31.216C79.9998 30.484 79.9998 30.472 80.0358 30.244H78.4038ZM87.5958 30.472C88.1358 31.528 88.3758 32.164 88.6878 33.376L90.0438 32.944C89.6118 31.6 89.3718 31.024 88.8678 30.1L87.5958 30.472ZM90.1638 29.968C90.6678 30.952 91.0278 31.876 91.2558 32.788L92.5878 32.368C92.2878 31.324 92.0598 30.796 91.4238 29.608L90.1638 29.968ZM94.2918 29.848C94.2918 30.22 94.2318 30.64 94.0758 31.228C93.5598 33.148 92.7558 34.372 91.3518 35.392C90.6438 35.908 90.1518 36.172 89.3118 36.496C89.8158 36.976 89.9598 37.156 90.2718 37.684C92.0478 36.784 93.0438 36.004 93.9318 34.792C94.6998 33.748 95.2398 32.428 95.5878 30.796C95.6598 30.424 95.6838 30.364 95.7558 30.184L94.2918 29.848ZM100.52 28.276C99.7038 28.276 99.4158 28.264 98.9838 28.192V29.752C99.3798 29.692 99.6078 29.68 100.496 29.68H106.208C105.44 32.872 103.268 35.104 99.9438 36.136C100.484 36.664 100.688 36.94 101 37.564C104.792 35.98 106.916 33.532 107.888 29.608C107.972 29.62 108.044 29.632 108.116 29.632C108.884 29.632 109.508 29.008 109.508 28.24C109.508 27.484 108.884 26.86 108.116 26.86C107.348 26.86 106.748 27.472 106.736 28.252C106.532 28.264 106.388 28.276 106.028 28.276H100.52ZM108.116 27.46C108.56 27.46 108.908 27.808 108.908 28.24C108.908 28.672 108.56 29.032 108.116 29.032C107.684 29.032 107.336 28.672 107.336 28.24C107.336 27.808 107.684 27.46 108.116 27.46Z" fill="#212121"/>
<path fill-rule="evenodd" clip-rule="evenodd" d="M139 99.4097C138.448 99.4097 138 99.8574 138 100.41L138 113.591C138 114.143 138.448 114.591 139 114.591L155.977 114.591C156.529 114.591 156.977 115.039 156.977 115.591L156.977 121.725C156.977 122.607 158.036 123.057 158.671 122.445L173.941 107.72C174.349 107.326 174.349 106.673 173.941 106.28L158.671 91.5547C158.036 90.9423 156.977 91.3923 156.977 92.2745L156.977 98.4097C156.977 98.962 156.529 99.4097 155.977 99.4097L139 99.4097Z" fill="#B4DCFF"/>
<path fill-rule="evenodd" clip-rule="evenodd" d="M139 292.41C138.448 292.41 138 292.858 138 293.41L138 306.591C138 307.143 138.448 307.591 139 307.591L155.977 307.591C156.529 307.591 156.977 308.039 156.977 308.591L156.977 314.725C156.977 315.607 158.036 316.057 158.671 315.445L173.941 300.72C174.349 300.327 174.349 299.673 173.941 299.28L158.671 284.555C158.036 283.943 156.977 284.393 156.977 285.275L156.977 291.41C156.977 291.962 156.529 292.41 155.977 292.41L139 292.41Z" fill="#B4DCFF"/>
<path d="M185.451 107.57L246.971 77.6384L249.006 147L203.078 147L185.451 107.57Z" fill="#F2F2F2"/>
<path d="M245.787 79.9883C245.787 78.3314 247.13 76.9883 248.787 76.9883H279C280.657 76.9883 282 78.3314 282 79.9883V144C282 145.657 280.657 147 279 147H248.787C247.13 147 245.787 145.657 245.787 144V79.9883Z" fill="#B3B3B3"/>
<circle cx="263.894" cy="118.03" r="3.6213" fill="#D9D9D9"/>
<rect x="250.616" y="81.8179" width="26.5562" height="6.03549" rx="1" fill="#D9D9D9"/>
<rect x="250.616" y="92.6809" width="26.5562" height="6.03549" rx="1" fill="#D9D9D9"/>
<rect x="250.616" y="103.544" width="26.5562" height="6.03549" rx="1" fill="#D9D9D9"/>
<rect x="250.616" y="126.48" width="26.5562" height="6.03549" rx="1" fill="#D9D9D9"/>
<rect x="250.616" y="137.343" width="26.5562" height="6.03549" rx="1" fill="#D9D9D9"/>
<path d="M184.959 109.069C184.959 107.926 185.886 107 187.028 107H203.58C204.723 107 205.649 107.926 205.649 109.069V144.931C205.649 146.074 204.723 147 203.58 147H187.028C185.886 147 184.959 146.074 184.959 144.931V109.069Z" fill="#B3B3B3"/>
<circle cx="195.305" cy="130.448" r="2.06897" fill="#D9D9D9"/>
<rect x="187.718" y="109.759" width="15.1724" height="3.44828" rx="0.689655" fill="#D9D9D9"/>
<rect x="187.718" y="115.966" width="15.1724" height="3.44828" rx="0.689655" fill="#D9D9D9"/>
<rect x="187.718" y="122.172" width="15.1724" height="3.44828" rx="0.689655" fill="#D9D9D9"/>
<rect x="187.718" y="135.276" width="15.1724" height="3.44828" rx="0.689655" fill="#D9D9D9"/>
<rect x="187.718" y="141.483" width="15.1724" height="3.44828" rx="0.689655" fill="#D9D9D9"/>
<path d="M291.473 144.265L291.473 129.918C291.473 129.918 299.987 127.852 308.5 129.918C317.013 131.984 325.527 129.918 325.527 129.918L325.527 144.265L291.473 144.265Z" fill="#B4DCFF"/>
<path d="M292.51 98H291C290.448 98 290 98.4477 290 99V146C290 146.552 290.448 147 291 147H326C326.552 147 327 146.552 327 146V99C327 98.4477 326.552 98 326 98H324.514C323.961 98 323.514 98.4477 323.514 99V143.497L293.51 143.497V99C293.51 98.4477 293.063 98 292.51 98Z" fill="#739CBF"/>
<path d="M309.877 267.232L309.877 258.682C309.877 258.682 313.877 257.445 317.877 258.682C321.877 259.92 325.877 258.682 325.877 258.682L325.877 267.232L309.877 267.232Z" fill="#B4DCFF"/>
<path d="M310.635 243.232H309.857C309.316 243.232 308.877 243.671 308.877 244.212V266.253C308.877 266.794 309.316 267.232 309.857 267.232H326.02C326.561 267.232 327 266.794 327 266.253V244.212C327 243.671 326.561 243.232 326.02 243.232H325.242C324.701 243.232 324.262 243.671 324.262 244.212V264.42H311.615V244.212C311.615 243.671 311.176 243.232 310.635 243.232Z" fill="#739CBF"/>
<path d="M309.877 317.682L309.877 309.133C309.877 309.133 313.877 307.895 317.877 309.133C321.877 310.37 325.877 309.133 325.877 309.133L325.877 317.682L309.877 317.682Z" fill="#B4DCFF"/>
<path d="M310.635 293.682H309.857C309.316 293.682 308.877 294.121 308.877 294.662V316.703C308.877 317.244 309.316 317.682 309.857 317.682H326.02C326.561 317.682 327 317.244 327 316.703V294.662C327 294.121 326.561 293.682 326.02 293.682H325.242C324.701 293.682 324.262 294.121 324.262 294.662V314.87H311.615V294.662C311.615 294.121 311.176 293.682 310.635 293.682Z" fill="#739CBF"/>
<path d="M309.877 367.682L309.877 359.132C309.877 359.132 313.877 357.895 317.877 359.132C321.877 360.37 325.877 359.132 325.877 359.132L325.877 367.682L309.877 367.682Z" fill="#B4DCFF"/>
<path d="M310.635 343.682H309.857C309.316 343.682 308.877 344.121 308.877 344.662V366.703C308.877 367.244 309.316 367.682 309.857 367.682H326.02C326.561 367.682 327 367.244 327 366.703V344.662C327 344.121 326.561 343.682 326.02 343.682H325.242C324.701 343.682 324.262 344.121 324.262 344.662V364.87H311.615V344.662C311.615 344.121 311.176 343.682 310.635 343.682Z" fill="#739CBF"/>
<path d="M214.649 147L214.649 123C214.649 123 218.649 121.762 222.649 123C226.649 124.237 230.649 123 230.649 123L230.649 147L214.649 147Z" fill="#B4DCFF"/>
<path d="M215.093 123L214.087 123C213.534 123 213.087 123.448 213.087 124V146C213.087 146.552 213.534 147 214.087 147H230.895C231.447 147 231.895 146.552 231.895 146V124C231.895 123.448 231.447 123 230.895 123H230.034C229.482 123 229.034 123.448 229.034 124V144.046L216.093 144.046V124C216.093 123.448 215.645 123 215.093 123Z" fill="#739CBF"/>
<path d="M219.431 119.36C219.563 119.592 219.319 119.84 219.069 119.743C215.747 118.447 215.013 120.075 213.48 120.022C212.136 119.975 211.129 119.128 211.176 117.784C211.223 116.44 212.35 115.389 213.694 115.435C214.936 115.479 217.917 116.699 219.431 119.36Z" fill="#A6D6FF"/>
<path d="M223.496 119.856C223.447 120.043 223.196 120.047 223.116 119.871C222.053 117.524 220.851 117.995 220.086 117.193C219.415 116.49 219.322 115.543 220.025 114.872C220.728 114.201 221.842 114.227 222.513 114.93C223.133 115.58 224.057 117.716 223.496 119.856Z" fill="#A6D6FF"/>
<mask id="mask0" mask-type="alpha" maskUnits="userSpaceOnUse" x="75" y="71" width="26" height="36">
<rect width="25.1748" height="34.6192" transform="matrix(-1 0 0 1 100.587 71.3901)" fill="#C4C4C4"/>
</mask>
<g mask="url(#mask0)">
<path d="M87.03 94.4705C93.4631 94.4703 97.5135 101.092 97.5135 104.166C97.5135 107.24 92.2718 107.713 87.03 107.713C81.7882 107.713 76.5465 107.24 76.5465 104.166C76.5465 101.092 80.5969 94.4706 87.03 94.4705Z" fill="#319BD0"/>
<path d="M83.2778 104.087C81.9956 104.147 79.2389 104.808 78.4696 106.972" stroke="#1A8AC1" stroke-width="3.86236" stroke-linecap="round"/>
<path d="M82.3161 103.25C82.3161 103.578 82.4131 103.898 82.595 104.17C82.7768 104.442 83.0354 104.654 83.3378 104.78C83.6403 104.905 83.9732 104.938 84.2943 104.874C84.6154 104.81 84.9104 104.652 85.1419 104.421C85.3734 104.189 85.5311 103.895 85.5949 103.573C85.6588 103.252 85.626 102.919 85.5007 102.617C85.3753 102.314 85.1631 102.056 84.8909 101.874C84.6186 101.692 84.2986 101.595 83.9711 101.595C83.5322 101.595 83.1112 101.77 82.8009 102.08C82.4905 102.39 82.3161 102.811 82.3161 103.25Z" fill="#F6D5B3"/>
<path d="M94.1743 88.5993C94.1743 88.8704 94.2546 89.1354 94.4052 89.3608C94.5558 89.5863 94.7698 89.762 95.0203 89.8657C95.2707 89.9695 95.5463 89.9966 95.8122 89.9438C96.0781 89.8909 96.3223 89.7604 96.514 89.5687C96.7057 89.377 96.8362 89.1328 96.8891 88.8669C96.942 88.601 96.9148 88.3254 96.811 88.075C96.7073 87.8245 96.5316 87.6105 96.3062 87.4599C96.0807 87.3093 95.8157 87.229 95.5446 87.229C95.3647 87.229 95.1865 87.2644 95.0202 87.3333C94.854 87.4022 94.7029 87.5031 94.5757 87.6304C94.4484 87.7576 94.3475 87.9087 94.2786 88.0749C94.2098 88.2412 94.1743 88.4194 94.1743 88.5993Z" fill="#F6D5B3"/>
<path d="M78.1332 88.5993C78.1331 88.8704 78.2135 89.1354 78.3641 89.3608C78.5146 89.5863 78.7287 89.762 78.9791 89.8657C79.2296 89.9695 79.5052 89.9966 79.771 89.9438C80.0369 89.8909 80.2812 89.7604 80.4728 89.5687C80.6645 89.377 80.7951 89.1328 80.8479 88.8669C80.9008 88.601 80.8737 88.3254 80.7699 88.075C80.6661 87.8245 80.4904 87.6105 80.265 87.4599C80.0396 87.3093 79.7746 87.229 79.5035 87.229C79.1401 87.229 78.7915 87.3734 78.5345 87.6304C78.2775 87.8874 78.1332 88.2359 78.1332 88.5993Z" fill="#F6D5B3"/>
<path d="M79.194 86.6099C79.194 91.4821 82.478 95.4324 87.3503 95.4324C92.2225 95.4324 95.8391 91.4821 95.8391 86.6099C95.8391 81.7376 92.2223 77.7874 87.3503 77.7874C82.4782 77.7874 79.194 81.737 79.194 86.6099Z" fill="#F6D5B3"/>
<path d="M90.3693 87.9848C90.3692 88.1344 90.4136 88.2805 90.4966 88.4049C90.5796 88.5293 90.6977 88.6262 90.8358 88.6834C90.974 88.7407 91.126 88.7557 91.2727 88.7266C91.4193 88.6974 91.5541 88.6254 91.6598 88.5197C91.7656 88.414 91.8376 88.2793 91.8668 88.1326C91.896 87.9859 91.881 87.8339 91.8238 87.6958C91.7666 87.5576 91.6697 87.4395 91.5454 87.3564C91.421 87.2733 91.2749 87.229 91.1253 87.229C90.9248 87.229 90.7326 87.3086 90.5908 87.4504C90.449 87.5921 90.3693 87.7843 90.3693 87.9848Z" fill="#804C3F"/>
<path d="M82.9749 87.9848C82.9748 88.1344 83.0191 88.2806 83.1022 88.4049C83.1853 88.5293 83.3033 88.6262 83.4415 88.6835C83.5796 88.7407 83.7317 88.7557 83.8784 88.7265C84.025 88.6974 84.1598 88.6254 84.2655 88.5196C84.3712 88.4139 84.4433 88.2791 84.4724 88.1325C84.5016 87.9858 84.4866 87.8338 84.4293 87.6956C84.3721 87.5575 84.2752 87.4394 84.1508 87.3563C84.0264 87.2733 83.8802 87.229 83.7307 87.229C83.5303 87.2291 83.338 87.3087 83.1963 87.4504C83.0546 87.5922 82.9749 87.7844 82.9749 87.9848Z" fill="#804C3F"/>
<path d="M87.515 97.7326H87.3205C87.3858 97.7326 87.4502 97.7288 87.515 97.7275V97.7326Z" fill="#B52A22"/>
<path d="M85.4003 91.5179C86.1411 92.5202 88.6684 92.542 89.3003 91.4744" stroke="#804C3F" stroke-width="0.53" stroke-miterlimit="10" stroke-linecap="round" stroke-linejoin="round"/>
<path d="M87.2571 90.0146C87.5218 90.0124 87.7341 89.7374 87.7313 89.4005C87.7284 89.0636 87.5115 88.7923 87.2468 88.7945C86.9821 88.7968 86.7698 89.0717 86.7726 89.4086C86.7755 89.7456 86.9924 90.0169 87.2571 90.0146Z" fill="#D36744"/>
<path d="M91.4863 77.3186C93.6349 77.9394 97.4961 80.9349 96.0384 86.6102C94.9993 84.7633 92.483 82.5046 90.703 82.2384C91.148 83.4845 90.6717 84.7079 90.0301 85.505C88.517 84.4371 87.0929 84.17 85.2236 84.4371C83.3543 84.7042 80.8626 84.8821 80.2393 84.3478C80.3282 85.8273 79.4726 85.8546 79.1632 86.6102C78.6292 85.4528 78.3702 79.4526 82.3755 77.7615C86.3808 76.0703 89.9642 75.9552 91.0982 74.2761C91.8501 75.6222 91.4994 76.6934 91.4863 77.3186Z" fill="#97735B"/>
<path d="M99.6257 96.2992C99.6257 95.8205 99.2376 95.4324 98.7589 95.4324H85.1062C84.6275 95.4324 84.2394 95.8205 84.2394 96.2992V104.182C84.2394 104.661 84.6275 105.049 85.1062 105.049H98.7589C99.2376 105.049 99.6257 104.661 99.6257 104.182V96.2992Z" fill="#CBCBCB"/>
<path d="M99.6257 104.567C99.6257 104.302 99.4105 104.087 99.1449 104.087H79.912C79.6465 104.087 79.4312 104.302 79.4312 104.567C79.4312 104.833 79.6465 105.048 79.912 105.048H99.1449C99.4105 105.048 99.6257 104.833 99.6257 104.567Z" fill="#CBCBCB"/>
<rect width="25.1748" height="0.961645" rx="0.480822" transform="matrix(-1 0 0 1 100.588 105.048)" fill="#9E9E9E"/>
<circle r="1.28106" transform="matrix(-1 0 0 1 92.2521 100.56)" fill="#E7E7E7"/>
</g>
<mask id="mask1" mask-type="alpha" maskUnits="userSpaceOnUse" x="61" y="89" width="26" height="36">
<rect width="25.1748" height="34.6192" transform="matrix(-1 0 0 1 86.881 89.6907)" fill="#C4C4C4"/>
</mask>
<g mask="url(#mask1)">
<path d="M73.3235 112.77C79.7565 112.77 83.807 119.392 83.807 122.466C83.807 125.54 78.5652 126.013 73.3235 126.013C68.0817 126.013 62.8399 125.54 62.8399 122.466C62.8399 119.392 66.8904 112.77 73.3235 112.77Z" fill="#319BD0"/>
<path d="M69.5713 122.387C68.2891 122.447 65.5324 123.108 64.7631 125.272" stroke="#1A8AC1" stroke-width="3.86236" stroke-linecap="round"/>
<path d="M68.6096 121.551C68.6095 121.878 68.7066 122.198 68.8884 122.47C69.0703 122.743 69.3288 122.955 69.6313 123.08C69.9338 123.205 70.2666 123.238 70.5877 123.174C70.9089 123.11 71.2038 122.953 71.4353 122.721C71.6669 122.49 71.8245 122.195 71.8884 121.874C71.9522 121.553 71.9194 121.22 71.7941 120.917C71.6688 120.615 71.4566 120.356 71.1843 120.174C70.9121 119.992 70.592 119.895 70.2646 119.896C69.8257 119.896 69.4047 120.07 69.0943 120.38C68.7839 120.691 68.6096 121.112 68.6096 121.551Z" fill="#F6D5B3"/>
<path d="M65.4876 104.911C65.4876 109.783 68.7716 113.733 73.6439 113.733C78.5161 113.733 82.1327 109.783 82.1327 104.911C82.1327 100.038 78.5159 96.0881 73.6439 96.0881C68.7718 96.0881 65.4876 100.038 65.4876 104.911Z" fill="#F6D5B3"/>
<path d="M65.9438 105.69C65.9438 104.39 67.7438 103.49 67.7438 103.49C67.7438 103.49 67.9438 104.49 68.3438 105.19C71.0438 102.39 72.8438 102.39 77.2438 101.39C77.2438 101.69 77.4438 101.99 76.8438 102.89C77.6438 102.89 78.6438 102.69 79.4438 101.69C80.0438 102.29 81.6438 103.79 81.4438 107.69C82.6438 106.29 82.2438 107.19 82.2438 106.39C82.4438 104.39 82.4438 103.59 81.8438 101.39C81.8438 101.39 82.4438 101.49 83.1438 101.49C81.6438 100.29 81.9438 99.1904 80.1438 97.2904C79.1438 96.1904 77.9438 95.3904 76.6438 94.7904C75.1438 94.1904 74.2438 93.9904 72.9438 93.3904C73.1438 93.9904 73.2438 94.4904 73.6438 94.7904C70.4438 94.9904 69.6438 95.3904 68.4438 96.0904C67.6438 96.5904 66.0438 98.1904 65.1438 98.4904C65.3438 98.5904 65.5438 98.9904 66.7438 98.5904C65.6438 99.7904 64.2438 102.99 64.8438 105.59C65.0438 106.69 65.2438 106.99 66.1438 108.29C65.8438 106.89 65.9438 106.99 65.9438 105.69Z" fill="#CCB794"/>
<path d="M80.4678 106.898C80.4677 107.169 80.5481 107.435 80.6987 107.66C80.8492 107.885 81.0633 108.061 81.3137 108.165C81.5642 108.269 81.8398 108.296 82.1056 108.243C82.3715 108.19 82.6158 108.059 82.8074 107.868C82.9991 107.676 83.1297 107.432 83.1825 107.166C83.2354 106.9 83.2083 106.624 83.1045 106.374C83.0007 106.124 82.825 105.91 82.5996 105.759C82.3742 105.608 82.1092 105.528 81.8381 105.528C81.6581 105.528 81.48 105.564 81.3137 105.632C81.1474 105.701 80.9964 105.802 80.8691 105.929C80.7419 106.057 80.6409 106.208 80.5721 106.374C80.5032 106.54 80.4678 106.718 80.4678 106.898Z" fill="#F6D5B3"/>
<path d="M64.4268 106.898C64.4267 107.169 64.5071 107.435 64.6576 107.66C64.8082 107.885 65.0223 108.061 65.2727 108.165C65.5232 108.269 65.7987 108.296 66.0646 108.243C66.3305 108.19 66.5747 108.059 66.7664 107.868C66.9581 107.676 67.0886 107.432 67.1415 107.166C67.1944 106.9 67.1672 106.624 67.0635 106.374C66.9597 106.124 66.784 105.91 66.5586 105.759C66.3332 105.608 66.0682 105.528 65.7971 105.528C65.4336 105.528 65.0851 105.672 64.8281 105.929C64.5711 106.186 64.4268 106.535 64.4268 106.898Z" fill="#F6D5B3"/>
<path d="M76.6627 106.284C76.6627 106.434 76.707 106.58 76.7901 106.704C76.8731 106.829 76.9912 106.926 77.1293 106.983C77.2674 107.04 77.4195 107.055 77.5661 107.026C77.7128 106.997 77.8475 106.925 77.9533 106.819C78.059 106.713 78.1311 106.579 78.1603 106.432C78.1895 106.285 78.1745 106.133 78.1173 105.995C78.0601 105.857 77.9632 105.739 77.8388 105.656C77.7145 105.573 77.5683 105.528 77.4188 105.528C77.2183 105.528 77.026 105.608 76.8843 105.75C76.7425 105.891 76.6628 106.084 76.6627 106.284Z" fill="#804C3F"/>
<path d="M69.2685 106.284C69.2684 106.434 69.3127 106.58 69.3958 106.704C69.4788 106.829 69.5969 106.926 69.7351 106.983C69.8732 107.04 70.0253 107.055 70.1719 107.026C70.3186 106.997 70.4533 106.925 70.5591 106.819C70.6648 106.713 70.7368 106.578 70.766 106.432C70.7952 106.285 70.7802 106.133 70.7229 105.995C70.6657 105.857 70.5687 105.739 70.4444 105.656C70.32 105.573 70.1738 105.528 70.0243 105.528C69.8238 105.528 69.6316 105.608 69.4899 105.75C69.3482 105.891 69.2685 106.084 69.2685 106.284Z" fill="#804C3F"/>
<path d="M73.8086 116.034H73.614C73.6794 116.034 73.7437 116.03 73.8086 116.029V116.034Z" fill="#B52A22"/>
<path d="M71.7998 109.718C72.5406 110.72 75.068 110.742 75.6998 109.674" stroke="#804C3F" stroke-width="0.53" stroke-miterlimit="10" stroke-linecap="round" stroke-linejoin="round"/>
<path d="M73.6567 108.215C73.9214 108.212 74.1337 107.937 74.1308 107.6C74.128 107.264 73.911 106.992 73.6463 106.994C73.3816 106.997 73.1693 107.272 73.1722 107.609C73.175 107.946 73.3919 108.217 73.6567 108.215Z" fill="#D36744"/>
<path d="M85.9192 114.599C85.9192 114.12 85.5311 113.732 85.0524 113.732H71.3997C70.921 113.732 70.5329 114.12 70.5329 114.599V122.482C70.5329 122.961 70.921 123.349 71.3997 123.349H85.0524C85.5311 123.349 85.9192 122.961 85.9192 122.482V114.599Z" fill="#CBCBCB"/>
<path d="M85.9192 122.867C85.9192 122.602 85.7039 122.386 85.4384 122.386H66.2055C65.9399 122.386 65.7246 122.602 65.7246 122.867C65.7246 123.133 65.9399 123.348 66.2055 123.348H85.4384C85.7039 123.348 85.9192 123.133 85.9192 122.867Z" fill="#CBCBCB"/>
<rect width="25.1748" height="0.961645" rx="0.480822" transform="matrix(-1 0 0 1 86.8812 123.348)" fill="#9E9E9E"/>
<circle r="1.28106" transform="matrix(-1 0 0 1 78.5455 118.86)" fill="#E7E7E7"/>
</g>
<mask id="mask2" mask-type="alpha" maskUnits="userSpaceOnUse" x="89" y="89" width="26" height="36">
<rect width="25.1748" height="34.6192" transform="matrix(-1 0 0 1 114.294 89.6907)" fill="#C4C4C4"/>
</mask>
<g mask="url(#mask2)">
<path d="M100.736 112.77C107.169 112.77 111.22 119.391 111.22 122.465C111.22 125.539 105.978 126.012 100.736 126.012C95.4945 126.012 90.2528 125.539 90.2528 122.465C90.2528 119.391 94.3032 112.77 100.736 112.77Z" fill="#319BD0"/>
<path d="M96.984 122.387C95.7018 122.447 92.9451 123.108 92.1758 125.272" stroke="#1A8AC1" stroke-width="3.86236" stroke-linecap="round"/>
<path d="M96.0224 121.551C96.0224 121.878 96.1194 122.198 96.3013 122.47C96.4831 122.743 96.7417 122.955 97.0441 123.08C97.3466 123.205 97.6795 123.238 98.0006 123.174C98.3217 123.11 98.6167 122.953 98.8482 122.721C99.0797 122.49 99.2374 122.195 99.3012 121.874C99.3651 121.553 99.3323 121.22 99.207 120.917C99.0816 120.615 98.8694 120.356 98.5972 120.174C98.3249 119.992 98.0049 119.895 97.6774 119.896C97.2385 119.896 96.8175 120.07 96.5072 120.38C96.1968 120.691 96.0224 121.112 96.0224 121.551Z" fill="#F6D5B3"/>
<path d="M107.88 106.898C107.88 107.169 107.961 107.434 108.111 107.659C108.262 107.885 108.476 108.061 108.726 108.164C108.977 108.268 109.252 108.295 109.518 108.242C109.784 108.189 110.028 108.059 110.22 107.867C110.412 107.676 110.542 107.431 110.595 107.165C110.648 106.9 110.621 106.624 110.517 106.374C110.413 106.123 110.238 105.909 110.012 105.758C109.787 105.608 109.522 105.528 109.251 105.528C109.071 105.528 108.893 105.563 108.726 105.632C108.56 105.701 108.409 105.802 108.282 105.929C108.155 106.056 108.054 106.207 107.985 106.374C107.916 106.54 107.88 106.718 107.88 106.898Z" fill="#F6D5B3"/>
<path d="M91.8395 106.898C91.8394 107.169 91.9198 107.434 92.0704 107.659C92.2209 107.885 92.435 108.061 92.6854 108.164C92.9359 108.268 93.2115 108.295 93.4773 108.242C93.7432 108.189 93.9875 108.059 94.1791 107.867C94.3708 107.676 94.5014 107.431 94.5542 107.165C94.6071 106.9 94.58 106.624 94.4762 106.374C94.3724 106.123 94.1967 105.909 93.9713 105.758C93.7459 105.608 93.4809 105.528 93.2098 105.528C92.8464 105.528 92.4978 105.672 92.2408 105.929C91.9838 106.186 91.8395 106.534 91.8395 106.898Z" fill="#F6D5B3"/>
<path d="M92.9003 104.91C92.9003 109.782 96.1843 113.732 101.057 113.732C105.929 113.732 109.545 109.782 109.545 104.91C109.545 100.038 105.929 96.0874 101.057 96.0874C96.1845 96.0874 92.9003 100.037 92.9003 104.91Z" fill="#F6D5B3"/>
<path d="M97.8309 104.192C104.331 104.192 106.131 102.392 106.131 100.692C107.131 102.392 107.931 105.192 107.831 106.892C107.731 109.792 107.231 111.092 105.831 112.292C108.231 111.492 111.131 108.592 111.031 105.392C111.031 103.39 111 99.3904 108.5 96.3904C106.5 93.9904 103.331 93.7915 103.031 93.8915C102.631 93.6915 101.831 93.0915 100.431 92.9915C93.2309 92.8915 91.2309 99.8915 91.0309 101.292C90.8309 102.992 90.6309 103.992 91.0309 106.892C91.4309 109.592 94.8309 112.192 96.3309 112.192C95.3309 111.192 94.3309 109.492 94.3309 107.692C94.3309 105.892 94.2309 105.492 96.0309 104.692C97.8309 103.892 99.2309 102.792 99.3309 102.592C99.3309 102.792 98.7309 103.592 97.8309 104.192Z" fill="#84615E"/>
<path d="M104.075 106.283C104.075 106.433 104.12 106.579 104.203 106.703C104.286 106.828 104.404 106.925 104.542 106.982C104.68 107.039 104.832 107.054 104.979 107.025C105.125 106.996 105.26 106.924 105.366 106.818C105.472 106.713 105.544 106.578 105.573 106.431C105.602 106.285 105.587 106.133 105.53 105.994C105.473 105.856 105.376 105.738 105.251 105.655C105.127 105.572 104.981 105.528 104.831 105.528C104.631 105.528 104.439 105.607 104.297 105.749C104.155 105.891 104.075 106.083 104.075 106.283Z" fill="#804C3F"/>
<path d="M96.6812 106.283C96.6811 106.433 96.7254 106.579 96.8085 106.704C96.8916 106.828 97.0096 106.925 97.1478 106.982C97.2859 107.039 97.438 107.054 97.5846 107.025C97.7313 106.996 97.8661 106.924 97.9718 106.818C98.0775 106.712 98.1496 106.578 98.1787 106.431C98.2079 106.284 98.1929 106.132 98.1356 105.994C98.0784 105.856 97.9815 105.738 97.8571 105.655C97.7327 105.572 97.5865 105.528 97.437 105.528C97.2366 105.528 97.0443 105.607 96.9026 105.749C96.7609 105.891 96.6812 106.083 96.6812 106.283Z" fill="#804C3F"/>
<path d="M101.221 116.033H101.027C101.092 116.033 101.156 116.03 101.221 116.028V116.033Z" fill="#B52A22"/>
<path d="M99.1998 109.818C99.9406 110.82 102.468 110.842 103.1 109.774" stroke="#804C3F" stroke-width="0.53" stroke-miterlimit="10" stroke-linecap="round" stroke-linejoin="round"/>
<path d="M101.057 108.315C101.321 108.312 101.534 108.037 101.531 107.701C101.528 107.364 101.311 107.092 101.046 107.095C100.782 107.097 100.569 107.372 100.572 107.709C100.575 108.046 100.792 108.317 101.057 108.315Z" fill="#D36744"/>
<path d="M113.332 114.599C113.332 114.12 112.944 113.732 112.465 113.732H98.8125C98.3338 113.732 97.9457 114.12 97.9457 114.599V122.482C97.9457 122.961 98.3338 123.349 98.8125 123.349H112.465C112.944 123.349 113.332 122.961 113.332 122.482V114.599Z" fill="#CBCBCB"/>
<path d="M113.332 122.867C113.332 122.602 113.117 122.386 112.851 122.386H93.6183C93.3528 122.386 93.1375 122.602 93.1375 122.867C93.1375 123.133 93.3528 123.348 93.6183 123.348H112.851C113.117 123.348 113.332 123.133 113.332 122.867Z" fill="#CBCBCB"/>
<rect width="25.1748" height="0.961645" rx="0.480822" transform="matrix(-1 0 0 1 114.294 123.348)" fill="#9E9E9E"/>
<circle r="1.28106" transform="matrix(-1 0 0 1 105.958 118.86)" fill="#E7E7E7"/>
</g>
<mask id="mask3" mask-type="alpha" maskUnits="userSpaceOnUse" x="48" y="107" width="26" height="36">
<rect width="25.1748" height="34.6192" transform="matrix(-1 0 0 1 73.1748 107.991)" fill="#C4C4C4"/>
</mask>
<g mask="url(#mask3)">
<path d="M59.6172 131.07C66.0502 131.07 70.1007 137.692 70.1007 140.766C70.1007 143.84 64.8589 144.312 59.6172 144.312C54.3754 144.312 49.1336 143.84 49.1336 140.766C49.1336 137.692 53.1841 131.07 59.6172 131.07Z" fill="#319BD0"/>
<path d="M55.865 140.687C54.5828 140.747 51.8261 141.408 51.0568 143.572" stroke="#1A8AC1" stroke-width="3.86236" stroke-linecap="round"/>
<path d="M54.9033 139.85C54.9032 140.177 55.0003 140.497 55.1821 140.769C55.364 141.042 55.6225 141.254 55.925 141.379C56.2275 141.504 56.5603 141.537 56.8814 141.473C57.2026 141.41 57.4975 141.252 57.729 141.02C57.9606 140.789 58.1182 140.494 58.1821 140.173C58.2459 139.852 58.2131 139.519 58.0878 139.216C57.9625 138.914 57.7503 138.655 57.478 138.473C57.2058 138.292 56.8857 138.195 56.5583 138.195C56.1194 138.195 55.6984 138.369 55.388 138.679C55.0776 138.99 54.9033 139.411 54.9033 139.85Z" fill="#F6D5B3"/>
<path d="M66.7613 125.198C66.7613 125.469 66.8417 125.734 66.9922 125.959C67.1428 126.185 67.3569 126.36 67.6073 126.464C67.8578 126.568 68.1333 126.595 68.3992 126.542C68.6651 126.489 68.9093 126.359 69.101 126.167C69.2927 125.975 69.4232 125.731 69.4761 125.465C69.529 125.199 69.5018 124.924 69.3981 124.673C69.2943 124.423 69.1186 124.209 68.8932 124.058C68.6678 123.908 68.4028 123.827 68.1317 123.827C67.9517 123.827 67.7735 123.863 67.6073 123.932C67.441 124.001 67.29 124.102 67.1627 124.229C67.0355 124.356 66.9345 124.507 66.8657 124.673C66.7968 124.84 66.7613 125.018 66.7613 125.198Z" fill="#F6D5B3"/>
<path d="M50.7205 125.198C50.7204 125.469 50.8008 125.734 50.9513 125.959C51.1019 126.185 51.316 126.36 51.5664 126.464C51.8169 126.568 52.0924 126.595 52.3583 126.542C52.6242 126.489 52.8684 126.359 53.0601 126.167C53.2518 125.975 53.3823 125.731 53.4352 125.465C53.4881 125.199 53.4609 124.924 53.3572 124.673C53.2534 124.423 53.0777 124.209 52.8523 124.058C52.6269 123.908 52.3619 123.827 52.0908 123.827C51.7273 123.827 51.3788 123.972 51.1218 124.229C50.8648 124.486 50.7205 124.834 50.7205 125.198Z" fill="#F6D5B3"/>
<path d="M51.7812 123.209C51.7812 128.081 55.0652 132.032 59.9374 132.032C64.8097 132.032 68.4263 128.081 68.4263 123.209C68.4263 118.337 64.8095 114.387 59.9374 114.387C55.0654 114.387 51.7812 118.336 51.7812 123.209Z" fill="#F6D5B3"/>
<path d="M57.6756 118.59C57.0756 119.29 56.6756 120.09 56.8756 121.09C55.6756 119.99 55.8756 118.89 56.0756 118.19C53.4756 120.59 53.0756 122.69 53.0756 124.89C53.0756 128.19 54.4501 130.07 56.9501 131.47C56.2501 131.77 55.8756 131.89 55.1756 132.19C54.3756 132.09 54.1756 131.89 52.9756 131.29C51.7756 130.69 49.9756 129.19 50.4756 125.89C50.5756 124.99 48.3756 121.99 50.7756 118.89C53.1756 116.19 54.2756 112.29 57.9756 112.29C59.4756 112.29 60.1756 112.59 60.2756 112.69C60.3756 112.59 60.8756 112.39 61.6756 112.49C68.9756 112.89 74.4756 126.19 65.8756 131.29C65.2756 131.69 64.1756 131.99 63.7756 132.09C63.2756 131.89 62.9756 131.69 62.6756 131.59C65.5756 129.99 66.4756 128.39 66.6756 126.79C66.7756 125.89 66.7756 124.99 66.5756 124.19C66.3756 123.39 66.0756 122.39 65.4756 121.89C64.7756 122.09 63.0756 122.59 61.5756 122.39C59.7756 122.09 57.6756 120.59 57.6756 118.59Z" fill="#9E685C"/>
<path d="M62.9563 124.583C62.9563 124.733 63.0006 124.879 63.0836 125.003C63.1667 125.128 63.2847 125.225 63.4229 125.282C63.561 125.339 63.713 125.354 63.8597 125.325C64.0064 125.296 64.1411 125.224 64.2469 125.118C64.3526 125.012 64.4247 124.878 64.4538 124.731C64.483 124.584 64.4681 124.432 64.4109 124.294C64.3536 124.156 64.2567 124.038 64.1324 123.955C64.0081 123.872 63.8619 123.827 63.7124 123.827C63.5119 123.827 63.3196 123.907 63.1778 124.049C63.0361 124.19 62.9564 124.383 62.9563 124.583Z" fill="#804C3F"/>
<path d="M55.5622 124.583C55.5621 124.733 55.6064 124.879 55.6895 125.003C55.7725 125.128 55.8906 125.225 56.0288 125.282C56.1669 125.339 56.319 125.354 56.4656 125.325C56.6123 125.296 56.747 125.224 56.8528 125.118C56.9585 125.012 57.0305 124.878 57.0597 124.731C57.0889 124.584 57.0739 124.432 57.0166 124.294C56.9594 124.156 56.8624 124.038 56.7381 123.955C56.6137 123.872 56.4675 123.827 56.318 123.827C56.1175 123.827 55.9253 123.907 55.7836 124.049C55.6419 124.191 55.5622 124.383 55.5622 124.583Z" fill="#804C3F"/>
<path d="M60.1023 134.332H59.9077C59.9731 134.332 60.0374 134.328 60.1023 134.327V134.332Z" fill="#B52A22"/>
<path d="M58 128.118C58.7408 129.12 61.2682 129.142 61.9 128.074" stroke="#804C3F" stroke-width="0.53" stroke-miterlimit="10" stroke-linecap="round" stroke-linejoin="round"/>
<path d="M59.8568 126.614C60.1216 126.612 60.3339 126.337 60.331 126C60.3282 125.663 60.1112 125.392 59.8465 125.394C59.5818 125.396 59.3695 125.671 59.3724 126.008C59.3752 126.345 59.5921 126.616 59.8568 126.614Z" fill="#D36744"/>
<path d="M72.213 132.899C72.213 132.421 71.8249 132.032 71.3462 132.032H57.6935C57.2148 132.032 56.8267 132.421 56.8267 132.899V140.782C56.8267 141.261 57.2148 141.649 57.6935 141.649H71.3462C71.8249 141.649 72.213 141.261 72.213 140.782V132.899Z" fill="#CBCBCB"/>
<path d="M72.213 141.168C72.213 140.903 71.9977 140.688 71.7322 140.688H52.4993C52.2337 140.688 52.0185 140.903 52.0185 141.168C52.0185 141.434 52.2337 141.649 52.4993 141.649H71.7322C71.9977 141.649 72.213 141.434 72.213 141.168Z" fill="#CBCBCB"/>
<rect width="25.1748" height="0.961645" rx="0.480822" transform="matrix(-1 0 0 1 73.175 141.649)" fill="#9E9E9E"/>
<circle r="1.28106" transform="matrix(-1 0 0 1 64.8394 137.16)" fill="#E7E7E7"/>
</g>
<mask id="mask4" mask-type="alpha" maskUnits="userSpaceOnUse" x="75" y="107" width="26" height="36">
<rect width="25.1748" height="34.6192" transform="matrix(-1 0 0 1 100.587 107.991)" fill="#C4C4C4"/>
</mask>
<g mask="url(#mask4)">
<path d="M87.0299 131.07C93.463 131.07 97.5134 137.692 97.5134 140.766C97.5134 143.84 92.2717 144.312 87.0299 144.312C81.7881 144.312 76.5463 143.84 76.5463 140.766C76.5463 137.692 80.5968 131.07 87.0299 131.07Z" fill="#319BD0"/>
<path d="M83.2777 140.687C81.9955 140.747 79.2388 141.408 78.4695 143.572" stroke="#1A8AC1" stroke-width="3.86236" stroke-linecap="round"/>
<path d="M82.3161 139.851C82.3161 140.178 82.4131 140.498 82.595 140.771C82.7768 141.043 83.0354 141.255 83.3378 141.38C83.6403 141.506 83.9732 141.538 84.2943 141.475C84.6154 141.411 84.9104 141.253 85.1419 141.022C85.3734 140.79 85.5311 140.495 85.5949 140.174C85.6588 139.853 85.626 139.52 85.5007 139.218C85.3753 138.915 85.1631 138.657 84.8909 138.475C84.6186 138.293 84.2986 138.196 83.9711 138.196C83.5322 138.196 83.1112 138.37 82.8009 138.681C82.4905 138.991 82.3161 139.412 82.3161 139.851Z" fill="#F6D5B3"/>
<path d="M94.1742 125.198C94.1741 125.469 94.2545 125.734 94.4051 125.96C94.5557 126.185 94.7697 126.361 95.0201 126.465C95.2706 126.568 95.5462 126.596 95.8121 126.543C96.0779 126.49 96.3222 126.359 96.5139 126.168C96.7055 125.976 96.8361 125.732 96.889 125.466C96.9418 125.2 96.9147 124.924 96.8109 124.674C96.7072 124.423 96.5315 124.209 96.306 124.059C96.0806 123.908 95.8156 123.828 95.5445 123.828C95.3646 123.828 95.1864 123.863 95.0201 123.932C94.8539 124.001 94.7028 124.102 94.5755 124.229C94.4483 124.356 94.3474 124.508 94.2785 124.674C94.2096 124.84 94.1742 125.018 94.1742 125.198Z" fill="#F6D5B3"/>
<path d="M78.1332 125.198C78.1331 125.469 78.2135 125.734 78.3641 125.96C78.5146 126.185 78.7287 126.361 78.9791 126.465C79.2296 126.568 79.5052 126.596 79.771 126.543C80.0369 126.49 80.2812 126.359 80.4728 126.168C80.6645 125.976 80.7951 125.732 80.8479 125.466C80.9008 125.2 80.8737 124.924 80.7699 124.674C80.6661 124.423 80.4904 124.209 80.265 124.059C80.0396 123.908 79.7746 123.828 79.5035 123.828C79.1401 123.828 78.7915 123.972 78.5345 124.229C78.2775 124.486 78.1332 124.835 78.1332 125.198Z" fill="#F6D5B3"/>
<path d="M79.194 123.209C79.194 128.081 82.478 132.032 87.3503 132.032C92.2225 132.032 95.8391 128.081 95.8391 123.209C95.8391 118.337 92.2223 114.387 87.3503 114.387C82.4782 114.387 79.194 118.336 79.194 123.209Z" fill="#F6D5B3"/>
<path d="M87.8 118.39C90.6 118.39 91.2 117.99 91.7 117.49C92 117.19 92.4 117.19 92.7 117.39C93.5 117.99 95.3 120.09 95.8 124.29C96.5 122.19 96.1 119.49 95.8 118.39C94.6 115.09 93.3 115.19 94.1 112.39C93 112.29 92.2 112.79 92.1 113.29C87 111.09 78.5 112.09 78 121.89C78.0026 121.841 79 121.69 79 121.69C79 123.09 79.1 123.89 79.7 125.39C79.7 124.99 79.8 124.09 80.2 123.39C80.5 122.89 81 122.69 81.6 122.59C86.3 122.09 84.8 118.39 87.8 118.39Z" fill="#5A4B46"/>
<path d="M90.3692 124.584C90.3691 124.733 90.4134 124.879 90.4965 125.004C90.5795 125.128 90.6976 125.225 90.8357 125.282C90.9739 125.34 91.1259 125.355 91.2726 125.325C91.4192 125.296 91.554 125.224 91.6597 125.119C91.7655 125.013 91.8375 124.878 91.8667 124.731C91.8959 124.585 91.8809 124.433 91.8237 124.295C91.7665 124.156 91.6696 124.038 91.5452 123.955C91.4209 123.872 91.2747 123.828 91.1252 123.828C90.9247 123.828 90.7325 123.908 90.5907 124.049C90.4489 124.191 90.3692 124.383 90.3692 124.584Z" fill="#804C3F"/>
<path d="M82.9749 124.584C82.9748 124.733 83.0191 124.879 83.1022 125.004C83.1853 125.128 83.3033 125.225 83.4415 125.282C83.5796 125.34 83.7317 125.355 83.8784 125.325C84.025 125.296 84.1598 125.224 84.2655 125.119C84.3712 125.013 84.4433 124.878 84.4724 124.731C84.5016 124.585 84.4866 124.433 84.4293 124.294C84.3721 124.156 84.2752 124.038 84.1508 123.955C84.0264 123.872 83.8802 123.828 83.7307 123.828C83.5303 123.828 83.338 123.908 83.1963 124.049C83.0546 124.191 82.9749 124.383 82.9749 124.584Z" fill="#804C3F"/>
<path d="M87.5149 134.333H87.3203C87.3857 134.333 87.45 134.329 87.5149 134.328V134.333Z" fill="#B52A22"/>
<path d="M85.5 128.118C86.2408 129.12 88.7682 129.142 89.4 128.074" stroke="#804C3F" stroke-width="0.53" stroke-miterlimit="10" stroke-linecap="round" stroke-linejoin="round"/>
<path d="M87.3568 126.614C87.6216 126.612 87.8339 126.337 87.831 126C87.8282 125.663 87.6112 125.392 87.3465 125.394C87.0818 125.397 86.8695 125.672 86.8724 126.008C86.8752 126.345 87.0921 126.617 87.3568 126.614Z" fill="#D36744"/>
<path d="M99.6257 132.898C99.6257 132.419 99.2376 132.031 98.7589 132.031H85.1062C84.6275 132.031 84.2394 132.419 84.2394 132.898V140.781C84.2394 141.26 84.6275 141.648 85.1062 141.648H98.7589C99.2376 141.648 99.6257 141.26 99.6257 140.781V132.898Z" fill="#CBCBCB"/>
<path d="M99.6257 141.166C99.6257 140.901 99.4105 140.685 99.1449 140.685H79.912C79.6465 140.685 79.4312 140.901 79.4312 141.166C79.4312 141.432 79.6465 141.647 79.912 141.647H99.1449C99.4105 141.647 99.6257 141.432 99.6257 141.166Z" fill="#CBCBCB"/>
<rect width="25.1748" height="0.961645" rx="0.480822" transform="matrix(-1 0 0 1 100.588 141.647)" fill="#9E9E9E"/>
<circle r="1.28106" transform="matrix(-1 0 0 1 92.2521 137.159)" fill="#E7E7E7"/>
</g>
<mask id="mask5" mask-type="alpha" maskUnits="userSpaceOnUse" x="102" y="107" width="26" height="36">
<rect width="25.1748" height="34.6192" transform="matrix(-1 0 0 1 128 107.991)" fill="#C4C4C4"/>
</mask>
<g mask="url(#mask5)">
<path d="M122.968 134.99C122.968 133.79 121.45 130.99 123.35 128.49L120.387 129.39H109.858L105.25 127.89C106.25 129.59 106.554 130.89 106.451 132.09C106.142 133.89 105 135.39 105.5 137.39L122.968 134.99Z" fill="#D2B19E"/>
<path d="M114.442 131.072C120.875 131.071 124.926 137.693 124.926 140.767C124.926 143.841 119.684 144.314 114.442 144.314C109.201 144.314 103.959 143.841 103.959 140.767C103.959 137.693 108.009 131.072 114.442 131.072Z" fill="#319BD0"/>
<path d="M110.69 140.688C109.408 140.748 106.651 141.409 105.882 143.573" stroke="#1A8AC1" stroke-width="3.86236" stroke-linecap="round"/>
<path d="M109.728 139.851C109.728 140.178 109.825 140.499 110.007 140.771C110.189 141.043 110.448 141.255 110.75 141.381C111.053 141.506 111.386 141.539 111.707 141.475C112.028 141.411 112.323 141.253 112.554 141.022C112.786 140.79 112.943 140.495 113.007 140.174C113.071 139.853 113.038 139.52 112.913 139.218C112.788 138.915 112.575 138.657 112.303 138.475C112.031 138.293 111.711 138.196 111.384 138.196C110.945 138.196 110.524 138.37 110.213 138.681C109.903 138.991 109.728 139.412 109.728 139.851Z" fill="#F6D5B3"/>
<path d="M121.587 125.199C121.587 125.47 121.667 125.735 121.818 125.96C121.968 126.186 122.182 126.361 122.433 126.465C122.683 126.569 122.959 126.596 123.225 126.543C123.49 126.49 123.735 126.36 123.926 126.168C124.118 125.976 124.249 125.732 124.301 125.466C124.354 125.2 124.327 124.925 124.223 124.674C124.12 124.424 123.944 124.21 123.719 124.059C123.493 123.909 123.228 123.828 122.957 123.828C122.777 123.828 122.599 123.864 122.433 123.933C122.266 124.002 122.115 124.102 121.988 124.23C121.861 124.357 121.76 124.508 121.691 124.674C121.622 124.841 121.587 125.019 121.587 125.199Z" fill="#F6D5B3"/>
<path d="M105.546 125.199C105.546 125.47 105.626 125.735 105.777 125.96C105.927 126.186 106.141 126.361 106.392 126.465C106.642 126.569 106.918 126.596 107.184 126.543C107.449 126.49 107.694 126.36 107.885 126.168C108.077 125.976 108.208 125.732 108.26 125.466C108.313 125.2 108.286 124.925 108.182 124.674C108.079 124.424 107.903 124.21 107.677 124.059C107.452 123.909 107.187 123.828 106.916 123.828C106.553 123.828 106.204 123.973 105.947 124.23C105.69 124.487 105.546 124.835 105.546 125.199Z" fill="#F6D5B3"/>
<path d="M106.607 123.211C106.607 128.083 109.891 132.033 114.763 132.033C119.635 132.033 123.252 128.083 123.252 123.211C123.252 118.338 119.635 114.388 114.763 114.388C109.891 114.388 106.607 118.338 106.607 123.211Z" fill="#F6D5B3"/>
<path d="M117.782 124.584C117.782 124.734 117.826 124.88 117.909 125.004C117.992 125.129 118.11 125.226 118.248 125.283C118.386 125.34 118.538 125.355 118.685 125.326C118.832 125.297 118.966 125.225 119.072 125.119C119.178 125.013 119.25 124.879 119.279 124.732C119.308 124.585 119.293 124.433 119.236 124.295C119.179 124.157 119.082 124.039 118.958 123.956C118.833 123.873 118.687 123.828 118.538 123.828C118.337 123.828 118.145 123.908 118.003 124.05C117.861 124.191 117.782 124.384 117.782 124.584Z" fill="#804C3F"/>
<path d="M113.054 111.897C115.654 111.797 116.254 112.897 116.254 112.897C116.254 112.897 118.454 112.097 120.054 113.297C121.054 113.997 123.454 116.597 124.254 119.197C125.054 121.797 125 124.89 124.5 126.39C124.362 126.803 123.16 130.19 120 130.19C122.5 127.39 122.652 123.692 121.5 121.39C120.846 120.084 119.8 118.39 117 116.89C115 119.89 110.654 120.897 109.354 122.397C107.954 123.997 107.354 126.197 108.754 129.397C109.654 131.597 105.654 129.397 104.754 126.997C103.854 124.597 105.554 123.797 106.654 119.097C107.654 114.397 110.854 111.997 113.054 111.897Z" fill="#D2B19E"/>
<path d="M110.387 124.584C110.387 124.734 110.432 124.88 110.515 125.004C110.598 125.129 110.716 125.226 110.854 125.283C110.992 125.34 111.144 125.355 111.291 125.326C111.438 125.297 111.572 125.225 111.678 125.119C111.784 125.013 111.856 124.879 111.885 124.732C111.914 124.585 111.899 124.433 111.842 124.295C111.785 124.157 111.688 124.039 111.563 123.956C111.439 123.873 111.293 123.828 111.143 123.828C110.943 123.828 110.751 123.908 110.609 124.05C110.467 124.192 110.387 124.384 110.387 124.584Z" fill="#804C3F"/>
<path d="M114.927 134.333H114.733C114.798 134.333 114.863 134.33 114.927 134.328V134.333Z" fill="#B52A22"/>
<path d="M112.8 128.118C113.541 129.12 116.068 129.142 116.7 128.074" stroke="#804C3F" stroke-width="0.53" stroke-miterlimit="10" stroke-linecap="round" stroke-linejoin="round"/>
<path d="M114.657 126.614C114.921 126.612 115.134 126.337 115.131 126C115.128 125.663 114.911 125.392 114.646 125.394C114.382 125.396 114.169 125.671 114.172 126.008C114.175 126.345 114.392 126.616 114.657 126.614Z" fill="#D36744"/>
<path d="M127.038 132.9C127.038 132.421 126.65 132.033 126.171 132.033H112.518C112.04 132.033 111.652 132.421 111.652 132.9V140.783C111.652 141.261 112.04 141.649 112.518 141.649H126.171C126.65 141.649 127.038 141.261 127.038 140.783V132.9Z" fill="#CBCBCB"/>
<path d="M127.038 141.169C127.038 140.904 126.823 140.688 126.557 140.688H107.324C107.059 140.688 106.843 140.904 106.843 141.169C106.843 141.435 107.059 141.65 107.324 141.65H126.557C126.823 141.65 127.038 141.435 127.038 141.169Z" fill="#CBCBCB"/>
<rect width="25.1748" height="0.961645" rx="0.480822" transform="matrix(-1 0 0 1 128 141.649)" fill="#9E9E9E"/>
<circle r="1.28106" transform="matrix(-1 0 0 1 119.665 137.16)" fill="#E7E7E7"/>
</g>
<mask id="mask6" mask-type="alpha" maskUnits="userSpaceOnUse" x="75" y="262" width="26" height="35">
<rect width="25.1748" height="34.6192" transform="matrix(-1 0 0 1 100.587 262.05)" fill="#C4C4C4"/>
</mask>
<g mask="url(#mask6)">
<path d="M87.03 285.13C93.4631 285.13 97.5135 291.752 97.5135 294.826C97.5135 297.9 92.2718 298.373 87.03 298.373C81.7882 298.373 76.5465 297.9 76.5465 294.826C76.5465 291.752 80.5969 285.13 87.03 285.13Z" fill="#319BD0"/>
<path d="M83.2778 294.747C81.9956 294.807 79.2389 295.468 78.4696 297.632" stroke="#1A8AC1" stroke-width="3.86236" stroke-linecap="round"/>
<path d="M82.3161 293.91C82.3161 294.238 82.4131 294.558 82.595 294.83C82.7768 295.102 83.0354 295.314 83.3378 295.44C83.6403 295.565 83.9732 295.598 84.2943 295.534C84.6154 295.47 84.9104 295.312 85.1419 295.081C85.3734 294.849 85.5311 294.554 85.5949 294.233C85.6588 293.912 85.626 293.579 85.5007 293.277C85.3753 292.974 85.1631 292.716 84.8909 292.534C84.6186 292.352 84.2986 292.255 83.9711 292.255C83.5322 292.255 83.1112 292.429 82.8009 292.74C82.4905 293.05 82.3161 293.471 82.3161 293.91Z" fill="#F6D5B3"/>
<path d="M94.1743 279.259C94.1743 279.53 94.2546 279.795 94.4052 280.021C94.5558 280.246 94.7698 280.422 95.0203 280.526C95.2707 280.629 95.5463 280.657 95.8122 280.604C96.0781 280.551 96.3223 280.42 96.514 280.229C96.7057 280.037 96.8362 279.793 96.8891 279.527C96.942 279.261 96.9148 278.985 96.811 278.735C96.7073 278.484 96.5316 278.27 96.3062 278.12C96.0807 277.969 95.8157 277.889 95.5446 277.889C95.3647 277.889 95.1865 277.924 95.0202 277.993C94.854 278.062 94.7029 278.163 94.5757 278.29C94.4484 278.418 94.3475 278.569 94.2786 278.735C94.2098 278.901 94.1743 279.079 94.1743 279.259Z" fill="#F6D5B3"/>
<path d="M78.1332 279.259C78.1331 279.53 78.2135 279.795 78.3641 280.021C78.5146 280.246 78.7287 280.422 78.9791 280.526C79.2296 280.629 79.5052 280.657 79.771 280.604C80.0369 280.551 80.2812 280.42 80.4728 280.229C80.6645 280.037 80.7951 279.793 80.8479 279.527C80.9008 279.261 80.8737 278.985 80.7699 278.735C80.6661 278.484 80.4904 278.27 80.265 278.12C80.0396 277.969 79.7746 277.889 79.5035 277.889C79.1401 277.889 78.7915 278.033 78.5345 278.29C78.2775 278.547 78.1332 278.896 78.1332 279.259Z" fill="#F6D5B3"/>
<path d="M79.194 277.27C79.194 282.142 82.478 286.092 87.3503 286.092C92.2225 286.092 95.8391 282.142 95.8391 277.27C95.8391 272.398 92.2223 268.447 87.3503 268.447C82.4782 268.447 79.194 272.397 79.194 277.27Z" fill="#F6D5B3"/>
<path d="M90.3693 278.645C90.3692 278.794 90.4136 278.94 90.4966 279.065C90.5796 279.189 90.6977 279.286 90.8358 279.343C90.974 279.401 91.126 279.416 91.2727 279.386C91.4193 279.357 91.5541 279.285 91.6598 279.18C91.7656 279.074 91.8376 278.939 91.8668 278.793C91.896 278.646 91.881 278.494 91.8238 278.356C91.7666 278.218 91.6697 278.099 91.5454 278.016C91.421 277.933 91.2749 277.889 91.1253 277.889C90.9248 277.889 90.7326 277.969 90.5908 278.11C90.449 278.252 90.3693 278.444 90.3693 278.645Z" fill="#804C3F"/>
<path d="M82.9749 278.645C82.9748 278.794 83.0191 278.94 83.1022 279.065C83.1853 279.189 83.3033 279.286 83.4415 279.343C83.5796 279.401 83.7317 279.416 83.8784 279.386C84.025 279.357 84.1598 279.285 84.2655 279.18C84.3712 279.074 84.4433 278.939 84.4724 278.792C84.5016 278.646 84.4866 278.494 84.4293 278.356C84.3721 278.217 84.2752 278.099 84.1508 278.016C84.0264 277.933 83.8802 277.889 83.7307 277.889C83.5303 277.889 83.338 277.969 83.1963 278.11C83.0546 278.252 82.9749 278.444 82.9749 278.645Z" fill="#804C3F"/>
<path d="M87.515 288.393H87.3205C87.3858 288.393 87.4502 288.389 87.515 288.387V288.393Z" fill="#B52A22"/>
<path d="M85.4003 282.178C86.1411 283.18 88.6684 283.202 89.3003 282.134" stroke="#804C3F" stroke-width="0.53" stroke-miterlimit="10" stroke-linecap="round" stroke-linejoin="round"/>
<path d="M87.2571 280.675C87.5218 280.672 87.7341 280.397 87.7313 280.06C87.7284 279.724 87.5115 279.452 87.2468 279.454C86.9821 279.457 86.7698 279.732 86.7726 280.069C86.7755 280.405 86.9924 280.677 87.2571 280.675Z" fill="#D36744"/>
<path d="M91.4863 267.978C93.6349 268.599 97.4961 271.595 96.0384 277.27C94.9993 275.423 92.483 273.165 90.703 272.898C91.148 274.144 90.6717 275.368 90.0301 276.165C88.517 275.097 87.0929 274.83 85.2236 275.097C83.3543 275.364 80.8626 275.542 80.2393 275.008C80.3282 276.487 79.4726 276.514 79.1632 277.27C78.6292 276.113 78.3702 270.112 82.3755 268.421C86.3808 266.73 89.9642 266.615 91.0982 264.936C91.8501 266.282 91.4994 267.353 91.4863 267.978Z" fill="#97735B"/>
<path d="M99.6257 286.959C99.6257 286.48 99.2376 286.092 98.7589 286.092H85.1062C84.6275 286.092 84.2394 286.48 84.2394 286.959V294.842C84.2394 295.321 84.6275 295.709 85.1062 295.709H98.7589C99.2376 295.709 99.6257 295.321 99.6257 294.842V286.959Z" fill="#CBCBCB"/>
<path d="M99.6257 295.227C99.6257 294.962 99.4105 294.747 99.1449 294.747H79.912C79.6465 294.747 79.4312 294.962 79.4312 295.227C79.4312 295.493 79.6465 295.708 79.912 295.708H99.1449C99.4105 295.708 99.6257 295.493 99.6257 295.227Z" fill="#CBCBCB"/>
<rect width="25.1748" height="0.961645" rx="0.480822" transform="matrix(-1 0 0 1 100.588 295.708)" fill="#9E9E9E"/>
<circle r="1.28106" transform="matrix(-1 0 0 1 92.2521 291.22)" fill="#E7E7E7"/>
</g>
<mask id="mask7" mask-type="alpha" maskUnits="userSpaceOnUse" x="61" y="280" width="26" height="35">
<rect width="25.1748" height="34.6192" transform="matrix(-1 0 0 1 86.881 280.351)" fill="#C4C4C4"/>
</mask>
<g mask="url(#mask7)">
<path d="M73.3235 303.43C79.7565 303.43 83.807 310.052 83.807 313.126C83.807 316.2 78.5652 316.673 73.3235 316.673C68.0817 316.673 62.8399 316.2 62.8399 313.126C62.8399 310.052 66.8904 303.43 73.3235 303.43Z" fill="#319BD0"/>
<path d="M69.5713 313.047C68.2891 313.107 65.5324 313.768 64.7631 315.932" stroke="#1A8AC1" stroke-width="3.86236" stroke-linecap="round"/>
<path d="M68.6096 312.21C68.6095 312.538 68.7066 312.858 68.8884 313.13C69.0703 313.402 69.3288 313.615 69.6313 313.74C69.9338 313.865 70.2666 313.898 70.5877 313.834C70.9089 313.77 71.2038 313.613 71.4353 313.381C71.6669 313.15 71.8245 312.855 71.8884 312.534C71.9522 312.212 71.9194 311.88 71.7941 311.577C71.6688 311.275 71.4566 311.016 71.1843 310.834C70.9121 310.652 70.592 310.555 70.2646 310.555C69.8257 310.555 69.4047 310.73 69.0943 311.04C68.7839 311.351 68.6096 311.772 68.6096 312.21Z" fill="#F6D5B3"/>
<path d="M65.4876 295.571C65.4876 300.443 68.7716 304.393 73.6439 304.393C78.5161 304.393 82.1327 300.443 82.1327 295.571C82.1327 290.698 78.5159 286.748 73.6439 286.748C68.7718 286.748 65.4876 290.698 65.4876 295.571Z" fill="#F6D5B3"/>
<path d="M65.9438 296.35C65.9438 295.05 67.7438 294.15 67.7438 294.15C67.7438 294.15 67.9438 295.15 68.3438 295.85C71.0438 293.05 72.8438 293.05 77.2438 292.05C77.2438 292.35 77.4438 292.65 76.8438 293.55C77.6438 293.55 78.6438 293.35 79.4438 292.35C80.0438 292.95 81.6438 294.45 81.4438 298.35C82.6438 296.95 82.2438 297.85 82.2438 297.05C82.4438 295.05 82.4438 294.25 81.8438 292.05C81.8438 292.05 82.4438 292.15 83.1438 292.15C81.6438 290.95 81.9438 289.85 80.1438 287.95C79.1438 286.85 77.9438 286.05 76.6438 285.45C75.1438 284.85 74.2438 284.65 72.9438 284.05C73.1438 284.65 73.2438 285.15 73.6438 285.45C70.4438 285.65 69.6438 286.05 68.4438 286.75C67.6438 287.25 66.0438 288.85 65.1438 289.15C65.3438 289.25 65.5438 289.65 66.7438 289.25C65.6438 290.45 64.2438 293.65 64.8438 296.25C65.0438 297.35 65.2438 297.65 66.1438 298.95C65.8438 297.55 65.9438 297.65 65.9438 296.35Z" fill="#CCB794"/>
<path d="M80.4678 297.558C80.4677 297.829 80.5481 298.094 80.6987 298.32C80.8492 298.545 81.0633 298.721 81.3137 298.825C81.5642 298.928 81.8398 298.956 82.1056 298.903C82.3715 298.85 82.6158 298.719 82.8074 298.528C82.9991 298.336 83.1297 298.092 83.1825 297.826C83.2354 297.56 83.2083 297.284 83.1045 297.034C83.0007 296.784 82.825 296.569 82.5996 296.419C82.3742 296.268 82.1092 296.188 81.8381 296.188C81.6581 296.188 81.48 296.223 81.3137 296.292C81.1474 296.361 80.9964 296.462 80.8691 296.589C80.7419 296.717 80.6409 296.868 80.5721 297.034C80.5032 297.2 80.4678 297.378 80.4678 297.558Z" fill="#F6D5B3"/>
<path d="M64.4268 297.558C64.4267 297.829 64.5071 298.094 64.6576 298.32C64.8082 298.545 65.0223 298.721 65.2727 298.825C65.5232 298.928 65.7987 298.956 66.0646 298.903C66.3305 298.85 66.5747 298.719 66.7664 298.528C66.9581 298.336 67.0886 298.092 67.1415 297.826C67.1944 297.56 67.1672 297.284 67.0635 297.034C66.9597 296.784 66.784 296.569 66.5586 296.419C66.3332 296.268 66.0682 296.188 65.7971 296.188C65.4336 296.188 65.0851 296.332 64.8281 296.589C64.5711 296.846 64.4268 297.195 64.4268 297.558Z" fill="#F6D5B3"/>
<path d="M76.6627 296.944C76.6627 297.094 76.707 297.24 76.7901 297.364C76.8731 297.488 76.9912 297.585 77.1293 297.643C77.2674 297.7 77.4195 297.715 77.5661 297.686C77.7128 297.657 77.8475 297.585 77.9533 297.479C78.059 297.373 78.1311 297.238 78.1603 297.092C78.1895 296.945 78.1745 296.793 78.1173 296.655C78.0601 296.517 77.9632 296.399 77.8388 296.316C77.7145 296.233 77.5683 296.188 77.4188 296.188C77.2183 296.188 77.026 296.268 76.8843 296.41C76.7425 296.551 76.6628 296.744 76.6627 296.944Z" fill="#804C3F"/>
<path d="M69.2685 296.944C69.2684 297.094 69.3127 297.24 69.3958 297.364C69.4788 297.489 69.5969 297.585 69.7351 297.643C69.8732 297.7 70.0253 297.715 70.1719 297.686C70.3186 297.657 70.4533 297.585 70.5591 297.479C70.6648 297.373 70.7368 297.238 70.766 297.092C70.7952 296.945 70.7802 296.793 70.7229 296.655C70.6657 296.517 70.5687 296.399 70.4444 296.316C70.32 296.232 70.1738 296.188 70.0243 296.188C69.8238 296.188 69.6316 296.268 69.4899 296.41C69.3482 296.551 69.2685 296.744 69.2685 296.944Z" fill="#804C3F"/>
<path d="M73.8086 306.694H73.614C73.6794 306.694 73.7437 306.69 73.8086 306.689V306.694Z" fill="#B52A22"/>
<path d="M71.7998 300.378C72.5406 301.38 75.068 301.402 75.6998 300.334" stroke="#804C3F" stroke-width="0.53" stroke-miterlimit="10" stroke-linecap="round" stroke-linejoin="round"/>
<path d="M73.6567 298.875C73.9214 298.872 74.1337 298.597 74.1308 298.26C74.128 297.923 73.911 297.652 73.6463 297.654C73.3816 297.657 73.1693 297.932 73.1722 298.269C73.175 298.605 73.3919 298.877 73.6567 298.875Z" fill="#D36744"/>
<path d="M85.9192 305.259C85.9192 304.78 85.5311 304.392 85.0524 304.392H71.3997C70.921 304.392 70.5329 304.78 70.5329 305.259V313.142C70.5329 313.62 70.921 314.009 71.3997 314.009H85.0524C85.5311 314.009 85.9192 313.62 85.9192 313.142V305.259Z" fill="#CBCBCB"/>
<path d="M85.9192 313.527C85.9192 313.262 85.7039 313.046 85.4384 313.046H66.2055C65.9399 313.046 65.7246 313.262 65.7246 313.527C65.7246 313.793 65.9399 314.008 66.2055 314.008H85.4384C85.7039 314.008 85.9192 313.793 85.9192 313.527Z" fill="#CBCBCB"/>
<rect width="25.1748" height="0.961645" rx="0.480822" transform="matrix(-1 0 0 1 86.8812 314.008)" fill="#9E9E9E"/>
<circle r="1.28106" transform="matrix(-1 0 0 1 78.5455 309.52)" fill="#E7E7E7"/>
</g>
<mask id="mask8" mask-type="alpha" maskUnits="userSpaceOnUse" x="89" y="280" width="26" height="35">
<rect width="25.1748" height="34.6192" transform="matrix(-1 0 0 1 114.294 280.351)" fill="#C4C4C4"/>
</mask>
<g mask="url(#mask8)">
<path d="M100.736 303.43C107.169 303.43 111.22 310.051 111.22 313.125C111.22 316.199 105.978 316.672 100.736 316.672C95.4945 316.672 90.2528 316.199 90.2528 313.125C90.2528 310.051 94.3032 303.43 100.736 303.43Z" fill="#319BD0"/>
<path d="M96.984 313.047C95.7018 313.107 92.9451 313.768 92.1758 315.932" stroke="#1A8AC1" stroke-width="3.86236" stroke-linecap="round"/>
<path d="M96.0224 312.21C96.0224 312.538 96.1194 312.858 96.3013 313.13C96.4831 313.402 96.7417 313.615 97.0441 313.74C97.3466 313.865 97.6795 313.898 98.0006 313.834C98.3217 313.77 98.6167 313.613 98.8482 313.381C99.0797 313.15 99.2374 312.855 99.3012 312.534C99.3651 312.212 99.3323 311.88 99.207 311.577C99.0816 311.275 98.8694 311.016 98.5972 310.834C98.3249 310.652 98.0049 310.555 97.6774 310.555C97.2385 310.555 96.8175 310.73 96.5072 311.04C96.1968 311.351 96.0224 311.772 96.0224 312.21Z" fill="#F6D5B3"/>
<path d="M107.88 297.558C107.88 297.829 107.961 298.094 108.111 298.319C108.262 298.545 108.476 298.72 108.726 298.824C108.977 298.928 109.252 298.955 109.518 298.902C109.784 298.849 110.028 298.719 110.22 298.527C110.412 298.335 110.542 298.091 110.595 297.825C110.648 297.559 110.621 297.284 110.517 297.033C110.413 296.783 110.238 296.569 110.012 296.418C109.787 296.268 109.522 296.187 109.251 296.188C109.071 296.188 108.893 296.223 108.726 296.292C108.56 296.361 108.409 296.462 108.282 296.589C108.155 296.716 108.054 296.867 107.985 297.033C107.916 297.2 107.88 297.378 107.88 297.558Z" fill="#F6D5B3"/>
<path d="M91.8395 297.558C91.8394 297.829 91.9198 298.094 92.0704 298.319C92.2209 298.545 92.435 298.72 92.6854 298.824C92.9359 298.928 93.2115 298.955 93.4773 298.902C93.7432 298.849 93.9875 298.719 94.1791 298.527C94.3708 298.335 94.5014 298.091 94.5542 297.825C94.6071 297.559 94.58 297.284 94.4762 297.033C94.3724 296.783 94.1967 296.569 93.9713 296.418C93.7459 296.268 93.4809 296.187 93.2098 296.188C92.8464 296.188 92.4978 296.332 92.2408 296.589C91.9838 296.846 91.8395 297.194 91.8395 297.558Z" fill="#F6D5B3"/>
<path d="M92.9003 295.57C92.9003 300.442 96.1843 304.392 101.057 304.392C105.929 304.392 109.545 300.442 109.545 295.57C109.545 290.698 105.929 286.747 101.057 286.747C96.1845 286.747 92.9003 290.697 92.9003 295.57Z" fill="#F6D5B3"/>
<path d="M97.8309 294.851C104.331 294.851 106.131 293.051 106.131 291.351C107.131 293.051 107.931 295.851 107.831 297.551C107.731 300.451 107.231 301.751 105.831 302.951C108.231 302.151 111.131 299.251 111.031 296.051C111.031 294.05 111 290.05 108.5 287.05C106.5 284.65 103.331 284.451 103.031 284.551C102.631 284.351 101.831 283.751 100.431 283.651C93.2309 283.551 91.2309 290.551 91.0309 291.951C90.8309 293.651 90.6309 294.651 91.0309 297.551C91.4309 300.251 94.8309 302.851 96.3309 302.851C95.3309 301.851 94.3309 300.151 94.3309 298.351C94.3309 296.551 94.2309 296.151 96.0309 295.351C97.8309 294.551 99.2309 293.451 99.3309 293.251C99.3309 293.451 98.7309 294.251 97.8309 294.851Z" fill="#84615E"/>
<path d="M104.075 296.943C104.075 297.093 104.12 297.239 104.203 297.363C104.286 297.488 104.404 297.585 104.542 297.642C104.68 297.699 104.832 297.714 104.979 297.685C105.125 297.656 105.26 297.584 105.366 297.478C105.472 297.372 105.544 297.238 105.573 297.091C105.602 296.944 105.587 296.792 105.53 296.654C105.473 296.516 105.376 296.398 105.251 296.315C105.127 296.232 104.981 296.188 104.831 296.188C104.631 296.187 104.439 296.267 104.297 296.409C104.155 296.551 104.075 296.743 104.075 296.943Z" fill="#804C3F"/>
<path d="M96.6812 296.943C96.6811 297.093 96.7254 297.239 96.8085 297.363C96.8916 297.488 97.0096 297.585 97.1478 297.642C97.2859 297.699 97.438 297.714 97.5846 297.685C97.7313 297.656 97.8661 297.584 97.9718 297.478C98.0775 297.372 98.1496 297.238 98.1787 297.091C98.2079 296.944 98.1929 296.792 98.1356 296.654C98.0784 296.516 97.9815 296.398 97.8571 296.315C97.7327 296.232 97.5865 296.187 97.437 296.188C97.2366 296.188 97.0443 296.267 96.9026 296.409C96.7609 296.551 96.6812 296.743 96.6812 296.943Z" fill="#804C3F"/>
<path d="M101.221 306.693H101.027C101.092 306.693 101.156 306.69 101.221 306.688V306.693Z" fill="#B52A22"/>
<path d="M99.1998 300.478C99.9406 301.48 102.468 301.502 103.1 300.434" stroke="#804C3F" stroke-width="0.53" stroke-miterlimit="10" stroke-linecap="round" stroke-linejoin="round"/>
<path d="M101.057 298.975C101.321 298.972 101.534 298.697 101.531 298.36C101.528 298.024 101.311 297.752 101.046 297.754C100.782 297.757 100.569 298.032 100.572 298.369C100.575 298.706 100.792 298.977 101.057 298.975Z" fill="#D36744"/>
<path d="M113.332 305.259C113.332 304.78 112.944 304.392 112.465 304.392H98.8125C98.3338 304.392 97.9457 304.78 97.9457 305.259V313.142C97.9457 313.62 98.3338 314.009 98.8125 314.009H112.465C112.944 314.009 113.332 313.62 113.332 313.142V305.259Z" fill="#CBCBCB"/>
<path d="M113.332 313.527C113.332 313.262 113.117 313.046 112.851 313.046H93.6183C93.3528 313.046 93.1375 313.262 93.1375 313.527C93.1375 313.793 93.3528 314.008 93.6183 314.008H112.851C113.117 314.008 113.332 313.793 113.332 313.527Z" fill="#CBCBCB"/>
<rect width="25.1748" height="0.961645" rx="0.480822" transform="matrix(-1 0 0 1 114.294 314.008)" fill="#9E9E9E"/>
<circle r="1.28106" transform="matrix(-1 0 0 1 105.958 309.52)" fill="#E7E7E7"/>
</g>
<mask id="mask9" mask-type="alpha" maskUnits="userSpaceOnUse" x="48" y="298" width="26" height="36">
<rect width="25.1748" height="34.6192" transform="matrix(-1 0 0 1 73.1748 298.651)" fill="#C4C4C4"/>
</mask>
<g mask="url(#mask9)">
<path d="M59.6172 321.73C66.0502 321.73 70.1007 328.352 70.1007 331.425C70.1007 334.499 64.8589 334.972 59.6172 334.972C54.3754 334.972 49.1336 334.499 49.1336 331.425C49.1336 328.352 53.1841 321.73 59.6172 321.73Z" fill="#319BD0"/>
<path d="M55.865 331.347C54.5828 331.407 51.8261 332.068 51.0568 334.232" stroke="#1A8AC1" stroke-width="3.86236" stroke-linecap="round"/>
<path d="M54.9033 330.51C54.9032 330.837 55.0003 331.157 55.1821 331.429C55.364 331.702 55.6225 331.914 55.925 332.039C56.2275 332.164 56.5603 332.197 56.8814 332.133C57.2026 332.069 57.4975 331.912 57.729 331.68C57.9606 331.449 58.1182 331.154 58.1821 330.833C58.2459 330.512 58.2131 330.179 58.0878 329.876C57.9625 329.574 57.7503 329.315 57.478 329.133C57.2058 328.951 56.8857 328.854 56.5583 328.854C56.1194 328.854 55.6984 329.029 55.388 329.339C55.0776 329.65 54.9033 330.071 54.9033 330.51Z" fill="#F6D5B3"/>
<path d="M66.7613 315.858C66.7613 316.129 66.8417 316.394 66.9922 316.619C67.1428 316.845 67.3569 317.02 67.6073 317.124C67.8578 317.228 68.1333 317.255 68.3992 317.202C68.6651 317.149 68.9093 317.019 69.101 316.827C69.2927 316.635 69.4232 316.391 69.4761 316.125C69.529 315.859 69.5018 315.584 69.3981 315.333C69.2943 315.083 69.1186 314.869 68.8932 314.718C68.6678 314.568 68.4028 314.487 68.1317 314.487C67.9517 314.487 67.7735 314.523 67.6073 314.592C67.441 314.66 67.29 314.761 67.1627 314.889C67.0355 315.016 66.9345 315.167 66.8657 315.333C66.7968 315.499 66.7613 315.678 66.7613 315.858Z" fill="#F6D5B3"/>
<path d="M50.7205 315.858C50.7204 316.129 50.8008 316.394 50.9513 316.619C51.1019 316.845 51.316 317.02 51.5664 317.124C51.8169 317.228 52.0924 317.255 52.3583 317.202C52.6242 317.149 52.8684 317.019 53.0601 316.827C53.2518 316.635 53.3823 316.391 53.4352 316.125C53.4881 315.859 53.4609 315.584 53.3572 315.333C53.2534 315.083 53.0777 314.869 52.8523 314.718C52.6269 314.568 52.3619 314.487 52.0908 314.487C51.7273 314.487 51.3788 314.632 51.1218 314.889C50.8648 315.146 50.7205 315.494 50.7205 315.858Z" fill="#F6D5B3"/>
<path d="M51.7812 313.869C51.7812 318.741 55.0652 322.692 59.9374 322.692C64.8097 322.692 68.4263 318.741 68.4263 313.869C68.4263 308.997 64.8095 305.047 59.9374 305.047C55.0654 305.047 51.7812 308.996 51.7812 313.869Z" fill="#F6D5B3"/>
<path d="M57.6756 309.25C57.0756 309.95 56.6756 310.75 56.8756 311.75C55.6756 310.65 55.8756 309.55 56.0756 308.85C53.4756 311.25 53.0756 313.35 53.0756 315.55C53.0756 318.85 54.4501 320.73 56.9501 322.13C56.2501 322.43 55.8756 322.55 55.1756 322.85C54.3756 322.75 54.1756 322.55 52.9756 321.95C51.7756 321.35 49.9756 319.85 50.4756 316.55C50.5756 315.65 48.3756 312.65 50.7756 309.55C53.1756 306.85 54.2756 302.95 57.9756 302.95C59.4756 302.95 60.1756 303.25 60.2756 303.35C60.3756 303.25 60.8756 303.05 61.6756 303.15C68.9756 303.55 74.4756 316.85 65.8756 321.95C65.2756 322.35 64.1756 322.65 63.7756 322.75C63.2756 322.55 62.9756 322.35 62.6756 322.25C65.5756 320.65 66.4756 319.05 66.6756 317.45C66.7756 316.55 66.7756 315.65 66.5756 314.85C66.3756 314.05 66.0756 313.05 65.4756 312.55C64.7756 312.75 63.0756 313.25 61.5756 313.05C59.7756 312.75 57.6756 311.25 57.6756 309.25Z" fill="#9E685C"/>
<path d="M62.9563 315.243C62.9563 315.393 63.0006 315.539 63.0836 315.663C63.1667 315.788 63.2847 315.884 63.4229 315.942C63.561 315.999 63.713 316.014 63.8597 315.985C64.0064 315.956 64.1411 315.884 64.2469 315.778C64.3526 315.672 64.4247 315.538 64.4538 315.391C64.483 315.244 64.4681 315.092 64.4109 314.954C64.3536 314.816 64.2567 314.698 64.1324 314.615C64.0081 314.532 63.8619 314.487 63.7124 314.487C63.5119 314.487 63.3196 314.567 63.1778 314.709C63.0361 314.85 62.9564 315.043 62.9563 315.243Z" fill="#804C3F"/>
<path d="M55.5622 315.243C55.5621 315.393 55.6064 315.539 55.6895 315.663C55.7725 315.788 55.8906 315.885 56.0288 315.942C56.1669 315.999 56.319 316.014 56.4656 315.985C56.6123 315.956 56.747 315.884 56.8528 315.778C56.9585 315.672 57.0305 315.537 57.0597 315.391C57.0889 315.244 57.0739 315.092 57.0166 314.954C56.9594 314.816 56.8624 314.698 56.7381 314.615C56.6137 314.532 56.4675 314.487 56.318 314.487C56.1175 314.487 55.9253 314.567 55.7836 314.709C55.6419 314.85 55.5622 315.043 55.5622 315.243Z" fill="#804C3F"/>
<path d="M60.1023 324.992H59.9077C59.9731 324.992 60.0374 324.988 60.1023 324.987V324.992Z" fill="#B52A22"/>
<path d="M58 318.777C58.7408 319.78 61.2682 319.801 61.9 318.734" stroke="#804C3F" stroke-width="0.53" stroke-miterlimit="10" stroke-linecap="round" stroke-linejoin="round"/>
<path d="M59.8568 317.274C60.1216 317.272 60.3339 316.997 60.331 316.66C60.3282 316.323 60.1112 316.052 59.8465 316.054C59.5818 316.056 59.3695 316.331 59.3724 316.668C59.3752 317.005 59.5921 317.276 59.8568 317.274Z" fill="#D36744"/>
<path d="M72.213 323.559C72.213 323.08 71.8249 322.692 71.3462 322.692H57.6935C57.2148 322.692 56.8267 323.08 56.8267 323.559V331.442C56.8267 331.921 57.2148 332.309 57.6935 332.309H71.3462C71.8249 332.309 72.213 331.921 72.213 331.442V323.559Z" fill="#CBCBCB"/>
<path d="M72.213 331.828C72.213 331.563 71.9977 331.347 71.7322 331.347H52.4993C52.2337 331.347 52.0185 331.563 52.0185 331.828C52.0185 332.094 52.2337 332.309 52.4993 332.309H71.7322C71.9977 332.309 72.213 332.094 72.213 331.828Z" fill="#CBCBCB"/>
<rect width="25.1748" height="0.961645" rx="0.480822" transform="matrix(-1 0 0 1 73.175 332.309)" fill="#9E9E9E"/>
<circle r="1.28106" transform="matrix(-1 0 0 1 64.8394 327.82)" fill="#E7E7E7"/>
</g>
<mask id="mask10" mask-type="alpha" maskUnits="userSpaceOnUse" x="75" y="298" width="26" height="36">
<rect width="25.1748" height="34.6192" transform="matrix(-1 0 0 1 100.587 298.651)" fill="#C4C4C4"/>
</mask>
<g mask="url(#mask10)">
<path d="M87.0299 321.73C93.463 321.73 97.5134 328.352 97.5134 331.425C97.5134 334.499 92.2717 334.972 87.0299 334.972C81.7881 334.972 76.5463 334.499 76.5463 331.425C76.5463 328.352 80.5968 321.73 87.0299 321.73Z" fill="#319BD0"/>
<path d="M83.2777 331.347C81.9955 331.407 79.2388 332.068 78.4695 334.232" stroke="#1A8AC1" stroke-width="3.86236" stroke-linecap="round"/>
<path d="M82.3161 330.511C82.3161 330.838 82.4131 331.158 82.595 331.43C82.7768 331.703 83.0354 331.915 83.3378 332.04C83.6403 332.166 83.9732 332.198 84.2943 332.135C84.6154 332.071 84.9104 331.913 85.1419 331.681C85.3734 331.45 85.5311 331.155 85.5949 330.834C85.6588 330.513 85.626 330.18 85.5007 329.877C85.3753 329.575 85.1631 329.316 84.8909 329.135C84.6186 328.953 84.2986 328.856 83.9711 328.856C83.5322 328.856 83.1112 329.03 82.8009 329.34C82.4905 329.651 82.3161 330.072 82.3161 330.511Z" fill="#F6D5B3"/>
<path d="M94.1742 315.858C94.1741 316.129 94.2545 316.394 94.4051 316.62C94.5557 316.845 94.7697 317.021 95.0201 317.125C95.2706 317.228 95.5462 317.255 95.8121 317.203C96.0779 317.15 96.3222 317.019 96.5139 316.827C96.7055 316.636 96.8361 316.392 96.889 316.126C96.9418 315.86 96.9147 315.584 96.8109 315.334C96.7072 315.083 96.5315 314.869 96.306 314.719C96.0806 314.568 95.8156 314.488 95.5445 314.488C95.3646 314.488 95.1864 314.523 95.0201 314.592C94.8539 314.661 94.7028 314.762 94.5755 314.889C94.4483 315.016 94.3474 315.167 94.2785 315.334C94.2096 315.5 94.1742 315.678 94.1742 315.858Z" fill="#F6D5B3"/>
<path d="M78.1332 315.858C78.1331 316.129 78.2135 316.394 78.3641 316.62C78.5146 316.845 78.7287 317.021 78.9791 317.125C79.2296 317.228 79.5052 317.255 79.771 317.203C80.0369 317.15 80.2812 317.019 80.4728 316.827C80.6645 316.636 80.7951 316.392 80.8479 316.126C80.9008 315.86 80.8737 315.584 80.7699 315.334C80.6661 315.083 80.4904 314.869 80.265 314.719C80.0396 314.568 79.7746 314.488 79.5035 314.488C79.1401 314.488 78.7915 314.632 78.5345 314.889C78.2775 315.146 78.1332 315.495 78.1332 315.858Z" fill="#F6D5B3"/>
<path d="M79.194 313.869C79.194 318.741 82.478 322.692 87.3503 322.692C92.2225 322.692 95.8391 318.741 95.8391 313.869C95.8391 308.997 92.2223 305.047 87.3503 305.047C82.4782 305.047 79.194 308.996 79.194 313.869Z" fill="#F6D5B3"/>
<path d="M87.8 309.05C90.6 309.05 91.2 308.65 91.7 308.15C92 307.85 92.4 307.85 92.7 308.05C93.5 308.65 95.3 310.75 95.8 314.95C96.5 312.85 96.1 310.15 95.8 309.05C94.6 305.75 93.3 305.85 94.1 303.05C93 302.95 92.2 303.45 92.1 303.95C87 301.75 78.5 302.75 78 312.55C78.0026 312.501 79 312.35 79 312.35C79 313.75 79.1 314.55 79.7 316.05C79.7 315.65 79.8 314.75 80.2 314.05C80.5 313.55 81 313.35 81.6 313.25C86.3 312.75 84.8 309.05 87.8 309.05Z" fill="#5A4B46"/>
<path d="M90.3692 315.244C90.3691 315.393 90.4134 315.539 90.4965 315.664C90.5795 315.788 90.6976 315.885 90.8357 315.942C90.9739 315.999 91.1259 316.014 91.2726 315.985C91.4192 315.956 91.554 315.884 91.6597 315.778C91.7655 315.673 91.8375 315.538 91.8667 315.391C91.8959 315.245 91.8809 315.093 91.8237 314.955C91.7665 314.816 91.6696 314.698 91.5452 314.615C91.4209 314.532 91.2747 314.488 91.1252 314.488C90.9247 314.488 90.7325 314.567 90.5907 314.709C90.4489 314.851 90.3692 315.043 90.3692 315.244Z" fill="#804C3F"/>
<path d="M82.9749 315.244C82.9748 315.393 83.0191 315.539 83.1022 315.664C83.1853 315.788 83.3033 315.885 83.4415 315.942C83.5796 316 83.7317 316.014 83.8784 315.985C84.025 315.956 84.1598 315.884 84.2655 315.778C84.3712 315.673 84.4433 315.538 84.4724 315.391C84.5016 315.245 84.4866 315.093 84.4293 314.954C84.3721 314.816 84.2752 314.698 84.1508 314.615C84.0264 314.532 83.8802 314.488 83.7307 314.488C83.5303 314.488 83.338 314.567 83.1963 314.709C83.0546 314.851 82.9749 315.043 82.9749 315.244Z" fill="#804C3F"/>
<path d="M87.5149 324.993H87.3203C87.3857 324.993 87.45 324.989 87.5149 324.988V324.993Z" fill="#B52A22"/>
<path d="M85.5 318.778C86.2408 319.78 88.7682 319.802 89.4 318.734" stroke="#804C3F" stroke-width="0.53" stroke-miterlimit="10" stroke-linecap="round" stroke-linejoin="round"/>
<path d="M87.3568 317.274C87.6216 317.272 87.8339 316.997 87.831 316.66C87.8282 316.323 87.6112 316.052 87.3465 316.054C87.0818 316.057 86.8695 316.331 86.8724 316.668C86.8752 317.005 87.0921 317.277 87.3568 317.274Z" fill="#D36744"/>
<path d="M99.6257 323.558C99.6257 323.079 99.2376 322.691 98.7589 322.691H85.1062C84.6275 322.691 84.2394 323.079 84.2394 323.558V331.441C84.2394 331.92 84.6275 332.308 85.1062 332.308H98.7589C99.2376 332.308 99.6257 331.92 99.6257 331.441V323.558Z" fill="#CBCBCB"/>
<path d="M99.6257 331.826C99.6257 331.56 99.4105 331.345 99.1449 331.345H79.912C79.6465 331.345 79.4312 331.56 79.4312 331.826C79.4312 332.092 79.6465 332.307 79.912 332.307H99.1449C99.4105 332.307 99.6257 332.092 99.6257 331.826Z" fill="#CBCBCB"/>
<rect width="25.1748" height="0.961645" rx="0.480822" transform="matrix(-1 0 0 1 100.588 332.307)" fill="#9E9E9E"/>
<circle r="1.28106" transform="matrix(-1 0 0 1 92.2521 327.819)" fill="#E7E7E7"/>
</g>
<mask id="mask11" mask-type="alpha" maskUnits="userSpaceOnUse" x="102" y="298" width="26" height="36">
<rect width="25.1748" height="34.6192" transform="matrix(-1 0 0 1 128 298.651)" fill="#C4C4C4"/>
</mask>
<g mask="url(#mask11)">
<path d="M122.968 325.65C122.968 324.45 121.45 321.65 123.35 319.15L120.387 320.05H109.858L105.25 318.55C106.25 320.25 106.554 321.55 106.451 322.75C106.142 324.55 105 326.05 105.5 328.05L122.968 325.65Z" fill="#D2B19E"/>
<path d="M114.442 321.731C120.875 321.731 124.926 328.353 124.926 331.427C124.926 334.501 119.684 334.974 114.442 334.974C109.201 334.974 103.959 334.501 103.959 331.427C103.959 328.353 108.009 321.732 114.442 321.731Z" fill="#319BD0"/>
<path d="M110.69 331.348C109.408 331.408 106.651 332.069 105.882 334.233" stroke="#1A8AC1" stroke-width="3.86236" stroke-linecap="round"/>
<path d="M109.728 330.511C109.728 330.838 109.825 331.158 110.007 331.431C110.189 331.703 110.448 331.915 110.75 332.04C111.053 332.166 111.386 332.199 111.707 332.135C112.028 332.071 112.323 331.913 112.554 331.682C112.786 331.45 112.943 331.155 113.007 330.834C113.071 330.513 113.038 330.18 112.913 329.878C112.788 329.575 112.575 329.317 112.303 329.135C112.031 328.953 111.711 328.856 111.384 328.856C110.945 328.856 110.524 329.03 110.213 329.341C109.903 329.651 109.728 330.072 109.728 330.511Z" fill="#F6D5B3"/>
<path d="M121.587 315.859C121.587 316.13 121.667 316.395 121.818 316.62C121.968 316.846 122.182 317.021 122.433 317.125C122.683 317.229 122.959 317.256 123.225 317.203C123.49 317.15 123.735 317.02 123.926 316.828C124.118 316.636 124.249 316.392 124.301 316.126C124.354 315.86 124.327 315.585 124.223 315.334C124.12 315.084 123.944 314.87 123.719 314.719C123.493 314.569 123.228 314.488 122.957 314.488C122.777 314.488 122.599 314.524 122.433 314.593C122.266 314.661 122.115 314.762 121.988 314.89C121.861 315.017 121.76 315.168 121.691 315.334C121.622 315.5 121.587 315.679 121.587 315.859Z" fill="#F6D5B3"/>
<path d="M105.546 315.859C105.546 316.13 105.626 316.395 105.777 316.62C105.927 316.846 106.141 317.021 106.392 317.125C106.642 317.229 106.918 317.256 107.184 317.203C107.449 317.15 107.694 317.02 107.885 316.828C108.077 316.636 108.208 316.392 108.26 316.126C108.313 315.86 108.286 315.585 108.182 315.334C108.079 315.084 107.903 314.87 107.677 314.719C107.452 314.569 107.187 314.488 106.916 314.488C106.553 314.488 106.204 314.633 105.947 314.89C105.69 315.147 105.546 315.495 105.546 315.859Z" fill="#F6D5B3"/>
<path d="M106.607 313.871C106.607 318.743 109.891 322.693 114.763 322.693C119.635 322.693 123.252 318.743 123.252 313.871C123.252 308.998 119.635 305.048 114.763 305.048C109.891 305.048 106.607 308.998 106.607 313.871Z" fill="#F6D5B3"/>
<path d="M117.782 315.244C117.782 315.394 117.826 315.54 117.909 315.664C117.992 315.789 118.11 315.885 118.248 315.943C118.386 316 118.538 316.015 118.685 315.986C118.832 315.957 118.966 315.885 119.072 315.779C119.178 315.673 119.25 315.539 119.279 315.392C119.308 315.245 119.293 315.093 119.236 314.955C119.179 314.817 119.082 314.699 118.958 314.616C118.833 314.533 118.687 314.488 118.538 314.488C118.337 314.488 118.145 314.568 118.003 314.71C117.861 314.851 117.782 315.044 117.782 315.244Z" fill="#804C3F"/>
<path d="M113.054 302.556C115.654 302.456 116.254 303.556 116.254 303.556C116.254 303.556 118.454 302.756 120.054 303.956C121.054 304.656 123.454 307.256 124.254 309.856C125.054 312.456 125 315.55 124.5 317.05C124.362 317.463 123.16 320.85 120 320.85C122.5 318.05 122.652 314.352 121.5 312.05C120.846 310.744 119.8 309.05 117 307.55C115 310.55 110.654 311.556 109.354 313.056C107.954 314.656 107.354 316.856 108.754 320.056C109.654 322.256 105.654 320.056 104.754 317.656C103.854 315.256 105.554 314.456 106.654 309.756C107.654 305.056 110.854 302.656 113.054 302.556Z" fill="#D2B19E"/>
<path d="M110.387 315.244C110.387 315.394 110.432 315.54 110.515 315.664C110.598 315.789 110.716 315.885 110.854 315.943C110.992 316 111.144 316.015 111.291 315.986C111.438 315.957 111.572 315.885 111.678 315.779C111.784 315.673 111.856 315.538 111.885 315.392C111.914 315.245 111.899 315.093 111.842 314.955C111.785 314.817 111.688 314.699 111.563 314.616C111.439 314.533 111.293 314.488 111.143 314.488C110.943 314.488 110.751 314.568 110.609 314.71C110.467 314.851 110.387 315.044 110.387 315.244Z" fill="#804C3F"/>
<path d="M114.927 324.993H114.733C114.798 324.993 114.863 324.99 114.927 324.988V324.993Z" fill="#B52A22"/>
<path d="M112.8 318.777C113.541 319.78 116.068 319.801 116.7 318.734" stroke="#804C3F" stroke-width="0.53" stroke-miterlimit="10" stroke-linecap="round" stroke-linejoin="round"/>
<path d="M114.657 317.274C114.921 317.272 115.134 316.997 115.131 316.66C115.128 316.323 114.911 316.052 114.646 316.054C114.382 316.056 114.169 316.331 114.172 316.668C114.175 317.005 114.392 317.276 114.657 317.274Z" fill="#D36744"/>
<path d="M127.038 323.56C127.038 323.081 126.65 322.693 126.171 322.693H112.518C112.04 322.693 111.652 323.081 111.652 323.56V331.443C111.652 331.921 112.04 332.309 112.518 332.309H126.171C126.65 332.309 127.038 331.921 127.038 331.443V323.56Z" fill="#CBCBCB"/>
<path d="M127.038 331.829C127.038 331.564 126.823 331.348 126.557 331.348H107.324C107.059 331.348 106.843 331.564 106.843 331.829C106.843 332.095 107.059 332.31 107.324 332.31H126.557C126.823 332.31 127.038 332.095 127.038 331.829Z" fill="#CBCBCB"/>
<rect width="25.1748" height="0.961645" rx="0.480822" transform="matrix(-1 0 0 1 128 332.309)" fill="#9E9E9E"/>
<circle r="1.28106" transform="matrix(-1 0 0 1 119.665 327.82)" fill="#E7E7E7"/>
</g>
</svg>
