<svg width="375" height="381" viewBox="0 0 375 381" fill="none" xmlns="http://www.w3.org/2000/svg">
<rect width="375" height="381" fill="#FAFAFA"/>
<rect x="28" y="28" width="319" height="325" rx="3" fill="#2A2F35"/>
<rect opacity="0.08" x="50" y="286" width="275" height="27" rx="3" fill="white"/>
<rect opacity="0.08" x="50" y="82" width="275" height="112" rx="3" fill="white"/>
<path fill-rule="evenodd" clip-rule="evenodd" d="M289 194H269V251H254L279 276L304 251H289V194Z" fill="url(#paint0_linear)"/>
<path d="M43.3711 52.2983H42.2095L48.4746 41.8564H49.5981L43.3711 52.2983ZM51.1787 52.2983H50.0171L56.2822 41.8564H57.4058L51.1787 52.2983ZM68.2959 42.237C68.3219 42.484 68.3479 42.939 68.3479 43.173V47.502C68.3479 47.892 68.3089 48.308 68.2959 48.503H69.4919C69.4659 48.269 69.4529 47.84 69.4529 47.515V43.173C69.4529 42.861 69.4659 42.484 69.4919 42.237H68.2959ZM74.3149 42.146C74.3409 42.458 74.3799 42.835 74.3799 43.264V45.318C74.3799 47.775 74.2239 48.828 73.2879 49.907C72.4819 50.817 71.3639 51.337 70.1679 51.636L71.0129 52.533C71.9619 52.208 73.2619 51.649 74.1069 50.635C75.0429 49.517 75.4589 48.49 75.4589 45.37V43.264C75.4589 42.835 75.4849 42.458 75.5109 42.146H74.3149ZM88.8229 42.848C88.5759 42.913 88.3289 42.913 88.1339 42.913H81.6079C81.1789 42.913 80.6719 42.874 80.3079 42.835V43.979C80.6459 43.966 81.0879 43.94 81.6079 43.94H88.2509C88.0819 45.188 87.4709 46.995 86.5479 48.178C85.4559 49.569 83.9999 50.674 81.4779 51.311L82.3619 52.286C84.7539 51.532 86.3009 50.323 87.4839 48.802C88.5109 47.463 89.1349 45.37 89.4209 44.005C89.4729 43.758 89.5249 43.537 89.6159 43.355L88.8229 42.848ZM97.1689 46.774C97.2079 47.034 97.2469 47.294 97.2469 47.541C97.2469 49.244 96.9999 50.674 95.2449 51.857C94.9459 52.065 94.6339 52.195 94.3479 52.299L95.2709 53.027C98.0139 51.506 98.2739 49.543 98.2999 46.774H97.1689ZM102.083 44.889C101.914 44.928 101.563 44.954 101.368 44.954H94.9459C94.5559 44.954 94.0879 44.915 93.7239 44.863V45.942C94.1269 45.903 94.5559 45.89 94.9459 45.89L101.16 45.903C100.783 46.54 99.8469 47.684 98.9239 48.243L99.7689 48.828C100.939 48.022 102.031 46.397 102.408 45.786C102.473 45.682 102.59 45.526 102.668 45.435L102.083 44.889ZM114.888 43.355C114.68 43.433 114.394 43.472 114.043 43.472H110.507C110.624 43.29 110.728 43.108 110.819 42.926C110.949 42.679 111.183 42.25 111.404 41.912L110.195 41.509C110.117 41.847 109.935 42.315 109.792 42.536C109.233 43.706 107.959 45.591 105.71 46.93L106.607 47.606C108.024 46.657 109.116 45.5 109.896 44.408H114.29C114.03 45.591 113.237 47.268 112.223 48.464C111.04 49.842 109.415 51.025 107.036 51.727L107.972 52.572C110.416 51.675 111.963 50.479 113.146 49.036C114.303 47.632 115.096 45.864 115.447 44.564C115.525 44.356 115.655 44.057 115.759 43.875L114.888 43.355ZM127.393 43.147C127.172 43.238 126.886 43.277 126.535 43.277H122.986C123.09 43.108 123.181 42.952 123.259 42.796C123.389 42.549 123.623 42.107 123.831 41.769L122.661 41.392C122.57 41.73 122.375 42.198 122.245 42.432C121.66 43.615 120.308 45.565 118.072 46.943L118.943 47.619C120.399 46.631 121.556 45.357 122.388 44.2H126.808C126.561 45.227 125.924 46.566 125.131 47.671C124.117 47.06 123.025 46.436 122.271 46.046L121.608 46.813C122.336 47.216 123.428 47.866 124.455 48.529C123.272 49.829 121.582 51.077 119.32 51.766L120.256 52.572C122.544 51.727 124.182 50.453 125.352 49.114C125.846 49.452 126.275 49.764 126.587 50.011L127.302 49.075C126.977 48.841 126.535 48.542 126.041 48.23C126.951 46.956 127.614 45.513 127.939 44.369C128.017 44.161 128.134 43.849 128.238 43.667L127.393 43.147ZM132.775 42.237C132.801 42.484 132.827 42.939 132.827 43.173V47.502C132.827 47.892 132.788 48.308 132.775 48.503H133.971C133.945 48.269 133.932 47.84 133.932 47.515V43.173C133.932 42.861 133.945 42.484 133.971 42.237H132.775ZM138.794 42.146C138.82 42.458 138.859 42.835 138.859 43.264V45.318C138.859 47.775 138.703 48.828 137.767 49.907C136.961 50.817 135.843 51.337 134.647 51.636L135.492 52.533C136.441 52.208 137.741 51.649 138.586 50.635C139.522 49.517 139.938 48.49 139.938 45.37V43.264C139.938 42.835 139.964 42.458 139.99 42.146H138.794ZM145.853 42.471L145.112 43.264C146.074 43.914 147.699 45.305 148.349 45.981L149.168 45.162C148.44 44.434 146.776 43.082 145.853 42.471ZM144.735 51.181L145.424 52.247C147.595 51.844 149.233 51.051 150.533 50.219C152.496 48.997 154.004 47.229 154.901 45.604L154.277 44.499C153.523 46.098 151.937 48.022 149.935 49.283C148.7 50.05 147.01 50.843 144.735 51.181ZM161.479 43.784C161.583 43.602 161.687 43.42 161.778 43.238C161.908 43.004 162.142 42.562 162.35 42.224L161.154 41.821C161.076 42.159 160.881 42.627 160.751 42.861C160.179 44.018 158.905 45.916 156.669 47.255L157.566 47.918C158.996 46.982 160.075 45.825 160.868 44.72H165.249C164.989 45.903 164.196 47.593 163.182 48.776C161.999 50.167 160.374 51.337 157.982 52.039L158.931 52.897C161.362 51.987 162.922 50.804 164.105 49.361C165.262 47.944 166.055 46.189 166.406 44.876C166.471 44.668 166.601 44.369 166.705 44.187L165.847 43.667C165.639 43.745 165.353 43.784 165.002 43.784H161.479ZM165.158 41.899C165.509 42.38 165.951 43.173 166.211 43.693L166.913 43.381C166.64 42.848 166.172 42.068 165.847 41.6L165.158 41.899ZM166.588 41.379C166.952 41.86 167.381 42.601 167.667 43.16L168.356 42.848C168.122 42.367 167.615 41.561 167.277 41.08L166.588 41.379ZM171.372 49.374V48.074H174.245V49.374H171.372ZM174.245 46.046V47.32H171.372V46.046H174.245ZM175.181 45.214H170.449V52.936H171.372V50.141H174.245V51.87C174.245 52.039 174.193 52.091 173.998 52.104C173.829 52.117 173.244 52.117 172.594 52.091C172.724 52.338 172.854 52.689 172.906 52.936C173.79 52.936 174.349 52.936 174.713 52.78C175.064 52.624 175.181 52.377 175.181 51.883V45.214ZM179.367 51.779C179.367 51.974 179.302 52.026 179.081 52.039C178.886 52.052 178.184 52.052 177.391 52.026C177.534 52.286 177.69 52.689 177.742 52.949C178.73 52.962 179.38 52.936 179.796 52.78C180.186 52.624 180.316 52.364 180.316 51.779V44.954H179.367V51.779ZM177.651 45.344H176.754V50.622H177.651V45.344ZM178.145 43.173C178.522 42.64 178.951 42.003 179.302 41.405L178.288 41.067C178.002 41.691 177.508 42.549 177.066 43.173H173.192L173.829 42.926C173.582 42.419 173.036 41.652 172.529 41.106L171.645 41.444C172.087 41.964 172.594 42.666 172.828 43.173H169.643V44.057H181.187V43.173H178.145ZM43.3711 254.298H42.2095L48.4746 243.856H49.5981L43.3711 254.298ZM51.1787 254.298H50.0171L56.2822 243.856H57.4058L51.1787 254.298ZM68.2959 244.237C68.3219 244.484 68.3479 244.939 68.3479 245.173V249.502C68.3479 249.892 68.3089 250.308 68.2959 250.503H69.4919C69.4659 250.269 69.4529 249.84 69.4529 249.515V245.173C69.4529 244.861 69.4659 244.484 69.4919 244.237H68.2959ZM74.3149 244.146C74.3409 244.458 74.3799 244.835 74.3799 245.264V247.318C74.3799 249.775 74.2239 250.828 73.2879 251.907C72.4819 252.817 71.3639 253.337 70.1679 253.636L71.0129 254.533C71.9619 254.208 73.2619 253.649 74.1069 252.635C75.0429 251.517 75.4589 250.49 75.4589 247.37V245.264C75.4589 244.835 75.4849 244.458 75.5109 244.146H74.3149ZM88.8229 244.848C88.5759 244.913 88.3289 244.913 88.1339 244.913H81.6079C81.1789 244.913 80.6719 244.874 80.3079 244.835V245.979C80.6459 245.966 81.0879 245.94 81.6079 245.94H88.2509C88.0819 247.188 87.4709 248.995 86.5479 250.178C85.4559 251.569 83.9999 252.674 81.4779 253.311L82.3619 254.286C84.7539 253.532 86.3009 252.323 87.4839 250.802C88.5109 249.463 89.1349 247.37 89.4209 246.005C89.4729 245.758 89.5249 245.537 89.6159 245.355L88.8229 244.848ZM97.1689 248.774C97.2079 249.034 97.2469 249.294 97.2469 249.541C97.2469 251.244 96.9999 252.674 95.2449 253.857C94.9459 254.065 94.6339 254.195 94.3479 254.299L95.2709 255.027C98.0139 253.506 98.2739 251.543 98.2999 248.774H97.1689ZM102.083 246.889C101.914 246.928 101.563 246.954 101.368 246.954H94.9459C94.5559 246.954 94.0879 246.915 93.7239 246.863V247.942C94.1269 247.903 94.5559 247.89 94.9459 247.89L101.16 247.903C100.783 248.54 99.8469 249.684 98.9239 250.243L99.7689 250.828C100.939 250.022 102.031 248.397 102.408 247.786C102.473 247.682 102.59 247.526 102.668 247.435L102.083 246.889ZM114.888 245.355C114.68 245.433 114.394 245.472 114.043 245.472H110.507C110.624 245.29 110.728 245.108 110.819 244.926C110.949 244.679 111.183 244.25 111.404 243.912L110.195 243.509C110.117 243.847 109.935 244.315 109.792 244.536C109.233 245.706 107.959 247.591 105.71 248.93L106.607 249.606C108.024 248.657 109.116 247.5 109.896 246.408H114.29C114.03 247.591 113.237 249.268 112.223 250.464C111.04 251.842 109.415 253.025 107.036 253.727L107.972 254.572C110.416 253.675 111.963 252.479 113.146 251.036C114.303 249.632 115.096 247.864 115.447 246.564C115.525 246.356 115.655 246.057 115.759 245.875L114.888 245.355ZM127.393 245.147C127.172 245.238 126.886 245.277 126.535 245.277H122.986C123.09 245.108 123.181 244.952 123.259 244.796C123.389 244.549 123.623 244.107 123.831 243.769L122.661 243.392C122.57 243.73 122.375 244.198 122.245 244.432C121.66 245.615 120.308 247.565 118.072 248.943L118.943 249.619C120.399 248.631 121.556 247.357 122.388 246.2H126.808C126.561 247.227 125.924 248.566 125.131 249.671C124.117 249.06 123.025 248.436 122.271 248.046L121.608 248.813C122.336 249.216 123.428 249.866 124.455 250.529C123.272 251.829 121.582 253.077 119.32 253.766L120.256 254.572C122.544 253.727 124.182 252.453 125.352 251.114C125.846 251.452 126.275 251.764 126.587 252.011L127.302 251.075C126.977 250.841 126.535 250.542 126.041 250.23C126.951 248.956 127.614 247.513 127.939 246.369C128.017 246.161 128.134 245.849 128.238 245.667L127.393 245.147ZM132.775 244.237C132.801 244.484 132.827 244.939 132.827 245.173V249.502C132.827 249.892 132.788 250.308 132.775 250.503H133.971C133.945 250.269 133.932 249.84 133.932 249.515V245.173C133.932 244.861 133.945 244.484 133.971 244.237H132.775ZM138.794 244.146C138.82 244.458 138.859 244.835 138.859 245.264V247.318C138.859 249.775 138.703 250.828 137.767 251.907C136.961 252.817 135.843 253.337 134.647 253.636L135.492 254.533C136.441 254.208 137.741 253.649 138.586 252.635C139.522 251.517 139.938 250.49 139.938 247.37V245.264C139.938 244.835 139.964 244.458 139.99 244.146H138.794ZM145.853 244.471L145.112 245.264C146.074 245.914 147.699 247.305 148.349 247.981L149.168 247.162C148.44 246.434 146.776 245.082 145.853 244.471ZM144.735 253.181L145.424 254.247C147.595 253.844 149.233 253.051 150.533 252.219C152.496 250.997 154.004 249.229 154.901 247.604L154.277 246.499C153.523 248.098 151.937 250.022 149.935 251.283C148.7 252.05 147.01 252.843 144.735 253.181ZM161.479 245.784C161.583 245.602 161.687 245.42 161.778 245.238C161.908 245.004 162.142 244.562 162.35 244.224L161.154 243.821C161.076 244.159 160.881 244.627 160.751 244.861C160.179 246.018 158.905 247.916 156.669 249.255L157.566 249.918C158.996 248.982 160.075 247.825 160.868 246.72H165.249C164.989 247.903 164.196 249.593 163.182 250.776C161.999 252.167 160.374 253.337 157.982 254.039L158.931 254.897C161.362 253.987 162.922 252.804 164.105 251.361C165.262 249.944 166.055 248.189 166.406 246.876C166.471 246.668 166.601 246.369 166.705 246.187L165.847 245.667C165.639 245.745 165.353 245.784 165.002 245.784H161.479ZM165.158 243.899C165.509 244.38 165.951 245.173 166.211 245.693L166.913 245.381C166.64 244.848 166.172 244.068 165.847 243.6L165.158 243.899ZM166.588 243.379C166.952 243.86 167.381 244.601 167.667 245.16L168.356 244.848C168.122 244.367 167.615 243.561 167.277 243.08L166.588 243.379ZM172.1 243.132C171.528 244.042 170.384 245.16 169.37 245.836C169.539 246.005 169.786 246.343 169.916 246.538C171.008 245.758 172.217 244.562 172.984 243.457L172.1 243.132ZM172.412 245.758C171.645 247.123 170.41 248.475 169.227 249.346C169.383 249.554 169.682 250.009 169.773 250.204C170.267 249.814 170.761 249.333 171.242 248.813V255.027H172.139V247.76C172.568 247.201 172.945 246.629 173.27 246.057L172.412 245.758ZM175.584 250.581H178.86C178.444 251.27 177.859 251.855 177.17 252.362C176.494 251.868 175.935 251.296 175.519 250.659L175.584 250.581ZM179.536 249.775L179.38 249.827H176.26C176.533 249.489 176.78 249.138 176.988 248.774L180.121 248.657C180.355 249.008 180.563 249.333 180.693 249.606L181.499 249.138C181.096 248.358 180.173 247.188 179.354 246.33L178.6 246.733C178.925 247.084 179.263 247.487 179.562 247.89C178.379 247.916 177.183 247.942 176.078 247.968C177.287 246.954 178.613 245.667 179.627 244.588L178.769 244.107C178.171 244.861 177.326 245.758 176.442 246.59C176.143 246.278 175.727 245.927 175.285 245.589C175.87 245.017 176.546 244.25 177.118 243.561L176.273 243.119C175.87 243.73 175.207 244.523 174.635 245.121C174.375 244.926 174.115 244.757 173.868 244.601L173.283 245.212C174.154 245.784 175.142 246.59 175.753 247.214C175.454 247.5 175.142 247.747 174.856 247.994L172.854 248.02L172.932 248.904C173.777 248.878 174.817 248.852 175.935 248.813C175.155 249.957 173.933 250.984 172.698 251.66C172.906 251.803 173.218 252.18 173.348 252.362C173.881 252.037 174.414 251.647 174.921 251.205C175.337 251.816 175.844 252.362 176.416 252.843C175.285 253.493 173.972 253.948 172.659 254.208C172.841 254.39 173.062 254.78 173.153 255.027C174.57 254.702 175.974 254.182 177.183 253.415C178.262 254.143 179.523 254.689 180.914 255.001C181.044 254.754 181.304 254.39 181.499 254.195C180.199 253.935 178.977 253.48 177.95 252.882C178.899 252.141 179.666 251.218 180.16 250.087L179.536 249.775Z" fill="#BCC2C6"/>
<path d="M44.6343 73V67.4839H43.0601V66.5H44.6343V66.1699C44.6343 65.2347 44.7401 64.5428 44.9517 64.0942C45.1632 63.6457 45.4891 63.2775 45.9292 62.9897C46.3735 62.702 46.9596 62.5581 47.6875 62.5581C48.2376 62.5581 48.7962 62.6152 49.3633 62.7295V63.853C48.7497 63.6499 48.2059 63.5483 47.7319 63.5483C47.3553 63.5483 47.0231 63.6182 46.7354 63.7578C46.4476 63.8975 46.2212 64.126 46.0562 64.4434C45.8953 64.7565 45.8149 65.2897 45.8149 66.043V66.5H48.627V67.4839H45.8149V73H44.6343ZM56.625 65.9097V73H55.4443V71.4448C55.0635 72.0288 54.6403 72.4668 54.1748 72.7588C53.7093 73.0508 53.2438 73.1968 52.7783 73.1968C52.3636 73.1968 51.9827 73.0868 51.6357 72.8667C51.293 72.6424 51.0539 72.3504 50.9185 71.9907C50.783 71.6268 50.7153 70.9201 50.7153 69.8706V65.9097H51.896V70.0166C51.896 70.6979 51.9277 71.1486 51.9912 71.3687C52.0589 71.5845 52.1795 71.7622 52.353 71.9019C52.5308 72.0415 52.7212 72.1113 52.9243 72.1113C53.339 72.1113 53.7834 71.9167 54.2573 71.5273C54.7355 71.1338 55.1312 70.6387 55.4443 70.042V65.9097H56.625ZM58.5991 73V65.9097H59.7798V67.4585C60.1183 66.9126 60.5267 66.4852 61.0049 66.1763C61.4831 65.8674 61.9613 65.7129 62.4395 65.7129C62.8584 65.7129 63.2393 65.825 63.582 66.0493C63.9248 66.2694 64.1639 66.5592 64.2993 66.9189C64.439 67.2786 64.5088 67.9854 64.5088 69.0391V73H63.3281V68.8931C63.3281 68.2118 63.2943 67.7632 63.2266 67.5474C63.1631 67.3273 63.0425 67.1475 62.8647 67.0078C62.6912 66.8682 62.5008 66.7983 62.2935 66.7983C61.8787 66.7983 61.4323 66.9951 60.9541 67.3887C60.4801 67.7822 60.0887 68.2752 59.7798 68.8677V73H58.5991ZM72.3735 72.7969C71.5822 73.0635 70.8289 73.1968 70.1138 73.1968C69.4028 73.1968 68.7702 73.0339 68.2158 72.708C67.6657 72.3779 67.2362 71.9336 66.9272 71.375C66.6183 70.8122 66.4639 70.1732 66.4639 69.458C66.4639 68.3831 66.813 67.4902 67.5112 66.7793C68.2137 66.0684 69.0601 65.7129 70.0503 65.7129C70.7824 65.7129 71.5568 65.8504 72.3735 66.1255V67.2617C71.5483 66.8851 70.8099 66.6968 70.1582 66.6968C69.7266 66.6968 69.3203 66.8047 68.9395 67.0205C68.5586 67.2321 68.2645 67.5643 68.0571 68.0171C67.8498 68.4699 67.7461 68.9354 67.7461 69.4136C67.7461 70.0526 67.945 70.6619 68.3428 71.2417C68.7448 71.8215 69.3732 72.1113 70.228 72.1113C70.4862 72.1113 70.7401 72.0944 70.9897 72.0605C71.2394 72.0225 71.7007 71.8892 72.3735 71.6606V72.7969ZM80.1431 72.7144C79.5887 72.9471 79.1867 73.0846 78.937 73.127C78.6873 73.1735 78.4461 73.1968 78.2134 73.1968C77.7183 73.1968 77.2655 73.1016 76.855 72.9111C76.4445 72.7207 76.1335 72.4393 75.9219 72.0669C75.7145 71.6945 75.6108 71.119 75.6108 70.3403V67.4839H73.8398V66.5H75.6108V63.6436H76.7915V66.5H79.9463V67.4839H76.7915V70.3213C76.7915 70.8926 76.8592 71.2967 76.9946 71.5337C77.13 71.7664 77.3099 71.9378 77.5342 72.0479C77.7627 72.1579 78.0314 72.2129 78.3403 72.2129C78.9116 72.2129 79.5125 72.033 80.1431 71.6733V72.7144ZM84.0088 73V66.8936H82.041V65.9097H85.1895V72.0161H87.1636V73H84.0088ZM83.812 63.3516C83.812 63.085 83.903 62.8861 84.085 62.7549C84.2669 62.6237 84.4383 62.5581 84.5991 62.5581C84.7642 62.5581 84.9377 62.6237 85.1196 62.7549C85.3016 62.8861 85.3926 63.085 85.3926 63.3516C85.3926 63.6139 85.3016 63.8107 85.1196 63.9419C84.9377 64.0731 84.7642 64.1387 84.5991 64.1387C84.4383 64.1387 84.2669 64.0731 84.085 63.9419C83.903 63.8107 83.812 63.6139 83.812 63.3516ZM92.7495 73.1968C91.7339 73.1968 90.9214 72.8434 90.312 72.1367C89.7026 71.4258 89.3979 70.5308 89.3979 69.4517C89.3979 68.3726 89.7026 67.4797 90.312 66.7729C90.9214 66.0662 91.7339 65.7129 92.7495 65.7129C93.7609 65.7129 94.5713 66.0662 95.1807 66.7729C95.79 67.4797 96.0947 68.3726 96.0947 69.4517C96.0947 70.5308 95.79 71.4258 95.1807 72.1367C94.5713 72.8434 93.7609 73.1968 92.7495 73.1968ZM92.7495 72.2129C93.38 72.2129 93.8815 71.9674 94.2539 71.4766C94.6263 70.9857 94.8125 70.3107 94.8125 69.4517C94.8125 68.5968 94.6263 67.924 94.2539 67.4331C93.8815 66.9422 93.38 66.6968 92.7495 66.6968C92.1147 66.6968 91.6112 66.9422 91.2388 67.4331C90.8664 67.924 90.6802 68.5968 90.6802 69.4517C90.6802 70.3107 90.8664 70.9857 91.2388 71.4766C91.6112 71.9674 92.1147 72.2129 92.7495 72.2129ZM97.6372 73V65.9097H98.8179V67.4585C99.1564 66.9126 99.5648 66.4852 100.043 66.1763C100.521 65.8674 100.999 65.7129 101.478 65.7129C101.896 65.7129 102.277 65.825 102.62 66.0493C102.963 66.2694 103.202 66.5592 103.337 66.9189C103.477 67.2786 103.547 67.9854 103.547 69.0391V73H102.366V68.8931C102.366 68.2118 102.332 67.7632 102.265 67.5474C102.201 67.3273 102.081 67.1475 101.903 67.0078C101.729 66.8682 101.539 66.7983 101.332 66.7983C100.917 66.7983 100.47 66.9951 99.9922 67.3887C99.5182 67.7822 99.1268 68.2752 98.8179 68.8677V73H97.6372ZM122.964 100V90.7451H120.844V89.7549H124.145V99.0161H126.36V100H122.964ZM134.765 99.5303C133.821 99.9788 132.928 100.203 132.086 100.203C131.447 100.203 130.876 100.044 130.372 99.7271C129.868 99.4097 129.464 98.9569 129.16 98.3687C128.859 97.7762 128.709 97.1436 128.709 96.4707C128.709 95.8232 128.853 95.2012 129.141 94.6045C129.428 94.0078 129.83 93.5444 130.347 93.2144C130.863 92.88 131.438 92.7129 132.073 92.7129C132.915 92.7129 133.59 93.0133 134.098 93.6143C134.61 94.2152 134.866 95.1419 134.866 96.3945V96.6484H129.979C129.979 97.1393 130.08 97.5879 130.283 97.9941C130.491 98.4004 130.761 98.7051 131.096 98.9082C131.43 99.1113 131.811 99.2129 132.238 99.2129C133 99.2129 133.842 98.959 134.765 98.4512V99.5303ZM130.048 95.7661H133.584V95.5947C133.584 95.015 133.442 94.5537 133.159 94.2109C132.875 93.8682 132.496 93.6968 132.022 93.6968C131.544 93.6968 131.13 93.8724 130.778 94.2236C130.431 94.5706 130.188 95.0848 130.048 95.7661ZM136.675 100V92.9097H137.856V94.4585C138.194 93.9126 138.603 93.4852 139.081 93.1763C139.559 92.8674 140.037 92.7129 140.516 92.7129C140.935 92.7129 141.315 92.825 141.658 93.0493C142.001 93.2694 142.24 93.5592 142.375 93.9189C142.515 94.2786 142.585 94.9854 142.585 96.0391V100H141.404V95.8931C141.404 95.2118 141.37 94.7632 141.303 94.5474C141.239 94.3273 141.119 94.1475 140.941 94.0078C140.767 93.8682 140.577 93.7983 140.37 93.7983C139.955 93.7983 139.508 93.9951 139.03 94.3887C138.556 94.7822 138.165 95.2752 137.856 95.8677V100H136.675ZM149.218 98.4067C148.859 98.9992 148.425 99.4456 147.917 99.7461C147.413 100.047 146.95 100.197 146.527 100.197C145.934 100.197 145.401 99.9408 144.927 99.4287C144.458 98.9167 144.223 98.1401 144.223 97.0991C144.223 96.2782 144.379 95.5461 144.692 94.9028C145.006 94.2554 145.424 93.7454 145.949 93.373C146.474 92.9964 147.124 92.8081 147.898 92.8081C148.122 92.8081 148.461 92.8314 148.914 92.8779C148.981 92.8864 149.083 92.897 149.218 92.9097H150.405V97.9243C150.405 99.1177 150.388 99.8455 150.354 100.108C150.325 100.375 150.274 100.643 150.202 100.914C150.033 101.545 149.646 102.042 149.041 102.406C148.44 102.77 147.712 102.952 146.857 102.952C145.998 102.952 145.128 102.732 144.248 102.292V101.098C144.582 101.327 144.993 101.528 145.479 101.701C145.97 101.879 146.444 101.968 146.901 101.968C147.261 101.968 147.602 101.911 147.923 101.796C148.245 101.682 148.505 101.517 148.704 101.301C148.903 101.085 149.038 100.834 149.11 100.546C149.182 100.262 149.218 99.8836 149.218 99.4097V98.4067ZM149.218 97.0039V93.9634C148.799 93.8534 148.41 93.7983 148.05 93.7983C147.322 93.7983 146.715 94.0798 146.229 94.6426C145.746 95.2054 145.505 95.9714 145.505 96.9404C145.505 97.6429 145.636 98.174 145.898 98.5337C146.165 98.8892 146.468 99.0669 146.806 99.0669C147.174 99.0669 147.581 98.8807 148.025 98.5083C148.469 98.1359 148.867 97.6344 149.218 97.0039ZM158.219 99.7144C157.665 99.9471 157.263 100.085 157.013 100.127C156.764 100.174 156.522 100.197 156.29 100.197C155.794 100.197 155.342 100.102 154.931 99.9111C154.521 99.7207 154.21 99.4393 153.998 99.0669C153.791 98.6945 153.687 98.119 153.687 97.3403V94.4839H151.916V93.5H153.687V90.6436H154.868V93.5H158.022V94.4839H154.868V97.3213C154.868 97.8926 154.935 98.2967 155.071 98.5337C155.206 98.7664 155.386 98.9378 155.61 99.0479C155.839 99.1579 156.108 99.2129 156.417 99.2129C156.988 99.2129 157.589 99.033 158.219 98.6733V99.7144ZM160.098 100V89.7549H161.279V94.4585C161.617 93.9126 162.026 93.4852 162.504 93.1763C162.982 92.8674 163.46 92.7129 163.938 92.7129C164.34 92.7129 164.707 92.8166 165.037 93.0239C165.371 93.2271 165.604 93.4746 165.735 93.7666C165.841 93.9909 165.913 94.23 165.951 94.4839C165.989 94.7336 166.008 95.252 166.008 96.0391V100H164.827V95.8931C164.827 95.2118 164.793 94.7632 164.726 94.5474C164.662 94.3273 164.542 94.1475 164.364 94.0078C164.19 93.8682 164 93.7983 163.792 93.7983C163.378 93.7983 162.931 93.9951 162.453 94.3887C161.979 94.7822 161.588 95.2752 161.279 95.8677V100H160.098ZM44.6343 275V269.484H43.0601V268.5H44.6343V268.17C44.6343 267.235 44.7401 266.543 44.9517 266.094C45.1632 265.646 45.4891 265.278 45.9292 264.99C46.3735 264.702 46.9596 264.558 47.6875 264.558C48.2376 264.558 48.7962 264.615 49.3633 264.729V265.853C48.7497 265.65 48.2059 265.548 47.7319 265.548C47.3553 265.548 47.0231 265.618 46.7354 265.758C46.4476 265.897 46.2212 266.126 46.0562 266.443C45.8953 266.757 45.8149 267.29 45.8149 268.043V268.5H48.627V269.484H45.8149V275H44.6343ZM56.625 267.91V275H55.4443V273.445C55.0635 274.029 54.6403 274.467 54.1748 274.759C53.7093 275.051 53.2438 275.197 52.7783 275.197C52.3636 275.197 51.9827 275.087 51.6357 274.867C51.293 274.642 51.0539 274.35 50.9185 273.991C50.783 273.627 50.7153 272.92 50.7153 271.871V267.91H51.896V272.017C51.896 272.698 51.9277 273.149 51.9912 273.369C52.0589 273.584 52.1795 273.762 52.353 273.902C52.5308 274.042 52.7212 274.111 52.9243 274.111C53.339 274.111 53.7834 273.917 54.2573 273.527C54.7355 273.134 55.1312 272.639 55.4443 272.042V267.91H56.625ZM58.5991 275V267.91H59.7798V269.458C60.1183 268.913 60.5267 268.485 61.0049 268.176C61.4831 267.867 61.9613 267.713 62.4395 267.713C62.8584 267.713 63.2393 267.825 63.582 268.049C63.9248 268.269 64.1639 268.559 64.2993 268.919C64.439 269.279 64.5088 269.985 64.5088 271.039V275H63.3281V270.893C63.3281 270.212 63.2943 269.763 63.2266 269.547C63.1631 269.327 63.0425 269.147 62.8647 269.008C62.6912 268.868 62.5008 268.798 62.2935 268.798C61.8787 268.798 61.4323 268.995 60.9541 269.389C60.4801 269.782 60.0887 270.275 59.7798 270.868V275H58.5991ZM72.3735 274.797C71.5822 275.063 70.8289 275.197 70.1138 275.197C69.4028 275.197 68.7702 275.034 68.2158 274.708C67.6657 274.378 67.2362 273.934 66.9272 273.375C66.6183 272.812 66.4639 272.173 66.4639 271.458C66.4639 270.383 66.813 269.49 67.5112 268.779C68.2137 268.068 69.0601 267.713 70.0503 267.713C70.7824 267.713 71.5568 267.85 72.3735 268.125V269.262C71.5483 268.885 70.8099 268.697 70.1582 268.697C69.7266 268.697 69.3203 268.805 68.9395 269.021C68.5586 269.232 68.2645 269.564 68.0571 270.017C67.8498 270.47 67.7461 270.935 67.7461 271.414C67.7461 272.053 67.945 272.662 68.3428 273.242C68.7448 273.821 69.3732 274.111 70.228 274.111C70.4862 274.111 70.7401 274.094 70.9897 274.061C71.2394 274.022 71.7007 273.889 72.3735 273.661V274.797ZM80.1431 274.714C79.5887 274.947 79.1867 275.085 78.937 275.127C78.6873 275.174 78.4461 275.197 78.2134 275.197C77.7183 275.197 77.2655 275.102 76.855 274.911C76.4445 274.721 76.1335 274.439 75.9219 274.067C75.7145 273.694 75.6108 273.119 75.6108 272.34V269.484H73.8398V268.5H75.6108V265.644H76.7915V268.5H79.9463V269.484H76.7915V272.321C76.7915 272.893 76.8592 273.297 76.9946 273.534C77.13 273.766 77.3099 273.938 77.5342 274.048C77.7627 274.158 78.0314 274.213 78.3403 274.213C78.9116 274.213 79.5125 274.033 80.1431 273.673V274.714ZM84.0088 275V268.894H82.041V267.91H85.1895V274.016H87.1636V275H84.0088ZM83.812 265.352C83.812 265.085 83.903 264.886 84.085 264.755C84.2669 264.624 84.4383 264.558 84.5991 264.558C84.7642 264.558 84.9377 264.624 85.1196 264.755C85.3016 264.886 85.3926 265.085 85.3926 265.352C85.3926 265.614 85.3016 265.811 85.1196 265.942C84.9377 266.073 84.7642 266.139 84.5991 266.139C84.4383 266.139 84.2669 266.073 84.085 265.942C83.903 265.811 83.812 265.614 83.812 265.352ZM92.7495 275.197C91.7339 275.197 90.9214 274.843 90.312 274.137C89.7026 273.426 89.3979 272.531 89.3979 271.452C89.3979 270.373 89.7026 269.48 90.312 268.773C90.9214 268.066 91.7339 267.713 92.7495 267.713C93.7609 267.713 94.5713 268.066 95.1807 268.773C95.79 269.48 96.0947 270.373 96.0947 271.452C96.0947 272.531 95.79 273.426 95.1807 274.137C94.5713 274.843 93.7609 275.197 92.7495 275.197ZM92.7495 274.213C93.38 274.213 93.8815 273.967 94.2539 273.477C94.6263 272.986 94.8125 272.311 94.8125 271.452C94.8125 270.597 94.6263 269.924 94.2539 269.433C93.8815 268.942 93.38 268.697 92.7495 268.697C92.1147 268.697 91.6112 268.942 91.2388 269.433C90.8664 269.924 90.6802 270.597 90.6802 271.452C90.6802 272.311 90.8664 272.986 91.2388 273.477C91.6112 273.967 92.1147 274.213 92.7495 274.213ZM97.6372 275V267.91H98.8179V269.458C99.1564 268.913 99.5648 268.485 100.043 268.176C100.521 267.867 100.999 267.713 101.478 267.713C101.896 267.713 102.277 267.825 102.62 268.049C102.963 268.269 103.202 268.559 103.337 268.919C103.477 269.279 103.547 269.985 103.547 271.039V275H102.366V270.893C102.366 270.212 102.332 269.763 102.265 269.547C102.201 269.327 102.081 269.147 101.903 269.008C101.729 268.868 101.539 268.798 101.332 268.798C100.917 268.798 100.47 268.995 99.9922 269.389C99.5182 269.782 99.1268 270.275 98.8179 270.868V275H97.6372ZM154.195 303V293.745H152.075V292.755H155.375V302.016H157.591V303H154.195ZM165.995 302.53C165.051 302.979 164.159 303.203 163.316 303.203C162.677 303.203 162.106 303.044 161.603 302.727C161.099 302.41 160.695 301.957 160.39 301.369C160.09 300.776 159.939 300.144 159.939 299.471C159.939 298.823 160.083 298.201 160.371 297.604C160.659 297.008 161.061 296.544 161.577 296.214C162.093 295.88 162.669 295.713 163.304 295.713C164.146 295.713 164.821 296.013 165.329 296.614C165.841 297.215 166.097 298.142 166.097 299.395V299.648H161.209C161.209 300.139 161.311 300.588 161.514 300.994C161.721 301.4 161.992 301.705 162.326 301.908C162.66 302.111 163.041 302.213 163.469 302.213C164.23 302.213 165.073 301.959 165.995 301.451V302.53ZM161.279 298.766H164.814V298.595C164.814 298.015 164.673 297.554 164.389 297.211C164.106 296.868 163.727 296.697 163.253 296.697C162.775 296.697 162.36 296.872 162.009 297.224C161.662 297.571 161.418 298.085 161.279 298.766ZM167.906 303V295.91H169.086V297.458C169.425 296.913 169.833 296.485 170.312 296.176C170.79 295.867 171.268 295.713 171.746 295.713C172.165 295.713 172.546 295.825 172.889 296.049C173.231 296.269 173.471 296.559 173.606 296.919C173.746 297.279 173.815 297.985 173.815 299.039V303H172.635V298.893C172.635 298.212 172.601 297.763 172.533 297.547C172.47 297.327 172.349 297.147 172.171 297.008C171.998 296.868 171.807 296.798 171.6 296.798C171.185 296.798 170.739 296.995 170.261 297.389C169.787 297.782 169.395 298.275 169.086 298.868V303H167.906ZM180.449 301.407C180.089 301.999 179.655 302.446 179.147 302.746C178.644 303.047 178.181 303.197 177.757 303.197C177.165 303.197 176.632 302.941 176.158 302.429C175.688 301.917 175.453 301.14 175.453 300.099C175.453 299.278 175.61 298.546 175.923 297.903C176.236 297.255 176.655 296.745 177.18 296.373C177.704 295.996 178.354 295.808 179.128 295.808C179.353 295.808 179.691 295.831 180.144 295.878C180.212 295.886 180.313 295.897 180.449 295.91H181.636V300.924C181.636 302.118 181.619 302.846 181.585 303.108C181.555 303.375 181.505 303.643 181.433 303.914C181.263 304.545 180.876 305.042 180.271 305.406C179.67 305.77 178.942 305.952 178.087 305.952C177.228 305.952 176.359 305.732 175.479 305.292V304.098C175.813 304.327 176.223 304.528 176.71 304.701C177.201 304.879 177.675 304.968 178.132 304.968C178.492 304.968 178.832 304.911 179.154 304.796C179.475 304.682 179.736 304.517 179.935 304.301C180.133 304.085 180.269 303.834 180.341 303.546C180.413 303.262 180.449 302.884 180.449 302.41V301.407ZM180.449 300.004V296.963C180.03 296.853 179.64 296.798 179.281 296.798C178.553 296.798 177.946 297.08 177.459 297.643C176.977 298.205 176.735 298.971 176.735 299.94C176.735 300.643 176.867 301.174 177.129 301.534C177.396 301.889 177.698 302.067 178.037 302.067C178.405 302.067 178.811 301.881 179.255 301.508C179.7 301.136 180.097 300.634 180.449 300.004ZM189.45 302.714C188.895 302.947 188.493 303.085 188.244 303.127C187.994 303.174 187.753 303.197 187.52 303.197C187.025 303.197 186.572 303.102 186.162 302.911C185.751 302.721 185.44 302.439 185.229 302.067C185.021 301.694 184.917 301.119 184.917 300.34V297.484H183.146V296.5H184.917V293.644H186.098V296.5H189.253V297.484H186.098V300.321C186.098 300.893 186.166 301.297 186.301 301.534C186.437 301.766 186.617 301.938 186.841 302.048C187.069 302.158 187.338 302.213 187.647 302.213C188.218 302.213 188.819 302.033 189.45 301.673V302.714ZM191.329 303V292.755H192.509V297.458C192.848 296.913 193.256 296.485 193.734 296.176C194.213 295.867 194.691 295.713 195.169 295.713C195.571 295.713 195.937 295.817 196.267 296.024C196.601 296.227 196.834 296.475 196.965 296.767C197.071 296.991 197.143 297.23 197.181 297.484C197.219 297.734 197.238 298.252 197.238 299.039V303H196.058V298.893C196.058 298.212 196.024 297.763 195.956 297.547C195.893 297.327 195.772 297.147 195.594 297.008C195.421 296.868 195.23 296.798 195.023 296.798C194.608 296.798 194.162 296.995 193.684 297.389C193.21 297.782 192.818 298.275 192.509 298.868V303H191.329Z" fill="#40CEF4"/>
<path d="M181.534 75.3613C180.362 75.2894 179.374 74.9572 178.57 74.3647C177.766 73.7765 177.123 72.981 176.64 71.978C176.162 70.9751 175.923 69.9701 175.923 68.9629C175.923 67.9557 176.162 66.9507 176.64 65.9478C177.123 64.9448 177.766 64.1493 178.57 63.561C179.374 62.9686 180.362 62.6343 181.534 62.5581V63.5483C180.65 63.6287 179.888 63.9271 179.249 64.4434C178.614 64.9554 178.115 65.6092 177.751 66.4048C177.387 67.2004 177.205 68.0531 177.205 68.9629C177.205 69.8727 177.387 70.7254 177.751 71.521C178.115 72.3166 178.614 72.9704 179.249 73.4824C179.888 73.9945 180.65 74.2928 181.534 74.3774V75.3613ZM214.764 62.5581C215.936 62.6343 216.924 62.9686 217.729 63.561C218.533 64.1493 219.174 64.9448 219.652 65.9478C220.134 66.9507 220.375 67.9557 220.375 68.9629C220.375 69.9701 220.134 70.9751 219.652 71.978C219.174 72.981 218.533 73.7765 217.729 74.3647C216.924 74.9572 215.936 75.2894 214.764 75.3613V74.3774C215.649 74.2928 216.408 73.9945 217.043 73.4824C217.682 72.9704 218.183 72.3166 218.547 71.521C218.916 70.7254 219.1 69.8727 219.1 68.9629C219.1 68.0531 218.916 67.2004 218.547 66.4048C218.183 65.6092 217.682 64.9554 217.043 64.4434C216.408 63.9271 215.649 63.6287 214.764 63.5483V62.5581ZM225.047 68.9629C225.441 69.1702 225.729 69.3734 225.911 69.5723C226.097 69.7712 226.234 69.9764 226.323 70.188C226.416 70.3953 226.463 70.6344 226.463 70.9053C226.463 71.1465 226.421 71.4618 226.336 71.8511L226.177 72.5747C226.093 72.9683 226.05 73.2603 226.05 73.4507C226.05 73.7088 226.15 73.9268 226.349 74.1045C226.552 74.2865 226.966 74.3774 227.593 74.3774H228.577V75.3613H227.58C226.421 75.3613 225.674 75.1751 225.339 74.8027C225.005 74.4303 224.838 74.0093 224.838 73.5396C224.838 73.2899 224.87 73.0212 224.933 72.7334L225.047 72.2256L225.155 71.6733L225.231 71.3369C225.261 71.1803 225.276 71.028 225.276 70.8799C225.276 70.4863 225.143 70.1499 224.876 69.8706C224.614 69.5913 224.148 69.4517 223.479 69.4517H222.915V68.4678H223.479C224.14 68.4678 224.603 68.3302 224.87 68.0552C225.14 67.7801 225.276 67.4373 225.276 67.0269C225.276 66.8745 225.261 66.7264 225.231 66.5825L225.155 66.2524L225.047 65.7002L224.933 65.1924C224.87 64.9004 224.838 64.6296 224.838 64.3799C224.838 63.9144 225.005 63.4954 225.339 63.123C225.674 62.7464 226.421 62.5581 227.58 62.5581H228.577V63.5483H227.593C226.971 63.5483 226.558 63.6393 226.355 63.8213C226.152 63.999 226.05 64.2191 226.05 64.4814C226.05 64.6676 226.093 64.9575 226.177 65.3511L226.336 66.0747C226.421 66.464 226.463 66.7793 226.463 67.0205C226.463 67.2913 226.416 67.5326 226.323 67.7441C226.234 67.9515 226.097 68.1546 225.911 68.3535C225.729 68.5524 225.441 68.7555 225.047 68.9629ZM80.0352 102.361C78.863 102.289 77.8748 101.957 77.0708 101.365C76.2668 100.777 75.6235 99.981 75.1411 98.978C74.6629 97.9751 74.4238 96.9701 74.4238 95.9629C74.4238 94.9557 74.6629 93.9507 75.1411 92.9478C75.6235 91.9448 76.2668 91.1493 77.0708 90.561C77.8748 89.9686 78.863 89.6343 80.0352 89.5581V90.5483C79.1507 90.6287 78.389 90.9271 77.75 91.4434C77.1152 91.9554 76.6159 92.6092 76.252 93.4048C75.888 94.2004 75.7061 95.0531 75.7061 95.9629C75.7061 96.8727 75.888 97.7254 76.252 98.521C76.6159 99.3166 77.1152 99.9704 77.75 100.482C78.389 100.994 79.1507 101.293 80.0352 101.377V102.361ZM83.1138 94.5029C83.4777 93.9105 83.9115 93.464 84.415 93.1636C84.9186 92.8631 85.382 92.7129 85.8052 92.7129C86.3976 92.7129 86.9308 92.9689 87.4048 93.481C87.8787 93.993 88.1157 94.7695 88.1157 95.8105C88.1157 96.6315 87.957 97.3657 87.6396 98.0132C87.3265 98.6564 86.9076 99.1663 86.3828 99.543C85.8581 99.9154 85.2085 100.102 84.4341 100.102C84.214 100.102 83.8755 100.078 83.4185 100.032C83.3507 100.023 83.2492 100.013 83.1138 100V102.755H81.9331V92.9097H83.1138V94.5029ZM83.1138 95.9058V98.9463C83.5412 99.0563 83.9347 99.1113 84.2944 99.1113C85.0096 99.1113 85.6105 98.832 86.0972 98.2734C86.5881 97.7106 86.8335 96.9425 86.8335 95.9692C86.8335 95.2625 86.7002 94.7314 86.4336 94.376C86.167 94.0205 85.8644 93.8428 85.5259 93.8428C85.1577 93.8428 84.7515 94.029 84.3071 94.4014C83.867 94.7738 83.4692 95.2752 83.1138 95.9058ZM92.7495 100.197C91.7339 100.197 90.9214 99.8434 90.312 99.1367C89.7026 98.4258 89.3979 97.5308 89.3979 96.4517C89.3979 95.3726 89.7026 94.4797 90.312 93.7729C90.9214 93.0662 91.7339 92.7129 92.7495 92.7129C93.7609 92.7129 94.5713 93.0662 95.1807 93.7729C95.79 94.4797 96.0947 95.3726 96.0947 96.4517C96.0947 97.5308 95.79 98.4258 95.1807 99.1367C94.5713 99.8434 93.7609 100.197 92.7495 100.197ZM92.7495 99.2129C93.38 99.2129 93.8815 98.9674 94.2539 98.4766C94.6263 97.9857 94.8125 97.3107 94.8125 96.4517C94.8125 95.5968 94.6263 94.924 94.2539 94.4331C93.8815 93.9422 93.38 93.6968 92.7495 93.6968C92.1147 93.6968 91.6112 93.9422 91.2388 94.4331C90.8664 94.924 90.6802 95.5968 90.6802 96.4517C90.6802 97.3107 90.8664 97.9857 91.2388 98.4766C91.6112 98.9674 92.1147 99.2129 92.7495 99.2129ZM97.7197 99.6255V98.375C98.1937 98.6839 98.6951 98.9019 99.2241 99.0288C99.7531 99.1515 100.202 99.2129 100.57 99.2129C101.167 99.2129 101.596 99.1177 101.858 98.9272C102.121 98.7326 102.252 98.4914 102.252 98.2036C102.252 98.0132 102.191 97.8503 102.068 97.7148C101.945 97.5794 101.64 97.4123 101.154 97.2134L100.748 97.0483L99.9287 96.7246C99.0485 96.3818 98.4941 96.0645 98.2656 95.7725C98.0329 95.4847 97.9165 95.1335 97.9165 94.7188C97.9165 94.1348 98.1408 93.6545 98.5894 93.2778C99.0422 92.9012 99.7743 92.7129 100.786 92.7129C101.543 92.7129 102.26 92.8229 102.938 93.043V94.1157C102.159 93.8364 101.427 93.6968 100.741 93.6968C100.242 93.6968 99.8504 93.7856 99.5669 93.9634C99.2876 94.1369 99.1479 94.3548 99.1479 94.6172C99.1479 94.8711 99.2707 95.0742 99.5161 95.2266C99.7573 95.3789 100.151 95.5545 100.697 95.7534L101.497 96.0454C102.229 96.312 102.743 96.6019 103.039 96.915C103.335 97.2282 103.483 97.6196 103.483 98.0894C103.483 98.703 103.246 99.2087 102.772 99.6064C102.303 100 101.549 100.197 100.513 100.197C99.6071 100.197 98.6761 100.006 97.7197 99.6255ZM111.374 99.7144C110.819 99.9471 110.417 100.085 110.167 100.127C109.918 100.174 109.677 100.197 109.444 100.197C108.949 100.197 108.496 100.102 108.085 99.9111C107.675 99.7207 107.364 99.4393 107.152 99.0669C106.945 98.6945 106.841 98.119 106.841 97.3403V94.4839H105.07V93.5H106.841V90.6436H108.022V93.5H111.177V94.4839H108.022V97.3213C108.022 97.8926 108.09 98.2967 108.225 98.5337C108.361 98.7664 108.54 98.9378 108.765 99.0479C108.993 99.1579 109.262 99.2129 109.571 99.2129C110.142 99.2129 110.743 99.033 111.374 98.6733V99.7144ZM116.166 100.298C115.882 100.298 115.639 100.197 115.436 99.9937C115.233 99.7905 115.131 99.5472 115.131 99.2637C115.131 98.9759 115.233 98.7326 115.436 98.5337C115.643 98.3306 115.887 98.229 116.166 98.229C116.445 98.229 116.687 98.3306 116.89 98.5337C117.097 98.7326 117.201 98.9759 117.201 99.2637C117.201 99.5472 117.099 99.7905 116.896 99.9937C116.693 100.197 116.45 100.298 116.166 100.298ZM222.572 89.5581C223.744 89.6343 224.732 89.9686 225.536 90.561C226.34 91.1493 226.981 91.9448 227.459 92.9478C227.942 93.9507 228.183 94.9557 228.183 95.9629C228.183 96.9701 227.942 97.9751 227.459 98.978C226.981 99.981 226.34 100.777 225.536 101.365C224.732 101.957 223.744 102.289 222.572 102.361V101.377C223.456 101.293 224.216 100.994 224.851 100.482C225.49 99.9704 225.991 99.3166 226.355 98.521C226.723 97.7254 226.907 96.8727 226.907 95.9629C226.907 95.0531 226.723 94.2004 226.355 93.4048C225.991 92.6092 225.49 91.9554 224.851 91.4434C224.216 90.9271 223.456 90.6287 222.572 90.5483V89.5581ZM232.855 95.9629C233.249 96.1702 233.536 96.3734 233.718 96.5723C233.904 96.7712 234.042 96.9764 234.131 97.188C234.224 97.3953 234.271 97.6344 234.271 97.9053C234.271 98.1465 234.228 98.4618 234.144 98.8511L233.985 99.5747C233.9 99.9683 233.858 100.26 233.858 100.451C233.858 100.709 233.957 100.927 234.156 101.104C234.359 101.286 234.774 101.377 235.4 101.377H236.384V102.361H235.388C234.228 102.361 233.481 102.175 233.147 101.803C232.813 101.43 232.646 101.009 232.646 100.54C232.646 100.29 232.677 100.021 232.741 99.7334L232.855 99.2256L232.963 98.6733L233.039 98.3369C233.069 98.1803 233.083 98.028 233.083 97.8799C233.083 97.4863 232.95 97.1499 232.684 96.8706C232.421 96.5913 231.956 96.4517 231.287 96.4517H230.722V95.4678H231.287C231.947 95.4678 232.411 95.3302 232.677 95.0552C232.948 94.7801 233.083 94.4373 233.083 94.0269C233.083 93.8745 233.069 93.7264 233.039 93.5825L232.963 93.2524L232.855 92.7002L232.741 92.1924C232.677 91.9004 232.646 91.6296 232.646 91.3799C232.646 90.9144 232.813 90.4954 233.147 90.123C233.481 89.7464 234.228 89.5581 235.388 89.5581H236.384V90.5483H235.4C234.778 90.5483 234.366 90.6393 234.163 90.8213C233.959 90.999 233.858 91.2191 233.858 91.4814C233.858 91.6676 233.9 91.9575 233.985 92.3511L234.144 93.0747C234.228 93.464 234.271 93.7793 234.271 94.0205C234.271 94.2913 234.224 94.5326 234.131 94.7441C234.042 94.9515 233.904 95.1546 233.718 95.3535C233.536 95.5524 233.249 95.7555 232.855 95.9629ZM161.806 123.755V122.968C162.11 122.887 162.341 122.771 162.498 122.619C162.658 122.471 162.785 122.28 162.878 122.047C162.976 121.819 163.024 121.542 163.024 121.216C162.631 121.216 162.341 121.106 162.155 120.886C161.969 120.661 161.875 120.422 161.875 120.168C161.875 119.876 161.979 119.631 162.187 119.432C162.394 119.229 162.635 119.127 162.91 119.127C163.266 119.127 163.572 119.282 163.831 119.591C164.089 119.896 164.218 120.314 164.218 120.848C164.218 121.313 164.116 121.751 163.913 122.162C163.71 122.576 163.433 122.93 163.082 123.222C162.735 123.514 162.309 123.691 161.806 123.755ZM162.91 115.782C162.627 115.782 162.383 115.681 162.18 115.478C161.977 115.274 161.875 115.031 161.875 114.748C161.875 114.46 161.977 114.216 162.18 114.018C162.388 113.814 162.631 113.713 162.91 113.713C163.189 113.713 163.431 113.814 163.634 114.018C163.841 114.216 163.945 114.46 163.945 114.748C163.945 115.031 163.843 115.274 163.64 115.478C163.437 115.681 163.194 115.782 162.91 115.782ZM61.9443 137.963C61.5508 137.756 61.2609 137.552 61.0747 137.354C60.8927 137.155 60.7573 136.951 60.6685 136.744C60.5796 136.533 60.5352 136.291 60.5352 136.021C60.5352 135.779 60.5754 135.464 60.6558 135.075L60.8145 134.351C60.8991 133.958 60.9414 133.666 60.9414 133.475C60.9414 133.217 60.8398 132.999 60.6367 132.821C60.4378 132.639 60.0252 132.548 59.3989 132.548H58.415V131.558H59.4116C60.5711 131.558 61.318 131.746 61.6523 132.123C61.9909 132.495 62.1602 132.914 62.1602 133.38C62.1602 133.634 62.1263 133.905 62.0586 134.192L61.9443 134.7L61.8364 135.252L61.7603 135.583C61.7306 135.743 61.7158 135.898 61.7158 136.046C61.7158 136.435 61.847 136.77 62.1094 137.049C62.376 137.328 62.8436 137.468 63.5122 137.468H64.0771V138.452H63.5122C62.8521 138.452 62.3866 138.591 62.1157 138.871C61.8491 139.146 61.7158 139.488 61.7158 139.899C61.7158 140.047 61.7306 140.193 61.7603 140.337L61.8364 140.673L61.9443 141.226L62.0586 141.733C62.1263 142.025 62.1602 142.296 62.1602 142.546C62.1602 143.016 61.9909 143.435 61.6523 143.803C61.318 144.175 60.5711 144.361 59.4116 144.361H58.415V143.377H59.3989C60.0252 143.377 60.4378 143.286 60.6367 143.104C60.8398 142.927 60.9414 142.707 60.9414 142.444C60.9414 142.258 60.8991 141.968 60.8145 141.575L60.6558 140.851C60.5754 140.462 60.5352 140.146 60.5352 139.905C60.5352 139.634 60.5796 139.395 60.6685 139.188C60.7573 138.976 60.8927 138.771 61.0747 138.572C61.2609 138.373 61.5508 138.17 61.9443 137.963ZM80.1113 141.53C79.1676 141.979 78.2747 142.203 77.4326 142.203C76.7936 142.203 76.2223 142.044 75.7188 141.727C75.2152 141.41 74.811 140.957 74.5063 140.369C74.2059 139.776 74.0557 139.144 74.0557 138.471C74.0557 137.823 74.1995 137.201 74.4873 136.604C74.7751 136.008 75.1771 135.544 75.6934 135.214C76.2096 134.88 76.7852 134.713 77.4199 134.713C78.262 134.713 78.937 135.013 79.4448 135.614C79.9569 136.215 80.2129 137.142 80.2129 138.395V138.648H75.3252C75.3252 139.139 75.4268 139.588 75.6299 139.994C75.8372 140.4 76.1081 140.705 76.4424 140.908C76.7767 141.111 77.1576 141.213 77.585 141.213C78.3467 141.213 79.1888 140.959 80.1113 140.451V141.53ZM75.395 137.766H78.9307V137.595C78.9307 137.015 78.7889 136.554 78.5054 136.211C78.2218 135.868 77.8431 135.697 77.3691 135.697C76.891 135.697 76.4762 135.872 76.125 136.224C75.778 136.571 75.5347 137.085 75.395 137.766ZM83.9263 142V132.745H81.8062V131.755H85.1069V141.016H87.3223V142H83.9263ZM89.9121 141.625V140.375C90.3861 140.684 90.8875 140.902 91.4165 141.029C91.9455 141.152 92.394 141.213 92.7622 141.213C93.3589 141.213 93.7884 141.118 94.0508 140.927C94.3132 140.733 94.4443 140.491 94.4443 140.204C94.4443 140.013 94.383 139.85 94.2603 139.715C94.1375 139.579 93.8328 139.412 93.3462 139.213L92.9399 139.048L92.1211 138.725C91.2409 138.382 90.6865 138.064 90.458 137.772C90.2253 137.485 90.1089 137.133 90.1089 136.719C90.1089 136.135 90.3332 135.654 90.7817 135.278C91.2345 134.901 91.9666 134.713 92.978 134.713C93.7355 134.713 94.4528 134.823 95.1299 135.043V136.116C94.3512 135.836 93.6191 135.697 92.9336 135.697C92.4342 135.697 92.0428 135.786 91.7593 135.963C91.48 136.137 91.3403 136.355 91.3403 136.617C91.3403 136.871 91.4631 137.074 91.7085 137.227C91.9497 137.379 92.3433 137.555 92.8892 137.753L93.689 138.045C94.4211 138.312 94.9352 138.602 95.2314 138.915C95.5277 139.228 95.6758 139.62 95.6758 140.089C95.6758 140.703 95.4388 141.209 94.9648 141.606C94.4951 142 93.7419 142.197 92.7051 142.197C91.7995 142.197 90.8685 142.006 89.9121 141.625ZM103.534 141.53C102.59 141.979 101.698 142.203 100.855 142.203C100.216 142.203 99.6452 142.044 99.1416 141.727C98.638 141.41 98.2339 140.957 97.9292 140.369C97.6287 139.776 97.4785 139.144 97.4785 138.471C97.4785 137.823 97.6224 137.201 97.9102 136.604C98.1979 136.008 98.5999 135.544 99.1162 135.214C99.6325 134.88 100.208 134.713 100.843 134.713C101.685 134.713 102.36 135.013 102.868 135.614C103.38 136.215 103.636 137.142 103.636 138.395V138.648H98.748C98.748 139.139 98.8496 139.588 99.0527 139.994C99.2601 140.4 99.5309 140.705 99.8652 140.908C100.2 141.111 100.58 141.213 101.008 141.213C101.77 141.213 102.612 140.959 103.534 140.451V141.53ZM98.8179 137.766H102.354V137.595C102.354 137.015 102.212 136.554 101.928 136.211C101.645 135.868 101.266 135.697 100.792 135.697C100.314 135.697 99.8991 135.872 99.5479 136.224C99.2008 136.571 98.9575 137.085 98.8179 137.766ZM115.741 137.963C116.134 138.17 116.422 138.373 116.604 138.572C116.79 138.771 116.928 138.976 117.017 139.188C117.11 139.395 117.156 139.634 117.156 139.905C117.156 140.146 117.114 140.462 117.029 140.851L116.871 141.575C116.786 141.968 116.744 142.26 116.744 142.451C116.744 142.709 116.843 142.927 117.042 143.104C117.245 143.286 117.66 143.377 118.286 143.377H119.27V144.361H118.273C117.114 144.361 116.367 144.175 116.033 143.803C115.698 143.43 115.531 143.009 115.531 142.54C115.531 142.29 115.563 142.021 115.626 141.733L115.741 141.226L115.849 140.673L115.925 140.337C115.954 140.18 115.969 140.028 115.969 139.88C115.969 139.486 115.836 139.15 115.569 138.871C115.307 138.591 114.841 138.452 114.173 138.452H113.608V137.468H114.173C114.833 137.468 115.296 137.33 115.563 137.055C115.834 136.78 115.969 136.437 115.969 136.027C115.969 135.875 115.954 135.726 115.925 135.583L115.849 135.252L115.741 134.7L115.626 134.192C115.563 133.9 115.531 133.63 115.531 133.38C115.531 132.914 115.698 132.495 116.033 132.123C116.367 131.746 117.114 131.558 118.273 131.558H119.27V132.548H118.286C117.664 132.548 117.251 132.639 117.048 132.821C116.845 132.999 116.744 133.219 116.744 133.481C116.744 133.668 116.786 133.958 116.871 134.351L117.029 135.075C117.114 135.464 117.156 135.779 117.156 136.021C117.156 136.291 117.11 136.533 117.017 136.744C116.928 136.951 116.79 137.155 116.604 137.354C116.422 137.552 116.134 137.756 115.741 137.963ZM169.613 165.755V164.968C169.918 164.887 170.149 164.771 170.305 164.619C170.466 164.471 170.593 164.28 170.686 164.047C170.783 163.819 170.832 163.542 170.832 163.216C170.438 163.216 170.149 163.106 169.962 162.886C169.776 162.661 169.683 162.422 169.683 162.168C169.683 161.876 169.787 161.631 169.994 161.432C170.201 161.229 170.443 161.127 170.718 161.127C171.073 161.127 171.38 161.282 171.638 161.591C171.896 161.896 172.025 162.314 172.025 162.848C172.025 163.313 171.924 163.751 171.721 164.162C171.518 164.576 171.24 164.93 170.889 165.222C170.542 165.514 170.117 165.691 169.613 165.755ZM170.718 157.782C170.434 157.782 170.191 157.681 169.988 157.478C169.785 157.274 169.683 157.031 169.683 156.748C169.683 156.46 169.785 156.216 169.988 156.018C170.195 155.814 170.438 155.713 170.718 155.713C170.997 155.713 171.238 155.814 171.441 156.018C171.649 156.216 171.752 156.46 171.752 156.748C171.752 157.031 171.651 157.274 171.448 157.478C171.245 157.681 171.001 157.782 170.718 157.782ZM61.9443 179.963C61.5508 179.756 61.2609 179.552 61.0747 179.354C60.8927 179.155 60.7573 178.951 60.6685 178.744C60.5796 178.533 60.5352 178.291 60.5352 178.021C60.5352 177.779 60.5754 177.464 60.6558 177.075L60.8145 176.351C60.8991 175.958 60.9414 175.666 60.9414 175.475C60.9414 175.217 60.8398 174.999 60.6367 174.821C60.4378 174.639 60.0252 174.548 59.3989 174.548H58.415V173.558H59.4116C60.5711 173.558 61.318 173.746 61.6523 174.123C61.9909 174.495 62.1602 174.914 62.1602 175.38C62.1602 175.634 62.1263 175.905 62.0586 176.192L61.9443 176.7L61.8364 177.252L61.7603 177.583C61.7306 177.743 61.7158 177.898 61.7158 178.046C61.7158 178.435 61.847 178.77 62.1094 179.049C62.376 179.328 62.8436 179.468 63.5122 179.468H64.0771V180.452H63.5122C62.8521 180.452 62.3866 180.591 62.1157 180.871C61.8491 181.146 61.7158 181.488 61.7158 181.899C61.7158 182.047 61.7306 182.193 61.7603 182.337L61.8364 182.673L61.9443 183.226L62.0586 183.733C62.1263 184.025 62.1602 184.296 62.1602 184.546C62.1602 185.016 61.9909 185.435 61.6523 185.803C61.318 186.175 60.5711 186.361 59.4116 186.361H58.415V185.377H59.3989C60.0252 185.377 60.4378 185.286 60.6367 185.104C60.8398 184.927 60.9414 184.707 60.9414 184.444C60.9414 184.258 60.8991 183.968 60.8145 183.575L60.6558 182.851C60.5754 182.462 60.5352 182.146 60.5352 181.905C60.5352 181.634 60.5796 181.395 60.6685 181.188C60.7573 180.976 60.8927 180.771 61.0747 180.572C61.2609 180.373 61.5508 180.17 61.9443 179.963ZM46.3291 207.963C45.9355 207.756 45.6457 207.552 45.4595 207.354C45.2775 207.155 45.1421 206.951 45.0532 206.744C44.9644 206.533 44.9199 206.291 44.9199 206.021C44.9199 205.779 44.9601 205.464 45.0405 205.075L45.1992 204.351C45.2839 203.958 45.3262 203.666 45.3262 203.475C45.3262 203.217 45.2246 202.999 45.0215 202.821C44.8226 202.639 44.41 202.548 43.7837 202.548H42.7998V201.558H43.7964C44.9559 201.558 45.7028 201.746 46.0371 202.123C46.3757 202.495 46.5449 202.914 46.5449 203.38C46.5449 203.634 46.5111 203.905 46.4434 204.192L46.3291 204.7L46.2212 205.252L46.145 205.583C46.1154 205.743 46.1006 205.898 46.1006 206.046C46.1006 206.435 46.2318 206.77 46.4941 207.049C46.7607 207.328 47.2284 207.468 47.897 207.468H48.4619V208.452H47.897C47.2368 208.452 46.7713 208.591 46.5005 208.871C46.2339 209.146 46.1006 209.488 46.1006 209.899C46.1006 210.047 46.1154 210.193 46.145 210.337L46.2212 210.673L46.3291 211.226L46.4434 211.733C46.5111 212.025 46.5449 212.296 46.5449 212.546C46.5449 213.016 46.3757 213.435 46.0371 213.803C45.7028 214.175 44.9559 214.361 43.7964 214.361H42.7998V213.377H43.7837C44.41 213.377 44.8226 213.286 45.0215 213.104C45.2246 212.927 45.3262 212.707 45.3262 212.444C45.3262 212.258 45.2839 211.968 45.1992 211.575L45.0405 210.851C44.9601 210.462 44.9199 210.146 44.9199 209.905C44.9199 209.634 44.9644 209.395 45.0532 209.188C45.1421 208.976 45.2775 208.771 45.4595 208.572C45.6457 208.373 45.9355 208.17 46.3291 207.963ZM181.534 277.361C180.362 277.289 179.374 276.957 178.57 276.365C177.766 275.777 177.123 274.981 176.64 273.978C176.162 272.975 175.923 271.97 175.923 270.963C175.923 269.956 176.162 268.951 176.64 267.948C177.123 266.945 177.766 266.149 178.57 265.561C179.374 264.969 180.362 264.634 181.534 264.558V265.548C180.65 265.629 179.888 265.927 179.249 266.443C178.614 266.955 178.115 267.609 177.751 268.405C177.387 269.2 177.205 270.053 177.205 270.963C177.205 271.873 177.387 272.725 177.751 273.521C178.115 274.317 178.614 274.97 179.249 275.482C179.888 275.994 180.65 276.293 181.534 276.377V277.361ZM214.764 264.558C215.936 264.634 216.924 264.969 217.729 265.561C218.533 266.149 219.174 266.945 219.652 267.948C220.134 268.951 220.375 269.956 220.375 270.963C220.375 271.97 220.134 272.975 219.652 273.978C219.174 274.981 218.533 275.777 217.729 276.365C216.924 276.957 215.936 277.289 214.764 277.361V276.377C215.649 276.293 216.408 275.994 217.043 275.482C217.682 274.97 218.183 274.317 218.547 273.521C218.916 272.725 219.1 271.873 219.1 270.963C219.1 270.053 218.916 269.2 218.547 268.405C218.183 267.609 217.682 266.955 217.043 266.443C216.408 265.927 215.649 265.629 214.764 265.548V264.558ZM225.047 270.963C225.441 271.17 225.729 271.373 225.911 271.572C226.097 271.771 226.234 271.976 226.323 272.188C226.416 272.395 226.463 272.634 226.463 272.905C226.463 273.146 226.421 273.462 226.336 273.851L226.177 274.575C226.093 274.968 226.05 275.26 226.05 275.451C226.05 275.709 226.15 275.927 226.349 276.104C226.552 276.286 226.966 276.377 227.593 276.377H228.577V277.361H227.58C226.421 277.361 225.674 277.175 225.339 276.803C225.005 276.43 224.838 276.009 224.838 275.54C224.838 275.29 224.87 275.021 224.933 274.733L225.047 274.226L225.155 273.673L225.231 273.337C225.261 273.18 225.276 273.028 225.276 272.88C225.276 272.486 225.143 272.15 224.876 271.871C224.614 271.591 224.148 271.452 223.479 271.452H222.915V270.468H223.479C224.14 270.468 224.603 270.33 224.87 270.055C225.14 269.78 225.276 269.437 225.276 269.027C225.276 268.875 225.261 268.726 225.231 268.583L225.155 268.252L225.047 267.7L224.933 267.192C224.87 266.9 224.838 266.63 224.838 266.38C224.838 265.914 225.005 265.495 225.339 265.123C225.674 264.746 226.421 264.558 227.58 264.558H228.577V265.548H227.593C226.971 265.548 226.558 265.639 226.355 265.821C226.152 265.999 226.05 266.219 226.05 266.481C226.05 266.668 226.093 266.958 226.177 267.351L226.336 268.075C226.421 268.464 226.463 268.779 226.463 269.021C226.463 269.291 226.416 269.533 226.323 269.744C226.234 269.951 226.097 270.155 225.911 270.354C225.729 270.552 225.441 270.756 225.047 270.963ZM114.344 297.503C114.708 296.91 115.142 296.464 115.646 296.164C116.149 295.863 116.612 295.713 117.036 295.713C117.628 295.713 118.161 295.969 118.635 296.481C119.109 296.993 119.346 297.77 119.346 298.811C119.346 299.632 119.188 300.366 118.87 301.013C118.557 301.656 118.138 302.166 117.613 302.543C117.089 302.915 116.439 303.102 115.665 303.102C115.444 303.102 115.106 303.078 114.649 303.032C114.581 303.023 114.48 303.013 114.344 303V305.755H113.164V295.91H114.344V297.503ZM114.344 298.906V301.946C114.772 302.056 115.165 302.111 115.525 302.111C116.24 302.111 116.841 301.832 117.328 301.273C117.819 300.711 118.064 299.943 118.064 298.969C118.064 298.263 117.931 297.731 117.664 297.376C117.397 297.021 117.095 296.843 116.756 296.843C116.388 296.843 115.982 297.029 115.538 297.401C115.097 297.774 114.7 298.275 114.344 298.906ZM123.98 303.197C122.964 303.197 122.152 302.843 121.542 302.137C120.933 301.426 120.628 300.531 120.628 299.452C120.628 298.373 120.933 297.48 121.542 296.773C122.152 296.066 122.964 295.713 123.98 295.713C124.991 295.713 125.802 296.066 126.411 296.773C127.021 297.48 127.325 298.373 127.325 299.452C127.325 300.531 127.021 301.426 126.411 302.137C125.802 302.843 124.991 303.197 123.98 303.197ZM123.98 302.213C124.611 302.213 125.112 301.967 125.484 301.477C125.857 300.986 126.043 300.311 126.043 299.452C126.043 298.597 125.857 297.924 125.484 297.433C125.112 296.942 124.611 296.697 123.98 296.697C123.345 296.697 122.842 296.942 122.469 297.433C122.097 297.924 121.911 298.597 121.911 299.452C121.911 300.311 122.097 300.986 122.469 301.477C122.842 301.967 123.345 302.213 123.98 302.213ZM128.95 302.625V301.375C129.424 301.684 129.926 301.902 130.455 302.029C130.984 302.152 131.432 302.213 131.8 302.213C132.397 302.213 132.826 302.118 133.089 301.927C133.351 301.733 133.482 301.491 133.482 301.204C133.482 301.013 133.421 300.85 133.298 300.715C133.176 300.579 132.871 300.412 132.384 300.213L131.978 300.048L131.159 299.725C130.279 299.382 129.725 299.064 129.496 298.772C129.263 298.485 129.147 298.133 129.147 297.719C129.147 297.135 129.371 296.654 129.82 296.278C130.273 295.901 131.005 295.713 132.016 295.713C132.774 295.713 133.491 295.823 134.168 296.043V297.116C133.389 296.836 132.657 296.697 131.972 296.697C131.472 296.697 131.081 296.786 130.797 296.963C130.518 297.137 130.378 297.355 130.378 297.617C130.378 297.871 130.501 298.074 130.747 298.227C130.988 298.379 131.381 298.555 131.927 298.753L132.727 299.045C133.459 299.312 133.973 299.602 134.27 299.915C134.566 300.228 134.714 300.62 134.714 301.089C134.714 301.703 134.477 302.209 134.003 302.606C133.533 303 132.78 303.197 131.743 303.197C130.838 303.197 129.907 303.006 128.95 302.625ZM142.604 302.714C142.05 302.947 141.648 303.085 141.398 303.127C141.148 303.174 140.907 303.197 140.674 303.197C140.179 303.197 139.726 303.102 139.316 302.911C138.905 302.721 138.594 302.439 138.383 302.067C138.175 301.694 138.072 301.119 138.072 300.34V297.484H136.301V296.5H138.072V293.644H139.252V296.5H142.407V297.484H139.252V300.321C139.252 300.893 139.32 301.297 139.456 301.534C139.591 301.766 139.771 301.938 139.995 302.048C140.224 302.158 140.492 302.213 140.801 302.213C141.373 302.213 141.973 302.033 142.604 301.673V302.714ZM147.396 303.298C147.113 303.298 146.87 303.197 146.667 302.994C146.463 302.791 146.362 302.547 146.362 302.264C146.362 301.976 146.463 301.733 146.667 301.534C146.874 301.331 147.117 301.229 147.396 301.229C147.676 301.229 147.917 301.331 148.12 301.534C148.327 301.733 148.431 301.976 148.431 302.264C148.431 302.547 148.33 302.791 148.126 302.994C147.923 303.197 147.68 303.298 147.396 303.298ZM255.497 305.755V304.968C255.802 304.887 256.032 304.771 256.189 304.619C256.35 304.471 256.477 304.28 256.57 304.047C256.667 303.819 256.716 303.542 256.716 303.216C256.322 303.216 256.032 303.106 255.846 302.886C255.66 302.661 255.567 302.422 255.567 302.168C255.567 301.876 255.671 301.631 255.878 301.432C256.085 301.229 256.326 301.127 256.602 301.127C256.957 301.127 257.264 301.282 257.522 301.591C257.78 301.896 257.909 302.314 257.909 302.848C257.909 303.313 257.808 303.751 257.604 304.162C257.401 304.576 257.124 304.93 256.773 305.222C256.426 305.514 256.001 305.691 255.497 305.755ZM256.602 297.782C256.318 297.782 256.075 297.681 255.872 297.478C255.668 297.274 255.567 297.031 255.567 296.748C255.567 296.46 255.668 296.216 255.872 296.018C256.079 295.814 256.322 295.713 256.602 295.713C256.881 295.713 257.122 295.814 257.325 296.018C257.533 296.216 257.636 296.46 257.636 296.748C257.636 297.031 257.535 297.274 257.332 297.478C257.128 297.681 256.885 297.782 256.602 297.782ZM46.3291 326.963C45.9355 326.756 45.6457 326.552 45.4595 326.354C45.2775 326.155 45.1421 325.951 45.0532 325.744C44.9644 325.533 44.9199 325.291 44.9199 325.021C44.9199 324.779 44.9601 324.464 45.0405 324.075L45.1992 323.351C45.2839 322.958 45.3262 322.666 45.3262 322.475C45.3262 322.217 45.2246 321.999 45.0215 321.821C44.8226 321.639 44.41 321.548 43.7837 321.548H42.7998V320.558H43.7964C44.9559 320.558 45.7028 320.746 46.0371 321.123C46.3757 321.495 46.5449 321.914 46.5449 322.38C46.5449 322.634 46.5111 322.905 46.4434 323.192L46.3291 323.7L46.2212 324.252L46.145 324.583C46.1154 324.743 46.1006 324.898 46.1006 325.046C46.1006 325.435 46.2318 325.77 46.4941 326.049C46.7607 326.328 47.2284 326.468 47.897 326.468H48.4619V327.452H47.897C47.2368 327.452 46.7713 327.591 46.5005 327.871C46.2339 328.146 46.1006 328.488 46.1006 328.899C46.1006 329.047 46.1154 329.193 46.145 329.337L46.2212 329.673L46.3291 330.226L46.4434 330.733C46.5111 331.025 46.5449 331.296 46.5449 331.546C46.5449 332.016 46.3757 332.435 46.0371 332.803C45.7028 333.175 44.9559 333.361 43.7964 333.361H42.7998V332.377H43.7837C44.41 332.377 44.8226 332.286 45.0215 332.104C45.2246 331.927 45.3262 331.707 45.3262 331.444C45.3262 331.258 45.2839 330.968 45.1992 330.575L45.0405 329.851C44.9601 329.462 44.9199 329.146 44.9199 328.905C44.9199 328.634 44.9644 328.395 45.0532 328.188C45.1421 327.976 45.2775 327.771 45.4595 327.572C45.6457 327.373 45.9355 327.17 46.3291 326.963Z" fill="white"/>
<path d="M115.557 73L112.478 65.9097H113.773L116.204 71.521L118.686 65.9097H119.867L116.763 73H115.557ZM125.719 71.4067C125.36 71.9992 124.926 72.4456 124.418 72.7461C123.914 73.0465 123.451 73.1968 123.028 73.1968C122.435 73.1968 121.902 72.9408 121.428 72.4287C120.958 71.9167 120.724 71.1401 120.724 70.0991C120.724 69.2782 120.88 68.5461 121.193 67.9028C121.507 67.2554 121.925 66.7454 122.45 66.373C122.975 65.9964 123.625 65.8081 124.399 65.8081C124.623 65.8081 124.962 65.8314 125.415 65.8779C125.482 65.8864 125.584 65.897 125.719 65.9097H126.906V70.918C126.906 71.7728 126.995 72.4668 127.173 73H125.941C125.848 72.6107 125.774 72.0796 125.719 71.4067ZM125.719 70.0039V66.9634C125.3 66.8534 124.911 66.7983 124.551 66.7983C123.823 66.7983 123.216 67.0798 122.729 67.6426C122.247 68.2054 122.006 68.9714 122.006 69.9404C122.006 70.6429 122.137 71.174 122.399 71.5337C122.666 71.8892 122.969 72.0669 123.307 72.0669C123.675 72.0669 124.082 71.8807 124.526 71.5083C124.97 71.1359 125.368 70.6344 125.719 70.0039ZM130.772 73V63.7451H128.652V62.7549H131.953V72.0161H134.168V73H130.772ZM138.662 73V66.8936H136.694V65.9097H139.843V72.0161H141.817V73H138.662ZM138.465 63.3516C138.465 63.085 138.556 62.8861 138.738 62.7549C138.92 62.6237 139.092 62.5581 139.252 62.5581C139.417 62.5581 139.591 62.6237 139.773 62.7549C139.955 62.8861 140.046 63.085 140.046 63.3516C140.046 63.6139 139.955 63.8107 139.773 63.9419C139.591 64.0731 139.417 64.1387 139.252 64.1387C139.092 64.1387 138.92 64.0731 138.738 63.9419C138.556 63.8107 138.465 63.6139 138.465 63.3516ZM149.218 71.4067C148.859 71.9992 148.425 72.4456 147.917 72.7461C147.413 73.0465 146.95 73.1968 146.527 73.1968C145.934 73.1968 145.401 72.9408 144.927 72.4287C144.458 71.9167 144.223 71.1401 144.223 70.0991C144.223 69.2782 144.379 68.5461 144.692 67.9028C145.006 67.2554 145.424 66.7454 145.949 66.373C146.474 65.9964 147.124 65.8081 147.898 65.8081C148.122 65.8081 148.461 65.8314 148.914 65.8779C148.981 65.8864 149.083 65.897 149.218 65.9097V62.7549H150.405V73H149.218V71.4067ZM149.218 70.0039V66.9634C148.799 66.8534 148.41 66.7983 148.05 66.7983C147.322 66.7983 146.715 67.0798 146.229 67.6426C145.746 68.2054 145.505 68.9714 145.505 69.9404C145.505 70.6429 145.636 71.174 145.898 71.5337C146.165 71.8892 146.468 72.0669 146.806 72.0669C147.174 72.0669 147.581 71.8807 148.025 71.5083C148.469 71.1359 148.867 70.6344 149.218 70.0039ZM156.95 71.4067C156.59 71.9992 156.156 72.4456 155.648 72.7461C155.145 73.0465 154.681 73.1968 154.258 73.1968C153.666 73.1968 153.133 72.9408 152.659 72.4287C152.189 71.9167 151.954 71.1401 151.954 70.0991C151.954 69.2782 152.111 68.5461 152.424 67.9028C152.737 67.2554 153.156 66.7454 153.681 66.373C154.205 65.9964 154.855 65.8081 155.629 65.8081C155.854 65.8081 156.192 65.8314 156.645 65.8779C156.713 65.8864 156.814 65.897 156.95 65.9097H158.137V70.918C158.137 71.7728 158.226 72.4668 158.403 73H157.172C157.079 72.6107 157.005 72.0796 156.95 71.4067ZM156.95 70.0039V66.9634C156.531 66.8534 156.141 66.7983 155.782 66.7983C155.054 66.7983 154.447 67.0798 153.96 67.6426C153.478 68.2054 153.236 68.9714 153.236 69.9404C153.236 70.6429 153.368 71.174 153.63 71.5337C153.896 71.8892 154.199 72.0669 154.538 72.0669C154.906 72.0669 155.312 71.8807 155.756 71.5083C156.201 71.1359 156.598 70.6344 156.95 70.0039ZM166.027 72.7144C165.472 72.9471 165.07 73.0846 164.821 73.127C164.571 73.1735 164.33 73.1968 164.097 73.1968C163.602 73.1968 163.149 73.1016 162.739 72.9111C162.328 72.7207 162.017 72.4393 161.806 72.0669C161.598 71.6945 161.495 71.119 161.495 70.3403V67.4839H159.724V66.5H161.495V63.6436H162.675V66.5H165.83V67.4839H162.675V70.3213C162.675 70.8926 162.743 71.2967 162.878 71.5337C163.014 71.7664 163.194 71.9378 163.418 72.0479C163.646 72.1579 163.915 72.2129 164.224 72.2129C164.795 72.2129 165.396 72.033 166.027 71.6733V72.7144ZM173.803 72.5303C172.859 72.9788 171.966 73.2031 171.124 73.2031C170.485 73.2031 169.914 73.0444 169.41 72.7271C168.907 72.4097 168.502 71.9569 168.198 71.3687C167.897 70.7762 167.747 70.1436 167.747 69.4707C167.747 68.8232 167.891 68.2012 168.179 67.6045C168.466 67.0078 168.868 66.5444 169.385 66.2144C169.901 65.88 170.477 65.7129 171.111 65.7129C171.953 65.7129 172.628 66.0133 173.136 66.6143C173.648 67.2152 173.904 68.1419 173.904 69.3945V69.6484H169.017C169.017 70.1393 169.118 70.5879 169.321 70.9941C169.529 71.4004 169.799 71.7051 170.134 71.9082C170.468 72.1113 170.849 72.2129 171.276 72.2129C172.038 72.2129 172.88 71.959 173.803 71.4512V72.5303ZM169.086 68.7661H172.622V68.5947C172.622 68.015 172.48 67.5537 172.197 67.2109C171.913 66.8682 171.535 66.6968 171.061 66.6968C170.582 66.6968 170.168 66.8724 169.816 67.2236C169.469 67.5706 169.226 68.0848 169.086 68.7661ZM115.557 275L112.478 267.91H113.773L116.204 273.521L118.686 267.91H119.867L116.763 275H115.557ZM125.719 273.407C125.36 273.999 124.926 274.446 124.418 274.746C123.914 275.047 123.451 275.197 123.028 275.197C122.435 275.197 121.902 274.941 121.428 274.429C120.958 273.917 120.724 273.14 120.724 272.099C120.724 271.278 120.88 270.546 121.193 269.903C121.507 269.255 121.925 268.745 122.45 268.373C122.975 267.996 123.625 267.808 124.399 267.808C124.623 267.808 124.962 267.831 125.415 267.878C125.482 267.886 125.584 267.897 125.719 267.91H126.906V272.918C126.906 273.773 126.995 274.467 127.173 275H125.941C125.848 274.611 125.774 274.08 125.719 273.407ZM125.719 272.004V268.963C125.3 268.853 124.911 268.798 124.551 268.798C123.823 268.798 123.216 269.08 122.729 269.643C122.247 270.205 122.006 270.971 122.006 271.94C122.006 272.643 122.137 273.174 122.399 273.534C122.666 273.889 122.969 274.067 123.307 274.067C123.675 274.067 124.082 273.881 124.526 273.508C124.97 273.136 125.368 272.634 125.719 272.004ZM130.772 275V265.745H128.652V264.755H131.953V274.016H134.168V275H130.772ZM138.662 275V268.894H136.694V267.91H139.843V274.016H141.817V275H138.662ZM138.465 265.352C138.465 265.085 138.556 264.886 138.738 264.755C138.92 264.624 139.092 264.558 139.252 264.558C139.417 264.558 139.591 264.624 139.773 264.755C139.955 264.886 140.046 265.085 140.046 265.352C140.046 265.614 139.955 265.811 139.773 265.942C139.591 266.073 139.417 266.139 139.252 266.139C139.092 266.139 138.92 266.073 138.738 265.942C138.556 265.811 138.465 265.614 138.465 265.352ZM149.218 273.407C148.859 273.999 148.425 274.446 147.917 274.746C147.413 275.047 146.95 275.197 146.527 275.197C145.934 275.197 145.401 274.941 144.927 274.429C144.458 273.917 144.223 273.14 144.223 272.099C144.223 271.278 144.379 270.546 144.692 269.903C145.006 269.255 145.424 268.745 145.949 268.373C146.474 267.996 147.124 267.808 147.898 267.808C148.122 267.808 148.461 267.831 148.914 267.878C148.981 267.886 149.083 267.897 149.218 267.91V264.755H150.405V275H149.218V273.407ZM149.218 272.004V268.963C148.799 268.853 148.41 268.798 148.05 268.798C147.322 268.798 146.715 269.08 146.229 269.643C145.746 270.205 145.505 270.971 145.505 271.94C145.505 272.643 145.636 273.174 145.898 273.534C146.165 273.889 146.468 274.067 146.806 274.067C147.174 274.067 147.581 273.881 148.025 273.508C148.469 273.136 148.867 272.634 149.218 272.004ZM156.95 273.407C156.59 273.999 156.156 274.446 155.648 274.746C155.145 275.047 154.681 275.197 154.258 275.197C153.666 275.197 153.133 274.941 152.659 274.429C152.189 273.917 151.954 273.14 151.954 272.099C151.954 271.278 152.111 270.546 152.424 269.903C152.737 269.255 153.156 268.745 153.681 268.373C154.205 267.996 154.855 267.808 155.629 267.808C155.854 267.808 156.192 267.831 156.645 267.878C156.713 267.886 156.814 267.897 156.95 267.91H158.137V272.918C158.137 273.773 158.226 274.467 158.403 275H157.172C157.079 274.611 157.005 274.08 156.95 273.407ZM156.95 272.004V268.963C156.531 268.853 156.141 268.798 155.782 268.798C155.054 268.798 154.447 269.08 153.96 269.643C153.478 270.205 153.236 270.971 153.236 271.94C153.236 272.643 153.368 273.174 153.63 273.534C153.896 273.889 154.199 274.067 154.538 274.067C154.906 274.067 155.312 273.881 155.756 273.508C156.201 273.136 156.598 272.634 156.95 272.004ZM166.027 274.714C165.472 274.947 165.07 275.085 164.821 275.127C164.571 275.174 164.33 275.197 164.097 275.197C163.602 275.197 163.149 275.102 162.739 274.911C162.328 274.721 162.017 274.439 161.806 274.067C161.598 273.694 161.495 273.119 161.495 272.34V269.484H159.724V268.5H161.495V265.644H162.675V268.5H165.83V269.484H162.675V272.321C162.675 272.893 162.743 273.297 162.878 273.534C163.014 273.766 163.194 273.938 163.418 274.048C163.646 274.158 163.915 274.213 164.224 274.213C164.795 274.213 165.396 274.033 166.027 273.673V274.714ZM173.803 274.53C172.859 274.979 171.966 275.203 171.124 275.203C170.485 275.203 169.914 275.044 169.41 274.727C168.907 274.41 168.502 273.957 168.198 273.369C167.897 272.776 167.747 272.144 167.747 271.471C167.747 270.823 167.891 270.201 168.179 269.604C168.466 269.008 168.868 268.544 169.385 268.214C169.901 267.88 170.477 267.713 171.111 267.713C171.953 267.713 172.628 268.013 173.136 268.614C173.648 269.215 173.904 270.142 173.904 271.395V271.648H169.017C169.017 272.139 169.118 272.588 169.321 272.994C169.529 273.4 169.799 273.705 170.134 273.908C170.468 274.111 170.849 274.213 171.276 274.213C172.038 274.213 172.88 273.959 173.803 273.451V274.53ZM169.086 270.766H172.622V270.595C172.622 270.015 172.48 269.554 172.197 269.211C171.913 268.868 171.535 268.697 171.061 268.697C170.582 268.697 170.168 268.872 169.816 269.224C169.469 269.571 169.226 270.085 169.086 270.766Z" fill="#A0CA40"/>
<path d="M184.613 67.5029C184.977 66.9105 185.41 66.464 185.914 66.1636C186.418 65.8631 186.881 65.7129 187.304 65.7129C187.897 65.7129 188.43 65.9689 188.904 66.481C189.378 66.993 189.615 67.7695 189.615 68.8105C189.615 69.6315 189.456 70.3657 189.139 71.0132C188.826 71.6564 188.407 72.1663 187.882 72.543C187.357 72.9154 186.708 73.1016 185.933 73.1016C185.713 73.1016 185.375 73.0783 184.917 73.0317C184.85 73.0233 184.748 73.0127 184.613 73V75.7549H183.432V65.9097H184.613V67.5029ZM184.613 68.9058V71.9463C185.04 72.0563 185.434 72.1113 185.793 72.1113C186.509 72.1113 187.11 71.832 187.596 71.2734C188.087 70.7106 188.333 69.9425 188.333 68.9692C188.333 68.2625 188.199 67.7314 187.933 67.376C187.666 67.0205 187.363 66.8428 187.025 66.8428C186.657 66.8428 186.25 67.029 185.806 67.4014C185.366 67.7738 184.968 68.2752 184.613 68.9058ZM194.249 73.1968C193.233 73.1968 192.42 72.8434 191.811 72.1367C191.202 71.4258 190.897 70.5308 190.897 69.4517C190.897 68.3726 191.202 67.4797 191.811 66.7729C192.42 66.0662 193.233 65.7129 194.249 65.7129C195.26 65.7129 196.07 66.0662 196.68 66.7729C197.289 67.4797 197.594 68.3726 197.594 69.4517C197.594 70.5308 197.289 71.4258 196.68 72.1367C196.07 72.8434 195.26 73.1968 194.249 73.1968ZM194.249 72.2129C194.879 72.2129 195.381 71.9674 195.753 71.4766C196.125 70.9857 196.312 70.3107 196.312 69.4517C196.312 68.5968 196.125 67.924 195.753 67.4331C195.381 66.9422 194.879 66.6968 194.249 66.6968C193.614 66.6968 193.11 66.9422 192.738 67.4331C192.365 67.924 192.179 68.5968 192.179 69.4517C192.179 70.3107 192.365 70.9857 192.738 71.4766C193.11 71.9674 193.614 72.2129 194.249 72.2129ZM199.219 72.6255V71.375C199.693 71.6839 200.194 71.9019 200.723 72.0288C201.252 72.1515 201.701 72.2129 202.069 72.2129C202.666 72.2129 203.095 72.1177 203.357 71.9272C203.62 71.7326 203.751 71.4914 203.751 71.2036C203.751 71.0132 203.69 70.8503 203.567 70.7148C203.444 70.5794 203.139 70.4123 202.653 70.2134L202.247 70.0483L201.428 69.7246C200.548 69.3818 199.993 69.0645 199.765 68.7725C199.532 68.4847 199.416 68.1335 199.416 67.7188C199.416 67.1348 199.64 66.6545 200.088 66.2778C200.541 65.9012 201.273 65.7129 202.285 65.7129C203.042 65.7129 203.759 65.8229 204.437 66.043V67.1157C203.658 66.8364 202.926 66.6968 202.24 66.6968C201.741 66.6968 201.349 66.7856 201.066 66.9634C200.787 67.1369 200.647 67.3548 200.647 67.6172C200.647 67.8711 200.77 68.0742 201.015 68.2266C201.256 68.3789 201.65 68.5545 202.196 68.7534L202.996 69.0454C203.728 69.312 204.242 69.6019 204.538 69.915C204.834 70.2282 204.982 70.6196 204.982 71.0894C204.982 71.703 204.745 72.2087 204.271 72.6064C203.802 73 203.049 73.1968 202.012 73.1968C201.106 73.1968 200.175 73.0063 199.219 72.6255ZM212.873 72.7144C212.318 72.9471 211.916 73.0846 211.667 73.127C211.417 73.1735 211.176 73.1968 210.943 73.1968C210.448 73.1968 209.995 73.1016 209.584 72.9111C209.174 72.7207 208.863 72.4393 208.651 72.0669C208.444 71.6945 208.34 71.119 208.34 70.3403V67.4839H206.569V66.5H208.34V63.6436H209.521V66.5H212.676V67.4839H209.521V70.3213C209.521 70.8926 209.589 71.2967 209.724 71.5337C209.86 71.7664 210.039 71.9378 210.264 72.0479C210.492 72.1579 210.761 72.2129 211.07 72.2129C211.641 72.2129 212.242 72.033 212.873 71.6733V72.7144ZM184.613 269.503C184.977 268.91 185.41 268.464 185.914 268.164C186.418 267.863 186.881 267.713 187.304 267.713C187.897 267.713 188.43 267.969 188.904 268.481C189.378 268.993 189.615 269.77 189.615 270.811C189.615 271.632 189.456 272.366 189.139 273.013C188.826 273.656 188.407 274.166 187.882 274.543C187.357 274.915 186.708 275.102 185.933 275.102C185.713 275.102 185.375 275.078 184.917 275.032C184.85 275.023 184.748 275.013 184.613 275V277.755H183.432V267.91H184.613V269.503ZM184.613 270.906V273.946C185.04 274.056 185.434 274.111 185.793 274.111C186.509 274.111 187.11 273.832 187.596 273.273C188.087 272.711 188.333 271.943 188.333 270.969C188.333 270.263 188.199 269.731 187.933 269.376C187.666 269.021 187.363 268.843 187.025 268.843C186.657 268.843 186.25 269.029 185.806 269.401C185.366 269.774 184.968 270.275 184.613 270.906ZM194.249 275.197C193.233 275.197 192.42 274.843 191.811 274.137C191.202 273.426 190.897 272.531 190.897 271.452C190.897 270.373 191.202 269.48 191.811 268.773C192.42 268.066 193.233 267.713 194.249 267.713C195.26 267.713 196.07 268.066 196.68 268.773C197.289 269.48 197.594 270.373 197.594 271.452C197.594 272.531 197.289 273.426 196.68 274.137C196.07 274.843 195.26 275.197 194.249 275.197ZM194.249 274.213C194.879 274.213 195.381 273.967 195.753 273.477C196.125 272.986 196.312 272.311 196.312 271.452C196.312 270.597 196.125 269.924 195.753 269.433C195.381 268.942 194.879 268.697 194.249 268.697C193.614 268.697 193.11 268.942 192.738 269.433C192.365 269.924 192.179 270.597 192.179 271.452C192.179 272.311 192.365 272.986 192.738 273.477C193.11 273.967 193.614 274.213 194.249 274.213ZM199.219 274.625V273.375C199.693 273.684 200.194 273.902 200.723 274.029C201.252 274.152 201.701 274.213 202.069 274.213C202.666 274.213 203.095 274.118 203.357 273.927C203.62 273.733 203.751 273.491 203.751 273.204C203.751 273.013 203.69 272.85 203.567 272.715C203.444 272.579 203.139 272.412 202.653 272.213L202.247 272.048L201.428 271.725C200.548 271.382 199.993 271.064 199.765 270.772C199.532 270.485 199.416 270.133 199.416 269.719C199.416 269.135 199.64 268.654 200.088 268.278C200.541 267.901 201.273 267.713 202.285 267.713C203.042 267.713 203.759 267.823 204.437 268.043V269.116C203.658 268.836 202.926 268.697 202.24 268.697C201.741 268.697 201.349 268.786 201.066 268.963C200.787 269.137 200.647 269.355 200.647 269.617C200.647 269.871 200.77 270.074 201.015 270.227C201.256 270.379 201.65 270.555 202.196 270.753L202.996 271.045C203.728 271.312 204.242 271.602 204.538 271.915C204.834 272.228 204.982 272.62 204.982 273.089C204.982 273.703 204.745 274.209 204.271 274.606C203.802 275 203.049 275.197 202.012 275.197C201.106 275.197 200.175 275.006 199.219 274.625ZM212.873 274.714C212.318 274.947 211.916 275.085 211.667 275.127C211.417 275.174 211.176 275.197 210.943 275.197C210.448 275.197 209.995 275.102 209.584 274.911C209.174 274.721 208.863 274.439 208.651 274.067C208.444 273.694 208.34 273.119 208.34 272.34V269.484H206.569V268.5H208.34V265.644H209.521V268.5H212.676V269.484H209.521V272.321C209.521 272.893 209.589 273.297 209.724 273.534C209.86 273.766 210.039 273.938 210.264 274.048C210.492 274.158 210.761 274.213 211.07 274.213C211.641 274.213 212.242 274.033 212.873 273.673V274.714Z" fill="#FFC562"/>
<path d="M60.5859 100V93.8936H58.6182V92.9097H61.7666V99.0161H63.7407V100H60.5859ZM60.3892 90.3516C60.3892 90.085 60.4801 89.8861 60.6621 89.7549C60.8441 89.6237 61.0155 89.5581 61.1763 89.5581C61.3413 89.5581 61.5148 89.6237 61.6968 89.7549C61.8787 89.8861 61.9697 90.085 61.9697 90.3516C61.9697 90.6139 61.8787 90.8107 61.6968 90.9419C61.5148 91.0731 61.3413 91.1387 61.1763 91.1387C61.0155 91.1387 60.8441 91.0731 60.6621 90.9419C60.4801 90.8107 60.3892 90.6139 60.3892 90.3516ZM68.0571 100V94.4839H66.4829V93.5H68.0571V93.1699C68.0571 92.2347 68.1629 91.5428 68.3745 91.0942C68.5861 90.6457 68.9119 90.2775 69.3521 89.9897C69.7964 89.702 70.3825 89.5581 71.1104 89.5581C71.6605 89.5581 72.2191 89.6152 72.7861 89.7295V90.853C72.1725 90.6499 71.6287 90.5483 71.1548 90.5483C70.7782 90.5483 70.446 90.6182 70.1582 90.7578C69.8704 90.8975 69.644 91.126 69.479 91.4434C69.3182 91.7565 69.2378 92.2897 69.2378 93.043V93.5H72.0498V94.4839H69.2378V100H68.0571ZM175.18 96.5532L182.074 93.1064V94.2046L177.364 96.5469L182.074 98.9146V100L175.18 96.5532ZM189.881 94.979V95.9629H182.988V94.979H189.881ZM189.881 97.1943V98.1782H182.988V97.1943H189.881ZM74.8174 121V113.91H75.998V115.458C76.3662 114.875 76.7873 114.439 77.2612 114.151C77.7394 113.859 78.2705 113.713 78.8545 113.713C79.2819 113.713 79.7093 113.778 80.1367 113.91V116.468H79.0005V114.849C78.8016 114.815 78.645 114.798 78.5308 114.798C78.0907 114.798 77.659 114.972 77.2358 115.319C76.8127 115.666 76.4001 116.186 75.998 116.88V121H74.8174ZM87.9189 120.53C86.9753 120.979 86.0824 121.203 85.2402 121.203C84.6012 121.203 84.0299 121.044 83.5264 120.727C83.0228 120.41 82.6187 119.957 82.314 119.369C82.0135 118.776 81.8633 118.144 81.8633 117.471C81.8633 116.823 82.0072 116.201 82.2949 115.604C82.5827 115.008 82.9847 114.544 83.501 114.214C84.0173 113.88 84.5928 113.713 85.2275 113.713C86.0697 113.713 86.7446 114.013 87.2524 114.614C87.7645 115.215 88.0205 116.142 88.0205 117.395V117.648H83.1328C83.1328 118.139 83.2344 118.588 83.4375 118.994C83.6449 119.4 83.9157 119.705 84.25 119.908C84.5843 120.111 84.9652 120.213 85.3926 120.213C86.1543 120.213 86.9964 119.959 87.9189 119.451V120.53ZM83.2026 116.766H86.7383V116.595C86.7383 116.015 86.5965 115.554 86.313 115.211C86.0295 114.868 85.6507 114.697 85.1768 114.697C84.6986 114.697 84.2839 114.872 83.9326 115.224C83.5856 115.571 83.3423 116.085 83.2026 116.766ZM95.7583 120.714C95.2039 120.947 94.8019 121.085 94.5522 121.127C94.3026 121.174 94.0614 121.197 93.8286 121.197C93.3335 121.197 92.8807 121.102 92.4702 120.911C92.0597 120.721 91.7487 120.439 91.5371 120.067C91.3298 119.694 91.2261 119.119 91.2261 118.34V115.484H89.4551V114.5H91.2261V111.644H92.4067V114.5H95.5615V115.484H92.4067V118.321C92.4067 118.893 92.4744 119.297 92.6099 119.534C92.7453 119.766 92.9251 119.938 93.1494 120.048C93.3779 120.158 93.6466 120.213 93.9556 120.213C94.5269 120.213 95.1278 120.033 95.7583 119.673V120.714ZM103.471 113.91V121H102.29V119.445C101.909 120.029 101.486 120.467 101.021 120.759C100.555 121.051 100.09 121.197 99.624 121.197C99.2093 121.197 98.8285 121.087 98.4814 120.867C98.1387 120.642 97.8996 120.35 97.7642 119.991C97.6287 119.627 97.561 118.92 97.561 117.871V113.91H98.7417V118.017C98.7417 118.698 98.7734 119.149 98.8369 119.369C98.9046 119.584 99.0252 119.762 99.1987 119.902C99.3765 120.042 99.5669 120.111 99.77 120.111C100.185 120.111 100.629 119.917 101.103 119.527C101.581 119.134 101.977 118.639 102.29 118.042V113.91H103.471ZM106.048 121V113.91H107.229V115.458C107.597 114.875 108.018 114.439 108.492 114.151C108.97 113.859 109.501 113.713 110.085 113.713C110.512 113.713 110.94 113.778 111.367 113.91V116.468H110.231V114.849C110.032 114.815 109.875 114.798 109.761 114.798C109.321 114.798 108.889 114.972 108.466 115.319C108.043 115.666 107.631 116.186 107.229 116.88V121H106.048ZM113.252 121V113.91H114.433V115.458C114.772 114.913 115.18 114.485 115.658 114.176C116.136 113.867 116.615 113.713 117.093 113.713C117.512 113.713 117.893 113.825 118.235 114.049C118.578 114.269 118.817 114.559 118.953 114.919C119.092 115.279 119.162 115.985 119.162 117.039V121H117.981V116.893C117.981 116.212 117.948 115.763 117.88 115.547C117.816 115.327 117.696 115.147 117.518 115.008C117.345 114.868 117.154 114.798 116.947 114.798C116.532 114.798 116.086 114.995 115.607 115.389C115.133 115.782 114.742 116.275 114.433 116.868V121H113.252ZM74.8174 163V155.91H75.998V157.458C76.3662 156.875 76.7873 156.439 77.2612 156.151C77.7394 155.859 78.2705 155.713 78.8545 155.713C79.2819 155.713 79.7093 155.778 80.1367 155.91V158.468H79.0005V156.849C78.8016 156.815 78.645 156.798 78.5308 156.798C78.0907 156.798 77.659 156.972 77.2358 157.319C76.8127 157.666 76.4001 158.186 75.998 158.88V163H74.8174ZM87.9189 162.53C86.9753 162.979 86.0824 163.203 85.2402 163.203C84.6012 163.203 84.0299 163.044 83.5264 162.727C83.0228 162.41 82.6187 161.957 82.314 161.369C82.0135 160.776 81.8633 160.144 81.8633 159.471C81.8633 158.823 82.0072 158.201 82.2949 157.604C82.5827 157.008 82.9847 156.544 83.501 156.214C84.0173 155.88 84.5928 155.713 85.2275 155.713C86.0697 155.713 86.7446 156.013 87.2524 156.614C87.7645 157.215 88.0205 158.142 88.0205 159.395V159.648H83.1328C83.1328 160.139 83.2344 160.588 83.4375 160.994C83.6449 161.4 83.9157 161.705 84.25 161.908C84.5843 162.111 84.9652 162.213 85.3926 162.213C86.1543 162.213 86.9964 161.959 87.9189 161.451V162.53ZM83.2026 158.766H86.7383V158.595C86.7383 158.015 86.5965 157.554 86.313 157.211C86.0295 156.868 85.6507 156.697 85.1768 156.697C84.6986 156.697 84.2839 156.872 83.9326 157.224C83.5856 157.571 83.3423 158.085 83.2026 158.766ZM95.7583 162.714C95.2039 162.947 94.8019 163.085 94.5522 163.127C94.3026 163.174 94.0614 163.197 93.8286 163.197C93.3335 163.197 92.8807 163.102 92.4702 162.911C92.0597 162.721 91.7487 162.439 91.5371 162.067C91.3298 161.694 91.2261 161.119 91.2261 160.34V157.484H89.4551V156.5H91.2261V153.644H92.4067V156.5H95.5615V157.484H92.4067V160.321C92.4067 160.893 92.4744 161.297 92.6099 161.534C92.7453 161.766 92.9251 161.938 93.1494 162.048C93.3779 162.158 93.6466 162.213 93.9556 162.213C94.5269 162.213 95.1278 162.033 95.7583 161.673V162.714ZM103.471 155.91V163H102.29V161.445C101.909 162.029 101.486 162.467 101.021 162.759C100.555 163.051 100.09 163.197 99.624 163.197C99.2093 163.197 98.8285 163.087 98.4814 162.867C98.1387 162.642 97.8996 162.35 97.7642 161.991C97.6287 161.627 97.561 160.92 97.561 159.871V155.91H98.7417V160.017C98.7417 160.698 98.7734 161.149 98.8369 161.369C98.9046 161.584 99.0252 161.762 99.1987 161.902C99.3765 162.042 99.5669 162.111 99.77 162.111C100.185 162.111 100.629 161.917 101.103 161.527C101.581 161.134 101.977 160.639 102.29 160.042V155.91H103.471ZM106.048 163V155.91H107.229V157.458C107.597 156.875 108.018 156.439 108.492 156.151C108.97 155.859 109.501 155.713 110.085 155.713C110.512 155.713 110.94 155.778 111.367 155.91V158.468H110.231V156.849C110.032 156.815 109.875 156.798 109.761 156.798C109.321 156.798 108.889 156.972 108.466 157.319C108.043 157.666 107.631 158.186 107.229 158.88V163H106.048ZM113.252 163V155.91H114.433V157.458C114.772 156.913 115.18 156.485 115.658 156.176C116.136 155.867 116.615 155.713 117.093 155.713C117.512 155.713 117.893 155.825 118.235 156.049C118.578 156.269 118.817 156.559 118.953 156.919C119.092 157.279 119.162 157.985 119.162 159.039V163H117.981V158.893C117.981 158.212 117.948 157.763 117.88 157.547C117.816 157.327 117.696 157.147 117.518 157.008C117.345 156.868 117.154 156.798 116.947 156.798C116.532 156.798 116.086 156.995 115.607 157.389C115.133 157.782 114.742 158.275 114.433 158.868V163H113.252ZM59.2021 303V295.91H60.3828V297.458C60.751 296.875 61.172 296.439 61.646 296.151C62.1242 295.859 62.6553 295.713 63.2393 295.713C63.6667 295.713 64.0941 295.778 64.5215 295.91V298.468H63.3853V296.849C63.1864 296.815 63.0298 296.798 62.9155 296.798C62.4754 296.798 62.0438 296.972 61.6206 297.319C61.1974 297.666 60.7848 298.186 60.3828 298.88V303H59.2021ZM72.3037 302.53C71.36 302.979 70.4671 303.203 69.625 303.203C68.986 303.203 68.4147 303.044 67.9111 302.727C67.4076 302.41 67.0034 301.957 66.6987 301.369C66.3983 300.776 66.248 300.144 66.248 299.471C66.248 298.823 66.3919 298.201 66.6797 297.604C66.9674 297.008 67.3695 296.544 67.8857 296.214C68.402 295.88 68.9775 295.713 69.6123 295.713C70.4544 295.713 71.1294 296.013 71.6372 296.614C72.1493 297.215 72.4053 298.142 72.4053 299.395V299.648H67.5176C67.5176 300.139 67.6191 300.588 67.8223 300.994C68.0296 301.4 68.3005 301.705 68.6348 301.908C68.9691 302.111 69.3499 302.213 69.7773 302.213C70.5391 302.213 71.3812 301.959 72.3037 301.451V302.53ZM67.5874 298.766H71.123V298.595C71.123 298.015 70.9813 297.554 70.6978 297.211C70.4142 296.868 70.0355 296.697 69.5615 296.697C69.0833 296.697 68.6686 296.872 68.3174 297.224C67.9704 297.571 67.7271 298.085 67.5874 298.766ZM80.1431 302.714C79.5887 302.947 79.1867 303.085 78.937 303.127C78.6873 303.174 78.4461 303.197 78.2134 303.197C77.7183 303.197 77.2655 303.102 76.855 302.911C76.4445 302.721 76.1335 302.439 75.9219 302.067C75.7145 301.694 75.6108 301.119 75.6108 300.34V297.484H73.8398V296.5H75.6108V293.644H76.7915V296.5H79.9463V297.484H76.7915V300.321C76.7915 300.893 76.8592 301.297 76.9946 301.534C77.13 301.766 77.3099 301.938 77.5342 302.048C77.7627 302.158 78.0314 302.213 78.3403 302.213C78.9116 302.213 79.5125 302.033 80.1431 301.673V302.714ZM87.8555 295.91V303H86.6748V301.445C86.2939 302.029 85.8708 302.467 85.4053 302.759C84.9398 303.051 84.4743 303.197 84.0088 303.197C83.5941 303.197 83.2132 303.087 82.8662 302.867C82.5234 302.642 82.2843 302.35 82.1489 301.991C82.0135 301.627 81.9458 300.92 81.9458 299.871V295.91H83.1265V300.017C83.1265 300.698 83.1582 301.149 83.2217 301.369C83.2894 301.584 83.41 301.762 83.5835 301.902C83.7612 302.042 83.9517 302.111 84.1548 302.111C84.5695 302.111 85.0138 301.917 85.4878 301.527C85.966 301.134 86.3617 300.639 86.6748 300.042V295.91H87.8555ZM90.4326 303V295.91H91.6133V297.458C91.9814 296.875 92.4025 296.439 92.8765 296.151C93.3547 295.859 93.8857 295.713 94.4697 295.713C94.8971 295.713 95.3245 295.778 95.752 295.91V298.468H94.6157V296.849C94.4168 296.815 94.2603 296.798 94.146 296.798C93.7059 296.798 93.2743 296.972 92.8511 297.319C92.4279 297.666 92.0153 298.186 91.6133 298.88V303H90.4326ZM97.6372 303V295.91H98.8179V297.458C99.1564 296.913 99.5648 296.485 100.043 296.176C100.521 295.867 100.999 295.713 101.478 295.713C101.896 295.713 102.277 295.825 102.62 296.049C102.963 296.269 103.202 296.559 103.337 296.919C103.477 297.279 103.547 297.985 103.547 299.039V303H102.366V298.893C102.366 298.212 102.332 297.763 102.265 297.547C102.201 297.327 102.081 297.147 101.903 297.008C101.729 296.868 101.539 296.798 101.332 296.798C100.917 296.798 100.47 296.995 99.9922 297.389C99.5182 297.782 99.1268 298.275 98.8179 298.868V303H97.6372ZM206.411 299.553L213.304 296.106V297.205L208.594 299.547L213.304 301.915V303L206.411 299.553ZM221.112 297.979V298.963H214.218V297.979H221.112ZM221.112 300.194V301.178H214.218V300.194H221.112Z" fill="#FF0E5B"/>
<path d="M201.758 99.0161V91.4116C201.402 91.6951 201.057 91.9364 200.723 92.1353C200.389 92.3341 199.93 92.5373 199.346 92.7446V91.6782C200.272 91.2847 201.076 90.7747 201.758 90.1484H202.938V99.0161H205.306V100H199.346V99.0161H201.758ZM209.857 89.8564C210.979 89.8564 211.834 90.3283 212.422 91.272C213.01 92.2114 213.304 93.4788 213.304 95.0742C213.304 96.6738 213.01 97.9455 212.422 98.8892C211.834 99.8286 210.979 100.298 209.857 100.298C208.74 100.298 207.885 99.8286 207.293 98.8892C206.705 97.9455 206.411 96.6738 206.411 95.0742C206.411 93.4788 206.705 92.2114 207.293 91.272C207.885 90.3283 208.74 89.8564 209.857 89.8564ZM207.934 97.1816L211.343 91.8433C211.127 91.4497 210.892 91.1852 210.638 91.0498C210.389 90.9102 210.128 90.8403 209.857 90.8403C209.151 90.8403 208.613 91.2339 208.245 92.021C207.877 92.8039 207.693 93.7983 207.693 95.0044C207.693 95.2795 207.701 95.5757 207.718 95.8931C207.735 96.2104 207.807 96.64 207.934 97.1816ZM211.768 93.0176L208.385 98.3877C208.567 98.6966 208.776 98.9294 209.013 99.0859C209.25 99.2383 209.515 99.3145 209.807 99.3145C210.611 99.3145 211.182 98.8659 211.521 97.9688C211.859 97.0674 212.028 96.0687 212.028 94.9727C212.028 94.2956 211.942 93.6439 211.768 93.0176ZM217.665 89.8564C218.786 89.8564 219.641 90.3283 220.229 91.272C220.818 92.2114 221.112 93.4788 221.112 95.0742C221.112 96.6738 220.818 97.9455 220.229 98.8892C219.641 99.8286 218.786 100.298 217.665 100.298C216.548 100.298 215.693 99.8286 215.101 98.8892C214.512 97.9455 214.218 96.6738 214.218 95.0742C214.218 93.4788 214.512 92.2114 215.101 91.272C215.693 90.3283 216.548 89.8564 217.665 89.8564ZM215.742 97.1816L219.15 91.8433C218.935 91.4497 218.7 91.1852 218.446 91.0498C218.196 90.9102 217.936 90.8403 217.665 90.8403C216.958 90.8403 216.421 91.2339 216.053 92.021C215.685 92.8039 215.5 93.7983 215.5 95.0044C215.5 95.2795 215.509 95.5757 215.526 95.8931C215.543 96.2104 215.615 96.64 215.742 97.1816ZM219.576 93.0176L216.192 98.3877C216.374 98.6966 216.584 98.9294 216.821 99.0859C217.058 99.2383 217.322 99.3145 217.614 99.3145C218.418 99.3145 218.99 98.8659 219.328 97.9688C219.667 97.0674 219.836 96.0687 219.836 94.9727C219.836 94.2956 219.749 93.6439 219.576 93.0176ZM134.796 120.714C134.242 120.947 133.84 121.085 133.59 121.127C133.341 121.174 133.099 121.197 132.867 121.197C132.372 121.197 131.919 121.102 131.508 120.911C131.098 120.721 130.787 120.439 130.575 120.067C130.368 119.694 130.264 119.119 130.264 118.34V115.484H128.493V114.5H130.264V111.644H131.445V114.5H134.6V115.484H131.445V118.321C131.445 118.893 131.513 119.297 131.648 119.534C131.783 119.766 131.963 119.938 132.188 120.048C132.416 120.158 132.685 120.213 132.994 120.213C133.565 120.213 134.166 120.033 134.796 119.673V120.714ZM137.278 121V113.91H138.459V115.458C138.827 114.875 139.248 114.439 139.722 114.151C140.2 113.859 140.731 113.713 141.315 113.713C141.743 113.713 142.17 113.778 142.598 113.91V116.468H141.461V114.849C141.263 114.815 141.106 114.798 140.992 114.798C140.552 114.798 140.12 114.972 139.697 115.319C139.274 115.666 138.861 116.186 138.459 116.88V121H137.278ZM150.316 113.91V121H149.136V119.445C148.755 120.029 148.332 120.467 147.866 120.759C147.401 121.051 146.935 121.197 146.47 121.197C146.055 121.197 145.674 121.087 145.327 120.867C144.984 120.642 144.745 120.35 144.61 119.991C144.474 119.627 144.407 118.92 144.407 117.871V113.91H145.587V118.017C145.587 118.698 145.619 119.149 145.683 119.369C145.75 119.584 145.871 119.762 146.044 119.902C146.222 120.042 146.413 120.111 146.616 120.111C147.03 120.111 147.475 119.917 147.949 119.527C148.427 119.134 148.823 118.639 149.136 118.042V113.91H150.316ZM158.188 120.53C157.244 120.979 156.351 121.203 155.509 121.203C154.87 121.203 154.299 121.044 153.795 120.727C153.291 120.41 152.887 119.957 152.583 119.369C152.282 118.776 152.132 118.144 152.132 117.471C152.132 116.823 152.276 116.201 152.563 115.604C152.851 115.008 153.253 114.544 153.77 114.214C154.286 113.88 154.861 113.713 155.496 113.713C156.338 113.713 157.013 114.013 157.521 114.614C158.033 115.215 158.289 116.142 158.289 117.395V117.648H153.401C153.401 118.139 153.503 118.588 153.706 118.994C153.913 119.4 154.184 119.705 154.519 119.908C154.853 120.111 155.234 120.213 155.661 120.213C156.423 120.213 157.265 119.959 158.188 119.451V120.53ZM153.471 116.766H157.007V116.595C157.007 116.015 156.865 115.554 156.582 115.211C156.298 114.868 155.919 114.697 155.445 114.697C154.967 114.697 154.552 114.872 154.201 115.224C153.854 115.571 153.611 116.085 153.471 116.766ZM130.518 163V157.484H128.944V156.5H130.518V156.17C130.518 155.235 130.624 154.543 130.835 154.094C131.047 153.646 131.373 153.278 131.813 152.99C132.257 152.702 132.843 152.558 133.571 152.558C134.121 152.558 134.68 152.615 135.247 152.729V153.853C134.633 153.65 134.09 153.548 133.616 153.548C133.239 153.548 132.907 153.618 132.619 153.758C132.331 153.897 132.105 154.126 131.94 154.443C131.779 154.757 131.699 155.29 131.699 156.043V156.5H134.511V157.484H131.699V163H130.518ZM141.334 161.407C140.975 161.999 140.541 162.446 140.033 162.746C139.53 163.047 139.066 163.197 138.643 163.197C138.051 163.197 137.517 162.941 137.043 162.429C136.574 161.917 136.339 161.14 136.339 160.099C136.339 159.278 136.495 158.546 136.809 157.903C137.122 157.255 137.541 156.745 138.065 156.373C138.59 155.996 139.24 155.808 140.014 155.808C140.238 155.808 140.577 155.831 141.03 155.878C141.097 155.886 141.199 155.897 141.334 155.91H142.521V160.918C142.521 161.773 142.61 162.467 142.788 163H141.557C141.464 162.611 141.389 162.08 141.334 161.407ZM141.334 160.004V156.963C140.916 156.853 140.526 156.798 140.167 156.798C139.439 156.798 138.831 157.08 138.345 157.643C137.862 158.205 137.621 158.971 137.621 159.94C137.621 160.643 137.752 161.174 138.015 161.534C138.281 161.889 138.584 162.067 138.922 162.067C139.291 162.067 139.697 161.881 140.141 161.508C140.585 161.136 140.983 160.634 141.334 160.004ZM146.387 163V153.745H144.267V152.755H147.568V162.016H149.783V163H146.387ZM152.373 162.625V161.375C152.847 161.684 153.348 161.902 153.877 162.029C154.406 162.152 154.855 162.213 155.223 162.213C155.82 162.213 156.249 162.118 156.512 161.927C156.774 161.733 156.905 161.491 156.905 161.204C156.905 161.013 156.844 160.85 156.721 160.715C156.598 160.579 156.294 160.412 155.807 160.213L155.401 160.048L154.582 159.725C153.702 159.382 153.147 159.064 152.919 158.772C152.686 158.485 152.57 158.133 152.57 157.719C152.57 157.135 152.794 156.654 153.243 156.278C153.695 155.901 154.428 155.713 155.439 155.713C156.196 155.713 156.914 155.823 157.591 156.043V157.116C156.812 156.836 156.08 156.697 155.395 156.697C154.895 156.697 154.504 156.786 154.22 156.963C153.941 157.137 153.801 157.355 153.801 157.617C153.801 157.871 153.924 158.074 154.169 158.227C154.411 158.379 154.804 158.555 155.35 158.753L156.15 159.045C156.882 159.312 157.396 159.602 157.692 159.915C157.989 160.228 158.137 160.62 158.137 161.089C158.137 161.703 157.9 162.209 157.426 162.606C156.956 163 156.203 163.197 155.166 163.197C154.26 163.197 153.329 163.006 152.373 162.625ZM165.995 162.53C165.051 162.979 164.159 163.203 163.316 163.203C162.677 163.203 162.106 163.044 161.603 162.727C161.099 162.41 160.695 161.957 160.39 161.369C160.09 160.776 159.939 160.144 159.939 159.471C159.939 158.823 160.083 158.201 160.371 157.604C160.659 157.008 161.061 156.544 161.577 156.214C162.093 155.88 162.669 155.713 163.304 155.713C164.146 155.713 164.821 156.013 165.329 156.614C165.841 157.215 166.097 158.142 166.097 159.395V159.648H161.209C161.209 160.139 161.311 160.588 161.514 160.994C161.721 161.4 161.992 161.705 162.326 161.908C162.66 162.111 163.041 162.213 163.469 162.213C164.23 162.213 165.073 161.959 165.995 161.451V162.53ZM161.279 158.766H164.814V158.595C164.814 158.015 164.673 157.554 164.389 157.211C164.106 156.868 163.727 156.697 163.253 156.697C162.775 156.697 162.36 156.872 162.009 157.224C161.662 157.571 161.418 158.085 161.279 158.766ZM232.988 302.016V294.412C232.633 294.695 232.288 294.936 231.954 295.135C231.619 295.334 231.16 295.537 230.576 295.745V294.678C231.503 294.285 232.307 293.775 232.988 293.148H234.169V302.016H236.537V303H230.576V302.016H232.988ZM241.088 292.856C242.209 292.856 243.064 293.328 243.652 294.272C244.241 295.211 244.535 296.479 244.535 298.074C244.535 299.674 244.241 300.945 243.652 301.889C243.064 302.829 242.209 303.298 241.088 303.298C239.971 303.298 239.116 302.829 238.523 301.889C237.935 300.945 237.641 299.674 237.641 298.074C237.641 296.479 237.935 295.211 238.523 294.272C239.116 293.328 239.971 292.856 241.088 292.856ZM239.165 300.182L242.573 294.843C242.357 294.45 242.123 294.185 241.869 294.05C241.619 293.91 241.359 293.84 241.088 293.84C240.381 293.84 239.844 294.234 239.476 295.021C239.107 295.804 238.923 296.798 238.923 298.004C238.923 298.279 238.932 298.576 238.949 298.893C238.966 299.21 239.038 299.64 239.165 300.182ZM242.999 296.018L239.615 301.388C239.797 301.697 240.007 301.929 240.244 302.086C240.481 302.238 240.745 302.314 241.037 302.314C241.841 302.314 242.412 301.866 242.751 300.969C243.09 300.067 243.259 299.069 243.259 297.973C243.259 297.296 243.172 296.644 242.999 296.018ZM248.896 292.856C250.017 292.856 250.872 293.328 251.46 294.272C252.048 295.211 252.342 296.479 252.342 298.074C252.342 299.674 252.048 300.945 251.46 301.889C250.872 302.829 250.017 303.298 248.896 303.298C247.778 303.298 246.924 302.829 246.331 301.889C245.743 300.945 245.449 299.674 245.449 298.074C245.449 296.479 245.743 295.211 246.331 294.272C246.924 293.328 247.778 292.856 248.896 292.856ZM246.972 300.182L250.381 294.843C250.165 294.45 249.93 294.185 249.676 294.05C249.427 293.91 249.166 293.84 248.896 293.84C248.189 293.84 247.651 294.234 247.283 295.021C246.915 295.804 246.731 296.798 246.731 298.004C246.731 298.279 246.739 298.576 246.756 298.893C246.773 299.21 246.845 299.64 246.972 300.182ZM250.806 296.018L247.423 301.388C247.605 301.697 247.814 301.929 248.051 302.086C248.288 302.238 248.553 302.314 248.845 302.314C249.649 302.314 250.22 301.866 250.559 300.969C250.897 300.067 251.066 299.069 251.066 297.973C251.066 297.296 250.98 296.644 250.806 296.018Z" fill="#B5A4FF"/>
<defs>
<linearGradient id="paint0_linear" x1="279" y1="194" x2="279" y2="276" gradientUnits="userSpaceOnUse">
<stop stop-color="white" stop-opacity="0.08"/>
<stop offset="0.927083" stop-color="white" stop-opacity="0.12"/>
<stop offset="1" stop-color="white" stop-opacity="0.12"/>
</linearGradient>
</defs>
</svg>
