<svg width="375" height="316" viewBox="0 0 375 316" fill="none" xmlns="http://www.w3.org/2000/svg">
<rect width="375" height="316" fill="#FAFAFA"/>
<path d="M158.281 152.216V154.256H154.921C153.985 154.256 153.409 154.232 152.785 154.136V156.704C153.457 156.608 154.153 156.584 155.257 156.584H158.281V158.48H155.809C154.825 158.48 154.225 158.456 153.481 158.36C153.553 159.032 153.577 159.68 153.577 160.616V165.032C153.577 166.328 153.553 166.76 153.457 167.384H156.073C156.001 166.76 155.977 166.088 155.977 165.056V160.76H158.281V166.4C158.281 167.672 158.257 168.272 158.137 169.016H160.849C160.753 168.368 160.729 167.72 160.729 166.424V160.76H162.889V164.6C162.889 164.912 162.745 165.008 162.289 165.008C162.025 165.008 161.401 164.96 161.017 164.912C161.305 165.704 161.401 166.208 161.449 167.192C162.121 167.24 162.337 167.24 162.553 167.24C164.617 167.24 165.217 166.808 165.217 165.32V160.52C165.217 159.44 165.241 158.96 165.289 158.384C164.617 158.456 164.113 158.48 163.057 158.48H160.729V156.584H163.441C164.593 156.584 165.145 156.608 165.745 156.704V154.16C165.073 154.232 164.473 154.256 163.537 154.256H160.729V152.216H162.769C163.873 152.216 164.473 152.24 165.145 152.312V149.768C164.521 149.864 163.945 149.888 162.769 149.888H160.729V149.168C160.729 147.992 160.753 147.488 160.873 146.888H158.137C158.257 147.56 158.281 148.064 158.281 149.216V149.888H156.433C156.553 149.408 156.697 148.88 156.745 148.616C156.817 148.256 156.937 147.848 157.009 147.656L154.561 147.2C154.561 147.416 154.561 147.56 154.441 148.136C154.201 149.648 153.529 151.28 152.545 152.888C153.457 153.296 153.889 153.512 154.825 154.064C155.233 153.248 155.377 152.936 155.665 152.216H158.281ZM166.561 148.568C166.681 149.216 166.705 149.888 166.705 151.112V160.712C166.705 162.224 166.681 162.656 166.585 163.28H169.273C169.177 162.68 169.153 162.176 169.153 160.736V151.064C169.153 149.864 169.177 149.216 169.273 148.568H166.561ZM171.145 146.984C171.241 147.752 171.289 148.52 171.289 149.96V165.632C171.289 166.208 171.073 166.352 170.209 166.352C169.345 166.352 168.241 166.28 167.113 166.112C167.545 167.048 167.689 167.552 167.833 168.68C169.249 168.728 169.993 168.752 170.113 168.752C171.721 168.752 172.417 168.608 173.017 168.2C173.593 167.792 173.809 167.192 173.809 165.92V149.888C173.809 148.4 173.857 147.68 173.977 146.984H171.145ZM188.689 152.6V166.136C188.689 167.6 188.665 168.32 188.545 169.016H191.449C191.329 168.344 191.281 167.576 191.281 166.136V163.376H195.217C196.129 163.376 196.825 163.424 197.617 163.52V160.904C196.897 161.024 196.249 161.048 195.217 161.048H191.281V157.976H195.169C196.081 157.976 196.801 158.024 197.569 158.12V155.528C196.849 155.624 196.201 155.672 195.193 155.672H191.281V152.6H195.841C196.897 152.6 197.737 152.648 198.433 152.72V150.128C197.761 150.224 197.017 150.272 195.841 150.272H189.313C189.529 149.744 189.553 149.672 189.913 148.664C190.081 148.184 190.153 147.968 190.393 147.392L187.681 146.6C187.561 147.44 187.201 148.64 186.601 150.08C185.569 152.504 184.393 154.328 182.569 156.2C183.385 157.04 183.721 157.472 184.297 158.456C185.929 156.608 187.177 154.736 188.233 152.6H188.689ZM181.657 146.528C181.513 147.464 181.177 148.448 180.649 149.696C179.425 152.456 177.865 154.712 176.089 156.32C176.689 157.328 177.025 158.024 177.361 159.128C178.225 158.24 178.825 157.496 179.665 156.368C179.593 158.384 179.593 158.504 179.593 159.104V165.944C179.593 167.192 179.545 168.008 179.425 168.92H182.305C182.185 168.032 182.137 167.072 182.137 165.944V152.648C183.385 149.84 183.385 149.84 183.769 148.808C183.985 148.232 184.057 148.064 184.321 147.464L181.657 146.528ZM210.025 150.872H203.713C202.753 150.872 202.249 150.848 201.553 150.776C201.625 151.544 201.649 151.976 201.649 152.864V160.208C201.649 161.216 201.625 161.816 201.529 162.608H204.361V161.168H210.025V166.04C210.025 167.384 209.977 168.128 209.857 169.016H212.929C212.809 168.176 212.761 167.48 212.761 166.04V161.168H218.713V162.608H221.545C221.449 161.912 221.425 161.288 221.425 160.208V152.888C221.425 151.952 221.449 151.448 221.521 150.776C220.897 150.848 220.393 150.872 219.337 150.872H212.761V149.312C212.761 148.16 212.809 147.536 212.905 146.792H209.881C210.001 147.584 210.025 148.16 210.025 149.408V150.872ZM210.025 153.416V158.624H204.361V153.416H210.025ZM212.761 158.624V153.416H218.713V158.624H212.761Z" fill="#212121"/>
</svg>
