<?xml version="1.0" encoding="utf-8"?>
<!-- Generator: Adobe Illustrator 24.2.0, SVG Export Plug-In . SVG Version: 6.00 Build 0)  -->
<svg version="1.1" id="レイヤー_1" xmlns="http://www.w3.org/2000/svg" xmlns:xlink="http://www.w3.org/1999/xlink" x="0px"
	 y="0px" viewBox="0 0 375 478" style="enable-background:new 0 0 375 478;" xml:space="preserve">
<style type="text/css">
	.st0{fill:#FAFAFA;}
	.st1{fill:#FFFFFF;}
	.st2{fill:none;stroke:#BFBFBF;stroke-width:4.4327402;}
	.st3{fill:#BFBFBF;}
	.st4{fill:#E2BE97;}
	.st5{fill:#319BD0;}
	.st6{fill:#EAC39B;}
	.st7{fill:#804C3F;}
	.st8{fill:none;stroke:#804C3F;stroke-width:1.11518;stroke-linecap:round;stroke-linejoin:round;}
	.st9{fill:#B52A22;}
	.st10{fill:#D36744;}
	.st11{fill:#FFD95C;}
	.st12{fill:#B2B2B2;}
	.st13{fill:#D9D9D9;}
	.st14{fill:#9E9E9E;}
	.st15{fill:#D3D3D3;}
	.st16{fill:none;stroke:#D9D9D9;}
	.st17{fill-rule:evenodd;clip-rule:evenodd;fill:#BFBFBF;}
	.st18{fill:#F5F5F5;}
	.st19{fill:none;stroke:#D9D9D9;stroke-width:1.01414;}
	.st20{fill:none;stroke:#30C8D6;stroke-width:1.01414;}
	.st21{fill:none;stroke:#FF7F8C;stroke-width:1.01414;}
	.st22{fill:#30C8D6;stroke:#30C8D6;stroke-width:1.01414;}
	.st23{fill:#FF7F8C;}
	.st24{fill:#30C8D6;}
	.st25{fill:none;stroke:#FF7F8C;stroke-width:2;}
	.st26{clip-path:url(#SVGID_2_);}
	.st27{fill:#4E596D;}
	.st28{fill:#FF8A7A;}
	.st29{fill:#FFD177;}
	.st30{fill:#ACFD76;}
	.st31{fill:#E8EBEF;}
	.st32{fill:#D2D5D9;}
	.st33{fill:#D1D5D9;}
	.st34{fill:#212121;}
	.st35{fill-rule:evenodd;clip-rule:evenodd;fill:#30C8D6;}
	.st36{fill:#18A4B1;}
	.st37{fill-rule:evenodd;clip-rule:evenodd;fill:#81DFEB;}
</style>
<rect y="0.5" class="st0" width="375" height="477"/>
<path class="st1" d="M31,29h313c1.3807068,0,2.5,1.1192875,2.5,2.5v99c0,1.3807068-1.1192932,2.5-2.5,2.5H31
	c-1.3807125,0-2.5-1.1192932-2.5-2.5v-99C28.5,30.1192875,29.6192875,29,31,29z"/>
<path class="st2" d="M207.4360046,81.1489029h-39.8950043"/>
<path class="st3" d="M203.5619965,81.4686966l-1.5350037,6.4484024c-0.0479889,0.2049026,0.1760101,0.365799,0.3540039,0.2542038
	l10.1610107-6.350502c0.2459869-0.153801,0.2459869-0.512001,0-0.6657028l-10.1570129-6.3484955
	c-0.1790009-0.1118011-0.4039917,0.0501938-0.3539886,0.255394l1.5309906,6.2965012
	C203.5709991,81.3946991,203.5709991,81.4324036,203.5619965,81.4686966z"/>
<path class="st3" d="M171.5130005,81.506897l1.5339966-6.4483948c0.048996-0.2049026-0.1750031-0.3659058-0.3540039-0.2542038
	l-10.1599884,6.350502c-0.2460022,0.1537018-0.2460022,0.512001,0,0.6657028l10.1569977,6.3483963
	c0.1790009,0.1119003,0.4039917-0.0501022,0.3540039-0.2553024l-1.5310059-6.2964935
	C171.5039978,81.5809021,171.5039978,81.5430984,171.5130005,81.506897z"/>
<path class="st4" d="M105.8799973,79.9032974c0.0009995,0.5771027-0.1699982,1.141304-0.4909973,1.6212997
	c-0.3209991,0.4799042-0.776001,0.8539047-1.3099976,1.0748062c-0.5330048,0.220993-1.1190033,0.2787933-1.6860046,0.1661987
	c-0.5659943-0.1126022-1.0859985-0.3905029-1.4939957-0.7985992c-0.4080048-0.4081039-0.6860046-0.9281006-0.7980042-1.4941025
	c-0.1128998-0.5661011-0.0550003-1.1528015,0.1660004-1.685997c0.2210007-0.5332031,0.5950012-0.9889069,1.0750046-1.3095016
	c0.4799957-0.3206024,1.0439987-0.4916992,1.6209946-0.4916c0.3830032,0,0.7630005,0.0755005,1.1170044,0.2220993
	c0.3529968,0.1465988,0.6749954,0.361496,0.9459991,0.6324005c0.2709961,0.2708969,0.4860001,0.592598,0.6319962,0.9464951
	C105.8050003,79.1408005,105.8799973,79.5202026,105.8799973,79.9032974z"/>
<path class="st4" d="M140.0319977,79.9032974c0,0.5771027-0.1710052,1.141304-0.4909973,1.6212997
	c-0.3209991,0.4799042-0.7769928,0.8539047-1.3099976,1.0748062c-0.5330048,0.220993-1.1200104,0.2787933-1.6860046,0.1661987
	c-0.5659943-0.1126022-1.0859985-0.3905029-1.4940033-0.7985992c-0.4079895-0.4081039-0.6859894-0.9281006-0.798996-1.4941025
	c-0.1119995-0.5661011-0.0540009-1.1528015,0.1670074-1.685997c0.220993-0.5332031,0.5950012-0.9889069,1.0749969-1.3095016
	c0.4790039-0.3206024,1.0439911-0.4916992,1.6210022-0.4916c0.7740021,0,1.5159912,0.3073959,2.0629883,0.8544998
	C139.7250061,78.3874969,140.0319977,79.1295013,140.0319977,79.9032974z"/>
<path class="st5" d="M120.1699982,91.6909027c-12.0239944-0.000206-19.5940018,10.3130951-19.5940018,15.1000977
	c0,4.788002,9.7970047,5.5250015,19.5940018,5.5250015c9.7960052,0,19.5930023-0.7369995,19.5930023-5.5250015
	C139.7630005,102.0039978,132.1929932,91.6911011,120.1699982,91.6909027z"/>
<path class="st6" d="M137.772995,75.6681976c0,10.3731003-6.9919891,18.7832031-17.3649979,18.7832031
	c-10.3729935,0-18.072998-8.4101028-18.072998-18.7832031s7.701004-18.7831993,18.072998-18.7831993
	C130.7810059,56.8849983,137.772995,65.2937012,137.772995,75.6681976z"/>
<path class="st7" d="M113.9810028,78.5950012c0,0.3182983-0.0940018,0.6296005-0.2710037,0.8943024
	c-0.177002,0.2647934-0.4280014,0.471199-0.7220001,0.5930939c-0.2939987,0.1219025-0.6179962,0.153801-0.9300003,0.0917053
	c-0.3129959-0.0620041-0.598999-0.2153015-0.8249969-0.4403992c-0.2249985-0.2250061-0.3779984-0.5118027-0.4400024-0.8241043
	c-0.0619965-0.3122025-0.0299988-0.6359024,0.0910034-0.9300003c0.121994-0.2941971,0.3279953-0.5456009,0.5929947-0.722496
	c0.2649994-0.1768036,0.576004-0.2713013,0.8940048-0.2713013c0.4269943,0,0.836998,0.1696014,1.1380005,0.4712982
	C113.810997,77.7589035,113.9810028,78.1681976,113.9810028,78.5950012z"/>
<path class="st7" d="M129.7230072,78.5950012c0.0009918,0.3182983-0.0940094,0.6296005-0.2710114,0.8944016
	c-0.1759949,0.2646942-0.4279938,0.4710999-0.7220001,0.5929947c-0.2939911,0.1219025-0.6179962,0.153801-0.9299927,0.0917053
	c-0.3120041-0.0621033-0.5990067-0.2154007-0.8240051-0.440506c-0.2249985-0.2251968-0.3789978-0.5119934-0.4409943-0.824295
	c-0.0620041-0.3122025-0.0300064-0.6359024,0.0919952-0.9300003c0.1220016-0.2942047,0.3280029-0.5456009,0.5930023-0.7224045
	c0.2649994-0.176796,0.5759964-0.2711945,0.8939972-0.2710953c0.427002,0.0001984,0.8359985,0.1697006,1.1380005,0.4714966
	C129.5540009,77.7590027,129.7230072,78.1681976,129.7230072,78.5950012z"/>
<path class="st8" d="M116.2440033,86.0081024c1.5739975,2.1488953,6.9489975,2.2669983,8.3279953,0"/>
<path class="st9" d="M120.0540009,94.4514008h0.3519974c-0.1179962,0-0.2340012-0.0070038-0.3519974-0.0093002V94.4514008z"/>
<path class="st10" d="M121.276001,81.5127029c0.0309982,0.3111954-0.0610046,0.6222-0.2560043,0.8666
	s-0.4779968,0.4029007-0.7879944,0.4416962c-0.2970047-0.0674973-0.5620041-0.2338028-0.7509995-0.4714966
	c-0.1900024-0.2377014-0.2929993-0.5326996-0.2929993-0.8367996s0.1029968-0.599205,0.2929993-0.8369064
	c0.1889954-0.2376938,0.4539948-0.4039993,0.7509995-0.4714966c0.3099976,0.0388031,0.5929947,0.1973038,0.7879944,0.4417038
	S121.3069992,81.2014999,121.276001,81.5127029z"/>
<path class="st11" d="M111.6029968,55.8871002c-4.5739975,1.3218002-12.7947998,7.6991997-9.6909943,19.7817993
	c2.211998-3.9319,7.5690002-8.7406998,11.3590012-9.3073959c-0.9480057,2.6528931,0.0659943,5.2573929,1.4319992,6.9543991
	c3.2220001-2.2735062,6.2539978-2.8421021,10.2329941-2.2735062c3.9800034,0.5686035,9.284996,0.9475021,10.6120071-0.1901932
	c-0.1890106,3.1499939,1.6319885,3.2080994,2.2910004,4.8166962C138.9759979,73.2048035,139.5269928,60.4304008,131,56.8300018
	c-8.5270004-3.600502-16.1559982-3.8455009-18.5709991-7.4203033
	C110.8290024,52.2755013,111.5749969,54.5559998,111.6029968,55.8871002z"/>
<path class="st12" d="M104.3470001,94.7640991c0-1.3902969,1.1269989-2.5172958,2.5169983-2.5172958h27.0939941
	c1.3900146,0,2.5170135,1.1270981,2.5170135,2.5172958v14.0048981c0,1.3899994-1.1269989,2.5170059-2.5170135,2.5170059h-27.0939941
	c-1.3899994,0-2.5169983-1.1270065-2.5169983-2.5170059V94.7640991z"/>
<circle class="st13" cx="119.8160019" cy="101.7669983" r="2.3798676"/>
<path class="st14" d="M95.4197998,112.3170013c0-0.5690002,0.4617004-1.0309982,1.0311966-1.0309982h48.4680099
	c0.5699921,0,1.0309906,0.461998,1.0309906,1.0309982c0,0.5699997-0.4609985,1.0319977-1.0309906,1.0319977H96.4509964
	C95.8815002,113.348999,95.4197998,112.887001,95.4197998,112.3170013z"/>
<path class="st12" d="M239.9299927,48.9239998c0.25-0.270298,0.602005-0.4239998,0.9700012-0.4239998h22.9670105
	c0.3580017,0,0.6999817,0.1450996,0.9490051,0.4021988l4.3829956,4.5296021h-33.4360046L239.9299927,48.9239998z"/>
<path class="st15" d="M235.7630005,53.4320984h33.4360046v59.1879044c0,0.9049988-0.7340088,1.6380005-1.6380005,1.6380005
	h-30.1610107c-0.9039917,0-1.6369934-0.7330017-1.6369934-1.6380005V53.4320984z"/>
<path class="st12" d="M238.802002,107.6760025c0-0.9049988,0.7330017-1.6380005,1.6380005-1.6380005h24.0809937
	c0.9049988,0,1.6380005,0.7330017,1.6380005,1.6380005v1.6559982c0,0.9049988-0.7330017,1.6380005-1.6380005,1.6380005h-24.0809937
	c-0.9049988,0-1.6380005-0.7330017-1.6380005-1.6380005V107.6760025z"/>
<path class="st12" d="M238.802002,74.7969971c0-0.9044952,0.7330017-1.6377945,1.6380005-1.6377945h24.0809937
	c0.9049988,0,1.6380005,0.7332993,1.6380005,1.6377945v1.6562042c0,0.9044952-0.7330017,1.6378021-1.6380005,1.6378021h-24.0809937
	c-0.9049988,0-1.6380005-0.7333069-1.6380005-1.6378021V74.7969971z"/>
<circle class="st12" cx="252.4129944" cy="83.7134018" r="3.2756805"/>
<path class="st12" d="M238.802002,99.456398c0-0.9044952,0.7330017-1.6377945,1.6380005-1.6377945h24.0809937
	c0.9049988,0,1.6380005,0.7332993,1.6380005,1.6377945v1.656601c0,0.9039993-0.7330017,1.637001-1.6380005,1.637001h-24.0809937
	c-0.9049988,0-1.6380005-0.7330017-1.6380005-1.637001V99.456398z"/>
<path class="st12" d="M238.802002,66.5777969c0-0.9045944,0.7330017-1.6378937,1.6380005-1.6378937h24.0809937
	c0.9049988,0,1.6380005,0.7332993,1.6380005,1.6378937v1.656105c0,0.9045944-0.7330017,1.6379013-1.6380005,1.6379013h-24.0809937
	c-0.9049988,0-1.6380005-0.7333069-1.6380005-1.6379013V66.5777969z"/>
<path class="st12" d="M238.802002,91.2360001c0-0.9046021,0.7330017-1.6379013,1.6380005-1.6379013h24.0809937
	c0.9049988,0,1.6380005,0.7332993,1.6380005,1.6379013v1.6560974c0,0.9046021-0.7330017,1.6379013-1.6380005,1.6379013h-24.0809937
	c-0.9049988,0-1.6380005-0.7332993-1.6380005-1.6379013V91.2360001z"/>
<path class="st12" d="M238.802002,58.3582993c0-0.9045982,0.7339935-1.6377983,1.6380005-1.6377983h24.0809937
	c0.9049988,0,1.6380005,0.7332001,1.6380005,1.6377983v1.6562004c0,0.9044991-0.7330017,1.6378021-1.6380005,1.6378021h-24.0809937
	c-0.904007,0-1.6380005-0.7333031-1.6380005-1.6378021V58.3582993z"/>
<path class="st16" d="M31,29h313c1.3807068,0,2.5,1.1192875,2.5,2.5v99c0,1.3807068-1.1192932,2.5-2.5,2.5H31
	c-1.3807125,0-2.5-1.1192932-2.5-2.5v-99C28.5,30.1192875,29.6192875,29,31,29z"/>
<path class="st17" d="M192.5,133.5h-10v65h-6.3099976c-0.6240082,0-0.9360046,0.7539978-0.4949951,1.1950073l11.3099976,11.3099976
	c0.272995,0.272995,0.7169952,0.272995,0.9899902,0l11.3099976-11.3099976
	c0.4410095-0.4410095,0.1290131-1.1950073-0.4949951-1.1950073H192.5V133.5z"/>
<g>
	<path class="st1" d="M28.5,237h318v165.5c0,1.381012-1.118988,2.5-2.5,2.5H31c-1.3806992,0-2.5-1.118988-2.5-2.5V237z"/>
	<rect x="166" y="266.5" class="st18" width="161" height="85"/>
	<path class="st19" d="M191,329.7990112h126"/>
	<path class="st19" d="M191,312.5589905h126"/>
	<path class="st19" d="M191,295.3179932h126"/>
	<path class="st19" d="M191,278.0780029h126"/>
	<path class="st20" d="M196,278.5l19.6929932,8.7049866h19.7070007l18.8310089,8.1140137l9.3059845,8.2990112"/>
	<path class="st21" d="M312.1749878,321.5130005H291.5L273.5,312.5l-9.7609863-8.7139893"/>
	<circle class="st22" cx="196.423996" cy="278.5280151" r="1.5212173"/>
	<circle class="st22" cx="215.6929932" cy="287.2059937" r="1.5212173"/>
	<circle class="st22" cx="234.9620056" cy="287.5280151" r="1.5212173"/>
	<circle class="st22" cx="254.2310028" cy="295.3179932" r="1.5212173"/>
	<circle class="st23" cx="273.4989929" cy="312.5280151" r="2.0282898"/>
	<circle class="st23" cx="291.7539978" cy="321.6860046" r="2.0282898"/>
	<circle class="st23" cx="312.0369873" cy="321.6860046" r="2.0282898"/>
	<path class="st13" d="M178.1132965,276.0499878h6.0848236c1.1201935,0,2.0282898,0.9080811,2.0282898,2.0282898l0,0
		c0,1.1202087-0.9080963,2.0282898-2.0282898,2.0282898h-6.0848236c-1.1201935,0-2.0282898-0.9080811-2.0282898-2.0282898l0,0
		C176.0850067,276.9580688,176.993103,276.0499878,178.1132965,276.0499878z"/>
	<path class="st13" d="M178.1132965,293.2900085h6.0848236c1.1201935,0,2.0282898,0.9080811,2.0282898,2.0282898l0,0
		c0,1.1202087-0.9080963,2.0282898-2.0282898,2.0282898h-6.0848236c-1.1201935,0-2.0282898-0.9080811-2.0282898-2.0282898l0,0
		C176.0850067,294.1980896,176.993103,293.2900085,178.1132965,293.2900085z"/>
	<path class="st13" d="M178.1132965,310.5310059h6.0848236c1.1201935,0,2.0282898,0.9080811,2.0282898,2.0282898l0,0
		c0,1.1202087-0.9080963,2.0282898-2.0282898,2.0282898h-6.0848236c-1.1201935,0-2.0282898-0.9080811-2.0282898-2.0282898l0,0
		C176.0850067,311.4390869,176.993103,310.5310059,178.1132965,310.5310059z"/>
	<path class="st13" d="M178.1132965,327.7709961h6.0848236c1.1201935,0,2.0282898,0.9080811,2.0282898,2.0282898l0,0
		c0,1.1202087-0.9080963,2.0282898-2.0282898,2.0282898h-6.0848236c-1.1201935,0-2.0282898-0.9080811-2.0282898-2.0282898l0,0
		C176.0850067,328.6790771,176.993103,327.7709961,178.1132965,327.7709961z"/>
	<path class="st13" d="M193.3822937,336.8980103h6.0848236c1.1201935,0,2.0282898,0.9080811,2.0282898,2.0282898l0,0
		c0,1.1202087-0.9080963,2.0282898-2.0282898,2.0282898h-6.0848236c-1.1201935,0-2.0282898-0.9080811-2.0282898-2.0282898l0,0
		C191.3540039,337.8060913,192.2621002,336.8980103,193.3822937,336.8980103z"/>
	<path class="st13" d="M212.6502838,336.8980103h6.0848236c1.1201935,0,2.0282898,0.9080811,2.0282898,2.0282898l0,0
		c0,1.1202087-0.9080963,2.0282898-2.0282898,2.0282898h-6.0848236c-1.1201935,0-2.0282898-0.9080811-2.0282898-2.0282898l0,0
		C210.621994,337.8060913,211.5300903,336.8980103,212.6502838,336.8980103z"/>
	<path class="st13" d="M231.9192963,336.8980103h6.0848236c1.1201935,0,2.0282898,0.9080811,2.0282898,2.0282898l0,0
		c0,1.1202087-0.9080963,2.0282898-2.0282898,2.0282898h-6.0848236c-1.1201935,0-2.0282898-0.9080811-2.0282898-2.0282898l0,0
		C229.8910065,337.8060913,230.7991028,336.8980103,231.9192963,336.8980103z"/>
	<path class="st13" d="M251.1882935,336.8980103h6.0848083c1.1202087,0,2.0282898,0.9080811,2.0282898,2.0282898l0,0
		c0,1.1202087-0.9080811,2.0282898-2.0282898,2.0282898h-6.0848083c-1.1201935,0-2.0282898-0.9080811-2.0282898-2.0282898l0,0
		C249.1600037,337.8060913,250.0681,336.8980103,251.1882935,336.8980103z"/>
	<path class="st13" d="M270.4572754,336.8980103h6.0848083c1.1202087,0,2.0282898,0.9080811,2.0282898,2.0282898l0,0
		c0,1.1202087-0.9080811,2.0282898-2.0282898,2.0282898h-6.0848083c-1.1202087,0-2.0282898-0.9080811-2.0282898-2.0282898l0,0
		C268.4289856,337.8060913,269.3370667,336.8980103,270.4572754,336.8980103z"/>
	<path class="st13" d="M289.7252808,336.8980103h6.0848083c1.1202087,0,2.0282898,0.9080811,2.0282898,2.0282898l0,0
		c0,1.1202087-0.9080811,2.0282898-2.0282898,2.0282898h-6.0848083c-1.1202087,0-2.0282898-0.9080811-2.0282898-2.0282898l0,0
		C287.696991,337.8060913,288.605072,336.8980103,289.7252808,336.8980103z"/>
	<path class="st13" d="M308.9942932,336.8980103h6.0848083c1.1202087,0,2.0282898,0.9080811,2.0282898,2.0282898l0,0
		c0,1.1202087-0.9080811,2.0282898-2.0282898,2.0282898h-6.0848083c-1.1202087,0-2.0282898-0.9080811-2.0282898-2.0282898l0,0
		C306.9660034,337.8060913,307.8740845,336.8980103,308.9942932,336.8980103z"/>
	<rect x="166" y="371.5" class="st18" width="161" height="33.5"/>
	<path class="st19" d="M191,400.3179932h126"/>
	<path class="st19" d="M191,383.0780029h126"/>
	<polygon class="st24" points="292.0859375,382.8378906 273.3945312,390.9931641 235,390.9931641 215.2919922,399.7851562 
		209.5379028,405 211.020874,405 215.78125,400.6777344 235.1083984,392.0068359 273.5,392.0068359 291.9140625,384.0195312 
		311.6738281,400.6357422 312.3261719,399.8603516 292.3261719,383.0410156 	"/>
	<circle class="st22" cx="215.6929932" cy="400.5280151" r="1.5212173"/>
	<circle class="st22" cx="234.9620056" cy="391.5280151" r="1.5212173"/>
	<circle class="st22" cx="254.2310028" cy="391.5280151" r="1.5212173"/>
	<circle class="st22" cx="273.4989929" cy="391.5280151" r="1.5212097"/>
	<circle class="st22" cx="291.7539978" cy="383.5280151" r="1.5212097"/>
	<circle class="st22" cx="312.0369873" cy="400.5280151" r="1.5212097"/>
	<path class="st13" d="M178.1132965,381.0499878h6.0848236c1.1201935,0,2.0282898,0.9080811,2.0282898,2.0282898l0,0
		c0,1.1202087-0.9080963,2.0282898-2.0282898,2.0282898h-6.0848236c-1.1201935,0-2.0282898-0.9080811-2.0282898-2.0282898l0,0
		C176.0850067,381.9580688,176.993103,381.0499878,178.1132965,381.0499878z"/>
	<path class="st13" d="M178.1132965,398.2900085h6.0848236c1.1201935,0,2.0282898,0.9080811,2.0282898,2.0282898l0,0
		c0,1.1202087-0.9080963,2.0282898-2.0282898,2.0282898h-6.0848236c-1.1201935,0-2.0282898-0.9080811-2.0282898-2.0282898l0,0
		C176.0850067,399.1980896,176.993103,398.2900085,178.1132965,398.2900085z"/>
	<rect x="48.1547012" y="266.7529907" class="st18" width="108.1209946" height="113.7130127"/>
	<path class="st13" d="M59.3394508,276.0740051H69.592247c1.029541,0,1.864151,0.8345947,1.864151,1.8641357v0.0000305
		c0,1.029541-0.83461,1.8641357-1.864151,1.8641357H59.3394508c-1.029541,0-1.864151-0.8345947-1.864151-1.8641357v-0.0000305
		C57.4752998,276.9085999,58.3099098,276.0740051,59.3394508,276.0740051z"/>
	<path class="st24" d="M77.9810791,274.2090149h68.0414581c0.5147705,0,0.9320679,0.4172974,0.9320679,0.9320679v5.5924683
		c0,0.5147705-0.4172974,0.9320679-0.9320679,0.9320679H77.9810791c-0.5147705,0-0.9320755-0.4172974-0.9320755-0.9320679
		v-5.5924683C77.0490036,274.6263123,77.4663086,274.2090149,77.9810791,274.2090149z"/>
	<path class="st24" d="M77.9810791,287.2590027h52.1962585c0.5147705,0,0.9320679,0.4172974,0.9320679,0.9320679v5.5924683
		c0,0.5147705-0.4172974,0.9320679-0.9320679,0.9320679H77.9810791c-0.5147705,0-0.9320755-0.4172974-0.9320755-0.9320679
		v-5.5924683C77.0490036,287.6763,77.4663086,287.2590027,77.9810791,287.2590027z"/>
	<path class="st24" d="M77.9810791,300.3070068h36.3509445c0.5147705,0,0.9320755,0.4172974,0.9320755,0.9320679v5.5924683
		c0,0.5147705-0.417305,0.9320679-0.9320755,0.9320679H77.9810791c-0.5147705,0-0.9320755-0.4172974-0.9320755-0.9320679v-5.5924683
		C77.0490036,300.7243042,77.4663086,300.3070068,77.9810791,300.3070068z"/>
	<path class="st24" d="M77.9810791,313.3559875h21.4377518c0.5147705,0,0.9320755,0.4172974,0.9320755,0.9320679v5.5924683
		c0,0.5147705-0.417305,0.9320679-0.9320755,0.9320679H77.9810791c-0.5147705,0-0.9320755-0.4172974-0.9320755-0.9320679v-5.5924683
		C77.0490036,313.7732849,77.4663086,313.3559875,77.9810791,313.3559875z"/>
	<path class="st24" d="M77.9810791,326.4060059h13.9811478c0.5147705,0,0.9320755,0.4172974,0.9320755,0.9320679v5.5924683
		c0,0.5147705-0.417305,0.9320679-0.9320755,0.9320679H77.9810791c-0.5147705,0-0.9320755-0.4172974-0.9320755-0.9320679v-5.5924683
		C77.0490036,326.8233032,77.4663086,326.4060059,77.9810791,326.4060059z"/>
	<path class="st24" d="M77.9810791,339.4549866h5.5924454c0.5147705,0,0.9320755,0.4172974,0.9320755,0.9320679v5.5924683
		c0,0.5147705-0.417305,0.9320679-0.9320755,0.9320679h-5.5924454c-0.5147705,0-0.9320755-0.4172974-0.9320755-0.9320679v-5.5924683
		C77.0490036,339.8722839,77.4663086,339.4549866,77.9810791,339.4549866z"/>
	<path class="st24" d="M77.9810791,352.5039978h3.728302c0.5147705,0,0.9320755,0.4172974,0.9320755,0.9320679v5.5924683
		c0,0.5147705-0.417305,0.9320679-0.9320755,0.9320679h-3.728302c-0.5147705,0-0.9320755-0.4172974-0.9320755-0.9320679v-5.5924683
		C77.0490036,352.9212952,77.4663086,352.5039978,77.9810791,352.5039978z"/>
	<path class="st24" d="M77.9810791,365.553009h1.864151c0.5147705,0,0.9320755,0.4172974,0.9320755,0.9320679v5.5924683
		c0,0.5147705-0.417305,0.9320679-0.9320755,0.9320679h-1.864151c-0.5147705,0-0.9320755-0.4172974-0.9320755-0.9320679v-5.5924683
		C77.0490036,365.9703064,77.4663086,365.553009,77.9810791,365.553009z"/>
	<path class="st13" d="M58.864151,288.5h10.2528c1.029541,0,1.864151,0.8345947,1.864151,1.8641357v0.0000305
		c0,1.029541-0.83461,1.8641357-1.864151,1.8641357h-10.2528c-1.029541,0-1.864151-0.8345947-1.864151-1.8641357v-0.0000305
		C57,289.3345947,57.83461,288.5,58.864151,288.5z"/>
	<path class="st13" d="M58.864151,302.5h10.2528c1.029541,0,1.864151,0.8345947,1.864151,1.8641357v0.0000305
		c0,1.029541-0.83461,1.8641357-1.864151,1.8641357h-10.2528c-1.029541,0-1.864151-0.8345947-1.864151-1.8641357v-0.0000305
		C57,303.3345947,57.83461,302.5,58.864151,302.5z"/>
	<path class="st13" d="M58.864151,315.5h10.2528c1.029541,0,1.864151,0.8345947,1.864151,1.8641357v0.0000305
		c0,1.029541-0.83461,1.8641357-1.864151,1.8641357h-10.2528c-1.029541,0-1.864151-0.8345947-1.864151-1.8641357v-0.0000305
		C57,316.3345947,57.83461,315.5,58.864151,315.5z"/>
	<path class="st13" d="M58.864151,328.5h10.2528c1.029541,0,1.864151,0.8345947,1.864151,1.8641357v0.0000305
		c0,1.029541-0.83461,1.8641357-1.864151,1.8641357h-10.2528c-1.029541,0-1.864151-0.8345947-1.864151-1.8641357v-0.0000305
		C57,329.3345947,57.83461,328.5,58.864151,328.5z"/>
	<path class="st13" d="M59.3394508,341.5H69.592247c1.029541,0,1.864151,0.8345947,1.864151,1.8641357v0.0000305
		c0,1.029541-0.83461,1.8641357-1.864151,1.8641357H59.3394508c-1.029541,0-1.864151-0.8345947-1.864151-1.8641357v-0.0000305
		C57.4752998,342.3345947,58.3099098,341.5,59.3394508,341.5z"/>
	<path class="st13" d="M59.3394508,354.5H69.592247c1.029541,0,1.864151,0.8345947,1.864151,1.8641357v0.0000305
		c0,1.029541-0.83461,1.8641357-1.864151,1.8641357H59.3394508c-1.029541,0-1.864151-0.8345947-1.864151-1.8641357v-0.0000305
		C57.4752998,355.3345947,58.3099098,354.5,59.3394508,354.5z"/>
	<path class="st13" d="M59.3394508,367.5H69.592247c1.029541,0,1.864151,0.8345947,1.864151,1.8641357v0.0000305
		c0,1.029541-0.83461,1.8641357-1.864151,1.8641357H59.3394508c-1.029541,0-1.864151-0.8345947-1.864151-1.8641357v-0.0000305
		C57.4752998,368.3345947,58.3099098,367.5,59.3394508,367.5z"/>
	<path class="st13" d="M50.9509315,256.5h25.1660423c1.5443115,0,2.7962265,1.2519226,2.7962265,2.7962341v-0.0000305
		c0,1.5443115-1.251915,2.7962341-2.7962265,2.7962341H50.9509315c-1.5443153,0-2.7962303-1.2519226-2.7962303-2.7962341v0.0000305
		C48.1547012,257.7519226,49.4066162,256.5,50.9509315,256.5z"/>
	<path class="st13" d="M50.9509315,389.5h25.1660423c1.5443115,0,2.7962265,1.2519226,2.7962265,2.7962341v-0.0000305
		c0,1.5443115-1.251915,2.7962341-2.7962265,2.7962341H50.9509315c-1.5443153,0-2.7962303-1.2519226-2.7962303-2.7962341v0.0000305
		C48.1547012,390.7519226,49.4066162,389.5,50.9509315,389.5z"/>
	<path class="st13" d="M168.3922272,256.5h36.3509369c1.5443115,0,2.7962341,1.2519226,2.7962341,2.7962341v-0.0000305
		c0,1.5443115-1.2519226,2.7962341-2.7962341,2.7962341h-36.3509369c-1.5443115,0-2.7962341-1.2519226-2.7962341-2.7962341
		v0.0000305C165.595993,257.7519226,166.8479156,256.5,168.3922272,256.5z"/>
	<path class="st13" d="M168.3922272,361.5h36.3509369c1.5443115,0,2.7962341,1.2519226,2.7962341,2.7962341v-0.0000305
		c0,1.5443115-1.2519226,2.7962341-2.7962341,2.7962341h-36.3509369c-1.5443115,0-2.7962341-1.2519226-2.7962341-2.7962341
		v0.0000305C165.595993,362.7519226,166.8479156,361.5,168.3922272,361.5z"/>
	<rect x="48.1547241" y="399.7869873" class="st18" width="108.1209717" height="5.2130127"/>
	<circle class="st25" cx="293.5" cy="310" r="30.5"/>
	<path class="st23" d="M285.8900146,302.8200073h1.7999878c0.3299866,0,0.6799927,0.0099792,0.9199829,0.0299988
		c-0.019989-0.2200012-0.0299988-0.4500122-0.0299988-0.8999939v-1.6500244c0-0.3899841,0.0100098-0.6199951,0.0299988-0.9400024
		c-0.269989,0.0300293-0.5,0.0400085-1.019989,0.0400085h-1.769989c-0.480011,0-0.710022-0.0099792-1.0200195-0.0400085
		c0.0299988,0.3200073,0.0400085,0.6000061,0.0400085,1.1300049v6.5500183c0,0.6199951-0.019989,0.9400024-0.0599976,1.2399902
		h1.1700134c-0.0400085-0.2600098-0.0599976-0.6300049-0.0599976-1.230011V302.8200073z M285.8900146,300.2200012h1.7099915
		v0.519989h-1.7099915V300.2200012z M285.8900146,301.5100098h1.7099915v0.5299988h-1.7099915V301.5100098z M293.2000122,300.480011
		c0-0.4900208,0.0099792-0.7900085,0.0499878-1.1200256c-0.3099976,0.0300293-0.5499878,0.0400085-1.0299988,0.0400085h-1.8999939
		c-0.5,0-0.7200012-0.0099792-1.0200195-0.0400085c0.0200195,0.2900085,0.0299988,0.5600281,0.0299988,0.9400024v1.6500244
		c0,0.4299927-0.0099792,0.6299744-0.019989,0.8999939c0.2200012-0.0200195,0.5800171-0.0299988,0.9100037-0.0299988h1.9299927
		v4.0899963c0,0.2200012-0.0499878,0.2600098-0.3299866,0.2600098c-0.3300171,0-0.8099976-0.0400085-1.230011-0.0900269
		c0.1600037,0.3700256,0.2099915,0.5800171,0.2799988,1.0600281c0.6600037,0.039978,0.7700195,0.039978,0.9299927,0.039978
		c0.5800171,0,0.8500061-0.039978,1.0500183-0.1600037c0.2599792-0.1600037,0.3500061-0.4199829,0.3500061-0.9700012V300.480011z
		 M290.3200073,300.2200012h1.8299866v0.519989h-1.8299866V300.2200012z M290.3200073,301.5100098h1.8299866v0.5299988h-1.8299866
		V301.5100098z M290.9500122,304.2000122c0-0.2900085,0.0099792-0.4900208,0.0299988-0.6900024
		c-0.210022,0.019989-0.460022,0.0299988-0.7700195,0.0299988h-2.4700012c-0.289978,0-0.519989-0.0100098-0.7399902-0.0299988
		c0.019989,0.2099915,0.0299988,0.4299927,0.0299988,0.6999817v2.1400146c0,0.3800049-0.019989,0.6900024-0.0499878,0.9700012
		h1.0599976v-0.6700134h2.2299805c0.2900085,0,0.5,0.0100098,0.710022,0.0299988
		c-0.0200195-0.1900024-0.0299988-0.3899841-0.0299988-0.6799927V304.2000122z M288.0400085,304.4299927h1.8999939v1.3099976
		h-1.8999939V304.4299927z M296.480011,306.3200073c-0.2700195-0.25-0.4200134-0.4100037-0.5700073-0.6199951
		c0.0499878-0.3700256,0.0700073-0.6000061,0.0799866-0.8000183c0-0.1799927,0.0100098-0.1999817,0.0299988-0.3500061
		l-1.0099792-0.1699829c0.0099792,0.1300049,0.019989,0.1999817,0.019989,0.2900085
		c0,0.3999939-0.0700073,1.0599976-0.1499939,1.3999939c-0.1400146,0.5700073-0.3600159,1.0700073-0.6600037,1.4899902
		c0.4899902,0.2999878,0.5599976,0.3600159,0.8500061,0.6900024c0.2799988-0.4400024,0.4700012-0.8900146,0.6399841-1.5
		c0.3999939,0.5100098,0.9700012,0.8999939,1.6199951,1.1000061c0.6600037,0.1999817,1.7799988,0.2999878,3.5200195,0.2999878
		c0.8699951,0,2.0099792-0.019989,2.6900024-0.0499878c0.0799866-0.4900208,0.1499939-0.7600098,0.3099976-1.1100159
		c-0.2600098,0.0299988-0.3699951,0.0400085-0.5500183,0.0500183c0.1500244-0.2400208,0.2600098-0.3800049,0.460022-0.6000061
		c-0.6000061-0.230011-1.0200195-0.480011-1.5299988-0.9200134h0.1699829c0.3699951,0,0.5700073,0.0100098,0.8200073,0.0299988
		c-0.0299988-0.2799988-0.0400085-0.5699768-0.0400085-0.9499817v-2.7799988c0-0.3900146,0.0100098-0.6100159,0.0400085-0.8500061
		C302.980011,300.9899902,302.7999878,301,302.3800049,301h-0.8600159c0.1100159-0.2399902,0.1600037-0.3699951,0.2600098-0.6600037
		h0.8699951c0.3399963,0,0.7200012,0.019989,0.9599915,0.0400085v-0.9700012
		c-0.2399902,0.0400085-0.5299988,0.0599976-1.0499878,0.0599976h-2.519989c-0.460022,0-0.7900085-0.019989-1.0800171-0.0499878
		v0.9700012c0.2600098-0.0300293,0.6000061-0.0500183,0.9900208-0.0500183h0.8199768
		c-0.0699768,0.2099915-0.1499939,0.4299927-0.25,0.6600037h-0.3999939c-0.4299927,0-0.6000061-0.0100098-0.8299866-0.0299988
		c0.019989,0.269989,0.0299988,0.5100098,0.0299988,0.8399963v2.9200134c0,0.3399963-0.0100098,0.5999756-0.0299988,0.8199768
		c0.2200012-0.019989,0.3999939-0.0299988,0.7799988-0.0299988c-0.3999939,0.4700012-0.8500061,0.75-1.5400085,1.0100098
		c0.2200012,0.1799927,0.3699951,0.3399963,0.5499878,0.5700073c-0.8099976-0.0400085-1.1899719-0.1000061-1.6099854-0.2200012
		v-1.1199951h0.5100098c0.3599854,0,0.5799866,0.0099792,0.8099976,0.0499878v-0.9700012
		c-0.2400208,0.0299988-0.480011,0.0400085-0.8000183,0.0400085h-0.519989v-0.8099976h0.6199951
		c0.4500122,0,0.6199951,0.0099792,0.9200134,0.039978v-1.0099792c-0.2600098,0.0400085-0.4700012,0.0499878-0.8300171,0.0499878
		h-2.7799988c-0.4899902,0-0.6900024-0.0099792-0.9599915-0.0499878v1.019989
		c0.2600098-0.0400085,0.4400024-0.0499878,0.9599915-0.0499878h1.0800171V306.3200073z M300.25,305.519989H302
		l-0.6099854,0.4500122c0.539978,0.5299988,0.9399719,0.8299866,1.4499817,1.1099854
		c-0.6499939,0.0299988-1.5799866,0.0600281-2.2799988,0.0600281c-0.2999878,0-0.6499939-0.0100098-1-0.0200195
		c0.4299927-0.2399902,0.9700012-0.6999817,1.3699951-1.1600037L300.25,305.519989z M300.2799988,301.8200073h1.9400024v0.4700012
		h-1.9400024V301.8200073z M300.2799988,303.0299988h1.9400024v0.4599915h-1.9400024V303.0299988z M300.2799988,304.2200012
		h1.9400024v0.4700012h-1.9400024V304.2200012z M294.9599915,301.9599915c0,0.4300232-0.0099792,0.6100159-0.039978,0.8699951
		c0.2799988-0.0299988,0.519989-0.039978,0.8799744-0.039978h1.960022c0.3499756,0,0.5999756,0.0099792,0.8800049,0.039978
		c-0.0300293-0.2399902-0.0400085-0.4099731-0.0400085-0.8599854v-1.7000122c0-0.4499817,0.0099792-0.6299744,0.0400085-0.8799744
		c-0.230011,0.0299988-0.4000244,0.039978-0.9000244,0.039978h-1.9400024c-0.4400024,0-0.6799927-0.0099792-0.8799744-0.039978
		c0.0299988,0.25,0.039978,0.5099792,0.039978,0.8699951V301.9599915z M295.9400024,300.25h1.6799927v0.4899902h-1.6799927V300.25z
		 M295.9400024,301.480011h1.6799927V302h-1.6799927V301.480011z"/>
</g>
<path class="st16" d="M28.5,237h318v165.5c0,1.381012-1.118988,2.5-2.5,2.5H31c-1.3806992,0-2.5-1.118988-2.5-2.5V237z"/>
<g>
	<defs>
		<rect id="SVGID_1_" x="28" y="216.5" width="319" height="20"/>
	</defs>
	<clipPath id="SVGID_2_">
		<use xlink:href="#SVGID_1_"  style="overflow:visible;"/>
	</clipPath>
	<g class="st26">
		<path class="st27" d="M28,219.5c0-1.6569977,1.3430996-3,3-3h313c1.6570129,0,3,1.3430023,3,3v17H28V219.5z"/>
		<path class="st27" d="M28,219.5c0-1.6569977,1.3430996-3,3-3h313c1.6570129,0,3,1.3430023,3,3v17H28V219.5z"/>
		<circle class="st28" cx="39.0858994" cy="227.9980011" r="2.5033836"/>
		<circle class="st29" cx="46.9536018" cy="227.9960022" r="2.5033836"/>
		<circle class="st30" cx="54.8214989" cy="227.9960022" r="2.5033836"/>
		<path class="st31" d="M64.3359985,225.3350067c0.0804977-0.7240143,0.6928024-1.2730103,1.4216995-1.2730103h34.6323013
			c0.7290039,0,1.3410034,0.548996,1.4219971,1.2730103l1.2890015,11.6019897H63.0469017L64.3359985,225.3350067z"/>
		<path class="st32" d="M68.7686005,229.0700073H91.656601c0.7900467,0,1.4304962,0.6404572,1.4304962,1.4304962l0,0
			c0,0.7900391-0.6404495,1.4304962-1.4304962,1.4304962H68.7686005c-0.7900467,0-1.4305038-0.6404572-1.4305038-1.4304962l0,0
			C67.3380966,229.7104645,67.9785538,229.0700073,68.7686005,229.0700073z"/>
		<path class="st32" d="M95.9485931,229.0690002L95.9485931,229.0690002c0.7900467,0,1.4305038,0.6404572,1.4305038,1.4304962l0,0
			c0,0.7900391-0.6404572,1.4304962-1.4305038,1.4304962l0,0c-0.7900467,0-1.4304962-0.6404572-1.4304962-1.4304962l0,0
			C94.5180969,229.7094574,95.1585464,229.0690002,95.9485931,229.0690002z"/>
		<path class="st31" d="M105.3320007,227c-0.0459976-0.4230042,0.2859955-0.7920074,0.7109985-0.7920074h8.5550003
			c0.3649979,0,0.6709976,0.2740021,0.7109985,0.6360016l0.7929993,7.1529999
			c0.0470047,0.4240112-0.284996,0.7940063-0.7109985,0.7940063h-8.572998c-0.3649979,0-0.6719971-0.2749939-0.7109985-0.6380005
			L105.3320007,227z"/>
		<path class="st33" d="M109.359436,229.9640045h3.2186279c0.2962646,0,0.536438,0.2401733,0.536438,0.536438l0,0
			c0,0.2962646-0.2401733,0.536438-0.536438,0.536438h-3.2186279c-0.2962646,0-0.536438-0.2401733-0.536438-0.536438l0,0
			C108.822998,230.2041779,109.0631714,229.9640045,109.359436,229.9640045z"/>
		<path class="st33" d="M111.5050049,228.8904419v3.2186279c0,0.2962646-0.2401733,0.536438-0.536438,0.536438l0,0
			c-0.2962646,0-0.536438-0.2401733-0.536438-0.536438v-3.2186279c0-0.2962646,0.2401733-0.536438,0.536438-0.536438l0,0
			C111.2648315,228.3540039,111.5050049,228.5941772,111.5050049,228.8904419z"/>
	</g>
</g>
<path class="st34" d="M99.7679977,442.8840027h2.1600037c0.3959961,0,0.8160019,0.0119934,1.1039963,0.0360107
	c-0.0239944-0.2640076-0.0359955-0.5400085-0.0359955-1.0800171v-1.980011c0-0.4679871,0.012001-0.743988,0.0359955-1.1279907
	c-0.3239975,0.0360107-0.5999985,0.0480042-1.223999,0.0480042h-2.1240005c-0.5759964,0-0.8519974-0.0119934-1.223999-0.0480042
	c0.0360031,0.3840027,0.0480042,0.7200012,0.0480042,1.3560181v7.8599854c0,0.743988-0.0240021,1.1279907-0.0720062,1.4880066
	h1.4039993c-0.0479965-0.3120117-0.0719986-0.756012-0.0719986-1.4760132V442.8840027z M99.7679977,439.7640076h2.052002v0.6239929
	h-2.052002V439.7640076z M99.7679977,441.3120117h2.052002v0.6359863h-2.052002V441.3120117z M108.5400009,440.0759888
	c0-0.5879822,0.012001-0.947998,0.0599976-1.3439941c-0.3720016,0.0360107-0.659996,0.0480042-1.2360001,0.0480042h-2.2799988
	c-0.5999985,0-0.8639984-0.0119934-1.223999-0.0480042c0.0240021,0.3479919,0.0360031,0.6719971,0.0360031,1.1279907v1.980011
	c0,0.5159912-0.012001,0.756012-0.0240021,1.0800171c0.2639999-0.0240173,0.6959991-0.0360107,1.0919952-0.0360107h2.3160019
	v4.9079895c0,0.2640076-0.0599976,0.3120117-0.3959961,0.3120117c-0.3960037,0-0.9720001-0.0480042-1.4760056-0.1080017
	c0.1920013,0.4440002,0.2520065,0.6959839,0.3360062,1.2720032c0.7919998,0.0480042,0.923996,0.0480042,1.1159973,0.0480042
	c0.6959991,0,1.0199966-0.0480042,1.2600021-0.1920166c0.3119965-0.1919861,0.4199982-0.5039978,0.4199982-1.1640015V440.0759888z
	 M105.0839996,439.7640076h2.1959991v0.6239929h-2.1959991V439.7640076z M105.0839996,441.3120117h2.1959991v0.6359863h-2.1959991
	V441.3120117z M105.8399963,444.5400085c0-0.3480225,0.012001-0.5880127,0.0360031-0.8280029
	c-0.2519989,0.0239868-0.552002,0.0359802-0.923996,0.0359802h-2.9640045c-0.3479996,0-0.6240005-0.0119934-0.8880005-0.0359802
	c0.0240021,0.2519836,0.0360031,0.5159912,0.0360031,0.8399963v2.5679932c0,0.4559937-0.0240021,0.8280029-0.0600052,1.1640015
	h1.2720032v-0.8039856h2.6760025c0.3479996,0,0.5999985,0.0119934,0.8519974,0.0359802
	c-0.0240021-0.2279968-0.0360031-0.4679871-0.0360031-0.815979V444.5400085z M102.3479996,444.8160095h2.2799988v1.571991
	h-2.2799988V444.8160095z M112.4759979,447.0840149c-0.3239975-0.3000183-0.5039978-0.4920044-0.6839981-0.7440186
	c0.0599976-0.4440002,0.0839996-0.7200012,0.0960007-0.9599915c0-0.2160034,0.012001-0.2399902,0.0360031-0.4200134
	l-1.2120056-0.2039795c0.012001,0.1559753,0.0240021,0.2399902,0.0240021,0.3479919
	c0,0.480011-0.0839996,1.2720032-0.1800003,1.6799927c-0.1679993,0.6839905-0.4319992,1.2839966-0.7919998,1.7879944
	c0.5879974,0.3600159,0.6719971,0.4320068,1.0199966,0.8280029c0.3360062-0.5279846,0.564003-1.0679932,0.7680054-1.7999878
	c0.4799957,0.6119995,1.1640015,1.0799866,1.9440002,1.3200073c0.7919998,0.2399902,2.1360016,0.3599854,4.223999,0.3599854
	c1.0439987,0,2.4120026-0.0239868,3.2279968-0.0599976c0.0960007-0.5880127,0.1800003-0.9119873,0.3720016-1.3320007
	c-0.3119965,0.0360107-0.4440002,0.0480042-0.659996,0.0599976c0.1799927-0.2879944,0.3119965-0.4559937,0.5519943-0.7200012
	c-0.7200012-0.276001-1.223999-0.5759888-1.8359985-1.1040039h0.2040024c0.4440002,0,0.6839981,0.0119934,0.9840012,0.0360107
	c-0.0360031-0.3359985-0.0480042-0.6839905-0.0480042-1.1400146v-3.3359985c0-0.4679871,0.012001-0.7319946,0.0480042-1.019989
	c-0.288002,0.0239868-0.5040054,0.0360107-1.0080032,0.0360107h-1.0319977
	c0.1319962-0.2880249,0.1920013-0.4440002,0.3119965-0.7920227h1.0439987c0.4080048,0,0.864006,0.0240173,1.1520004,0.0480042
	v-1.1640015c-0.2879944,0.0480042-0.635994,0.0720215-1.2599945,0.0720215h-3.0240021
	c-0.552002,0-0.947998-0.0240173-1.2959976-0.0600281v1.1640015c0.3119965-0.0359802,0.7199936-0.0599976,1.1879959-0.0599976
	h0.9840012c-0.0839996,0.2520142-0.1800003,0.5160217-0.3000031,0.7920227h-0.4799957
	c-0.5159988,0-0.7200012-0.0120239-0.9960022-0.0360107c0.0240021,0.3240051,0.0360031,0.6119995,0.0360031,1.0079956v3.5039978
	c0,0.40802-0.012001,0.7200012-0.0360031,0.9840088c0.2639999-0.0240173,0.4800034-0.0360107,0.935997-0.0360107
	c-0.4799957,0.5639954-1.0199966,0.8999939-1.8479996,1.2120056c0.2639999,0.2160034,0.4440002,0.4079895,0.6600037,0.6839905
	c-0.9720001-0.0480042-1.4280014-0.1199951-1.9319992-0.2639771v-1.3440247h0.6119995
	c0.4319992,0,0.6959991,0.0120239,0.9720001,0.0599976v-1.1639709c-0.288002,0.0359802-0.576004,0.0479736-0.9599991,0.0479736
	h-0.6240005v-0.9719849h0.7439957c0.5400009,0,0.7440033,0.0119934,1.1040039,0.0480042v-1.2120056
	c-0.3120041,0.0480042-0.564003,0.0599976-0.9960022,0.0599976h-3.3359985c-0.5879974,0-0.8280029-0.0119934-1.1520004-0.0599976
	v1.223999c0.3119965-0.0480042,0.5279999-0.0599976,1.1520004-0.0599976h1.2959976V447.0840149z M117,446.1239929h2.0999985
	l-0.7320023,0.5400085c0.6480026,0.6359863,1.128006,0.9960022,1.7400055,1.3320007
	c-0.7799988,0.0360107-1.8960037,0.071991-2.7360001,0.071991c-0.3600006,0-0.7799988-0.0119934-1.2000046-0.0239868
	c0.5160065-0.2879944,1.1640015-0.8399963,1.6440048-1.3919983L117,446.1239929z M117.0360031,441.6839905h2.3279953v0.5639954
	h-2.3279953V441.6839905z M117.0360031,443.1359863h2.3279953v0.552002h-2.3279953V443.1359863z M117.0360031,444.5639954h2.3279953
	v0.5639954h-2.3279953V444.5639954z M110.6520004,441.8519897c0,0.5160217-0.012001,0.7320251-0.0480042,1.0440063
	c0.3360062-0.0360107,0.6240005-0.0480042,1.0560074-0.0480042h2.3519974c0.4199982,0,0.7200012,0.0119934,1.0559998,0.0480042
	c-0.0360031-0.2879944-0.0480042-0.4920044-0.0480042-1.0319824v-2.0400085c0-0.5400085,0.012001-0.756012,0.0480042-1.0559998
	c-0.276001,0.0359802-0.4800034,0.0480042-1.0800018,0.0480042h-2.3279953c-0.5279999,0-0.8160019-0.0120239-1.0560074-0.0480042
	c0.0360031,0.2999878,0.0480042,0.6119995,0.0480042,1.0440063V441.8519897z M111.8280029,439.7999878h2.0159988v0.5880127
	h-2.0159988V439.7999878z M111.8280029,441.276001h2.0159988v0.6239929h-2.0159988V441.276001z M128.4360046,440.8080139
	c0.5279999,0.0479736,0.8399963,0.1439819,1.2119904,0.3599854c0.9600067,0.5759888,1.4759979,1.5119934,1.4759979,2.6640015
	c0,1.2839966-0.6239929,2.4240112-1.6679993,3c-0.5639954,0.3240051-1.2839966,0.5159912-2.3879929,0.6600037
	c0.3840027,0.5039978,0.5279999,0.7680054,0.7320023,1.4039917c0.8399963-0.1439819,1.3079987-0.2640076,1.8840027-0.5039978
	c1.8359985-0.743988,2.9160004-2.3999939,2.9160004-4.4760132c0-2.6999817-1.8720093-4.4519958-4.7520065-4.4519958
	c-1.7040024,0-3.1200027,0.5760193-4.1279984,1.6800232c-0.852005,0.9359741-1.3199997,2.1719971-1.3199997,3.4919739
	c0,1.9320068,0.9840012,3.3240051,2.3519974,3.3240051c0.9840012,0,1.7519989-0.7079773,2.4360046-2.2559814
	C127.788002,444.3479919,128.2079926,442.6919861,128.4360046,440.8080139z M126.9720001,440.8200073
	c-0.1439972,1.3559875-0.5400009,2.9759827-0.9960022,4.0559998c-0.4319992,1.0319824-0.8399963,1.5359802-1.2360001,1.5359802
	c-0.5279999,0-0.947998-0.7799988-0.947998-1.7639771c0-1.2839966,0.6240005-2.5200195,1.6320038-3.2400208
	C125.9160004,441.0599976,126.3479996,440.8919983,126.9720001,440.8200073z M138.2400055,440.9519958
	c-0.5040131,0-0.8760071-0.0119934-1.2000122-0.0480042c0.0240021,0.3720093,0.0360107,0.6480103,0.0360107,1.2000122v2.2919922
	c0,0.5159912-0.0120087,0.8640137-0.0360107,1.2000122c0.3720093-0.0360107,0.7680054-0.0480042,1.2000122-0.0480042h1.6199951
	v2.4119873c0,0.1920166-0.0839996,0.2279968-0.4559937,0.2279968c-0.4080048,0-0.756012-0.0239868-1.4160004-0.1199951
	c0.1919861,0.5039978,0.2279968,0.6719971,0.2879944,1.2839966c0.5160065,0.0120239,0.7559967,0.0240173,1.0800018,0.0240173
	c1.4640045,0,1.8119965-0.2279968,1.8119965-1.1880188v-2.6399841h1.6800079c0.4440002,0,0.8159943,0.0119934,1.1999969,0.0480042
	C144.0119934,445.2720032,144,444.9719849,144,444.4320068v-2.3640137c0-0.5159912,0.0119934-0.8399963,0.0480042-1.1640015
	c-0.3120117,0.0360107-0.6360016,0.0480042-1.223999,0.0480042h-2.0160065
	c0.1439972-0.3240051,0.2279968-0.5759888,0.3480072-0.9119873h2.2319946c0.6719971,0,1.0440063,0.0119934,1.3919983,0.0599976
	v-1.2960205c-0.3000031,0.0480042-0.7559967,0.0720215-1.4640045,0.0720215H136.5
	c-0.6239929,0-1.0800018-0.0119934-1.5359955-0.0599976c0.0599976,0.4559937,0.071991,0.9599915,0.071991,2.1600037
	c0,4.0319824-0.276001,5.7359924-1.1640015,7.29599c0.4680023,0.480011,0.6000061,0.6480103,0.9480133,1.1640015
	c0.3599854-0.5760193,0.647995-1.223999,0.8999939-2.0760193c0.3959961-1.3079834,0.6000061-3.5039978,0.6000061-6.3359985
	v-0.9839783h3.4919891c-0.1199951,0.3840027-0.1799927,0.5639954-0.3359985,0.9119873H138.2400055z M138.2879944,442.0079956
	h4.4400024v0.6960144h-4.4400024V442.0079956z M138.2879944,443.7359924h4.4400024v0.7319946h-4.4400024V443.7359924z
	 M141.8280029,446.3640137c0.947998,1.5119934,1.3439941,1.9919739,2.3280029,2.8079834
	c0.2879944-0.3959961,0.5879974-0.7319946,0.9359894-1.0319824c-0.8759918-0.5880127-1.6080017-1.3800049-2.1959991-2.3400269
	L141.8280029,446.3640137z M137.7120056,445.8120117c-0.3720093,0.9239807-0.9720001,1.7399902-1.8960114,2.519989
	c0.3960114,0.2999878,0.6360016,0.5159912,0.9720001,0.8880005c0.852005-0.7680054,1.428009-1.5599976,2.0880127-2.9160156
	L137.7120056,445.8120117z M150.6360016,443.0880127c-0.3359985,1.571991-1.1040039,2.4960022-2.7839966,3.3359985
	c0.371994,0.3479919,0.5879974,0.5999756,0.8759918,1.0559998c0.6600037-0.3840027,1.2120056-0.8040161,1.6560059-1.2839966
	c0.5639954-0.5880127,0.8519897-1.1400146,1.1040039-2.0760193c0.4559937,1.4640198,1.1879883,2.3519897,2.79599,3.3479919
	c0.276001-0.4799805,0.480011-0.743988,0.8639984-1.1399841c-0.8519897-0.4079895-1.5359955-0.9240112-2.052002-1.5480042
	c-0.4079895-0.4920044-0.6599884-1.019989-0.8399963-1.6919861h1.4880066c0.5159912,0,0.7440033,0.0119934,1.0919952,0.0599976
	v-1.2480164c-0.276001,0.0480042-0.576004,0.0599976-1.0919952,0.0599976h-1.70401
	c0.0120087-0.2039795,0.0120087-0.276001,0.0120087-0.5639954c0-0.5879822,0.0119934-0.8160095,0.0599976-1.0920105h-1.3919983
	c0.0480042,0.2640076,0.0599976,0.5280151,0.0599976,0.9360046c0,0.3359985,0,0.3480225-0.0119934,0.7200012h-1.5360107
	c-0.4919891,0-0.8399963-0.0239868-1.0919952-0.0599976v1.2480164c0.2519989-0.0360107,0.6240082-0.0599976,1.0919952-0.0599976
	H150.6360016z M156.6600037,449.4719849c-0.0480042-0.3479919-0.0720062-0.8279724-0.0720062-1.5479736v-7.632019
	c0-0.6119995,0.0120087-0.9599915,0.0599976-1.4400024c-0.4319916,0.0480042-0.8159943,0.0599976-1.4039917,0.0599976h-7.4880066
	c-0.5879974,0-0.9720001-0.0119934-1.4160004-0.0599976c0.0480042,0.4440002,0.0720062,0.8760071,0.0720062,1.4400024v7.6199951
	c0,0.6600037-0.0240021,1.2480164-0.0720062,1.5599976h1.3679962v-0.6599731h7.5960083v0.6599731H156.6600037z
	 M147.7079926,440.0759888h7.5840149v7.5720215h-7.5840149V440.0759888z M158.8200073,441.2399902
	c0.0839996-0.0119934,0.1559906-0.0119934,0.1919861-0.0119934c0.1080017,0,0.1080017,0,0.3360138,0.0119934
	c0.2639923,0,1.3199921,0.0240173,1.5119934,0.0240173c0,0,0.1560059-0.0119934,0.2039948-0.0119934
	c-0.0479889,0.0599976-0.0479889,0.0599976-0.095993,0.1559753c-0.2400055,0.4560242-0.9720001,1.5-1.4400024,2.052002
	c-0.4199982,0.4920044-0.7680054,0.8280029-1.0800018,1.0680237l1.0919952,1.0799866
	c0.2640076-0.3720093,0.5400085-0.6719971,1.0440063-1.0920105c0.923996-0.815979,1.7640076-1.2359924,2.4600067-1.2359924
	c0.4319916,0,0.6719971,0.20401,0.7319946,0.6480103c-1.3560028,0.5639954-2.0400085,1.019989-2.5800018,1.6919861
	c-0.3840027,0.4559937-0.5279999,0.8399963-0.5279999,1.3320007c0,0.6600037,0.3240051,1.2359924,0.8760071,1.5480042
	c0.6119995,0.3599854,1.4039917,0.5039978,2.6759949,0.5039978c1.0559998,0,2.2079926-0.0839844,3.0720062-0.2160034
	c0.2879944-0.0359802,0.3479919-0.0480042,0.5519867-0.0480042l-0.1199951-1.5480042
	c-0.852005,0.3240051-2.0879974,0.5040283-3.5279999,0.5040283c-1.4519958,0-2.0279999-0.2520142-2.0279999-0.8760071
	c0-0.3480225,0.2039948-0.6719971,0.6240082-0.9840088c0.2519989-0.1799927,0.5639954-0.3479919,1.1519928-0.6239929
	c0,0.1199951,0,0.1199951,0,0.2879944c0,0.5639954-0.0240021,1.1759949-0.0720062,1.3919983l1.3920135-0.0360107
	c-0.0240021-0.2039795-0.0360107-0.3719788-0.0360107-0.6359863c0-0.0840149,0-0.1919861,0.0120087-0.3959961
	c0-0.1560059,0-0.3600159,0-0.480011c0-0.1679993,0-0.1679993-0.0120087-0.4799805v-0.132019
	c1.0319977-0.3599854,1.6320038-0.5639954,1.8000031-0.6119995c0.6360016-0.1799927,0.9960022-0.276001,1.3320007-0.3240051
	l-0.5639954-1.3800049c-0.1920013,0.1200256-0.2400055,0.132019-0.8880005,0.3600159
	c-0.3000031,0.0960083-0.9120026,0.3120117-1.8359985,0.6480103c-0.1920013-0.8280029-0.7799988-1.2720032-1.7160034-1.2720032
	c-0.6119995,0-1.2480011,0.2039795-1.6920013,0.539978c-0.1560059,0.1200256-0.1560059,0.1200256-0.2400055,0.1800232
	l-0.0119934-0.0240173c0.4199982-0.4320068,0.7559967-0.9119873,1.1040039-1.5959778
	c1.2119904-0.0360107,2.7359924-0.132019,3.6119995-0.2400208c0.6119995-0.071991,0.6119995-0.071991,0.947998-0.0960083
	l-0.0839996-1.367981c-0.6600037,0.1919861-1.7519989,0.3240051-3.1439972,0.4079895
	c-0.6600037,0.0360107-0.6600037,0.0360107-0.756012,0.0480042c0.0240021-0.0480042,0.0480042-0.0839844,0.1080017-0.2160034
	c0.4080048-0.9599915,0.4080048-0.9599915,0.4799957-1.0799866l-1.571991-0.1679993
	c-0.0480042,0.4079895-0.1560059,0.7680054-0.4799957,1.4880066c-1.5240021,0-2.2920074-0.0480042-2.7840118-0.1560059
	L158.8200073,441.2399902z M177.0599976,441.9719849v0.8520203h-0.4680023c-0.2879944,0-0.4919891-0.0119934-0.7079926-0.0480042
	v1.1040039c0.2399902-0.0360107,0.3959961-0.0480042,0.7079926-0.0480042h2.0279999
	c0.3359985,0,0.5039978,0.0119934,0.7200012,0.0480042v-1.1040039c-0.2160034,0.0360107-0.4079895,0.0480042-0.7319946,0.0480042
	h-0.4799957v-0.8520203h0.3959961c0.3359985,0,0.5159912,0.0120239,0.7319946,0.0360107v-1.0799866
	c-0.2160034,0.0359802-0.4319916,0.0480042-0.7319946,0.0480042h-0.3959961c0-0.4320068,0.0119934-0.552002,0.0479889-0.7799988
	h-1.1640015c0.0360107,0.2159729,0.0480042,0.3959961,0.0480042,0.7799988h-0.3600006
	c-0.2519989,0-0.4559937-0.0120239-0.7079926-0.0480042v1.0799866c0.2039948-0.0239868,0.4199982-0.0360107,0.7200012-0.0360107
	H177.0599976z M175.6679993,439.9200134h3.9120026v7.9559937c0,0.2519836-0.0839996,0.2999878-0.5039978,0.2999878
	c-0.2880096,0-0.6840057-0.0359802-1.2600098-0.1199951c0.1800079,0.5280151,0.20401,0.6719971,0.2640076,1.2479858
	c0.4799957,0.0240173,0.7200012,0.0360107,1.1040039,0.0360107c0.6719971,0,1.0079956-0.071991,1.2359924-0.2519836
	c0.2160034-0.1679993,0.3359985-0.4920044,0.3359985-0.9240112v-8.052002c0-0.6239929,0.0120087-0.9599915,0.0599976-1.3559875
	c-0.3359985,0.0359802-0.6119995,0.0479736-1.2599945,0.0479736h-3.8159943c-0.6240082,0-0.9000092-0.0119934-1.2720032-0.0479736
	c0.0599976,0.5039978,0.071991,0.8880005,0.071991,2.1839905c0,2.5319824-0.0839996,4.2600098-0.2519989,5.5679932
	c-0.1199951,0.8640137-0.2399902,1.3200073-0.5039978,1.9079895v-1.9559937c0-0.4920044,0.0120087-0.6600037,0.0360107-0.8519897
	c-0.1560059,0.0119934-0.1560059,0.0119934-0.7200012,0.0239868h-1.9200134c-0.4679871,0-0.5879974,0-0.8159943-0.0359802
	c0.0359955,0.3119812,0.0480042,0.5639954,0.0480042,0.9360046v1.776001c0,0.3839722-0.0240021,0.815979-0.0599976,1.1759949
	h1.1759949v-0.6119995h1.1880035v0.3719788h1.1040039c-0.0240021-0.1679993-0.0360107-0.2999878-0.0360107-0.5279846
	c0.2640076,0.1679993,0.5039978,0.3840027,0.8880005,0.7919922c0.3359985-0.743988,0.5160065-1.3559875,0.6600037-2.1959839
	c0.2160034-1.2960205,0.3359985-3.4320068,0.3359985-6.0720215V439.9200134z M171.5039978,446.6400146h1.223999v1.1759949h-1.223999
	V446.6400146z M170.4360046,439.9200134c0.2879944-0.0240173,0.5399933-0.0360107,0.9720001-0.0360107h1.4639893
	c0.4320068,0,0.6480103,0.0119934,0.9720001,0.0360107v-1.1880188c-0.2879944,0.0480042-0.5039978,0.0599976-0.9720001,0.0599976
	h-1.4639893c-0.480011,0-0.6840057-0.0119934-0.9720001-0.0599976V439.9200134z M170.076004,441.6719971
	c0.2879944-0.0360107,0.552002-0.0480042,0.9720001-0.0480042h2.1239929c0.4920044,0,0.6600037,0.0119934,0.9120026,0.0480042
	v-1.2359924c-0.2879944,0.0359802-0.4680023,0.0480042-0.9720001,0.0480042h-2.0639954
	c-0.4680023,0-0.6719971-0.0120239-0.9720001-0.0480042V441.6719971z M170.423996,443.3399963
	c0.2160034-0.0239868,0.3840027-0.0360107,0.7559967-0.0360107h1.8720093c0.3479919,0,0.5159912,0.0120239,0.7319946,0.0360107
	v-1.1279907c-0.2039948,0.0239868-0.3600006,0.0359802-0.7319946,0.0359802h-1.8720093
	c-0.371994,0-0.5279999-0.0119934-0.7559967-0.0359802V443.3399963z M170.423996,445.0079956
	c0.2160034-0.0239868,0.3960114-0.0360107,0.7559967-0.0360107h1.8480072c0.371994,0,0.5399933,0.0120239,0.7559967,0.0360107
	v-1.1159973c-0.2039948,0.0239868-0.3600006,0.0360107-0.7440033,0.0360107h-1.8600006
	c-0.371994,0-0.5279999-0.0120239-0.7559967-0.0360107V445.0079956z M178.9559937,445.1879883
	c0-0.3719788,0.0120087-0.5639954,0.0360107-0.7919922c-0.1920013,0.0240173-0.4080048,0.0360107-0.8040009,0.0360107h-1.3919983
	c-0.3480072,0-0.552002-0.0119934-0.8040009-0.0360107c0.0240021,0.2520142,0.0359955,0.4559937,0.0359955,0.8280029v2.2319946
	c0,0.4559937-0.0119934,0.7440186-0.0480042,0.9840088H177v-0.8399963h1.1880035c0.0359955,0,0.1320038,0,0.2879944,0.0119934
	c0.0599976,0,0.1320038,0,0.2519989,0.0119934c0.1200104,0,0.1560059,0,0.2640076,0.0119934
	c-0.0240021-0.1679993-0.0360107-0.3119812-0.0360107-0.6359863V445.1879883z M177,445.4519958h0.9839935v1.1159973H177V445.4519958
	z M182.9400024,446.2319946c0.095993-0.1560059,0.1080017-0.1679993,0.2519989-0.3359985
	c0.7919922-0.8639832,1.4400024-1.6679993,2.3639984-2.9039917c0.4080048-0.5400085,0.5279999-0.6480103,0.7200012-0.6480103
	c0.2279968,0,0.3000031,0.0599976,1.0440063,0.9120178c1.3679962,1.6080017,2.9639893,3.2399902,4.6679993,4.7639771
	c0.2039948,0.1800232,0.2279968,0.20401,0.3479919,0.3480225l0.7319946-1.70401
	c-0.6959991-0.2999878-3.4079895-2.8919983-4.8959961-4.6799927c-0.371994-0.4440002-0.6360016-0.7200012-0.8040009-0.8640137
	c-0.3600006-0.2999878-0.7200012-0.4559937-1.0800018-0.4559937c-0.2999878,0-0.6360016,0.1199951-0.9599915,0.3599854
	c-0.2279968,0.1560059-0.4320068,0.3720093-0.7440033,0.756012c-1.3800049,1.776001-2.1119995,2.5920105-2.6159973,2.9400024
	L182.9400024,446.2319946z M189.1560059,440.5799866c0.5159912,0.5760193,0.8639984,1.0559998,1.2599945,1.7880249
	l0.8399963-0.4440002c-0.4079895-0.7440186-0.7440033-1.2000122-1.2599945-1.7640076L189.1560059,440.5799866z
	 M192.6840057,441.1440125c-0.3720093-0.684021-0.7080078-1.1400146-1.2480011-1.6920166l-0.8040009,0.4200134
	c0.4680023,0.5159912,0.8639984,1.0799866,1.223999,1.7399902L192.6840057,441.1440125z M194.5319977,441.7200012
	c0.4680023-0.0960083,1.1880035-0.1799927,1.9920044-0.2399902c2.6040039-0.1920166,3.071991-0.2279968,4.0439911-0.3720093
	c-0.7799988,0.3959961-1.2119904,0.7080078-1.6679993,1.2000122c-0.7319946,0.8039856-1.1399994,1.8119812-1.1399994,2.8320007
	c0,1.2479858,0.6119995,2.2679749,1.7160034,2.8919983c0.7319946,0.4079895,1.4880066,0.6239929,2.8079987,0.7919922
	c0.20401,0.0239868,0.2640076,0.0359802,0.4080048,0.071991l0.2160034-1.6319885
	c-0.1200104,0.0119934-0.2280121,0.0119934-0.2400055,0.0119934c-0.4320068,0-1.1999969-0.1319885-1.7879944-0.3120117
	c-1.0080109-0.2999878-1.5960083-1.019989-1.5960083-1.9559937c0-1.2120056,0.9000092-2.4119873,2.423996-3.20401
	c0.7680054-0.4079895,1.6560059-0.6479797,2.3760071-0.6479797c0.1199951,0,0.1199951,0,0.2519989,0.0119934l-0.0839996-1.5360107
	c-0.2160034,0.0599976-0.3959961,0.0720215-1.3800049,0.1200256c-3.3239899,0.1559753-5.3159943,0.2639771-5.9879913,0.2999878
	c-1.7640076,0.1199951-1.7640076,0.1199951-1.9799957,0.1199951c-0.0600128,0-0.1920013,0-0.4560089-0.0119934
	L194.5319977,441.7200012z M217.0919952,440.2200012c-0.3119965,0.0360107-0.6719971,0.0599976-1.1879883,0.0599976h-2.6520081
	c0.1320038-0.4559937,0.2279968-0.7919922,0.3359985-1.2720032c0.0720062-0.3479919,0.0720062-0.3479919,0.1320038-0.4920044
	l-1.404007-0.2279968c-0.0119934,0.4440002-0.1319885,1.1159973-0.2999878,1.7400208
	c-0.3120117,1.1159973-0.7200012,1.9919739-1.4520111,3.0359802c-0.0119934-0.2519836-0.0119934-0.3840027-0.0119934-0.6959839
	v-2.1240234c0-0.4799805,0.0119934-0.8280029,0.0599976-1.2359924c-0.371994,0.0480042-0.7440033,0.0599976-1.2839966,0.0599976
	h-1.7880096c-0.5519867,0-0.947998-0.0239868-1.3079987-0.071991v1.3200073
	c0.3720093-0.0360107,0.7680054-0.0599976,1.3079987-0.0599976h1.7640076v2.1719971h-1.7640076
	c-0.5639954,0-0.8399963-0.0120239-1.2359924-0.0480042c0.0359955,0.3599854,0.0480042,0.6359863,0.0480042,1.2839966v3.1919861
	c0,1.0440063,0.3479919,1.2600098,2.0759888,1.2600098c1.2960052,0,1.9440002-0.1679993,2.256012-0.5759888
	c0.2159882-0.2879944,0.3359985-0.8999939,0.3839874-2.0160217c-0.5039978-0.1080017-0.8399963-0.2399902-1.2839966-0.4679871
	c0,0.071991,0,0.1319885,0,0.1799927c0,0.6719971-0.0359955,1.2000122-0.1080017,1.3560181
	c-0.095993,0.2399902-0.3600006,0.3119812-1.1039886,0.3119812c-0.8400116,0-0.9480133-0.0480042-0.9480133-0.4679871v-2.8320007
	h1.6800079c0.4199982,0,0.6840057,0.0119934,0.9600067,0.0239868c0.2279968,0.1560059,0.4919891,0.40802,0.8279877,0.8399963
	c0.4440002-0.552002,0.4680023-0.5879822,0.7080078-0.9719849c0.2519989,1.0920105,0.6119995,1.9559937,1.1640015,2.8200073
	c-0.852005,0.9239807-1.7880096,1.5239868-3.1320038,1.9920044c0.3600006,0.3959961,0.5639954,0.7200012,0.8040009,1.2599792
	c1.2960052-0.6359863,2.2680054-1.3320007,3.1080017-2.2200012c0.8280029,0.9240112,1.6559906,1.5960083,2.7359924,2.1960144
	c0.2400055-0.6239929,0.3720093-0.8760071,0.7440033-1.3560181c-1.1399994-0.5279846-1.8359985-1.0319824-2.6519928-1.9079895
	c0.3839874-0.5759888,0.6599884-1.1399841,0.8880005-1.7879944c0.3600006-0.9840088,0.4799957-1.6560059,0.5759888-3.0360107
	c0.5879974,0,0.6840057,0,1.0559998,0.0599976V440.2200012z M214.7640076,441.4559937
	c-0.0720062,1.5840149-0.3480072,2.6400146-0.9840088,3.756012c-0.6239929-1.0079956-0.9599915-1.9200134-1.1640015-3.2400208
	c0.1080017-0.2279968,0.1199951-0.2759705,0.2279968-0.5159912H214.7640076z M219.7319946,439.4639893
	c-0.5759888,0-0.8399963-0.0119934-1.1999969-0.071991v1.1520081c0.3840027-0.0480042,0.6840057-0.0599976,1.1999969-0.0599976
	h3.0480042v0.539978h-2.5440063c-0.6239929,0-0.8519897-0.0119934-1.1399994-0.0479736v1.0679932
	c0.3000031-0.0360107,0.5400085-0.0480042,1.1399994-0.0480042h2.5440063v0.5759888h-3.4319916
	c-0.6120148,0-0.9000092-0.0119934-1.2120056-0.0599976v1.1400146c0.3600006-0.0480042,0.6239929-0.0599976,1.2120056-0.0599976
	h3.4319916v1.1040039h-1.1519928c-0.20401-0.4560242-0.3120117-0.6480103-0.6119995-1.0680237l-1.2120056,0.3840027
	c0.2639923,0.3000183,0.371994,0.4559937,0.5279999,0.684021h-1.0200043c-0.6239929,0-0.8880005-0.0120239-1.2119904-0.0600281
	v1.1640015c0.3479919-0.0599976,0.6719971-0.071991,1.2119904-0.071991h8.352005c0.552002,0,0.8399963,0.0119934,1.2120056,0.071991
	v-1.1640015c-0.3240051,0.0480042-0.5880127,0.0600281-1.2120056,0.0600281h-1.0200043
	c0.0599976-0.0600281,0.0960083-0.0960083,0.1320038-0.1440125c0.2400055-0.3120117,0.2400055-0.3120117,0.3479919-0.4440002
	l-1.1999969-0.4559937c-0.1920013,0.3959961-0.3840027,0.6839905-0.647995,1.0440063h-1.223999v-1.1040039h3.6360016
	c0.6239929,0,0.8759918,0.0119934,1.223999,0.0599976v-1.1400146c-0.3119965,0.0480042-0.6119995,0.0599976-1.223999,0.0599976
	h-3.6360016v-0.5759888h2.7720032c0.5879974,0,0.8279877,0.0119934,1.1279907,0.0480042v-1.0679932
	c-0.2879944,0.0359802-0.5159912,0.0479736-1.1279907,0.0479736h-2.7720032v-0.539978h3.2400055
	c0.5279999,0,0.8519897,0.0119934,1.2119904,0.0599976v-1.1520081c-0.3600006,0.0599976-0.6239929,0.071991-1.2119904,0.071991
	h-1.3920135c0.2280121-0.276001,0.5040131-0.6359863,0.7080078-0.9599915l-1.3679962-0.2640076
	c-0.1920013,0.4320068-0.4320068,0.8160095-0.756012,1.223999h-1.9919891
	c-0.2160034-0.4079895-0.4320068-0.743988-0.8040009-1.223999l-1.3200073,0.2400208
	c0.3720093,0.4559937,0.5039978,0.6239929,0.7320099,0.9839783H219.7319946z M220.6799927,449.4840088v-0.4680176h5.6040039
	v0.4680176h1.3919983c-0.0479889-0.3600159-0.071991-0.7080078-0.071991-1.1880188v-1.1519775
	c0-0.3960266,0.0119934-0.6360168,0.0599976-0.960022c-0.2879944,0.0360107-0.5279999,0.0480042-1.0079956,0.0480042h-6.3359985
	c-0.4200134,0-0.6720123-0.0119934-0.9960022-0.0480042c0.0479889,0.3120117,0.0599976,0.5880127,0.0599976,0.9960022v1.1040039
	c0,0.480011-0.0240021,0.8160095-0.0720062,1.2000122H220.6799927z M220.6799927,447.2520142h5.6040039v0.7079773h-5.6040039
	V447.2520142z M232.6679993,448.7879944c-0.0119934-0.1560059-0.0119934-0.2519836-0.0119934-0.3240051
	c0-0.8519897,0.4079895-2.243988,1.0679932-3.6359863l-0.9599915-0.4320068
	c-0.4680023,1.0800171-0.4920044,1.1640015-0.6240082,1.5840149c0.0119934-0.3000183,0.0240021-0.3959961,0.0240021-0.6600037
	c0.0119934-1.0440063,0.0599976-1.7520142,0.1799927-2.6520081c0.1920013-1.5360107,0.4680023-2.8800049,0.756012-3.5880127
	l-1.5839996-0.1679993c-0.0240021,0.3240051-0.0480042,0.4440002-0.1800079,1.1160278
	c-0.3479919,1.7759705-0.4920044,3.1439819-0.4920044,4.6919861c0,1.2120056,0.0839996,2.1359863,0.3120117,3.5880127
	c0.0359955,0.276001,0.0479889,0.3479919,0.0599976,0.5639954L232.6679993,448.7879944z M234.3240051,441.6000061
	c1.2719879,0.1319885,1.2839966,0.1319885,2.1599884,0.1319885c0.8880005,0,1.8000031-0.0480042,2.5680084-0.1439819
	c0.576004-0.0720215,0.7559967-0.0960083,0.852005-0.1080017l-0.0720062-1.4519958
	c-0.7920074,0.2159729-1.9320068,0.3239746-3.2640076,0.3239746c-1.0439911,0-1.6799927-0.0480042-2.219986-0.1919861
	L234.3240051,441.6000061z M235.1519928,443.5799866c-0.743988,0.8880005-1.1039886,1.6920166-1.1039886,2.4720154
	c0,0.4320068,0.1319885,0.8760071,0.3600006,1.1759949c0.5279999,0.7080078,1.4879913,1.0440063,2.9759979,1.0440063
	c0.7919922,0,1.5240021-0.071991,2.4839935-0.2279968c0.276001-0.0480042,0.3240051-0.0599976,0.4920044-0.0720215
	l-0.1199951-1.5239868c-0.756012,0.2879944-1.8000031,0.4559937-2.8560028,0.4559937
	c-1.2480011,0-1.9080048-0.3599854-1.9080048-1.0440063c0-0.5159912,0.2519989-1.0319824,0.852005-1.7279968
	L235.1519928,443.5799866z M249.0599976,444.3240051c0.552002-0.1799927,0.647995-0.20401,0.947998-0.3359985
	c0.7080078,0.3959961,1.5,0.6719971,2.6880035,0.947998c0.1080017-0.4320068,0.2160034-0.6600037,0.4920044-1.0800171
	c-0.947998-0.1319885-1.4640045-0.2519836-2.0879974-0.4919739c0.4440002-0.3359985,0.7679901-0.6600037,1.2480011-1.2480164
	c0.095993-0.1319885,0.1199951-0.1560059,0.2279968-0.2640076l-0.6000061-0.7079773
	c-0.1679993,0.0479736-0.2879944,0.0599976-0.7319946,0.0599976h-2.6520081c-0.2879944,0-0.3239899,0-0.4559937,0
	c0.3240051-0.1199951,0.4559937-0.1920166,0.647995-0.3600159c0.4199982-0.3359985,0.576004-0.6600037,0.6840057-1.3800049
	h0.8759918v0.7920227c0,0.3479919,0.0480042,0.4679871,0.2160034,0.552002
	c0.1679993,0.0959778,0.4680023,0.1319885,0.9000092,0.1319885c0.8639984,0,1.2119904-0.071991,1.3919983-0.3120117
	c0.1439972-0.1679993,0.1920013-0.3959961,0.2519989-1.0799866c-0.3600006-0.0480042-0.6360016-0.1440125-0.9600067-0.3120117
	c-0.0240021,0.4440002-0.0599976,0.6960144-0.1199951,0.7680054c-0.0359955,0.0599976-0.1560059,0.0840149-0.3720093,0.0840149
	c-0.2159882,0-0.2519989-0.0240173-0.2519989-0.1679993v-0.6480103c0-0.4200134,0.0120087-0.6119995,0.0480042-0.7680054
	c-0.1559906,0.0240173-0.3359985,0.0360107-0.8880005,0.0360107h-1.2720032c-0.5999908,0-0.5999908,0-0.8399963-0.0360107
	c0.0240021,0.1080017,0.0240021,0.1440125,0.0240021,0.2640076c0,0.9360046-0.2640076,1.3320007-1.0440063,1.5839844
	c0.3360138,0.2640076,0.5400085,0.5160217,0.6840057,0.8399963c-0.2879944-0.0119934-0.2879944-0.0119934-0.4320068-0.0359802
	v0.947998c0.2280121-0.0240173,0.5160065-0.0360107,0.9120026-0.0360107H249l-0.7680054,0.3120117
	c0.4080048,0.5279846,0.5400085,0.6719971,0.8400116,0.9360046c-0.4920044,0.1439819-0.8040009,0.2160034-1.3800049,0.2999878
	c0.2519989,0.2999878,0.3600006,0.5039978,0.5039978,0.9360046c0.3000031-0.071991,0.371994-0.0840149,0.7799988-0.20401
	c-0.3840027,0.4200134-0.8880005,0.8160095-2.0279999,1.632019c-0.2039948-0.1560059-0.2639923-0.20401-0.5399933-0.3959961
	c0.4799957-0.3000183,0.8759918-0.5880127,1.4639893-1.0559998l-1.0079956-0.6240234
	c-0.2879944,0.3480225-0.6600037,0.6600037-1.3320007,1.0920105c-0.2879944-0.1799927-0.2879944-0.1799927-0.8880005-0.5400085
	h0.8880005c-0.0240021-0.1560059-0.0359955-0.2640076-0.0359955-0.6000061h1.0200043
	c0.3959961,0,0.8759918,0.0240173,1.1399994,0.0480042v-0.9360046c-0.2400055,0.0480042-0.480011,0.0600281-1.1399994,0.0600281
	h-1.0200043v-0.3360291h0.9360046c0.2879944,0,0.7679901,0.0120239,0.9359894,0.0240173
	c-0.0240021-0.2160034-0.0240021-0.3479919-0.0240021-0.7799988v-1.1279907c0-0.4320068,0-0.5400085,0.0360107-0.7680054
	c-0.1920013,0.0239868-0.4560089,0.0359802-0.947998,0.0359802h-0.9360046v-0.3359985h1.0319977
	c0.8040009,0.0120239,0.8040009,0.0120239,1.1519928,0.0480042v-0.9239807
	c-0.2879944,0.0479736-0.4919891,0.0599976-1.1519928,0.0599976h-1.0319977c0-0.2520142,0.0240021-0.3959961,0.0599976-0.5400085
	h-1.1999969c0.0359955,0.2160034,0.0480042,0.2879944,0.0599976,0.5400085h-1.1040039
	c-0.7079926,0-0.8759918-0.0120239-1.1399994-0.0599976v0.9359741c0.3359985-0.0359802,0.7320099-0.0599976,1.1399994-0.0599976
	h1.1040039v0.3359985h-0.9360046c-0.4799957,0-0.7079926-0.0119934-0.9120026-0.0479736
	c0.0240021,0.2039795,0.0360107,0.4319763,0.0360107,0.815979v1.0440063c0,0.4079895-0.0120087,0.6480103-0.0360107,0.8399963
	c0.1920013-0.0239868,0.6840057-0.0360107,0.9240112-0.0360107h0.923996v0.3360291h-1.1759949
	c-0.6840057,0-0.756012,0-1.128006-0.0600281v0.947998c0.3480072-0.0359802,0.7319946-0.0599976,1.1159973-0.0599976h1.1880035
	c-0.0119934,0.3240051-0.0119934,0.3960266-0.0480042,0.6000061h0.0960083l-0.8160095,0.6480103
	c1.3079987,0.743988,1.3079987,0.743988,2.0879974,1.2479858c-0.1319885,0-0.3479919,0-0.3479919,0
	c-0.371994,0-0.371994,0-2.2440033-0.0359802c-0.3479919-0.0120239-0.5279999-0.0240173-0.7440033-0.0720215l0.1679993,1.1760254
	c0.3240051-0.0360107,1.0200043-0.0720215,1.4760132-0.0720215c1.571991-0.0239868,1.571991-0.0239868,2.8320007-0.071991v0.947998
	c0,0.6480103-0.0120087,0.947998-0.0720062,1.3200073h1.4400024c-0.0720062-0.4320068-0.0720062-0.5400085-0.0720062-1.3320007
	v-0.9840088c1.1999969-0.0480042,2.0279999-0.0960083,3.2400055-0.2160034
	c0.2399902,0.2640076,0.3239899,0.3840027,0.5879974,0.7440186l0.8760071-0.6960144
	c-0.6360016-0.743988-0.9720001-1.0559998-1.9680023-1.8959961l-0.8400116,0.552002
	c0.276001,0.2279968,0.3600006,0.3120117,0.5640106,0.4920044c-0.6360016,0.0480042-1.6920013,0.0959778-2.5680084,0.1199951
	c0.4680023-0.2879944,1.1159973-0.743988,1.6320038-1.1279907c0.2039948-0.1560059,0.2400055-0.1800232,0.3959961-0.2880249
	L249.0599976,444.3240051z M244.4519958,440.723999v0.3359985h-0.8280029v-0.3359985H244.4519958z M245.4720001,440.723999
	h0.8639984v0.3359985h-0.8639984V440.723999z M244.4519958,441.6719971v0.3720093h-0.8280029v-0.3720093H244.4519958z
	 M245.4720001,441.6719971h0.8639984v0.3720093h-0.8639984V441.6719971z M251.0879974,442.0679932
	c-0.276001,0.3359985-0.4920044,0.5160217-0.9720001,0.7919922c-0.3840027-0.2879944-0.6119995-0.5039978-0.8280029-0.7919922
	H251.0879974z M244.9799957,447.3359985c-0.5759888,0.5039978-1.4039917,0.8399963-2.79599,1.1400146
	c0.4919891,0.539978,0.5759888,0.6599731,0.7559967,1.0559998c1.4160004-0.4320068,2.0999908-0.7680054,3.095993-1.5480042
	L244.9799957,447.3359985z M248.9759979,447.8760071c0.923996,0.7319946,1.7640076,1.1640015,3.0960083,1.5839844
	c0.2159882-0.4440002,0.371994-0.6600037,0.743988-1.0559998c-1.3799896-0.3359985-2.0759888-0.6239929-2.9279938-1.1759949
	L248.9759979,447.8760071z M257.6759949,442.776001c0.071991,0,0.132019,0,0.1799927,0c0.1440125,0,0.1920166,0,0.5400085,0.0239868
	c0.3120117,0.0240173,0.756012,0.0360107,1.0920105,0.0360107c0.6000061,0,1.223999-0.0239868,1.6319885-0.0599976
	c0.0119934,0.3599854,0.0119934,0.552002,0.0119934,0.7680054c0,1.7640076-0.2160034,2.6159973-0.8399963,3.3599854
	c-0.4559937,0.5400085-1.019989,0.9360046-1.8359985,1.3080139c0.5159912,0.3840027,0.7799988,0.6359863,1.1640015,1.1279907
	c0.6119995-0.3599854,0.9360046-0.5879822,1.3080139-0.9119873c0.6719971-0.6000061,1.1040039-1.3320007,1.367981-2.3280029
	c0.1679993-0.6000061,0.2520142-1.5960083,0.2520142-2.8680115c0-0.2160034,0-0.3240051-0.0119934-0.5759888
	c0.5039978-0.0599976,0.5879822-0.071991,1.1640015-0.20401c0.4079895-0.0839844,0.4799805-0.0960083,0.6719971-0.1199951
	l-0.0840149-1.428009c-0.276001,0.1560059-0.9960022,0.3359985-1.7879944,0.4680176
	c-0.0360107-0.7680054-0.0480042-1.3560181-0.071991-1.7520142c0-0.0599976,0-0.1199951,0-0.1560059
	c0-0.071991,0.0119934-0.2039795,0.0239868-0.4559937l-1.5239868,0.0119934
	c0.0599976,0.3000183,0.071991,0.3720093,0.0959778,0.9000244c0.0120239,0.3719788,0.0240173,0.4919739,0.0600281,1.5839844
	c-0.7080078,0.0599976-0.8040161,0.0599976-1.2600098,0.0599976c-0.9840088,0-1.6080017-0.0480042-2.1480103-0.1679993V442.776001z
	 M256.9079895,444.3240051c-0.1199951,0.2160034-0.1199951,0.2160034-0.5279846,1.1879883
	c-0.0599976,0.132019-0.0960083,0.2520142-0.276001,0.7919922c0-0.1799927,0-0.3119812-0.0119934-0.4559937
	c0-0.071991-0.0120239-1.0079956-0.0120239-1.1879883c0-1.9079895,0.3000183-4.1279907,0.7320251-5.519989l-1.5840149-0.1440125
	c0,0.2399902,0,0.3359985-0.0839996,0.8760071c-0.371994,2.4839783-0.4440002,3.1919861-0.4440002,4.5480042
	c0,1.3559875,0.1320038,2.5559998,0.4320068,3.8999939c0.0599976,0.2519836,0.071991,0.2879944,0.0839996,0.4559937
	l1.3919983-0.071991c-0.0119934-0.7200012,0.6119995-2.4840088,1.3680115-3.8520203L256.9079895,444.3240051z
	 M262.4039917,438.5400085c0.3359985,0.5279846,0.6000061,1.1159973,0.8160095,1.8840027l0.8280029-0.2400208
	c-0.20401-0.7079773-0.4559937-1.2839966-0.8280029-1.8719788L262.4039917,438.5400085z M265.4639893,439.776001
	c-0.2279968-0.7319946-0.4920044-1.29599-0.815979-1.7999878l-0.7680054,0.2399902
	c0.3240051,0.5159912,0.6119995,1.1879883,0.8039856,1.8359985L265.4639893,439.776001z M270.2279968,443.519989
	c0.1920166-0.1080017,0.1920166-0.1080017,0.4920044-0.3119812c0.2399902-0.1560059,1.1040039-0.8040161,1.3200073-0.9840088
	c0.4079895-0.3479919,1.2839966-1.1279907,1.8840027-1.6799927c0.3359985-0.3120117,0.4199829-0.3840027,0.6239929-0.4920044
	l-0.7440186-1.0559998c-0.1919861,0.0960083-0.3239746,0.1199951-0.743988,0.1560059
	c-1.1640015,0.0839844-2.6279907,0.1439819-3.6480103,0.1439819c-0.6599731,0-1.0079956-0.0239868-1.4159851-0.071991
	l0.0599976,1.4400024c0.2279968-0.0360107,0.3120117-0.0480042,0.5759888-0.0599976
	c2.1719971-0.0960083,2.9400024-0.1440125,3.3960266-0.20401l0.0119934,0.0119934
	c-0.0720215,0.0720215-0.1920166,0.1920166-0.2160034,0.2160034c-0.9120178,0.9240112-2.4720154,2.2680054-3.5880127,3.1199951
	c-0.7919922,0.6000061-1.2720032,0.9240112-1.6919861,1.1280212l0.815979,1.29599
	c1.4400024-1.3079834,3.1920166-2.0159912,4.9440002-2.0159912c1.4520264,0,2.3760071,0.6119995,2.3760071,1.5480042
	c0,0.8519897-0.4320068,1.367981-1.4279785,1.7399902c-0.1800232-0.5159912-0.3120117-0.7799988-0.552002-1.0799866
	c-0.5039978-0.6360168-1.2360229-0.9840088-2.0760193-0.9840088c-1.1999817,0-2.0639954,0.7200012-2.0639954,1.7160034
	c0,0.539978,0.2640076,1.0440063,0.7200012,1.3800049c0.480011,0.3599854,1.3200073,0.552002,2.3280029,0.552002
	c1.1040039,0,2.1239929-0.2400208,2.9039917-0.684021c1.0679932-0.6000061,1.632019-1.5119934,1.632019-2.6520081
	c0-1.6439819-1.3200073-2.6999817-3.3720093-2.6999817c-0.8999939,0-1.428009,0.1199951-2.519989,0.552002L270.2279968,443.519989z
	 M271.9559937,447.7919922c-0.3359985,0.0480042-0.3959961,0.0480042-0.6239929,0.0480042
	c-0.8880005,0-1.428009-0.276001-1.428009-0.7559814c0-0.3360291,0.276001-0.552002,0.7080078-0.552002
	C271.2839966,446.5320129,271.7399902,446.9639893,271.9559937,447.7919922z"/>
<path class="st23" d="M197.3099976,416.5h-18.6199951c-0.6240082,0-0.9360046,0.7539978-0.4949951,1.1950073l9.3099976,9.3099976
	c0.272995,0.2730103,0.7169952,0.2730103,0.9899902,0l9.3099976-9.3099976
	C198.2460022,417.2539978,197.9340057,416.5,197.3099976,416.5z"/>
<path class="st35" d="M182.5780029,142.5c-1.1470032,0-2.0780029,0.9309998-2.0780029,2.0780029v31.8439941
	c0,1.1470032,0.9309998,2.0780029,2.0780029,2.0780029h23.8439941c1.1470032,0,2.0780029-0.9309998,2.0780029-2.0780029V151.5l-9-9
	H182.5780029z"/>
<path class="st36" d="M199.5,142.5l9,9h-6.9219971c-1.1470032,0-2.0780029-0.9309998-2.0780029-2.0780029V142.5z"/>
<path class="st37" d="M175.5780029,148.5c-1.1470032,0-2.0780029,0.9309998-2.0780029,2.0780029v31.8439941
	c0,1.1470032,0.9309998,2.0780029,2.0780029,2.0780029h23.8439941c1.1470032,0,2.0780029-0.9309998,2.0780029-2.0780029V157.5l-9-9
	H175.5780029z"/>
<path class="st36" d="M192.5,148.5l9,9h-6.9219971c-1.1470032,0-2.0780029-0.9309998-2.0780029-2.0780029V148.5z"/>
<path class="st35" d="M168.5780029,154.5c-1.1470032,0-2.0780029,0.9309998-2.0780029,2.0780029v31.8439941
	c0,1.1470032,0.9309998,2.0780029,2.0780029,2.0780029h23.8439941c1.1470032,0,2.0780029-0.9309998,2.0780029-2.0780029V163.5l-9-9
	H168.5780029z"/>
<path class="st36" d="M185.5,154.5l9,9h-6.9219971c-1.1470032,0-2.0780029-0.9309998-2.0780029-2.0780029V154.5z"/>
<path class="st1" d="M175.6410065,177.5h-1.2540131v-0.7920074h-0.0219879
	c-0.1829987,0.3080139-0.4400024,0.5430145-0.7700043,0.70401c-0.322998,0.1609955-0.6710052,0.2420044-1.0449982,0.2420044
	c-0.4029999,0-0.7660065-0.0730133-1.0890045-0.2200012c-0.3150024-0.154007-0.5870056-0.3560028-0.8139954-0.605011
	c-0.2200012-0.2569885-0.3919983-0.5540009-0.5169983-0.8909912c-0.1170044-0.3450012-0.1760101-0.7109985-0.1760101-1.1000061
	c0-0.3889923,0.0620117-0.7519989,0.1870117-1.0890045c0.125-0.3369904,0.3009949-0.6309967,0.5279999-0.8799896
	c0.2269897-0.2490082,0.4989929-0.4440002,0.8139954-0.5830078c0.3150024-0.1469879,0.6600037-0.2200012,1.0339966-0.2200012
	c0.2420044,0,0.4580078,0.029007,0.6490021,0.0880127c0.1909943,0.0509949,0.3560028,0.1169891,0.4949951,0.197998
	c0.1470032,0.0809937,0.2710114,0.1689911,0.3740082,0.2639923s0.1869965,0.1869965,0.2529907,0.2750092h0.0330048v-3.7070007
	h1.3200073V177.5z M171.2960052,174.8379974c0,0.2050018,0.0289917,0.4109955,0.0879974,0.6159973
	c0.0659943,0.2050018,0.1609955,0.3890076,0.2859955,0.5500031s0.2819977,0.2929993,0.4730072,0.3959961
	c0.1909943,0.1030121,0.4140015,0.154007,0.67099,0.154007c0.2420044,0,0.4580078-0.0480042,0.6490021-0.1430054
	c0.1910095-0.1029968,0.352005-0.2350006,0.4840088-0.3959961c0.1389923-0.1609955,0.2419891-0.3410034,0.3079987-0.5390015
	c0.072998-0.2050018,0.1100006-0.4109955,0.1100006-0.6159973s-0.0370026-0.4109955-0.1100006-0.6159973
	c-0.0660095-0.2050018-0.1690063-0.3890076-0.3079987-0.5500031c-0.1320038-0.1609955-0.2929993-0.2929993-0.4840088-0.3959961
	c-0.1909943-0.1029968-0.4069977-0.154007-0.6490021-0.154007c-0.2569885,0-0.4799957,0.0510101-0.67099,0.154007
	c-0.1910095,0.0950012-0.3480072,0.223999-0.4730072,0.3849945s-0.2200012,0.3450012-0.2859955,0.5500031
	C171.3249969,174.4309998,171.2960052,174.6329956,171.2960052,174.8379974z M180.3029938,176.8289948h-0.0329895
	c-0.1320038,0.2350006-0.3450012,0.4290009-0.6380005,0.5830078c-0.2940063,0.1470032-0.6269989,0.2200012-1.0010071,0.2200012
	c-0.2129974,0-0.4369965-0.029007-0.67099-0.0879974c-0.2280121-0.0510101-0.4400024-0.1390076-0.6380005-0.2640076
	c-0.1910095-0.1320038-0.352005-0.3009949-0.4840088-0.5059967c-0.125-0.2129974-0.1869965-0.4730072-0.1869965-0.7810059
	c0-0.3959961,0.1100006-0.7109985,0.3300018-0.9459991c0.2269897-0.2350006,0.5169983-0.4140015,0.8690033-0.5390015
	c0.3519897-0.125,0.7399902-0.2050018,1.1660004-0.2419891c0.4319916-0.0440063,0.8539886-0.0660095,1.2649994-0.0660095v-0.1320038
	c0-0.3299866-0.1210022-0.571991-0.3630066-0.7259979c-0.2350006-0.1609955-0.5169983-0.2419891-0.8470001-0.2419891
	c-0.2789917,0-0.5469971,0.0589905-0.8029938,0.1759949c-0.2570038,0.1170044-0.4700012,0.2599945-0.6380005,0.4290009
	l-0.6820068-0.803009c0.3000031-0.2789917,0.6450043-0.4879913,1.0339966-0.6269989
	c0.3960114-0.1389923,0.7949982-0.2089996,1.1990051-0.2089996c0.4689941,0,0.8540039,0.0660095,1.1549988,0.1980133
	c0.3079987,0.1319885,0.5500031,0.3039856,0.7259979,0.5169983c0.1760101,0.2129974,0.2969971,0.4509888,0.3630066,0.7149963
	c0.072998,0.2639923,0.1100006,0.5279999,0.1100006,0.7919922V177.5h-1.2320099V176.8289948z M180.2810059,175.0910034h-0.2970123
	c-0.2129974,0-0.4369965,0.0110016-0.67099,0.0329895c-0.2350006,0.0150146-0.451004,0.0550079-0.6490021,0.1210022
	c-0.197998,0.0590057-0.3630066,0.1470032-0.4949951,0.2640076c-0.1320038,0.1100006-0.1980133,0.2639923-0.1980133,0.4619904
	c0,0.125,0.0250092,0.2310028,0.0770111,0.3190002c0.0579987,0.0810089,0.1319885,0.1470032,0.2200012,0.1980133
	c0.0879974,0.0509949,0.1869965,0.0879974,0.2969971,0.1100006c0.1100006,0.0219879,0.2200012,0.0329895,0.3300018,0.0329895
	c0.4539948,0,0.798996-0.1210022,1.0339966-0.3629913c0.2339935-0.2420044,0.352005-0.5720062,0.352005-0.9900055V175.0910034z
	 M181.9859924,173.276001v-1.0559998h0.9240112v-1.529007h1.2979889v1.529007h1.3200073v1.0559998h-1.3200073v2.4530029
	c0,0.2350006,0.0400085,0.4290009,0.1210022,0.5829926c0.0880127,0.154007,0.279007,0.2310028,0.5720062,0.2310028
	c0.0879974,0,0.1829987-0.0070038,0.2859955-0.0220032c0.1029968-0.0220032,0.1940002-0.0509949,0.2750092-0.0879974
	l0.0439911,1.0339966c-0.1169891,0.0440063-0.2570038,0.0770111-0.4179993,0.098999
	c-0.1609955,0.029007-0.3150024,0.0440063-0.4619904,0.0440063c-0.352005,0-0.6380005-0.0480042-0.8580017-0.1430054
	c-0.2200012-0.1029968-0.3960114-0.2379913-0.5279999-0.4069977c-0.125-0.1759949-0.2130127-0.3739929-0.2640076-0.5939941
	c-0.0439911-0.227005-0.0659943-0.4690094-0.0659943-0.7259979v-2.4640045H181.9859924z M189.5410004,176.8289948h-0.0330048
	c-0.1319885,0.2350006-0.3439941,0.4290009-0.6380005,0.5830078c-0.2929993,0.1470032-0.6269989,0.2200012-1.0009918,0.2200012
	c-0.2120056,0-0.4360046-0.029007-0.6710052-0.0879974c-0.227005-0.0510101-0.4400024-0.1390076-0.6380005-0.2640076
	c-0.1900024-0.1320038-0.352005-0.3009949-0.4839935-0.5059967c-0.1240082-0.2129974-0.1869965-0.4730072-0.1869965-0.7810059
	c0-0.3959961,0.1099854-0.7109985,0.3299866-0.9459991c0.2280121-0.2350006,0.5169983-0.4140015,0.8690033-0.5390015
	s0.7409973-0.2050018,1.1660004-0.2419891c0.4329987-0.0440063,0.8549957-0.0660095,1.2649994-0.0660095v-0.1320038
	c0-0.3299866-0.1210022-0.571991-0.3629913-0.7259979c-0.2340088-0.1609955-0.5169983-0.2419891-0.8470001-0.2419891
	c-0.2779999,0-0.5460052,0.0589905-0.803009,0.1759949c-0.2559967,0.1170044-0.4689941,0.2599945-0.6380005,0.4290009
	l-0.6819916-0.803009c0.3009949-0.2789917,0.6459961-0.4879913,1.0339966-0.6269989
	c0.3959961-0.1389923,0.7960052-0.2089996,1.1990051-0.2089996c0.4700012,0,0.8549957,0.0660095,1.1549988,0.1980133
	c0.3079987,0.1319885,0.5499878,0.3039856,0.7259979,0.5169983c0.1759949,0.2129974,0.2969971,0.4509888,0.3629913,0.7149963
	c0.0740051,0.2639923,0.1100006,0.5279999,0.1100006,0.7919922V177.5h-1.2319946V176.8289948z M189.5189972,175.0910034h-0.2969971
	c-0.2120056,0-0.4360046,0.0110016-0.6710052,0.0329895c-0.2339935,0.0150146-0.4509888,0.0550079-0.6490021,0.1210022
	c-0.197998,0.0590057-0.3629913,0.1470032-0.4949951,0.2640076c-0.1320038,0.1100006-0.197998,0.2639923-0.197998,0.4619904
	c0,0.125,0.026001,0.2310028,0.0769958,0.3190002c0.0590057,0.0810089,0.1320038,0.1470032,0.2200012,0.1980133
	c0.0879974,0.0509949,0.1869965,0.0879974,0.2969971,0.1100006c0.1100006,0.0219879,0.2200012,0.0329895,0.3300018,0.0329895
	c0.4550018,0,0.8000031-0.1210022,1.0340118-0.3629913c0.2349854-0.2420044,0.3519897-0.5720062,0.3519897-0.9900055V175.0910034z"
	/>
</svg>
