<svg xmlns="http://www.w3.org/2000/svg" xmlns:xlink="http://www.w3.org/1999/xlink" viewBox="0 0 1366 460"><defs><clipPath id="clip-path"><rect width="1366" height="460" style="fill:none"/></clipPath><clipPath id="clip-path-2"><path id="SVGID" d="M542.21,150.49c.85-1.51,1.85-3.05,2.84-4.53a30.56,30.56,0,0,1,3.33-2.37c2.61,2.56,2.77,5.07,1.1,9.33-2.09,5.37-10.55,7.66-10.64,7.71s-.05-.1,0-.17A25.72,25.72,0,0,1,542.21,150.49Z" style="fill:none"/></clipPath><clipPath id="clip-path-4"><path id="SVGID-3" data-name="SVGID" d="M542.22,150.41c.84-1.51,1.84-3,2.83-4.45a30.56,30.56,0,0,1,3.33-2.37c2.61,2.56,2.77,5.07,1.1,9.33-2.09,5.37-10.55,7.66-10.64,7.71s-.05-.1,0-.17A25.92,25.92,0,0,1,542.22,150.41Z" style="fill:none"/></clipPath><clipPath id="clip-path-5"><path id="SVGID-4" data-name="SVGID" d="M1113.17,157.71c-1.42-1.13-10.2-8.3-10.29-16.89-.09-4.91.75-9.82,2.74-13.22C1113.64,134,1115.25,144.88,1113.17,157.71Z" style="fill:none"/></clipPath><clipPath id="clip-path-6"><path id="SVGID-5" data-name="SVGID" d="M806.64,380.47c0,8.88-16.83,16-16.83,16s-16.73-7.26-16.69-16.14,3.46-16.07,16.83-16C804,364.38,806.68,371.59,806.64,380.47Z" style="fill:#fcfdff"/></clipPath></defs><g style="isolation:isolate"><g id="編集モード"><g style="clip-path:url(#clip-path)"><g id="SVGID-6" data-name="SVGID"><rect width="1366" height="460" style="fill:#fff"/></g><g id="side-left"><path id="shadow-2" data-name="shadow" d="M563.7,212c-21.25,0-38.47-6.94-38.47-15.49S542.45,181,563.7,181s38.47,6.93,38.47,15.49S585,212,563.7,212Z" style="fill:#e4eaee"/><g id="tai"><path d="M605.46,158q1.95,1.53,3.83,3.27a15.57,15.57,0,0,1,2.32,3.68c-9.66-2.08-16.5-1-18.52-.46-11.55,2.94-12.77-4.21-16.34-6.73a10.44,10.44,0,0,1,.8-1.4C581,151.28,597.1,152.68,605.46,158Z" style="fill:#605983;opacity:0.400000005960465;mix-blend-mode:multiply"/><g id="head_gear" data-name="head gear"><path d="M585.84,143.58a60.28,60.28,0,0,1,30.79,6.91c-10.86,1.4-18.39,4.51-19.52,6.46s-7.69,4.37-12.35,1.67c-1.8-1.05-6.55-2.63-11.84-4.08C578.75,151.78,583.51,147.79,585.84,143.58Z" style="fill:#52a5db"/><g id="tai-2" data-name="tai"><g style="opacity:0.300000011920929;isolation:isolate"><path d="M586,143.38a65.66,65.66,0,0,1,30.68,7.11c-10.86,1.4-18.39,4.51-19.52,6.46s-7.69,4.37-12.35,1.67c-1.83-1.06-7.07-2.41-12.75-3.66C578.35,152.15,583.55,147.88,586,143.38Z" style="fill:#5e5780"/></g><path d="M613.49,164.09c-10.68-2.51-18.81-2.25-20.55-.82s-8.73,1.37-12.15-2.79a51.73,51.73,0,0,0-7.27-6.23,31.5,31.5,0,0,0,10.78-8.35A61.2,61.2,0,0,1,613.49,164.09Z" style="fill:#52a5db"/><path d="M573.52,154.25q.91-.47,1.8-1l.58-.34c.39-.23.78-.46,1.16-.7l.63-.42c.34-.22.68-.45,1-.69s.42-.3.62-.46.63-.48.93-.73.38-.3.56-.46c.34-.29.66-.58,1-.88l.39-.35c.41-.41.8-.82,1.18-1.24l.41-.49.53-.63,1.16.36c-2.82,4.74-4,9.76,3.7,17.84a9,9,0,0,1-1-.06H588l-.87-.13-.27-.05c-.27,0-.54-.12-.82-.19l-.25-.07c-.35-.1-.7-.21-1-.34l-.16-.07c-.28-.12-.56-.24-.83-.38l-.35-.19-.61-.37-.37-.25c-.19-.13-.37-.28-.55-.43l-.33-.28c-.21-.2-.41-.42-.61-.64l-.15-.16a51.73,51.73,0,0,0-7.27-6.23Z" style="fill:#5e5780;opacity:0.300000011920929;isolation:isolate"/></g></g></g><path d="M560.33,182.68c.3,0,8.8,12.34,8.8,12.34,3.71,4.69,7,3.43,6.84-2.55l-.47-9.08" style="fill:#52a5db"/><path d="M560.33,182.68c.3,0,8.8,12.34,8.8,12.34,3.71,4.69,7,3.43,6.84-2.55l-.47-9.08" style="fill:#52a5db"/><path d="M568.79,194.49a9.6,9.6,0,0,1,7.15-2.66l0,.64c.11,6-3.13,7.24-6.84,2.55h0s-.14-.19-.37-.48A.1.1,0,0,1,568.79,194.49Z" style="fill:#c3ccd3"/><path d="M560.49,182.86c.3,0,8.64,12.16,8.64,12.16,3.71,4.69,7,3.43,6.84-2.55L575.24,182" style="fill:#5e5780;opacity:0.300000011920929;isolation:isolate"/><path d="M543.72,148.1s-7,8.44-4.47,19.36c2.44,10.4,3.47,15.49,13.72,18.25s19-.41,23.16-5.59c4.46-5.58,3.65-12.06,1.23-20.07s-12.25-14.62-12.25-14.62a19,19,0,0,0-13-2.39C547.49,144,543.72,148.1,543.72,148.1Z" style="fill:#52a5db"/><path d="M538.75,161a22.17,22.17,0,0,1,.38-2.78l5,4.06C542.27,162,540.51,161.49,538.75,161Z" style="fill:#5e5780;opacity:0.300000011920929;isolation:isolate"/><path d="M542.12,150.58c.85-1.51,1.94-3.14,2.93-4.62a30.56,30.56,0,0,1,3.33-2.37c2.61,2.56,2.77,5.07,1.1,9.33-2.09,5.37-10.6,7.67-10.7,7.72s0-.14,0-.21A25.13,25.13,0,0,1,542.12,150.58Z" style="fill:#fff"/><g style="clip-path:url(#clip-path-2)"><path d="M538.27,157.68s2.8-2.15,4.72-3.65a63.33,63.33,0,0,1,6.43-4.2" style="fill:#d1d1d1;stroke:#605985;stroke-linecap:round;stroke-linejoin:round;stroke-width:0.736374236302437px"/></g><g style="clip-path:url(#clip-path-2)"><path d="M543.73,160a.39.39,0,0,0,.42-.1.5.5,0,0,0,0-.54,18.27,18.27,0,0,1-2.79-3,8.39,8.39,0,0,1-1.37-4.11.31.31,0,0,0-.45-.29c-.23,0-.37.19-.29.45a10.22,10.22,0,0,0,1.52,4.38,13.47,13.47,0,0,0,2.76,3.07C543.61,159.84,543.66,159.93,543.73,160Z" style="fill:#605985"/></g><g style="clip-path:url(#clip-path-4)"><path d="M547.49,156.94a.38.38,0,0,0,.44-.18c.14-.19,0-.37-.15-.51a12.89,12.89,0,0,1-3.53-3.6,10.68,10.68,0,0,1-1.51-4.15.38.38,0,0,0-.43-.36.37.37,0,0,0-.36.43,11.52,11.52,0,0,0,1.64,4.49,13.22,13.22,0,0,0,3.78,3.77Z" style="fill:#605985"/></g><path d="M543,178.94c.27.16,1.4,12.39,1.4,12.39,1.54,6.13,5.2,6.38,7.71.57l5.28-14.38Z" style="fill:#52a5db"/><path d="M552.05,191.85c-2.5,5.81-6.16,5.61-7.7-.52l-.17-.63.08,0c3.16-1.29,6.56.09,8,.77Z" style="fill:#c3ccd3"/><path d="M576.44,81.37c-32.13-7.42-47.29,6.83-56.13,36.8-.94,3.2-3.68,1.5-3.79,4.32-.67,16.61,17.2,23.57,39.54,30,15.38,4.4,39,6.38,48.61-17.57C612.81,114.64,604.34,87.8,576.44,81.37Z" style="fill:#52a5db"/><path d="M592.77,125.52c4.75-7.18-1.76-26.26-10.19-29.55,0,0-17.84-1.71-12.71,16.36C573.26,119.82,589.52,130.43,592.77,125.52Z" style="fill:#52a5db"/><path d="M575.61,111.45c1.91-.29,6.88,7.83,15.77,15.1-2.92,1-8.58-1.63-13.46-5.33-.35-.34-.7-.69-1.06-1.07C575.61,117.22,574.59,111.6,575.61,111.45Z" style="fill:#5e5780;opacity:0.300000011920929;isolation:isolate"/><path id="SVGID-7" data-name="SVGID" d="M527,100.71c-2.63,3.89-2.69,5.66-6.65,17-1.06,3-2.57-.33-4.13,3.21-2,5-1.53,9.14,5.37,15.31,18,5.47,30.59,2.79,33.77-7C560,114.89,549.5,107,527,100.71Z" style="fill:#e1c8a2"/><path d="M533.21,116.81c-.31,2.45,1.37,1.5,2.79,1.48s3,0,2.56-1.53a2.53,2.53,0,0,0-2.59-1.85A2.64,2.64,0,0,0,533.21,116.81Z" style="fill:#fff;opacity:0.800000011920929;isolation:isolate"/><path d="M530.64,121.69a3.17,3.17,0,0,0,3,4c2,.29,3.18-.29,3.7-2.15s.12-3.73-1.73-3.94C533.15,119.41,531.15,119.83,530.64,121.69Z" style="fill:#2b356a"/><path d="M531.66,121.33a1.56,1.56,0,1,0,1.91-1.09A1.55,1.55,0,0,0,531.66,121.33Z" style="fill:#fff"/><path d="M534.19,123.9a.42.42,0,0,0,.3.53.43.43,0,1,0-.3-.53Z" style="fill:#fff"/><path d="M531,128.5c.36-1.31,2.22-1.93,4.14-1.4s3.2,2,2.84,3.33-2.21,1.93-4.14,1.4S530.62,129.81,531,128.5Z" style="fill:#efa9b5"/><path d="M516.23,120.91c.8-1.83,1.59-1.81,2.32-1.79.27,0,.54.09.82.17,3.65,1,7.91,4.74,6.63,9.07-.89,3-5,4.12-9.24,2.5C514.22,127.47,514.79,124.57,516.23,120.91Z" style="fill:#fff"/><path d="M520,122.29c-.26.92-1.62,1.36-3,1a3.81,3.81,0,0,1-1.26-.62c.16-.56.35-1.14.58-1.72a5.76,5.76,0,0,1,.37-.71,10.89,10.89,0,0,1,1.09.24C519.11,120.84,520.21,121.36,520,122.29Z" style="fill:#2b356a"/><path d="M515.73,120.91c-.12.44.32.92,1,1.11s1.28,0,1.4-.44-.38-.66-1-.85S515.85,120.49,515.73,120.91Z" style="fill:#fff;opacity:0.800000011920929;isolation:isolate"/><path d="M556.38,122.52a115.21,115.21,0,0,0-33.24-13c1.47-4.45,2.07-6.13,3.87-8.8C545.73,105.92,555.84,112.25,556.38,122.52Z" style="fill:#605985;opacity:0.300000011920929;mix-blend-mode:multiply"/><path d="M523.27,109.11c1.38-4.14,2-5.81,3.74-8.4,18.47,5.14,28.56,11.37,29.34,21.4A112.63,112.63,0,0,0,523.27,109.11Z" style="fill:#d1d1d1"/><polygon points="531.48 93.51 524.2 98.36 523.32 109.03 531.46 102.04 531.48 93.51" style="fill:#fff"/><polygon points="531.46 102.04 523.32 109.03 524.2 98.36 531.46 102.04" style="fill:#a0a1c2;opacity:0.23"/><path d="M555.29,172.23c5,11.43,17.31,13.67,26.47,8.84,8.11-4.28,9.37-14.31,7.51-19.56-3.88-10.95-15.77-11.52-21-8.14-4,2.55-8,10.71-3.15,15.85,4.58,4.87,11.25,3.86,12.09,1.87-1.09,3-12.9,5.76-17.66-5.56" style="fill:#52a5db"/><g style="opacity:0.300000011920929;isolation:isolate"><path d="M577.09,171.25a2.09,2.09,0,0,1-.74.7,5.65,5.65,0,0,1-.86.4,10.34,10.34,0,0,1-10.39-3.13c-4.83-5.14-.81-13.3,3.15-15.85a14.36,14.36,0,0,1,12.49-.83C568.94,153.9,565.83,170.12,577.09,171.25Z" style="fill:#2d2c54;opacity:0.86;mix-blend-mode:multiply;isolation:isolate"/><path d="M577.12,171.25h.21a5,5,0,0,1-.43.34A2.25,2.25,0,0,0,577.12,171.25Z" style="fill:#5e5780"/></g><path d="M557.84,168.44c5.25,15.5,16.35,15.2,21,13.93-.61.21-1.22.38-1.81.54-7.84,1.8-16.55-.83-20.8-8.84C555.78,173.25,557.84,168.44,557.84,168.44Z" style="fill:#5e5780;opacity:0.30000000000000004;mix-blend-mode:multiply"/><path d="M546.25,162.3c-8.5-1.89-16-8.33-16-8.33-2.28-2.15-4.11-4.42-2.37-7.07,1.63-2.45,5.23-.81,6.06,0a63.07,63.07,0,0,0,6.3,3.27,21.32,21.32,0,0,0,9.87,1.73" style="fill:#52a5db"/><path d="M527.73,146.94c1.68-2.55,5.38-.85,6.21,0,2,3.26-3.89,6.93-3.89,6.93C528.53,153.13,526.09,149.64,527.73,146.94Z" style="fill:#c0c9d0"/></g><rect x="109.81" y="40.18" width="31.63" height="31.63" style="fill:#ebdeff"/><rect x="97.21" y="29.59" width="31.63" height="31.63" style="fill:none;stroke:#fff;stroke-linecap:round;stroke-linejoin:round;stroke-width:1.8593330921576px"/><rect x="1262.11" y="132.99" width="22.62" height="22.62" style="fill:#ebdeff"/><rect x="1253.1" y="125.42" width="22.62" height="22.62" style="fill:none;stroke:#fff;stroke-linecap:round;stroke-linejoin:round;stroke-width:1.3295849164669px"/><rect x="1249" y="367.93" width="14.15" height="14.15" style="fill:#ebdeff"/><rect x="1243.36" y="363.2" width="14.15" height="14.15" style="fill:none;stroke:#fff;stroke-linecap:round;stroke-linejoin:round;stroke-width:0.83156608220073px"/><rect x="1325.54" y="272.73" width="28.2" height="28.2" style="fill:#ebdeff"/><rect x="1314.31" y="263.29" width="28.2" height="28.2" style="fill:none;stroke:#fff;stroke-linecap:round;stroke-linejoin:round;stroke-width:1.65760978130989px"/><rect x="290.59" y="354.01" width="18.45" height="18.45" style="fill:#dbe1ff"/><rect x="283.24" y="347.84" width="18.45" height="18.45" style="fill:none;stroke:#fff;stroke-linecap:round;stroke-linejoin:round;stroke-width:1.0845641653807px"/><rect x="106" y="237.22" width="23.36" height="23.36" style="fill:#ebdeff"/><rect x="96.69" y="229.39" width="23.36" height="23.36" style="fill:none;stroke:#fff;stroke-linecap:round;stroke-linejoin:round;stroke-width:1.37335835091582px"/><path d="M217.12,244.74l-79.82-52a3.56,3.56,0,0,1,0-6.15l35.17-20.3c7.89-4.12,8.5-11.39-.21-16.82L119,118.92a20.93,20.93,0,0,0-20.67-.16l-2.86,1.48L-63,212.18a8.43,8.43,0,0,0,0,14.59L55.57,298.34a4.57,4.57,0,0,1-.08,8L-131.09,411a3.38,3.38,0,0,0-1.52,4.25h0a3.39,3.39,0,0,0,4.73,1.69L58.67,312.25a11.38,11.38,0,0,0,.19-19.81l-117.56-71a2.26,2.26,0,0,1,0-3.92L97.41,126.93l.7-.41a21.3,21.3,0,0,1,20.84.16l49.34,28.42a3.38,3.38,0,0,1,0,5.85L133,181.33a9.67,9.67,0,0,0,0,16.75l80.76,52.51a3.38,3.38,0,0,0,4.65-1.3h0A3.37,3.37,0,0,0,217.12,244.74Z" style="fill:#e4eaee"/><path id="shadow-3" data-name="shadow" d="M1078.23,247.07c-26,0-47-8.57-47-19.15s21-19.16,47-19.16,47,8.58,47,19.16S1104.19,247.07,1078.23,247.07Z" style="fill:#e4eaee"/><path d="M689.71,321.26c-3.37,1.92-34,27.33-34,27.33a28.62,28.62,0,0,1-28.51-.06h0a25.82,25.82,0,0,0-25.84,0l-242,151.91a2.76,2.76,0,0,0-.92,3.73l.6,1a2.76,2.76,0,0,0,3.87,1l238.5-149.85a25.82,25.82,0,0,1,25.84,0h0a28.62,28.62,0,0,0,28.51.06L694,326.58a3.63,3.63,0,0,0,1.4-5.12C694.47,320,692.43,319.72,689.71,321.26Z" style="fill:#e4eaee"/><path d="M988.22,400.64,960.39,385a31,31,0,0,0-30.62-.22l-4.64,2.59c-12.86,7.75-18.79,6.91-30.63-.21l-49-31.89a3.38,3.38,0,0,0-4.61,1.23h0a3.38,3.38,0,0,0,1.23,4.62l52.35,33.8a31,31,0,0,0,30.62.22l4.64-2.59c12.41-7.7,17.47-7.7,30.63.22l30,18.2,3.37-5.85Z" style="fill:#e4eaee"/><path d="M279.2,273.54l40.9,28.78a29.27,29.27,0,0,0,29.66.1L385,281.88a29.3,29.3,0,0,1,29.38-.05l57.93,33.44a29.27,29.27,0,0,0,28.88.23l81.7-54.86a3.38,3.38,0,0,0,1.31-4.59h0a3.38,3.38,0,0,0-4.6-1.31l-78.35,53a29.3,29.3,0,0,1-28.88-.23l-58-33.49a29.29,29.29,0,0,0-29.39.06l-35.21,20.51a29.32,29.32,0,0,1-29.66-.1l-37.49-26.76Z" style="fill:#e4eaee"/><path d="M990.34,272.4l106.74,68.93a3.56,3.56,0,0,1,0,6.15l-35.17,20.3c-7.89,4.13-8.5,11.39.21,16.82l26.33,13.62a20.93,20.93,0,0,0,20.67.16l2.86-1.48L1270.44,305a8.43,8.43,0,0,0,0-14.59l-166.81-101a4.56,4.56,0,0,1,.07-8L1296.32,72.71a3.39,3.39,0,0,0,1.52-4.26h0a3.39,3.39,0,0,0-4.74-1.68L1100.49,175.42a11.38,11.38,0,0,0-.19,19.81l165.86,100.48a2.27,2.27,0,0,1,0,3.92l-156.11,90.58-.7.41a21.3,21.3,0,0,1-20.84-.16L1066.09,379a3.38,3.38,0,0,1,0-5.85l35.31-20.39a9.67,9.67,0,0,0,0-16.75L993.71,266.55a3.36,3.36,0,0,0-4.64,1.3h0A3.37,3.37,0,0,0,990.34,272.4Z" style="fill:#e4eaee"/><path d="M796.15,386.47,542.32,239.92a7.19,7.19,0,0,1,0-12.46L796.15,80.91a3.59,3.59,0,0,1,3.56,0l255.13,147.31a6.32,6.32,0,0,1,0,10.95L799.71,386.47A3.54,3.54,0,0,1,796.15,386.47Z" style="fill:#e4eaee"/><path d="M269.93,54.71c-3.78,2-22.64,13.33-22.64,13.33a10.14,10.14,0,0,0-.41,17.8l6.33,3.66a3.54,3.54,0,0,1,0,6.14l-35.16,20.3c-7.89,4.13-8.5,11.4.2,16.83L403.92,244.6a20.93,20.93,0,0,0,20.67.16L490.06,208a17.4,17.4,0,0,1,17,0l56.31,31.51,3.3-5.9L507,200.31a17.43,17.43,0,0,0-17,0L424.65,237c-7.44,4.51-13.17,4.06-20.67-.16L222.23,127.18a3.38,3.38,0,0,1,0-5.85L257.54,101a9.68,9.68,0,0,0,0-16.75l-7.41-4.28a3.32,3.32,0,0,1,.13-5.82l23.18-13.6a3.94,3.94,0,0,0,1.68-5.3S273.71,52.75,269.93,54.71Z" style="fill:#e4eaee"/><path d="M252,299.17l-73.6-42.5a3.77,3.77,0,0,1,0-6.54L252,207.64a6,6,0,0,1,6,0l73.84,42.63a3.61,3.61,0,0,1,0,6.26l-73.84,42.64A6.06,6.06,0,0,1,252,299.17Z" style="fill:#e4eaee"/><path d="M369.94,131.12l-155-89.49a8,8,0,0,1,0-13.78l155-89.49a12.69,12.69,0,0,1,12.7,0L538.16,28.15a7.6,7.6,0,0,1,0,13.18L382.64,131.12A12.69,12.69,0,0,1,369.94,131.12Z" style="fill:#e4eaee"/><path d="M535.94,3.09A11.69,11.69,0,0,0,530-7.24L380.61-93.52a11.84,11.84,0,0,0-11.8,0L219.39-7.24a11.67,11.67,0,0,0-5.9,10.33V26.46a11.67,11.67,0,0,0,5.9,10.33l149.43,86.28a11.82,11.82,0,0,0,11.79,0L530,36.79a11.69,11.69,0,0,0,5.9-10.33V3.09Z" style="fill:#a19ff7"/><path d="M368.81-93.52,219.39-7.24a11.79,11.79,0,0,0,0,20.43L368.82,99.46a11.77,11.77,0,0,0,11.79,0L530,13.19a11.79,11.79,0,0,0,0-20.43L380.61-93.52A11.84,11.84,0,0,0,368.81-93.52Zm0,186-144-83.14a7.38,7.38,0,0,1,0-12.79l144-83.14a11.79,11.79,0,0,1,11.8,0L525.08-3.15a7.08,7.08,0,0,1,0,12.25L380.61,92.51A11.82,11.82,0,0,1,368.82,92.51Z" style="fill:#a19ff7"/><path d="M368.82,92.51l-144-83.14a7.38,7.38,0,0,1,0-12.79l144-83.14a11.79,11.79,0,0,1,11.8,0L525.08-3.15a7.08,7.08,0,0,1,0,12.25L380.61,92.51A11.82,11.82,0,0,1,368.82,92.51Z" style="fill:#f6f0ff"/><path d="M511,7.25,379.22,82.82a10.54,10.54,0,0,1-9.53.17L238.08,4.13c-2.54-1.48-2.39-3.95.32-5.52L370.06-76.86a10.54,10.54,0,0,1,9.53-.19L511.34,1.73C513.88,3.2,513.75,5.68,511,7.25Z" style="fill:#f6f0ff;mix-blend-mode:multiply"/><path d="M486.78-14.48l-4.84,8.39c6.47,6.21,5.07,14.3-4.35,19.63l-81,45.76c-11.18,6.32-29.31,6.32-40.48,0l-81-45.76C265.72,8.19,264.35,0,270.92-6.18l-4.78-8.3c-8,.2-13.64-6-13.64-17V-63.78c0-15.27,5.85-31.37,19-39l76.39-43.76c13.17-7.61,23.85-1.4,23.85,13.87v35.86h9.39v-35.86c0-15.27,10.68-21.48,23.84-13.87l76.94,43.44c13.17,7.61,18.48,24,18.48,39.29v32.29c0,11-5.6,17.21-13.64,17Z" style="fill:#f6f0ff;fill-rule:evenodd"/><path d="M272-75.68l86.37,48.37c13.18,7.61,13.44,13.21,13.44,28.48V46c0,6.91-2.44,20.91-15.62,13.31L271.78,11.21C258.61,3.6,252.5-5.57,252.5-20.85V-63.78c0-15.27,8.66-17.54,19.46-11.9Z" style="fill:#d7bdff;fill-rule:evenodd"/><path d="M476.56-73.46l-84,48.31c-11.5,7-11.42,12.42-11.42,27.69V46.27c0,15.27,8.42,17.77,19,11.6L486,10.41c13.17-7.62,14.44-16.58,14.44-31.86V-59.57c0-15.27-10.68-21.49-23.86-13.89Z" style="fill:#ad9ff7;fill-rule:evenodd"/><path d="M1153.78-60l-159,87.91a11.37,11.37,0,0,0-.18,19.8l7.3,4.21a2.27,2.27,0,0,1,0,3.92l-101.34,59,3.39,5.84,102.23-59.52a8.43,8.43,0,0,0,0-14.59l-8.26-4.77a4.56,4.56,0,0,1,.08-7.94l159.1-87.95L1153.78-60Z" style="fill:#e4eaee"/><path d="M1153.78-71l-159,87.9a11.37,11.37,0,0,0-.18,19.8l7.3,4.21a2.27,2.27,0,0,1,0,3.93l-101.34,59,3.39,5.84,102.23-59.52a8.43,8.43,0,0,0,0-14.59l-8.26-4.76a4.57,4.57,0,0,1,.08-7.95l159.1-87.95L1153.78-71Z" style="fill:#d1cfff"/><path d="M255.11,47.85l-14.05,7.28a10.15,10.15,0,0,0-.4,17.8L247,76.59a3.56,3.56,0,0,1,0,6.15L211.83,103c-7.9,4.12-8.5,11.39.2,16.82L397.69,231.7a21,21,0,0,0,20.67.16l66.79-37.39a17.38,17.38,0,0,1,17,0L558.43,226l3.29-5.89-59.6-33.35a17.4,17.4,0,0,0-17,0l-66.73,37.36a20.93,20.93,0,0,1-20.67-.16L216,114.27a3.38,3.38,0,0,1,0-5.85L251.31,88a9.67,9.67,0,0,0,0-16.75L243.91,67a3.32,3.32,0,0,1,.13-5.82l14.57-7.55a3.92,3.92,0,0,0,1.68-5.29S258.89,45.89,255.11,47.85Z" style="fill:#d1cfff"/><path d="M217.21,233l-79.82-52a3.56,3.56,0,0,1,0-6.15l35.17-20.3c7.89-4.13,8.5-11.39-.21-16.82L119.1,107.15A20.93,20.93,0,0,0,98.43,107l-2.86,1.47-158.46,92a8.43,8.43,0,0,0,0,14.59L55.66,286.57a4.57,4.57,0,0,1-.08,7.95L-131,399.18a3.38,3.38,0,0,0-1.52,4.25h0a3.37,3.37,0,0,0,4.73,1.69L58.76,300.47a11.37,11.37,0,0,0,.19-19.8l-117.56-71a2.27,2.27,0,0,1,0-3.92L97.5,115.16l.7-.41a21.28,21.28,0,0,1,20.84.16l49.34,28.41a3.38,3.38,0,0,1,0,5.85l-35.31,20.39a9.67,9.67,0,0,0,0,16.75l80.76,52.51a3.38,3.38,0,0,0,4.65-1.3h0A3.37,3.37,0,0,0,217.21,233Z" style="fill:#d1cfff"/><path d="M331.25,237.93a5.54,5.54,0,0,0-2.78-4.89l-70.64-40.78a5.56,5.56,0,0,0-5.58,0L181.61,233a5.55,5.55,0,0,0-2.79,4.89v11a5.53,5.53,0,0,0,2.79,4.88l70.64,40.78a5.56,5.56,0,0,0,5.58,0l70.64-40.78a5.52,5.52,0,0,0,2.78-4.88v-11Z" style="fill:#a19ff7"/><path d="M252.25,192.26,181.61,233a5.58,5.58,0,0,0,0,9.66l70.64,40.79a5.61,5.61,0,0,0,5.58,0l70.64-40.79a5.58,5.58,0,0,0,0-9.66l-70.64-40.78A5.56,5.56,0,0,0,252.25,192.26Zm0,87.94-68.07-39.3a3.49,3.49,0,0,1,0-6.05l68.07-39.3a5.56,5.56,0,0,1,5.58,0L326.12,235a3.34,3.34,0,0,1,0,5.79L257.83,280.2A5.56,5.56,0,0,1,252.25,280.2Z" style="fill:#a19ff7"/><path d="M252.25,280.2l-68.07-39.3a3.49,3.49,0,0,1,0-6.05l68.07-39.3a5.56,5.56,0,0,1,5.58,0L326.12,235a3.34,3.34,0,0,1,0,5.79L257.83,280.2A5.56,5.56,0,0,1,252.25,280.2Z" style="fill:#f6f0ff"/><path d="M306.92,240.59l-50.17,28.76a4,4,0,0,1-3.62.07l-50.1-30c-1-.56-.91-1.5.12-2.1l50.12-28.73a4,4,0,0,1,3.62-.07l50.15,30C308,239.05,308,240,306.92,240.59Z" style="fill:#ebdeff"/><path d="M1322.25,102.85,1257.37,65.4a3.34,3.34,0,0,1,0-5.77l64.88-37.45a5.3,5.3,0,0,1,5.31,0l65.09,37.58a3.19,3.19,0,0,1,0,5.52l-65.09,37.57A5.3,5.3,0,0,1,1322.25,102.85Z" style="fill:#e4eaee"/><path d="M1392.39,48.41a4.88,4.88,0,0,0-2.46-4.32L1327.38,8a5,5,0,0,0-4.94,0L1259.9,44.09a4.87,4.87,0,0,0-2.47,4.32V58.2a4.86,4.86,0,0,0,2.47,4.32l62.54,36.11a5,5,0,0,0,4.94,0l62.55-36.11a4.87,4.87,0,0,0,2.46-4.32V48.41Z" style="fill:#a19ff7"/><path d="M1322.44,8,1259.9,44.09a4.93,4.93,0,0,0,0,8.55l62.54,36.11a4.9,4.9,0,0,0,4.94,0l62.55-36.11a4.94,4.94,0,0,0,0-8.55L1327.38,8A5,5,0,0,0,1322.44,8Zm0,77.86L1262.17,51a3.09,3.09,0,0,1,0-5.35l60.27-34.8a5,5,0,0,1,4.94,0l60.47,34.91a3,3,0,0,1,0,5.13l-60.47,34.91A5,5,0,0,1,1322.44,85.84Z" style="fill:#a19ff7"/><path d="M1322.44,85.84,1262.17,51a3.09,3.09,0,0,1,0-5.35l60.27-34.8a5,5,0,0,1,4.94,0l60.47,34.91a3,3,0,0,1,0,5.13l-60.47,34.91A5,5,0,0,1,1322.44,85.84Z" style="fill:#f6f0ff"/><path d="M1382,50.16,1326.8,81.78a4.39,4.39,0,0,1-4,.08l-55.09-33c-1.06-.62-1-1.65.13-2.31L1323,15a4.42,4.42,0,0,1,4-.08l55.15,33C1383.16,48.46,1383.11,49.5,1382,50.16Z" style="fill:#f6f0ff;mix-blend-mode:multiply"/><path d="M1371.82,41.06l-2,3.51c2.71,2.6,2.13,6-1.82,8.22l-33.88,19.15c-4.69,2.65-12.27,2.65-16.95,0l-33.89-19.15c-4-2.24-4.53-5.66-1.78-8.26l-2-3.47c-3.37.08-5.71-2.51-5.71-7.12V-26.34c0-6.39,2.45-13.13,8-16.31l32-18.32c5.52-3.18,10-.58,10,5.81v15h3.93v-15c0-6.39,4.47-9,10-5.81l32.2,18.19c5.52,3.18,7.74,10.05,7.74,16.44V33.94c0,4.61-2.35,7.2-5.71,7.12Z" style="fill:#f6f0ff;fill-rule:evenodd"/><path d="M1281.9-31.32l36.15,20.25c5.52,3.18,5.63,5.53,5.63,11.92V66.37c0,2.89-1,8.75-6.54,5.57l-35.31-20.12c-5.52-3.19-8.07-7-8.07-13.43V-26.34c0-6.39,3.62-7.34,8.14-5Z" style="fill:#d7bdff;fill-rule:evenodd"/><path d="M1367.54-30.39l-35.15,20.22c-4.81,2.92-4.78,5.2-4.78,11.59V66.49c0,6.39,3.52,7.44,8,4.85l35.9-19.86c5.52-3.19,6-6.94,6-13.34V-24.58c0-6.39-4.47-9-10-5.81Z" style="fill:#ad9ff7;fill-rule:evenodd"/><path d="M796.26,74.26,548.88,217.08a11.59,11.59,0,0,0,0,20.08L796.26,380a3.4,3.4,0,0,0,3.38,0h0l248.9-143.71a10.58,10.58,0,0,0,0-18.32L799.64,74.26A3.35,3.35,0,0,0,796.26,74.26Zm0,297.93L555.25,233a6.83,6.83,0,0,1,0-11.84l241-139.14a3.35,3.35,0,0,1,3.38,0l242.25,139.86a6,6,0,0,1,0,10.4L799.64,372.19A3.4,3.4,0,0,1,796.26,372.19Z" style="fill:#9db1fc"/><path d="M1053.82,207.83a10.46,10.46,0,0,0-5.28-9.25L799.64,54.87a3.4,3.4,0,0,0-3.38,0L548.88,197.7a11.48,11.48,0,0,0-5.79,10.13V227a11.5,11.5,0,0,0,5.79,10.14L796.26,380a3.4,3.4,0,0,0,3.38,0l248.9-143.71a10.46,10.46,0,0,0,5.28-9.25v-19.2Z" style="fill:#a19ff7"/><path d="M796.26,352.8l-241-139.15a6.83,6.83,0,0,1,0-11.83l241-139.15a3.4,3.4,0,0,1,3.38,0l242.25,139.87a6,6,0,0,1,0,10.4L799.64,352.8A3.35,3.35,0,0,1,796.26,352.8Z" style="fill:#f6f0ff"/><path d="M796.26,352.8l-241-139.15a6.83,6.83,0,0,1,0-11.83l241-139.15a3.4,3.4,0,0,1,3.38,0l242.25,139.87a6,6,0,0,1,0,10.4L799.64,352.8A3.35,3.35,0,0,1,796.26,352.8Z" style="fill:#f6f0ff"/><path d="M1023.25,214.78,806.31,339.14c-4.46,2.58-11.5,2.71-15.68.29L574,209.63c-4.17-2.42-3.93-6.49.52-9.07L791.24,76.34c4.46-2.58,11.49-2.72,15.67-.31L1023.75,205.7C1027.94,208.12,1027.71,212.19,1023.25,214.78Z" style="fill:#f6f0ff;mix-blend-mode:multiply"/><path d="M828.11-70.65l117,66.11c16.15,9.14,16.15,23.94,0,33.07L820.3,98.58c-16.16,9.12-25.59,9-41.74-.1L649,26.17c-12-6.87-9.87-19.93-1.63-27L769.62-70.65c16.15-9.14,42.33-9.14,58.49,0Z" style="fill:#dbe1ff;fill-rule:evenodd"/><path d="M958.36,199.87l-7,12.11c9.34,9,7.33,20.66-6.28,28.36l-117,66.12c-16.16,9.13-42.34,9.13-58.49,0l-117-66.12c-13.67-7.73-15.65-19.52-6.15-28.49l-6.91-12c-11.62.27-19.71-8.67-19.71-24.58V55.43c0-22.06,8.45-45.32,27.49-56.31L757.73-64.11c19-11,34.47-2,34.47,20V7.75h13.56V-44.06c0-22.06,15.43-31,34.45-20L951.36-1.33c19,11,26.71,34.7,26.71,56.76V175.29c0,15.91-8.1,24.85-19.71,24.58Z" style="fill:#f6f0ff;fill-rule:evenodd"/><path d="M648,38.24l124.78,69.89c19,11,19.43,19.08,19.43,41.15V287.22c0,10-3.54,30.23-22.58,19.24L647.73,237c-19-11-27.86-24.25-27.86-46.33V55.43c0-22.06,12.51-25.34,28.12-17.19Z" style="fill:#d7bdff;fill-rule:evenodd"/><path d="M943.6,41.45,822.26,111.24c-16.61,10.09-16.5,18-16.5,40V287.64c0,22.06,12.17,25.67,27.51,16.76L957.2,235.82c19-11,20.87-23.95,20.87-46V61.51c0-22.07-15.43-31-34.47-20.06Z" style="fill:#ad9ff7;fill-rule:evenodd"/><path d="M828.11-70.65l117,66.11c16.15,9.14,16.15,23.94,0,33.07L820.3,98.58c-16.16,9.12-25.59,9-41.74-.1L649,26.17c-12-6.87-9.87-19.93-1.63-27L769.62-70.65c16.15-9.14,42.33-9.14,58.49,0Z" style="fill:#ebdeff;fill-rule:evenodd"/><path d="M780.56-63.88,677.42-4.36a18.76,18.76,0,0,0,.14,32.57L780.83,86.65a36.74,36.74,0,0,0,36.18,0l95.58-54.1a23.79,23.79,0,0,0,.18-41.32L817.28-63.88A36.72,36.72,0,0,0,780.56-63.88ZM683,1.21l97.61-56.33a36.77,36.77,0,0,1,36.72,0L906.93-3.38a17.54,17.54,0,0,1-.13,30.45L817,77.89a36.74,36.74,0,0,1-36.18,0L683,22.55A12.29,12.29,0,0,1,683,1.21Z" style="fill:#fff"/><g style="opacity:0.6000000000000001"><path d="M652.38,67.87,652.3,94,675,107.12c0,14.43-10.26,20.25-22.81,13s-22.7-24.82-22.66-39.25S639.82,60.63,652.38,67.87Z" style="fill:#7e5dd1"/><path d="M656.47,66.55c11.57,6.69,20.92,22.88,20.88,36.18l-21-12.1Z" style="fill:#7e5dd1"/></g><path d="M757.36,173.22l-49-28.28v-4.42l49,28.27,0,4.43m-35.12-11.41v-4.42l18.59,10.73,0,4.42-18.58-10.73m19.88-27.51v4.43l-18.47-10.66,0-4.43,18.46,10.66m34.62,10.19v4.43l-51.3-29.62v-4.43l51.3,29.62m0,8.86,0,4.43L747.48,140.9v-4.42l29.23,16.87m0,8.86v4.42l-57.32-33.1v-4.42l57.32,33.1m0,8.85,0,4.43-34-19.63,0-4.43,34,19.63m0,8.86v4.42l-13.73-7.92V172l13.73,7.93m0,8.85,0,4.43-31-17.87,0-4.43,31,17.87" style="fill:#7e5dd1;opacity:0.6000000000000001"/><path d="M922.23,133c-.11,11-4.24,23-10.79,33.57a77,77,0,0,1-11.17,14.15,56.05,56.05,0,0,1-12.33,9.42,32.17,32.17,0,0,1-12,4.06,20.41,20.41,0,0,1-2.19.13,18.11,18.11,0,0,1-6.66-1.15c-7.75-3-12.62-11.59-12.43-24.3.33-22,15.68-47.6,34.29-57.1S922.46,111.81,922.23,133Z" style="fill:#ccbae8"/><path d="M922.23,133c-.11,11-4.24,23-10.79,33.57a77,77,0,0,1-11.17,14.15c-3.83,3.81-7.49,11.93-11.83,14.32s-20.57.23-21.19,0a26.4,26.4,0,0,1-4.65-2.92c-4.93-4.21-8.1-13.36-8-23.23.33-22,15.68-47.6,34.29-57.1,9.31-4.76,17.69-4.76,23.71-.92S922.35,122.42,922.23,133Z" style="fill:#acd5f4"/><path d="M926.25,134.28c0,10.75-4,22.65-10.36,33.11a76.81,76.81,0,0,1-10.95,14.07,56.5,56.5,0,0,1-12.14,9.45,32.52,32.52,0,0,1-11.88,4.19c-.74.09-1.46.15-2.18.17a18.11,18.11,0,0,1-6.62-1c-7.72-2.81-12.65-11.15-12.59-23.63.11-21.64,15.08-47,33.45-56.62S926.25,113.44,926.25,134.28Z" style="fill:#cde7f9"/><path d="M926.25,134.28c0,10.75-4,22.65-10.36,33.11a76.81,76.81,0,0,1-10.95,14.07,56.5,56.5,0,0,1-12.14,9.45,32.52,32.52,0,0,1-11.88,4.19c-.74.09-1.46.15-2.18.17a18.11,18.11,0,0,1-6.62-1c-7.72-2.81-12.65-11.15-12.59-23.63.11-21.64,15.08-47,33.45-56.62S926.25,113.44,926.25,134.28Z" style="fill:#d1f0ff"/><path d="M916.93,152.93c1.11-5.11-2.71-6.24-2.91-13.79l-6.85-2.93a7.85,7.85,0,0,0,1,4.93l-3,2-7.9,5.29h0l-5.81,3.92h0l-11.2,7.53-2,1.34-2.46,1.66s3.57,6.07-1.41,22.2h0c-.58,1.89-2.24,5.62-3.55,8.64.42.19.85.37,1.3.53a18.11,18.11,0,0,0,6.62,1c.72,0,1.44-.08,2.18-.17a32.52,32.52,0,0,0,11.88-4.19,56.5,56.5,0,0,0,12.14-9.45,74.8,74.8,0,0,0,8.19-9.86C911.94,165.41,915.86,157.76,916.93,152.93Z" style="fill:#46105b"/><path d="M903.5,169.23l-.13-7.28-15.6,9-2.91,1.28-.79,5.52-1.53,10.86-.78,5.54-.18.9a32.94,32.94,0,0,0,11.22-4.09,54.89,54.89,0,0,0,10.92-8.26l-.22-13.34h0Z" style="fill:#ffb1df"/><path d="M882.54,188.56l-.78,5.54-.18.9a25.72,25.72,0,0,0,3.19-.69,40.77,40.77,0,0,0,14.53-24.8l-16.07,14.17Z" style="fill:#d35eaf"/><path d="M878.55,138.52s-2.46,12.76-5.84,27.41c-2.32,10,2.62,20.42,10.52,17.75,6.89-2.34,17.14-10.12,22.59-27.72,0,0,7.81-11.8,3.24-11.5l1.22-17.65Z" style="fill:#ffb1df"/><path d="M883.2,174.15c1.4.19,4.28-.2,6.48-5.74.2-.51-.08-.92-.43-.61l-6,5.32C882.9,173.43,882.87,174.1,883.2,174.15Z" style="fill:#fff"/><path d="M893.74,157.09a3,3,0,0,1-1.52,2.27c-.77.33-1.32-.15-1.24-1.07A2.93,2.93,0,0,1,892.5,156C893.26,155.69,893.82,156.17,893.74,157.09Z" style="fill:#d35eaf"/><path d="M880.47,162.1a2.94,2.94,0,0,1-1.53,2.27c-.76.33-1.31-.15-1.24-1.08a3,3,0,0,1,1.53-2.28C880,160.68,880.55,161.17,880.47,162.1Z" style="fill:#d35eaf"/><path d="M914.19,141.28c-.21-1.53-.07-1.8-.36-4.8-1.64-17.52-10.32-16.09-10.32-16.09-22.61,2.39-28,24.23-29.26,32.09-.25,1.59.61,2.52,1.88,2,8-3.25,13-9.69,15.71-14.36,1.27-2.17,3.43-2.88,4.12-1.34,3.46,7.63,9.12,10.35,9.12,10.35s2.32-4.85,4.27-4.7C912.1,144.66,914.19,141.28,914.19,141.28Z" style="fill:#46105b"/><path d="M885.2,158.65a18.21,18.21,0,0,1-2,5.8c-1.19,2.05-.34,2.87,1.26,2.35s1.89-1.44,1.89-1.44" style="fill:none;stroke:#d35eaf;stroke-linecap:round;stroke-linejoin:round;stroke-width:0.7114222217886px"/><path d="M891.36,152.55a4.42,4.42,0,0,1,3-1.43,4.36,4.36,0,0,1,2.13.53" style="fill:none;stroke:#d35eaf;stroke-linecap:round;stroke-linejoin:round;stroke-width:1.13351655058466px"/><path d="M881.71,156.29a1,1,0,0,0-1.38-.26,7.25,7.25,0,0,0-2.74,2.29" style="fill:none;stroke:#d35eaf;stroke-linecap:round;stroke-linejoin:round;stroke-width:1.13351655058466px"/><path d="M891,156.7a3.6,3.6,0,0,1,1.91-1.45,1.57,1.57,0,0,1,1.73.87" style="fill:none;stroke:#d35eaf;stroke-linecap:round;stroke-linejoin:round;stroke-width:0.56675827529233px"/><path d="M880.71,160.23s-.43-.7-1.51-.09a6.16,6.16,0,0,0-1.88,2.32" style="fill:none;stroke:#d35eaf;stroke-linecap:round;stroke-linejoin:round;stroke-width:0.5819036369897px"/><path d="M926.09,134.87c-.12,11-4.27,23.16-10.86,33.79A77.58,77.58,0,0,1,904,182.9a56.77,56.77,0,0,1-12.41,9.48,32.45,32.45,0,0,1-12.08,4.09c-.75.08-1.48.12-2.21.13a18.12,18.12,0,0,1-6.7-1.16c-7.8-3-12.7-11.67-12.51-24.46.33-22.18,15.78-47.9,34.51-57.47S926.31,113.5,926.09,134.87Z" style="fill:none;stroke:#acd5f4;stroke-miterlimit:10;stroke-width:2.12332755516467px"/><path d="M926.09,134.87c-.12,11-4.27,23.16-10.86,33.79A77.58,77.58,0,0,1,904,182.9a56.77,56.77,0,0,1-12.41,9.48,32.45,32.45,0,0,1-12.08,4.09c-.75.08-1.48.12-2.21.13a18.12,18.12,0,0,1-6.7-1.16c-7.8-3-12.7-11.67-12.51-24.46.33-22.18,15.78-47.9,34.51-57.47S926.31,113.5,926.09,134.87Z" style="fill:none;stroke:#acd5f4;stroke-miterlimit:10;stroke-width:2.12332755516467px"/><g style="isolation:isolate"><path d="M924.19,184.66a1.8,1.8,0,0,0-1.82.17L858.65,222a5.73,5.73,0,0,0-2.56,4.44l0,10a1.8,1.8,0,0,0,.75,1.64l3,.81a1.78,1.78,0,0,1-.76-1.64l0-10a5.71,5.71,0,0,1,2.56-4.43l63.72-37.14a1.8,1.8,0,0,1,1.82-.16Z" style="fill:#e5e5e5"/><path d="M925.32,185.64c1.4-.8,2.58-.14,2.58,1.47l0,10a5.73,5.73,0,0,1-2.56,4.44L861.64,238.7c-1.4.81-2.58.14-2.58-1.47l0-10a5.7,5.7,0,0,1,2.57-4.43Z" style="fill:#fff"/></g><path d="M871,221.48v8.06l-1.41.86-2.7-3.5,0,0v5.17l-1.39.85v-8.18l1.4-.83,2.7,3.53,0,0V222.3Z" style="fill:#46105b"/><path d="M876.15,225.06l-2.54,1.55-.36,1.55-1.44.89,2.28-9.39,1.59-.95,2.27,6.55-1.45.9Zm-.39-1.19-.86-2.65,0,0L874,225Z" style="fill:#46105b"/><path d="M885.93,212.63v7.72l-1.35.83v-4.59l0,0-1.79,5.7-.82.5-1.79-3.55,0,0v4.65l-1.36.84v-7.88l1.47-.87,2.09,4.08,0,0,2.1-6.58Z" style="fill:#46105b"/><path d="M888.76,212.44v1.86l2.43-1.47v1.44l-2.43,1.47v1.38l2.72-1.67v1.48l-4.11,2.53v-7.69l4.11-2.43v1.47Z" style="fill:#46105b"/><g style="isolation:isolate"><path d="M924.24,208.31a1.8,1.8,0,0,0-1.82.17L858.7,245.61a5.73,5.73,0,0,0-2.56,4.44l0,10a1.78,1.78,0,0,0,.75,1.63l3,.82a1.78,1.78,0,0,1-.76-1.64l0-10a5.72,5.72,0,0,1,2.57-4.44l63.71-37.13a1.82,1.82,0,0,1,1.83-.17Z" style="fill:#e5e5e5"/><path d="M925.37,209.29c1.4-.81,2.58-.14,2.58,1.47l0,10a5.73,5.73,0,0,1-2.56,4.44l-63.72,37.13c-1.4.81-2.58.14-2.58-1.47l0-10a5.72,5.72,0,0,1,2.57-4.44Z" style="fill:#fff"/></g><path d="M867.61,251.45l-1.5-.1c-.22,0-.36-.14-.39-.43a1.5,1.5,0,0,1,.31-1,1,1,0,0,1,.81-.52l1.38.09a.74.74,0,0,0,.15,0v-.63c0-.46,0-.91,0-1.37a1.63,1.63,0,0,1,.77-1.35c.42-.23.71,0,.71.48s0,1.29,0,2l.49-.6c.36-.45.71-.92,1.08-1.35s1-.56,1.08,0a1.56,1.56,0,0,1-.41,1.09l-1.49,1.88,1.48.06c.31,0,.47.25.42.62-.08.67-.63,1.31-1.13,1.31s-.84,0-1.26,0h-.25c0,.11,0,.18,0,.25,0,.59,0,1.18,0,1.77a1.68,1.68,0,0,1-.74,1.34c-.42.28-.74.12-.74-.39s0-1.15,0-1.73v-.32L867,254.2a2,2,0,0,1-.72.69.4.4,0,0,1-.6-.29,1.59,1.59,0,0,1,.34-1.14l1.35-1.73C867.46,251.65,867.52,251.56,867.61,251.45Z" style="fill:#46105b"/><path d="M878.27,245.08l-1.5-.1c-.22,0-.36-.14-.39-.43a1.52,1.52,0,0,1,.31-1,1,1,0,0,1,.81-.52l1.38.1H879v-.63c0-.46,0-.91,0-1.37a1.65,1.65,0,0,1,.77-1.35c.42-.23.71,0,.71.48s0,1.29,0,2l.49-.61c.36-.45.71-.91,1.08-1.35s1-.56,1.08,0a1.56,1.56,0,0,1-.41,1.09l-1.49,1.88,1.48.07c.31,0,.47.24.42.61-.08.67-.63,1.32-1.13,1.32l-1.26,0h-.25c0,.11,0,.19,0,.26,0,.58,0,1.17,0,1.76a1.68,1.68,0,0,1-.74,1.34c-.42.28-.74.12-.74-.39s0-1.15,0-1.73v-.32l-1.33,1.71a2,2,0,0,1-.72.69.4.4,0,0,1-.6-.29,1.59,1.59,0,0,1,.34-1.14l1.35-1.73Z" style="fill:#46105b"/><path d="M888.93,239l-1.49-.1a.41.41,0,0,1-.4-.43,1.56,1.56,0,0,1,.31-1,1,1,0,0,1,.81-.52l1.38.09h.15v-2a1.64,1.64,0,0,1,.77-1.34c.42-.24.71,0,.71.48s0,1.29,0,2l.49-.6c.36-.45.71-.92,1.08-1.36s1-.55,1.08,0a1.54,1.54,0,0,1-.41,1.08c-.49.61-1,1.23-1.49,1.89l1.48.06c.31,0,.47.25.42.62-.08.67-.63,1.31-1.13,1.31s-.84,0-1.25,0h-.26c0,.11,0,.18,0,.25,0,.59,0,1.18,0,1.77a1.71,1.71,0,0,1-.74,1.34c-.42.27-.74.12-.74-.4s0-1.14,0-1.72V240l-1.33,1.71a2,2,0,0,1-.72.69c-.3.11-.53,0-.59-.29a1.54,1.54,0,0,1,.33-1.14l1.35-1.74Z" style="fill:#46105b"/><path d="M899.59,232.89l-1.49-.1c-.23,0-.37-.14-.39-.43a1.46,1.46,0,0,1,.31-1,1,1,0,0,1,.8-.52c.46,0,.92.07,1.38.09a.74.74,0,0,0,.15,0v-2a1.68,1.68,0,0,1,.77-1.35c.42-.23.71,0,.72.48s0,1.29,0,2l.49-.61c.36-.45.71-.92,1.08-1.35.49-.58,1-.56,1.08,0a1.56,1.56,0,0,1-.41,1.09l-1.49,1.88,1.48.06c.31,0,.47.25.42.62-.08.67-.63,1.31-1.13,1.31s-.84,0-1.25,0h-.26c0,.11,0,.19,0,.26,0,.58,0,1.17,0,1.76a1.68,1.68,0,0,1-.74,1.34c-.41.28-.73.12-.74-.39s0-1.15,0-1.73v-.32L899,235.64a2,2,0,0,1-.72.69c-.3.11-.53,0-.59-.29a1.54,1.54,0,0,1,.33-1.14l1.35-1.73Z" style="fill:#46105b"/><path d="M910.25,226.53l-1.49-.1a.41.41,0,0,1-.39-.43,1.45,1.45,0,0,1,.31-1,1,1,0,0,1,.8-.52l1.38.09H911v-.63c0-.46,0-.92,0-1.38a1.61,1.61,0,0,1,.77-1.34c.41-.24.7,0,.71.48s0,1.29,0,2l.49-.6c.36-.45.71-.92,1.08-1.36s1-.55,1.08,0a1.54,1.54,0,0,1-.41,1.08l-1.49,1.89,1.48.06c.31,0,.47.25.42.62-.08.67-.63,1.31-1.13,1.31s-.84,0-1.25,0h-.25c0,.11,0,.18,0,.25,0,.59,0,1.18,0,1.77a1.73,1.73,0,0,1-.73,1.34c-.42.27-.74.12-.75-.4s0-1.15,0-1.72v-.32l-1.33,1.71a2,2,0,0,1-.72.69c-.3.11-.53,0-.59-.29a1.54,1.54,0,0,1,.33-1.14c.45-.59.9-1.16,1.35-1.74Z" style="fill:#46105b"/><path d="M770.75,237.48a7.92,7.92,0,0,1,3.59,6.21c0,2.28-1.62,3.21-3.61,2.06a7,7,0,0,1-2.16-2.08L759.25,246a6.17,6.17,0,0,1,.18,1.39c0,2.28-1.63,3.2-3.61,2a7.6,7.6,0,0,1-2.91-3.39l-8.38-1.63c0,2.35-1.62,3.27-3.61,2.13a6.76,6.76,0,0,1-1.68-1.46l-10,5.55a6.18,6.18,0,0,1,.39,2.11c0,2.28-1.62,3.21-3.61,2.06a7.91,7.91,0,0,1-3.58-6.21c0-2.29,1.62-3.21,3.61-2.06A6.37,6.37,0,0,1,727.7,248l10-5.55a6.25,6.25,0,0,1-.4-2.12c0-2.28,1.63-3.2,3.61-2.05a7.67,7.67,0,0,1,2.91,3.39l8.38,1.63c0-2.35,1.62-3.27,3.61-2.12a6.87,6.87,0,0,1,2.16,2.08l9.32-2.28a5.64,5.64,0,0,1-.18-1.39C767.15,237.25,768.77,236.33,770.75,237.48Z" style="fill:#7e5dd1"/><path d="M658.4,107.88l1.36.6.34.15q.66.28,1.32.54h0l.06,0,.88.33.3.12.62.22.35.12.58.2.35.12.6.19.31.1.73.22.17,0,.89.25.25.06.49.13.1,0c.41.11.83.21,1.24.3l.27.06,1.07.23.24,0,1.21.22.27,0c.35.06.71.12,1.05.16l.14,0h0l1.19.15.27,0,1.12.1h.06l1.16.08h.26l1.12,0h.08l1.15,0h1.54l1.1,0h.11l1-.07H684l1.19-.11.16,0,1.12-.13.16,0c.37,0,.72-.1,1.07-.15l.16,0,1-.18H689l.16,0,.37-.07.25-.06.36-.07.24,0,.37-.09.22,0,.39-.09.17,0,.54-.14.08,0,.44-.11.18-.06.32-.09.19,0,.29-.09.08,0,.08,0,.43-.14.12,0,.49-.17.11,0,.37-.12.12,0,.42-.15h0l.37-.14.1,0,.3-.12.06,0,.32-.13.07,0,.23-.09,0,0,0,0,.09,0,.1,0,.07,0,.09,0,.07,0,.08,0,.05,0,.08,0,0,0,.07,0h0l.05,0,0,0,0,0,.06.09v0l.08.12,0,0,.08.13.05.08.08.13.07.09.1.16.07.11.11.17.09.14.12.18.1.15.13.21.07.11.05.07.08.11c.05.09.11.18.17.27l.06.09.25.37.07.1.21.31.08.13.23.34.07.1.3.44.09.12.25.36.1.15.28.41.07.1q.18.24.36.51l.1.15c.1.13.19.26.28.4l.13.17.35.49,0,.07.41.57.12.17a2,2,0,0,0,.17.23l.09.13c.13.18.26.37.4.55l.17.24.59.8,0,0,.57.77.21.27c.14.2.29.39.44.59l.22.3.48.62.2.26c.23.3.46.59.69.9l0,0,.66.85.23.29.52.65.13.17.13.17.44.54c.09.12.19.23.29.35l.46.57.27.33.58.71.17.2.77.92.2.24.58.68.29.34.52.6.31.36.51.58.33.38.51.57.21.24.13.13.57.64.3.33.76.83.12.13.9,1,.27.29.64.67.35.36.58.6.37.38c.2.2.39.4.59.59l.37.37.63.63.33.33.82.79.14.14h0l.25.24.63.6.34.31.54.51.38.35.52.47.4.36.51.45.41.36.51.45.41.36.51.43.43.36.51.43.43.35.51.42.43.35.52.41.44.34.53.41.43.33.54.41.43.32.56.41.42.3.59.42.39.27.67.46.32.22,1,.66.49,40.84c0,.51,0,1,0,1.51,0,.15,0,.31,0,.46,0,.35,0,.69,0,1l0,.49c0,.34,0,.68-.08,1l0,.41c0,.45-.09.91-.15,1.35l0,.17c-.05.39-.11.77-.17,1.14,0,.14,0,.28-.07.41-.05.3-.11.59-.17.88s0,.28-.08.42l-.21.9c0,.1,0,.21-.08.31-.1.39-.21.78-.32,1.16,0,.08-.05.15-.07.23-.09.3-.19.6-.29.89,0,.12-.08.24-.13.36l-.27.74c-.05.12-.09.24-.14.35-.11.28-.22.54-.34.81a2.14,2.14,0,0,1-.1.22c-.15.33-.3.66-.46,1l-.13.24c-.12.24-.25.47-.37.7l-.18.31c-.12.21-.24.42-.37.63l-.17.28-.48.73-.09.13-.58.81-.18.22c-.14.19-.29.38-.44.56a2.75,2.75,0,0,1-.22.26c-.14.18-.29.35-.45.52s-.13.15-.2.23l-.63.66,0,0-.68.66-.22.2-.5.44-.24.21-.52.42-.21.18-.74.55-.08.06-.68.47-.25.16-.53.35-.27.16c-11,6.76-25.46,5.06-26.67,4.92-2-2-40.24-40-40.68-76Z" style="fill:#4e38a8"/><path d="M668.07,102.06c.45.22.91.42,1.36.61l.34.15q.66.29,1.32.54h0l.07,0,.86.33.31.11.62.23.35.12.58.2.35.12.6.19.31.1.73.21.17.06.89.24.25.07.58.15,1.25.3.27.06,1.07.22.24,0,1.21.22.27,0,1,.16.19,0,1.18.14.28,0,1.12.11H686l1.15.08h.27l1.11.05h.09l1.14,0h.2l1.12,0h.23l1.1-.05h.11l1-.07h.16l1.18-.11.16,0,1.13-.14.16,0,1.07-.16.16,0,1-.18.22,0,.37-.08.26,0,.36-.08L700,106l.37-.08.22,0,.39-.1.17,0,.54-.14.08,0,.44-.12.18,0,.32-.09.19-.06.29-.08.16,0,.43-.14.11,0,.5-.16.11,0,.37-.13.12,0a4.09,4.09,0,0,0,.42-.16h0l.37-.14.1,0,.3-.12.06,0,.32-.13.07,0,.22-.1.08,0,.08,0,.11,0,.07,0,.09,0,.07,0,.08,0,0,0,.08,0,0,0,.07,0h0l0,0h0l.05,0,.09.15,0,.07,0,.07.07.1,0,.09.08.12.07.11.09.15.07.1.12.18.08.13.13.19.09.14.15.22a1.74,1.74,0,0,0,.11.18l.07.11.18.26.06.1.25.37.06.08c.07.11.14.22.22.33l.08.13.24.34.06.09.31.45.07.11.26.38.09.13.29.42.07.09.36.52.1.14.28.41.12.16.35.49.06.08.41.57.11.16.27.37.39.54.18.25.59.8,0,0c.19.26.39.52.58.79l.2.27.45.59.23.3.47.62c.07.08.13.17.2.26l.69.89.05.06.66.85.23.29.51.65.27.33.44.55.28.35.48.58.26.32c.19.23.38.47.58.7l.17.21.77.92.19.23.59.69.29.34.51.59.33.37.49.57.34.39.51.56c.11.13.22.26.34.38l.56.63c.11.11.21.23.31.34.24.27.5.54.75.81l.13.15c.3.32.59.64.89.95l.28.3c.21.22.43.44.64.67l.35.36.58.6.37.38.59.59.37.37.63.62.33.33.82.79a1.21,1.21,0,0,0,.16.16l.24.23.64.6.33.32.55.51.38.34.52.48.39.35.52.46.41.36.5.45.42.35.51.44.42.36.52.42.42.36.52.42.43.34.53.42.43.34.53.41.43.33.54.41c.15.1.29.21.43.32l.56.4.42.31.59.41.39.28.66.46.33.22,1,.66.49,40.83c.17,14.27-5.66,22.18-12.88,26.53l-9.67,5.81.17-.11.27-.16.53-.35.25-.16.68-.47.08-.06.74-.55.21-.18.52-.42.24-.21.5-.44.22-.2.68-.66,0,0,.63-.66c.07-.08.14-.15.2-.23s.31-.34.45-.52a2.75,2.75,0,0,0,.22-.26c.15-.18.3-.37.44-.56l.18-.22.58-.81.09-.13.48-.73.17-.28c.13-.21.25-.42.37-.63l.18-.31c.12-.23.25-.46.37-.7l.13-.24c.16-.32.31-.65.46-1a2.14,2.14,0,0,0,.1-.22c.12-.27.23-.53.34-.81,0-.11.09-.23.14-.35l.27-.74c0-.12.09-.24.13-.36.1-.29.2-.59.29-.89,0-.08.05-.15.07-.23.11-.38.22-.77.32-1.16,0-.1.05-.21.08-.31l.21-.9c0-.14.06-.28.08-.42s.12-.58.17-.88c0-.13,0-.27.07-.41.06-.37.12-.75.17-1.14l0-.17c.06-.44.11-.9.15-1.35l0-.41c0-.33.06-.67.08-1l0-.49c0-.34,0-.68,0-1,0-.15,0-.31,0-.46,0-.5,0-1,0-1.51l-.49-40.84-1-.66-.32-.22-.67-.46-.39-.27-.59-.42-.42-.3-.56-.41-.43-.32-.54-.41-.43-.33-.53-.41-.44-.34-.52-.41-.43-.35-.51-.42-.43-.35-.51-.43-.43-.36-.51-.43-.41-.36-.51-.45-.41-.36-.51-.45-.4-.36-.52-.47-.38-.35-.54-.51-.34-.31-.63-.6-.25-.24h0l-.14-.14-.82-.79-.33-.33-.63-.63-.37-.37c-.2-.19-.39-.39-.59-.59l-.37-.38-.58-.6-.35-.36-.64-.67-.27-.29-.9-1-.12-.13-.76-.83-.3-.33-.57-.64-.13-.13-.21-.24-.51-.57-.33-.38-.51-.58-.31-.36-.52-.6-.29-.34-.58-.68-.2-.24-.77-.92-.17-.2-.58-.71-.27-.33-.46-.57c-.1-.12-.2-.23-.29-.35l-.44-.54-.13-.17-.13-.17-.52-.65-.23-.29-.66-.85,0,0c-.23-.31-.46-.6-.69-.9l-.2-.26-.48-.62-.22-.3c-.15-.2-.3-.39-.44-.59l-.21-.27-.57-.77,0,0-.59-.8-.17-.24c-.14-.18-.27-.37-.4-.55l-.09-.13a2,2,0,0,1-.17-.23l-.12-.17-.41-.57,0-.07-.35-.49-.13-.17c-.09-.14-.18-.27-.28-.4l-.1-.15q-.18-.27-.36-.51l-.07-.1-.28-.41-.1-.15-.25-.36-.09-.12-.3-.44-.07-.1-.23-.34-.08-.13-.21-.31L700,112l-.25-.37-.06-.09c-.06-.09-.12-.18-.17-.27l-.08-.11-.05-.07-.07-.11-.13-.21-.1-.15-.12-.18-.09-.14-.11-.17-.07-.11-.1-.16-.07-.09-.08-.13-.05-.08-.08-.13,0,0-.08-.12v0l-.06-.09,0,0,0,0-.05,0h0l-.07,0,0,0-.08,0-.05,0-.08,0-.07,0-.09,0-.07,0-.1,0-.09,0,0,0,0,0-.23.09-.07,0-.32.13-.06,0-.3.12-.1,0-.37.14h0l-.42.15-.12,0-.37.12-.11,0-.49.17-.12,0-.43.14-.08,0-.08,0-.29.09-.19,0-.32.09-.18.06-.44.11-.08,0-.54.14-.17,0-.39.09-.22,0-.37.09-.24,0-.36.07-.25.06-.37.07-.16,0h-.06l-1,.18-.16,0c-.35,0-.7.11-1.07.15l-.16,0-1.12.13-.16,0-1.19.11h-.16l-1,.07h-.11l-1.1,0h-1.54l-1.15,0h-.08l-1.12,0h-.26l-1.16-.08h-.06l-1.12-.1-.27,0-1.19-.15h0l-.14,0c-.34,0-.7-.1-1.05-.16l-.27,0-1.21-.22-.24,0-1.07-.23-.27-.06c-.41-.09-.83-.19-1.24-.3l-.1,0-.49-.13-.25-.06-.89-.25-.17,0-.73-.22-.31-.1-.6-.19-.35-.12-.58-.2-.35-.12-.62-.22-.3-.12-.88-.33-.06,0h0q-.66-.26-1.32-.54l-.34-.15-1.36-.6Z" style="fill:#765acc"/><path d="M727.91,155.74l.38,31c.07,6.14-1.44,11.23-4.48,15.1A22.19,22.19,0,0,1,713.22,209a38.29,38.29,0,0,1-10.63,1.89c-1.78.08-3.23,0-4.18,0a164,164,0,0,1-17.47-22.13C674,178.06,667.73,165.12,667.55,153v-.11l-.38-31a45.63,45.63,0,0,0,4.6,1.51,42.87,42.87,0,0,0,25.58-.7c.45.66,1,1.38,1.53,2.18.15.22.31.43.46.66,1.13,1.57,2.47,3.38,4,5.34.27.35.53.69.82,1s.55.71.84,1.06c1.28,1.62,2.69,3.32,4.17,5s3.07,3.47,4.72,5.22l1.13,1.16A101.89,101.89,0,0,0,727.91,155.74Z" style="fill:#fff"/><path d="M727.91,155.74l.38,31c.07,6.14-1.44,11.23-4.48,15.1A22.19,22.19,0,0,1,713.22,209a38.29,38.29,0,0,1-10.63,1.89,171.2,171.2,0,0,1-16.48-21.22c-7.25-11.14-13.81-24.66-14-37.35v-.11l-.34-28.81a42.87,42.87,0,0,0,25.58-.7c.45.66,1,1.38,1.53,2.18.15.22.31.43.46.66,1.13,1.57,2.47,3.38,4,5.34.27.35.53.69.82,1s.55.71.84,1.06c1.28,1.62,2.69,3.32,4.17,5s3.07,3.47,4.72,5.22l1.13,1.16A101.89,101.89,0,0,0,727.91,155.74Z" style="fill:#5840cc"/><path d="M699.19,170.54l29.09,16.61c0,6-1.5,10.92-4.47,14.7A22.19,22.19,0,0,1,713.22,209a38.29,38.29,0,0,1-10.63,1.89L700,208Z" style="fill:#e9d21b"/><path d="M699.23,170.56l-26.82-14.09a39.35,39.35,0,0,1-.3-4.17v-.11l-.34-28.81a42.87,42.87,0,0,0,25.58-.7" style="fill:#e9d21b;fill-rule:evenodd"/><g style="opacity:0.6000000000000001"><path d="M756.15,225.8a5.47,5.47,0,0,1,2.49,4.3l.19,50.24c0,1.58-1.13,2.22-2.51,1.43L755,281a5.44,5.44,0,0,1-2.48-4.3l-.19-50.24c0-1.58,1.12-2.22,2.5-1.42Z" style="fill:#7e5dd1"/><path d="M742.15,238.76a5.49,5.49,0,0,1,2.48,4.3l.25,29.23c0,1.58-1.13,2.22-2.5,1.42l-1.3-.74a5.49,5.49,0,0,1-2.48-4.31l-.25-29.22c0-1.59,1.12-2.22,2.5-1.42Z" style="fill:#7e5dd1"/><path d="M727,223.62a5.51,5.51,0,0,1,2.49,4.31l.23,35.58c0,1.59-1.13,2.23-2.5,1.43l-1.32-.76a5.48,5.48,0,0,1-2.49-4.31l-.23-35.58c0-1.58,1.12-2.23,2.51-1.43Z" style="fill:#7e5dd1"/><path d="M770,264.42a5.5,5.5,0,0,1,2.48,4.31l.28,19.65c0,1.59-1.13,2.23-2.5,1.43l-1.3-.75a5.48,5.48,0,0,1-2.49-4.31l-.27-19.64c0-1.59,1.12-2.23,2.5-1.44Z" style="fill:#7e5dd1"/></g><g style="opacity:0.6000000000000001"><path d="M637.78,210.63a4.56,4.56,0,0,0,2,3.55l31.23,18c2.16,1.24,3.92.22,3.93-2.27l0-14.63L637.83,194Z" style="fill:#7e5dd1"/><path d="M675,208.12a4.54,4.54,0,0,0-2-3.54l-17.45-10.07a2.9,2.9,0,0,1-1.09-1.28l-2-4.36a2.87,2.87,0,0,0-1.09-1.29L641.77,182c-2.15-1.24-3.91-.22-3.92,2.26l0,7.68L675,213.34Z" style="fill:#7e5dd1"/></g><g style="opacity:0.6000000000000001"><path d="M635.25,149.23c1.39.81,2.53.16,2.53-1.45a5.52,5.52,0,0,0-2.52-4.36c-1.39-.81-2.53-.16-2.53,1.44a5.52,5.52,0,0,0,2.52,4.37" style="fill:#7e5dd1"/><path d="M635.27,140.23c1.4.81,2.53.16,2.54-1.44a5.56,5.56,0,0,0-2.52-4.37c-1.4-.81-2.53-.16-2.54,1.45a5.57,5.57,0,0,0,2.52,4.36" style="fill:#7e5dd1"/><path d="M635.22,158.23c1.4.81,2.53.16,2.54-1.44a5.56,5.56,0,0,0-2.52-4.37c-1.4-.81-2.54-.16-2.54,1.44a5.57,5.57,0,0,0,2.52,4.37" style="fill:#7e5dd1"/><path d="M635.3,131.23c1.4.81,2.53.16,2.53-1.45a5.53,5.53,0,0,0-2.52-4.36c-1.39-.81-2.53-.16-2.53,1.44a5.54,5.54,0,0,0,2.52,4.37" style="fill:#7e5dd1"/></g><path d="M688.16,307.12c-3.37,1.92-34,27.32-34,27.32a28.6,28.6,0,0,1-28.51-.05h0a25.82,25.82,0,0,0-25.84,0l-242,151.91a2.78,2.78,0,0,0-.93,3.73l.61,1.05a2.77,2.77,0,0,0,3.87,1l238.5-149.85a25.82,25.82,0,0,1,25.84,0h0a28.6,28.6,0,0,0,28.51.05l38.35-29.79a3.62,3.62,0,0,0,1.39-5.12C692.91,305.86,690.88,305.57,688.16,307.12Z" style="fill:#d1cfff"/><path d="M989.2,388.5l-27.82-15.63a31,31,0,0,0-30.63-.22l-4.64,2.59c-12.85,7.75-18.79,6.91-30.62-.21l-49-31.89a3.39,3.39,0,0,0-4.62,1.23h0a3.38,3.38,0,0,0,1.24,4.62l52.34,33.81a31,31,0,0,0,30.63.21l4.64-2.59c12.4-7.7,17.47-7.7,30.62.22l37.44,21,3.37-5.85Z" style="fill:#d1cfff"/><path d="M988.37,260.1,1095.11,329a3.55,3.55,0,0,1,0,6.15L1060,355.48c-7.89,4.12-8.5,11.39.2,16.82l26.33,13.62a21,21,0,0,0,20.67.16l2.86-1.48,158.46-91.94a8.43,8.43,0,0,0,0-14.59L1101.63,177a4.56,4.56,0,0,1,.08-7.94l175.58-98.67a3.37,3.37,0,0,0,1.51-4.25h0a3.38,3.38,0,0,0-4.73-1.69l-175.55,98.65a11.37,11.37,0,0,0-.18,19.8l165.85,100.49a2.27,2.27,0,0,1,0,3.92L1108.09,377.9l-.71.41a21.25,21.25,0,0,1-20.84-.16l-22.41-11.44a3.38,3.38,0,0,1,0-5.85l35.31-20.38a9.67,9.67,0,0,0,0-16.75L991.75,254.25a3.38,3.38,0,0,0-4.65,1.3h0A3.38,3.38,0,0,0,988.37,260.1Z" style="fill:#d1cfff"/><path d="M293.76,271.22l27.33,19a29.27,29.27,0,0,0,29.66.1L386,269.75a29.29,29.29,0,0,1,29.39-.06l57.92,33.44a29.29,29.29,0,0,0,28.89.23l81.69-54.86a3.37,3.37,0,0,0,1.31-4.59h0a3.37,3.37,0,0,0-4.59-1.31l-78.35,53a29.29,29.29,0,0,1-28.88-.23l-58-33.49a29.28,29.28,0,0,0-29.38.06l-35.21,20.51a29.32,29.32,0,0,1-29.66-.1L297.2,265.41a3.38,3.38,0,0,0-4.66,1.23h0A3.38,3.38,0,0,0,293.76,271.22Z" style="fill:#d1cfff"/><path d="M1134.06,461.52a9.58,9.58,0,0,0-4.82-8.46L1007,382.46a9.67,9.67,0,0,0-9.65,0L875,453.06a9.59,9.59,0,0,0-4.83,8.46v19.12A9.59,9.59,0,0,0,875,489.1l122.28,70.6a9.67,9.67,0,0,0,9.65,0l122.28-70.6a9.58,9.58,0,0,0,4.82-8.46V461.52Z" style="fill:#a19ff7"/><path d="M997.31,382.46,875,453.06a9.65,9.65,0,0,0,0,16.72l122.28,70.6a9.62,9.62,0,0,0,9.65,0l122.28-70.6a9.66,9.66,0,0,0,0-16.72L1007,382.46A9.67,9.67,0,0,0,997.31,382.46Zm0,152.23-117.84-68a6,6,0,0,1,0-10.47l117.84-68a9.62,9.62,0,0,1,9.65,0l118.22,68.25a5.79,5.79,0,0,1,0,10L1007,534.69A9.67,9.67,0,0,1,997.31,534.69Z" style="fill:#a19ff7"/><path d="M997.31,534.69l-117.84-68a6,6,0,0,1,0-10.47l117.84-68a9.62,9.62,0,0,1,9.65,0l118.22,68.25a5.79,5.79,0,0,1,0,10L1007,534.69A9.67,9.67,0,0,1,997.31,534.69Z" style="fill:#f6f0ff"/><path d="M1113.68,464.93l-107.86,61.83a8.62,8.62,0,0,1-7.8.14l-107.7-64.53c-2.07-1.21-2-3.23.26-4.52l107.75-61.76a8.63,8.63,0,0,1,7.79-.15l107.81,64.47C1116,461.61,1115.91,463.64,1113.68,464.93Z" style="fill:#ebdeff"/><path d="M292.54,510.52a9,9,0,0,0-4.56-8L172.32,435.75a9.13,9.13,0,0,0-9.13,0L47.54,502.53a9,9,0,0,0-4.56,8v18.09a9.05,9.05,0,0,0,4.56,8l115.65,66.77a9.15,9.15,0,0,0,9.14,0L288,536.61a9.05,9.05,0,0,0,4.56-8V510.52Z" style="fill:#a19ff7"/><path d="M163.19,435.75,47.54,502.53a9.12,9.12,0,0,0,0,15.81l115.65,66.77a9.1,9.1,0,0,0,9.14,0L288,518.34a9.12,9.12,0,0,0,0-15.81L172.32,435.75A9.13,9.13,0,0,0,163.19,435.75Zm0,144L51.74,515.39a5.72,5.72,0,0,1,0-9.91l111.45-64.34a9.13,9.13,0,0,1,9.13,0l111.82,64.55a5.47,5.47,0,0,1,0,9.48L172.33,579.73A9.15,9.15,0,0,1,163.19,579.73Z" style="fill:#a19ff7"/><path d="M163.19,579.73,51.74,515.39a5.72,5.72,0,0,1,0-9.91l111.45-64.34a9.13,9.13,0,0,1,9.13,0l111.82,64.55a5.47,5.47,0,0,1,0,9.48L172.33,579.73A9.15,9.15,0,0,1,163.19,579.73Z" style="fill:#eef2ff"/><path d="M273.27,513.75l-102,58.48a8.11,8.11,0,0,1-7.38.13L62,511.33c-2-1.14-1.85-3.06.24-4.27l101.91-58.42a8.15,8.15,0,0,1,7.37-.14l102,61C275.47,510.61,275.37,512.53,273.27,513.75Z" style="fill:#f6f0ff;mix-blend-mode:multiply"/><path d="M184.72,341.22l62.67,35.42c8.65,4.89,8.65,12.82,0,17.72l-66.85,37.52c-8.66,4.88-13.71,4.83-22.36-.05L88.77,393.09c-6.42-3.68-5.29-10.68-.88-14.49l65.5-37.38c8.65-4.89,22.68-4.89,31.33,0Z" style="fill:#dbe1ff;fill-rule:evenodd"/><path d="M254.49,496.93l-3.74,6.49c5,4.8,3.92,11.06-3.36,15.19L184.72,554c-8.65,4.89-22.68,4.89-31.33,0L90.72,518.61c-7.32-4.14-8.38-10.46-3.29-15.26l-3.7-6.42c-6.22.15-10.56-4.64-10.56-13.17v-75c0-11.82,4.53-24.28,14.72-30.17L147,344.73c10.2-5.88,18.46-1.08,18.46,10.74v77.76h7.27V355.47c0-11.82,8.26-16.62,18.45-10.74l59.54,33.63c10.2,5.88,14.31,18.59,14.31,30.41v75c0,8.53-4.34,13.32-10.56,13.17Z" style="fill:#f6f0ff;fill-rule:evenodd"/><path d="M88.23,399.56,155.08,437c10.2,5.89,10.4,10.23,10.4,22.05v84.68c0,5.35-1.89,16.19-12.09,10.31l-65.3-37.22c-10.19-5.89-14.92-13-14.92-24.81V408.77c0-11.82,6.7-13.58,15.06-9.21Z" style="fill:#d7bdff;fill-rule:evenodd"/><path d="M246.59,401.27l-65,37.39c-8.9,5.41-8.84,9.62-8.84,21.43V544c0,11.81,6.52,13.75,14.73,9l66.39-36.73c10.2-5.9,11.18-12.83,11.18-24.66V412c0-11.82-8.26-16.63-18.46-10.75Z" style="fill:#ad9ff7;fill-rule:evenodd"/><path d="M184.72,341.22l62.67,35.42c8.65,4.89,8.65,12.82,0,17.72l-66.85,37.52c-8.66,4.88-13.71,4.83-22.36-.05L88.77,393.09c-6.42-3.68-5.29-10.68-.88-14.49l65.5-37.38c8.65-4.89,22.68-4.89,31.33,0Z" style="fill:#ebdeff;fill-rule:evenodd"/><path d="M159.81,346,107.12,376.4a9.58,9.58,0,0,0,.07,16.64L160,422.9a18.78,18.78,0,0,0,18.48,0l48.83-27.64a12.15,12.15,0,0,0,.09-21.11L178.57,346A18.77,18.77,0,0,0,159.81,346Zm-49.87,33.26,49.87-28.78a18.77,18.77,0,0,1,18.76,0l45.8,26.43a9,9,0,0,1-.06,15.56l-45.88,26a18.73,18.73,0,0,1-18.48,0l-50-28.27A6.27,6.27,0,0,1,109.94,379.25Z" style="fill:#fff"/><path d="M1277.44,65.42a1.81,1.81,0,0,0,2.59-.5,13.85,13.85,0,0,1,7-5.72,4.77,4.77,0,0,0,2.37-7.08l-.12-.16a3.69,3.69,0,0,0-2.12-1.45c-6.15-1.45-12.17,5.91-14.49,9.17a1.81,1.81,0,0,0,.4,2.51Z" style="fill:#2d7992"/><path d="M1250.27,15.29c-14.56,0-26.75,11.3-29.94,26.48a37.29,37.29,0,0,0-.52,10.91c.52,6.26,1.55,22.69-.06,36.8a75.22,75.22,0,0,1-1.19,7.65,15.26,15.26,0,0,1-1,3.19,16.21,16.21,0,0,1-19.9,9c-2.73-.91-5.12-1.83-7.73-2.52-.46-.16-.89-.29-1.27-.4-1.26-.37-2.5-.68-2.56-.7l-.16,0c-.41-.09-10.06-2-16.22,5.3-5.15,6.08-3.94,12.08-2.42,14.67a4,4,0,0,0,3.4,1.94,3.81,3.81,0,0,0,1-.15,3.93,3.93,0,0,0,2.89-3.83s.09-4.44,2.83-6.91c1.74-1.57,4.39-2.17,7.88-1.77l.73.08a33,33,0,0,1,4.52,1.61l20.34,8.72a26.46,26.46,0,0,0,10.42,2.13H1225c25.14,0,44.54-19.07,52.32-48a91.77,91.77,0,0,0,2.26-10.56,119.4,119.4,0,0,0,1.5-19.18C1281,30.68,1267.26,15.29,1250.27,15.29Z" style="fill:#4dc7c0"/><path d="M1239,72.23a1.8,1.8,0,0,0,2.59-.5,13.85,13.85,0,0,1,7-5.72,4.77,4.77,0,0,0,2.38-7.08l-.13-.16a3.69,3.69,0,0,0-2.12-1.45c-6.14-1.45-12.16,5.91-14.48,9.17a1.8,1.8,0,0,0,.39,2.51Z" style="fill:#4dc7c0"/><path d="M1226.91,40.61c-.76,3.58-.3,10.52,0,14.18.53,6.25,3.5,22.39,1.89,36.5-.29,2.66-.69,5.24-1.19,7.65a15.57,15.57,0,0,1-1,3.18,16.21,16.21,0,0,1-19.91,9c-1-.35-2.17-.69-3.33-1a16.29,16.29,0,0,0,14.19-9.78,15.26,15.26,0,0,0,1-3.19,75.22,75.22,0,0,0,1.19-7.65c1.61-14.11.58-30.54.06-36.8a37.29,37.29,0,0,1,.52-10.91c3.19-15.18,15.38-26.48,29.94-26.48a27.82,27.82,0,0,1,9.91,1.85c-.29,0-.57-.05-.86-.05C1244.76,17.09,1230.1,25.43,1226.91,40.61Z" style="fill:#45b0b5"/><polygon points="1263.3 27.83 1263.31 27.82 1263.29 27.84 1263.3 27.83" style="fill:#f8f0ff"/><polygon points="1248.83 27.83 1248.84 27.82 1248.82 27.84 1248.83 27.83" style="fill:#f8f0ff"/><path d="M1266.22,20.3c5.19,5.84,8.4,8.91,9.17,26.76a117.17,117.17,0,0,1-1,20.45,91.77,91.77,0,0,1-2.26,10.56c-7.78,29-31,47.57-56.2,47.57h-3.62c-.19,0-.38,0-.57,0a26.4,26.4,0,0,0,9.62,1.84H1225c25.14,0,44.54-19.07,52.32-48a91.77,91.77,0,0,0,2.26-10.56,119.4,119.4,0,0,0,1.5-19.18C1281,37.21,1275.1,26.32,1266.22,20.3Z" style="fill:#45b0b5"/><path d="M1259.87,53.74a4.52,4.52,0,0,1-4.4-1.46,4.23,4.23,0,0,1-1-2.81c0-3.54,4.26-6.93,9-7,5.53,0,8.65,1.82,8.65,5.54,0,1.84-1,2.86-2.29,2.93-1.63.08-2.52-1.49-5-1.14S1262.59,53.13,1259.87,53.74Z" style="fill:#fff"/><path d="M1259.87,53.74a4.52,4.52,0,0,1-4.4-1.46,4.23,4.23,0,0,1-1-2.81c0-3.54,4.26-6.93,9-7,5.53,0,8.65,1.82,8.65,5.54,0,1.84-1,2.86-2.29,2.93-1.63.08-2.52-1.49-5-1.14S1262.59,53.13,1259.87,53.74Z" style="fill:none;stroke:#2d7992;stroke-miterlimit:10;stroke-width:1.085991653819324px"/><path d="M1239,72.23a1.8,1.8,0,0,0,2.59-.5,13.85,13.85,0,0,1,7-5.72,4.77,4.77,0,0,0,2.38-7.08l-.13-.16a3.69,3.69,0,0,0-2.12-1.45c-6.14-1.45-12.16,5.91-14.48,9.17a1.8,1.8,0,0,0,.39,2.51Z" style="fill:#4dc7c0"/><path d="M1250.94,58.93l-.13-.16a3.09,3.09,0,0,0-.84-.85s3.18,4.82-2.45,7a14.42,14.42,0,0,0-7,5.72,6.12,6.12,0,0,1-1.54,1.55,1.8,1.8,0,0,0,2.59-.5,13.85,13.85,0,0,1,7-5.72A4.77,4.77,0,0,0,1250.94,58.93Z" style="fill:#2d7992"/><path d="M1249.85,57.83a3.45,3.45,0,0,0-1.16-.51c-6.14-1.45-12.16,5.91-14.48,9.17a1.81,1.81,0,0,0,.11,2.26C1236.92,65.13,1243.2,57.51,1249.85,57.83Z" style="fill:#5cede5"/><path d="M1244,31.69s-3.81,1.25-2.1,6.56,4.51,3.91,4.51,3.91,9.05-4.78,15.25-5.86c9.81-1.71,9.4-.52,11.44-.21,1.29.19,2.23-1.43,1.25-4.19-1.36-3.84-1.59-4.19-2.21-4.7-1.22-1-3.59-2.16-13.32-.74A39.41,39.41,0,0,0,1244,31.69Z" style="fill:#545472"/><path d="M1272.1,27.2c-1.22-1-3.59-2.16-13.32-.74-.67.1-1.33.21-2,.34,4.73-.11,6.48-.11,10.35,5.73a15,15,0,0,0,2.71,2.88,17.56,17.56,0,0,1,3.19.68c1.29.19,2.23-1.43,1.25-4.19C1273,28.06,1272.72,27.71,1272.1,27.2Z" style="fill:#343449;opacity:0.7000000000000001"/><path d="M1197.31,16.09c-1.48,2.35-1.14,4.14-.59,5.22,2.47,4.86,14.21,5.48,15.54,5.53a1.15,1.15,0,0,0,1-.53v0a1.17,1.17,0,0,0,.06-1.17c-.61-1.18-6.12-11.54-11.54-11.79-1.18-.05-2.9.35-4.38,2.58Z" style="fill:#9ad9e8"/><path d="M1195.85,35a2.76,2.76,0,0,0,1.6,2.46c2.83,1.19,8.21-2.84,8.81-3.31a.64.64,0,0,0,.26-.59v0a.66.66,0,0,0-.39-.52c-.69-.29-6.82-2.73-9.29-.85a2.81,2.81,0,0,0-1,2.71Z" style="fill:#9ad9e8"/><path d="M1048.21,224.8l1.6-4.62c1-3.21,2.66-5.07,6.12-4.26,1.64.38,2.51,2.14,3.17,3.11a.82.82,0,0,0,1,.29,5,5,0,0,1,5.07,0c2.71,1.25,3.55,4.47,2.64,7.54l-1.27,4.29a1.2,1.2,0,0,1-1.41.94L1050,227c-.52-.17-1-.39-1-.39A1.37,1.37,0,0,1,1048.21,224.8Z" style="fill:#e6af29"/><path d="M1064.63,223.51a1.28,1.28,0,1,1,1.62-.79A1.28,1.28,0,0,1,1064.63,223.51Z" style="fill:#efcb7c"/><path d="M1061.9,223a.69.69,0,0,1-.43-.89.7.7,0,0,1,.89-.43.7.7,0,0,1,.43.89A.69.69,0,0,1,1061.9,223Z" style="fill:#efcb7c"/><path d="M1049,226.56a1.37,1.37,0,0,1-.78-1.76l.53-1.53a58.32,58.32,0,0,0,7.87,3.49,46.32,46.32,0,0,0,10.54,2.36l-.6,2a1.2,1.2,0,0,1-1.41.94L1050,226.93Z" style="fill:#15181a;opacity:0.340000003576279;isolation:isolate"/><path d="M1073.82,125.54s-12.23-8.44-15.38-11.61c-2.78-2.8-9.77-9.12-10.85-10-1.3-1-3.52-3.46-4.83,2-3.78,15.89,1.76,30.21,6.82,37.13,6.41,8.8,9.58,12.37,18.56,6.84S1075.7,127.34,1073.82,125.54Z" style="fill:#d85b65"/><path d="M1075.27,233.13a1.2,1.2,0,0,1-1.16-1.36,52.79,52.79,0,0,1,.16-6.09c.29-2.77.74-3.51,1.31-4a3.43,3.43,0,0,1,4.4-.18,13.14,13.14,0,0,1,1.73,1.5c.54.54,1.64-.56,1.64-.56,2.2-1.79,3.21-2.84,6.75-2.44s5.85,3.36,6,6.84l.16,4.88a1.34,1.34,0,0,1-1.28,1.45Z" style="fill:#e6af29"/><path d="M1083.82,230.77a79.91,79.91,0,0,0,12.35-.86l.06,1.77a1.34,1.34,0,0,1-1.28,1.45h-19.68a1.2,1.2,0,0,1-1.16-1.36s0-.66,0-1.63A89.75,89.75,0,0,0,1083.82,230.77Z" style="fill:#15181a;opacity:0.340000003576279;isolation:isolate"/><path d="M1076.86,181.46s-1.64,11.92,1.75,41.2" style="fill:none;stroke:#fc6a70;stroke-linecap:round;stroke-miterlimit:10;stroke-width:3.30387411214149px"/><path d="M1066.58,178.94s-5.24,10.83-11.07,39.73" style="fill:none;stroke:#fc6a70;stroke-linecap:round;stroke-miterlimit:10;stroke-width:3.30387411214149px"/><path d="M1041.33,160.45c.85.57,6.8,2.55,9.16,2.27a36.16,36.16,0,0,1,1.6-9.35c6.42-22.18,25.11-35.87,44.47-30.3s20.48,24.45,13.78,46.63a32,32,0,0,1-15.48,18.79,27.29,27.29,0,0,1-18.22,2.92c-12.09-1.88-20.2-8.11-25-15.67C1044.92,171.78,1039.45,159.23,1041.33,160.45Z" style="fill:#fc6a70"/><path d="M1113.17,157.71c-1.42-1.13-10.2-8.3-10.29-16.89-.09-4.91.75-9.82,2.74-13.22C1113.64,134,1115.25,144.88,1113.17,157.71Z" style="fill:#fff"/><g style="clip-path:url(#clip-path-5)"><line x1="1114.21" y1="151.96" x2="1102.6" y2="132.61" style="fill:none;stroke:#2e376e;stroke-linecap:round;stroke-linejoin:round;stroke-width:1.51846056120524px"/><line x1="1107.79" y1="151.11" x2="1114.49" y2="146.01" style="fill:none;stroke:#2e376e;stroke-linecap:round;stroke-linejoin:round;stroke-width:1.51846056120524px"/><line x1="1103.73" y1="144.97" x2="1113.64" y2="137.7" style="fill:none;stroke:#2e376e;stroke-linecap:round;stroke-linejoin:round;stroke-width:1.51846056120524px"/></g><path d="M1074.94,131.25a1.3,1.3,0,0,1,.55-.06C1076.1,131.36,1075.84,131.32,1074.94,131.25Z" style="fill:#161a1c;opacity:0.24"/><path d="M1062.87,133.59a4.06,4.06,0,0,1-.94-2.38c.17-1.22,2.46-.81,6.15,0a46.23,46.23,0,0,1,6.86,0,12.32,12.32,0,0,0-2.24,1c2,.42,4.17.84,6.52,1.15,9.87,1.34,17.65.58,17.32,2.91s-8.69,7.22-18.56,5.88a24.83,24.83,0,0,1-9.88-3.29,4.64,4.64,0,0,0-4.25-.36,5.91,5.91,0,0,0-1.66.85,5.51,5.51,0,0,1-4.89,1.63A45,45,0,0,1,1062.87,133.59Z" style="fill:#15181a;opacity:0.15;isolation:isolate"/><path d="M1070.77,131.34c2.07,2.57-11.63-12.8-29.55-8.86,4.92,2.07,6.5,3.45,8.17,5.91.59.89,3.16,2.86,5.72,2.26C1057.57,129.87,1069.88,130.16,1070.77,131.34Z" style="fill:#fc6a70"/><path d="M1067,130.46a4.22,4.22,0,0,0-1.38-1.28c-.1-.1-.2-.2-.3-.2s-.1-.1-.2-.1a36.86,36.86,0,0,1-6.2-4.63,29.2,29.2,0,0,0-5.22-1.67,8.35,8.35,0,0,0-.69,5.71,9.15,9.15,0,0,0,1.48,2.36c.19,0,.29-.09.49-.09,1.77-.5,8-.5,12-.1Z" style="opacity:0.200000002980232;isolation:isolate"/><path d="M1074.12,129.67c3.15.89-16.85-3.74-29.26,9.85,5.22-1.08,9.16-.89,10.05-.2s4.23.79,5.91-1.28C1062.59,136.17,1072.74,129.28,1074.12,129.67Z" style="fill:#fc6a70"/><path d="M1059.54,133a21,21,0,0,0,7.39.39c1-.59,1.87-1.28,2.75-1.77-.78.2-.49-.89-1.47-.89a2.91,2.91,0,0,1-2-1,38.56,38.56,0,0,0-10.15,2.26A34.73,34.73,0,0,0,1059.54,133Z" style="opacity:0.200000002980232;isolation:isolate"/><path d="M1129.2,115l3-2a.91.91,0,0,0-.13-1.55l-4.14-2.2a.82.82,0,0,0-1.19.28L1124,113a1,1,0,0,0,.52,1.52l3.4.84A1.93,1.93,0,0,0,1129.2,115Z" style="fill:#f9d643"/><path d="M1127.75,117.39l2.78.55a.44.44,0,0,0,.38-.61l-1.93-2.22c-.06-.21-.25-.24-.45-.17l-2,.53a.37.37,0,0,0-.2.64l1,1.11C1127.37,117.33,1127.56,117.36,1127.75,117.39Z" style="fill:#b09a3d"/><path d="M1124.51,114.38a.92.92,0,0,1-.7-1l4.62.37,4.15-2a1,1,0,0,1-.27,1.11l-3,2.09a1.46,1.46,0,0,1-1.29.26Z" style="fill:#b09a3d"/><path d="M1055.71,114c.9,21.48,22.46,28.82,42.16,24.77s36.51-19.2,29.08-39.35c-7.83-21.17-25.16-34.52-43.37-30.8S1054.81,91.34,1055.71,114Z" style="fill:#fc6a70"/><path d="M1114.78,79.6A53.26,53.26,0,0,1,1127,99.49c4.39,11.81.34,22-7.61,29.07-11.49,1.28-20.35-1.88-22.77-13.47C1093.85,101.82,1101,82.8,1114.78,79.6Z" style="fill:#fff"/><g style="opacity:0.400000005960465"><path d="M1115.71,84.44a15.91,15.91,0,0,1,2.93-.38,57.89,57.89,0,0,1,4.59,7.06,48.5,48.5,0,0,0-5.41.93,70.1,70.1,0,0,0-20.66,7.63c.07-.46.23-.82.3-1.29A26.92,26.92,0,0,1,1115.71,84.44Z" style="fill:#161a1c"/></g><path d="M1114.8,79.51a50.49,50.49,0,0,1,7.71,10.15,36.43,36.43,0,0,0-4.7.67,52.71,52.71,0,0,0-20.54,9.27C1099.58,90.13,1105.85,81.59,1114.8,79.51Z" style="fill:#c5c5c5"/><polygon points="1112.93 104.91 1113.21 106.8 1114.69 105.6 1112.93 104.91" style="fill:#f45e63"/><path d="M1117.5,105.65c-1.71-.77-3.44-.94-4.22.77a3.4,3.4,0,0,0,6.19,2.8C1120.25,107.52,1119.21,106.43,1117.5,105.65Z" style="fill:#2e376e"/><path d="M1117.51,107.61a.55.55,0,0,0,.38.07,2.4,2.4,0,0,0,.71-.2c.13,0,.21-.22.29-.39a.78.78,0,0,0-.45-.61.61.61,0,0,0-.38-.08,2.74,2.74,0,0,0-.71.2c-.13.05-.21.22-.28.39a.78.78,0,0,0,.44.62Z" style="fill:#fff"/><path d="M1118.12,107c.09,0,.17.08.13.17s-.16.13-.37.14l-.17-.08a.34.34,0,0,1-.14-.17c0-.08.17-.13.38-.14l.17.08m.43-.94a1.14,1.14,0,0,0-.56-.15,1.39,1.39,0,0,0-1.43,1.11,1.2,1.2,0,0,0,.72,1.15,1.13,1.13,0,0,0,.55.15,1.4,1.4,0,0,0,1.44-1.11,1.22,1.22,0,0,0-.72-1.15Z" style="fill:#fff"/><path d="M1116.43,109.09l.17.07a.93.93,0,0,0,.33,0h0l-.08,0-.17-.08a1.09,1.09,0,0,0-.34.06h0Z" style="fill:#fff"/><path d="M1117,108.51a.64.64,0,0,1,.44.62.71.71,0,0,1-.87.54c-.08,0-.29,0-.38-.07a.63.63,0,0,1-.44-.62.71.71,0,0,1,.86-.54,1,1,0,0,1,.39.07Z" style="fill:#fff"/><path d="M1114.71,108.52a1,1,0,0,1,.77-1l-.09,0a1.29,1.29,0,0,0-1.39,1,1.18,1.18,0,0,0,1.22,1.18c.09,0,.21,0,.3,0A1.06,1.06,0,0,1,1114.71,108.52Z" style="fill:#fff"/><path d="M1115.39,107.48a1.14,1.14,0,0,0-.76,1,1.2,1.2,0,0,0,.63,1.11l.09,0c-.09,0-.21,0-.3,0a1.13,1.13,0,0,1-.55-.15,1.09,1.09,0,0,1,.64-2.09l.25.12Z" style="fill:#fff"/><ellipse cx="1115.19" cy="114.86" rx="5" ry="3.02" transform="translate(-0.44 225.37) rotate(-11.54)" style="fill:#efa8b4"/><polygon points="1118.08 83.39 1113.08 80.09 1109.61 74.93 1116.23 76.01 1118.08 83.39" style="fill:#fff"/><polygon points="1115.58 76.48 1113 79.98 1109.99 75.57 1115.58 76.48" style="fill:#9e9fc0;opacity:0.449999988079071;isolation:isolate"/><path d="M1121.51,92.27a2,2,0,0,1-.33-.91l2.08-.43s.42-.22,1.47,1.58c.29.53.53.85,2,1.48.26.14.47.08.51.37a.42.42,0,0,1-.34.33c-2.46-.12-4.35-.9-5.44-2.42Z" style="fill:#f0eacc"/><path d="M1119.23,92.76a2,2,0,0,1-.28-.62c0-.09,0-.29.16-.36l3-.56,0,.09c.3,1.67,1.46,2.82,3.57,3.35a.36.36,0,0,1,.26.14c.08.11.07.2-.23.25-3,.28-5.17-.55-6.42-2.29Z" style="fill:#f0eacc"/><path d="M1121,91.42s.41-.12.7-.17a6.94,6.94,0,0,0,3.22,3.11,7.54,7.54,0,0,1-3.5-2A1.4,1.4,0,0,1,1121,91.42Z" style="fill:#073a56;opacity:0.300000011920929;isolation:isolate"/><path d="M1112.87,157.23l.39.08c-.37,2.32-.87,4.7-1.48,7.14-.14.38-.28.76-.44,1.15l-.28,0c-9.45-2-15.2-9.65-14.75-11.73S1103.42,155.21,1112.87,157.23Z" style="fill:#15181a;opacity:0.15;isolation:isolate"/><path d="M1121.85,126.24a39.71,39.71,0,0,1-3.83,3.6c-10.72,3.65-23,7.26-23,7.26Z" style="fill:#5b5680;opacity:0.300000011920929;isolation:isolate"/><path d="M1092.91,225.1a1.3,1.3,0,0,1,.27-2.59,1.3,1.3,0,1,1-.27,2.59Z" style="fill:#efcb7c"/><path d="M1089.83,225.44a.76.76,0,1,1,.83-.68A.76.76,0,0,1,1089.83,225.44Z" style="fill:#efcb7c"/><path d="M1081.25,223.23a3.16,3.16,0,0,1-2.46,1.33,3.3,3.3,0,0,1-2.75-1.32" style="fill:none;stroke:#e6af29;stroke-miterlimit:10;stroke-width:1.88792806408085px"/><path d="M1099.44,135.87s23.24-7.88,28.69-10.3a77.27,77.27,0,0,1,9.9-3.48c2.14-.67,6.07-2.61,6.07,3.32,0,11.46-6.91,24.86-16.29,30.6-11.88,7.3-15.63,8.7-25.25,3.72C1090.59,153.52,1096.22,137.23,1099.44,135.87Z" style="fill:#fc6a70"/><path d="M1058.13,219.1a3.13,3.13,0,0,1-2.64.92,3.27,3.27,0,0,1-2.5-1.75" style="fill:none;stroke:#e6af29;stroke-miterlimit:10;stroke-width:1.88792806408085px"/><path d="M1051.53,175.74c-4.63-2.83-8.69-9.81-10.1-13.31,3.21,4.63,6.61,8,9.81,9.26,0,0,6.14,9.34,27.19,13.87,11,2.36,20.67-.94,24.45-3.3a37.56,37.56,0,0,1-8.12,6.23,29.43,29.43,0,0,1-16.61,3.13c-.05,1.93,0,4.66.14,8.44-1.13-.19-2.25-.42-3.35-.68-.16-3.73-.16-6.42-.09-8.29a41.57,41.57,0,0,1-9.78-3.23c-.58,1.56-1.34,3.82-2.26,7-1-.53-2-1.09-3-1.68.93-3.2,1.7-5.42,2.28-6.93A32.62,32.62,0,0,1,1051.53,175.74Z" style="fill:#15181a;opacity:0.24"/><path d="M1048.54,198.58l-15.75-9.1v7.8l9.1,5.26a6,6,0,0,1,0,10.4l-9.1,5.25v26.15h1.8l14-8.06a10.44,10.44,0,0,0,5.28-9.25.67.67,0,0,0,0-.2.6.6,0,0,0,0-.19.61.61,0,0,0,0-.19.61.61,0,0,0,0-.19.6.6,0,0,0,0-.19.67.67,0,0,0,0-.2.6.6,0,0,0,0-.19.61.61,0,0,0,0-.19.61.61,0,0,0,0-.19.6.6,0,0,0,0-.19.67.67,0,0,0,0-.2.6.6,0,0,0,0-.19.61.61,0,0,0,0-.19.61.61,0,0,0,0-.19.6.6,0,0,0,0-.19.67.67,0,0,0,0-.2.6.6,0,0,0,0-.19.61.61,0,0,0,0-.19.61.61,0,0,0,0-.19.61.61,0,0,0,0-.19.6.6,0,0,0,0-.19.67.67,0,0,0,0-.2.6.6,0,0,0,0-.19.61.61,0,0,0,0-.19.61.61,0,0,0,0-.19.6.6,0,0,0,0-.19.67.67,0,0,0,0-.2.6.6,0,0,0,0-.19.61.61,0,0,0,0-.19.61.61,0,0,0,0-.19.6.6,0,0,0,0-.19.67.67,0,0,0,0-.2.6.6,0,0,0,0-.19.61.61,0,0,0,0-.19.61.61,0,0,0,0-.19.6.6,0,0,0,0-.19.67.67,0,0,0,0-.2.6.6,0,0,0,0-.19.61.61,0,0,0,0-.19.61.61,0,0,0,0-.19.6.6,0,0,0,0-.19.67.67,0,0,0,0-.2.6.6,0,0,0,0-.19.61.61,0,0,0,0-.19.61.61,0,0,0,0-.19.61.61,0,0,0,0-.19.6.6,0,0,0,0-.19.67.67,0,0,0,0-.2.6.6,0,0,0,0-.19.61.61,0,0,0,0-.19.61.61,0,0,0,0-.19.6.6,0,0,0,0-.19.67.67,0,0,0,0-.2.6.6,0,0,0,0-.19.61.61,0,0,0,0-.19.61.61,0,0,0,0-.19.6.6,0,0,0,0-.19.67.67,0,0,0,0-.2.6.6,0,0,0,0-.19.61.61,0,0,0,0-.19.61.61,0,0,0,0-.19.6.6,0,0,0,0-.19.67.67,0,0,0,0-.2.6.6,0,0,0,0-.19.61.61,0,0,0,0-.19.61.61,0,0,0,0-.19.6.6,0,0,0,0-.19.67.67,0,0,0,0-.2.6.6,0,0,0,0-.19.6.6,0,0,0,0-.19.61.61,0,0,0,0-.19.61.61,0,0,0,0-.19.6.6,0,0,0,0-.19.67.67,0,0,0,0-.2.6.6,0,0,0,0-.19.61.61,0,0,0,0-.19.61.61,0,0,0,0-.19.6.6,0,0,0,0-.19.67.67,0,0,0,0-.2.6.6,0,0,0,0-.19.61.61,0,0,0,0-.19.61.61,0,0,0,0-.19.6.6,0,0,0,0-.19.67.67,0,0,0,0-.2.6.6,0,0,0,0-.19.61.61,0,0,0,0-.19.61.61,0,0,0,0-.19.6.6,0,0,0,0-.19.67.67,0,0,0,0-.2.6.6,0,0,0,0-.19.61.61,0,0,0,0-.19.61.61,0,0,0,0-.19.6.6,0,0,0,0-.19.67.67,0,0,0,0-.2.6.6,0,0,0,0-.19.61.61,0,0,0,0-.19.61.61,0,0,0,0-.19.61.61,0,0,0,0-.19.6.6,0,0,0,0-.19.67.67,0,0,0,0-.2A10.44,10.44,0,0,0,1048.54,198.58Z" style="fill:#a19ff7"/><path d="M1041.89,202.54l-9.16-5.29v21l9.16-5.29A6,6,0,0,0,1041.89,202.54Z" style="fill:#f6f0ff"/><path id="shadow-4" data-name="shadow" d="M792.63,438.88c24.66,0,44.65-7.11,44.65-15.89s-20-15.88-44.65-15.88S748,414.22,748,423,768,438.88,792.63,438.88Z" style="fill:#e4eaee"/><path d="M802.09,410.05l3.39,4.13c.66.51,6.41,7.51,6.41,7.51,4.06,3.82,7.3,1.36,6.54-4.16L816.75,408a6.8,6.8,0,0,1,.51-3.87Z" style="fill:#6a71c6"/><path d="M785.65,409.12s-2.88,3.66-3.36,4.35c-.68.64-6.4,9-6.4,9-4.14,4.63-8,2.2-7.67-4l.95-10.75a14.78,14.78,0,0,0-.36-4.86Z" style="fill:#6a71c6"/><path d="M768.22,418.44l.11-1.24c1.38.08,6,.78,8.71,3.57l-1.15,1.67a10.16,10.16,0,0,1-1.44,1.33,5.76,5.76,0,0,1-2,1l-.23.06-.15,0C769.71,425.1,768,422.65,768.22,418.44Z" style="fill:#c5cdd4"/><path d="M818.43,417.53l-.19-1.1c-1.23.18-5.32,1.16-7.51,3.86.69.82,1.16,1.4,1.16,1.4a9.68,9.68,0,0,0,1.39,1.09,5.17,5.17,0,0,0,1.82.71l.22,0h.13C817.62,423.6,819,421.27,818.43,417.53Z" style="fill:#c5cdd4"/><g id="right"><g id="tie"><path d="M761.17,367.08a66.44,66.44,0,0,0-22.1,22.77h0l.06,0c16.66-7.33,13.53-1.84,22.65-3.49,8.83-1.59,7.12-7.48,10.73-11.13C772.36,375.15,763.25,369.68,761.17,367.08Z" style="fill:#5f649e"/><path d="M770,379.47c-3.59-1.93-7.58-2.64-9.78-4.93,2.06,3.26,2.24,7.3,1,11.88l.57-.09h0a12.25,12.25,0,0,0,6.84-4A16.33,16.33,0,0,0,770,379.47Z" style="fill:#605985;opacity:0.24;mix-blend-mode:multiply"/><path d="M758.79,363.52c-7.41,1.63-17.22,6.1-23.24,11.78A42.52,42.52,0,0,1,749,376.85s7.6-6.84,12.38-9.48A36.64,36.64,0,0,1,758.79,363.52Z" style="fill:#636ca8"/></g><path d="M814.14,402.64c9,10.41,22.77,8.28,30.8.19,6.77-6.82,5.29-18.07,1.65-23-7.58-10.29-20.32-7.1-24.76-1.86-3.36,4-4.88,12.47,1.56,16.83,5,3.4,10.33,2.34,13.23-1.25.28,2.53-7.14,10-20.15.68" style="fill:#6a71c6"/><g style="opacity:0.30000000000000004;mix-blend-mode:multiply"><path d="M823.39,394.79c4.75,3.22,9.76,2.44,12.74-.7-7.84,3.18-18-5.7-11.81-18.29-.32.29-2.23,1.85-2.49,2.16C818.47,381.91,817,390.43,823.39,394.79Z" style="fill:#605985"/></g><path d="M814.62,402.45c3.18,4.24,14.86,12.72,28.65,2.1-4.24,3.19-15.65,7.84-27.33-6Z" style="fill:#605985;opacity:0.30000000000000004;mix-blend-mode:multiply"/><path d="M790.5,348.67c7.35-1.31,24.23,9.24,27.25,26.55,2.32,13.36,3.34,21.17-1.4,30.43C812.59,413,797.07,417,783.55,416c-12.24-.87-17.77-8-17.76-25.22C765.8,375.49,764.21,353.38,790.5,348.67Z" style="fill:#6a71c6"/><path d="M771.42,379.83s-8.94-3.63-10.76-4.83-3.55-5.08-7.45-1.56c0,0-3.22,3,2.14,7.3,1.11.89,9.69,6.6,10.77,7.81a43.4,43.4,0,0,1,3,4.42Z" style="fill:#6a71c6"/><g id="chest"><path id="SVGID-8" data-name="SVGID" d="M806.64,380.47c0,8.88-16.83,16-16.83,16s-16.73-7.26-16.69-16.14,3.46-16.07,16.83-16C804,364.38,806.68,371.59,806.64,380.47Z" style="fill:#fcfdff"/><g style="clip-path:url(#clip-path-6)"><path d="M790.13,378.33a145.5,145.5,0,0,1-14.06,9.34l.53,1.11a146.46,146.46,0,0,0,14.29-9.49Z" style="fill:#605985"/><path d="M804.79,377.62c-3.6,2.85-19.69,14.41-22.26,15.33l.42,1.16c2.85-1,19.44-13,22.6-15.52Z" style="fill:#605985"/><path d="M789.89,378.33l-.76,1a145.26,145.26,0,0,0,14.29,9.49l.53-1.11A140.67,140.67,0,0,1,789.89,378.33Z" style="fill:#605985"/><path d="M775.46,377.82l-.38.48h0l-.38.48c3.11,2.47,19.5,14.3,22.37,15.33l.41-1.16C794.89,392,779,380.62,775.46,377.82Z" style="fill:#605985"/></g></g><path d="M817.6,376.32c0,5.27-19.62,13.09-32.61,12-10.08-.88-18.35-8.67-18.34-11.11s2.58,1,18.44,2.29C802.79,380.91,817.6,373.88,817.6,376.32Z" style="fill:#605985;opacity:0.400000005960465;mix-blend-mode:multiply"/><path d="M824,305.72c-7.53-4.83-15.38-7.85-30.2-8.61a100,100,0,0,0-21.49.87,30.28,30.28,0,0,0-6.6,2.28c-.24.11-3.57-4.54-8.44-8-6.57-4.66-14-7.33-15.49-5.56-5.49,6.68-.61,28.4,5.35,33.19-4.29,8.87-3.47,17.22-4.35,26.23-2,20.56,14.74,34.49,44.92,35.06s54.31-9.35,51.15-36.34a197.51,197.51,0,0,0-4.73-23.06" style="fill:#6a71c6"/><path d="M832.76,323.45C850,321.16,858,314.9,856,311.93c-2.62-3.74-28.27-18-44-2.58C812,309.35,817.59,325.11,832.76,323.45Z" style="fill:#6a71c6"/><path d="M855.7,312.81c-.47,1.76-12.09,8.19-25.85,7.88-3-.07-1.51,1.3,2.72,3.52l-.3-.4C848.58,321.65,856.61,315.94,855.7,312.81Z" style="fill:#605985;opacity:0.25;mix-blend-mode:multiply"/><path d="M751.49,315.4c-10.17-4.28-11.14-23.46-11-26.5-3.19,7.32.88,25,5.79,30.16.3.15.62.29.94.42C750.45,318.92,753.17,316.11,751.49,315.4Z" style="fill:#605985;opacity:0.25;mix-blend-mode:multiply"/><path d="M821.16,351.36c1.15,12.74-8.87,22.55-39.75,21.64-29.74-.88-30.89-15.64-30.66-22.24.24-7,7.5-22.58,28.8-23.27C809.6,326.51,819.76,335.71,821.16,351.36Z" style="fill:#e2c080"/><path d="M818.5,341.2c-6.56-10-17.08-14.32-39-13.65-14.28.44-22.31,7.44-26,14.18C753.7,341.65,778.22,333.14,818.5,341.2Z" style="fill:#605985;opacity:0.2;mix-blend-mode:multiply"/><path d="M818.24,340.68c-5.68-9.88-17.08-14.4-38.6-13.7-14,.46-22.53,7.67-25.76,14.29C754,341.2,778,332.4,818.24,340.68Z" style="fill:#d1d1d1"/><path d="M764.21,344.88c-.52,1.81,1.36,1.84,3.07,1.87s3.73,1.19,3.38-1.77c-.14-1.17-1.44-2.16-3-2.29A3.08,3.08,0,0,0,764.21,344.88Z" style="fill:#fff;opacity:0.899999976158142"/><path d="M800.3,344.23c.58,1.79-1.29,1.89-3,2s-3.69,1.34-3.44-1.64c.09-1.17,1.35-2.21,2.93-2.4A3.11,3.11,0,0,1,800.3,344.23Z" style="fill:#fff;opacity:0.899999976158142"/><path d="M800.56,351.87a3.41,3.41,0,0,1-2.06,4.37,3.17,3.17,0,0,1-4.36-2.05,3,3,0,0,1,1.89-3.72C797.8,349.83,799.92,350.1,800.56,351.87Z" style="fill:#2d376e"/><circle cx="798.61" cy="353.51" r="0.45" style="fill:#fff"/><circle cx="796.35" cy="352.45" r="1.08" style="fill:#fff"/><path d="M764.72,351a3.41,3.41,0,0,0,1,4.72,3.18,3.18,0,0,0,4.72-1,3,3,0,0,0-1-4.06C767.87,349.6,765.74,349.38,764.72,351Z" style="fill:#2d376e"/><circle cx="766.24" cy="353" r="0.45" style="fill:#fff"/><circle cx="768.68" cy="352.48" r="1.08" style="fill:#fff"/><path d="M791.93,362.47c-1.45,2.63-5.18,4.4-9.69,4.59-5.25.22-10-2.33-10.33-6.49s3.14-8.08,9.13-8.55,11.19,3.4,11.52,7.56a5,5,0,0,1-.63,2.89" style="fill:#fff"/><path d="M784.2,356.17c.19,1.37-1.6,2.67-3.69,3-1.7.24-3.37-.73-3.56-2.1s.89-1.73,3-2S784,354.81,784.2,356.17Z" style="fill:#2d376e"/><path d="M781.26,356.13c.07.47-.47.94-1.19,1.05s-1.38-.2-1.44-.67.5-.66,1.23-.77S781.19,355.65,781.26,356.13Z" style="fill:#fff;opacity:0.800000011920929"/><path d="M787,358.46a.55.55,0,0,0-.71.35,2.94,2.94,0,0,1-1.92,1.75,4,4,0,0,1-3.45-.5,11.78,11.78,0,0,1-.32-2.36.57.57,0,0,0-.57-.55.54.54,0,0,0-.54.57,11.72,11.72,0,0,0,.4,2.78c0,.08-.2.4-.73.6a1.78,1.78,0,0,1-2.22-.84.54.54,0,0,0-.76-.18.55.55,0,0,0-.18.77,2.89,2.89,0,0,0,2.95,1.44,2.93,2.93,0,0,0,.6-.15,2.33,2.33,0,0,0,1.19-.9,5.26,5.26,0,0,0,3.15.57,4.67,4.67,0,0,0,.82-.2,4,4,0,0,0,2.64-2.45A.55.55,0,0,0,787,358.46Z" style="fill:#2d376e"/><polygon points="780.68 317.5 772.22 327.64 781.34 337.2 790.86 327.02 780.68 317.5" style="fill:#fff"/><polygon points="781.34 337.2 781.34 337.2 772.22 327.64 780.68 317.5 781.34 337.2" style="fill:#9e9fc1;opacity:0.23"/></g><path d="M818.06,377.05s3.73,2.92,3.73,7.22a12.19,12.19,0,0,1-3.63,9.09c-1.93,1.88-.59,3.39-1.71,4.5-2.31,2.29-6.73.73-5.24-4.07s3.87-3.8,3.12-6.13-4-3.5-4-3.5,4.17-2.76,5.52-4A11.34,11.34,0,0,0,818.06,377.05Z" style="fill:#6a71c6"/><path d="M810.32,384.16s3.27,1.17,4,3.5-1.65,1.4-3.12,6.13c-1,3.19.63,4.94,2.5,5.09-3.11,0-3.71-3.07-3.39-4.75.87-4.6,3.08-4.11,2.84-6.15a11.15,11.15,0,0,0-.91-1.59A17.6,17.6,0,0,0,810.32,384.16Z" style="fill:#605985;opacity:0.30000000000000004;mix-blend-mode:multiply"/><path d="M814.77,393.05a5.33,5.33,0,0,0-3.66,1.16c-1.11,4.47,3.1,5.87,5.34,3.65.85-.84.28-1.92.81-3.21C817.4,394.32,816.27,393.14,814.77,393.05Z" style="fill:#c6ced5"/><path d="M758.6,373.53c-1.67-1.34-3.36-4.55-6.94-1.31,0,0-3.07,2.9,1.94,7A7.89,7.89,0,0,0,758.6,373.53Z" style="fill:#c6ced5"/><path d="M760.39,373.59c-1.72-1.12-3.34-4.46-6.53-2.72,2.48-.53,3.92,2.16,5.42,3.14a83.08,83.08,0,0,0,7.76,3.8S762.34,374.87,760.39,373.59Z" style="fill:#605985;opacity:0.30000000000000004;mix-blend-mode:multiply"/><g id="villain-2" data-name="villain"><path d="M543.59,342.54l8.12,4.92a61.36,61.36,0,0,0-11.09.37c-4.17.65-4.54,3.05-4.61,5-.13,3.11,2.27,5.23,6.44,7.16s-12.89,0-12.89,0l-2.47-11.57Z" style="fill:#545472"/><path d="M547.4,294.42s3.32-1.17,5-.25c1.92,1,8.49,17.22,8.49,17.22l-5.79,4Z" style="fill:#343449"/><path d="M538.27,388.3s21.58-15.06,28.06-16.39c7.44-1.54,14,5.54,7.87,11.3s-14.62,9.94-20.52,15.06-11.62,17.61-11.62,17.61Z" style="fill:#6abbb5"/><path d="M610.81,385.4a10.31,10.31,0,0,0-13.6,4.72C583,419.47,570,421,559.22,418.55c-8.87-2-12-11.3-13-14.36a49.92,49.92,0,0,1-1.65-6.46,28.32,28.32,0,0,1,.83-13.74c2.76-8.73,7.15-18.8,8.76-22.66,2.42-5.81-2.42-5.81-7.26-3.87s-9.33,1.39-12.06-.18c-3-1.69-4.07-5.62-.2-9s11.56-.49,15.43,0,8.24.77,12.11-12.78-7.05-37.53-21.56-48.65-36.29-9.19-54.18,0-24.19,33.38-25.16,40.63a101.73,101.73,0,0,1-8.22,27.09c-3.87,7.74-20.8,27.58-31.93,46.44s-16.45,36.28-20.32,58.54a80.91,80.91,0,0,0-.47,21.71,28.19,28.19,0,0,0,28.22,25.37l122.78-.84s0-.16-.07-.44c2.44.15,4-.23,3.92-1.24-1.92-17.37-8.22-39-4.34-47.39,2.33-5,7.55-9.39,13-10l3.88-.59c.34-.05.69-.11,1-.18,11.57-2.36,17.58-3.72,24.81-9.74,9.83-8.17,10.9-11.09,18.42-26.6C614.51,404.55,618,388.59,610.81,385.4Z" style="fill:#8bd8bf"/><path d="M486.78,506.29c3.58-4.39,1.86-19.75-1.23-29.71-1.94-6.25-2.78-10.94-7.28-19-3.74-6.73-8.2-11-9.8-17.43s1-14.38,4.26-20.31c7-12.79,7.41-21.84,4.33-29.37-2.87-7-9.46-11.46-18.81-11.46a41.75,41.75,0,0,0-28.84,11.74q-3.3,3.42-6.16,6.8c-.72,1.17-1.43,2.33-2.11,3.48-11.13,18.87-16.45,36.28-20.32,58.54-2.6,15,.55,31.13,2.9,40.15a9.41,9.41,0,0,0,9.17,7Z" style="fill:#6abbb5"/><path d="M459.94,418.16c5.29-32.72,9.22-31,14.21-43.6s11.94-18.52,12.61-37.73c.64-18.08-6.69-27.62,3.46-43,5.37-8.14,12.16-11.61,19.78-14.63-9.25,1.23-18.85,5.22-23.55,7.64-17.9,9.19-24.19,33.38-25.16,40.63a101.73,101.73,0,0,1-8.22,27.09c-3.87,7.74-20.8,27.58-31.93,46.44s-16.45,36.28-20.32,58.54c-2.6,15,.55,31.13,2.9,40.15a9.41,9.41,0,0,0,9.17,7l50.58-.35C459,485.26,452.77,462.48,459.94,418.16Z" style="fill:#4560ad;opacity:0.2;mix-blend-mode:multiply"/><path d="M602.23,419c-8.89,11.76-15.17,15.44-30.71,19.47-8.61,2.24-22.93-.37-24.12,12.42s7.8,53.19,7.8,53.19c-1.92-17.37-8.22-39-4.34-47.39,2.33-5,7.55-9.39,13-10l3.88-.59c.34-.05.69-.11,1-.18,11.57-2.36,17.58-3.72,24.81-9.74,9.83-8.17,10.9-11.09,18.42-26.6a37.34,37.34,0,0,0,3-16.48C614.7,389.59,614.25,403.11,602.23,419Z" style="fill:#4560ad;opacity:0.2;mix-blend-mode:multiply"/><path d="M555.64,337.18c-1.1,3.68-2.53,6.23-5.5,11.09,3.85.48,8.2.69,12.05-12.79s-7.05-37.53-21.56-48.65a34.94,34.94,0,0,0-8.87-4.92,60.5,60.5,0,0,1,25,43A31,31,0,0,1,555.64,337.18Z" style="fill:#4560ad;opacity:0.2;mix-blend-mode:multiply"/><path d="M548.68,294.7s1.94-.63,3,0a4.29,4.29,0,0,1,1.46,2.3l-3,.75Z" style="fill:#469e95"/><path d="M527.06,326.82c6.63-4.53,10.43-7.07,14.91-7.95s13.09-1.8,17.06-4.83c.94-.71,2-1.6,1.9-2.65l-6.63-13.58a1.63,1.63,0,0,0-.91-.72H553l0,0h-.13l-.05,0,0,0,0,0,0,0,0,0,0,0,0,0,0,0,0,0,0,0,0,0h-1l0,0-.23-.11h0l0,0,0,0,0,0h0l0,0,0,0h-.06a2.35,2.35,0,0,0-1.27-.12c.23-.37,0-.89-.24-1.16l-.38.29a2,2,0,0,1,.19.66c.11.44-2,4.1-7.36,7.4-7,4.31-18.13,5.86-22.69,7.28s-5.75,6.21-5.18,9.62c.51,3,2.28,5.64,3.91,6.43,2.09,1,3.07,1.84,9.29.54" style="fill:#469e95"/><path d="M554.3,297.81s-2-3.79-4.69-.06c-2.39,3.38-4.82,6.93-18.9,11.25-3.63,1.11-7.21,1.83-9.85,2.63a8.27,8.27,0,0,0-5.09,10.61c1.57,4.35,4.76,6.47,12.7,5.25,10.43-1.6,12.84-2.74,17.13-4.3,6.11-2.23,9.4-4.95,13.63-9,.85-.82,1.81-1.72,1.7-2.77Z" style="fill:#545472"/><path d="M549.58,298.28l-.16-.27c1-1.35,1.87-2.6,1.48-3.18-.25-.36-.66-.53-2-.2V294c1.2-.12,3.36-.43,3.88.52s2.34,3.49,1.53,4.12S549.79,298.2,549.58,298.28Z" style="fill:#343449"/><path d="M560.8,311.07l-6.1-12.83s-.9-1.06-5.28-.23h0a16.51,16.51,0,0,1,.47,6.11c-.53,7.55-5.46,17.08-11.22,21.38a53.63,53.63,0,0,0,6.93-2.32,43.62,43.62,0,0,0,13.53-8.33,8,8,0,0,0,1.47-1.77A2.9,2.9,0,0,0,560.8,311.07Z" style="fill:#343449"/><path d="M504.82,352.83a4.18,4.18,0,0,1-4-2.69c-2.42-5.52,2.34-17.58,2.89-18.94a1,1,0,0,1,.82-.68h0a1,1,0,0,1,.87.68c.58,1.36,5.63,13.36,3.41,18.9a4,4,0,0,1-3.81,2.73Z" style="fill:#a4effc"/></g><g id="villain-3" data-name="villain"><path d="M350.11,150.37c-.43,3.27.86,5,2,5.91,5.19,4,18.36-1.23,19.85-1.84a1.36,1.36,0,0,0,.84-1.07v0a1.39,1.39,0,0,0-.54-1.29c-1.27-1-12.59-9.35-18.65-6.9-1.32.53-3,1.83-3.48,5Z" style="fill:#9ad9e8"/><path d="M358.15,171.45a3.36,3.36,0,0,0,3,1.84c3.71-.14,7.54-7.17,8-8a.78.78,0,0,0,0-.77h0a.79.79,0,0,0-.7-.37c-.9,0-8.86.49-10.6,3.74a3.31,3.31,0,0,0,.28,3.43Z" style="fill:#9ad9e8"/><path d="M444,129s9.93-2.79,13.14-7.3,4-7.9,3.47-12-2.37-9.88-3.8-11.81-3.42-2.25-5.58-1.21-2.87,5.22-2.46,10.89c0,0,.4,3.45-1.86,5.39s-7,.28-7,.28S440.65,123.31,444,129Z" style="fill:#d5c75f"/><path d="M401.59,204c.45-2.52.85-8.88-1.66-17.64,0-.1,0-.19-.06-.29-1.25-2.52-1.84-5.12-2.79-7.51-4.55-11.43-10.18-26.73-10.82-43.09a80.41,80.41,0,0,1,2.39-24.65,41.62,41.62,0,0,0,1.14-14.14,16.78,16.78,0,0,1-.06-2.16,5.08,5.08,0,0,0-.6-2.7c-3.58-6.63-9.7-14-11.51-18.39-2.2-5.34-.41-9.13,1.65-10.44s5.72-1.29,8.62.57,5.24,5.32,8.19,11.27l.44.88a5,5,0,0,0,6.76,2.17A32.38,32.38,0,0,1,407.72,76a5,5,0,0,0,2.89-7l0,0c-4-7.66-3.74-11.38-3.37-13.56.72-4.35,5.89-3.66,8.51-1.69s4.38,6.89,6.37,14.31c1.86,6.93,6.15,9.1,6.71,9.36l.07,0c10.42,5.12,15.41,9.16,18.09,19.7s-3.43,18.59-5.21,21,1.65,6.64,9.06,11.23c11.47,7.09,20.37,15.86,22.78,26.16C484.87,203.67,431,202,417.78,214.39c-2.45,2.3-2.94,14.27-6,16.22a3.54,3.54,0,0,1-4.28-1c-1.37-2.3-1.84-7.4-3.36-10.42C401.77,214.48,401.05,207,401.59,204Z" style="fill:#eae46f"/><path d="M442.17,96.57a5,5,0,0,0-6.66-3.65c-4.48,1.77-2.58,5.26-8.4,7s-7.74,1.6-10.81,1.45a7,7,0,0,0-6.29,2.75c-1.64,1.84-1.57,5-.19,8.15s5.35,3.66,9,2.07,5.76-7.4,9-9,7.53.08,9.4-.36S443.66,102.11,442.17,96.57Z" style="fill:#fffaca"/><path d="M410,104.08a7,7,0,0,1,6.29-2.75c3.07.15,5,.25,10.81-1.45s3.92-5.19,8.4-7a5,5,0,0,1,6.5,3.15,5,5,0,0,0-4.94-.86c-4.47,1.77-2.57,5.26-8.39,7s-7.74,1.61-10.81,1.45a7,7,0,0,0-6.3,2.75C410,108.11,410,111,411.19,114a4.55,4.55,0,0,1-1.37-1.78C408.44,109.08,408.37,105.92,410,104.08Z" style="fill:#e2d276"/><g style="opacity:0.7000000000000001"><path d="M426.36,89.12a3.75,3.75,0,0,0,1.89-1.83,1.72,1.72,0,0,0-.84-2.46c-2.49-1.36-4.78-.36-9.12,1.54s-9.09,5.34-10.5,7.73,2.65,1.7,5.26.83C415.23,94.2,423.65,90.36,426.36,89.12Z" style="fill:#704938"/><path d="M407,95.87a1.8,1.8,0,0,1,.08-2.2c1.47-2.5,6.26-6,10.89-8.08s7-3.06,9.87-1.51A2.58,2.58,0,0,1,429,87.64a4.61,4.61,0,0,1-2.31,2.25h0c-3.3,1.52-11.22,5.12-13.4,5.84a17.9,17.9,0,0,1-3.11.76C408.89,96.68,407.58,96.61,407,95.87Z" style="fill:#311769"/></g><path d="M442.17,96.57a5,5,0,0,0-6.66-3.65c-4.48,1.77-2.58,5.26-8.4,7s-7.74,1.6-10.81,1.45a7,7,0,0,0-6.29,2.75c-1.64,1.84-1.57,5-.19,8.15s5.35,3.66,9,2.07,5.76-7.4,9-9,7.53.08,9.4-.36S443.66,102.11,442.17,96.57Z" style="fill:none;stroke:#d8bf56;stroke-miterlimit:10;stroke-width:1.2750585548016px"/><path d="M379.27,63a5.39,5.39,0,0,1,.76-.38c-.17,1.88-.92,6-.07,8.12,2.47,6.05,6.31,11.1,9.68,16s6.57,12.33,4.65,18.47-2.79,20.56-1.69,35.26c.58,7.63,3.34,14.28,8.54,28.7,1.26,3.5,4.57,9.33,7,13.4a11.09,11.09,0,0,1,1,9.15c-4.75,14.53-2.83,31.81-5,27.53-2.4-4.75-3.66-12.55-3.92-15.56-.36-4.35-.43-9.55-.42-13.17a24.25,24.25,0,0,0-1.33-7.83c-.47-1.41-.89-2.8-1.42-4.13-4.55-11.43-10.18-26.73-10.82-43.09a81.43,81.43,0,0,1,2.86-26.51,33.35,33.35,0,0,0,.7-12.07,10.52,10.52,0,0,1-.09-1.14,11.84,11.84,0,0,0-1.55-5.61c-3.63-6.16-8.9-12.68-10.56-16.71C375.42,68.07,377.21,64.28,379.27,63Z" style="fill:#ddd468"/><path d="M396.06,145.91a38.2,38.2,0,0,1-16.63-6.75c-5.57-4.08-9.52-6-12.23-12.16s-1.57-16,1.31-19.57,7.13-5.18,10.47-3.54c4.54,2.22,4.53,6.22,3,9.41s-.06,7.36,4.72,9.64,11.46.11,11.46.11S401.9,140.92,396.06,145.91Z" style="fill:#eae46f"/><path d="M368.51,107.43a10.5,10.5,0,0,1,3.3-2.83c-2.26,4.28-2.94,12.77-.51,18.29C374,129,378,131,383.54,135.06a38.63,38.63,0,0,0,15,6.48,8.69,8.69,0,0,1-2.48,4.37,38.2,38.2,0,0,1-16.63-6.75c-5.57-4.08-9.52-6-12.23-12.16S365.63,111,368.51,107.43Z" style="fill:#ddd468"/></g></g></g></g></svg>