<svg width="375" height="365" viewBox="0 0 375 365" fill="none" xmlns="http://www.w3.org/2000/svg">
<rect width="375" height="365" fill="#FAFAFA"/>
<rect x="28" y="32" width="319" height="154" rx="3" fill="white"/>
<path d="M274.5 32L344 32C345.657 32 347 33.3431 347 35V183C347 184.657 345.657 186 344 186H31C29.3431 186 28 184.657 28 183V35C28 33.3431 29.3431 32 31 32H98.5" stroke="#D9D9D9"/>
<path d="M158 217C158 215.343 159.343 214 161 214H344C345.657 214 347 215.343 347 217V334C347 335.657 345.657 337 344 337H161C159.343 337 158 335.657 158 334V217Z" fill="white"/>
<path d="M187.92 307.04C187.04 306.57 186.66 306.39 185.94 306.09C186.39 305.6 186.62 305.22 186.84 304.64H187.15C187.62 304.64 187.85 304.65 188.12 304.69V303.63C187.89 303.67 187.64 303.68 187.14 303.68H184.86C184.93 303.57 184.97 303.51 184.99 303.45C185.1 303.26 185.1 303.26 185.15 303.16L184.33 302.91H187.1C187.64 302.91 187.85 302.92 188.12 302.96V301.9C187.86 301.94 187.65 301.95 187.1 301.95H186.31C186.59 301.54 186.69 301.34 186.92 300.77L185.99 300.53H186.88C187.43 300.53 187.66 300.54 187.89 300.58V299.52C187.63 299.56 187.35 299.57 186.77 299.57H185.43V299.34C185.43 299.1 185.44 298.89 185.48 298.64H184.31C184.34 298.85 184.36 299.1 184.36 299.35V299.57H183.32C182.75 299.57 182.47 299.56 182.19 299.52V300.58C182.43 300.54 182.63 300.53 183.2 300.53H183.78L182.95 300.85C183.2 301.29 183.26 301.43 183.41 301.95H182.73C182.33 301.95 182.12 301.94 181.93 301.9V302.96C182.17 302.92 182.41 302.91 182.79 302.91H184.1C184.02 303.13 183.92 303.35 183.74 303.68H182.85C182.39 303.68 182.14 303.67 181.88 303.63V304.69C182.15 304.65 182.39 304.64 182.84 304.64H183.13C182.73 305.19 182.62 305.33 182.25 305.71C183.05 305.95 183.34 306.05 184.01 306.32C183.23 306.68 182.53 306.83 181.38 306.9C181.6 307.25 181.69 307.46 181.8 307.86C183.17 307.7 184.17 307.38 185.09 306.79C186.05 307.23 186.31 307.38 187.22 307.94L187.92 307.04ZM185.75 304.64C185.58 305.06 185.37 305.35 184.97 305.72C184.59 305.59 184.59 305.59 183.76 305.31C184.03 304.97 184.11 304.86 184.27 304.64H185.75ZM183.53 301.95L184.35 301.64C184.22 301.2 184.07 300.84 183.89 300.53H185.91C185.72 301.22 185.59 301.5 185.28 301.95H183.53ZM180.08 300.46H179.68C179.39 300.46 179.19 300.45 178.94 300.41V301.47C179.21 301.44 179.41 301.43 179.67 301.43H180.08V303.24C179.45 303.44 179.17 303.51 178.82 303.55L179.03 304.67C179.15 304.61 179.22 304.59 179.45 304.51C179.63 304.46 179.87 304.37 180.08 304.3V306.49C180.08 306.73 180.02 306.79 179.76 306.79C179.53 306.79 179.31 306.77 179 306.72C179.15 307.09 179.21 307.32 179.25 307.75C179.48 307.76 179.58 307.77 179.72 307.77C180.25 307.77 180.63 307.7 180.84 307.57C181.02 307.45 181.13 307.16 181.13 306.8V303.87C181.41 303.74 181.52 303.69 181.81 303.53L181.73 302.53C181.42 302.69 181.31 302.74 181.13 302.83V301.43H181.41C181.63 301.43 181.75 301.44 181.96 301.46V300.42C181.78 300.45 181.66 300.46 181.4 300.46H181.13V299.63C181.13 299.17 181.14 298.93 181.19 298.62H180.02C180.07 298.94 180.08 299.16 180.08 299.64V300.46ZM188.97 303.85C189.13 303.82 189.24 303.81 189.6 303.79C189.66 303.78 189.79 303.77 189.99 303.76C190.08 303.75 190.21 303.74 190.38 303.73V306.81C190.38 307.28 190.37 307.53 190.32 307.86H191.4C191.35 307.56 191.34 307.31 191.34 306.81V303.65C191.64 303.62 191.72 303.61 191.94 303.58C191.97 303.72 191.99 303.8 192.02 304.01L192.67 303.78C192.67 304.15 192.66 304.17 192.63 304.43H193.6V303.33H196.92V304.43H197.96C197.93 304.25 197.92 304.03 197.92 303.72V303.12C197.92 302.8 197.93 302.63 197.95 302.41C197.7 302.45 197.45 302.46 196.99 302.46H193.53C193.03 302.46 192.82 302.45 192.63 302.43C192.66 302.62 192.67 302.76 192.67 303.15V303.39C192.54 302.85 192.37 302.33 192.1 301.72L191.42 301.96C191.57 302.32 191.62 302.44 191.71 302.73C191.41 302.76 191.24 302.78 190.68 302.81C191.08 302.28 191.7 301.39 192.02 300.88C192.38 300.28 192.38 300.28 192.5 300.12L191.6 299.63C191.46 300.03 191.28 300.37 190.7 301.29C190.55 301.11 190.5 301.05 190.31 300.82C190.59 300.42 190.89 299.88 191.2 299.27C191.3 299.07 191.34 299 191.41 298.9L190.45 298.53C190.32 298.99 190.07 299.57 189.72 300.16L189.34 299.75L188.84 300.62C189.4 301.18 189.78 301.61 190.15 302.13C189.92 302.46 189.92 302.46 189.63 302.85C189.41 302.85 189.31 302.85 189.27 302.85C189.08 302.85 189 302.85 188.86 302.83L188.97 303.85ZM194.62 300.32V301.03H193.77C193.29 301.03 193.04 301.02 192.75 300.98V301.95C193.01 301.91 193.3 301.9 193.76 301.9H196.68C197.14 301.9 197.44 301.92 197.69 301.95V300.98C197.39 301.02 197.15 301.03 196.67 301.03H195.65V300.32H196.9C197.43 300.32 197.71 300.33 197.98 300.37V299.37C197.71 299.41 197.34 299.43 196.87 299.43H195.65V299.34C195.65 299 195.67 298.8 195.71 298.58H194.56C194.6 298.81 194.62 299.02 194.62 299.33V299.43H193.69C193.2 299.43 192.87 299.41 192.58 299.37V300.37C192.84 300.33 193.15 300.32 193.67 300.32H194.62ZM189.22 304.18C189.16 305.64 189.09 306.1 188.83 306.92L189.69 307.35C189.93 306.46 190.03 305.7 190.09 304.31L189.22 304.18ZM191.57 304.32C191.74 305.14 191.78 305.5 191.84 306.56L192.65 306.32C192.55 305.31 192.51 305.08 192.33 304.13L191.57 304.32ZM195.34 303.8C195.38 303.99 195.39 304.2 195.39 304.51V306.81C195.39 307.47 195.65 307.64 196.62 307.64C197.44 307.64 197.76 307.51 197.94 307.12C198.06 306.86 198.13 306.45 198.19 305.62C197.86 305.56 197.55 305.45 197.24 305.27C197.22 306.07 197.17 306.45 197.07 306.57C197.02 306.63 196.87 306.67 196.69 306.67C196.45 306.67 196.39 306.63 196.39 306.46V304.51C196.39 304.21 196.41 304.01 196.45 303.8H195.34ZM193.85 303.8C193.87 303.97 193.88 304.08 193.88 304.26C193.88 305.04 193.71 305.63 193.38 306.01C193.05 306.39 192.74 306.58 191.92 306.87C192.23 307.13 192.44 307.4 192.6 307.79C193.51 307.34 193.84 307.1 194.21 306.62C194.62 306.09 194.84 305.42 194.89 304.52C194.92 303.99 194.92 303.99 194.94 303.8H193.85ZM206.39 298.62C206.23 299.02 206.05 299.35 205.78 299.71C205.75 299.68 205.68 299.61 205.56 299.5L205.25 299.93C205.25 299.8 205.25 299.69 205.25 299.62C205.24 299.46 205.24 299.33 205.24 299.3C205.24 298.99 205.25 298.82 205.3 298.63H204.2C204.25 298.93 204.26 299.08 204.27 299.77C204.27 299.87 204.27 300.04 204.27 300.24L203.56 299.76C203.38 300.18 203.31 300.29 203.04 300.7C202.94 300.56 202.9 300.51 202.8 300.39C203.16 299.9 203.35 299.59 203.67 298.99L202.85 298.58C202.69 299.01 202.52 299.33 202.21 299.77L201.99 299.56L201.41 300.25C201.52 300.35 201.56 300.38 201.63 300.45C201.51 300.46 201.33 300.47 201.12 300.47H200.94V299.63C200.94 299.1 200.95 298.83 200.98 298.59H199.9C199.94 298.85 199.95 299.16 199.95 299.64V300.47H199.61C199.25 300.47 199.1 300.46 198.93 300.42V301.49C199.11 301.47 199.36 301.45 199.61 301.45H199.85C199.62 302.3 199.54 302.54 199.44 302.8C199.12 303.64 198.96 303.96 198.69 304.39C198.9 304.67 199.05 305.03 199.17 305.49C199.48 304.96 199.74 304.3 200.04 303.25C199.98 304.09 199.96 304.45 199.96 304.9V306.66C199.96 307.18 199.94 307.61 199.9 307.89H200.99C200.95 307.63 200.94 307.28 200.94 306.66V303.78C200.94 303.43 200.92 302.84 200.9 302.56C201.04 302.91 201.18 303.18 201.37 303.48C201.45 303.22 201.51 303.07 201.66 302.78L201.7 303.09C201.84 303.06 202.36 302.99 203.13 302.89C203.4 302.85 203.57 302.82 203.83 302.78C203.84 302.89 203.85 302.95 203.87 303.12L204.43 302.92C204.45 303.11 204.46 303.19 204.5 303.48H202.44C202.02 303.48 201.86 303.47 201.62 303.44V304.45C201.82 304.43 202 304.42 202.37 304.41C202.27 305.64 201.86 306.46 201.07 307.05C201.47 307.34 201.59 307.45 201.87 307.77C202.52 307.1 202.85 306.56 203.11 305.69C203.35 305.97 203.61 306.19 203.94 306.39C204.01 306.26 204.01 306.26 204.15 306.01C204.23 305.85 204.29 305.75 204.42 305.57C203.9 305.29 203.64 305.1 203.31 304.73C203.33 304.61 203.33 304.57 203.34 304.41H204.67C204.83 305.12 204.95 305.48 205.18 305.95C204.42 306.45 203.78 306.72 202.88 306.94C203.18 307.28 203.28 307.45 203.45 307.83C204.35 307.52 204.92 307.22 205.64 306.71C206.21 307.46 206.67 307.79 207.17 307.79C207.48 307.79 207.68 307.69 207.82 307.47C208.01 307.18 208.12 306.79 208.23 306.06C207.95 305.93 207.71 305.76 207.47 305.51C207.37 306.44 207.28 306.72 207.1 306.72C206.95 306.72 206.69 306.5 206.4 306.1C206.82 305.72 207.1 305.41 207.49 304.9L206.72 304.41H207.06C207.45 304.41 207.81 304.43 208.11 304.47V303.42C207.84 303.47 207.66 303.48 207.06 303.48H206.84L207.22 303.12C206.95 302.87 206.93 302.86 206.7 302.71C206.99 302.68 207.23 302.65 207.43 302.62C207.47 302.81 207.49 302.88 207.54 303.1L208.24 302.87C208.01 302.09 207.9 301.82 207.65 301.3L207.02 301.53C207.11 301.7 207.14 301.76 207.2 301.92C206.89 301.95 206.78 301.96 206.48 301.98C206.79 301.67 207.01 301.42 207.28 301.08C207.77 300.44 207.77 300.44 207.98 300.18L207.25 299.65C206.93 300.17 206.84 300.32 206.63 300.61C206.5 300.46 206.48 300.43 206.36 300.3C206.75 299.81 206.89 299.6 207.21 299.07L206.39 298.62ZM206.08 301.29C205.83 301.6 205.83 301.6 205.44 302.01C205.38 302.01 205.36 302.01 205.3 302.01C205.26 301.3 205.26 301.3 205.25 300.39C205.58 300.68 205.82 300.94 206.08 301.29ZM205.95 303.05C206.23 303.18 206.36 303.26 206.58 303.48H205.46C205.41 303.11 205.4 303.08 205.38 302.85C205.52 302.84 205.62 302.83 205.63 302.83C205.89 302.81 205.89 302.81 206.06 302.78C206.1 302.78 206.16 302.77 206.25 302.76L205.95 303.05ZM201.71 300.52C202.03 300.82 202.24 301.06 202.54 301.45C202.36 301.69 202.25 301.83 201.91 302.22C201.83 302.22 201.78 302.22 201.73 302.22C201.69 302.22 201.65 302.22 201.58 302.21L201.61 302.43C201.31 302.07 201.15 301.82 201 301.45H201.14C201.35 301.45 201.46 301.46 201.71 301.49V300.52ZM206.71 304.41C206.56 304.74 206.42 304.91 205.95 305.35C205.78 304.98 205.71 304.78 205.63 304.41H206.71ZM203.47 301.65C203.56 301.85 203.58 301.91 203.65 302.07C203.31 302.12 203.31 302.12 202.92 302.15C203.25 301.8 203.69 301.24 204.06 300.68C204.13 300.58 204.16 300.53 204.28 300.36C204.28 300.81 204.3 301.27 204.36 302.11C204.29 301.88 204.24 301.76 204.1 301.45L203.47 301.65ZM210.08 302.26C209.59 302.26 209.29 302.24 208.98 302.2V303.28C209.3 303.23 209.6 303.22 210.08 303.22H211.4C210.6 303.93 209.84 304.34 208.76 304.67C209.02 305.03 209.14 305.26 209.25 305.66C209.53 305.54 209.65 305.48 209.82 305.4V306.92C209.82 307.22 209.8 307.55 209.76 307.83H210.85V307.37H212.14V307.74H213.17C213.14 307.5 213.13 307.3 213.13 306.98V305.03C213.13 304.63 213.14 304.43 213.16 304.23C212.94 304.26 212.71 304.27 212.39 304.27H211.69C212.13 303.93 212.45 303.63 212.8 303.22H214.13C214.42 303.6 214.75 303.92 215.22 304.27H214.45C214.13 304.27 213.91 304.26 213.68 304.23C213.7 304.47 213.71 304.67 213.71 305.03V307.06C213.71 307.34 213.7 307.59 213.67 307.82H214.72V307.37H216.12V307.82H217.21C217.17 307.56 217.15 307.19 217.15 306.88V305.35C217.39 305.46 217.49 305.49 217.8 305.61C217.93 305.2 218.06 304.94 218.29 304.59C217.03 304.34 216.05 303.87 215.42 303.22H216.92C217.36 303.22 217.65 303.24 218.01 303.28V302.2C217.7 302.24 217.37 302.26 216.92 302.26H213.49C213.66 302.01 213.72 301.9 213.84 301.68C214.07 301.66 214.33 301.65 214.69 301.65H216.49C216.81 301.65 217.17 301.66 217.43 301.68C217.4 301.45 217.39 301.2 217.39 300.85V299.7C217.39 299.33 217.4 299.07 217.43 298.84C217.13 298.87 216.88 298.88 216.46 298.88H214.68C214.26 298.88 214 298.87 213.74 298.84C213.77 299.08 213.78 299.29 213.78 299.62V300.96C213.78 301.15 213.78 301.23 213.77 301.41L213.1 301.31C213.1 301.11 213.1 301.05 213.1 300.96V299.62C213.1 299.27 213.11 299.06 213.13 298.84C212.87 298.87 212.6 298.88 212.18 298.88H210.5C210.08 298.88 209.83 298.87 209.53 298.84C209.56 299.09 209.57 299.37 209.57 299.7V300.85C209.57 301.15 209.56 301.43 209.53 301.68C209.79 301.66 210.15 301.65 210.47 301.65H212.18C212.43 301.65 212.49 301.65 212.67 301.65C212.55 301.88 212.49 301.98 212.28 302.26H210.08ZM210.59 299.72H212.09V300.85H210.59V299.72ZM214.8 299.73H216.36V300.85H214.8V299.73ZM210.85 305.13H212.14V306.47H210.85V305.13ZM214.72 305.13H216.12V306.47H214.72V305.13Z" fill="#212121"/>
<path d="M267.61 299.97C267.38 300.05 267.27 300.07 266.88 300.07L264.69 300.1C264.5 300.1 264.34 300.11 264.21 300.12C264.31 299.94 264.31 299.94 264.37 299.8C264.47 299.6 264.47 299.6 264.5 299.54C264.6 299.31 264.6 299.31 264.63 299.26C264.74 299.04 264.74 299.04 264.8 298.95L263.43 298.68C263.39 299.04 263.23 299.43 262.92 300C262.19 301.32 261.47 302.12 260.33 302.9C260.85 303.22 261 303.35 261.3 303.76C262.25 303.03 263.03 302.17 263.64 301.2L266.65 301.15C266.1 302.94 265.16 304.31 263.73 305.37C263.1 305.84 262.54 306.14 261.54 306.55C261.98 306.93 262.11 307.1 262.39 307.6C263.93 306.89 265.03 306.11 265.95 305.06C266.83 304.07 267.54 302.72 268 301.2C268.11 300.84 268.15 300.75 268.25 300.6L267.61 299.97ZM271.52 300.37C271.83 300.33 272.02 300.32 272.67 300.32H276.2C276.85 300.32 277.04 300.33 277.35 300.37V299.14C277.02 299.2 276.81 299.21 276.18 299.21H272.69C272.06 299.21 271.85 299.2 271.52 299.14V300.37ZM277.86 301.53C277.55 301.6 277.35 301.62 276.73 301.62H271.97C271.27 301.62 271.05 301.61 270.67 301.55V302.77C271.03 302.73 271.28 302.72 271.95 302.72H276.82C276.38 303.83 275.95 304.44 275.21 305.06C274.44 305.7 273.65 306.07 272.43 306.38C272.87 306.87 272.99 307.04 273.21 307.54C274.47 307.07 275.12 306.73 275.83 306.18C276.87 305.38 277.63 304.27 278.15 302.8C278.27 302.49 278.33 302.35 278.43 302.17L277.86 301.53ZM287.14 298.88C286.85 299.37 286.17 300.06 285.28 300.75C283.69 301.98 282.01 302.81 280.03 303.35C280.38 303.8 280.49 303.97 280.7 304.49C282.54 303.83 283.1 303.57 284.27 302.87V306.39C284.27 306.98 284.26 307.18 284.21 307.47H285.61C285.57 307.2 285.56 306.91 285.56 306.36V302.09C286.42 301.46 287.17 300.81 287.92 300.03C288.07 299.87 288.12 299.83 288.29 299.68L287.14 298.88ZM298.19 299.35C297.91 299.43 297.82 299.44 297.22 299.44H292C291.31 299.44 291 299.42 290.62 299.36V300.61C291.03 300.56 291.28 300.55 291.98 300.55H297.23C297 301.03 296.69 301.44 296.28 301.82C295.87 302.21 295.49 302.44 294.82 302.74C295.27 303.08 295.42 303.23 295.72 303.65C296.19 303.39 296.52 303.17 296.92 302.82C297.53 302.3 298.11 301.55 298.46 300.81C298.72 300.29 298.72 300.28 298.86 300.11L298.19 299.35ZM293.44 301.37C293.48 301.58 293.49 301.67 293.49 301.97C293.49 303.86 293.17 304.72 292.15 305.53C291.66 305.92 291.21 306.14 290.4 306.38C290.8 306.8 290.93 306.98 291.19 307.52C292.44 307 293.17 306.49 293.77 305.72C294.45 304.85 294.72 303.89 294.76 302.18C294.77 301.57 294.77 301.56 294.8 301.37H293.44ZM300.72 300.58C301.65 301.1 302.47 301.76 303.27 302.61L304.13 301.52C303.36 300.79 302.74 300.33 301.55 299.59L300.72 300.58ZM301.07 307.18C301.3 307.1 301.33 307.09 301.73 307.01C303.28 306.68 304.52 306.19 305.54 305.51C306.91 304.6 307.86 303.42 308.71 301.59C308.2 301.23 308.04 301.08 307.65 300.61C307.35 301.42 307.07 301.97 306.63 302.61C305.84 303.75 304.91 304.52 303.66 305.06C302.75 305.46 301.56 305.75 300.7 305.8L301.07 307.18ZM313.52 307.45C313.49 307.12 313.48 306.86 313.48 306.34V303.7C313.48 303.42 313.47 303.3 313.44 303.02C313.52 303.07 313.55 303.08 313.78 303.19C315.45 303.96 316.49 304.53 317.32 305.1L318.02 303.92C316.42 303.02 314.85 302.29 313.48 301.81V299.95C313.48 299.33 313.48 299.2 313.52 298.9H312.15C312.19 299.17 312.21 299.43 312.21 299.92V306.33C312.21 306.86 312.2 307.13 312.15 307.45H313.52Z" fill="#212121"/>
<path d="M263.167 253.111C263.167 251.945 264.112 251 265.278 251H313.833C314.999 251 315.944 251.945 315.944 253.111V284.791H263.167V253.111Z" fill="#B2B2B2"/>
<path d="M266.333 255.222C266.333 254.639 266.806 254.167 267.389 254.167H311.722C312.305 254.167 312.778 254.639 312.778 255.222V257.333H266.333V255.222Z" fill="#D4D4D4"/>
<path d="M273.01 255.468C273.036 255.325 273.16 255.222 273.305 255.222H280.521C280.669 255.222 280.794 255.329 280.817 255.475L281.111 257.333H272.667L273.01 255.468Z" fill="white"/>
<path d="M260 285.833H319.111V286.889C319.111 288.055 318.166 289 317 289H262.111C260.945 289 260 288.055 260 286.889V285.833Z" fill="#B2B2B2"/>
<path d="M266.333 257.333H312.778V280.555C312.778 281.138 312.305 281.611 311.722 281.611H267.389C266.806 281.611 266.333 281.138 266.333 280.555V257.333Z" fill="white"/>
<path d="M204.102 244C205.116 244 205.939 244.822 205.939 245.837L205.939 287.163C205.939 288.178 205.116 289 204.102 289L193.775 289C192.761 289 191.939 288.178 191.939 287.163L191.939 245.837C191.939 244.822 192.761 244 193.775 244L204.102 244Z" fill="#B3B3B3"/>
<path d="M205.939 251L205.939 254L200.439 254C199.61 254 198.939 253.328 198.939 252.5V252.5C198.939 251.672 199.61 251 200.439 251L205.939 251Z" fill="#D9D9D9"/>
<path d="M205.939 258L205.939 261L200.439 261C199.61 261 198.939 260.328 198.939 259.5V259.5C198.939 258.672 199.61 258 200.439 258L205.939 258Z" fill="#D9D9D9"/>
<path d="M205.939 265L205.939 268L200.439 268C199.61 268 198.939 267.328 198.939 266.5V266.5C198.939 265.672 199.61 265 200.439 265L205.939 265Z" fill="#D9D9D9"/>
<path d="M205.939 272L205.939 275L200.439 275C199.61 275 198.939 274.328 198.939 273.5V273.5C198.939 272.672 199.61 272 200.439 272L205.939 272Z" fill="#D9D9D9"/>
<path d="M187.918 289H209.959C210.466 289 210.878 288.589 210.878 288.082V287.006C210.878 286.519 210.684 286.051 210.34 285.707L206.824 282.191C206.479 281.847 206.012 281.653 205.525 281.653H192.353C191.866 281.653 191.398 281.847 191.054 282.191L187.538 285.707C187.194 286.051 187 286.519 187 287.006V288.082C187 288.589 187.411 289 187.918 289Z" fill="#B2B2B2"/>
<path d="M240.533 208.796H242.171V216.544H246.084V218H240.533V208.796ZM250.059 208.796H251.476L255.441 218H253.569L252.711 215.894H248.72L247.888 218H246.055L250.059 208.796ZM252.139 214.49L250.722 210.746L249.279 214.49H252.139ZM256.351 208.796H258.522L262.799 215.686H262.825V208.796H264.463V218H262.383L258.015 210.889H257.989V218H256.351V208.796Z" fill="#212121"/>
<path d="M274.5 214H344C345.657 214 347 215.343 347 217V334C347 335.657 345.657 337 344 337H161C159.343 337 158 335.657 158 334V217C158 215.343 159.343 214 161 214H230" stroke="#D9D9D9" stroke-linecap="round"/>
<circle cx="81" cy="269" r="20" fill="#D9D9D9" stroke="#B2B2B2" stroke-width="2"/>
<path d="M81 249V289" stroke="#B2B2B2" stroke-width="2"/>
<path d="M101 269L61 269" stroke="#B2B2B2" stroke-width="2"/>
<path d="M98.6921 259L63.3075 259" stroke="#B2B2B2" stroke-width="2"/>
<path d="M98.6921 279L63.3075 279" stroke="#B2B2B2" stroke-width="2"/>
<path d="M80.9984 249C67.1538 257.846 66.7692 280.154 80.9984 289" stroke="#B2B2B2" stroke-width="2"/>
<path d="M81.7694 249C95.614 257.846 95.9986 280.154 81.7694 289" stroke="#B2B2B2" stroke-width="2"/>
<path d="M77.228 143.12C77.258 142.91 77.258 142.91 77.338 142.63C77.358 142.54 77.408 142.36 77.478 142.08L79.078 136.35C79.238 135.77 79.328 135.5 79.468 135.16H77.868C77.858 135.44 77.798 135.85 77.698 136.23L76.768 140C76.748 140.09 76.668 140.48 76.638 140.64C76.578 140.99 76.578 140.99 76.528 141.22C76.368 140.47 76.318 140.27 76.248 140.01L75.128 136.16C75.018 135.79 74.928 135.4 74.898 135.16H73.668C73.638 135.43 73.568 135.76 73.448 136.18L72.338 140.04C72.258 140.32 72.188 140.6 72.058 141.22C71.998 140.87 71.888 140.36 71.818 140.05L70.888 136.24C70.778 135.8 70.728 135.5 70.708 135.16H69.108C69.238 135.46 69.338 135.77 69.508 136.35L71.098 142.09C71.318 142.87 71.318 142.87 71.368 143.12H72.698C72.728 142.88 72.808 142.56 72.928 142.11L73.988 138.39C74.078 138.07 74.178 137.68 74.288 137.11C74.378 137.62 74.468 138 74.578 138.39L75.648 142.11C75.748 142.45 75.848 142.88 75.888 143.12H77.228ZM85.5742 140.58C85.5542 140.35 85.5542 140.32 85.5542 140.3C85.5242 139.62 85.4542 139.26 85.2642 138.78C84.8642 137.78 83.9442 137.2 82.7742 137.2C81.0642 137.2 79.9542 138.41 79.9542 140.26C79.9542 142.13 81.0742 143.31 82.8442 143.31C83.6842 143.31 84.3842 143.05 84.9042 142.54C85.1542 142.29 85.2842 142.1 85.5142 141.62L84.3342 141.24C84.2342 141.51 84.1642 141.62 84.0442 141.76C83.7542 142.08 83.3342 142.26 82.8442 142.26C82.3342 142.26 81.8842 142.06 81.5942 141.7C81.3642 141.41 81.2742 141.13 81.2242 140.58H85.5742ZM81.2542 139.59C81.4042 138.75 81.9742 138.23 82.7542 138.23C83.2242 138.23 83.5642 138.36 83.8342 138.63C84.0842 138.88 84.2042 139.15 84.2742 139.59H81.2542ZM87.8914 143.12V142.63C87.8914 142.51 87.8914 142.4 87.8814 142.27C88.3814 142.97 88.9514 143.26 89.8714 143.26C90.6814 143.26 91.3214 143.02 91.7914 142.54C92.3314 141.98 92.6114 141.18 92.6114 140.2C92.6114 138.34 91.6214 137.25 89.9414 137.25C89.0214 137.25 88.4014 137.56 87.8814 138.26C87.8914 137.92 87.9014 137.67 87.9014 137.51V136.51C87.9014 135.91 87.9214 135.58 87.9714 135.16H86.5614C86.6114 135.64 86.6314 135.99 86.6314 136.5V141.77C86.6314 142.36 86.6114 142.68 86.5614 143.12H87.8914ZM91.3114 140.2C91.3114 141.41 90.6614 142.19 89.6514 142.19C89.2814 142.19 88.8914 142.05 88.6014 141.82C88.2014 141.5 87.9414 140.87 87.9414 140.24C87.9414 139.72 88.1314 139.18 88.4314 138.85C88.7614 138.49 89.2314 138.3 89.7914 138.3C90.7114 138.3 91.3114 139.05 91.3114 140.2ZM65.0416 151.84V150.81C65.0416 150.3 65.0416 150.28 65.0816 149.95H63.7716C63.8116 150.21 63.8216 150.42 63.8216 150.84V151.84H63.2316C62.5216 151.84 62.3216 151.83 61.9316 151.77V152.99C62.2816 152.95 62.5516 152.94 63.2116 152.94H63.8216V154.42C63.8216 154.79 63.8116 155.06 63.7816 155.28H65.0816C65.0516 155.02 65.0416 154.86 65.0416 154.44V152.94H67.6316C67.6116 153.63 67.6116 153.87 67.5916 154.1C67.5016 155.25 67.2116 155.91 66.5316 156.5C66.0516 156.92 65.5716 157.16 64.6216 157.45C65.0516 157.89 65.1816 158.08 65.3716 158.51C66.2916 158.18 66.7816 157.92 67.3216 157.46C68.1916 156.72 68.6216 155.87 68.7616 154.59C68.8116 154.21 68.8116 154.14 68.8316 152.94H69.5016C70.1616 152.94 70.4316 152.95 70.7816 152.99V151.77C70.3916 151.83 70.1916 151.84 69.4816 151.84H68.8416C68.8516 151.24 68.8516 151.24 68.8516 150.63C68.8516 150.24 68.8616 150.19 68.8916 149.96H67.6016C67.6416 150.19 67.6516 150.41 67.6516 151.07V151.39L67.6416 151.84H65.0416ZM72.0616 154.86C72.4616 154.81 72.5716 154.81 73.6916 154.81H79.0016C80.1216 154.81 80.2316 154.81 80.6316 154.86V153.47C80.1916 153.53 80.0016 153.54 79.0116 153.54H73.6816C72.6916 153.54 72.5016 153.53 72.0616 153.47V154.86ZM83.8188 150.51C83.8188 150.57 83.8188 150.62 83.8188 150.65C83.8188 150.87 83.7888 151.21 83.7288 151.62C83.5688 152.88 83.2188 154.12 82.7888 155.05C82.3688 155.97 81.9588 156.58 81.3588 157.18C81.8388 157.44 82.0288 157.59 82.4988 158.04C83.8388 156.5 84.6188 154.53 85.0388 151.66L85.0688 151.42L85.1188 151.13L85.1388 150.96C85.1488 150.88 85.1588 150.87 85.1888 150.76L83.8188 150.51ZM86.7888 150.75C86.8388 150.9 86.8688 151.06 86.9288 151.47C87.3188 154.16 88.2488 156.46 89.5788 158.05C89.9588 157.62 90.1688 157.45 90.6788 157.13C89.6388 156.01 88.9388 154.66 88.4488 152.81C88.2188 151.95 88.0388 150.97 88.0288 150.51L86.7888 150.75ZM88.1288 150.13C88.5088 150.69 88.7188 151.12 88.9488 151.76L89.7088 151.52C89.4688 150.85 89.2488 150.43 88.8788 149.91L88.1288 150.13ZM91.0188 151.12C90.7988 150.52 90.5788 150.1 90.1988 149.57L89.4588 149.78C89.7788 150.24 90.0288 150.74 90.2588 151.36L91.0188 151.12ZM91.3584 154.86C91.7584 154.81 91.8684 154.81 92.9884 154.81H98.2984C99.4184 154.81 99.5284 154.81 99.9284 154.86V153.47C99.4884 153.53 99.2984 153.54 98.3084 153.54H92.9784C91.9884 153.54 91.7984 153.53 91.3584 153.47V154.86Z" fill="#212121"/>
<path d="M158.69 135.35C158.41 135.43 158.32 135.44 157.72 135.44H152.5C151.81 135.44 151.5 135.42 151.12 135.36V136.61C151.53 136.56 151.78 136.55 152.48 136.55H157.73C157.5 137.03 157.19 137.44 156.78 137.82C156.37 138.21 155.99 138.44 155.32 138.74C155.77 139.08 155.92 139.23 156.22 139.65C156.69 139.39 157.02 139.17 157.42 138.82C158.03 138.3 158.61 137.55 158.96 136.81C159.22 136.29 159.22 136.28 159.36 136.11L158.69 135.35ZM153.94 137.37C153.98 137.58 153.99 137.67 153.99 137.97C153.99 139.86 153.67 140.72 152.65 141.53C152.16 141.92 151.71 142.14 150.9 142.38C151.3 142.8 151.43 142.98 151.69 143.52C152.94 143 153.67 142.49 154.27 141.72C154.95 140.85 155.22 139.89 155.26 138.18C155.27 137.57 155.27 137.56 155.3 137.37H153.94ZM162.37 135.73C161.69 135.73 161.45 135.72 161.09 135.66V136.96C161.42 136.91 161.61 136.9 162.35 136.9H167.11C166.47 139.56 164.66 141.42 161.89 142.28C162.34 142.72 162.51 142.95 162.77 143.47C165.93 142.15 167.7 140.11 168.51 136.84C168.58 136.85 168.64 136.86 168.7 136.86C169.34 136.86 169.86 136.34 169.86 135.7C169.86 135.07 169.34 134.55 168.7 134.55C168.06 134.55 167.56 135.06 167.55 135.71C167.38 135.72 167.26 135.73 166.96 135.73H162.37ZM168.7 135.05C169.07 135.05 169.36 135.34 169.36 135.7C169.36 136.06 169.07 136.36 168.7 136.36C168.34 136.36 168.05 136.06 168.05 135.7C168.05 135.34 168.34 135.05 168.7 135.05ZM172.04 135.11C172.07 135.37 172.08 135.5 172.08 136.01V138.76C172.08 139.12 172.06 139.43 172.03 139.66H173.4C173.36 139.41 173.36 139.28 173.36 138.78V136.02C173.36 135.49 173.36 135.4 173.4 135.12L172.04 135.11ZM176.55 135.13C176.59 135.36 176.6 135.57 176.6 136.08V137.33C176.6 138.13 176.59 138.57 176.55 139C176.44 140.32 176.11 140.93 175.17 141.55C174.57 141.95 173.99 142.16 173.01 142.35C173.43 142.88 173.53 143.05 173.71 143.54C174.63 143.27 175.13 143.07 175.66 142.77C176.7 142.19 177.34 141.44 177.63 140.44C177.81 139.81 177.88 138.97 177.89 137.41V136.06C177.89 135.49 177.9 135.38 177.94 135.13H176.55ZM188.02 137.73C188.33 137.74 188.55 137.74 188.68 137.74C189.03 137.74 189.03 137.74 189.29 137.77V136.54C188.87 136.59 188.75 136.6 188.03 136.6C183.95 136.6 183.95 136.6 183.66 136.61C183.78 136.36 183.88 136.14 183.96 135.96C184.26 135.26 184.26 135.26 184.34 135.1L183.04 134.79C182.96 135.23 182.84 135.6 182.54 136.22C182.01 137.36 181.35 138.22 180.43 138.97C180.91 139.23 181.07 139.35 181.45 139.76C182.17 139.1 182.53 138.66 183.11 137.73H185.51C185.41 139.43 184.99 140.46 184.08 141.27C183.49 141.79 182.91 142.12 182.05 142.42C182.48 142.81 182.63 143.01 182.88 143.52C184.12 142.95 184.84 142.44 185.48 141.69C186.27 140.75 186.64 139.69 186.77 137.99C186.78 137.83 186.78 137.83 186.79 137.73H188.02ZM190.71 139.86C191.11 139.81 191.22 139.81 192.34 139.81H197.65C198.77 139.81 198.88 139.81 199.28 139.86V138.47C198.84 138.53 198.65 138.54 197.66 138.54H192.33C191.34 138.54 191.15 138.53 190.71 138.47V139.86ZM201.91 136.07C202.78 136.37 203.67 136.84 204.58 137.45L205.22 136.35C204.38 135.84 203.59 135.46 202.56 135.06L201.91 136.07ZM201.12 138.5C202.14 138.9 203.03 139.38 203.83 139.97L204.45 138.84C203.59 138.28 202.82 137.89 201.79 137.48L201.12 138.5ZM201.69 143.32C201.89 143.26 202.03 143.23 202.39 143.16C204.85 142.67 206.55 141.78 207.82 140.32C208.44 139.59 208.86 138.9 209.32 137.79C208.84 137.46 208.69 137.33 208.28 136.9C207.97 137.79 207.66 138.39 207.12 139.11C206.32 140.18 205.47 140.83 204.23 141.31C203.19 141.71 202.1 141.95 201.34 141.96L201.69 143.32ZM216.69 143.16V143.63H217.84C217.81 143.4 217.8 143.25 217.8 142.87V138.29C217.8 137.85 217.81 137.6 217.83 137.24C217.54 137.27 217.26 137.28 216.9 137.28H212.96C212.56 137.28 212.34 137.26 212.06 137.21V138.32C212.32 138.29 212.47 138.28 212.96 138.28H216.7V139.67H213.22C212.82 139.67 212.59 139.65 212.32 139.6V140.69C212.57 140.66 212.72 140.65 213.22 140.65H216.7V142.16H212.86C212.47 142.16 212.23 142.14 211.96 142.09V143.2C212.21 143.17 212.36 143.16 212.86 143.16H216.69ZM221.22 136.58C222.15 137.1 222.97 137.76 223.77 138.61L224.63 137.52C223.86 136.79 223.24 136.33 222.05 135.59L221.22 136.58ZM221.57 143.18C221.8 143.1 221.83 143.09 222.23 143.01C223.78 142.68 225.02 142.19 226.04 141.51C227.41 140.6 228.36 139.42 229.21 137.59C228.7 137.23 228.54 137.08 228.15 136.61C227.85 137.42 227.57 137.97 227.13 138.61C226.34 139.75 225.41 140.52 224.16 141.06C223.25 141.46 222.06 141.75 221.2 141.8L221.57 143.18ZM174.042 151.84V150.81C174.042 150.3 174.042 150.28 174.082 149.95H172.772C172.812 150.21 172.822 150.42 172.822 150.84V151.84H172.232C171.522 151.84 171.322 151.83 170.932 151.77V152.99C171.282 152.95 171.552 152.94 172.212 152.94H172.822V154.42C172.822 154.79 172.812 155.06 172.782 155.28H174.082C174.052 155.02 174.042 154.86 174.042 154.44V152.94H176.632C176.612 153.63 176.612 153.87 176.592 154.1C176.502 155.25 176.212 155.91 175.532 156.5C175.052 156.92 174.572 157.16 173.622 157.45C174.052 157.89 174.182 158.08 174.372 158.51C175.292 158.18 175.782 157.92 176.322 157.46C177.192 156.72 177.622 155.87 177.762 154.59C177.812 154.21 177.812 154.14 177.832 152.94H178.502C179.162 152.94 179.432 152.95 179.782 152.99V151.77C179.392 151.83 179.192 151.84 178.482 151.84H177.842C177.852 151.24 177.852 151.24 177.852 150.63C177.852 150.24 177.862 150.19 177.892 149.96H176.602C176.642 150.19 176.652 150.41 176.652 151.07V151.39L176.642 151.84H174.042ZM181.062 154.86C181.462 154.81 181.572 154.81 182.692 154.81H188.002C189.122 154.81 189.232 154.81 189.632 154.86V153.47C189.192 153.53 189.002 153.54 188.012 153.54H182.682C181.692 153.54 181.502 153.53 181.062 153.47V154.86ZM192.819 150.51C192.819 150.57 192.819 150.62 192.819 150.65C192.819 150.87 192.789 151.21 192.729 151.62C192.569 152.88 192.219 154.12 191.789 155.05C191.369 155.97 190.959 156.58 190.359 157.18C190.839 157.44 191.029 157.59 191.499 158.04C192.839 156.5 193.619 154.53 194.039 151.66L194.069 151.42L194.119 151.13L194.139 150.96C194.149 150.88 194.159 150.87 194.189 150.76L192.819 150.51ZM195.789 150.75C195.839 150.9 195.869 151.06 195.929 151.47C196.319 154.16 197.249 156.46 198.579 158.05C198.959 157.62 199.169 157.45 199.679 157.13C198.639 156.01 197.939 154.66 197.449 152.81C197.219 151.95 197.039 150.97 197.029 150.51L195.789 150.75ZM197.129 150.13C197.509 150.69 197.719 151.12 197.949 151.76L198.709 151.52C198.469 150.85 198.249 150.43 197.879 149.91L197.129 150.13ZM200.019 151.12C199.799 150.52 199.579 150.1 199.199 149.57L198.459 149.78C198.779 150.24 199.029 150.74 199.259 151.36L200.019 151.12ZM200.358 154.86C200.758 154.81 200.868 154.81 201.988 154.81H207.298C208.418 154.81 208.528 154.81 208.928 154.86V153.47C208.488 153.53 208.298 153.54 207.308 153.54H201.978C200.988 153.54 200.798 153.53 200.358 153.47V154.86Z" fill="#212121"/>
<path d="M274.021 135.29C273.691 135.35 273.491 135.36 272.731 135.36H269.791C269.041 135.36 268.841 135.35 268.501 135.29V136.51C268.821 136.47 268.951 136.46 269.771 136.46H272.751C273.571 136.46 273.711 136.47 274.021 136.51V135.29ZM274.651 138.96C275.431 138.96 275.581 138.97 275.921 139.01V137.82C275.571 137.88 275.371 137.89 274.631 137.89H268.781C268.041 137.89 267.841 137.88 267.491 137.82V139.01C267.831 138.97 267.981 138.96 268.761 138.96H271.191C271.121 140.9 270.341 141.89 268.381 142.51C268.791 142.9 268.961 143.12 269.201 143.62C271.461 142.75 272.401 141.43 272.511 138.96H274.651ZM276.771 135.77C276.531 135.18 276.291 134.78 275.891 134.25L275.171 134.51C275.511 134.98 275.801 135.49 276.031 136.06L276.771 135.77ZM273.861 134.9C274.231 135.42 274.461 135.83 274.741 136.5L275.491 136.22C275.211 135.56 274.981 135.16 274.601 134.64L273.861 134.9ZM277.511 139.86C277.911 139.81 278.021 139.81 279.141 139.81H284.451C285.571 139.81 285.681 139.81 286.081 139.86V138.47C285.641 138.53 285.451 138.54 284.461 138.54H279.131C278.141 138.54 277.951 138.53 277.511 138.47V139.86ZM294.911 135.82C294.651 135.91 294.441 135.93 294.031 135.94C291.591 135.96 291.591 135.96 291.431 135.98C291.481 135.89 291.551 135.77 291.671 135.5C291.861 135.12 291.861 135.12 291.971 134.94L290.671 134.65C290.581 135.02 290.381 135.51 290.091 136.04C289.481 137.16 288.681 138.07 287.581 138.89C288.101 139.19 288.251 139.32 288.581 139.69C289.591 138.84 290.301 138.03 290.921 137L294.031 136.97C293.721 137.91 293.381 138.61 292.911 139.33C292.161 138.74 291.741 138.46 290.901 137.99L290.141 138.88C290.891 139.29 291.491 139.71 292.191 140.31C291.681 140.88 291.261 141.24 290.551 141.7C289.951 142.1 289.451 142.35 288.601 142.7C288.981 143.02 289.111 143.19 289.431 143.73C291.561 142.75 292.971 141.57 293.991 139.91C294.401 139.24 294.951 138.07 295.271 137.16C295.431 136.7 295.451 136.66 295.581 136.49L294.911 135.82ZM297.728 141.06C297.868 140.89 297.908 140.84 298.068 140.65C298.608 140.01 299.448 138.97 299.858 138.42C300.268 137.87 300.308 137.84 300.468 137.84C300.638 137.84 300.638 137.84 301.278 138.54C303.128 140.55 303.638 141.06 305.508 142.76L306.138 141.39C305.918 141.26 305.758 141.14 305.188 140.64C304.068 139.68 303.138 138.76 301.948 137.45C301.188 136.59 300.958 136.43 300.458 136.43C300.218 136.43 299.988 136.49 299.778 136.62C299.578 136.75 299.368 136.97 299.028 137.41C297.688 139.09 297.168 139.68 296.878 139.83L297.728 141.06ZM302.968 136.34C303.408 136.82 303.688 137.22 304.018 137.83L304.718 137.46C304.378 136.84 304.108 136.46 303.668 135.99L302.968 136.34ZM305.908 136.81C305.598 136.24 305.328 135.86 304.868 135.4L304.198 135.75C304.588 136.18 304.918 136.65 305.218 137.2L305.908 136.81ZM306.905 139.86C307.305 139.81 307.415 139.81 308.535 139.81H313.845C314.965 139.81 315.075 139.81 315.475 139.86V138.47C315.035 138.53 314.845 138.54 313.855 138.54H308.525C307.535 138.54 307.345 138.53 306.905 138.47V139.86ZM324.529 142.29C323.319 141.12 323.319 141.12 323.069 140.9C322.389 140.29 321.849 139.87 321.219 139.45C321.829 138.63 322.319 137.76 322.779 136.69C322.889 136.44 322.969 136.3 323.099 136.15L322.439 135.47C322.189 135.56 322.109 135.57 321.549 135.58L318.029 135.63C317.909 135.63 317.829 135.63 317.789 135.63C317.379 135.63 317.189 135.62 316.909 135.57L316.949 136.85C317.289 136.8 317.559 136.78 318.039 136.77C321.189 136.72 321.189 136.72 321.349 136.71L321.239 136.97C320.589 138.53 319.389 139.98 317.879 141.04C317.129 141.57 316.649 141.84 315.879 142.14C316.289 142.57 316.409 142.73 316.689 143.25C318.219 142.5 319.369 141.62 320.499 140.36C321.589 141.19 322.739 142.31 323.569 143.33L324.529 142.29ZM280.042 151.84V150.81C280.042 150.3 280.042 150.28 280.082 149.95H278.772C278.812 150.21 278.822 150.42 278.822 150.84V151.84H278.232C277.522 151.84 277.322 151.83 276.932 151.77V152.99C277.282 152.95 277.552 152.94 278.212 152.94H278.822V154.42C278.822 154.79 278.812 155.06 278.782 155.28H280.082C280.052 155.02 280.042 154.86 280.042 154.44V152.94H282.632C282.612 153.63 282.612 153.87 282.592 154.1C282.502 155.25 282.212 155.91 281.532 156.5C281.052 156.92 280.572 157.16 279.622 157.45C280.052 157.89 280.182 158.08 280.372 158.51C281.292 158.18 281.782 157.92 282.322 157.46C283.192 156.72 283.622 155.87 283.762 154.59C283.812 154.21 283.812 154.14 283.832 152.94H284.502C285.162 152.94 285.432 152.95 285.782 152.99V151.77C285.392 151.83 285.192 151.84 284.482 151.84H283.842C283.852 151.24 283.852 151.24 283.852 150.63C283.852 150.24 283.862 150.19 283.892 149.96H282.602C282.642 150.19 282.652 150.41 282.652 151.07V151.39L282.642 151.84H280.042ZM287.062 154.86C287.462 154.81 287.572 154.81 288.692 154.81H294.002C295.122 154.81 295.232 154.81 295.632 154.86V153.47C295.192 153.53 295.002 153.54 294.012 153.54H288.682C287.692 153.54 287.502 153.53 287.062 153.47V154.86ZM298.819 150.51C298.819 150.57 298.819 150.62 298.819 150.65C298.819 150.87 298.789 151.21 298.729 151.62C298.569 152.88 298.219 154.12 297.789 155.05C297.369 155.97 296.959 156.58 296.359 157.18C296.839 157.44 297.029 157.59 297.499 158.04C298.839 156.5 299.619 154.53 300.039 151.66L300.069 151.42L300.119 151.13L300.139 150.96C300.149 150.88 300.159 150.87 300.189 150.76L298.819 150.51ZM301.789 150.75C301.839 150.9 301.869 151.06 301.929 151.47C302.319 154.16 303.249 156.46 304.579 158.05C304.959 157.62 305.169 157.45 305.679 157.13C304.639 156.01 303.939 154.66 303.449 152.81C303.219 151.95 303.039 150.97 303.029 150.51L301.789 150.75ZM303.129 150.13C303.509 150.69 303.719 151.12 303.949 151.76L304.709 151.52C304.469 150.85 304.249 150.43 303.879 149.91L303.129 150.13ZM306.019 151.12C305.799 150.52 305.579 150.1 305.199 149.57L304.459 149.78C304.779 150.24 305.029 150.74 305.259 151.36L306.019 151.12ZM306.358 154.86C306.758 154.81 306.868 154.81 307.988 154.81H313.298C314.418 154.81 314.528 154.81 314.928 154.86V153.47C314.488 153.53 314.298 153.54 313.308 153.54H307.978C306.988 153.54 306.798 153.53 306.358 153.47V154.86Z" fill="#212121"/>
<path d="M53.64 298.88C53.35 299.37 52.67 300.06 51.78 300.75C50.19 301.98 48.51 302.81 46.53 303.35C46.88 303.8 46.99 303.97 47.2 304.49C49.04 303.83 49.6 303.57 50.77 302.87V306.39C50.77 306.98 50.76 307.18 50.71 307.47H52.11C52.07 307.2 52.06 306.91 52.06 306.36V302.09C52.92 301.46 53.67 300.81 54.42 300.03C54.57 299.87 54.62 299.83 54.79 299.68L53.64 298.88ZM57.22 300.58C58.15 301.1 58.97 301.76 59.77 302.61L60.63 301.52C59.86 300.79 59.24 300.33 58.05 299.59L57.22 300.58ZM57.57 307.18C57.8 307.1 57.83 307.09 58.23 307.01C59.78 306.68 61.02 306.19 62.04 305.51C63.41 304.6 64.36 303.42 65.21 301.59C64.7 301.23 64.54 301.08 64.15 300.61C63.85 301.42 63.57 301.97 63.13 302.61C62.34 303.75 61.41 304.52 60.16 305.06C59.25 305.46 58.06 305.75 57.2 305.8L57.57 307.18ZM74.11 299.82C73.85 299.91 73.64 299.93 73.23 299.94C70.79 299.96 70.79 299.96 70.63 299.98C70.68 299.89 70.75 299.77 70.87 299.5C71.06 299.12 71.06 299.12 71.17 298.94L69.87 298.65C69.78 299.02 69.58 299.51 69.29 300.04C68.68 301.16 67.88 302.07 66.78 302.89C67.3 303.19 67.45 303.32 67.78 303.69C68.79 302.84 69.5 302.03 70.12 301L73.23 300.97C72.92 301.91 72.58 302.61 72.11 303.33C71.36 302.74 70.94 302.46 70.1 301.99L69.34 302.88C70.09 303.29 70.69 303.71 71.39 304.31C70.88 304.88 70.46 305.24 69.75 305.7C69.15 306.1 68.65 306.35 67.8 306.7C68.18 307.02 68.31 307.19 68.63 307.73C70.76 306.75 72.17 305.57 73.19 303.91C73.6 303.24 74.15 302.07 74.47 301.16C74.63 300.7 74.65 300.66 74.78 300.49L74.11 299.82ZM76.71 303.86C77.11 303.81 77.22 303.81 78.34 303.81H83.65C84.77 303.81 84.88 303.81 85.28 303.86V302.47C84.84 302.53 84.65 302.54 83.66 302.54H78.33C77.34 302.54 77.15 302.53 76.71 302.47V303.86ZM91.57 307.64C91.52 307.35 91.52 307.19 91.52 306.75V304.55C91.52 304.46 91.51 304.18 91.5 304.06C91.6 304.11 91.62 304.11 91.75 304.17C93 304.7 93.78 305.11 94.8 305.77L95.46 304.72C94.27 304.02 93.18 303.53 91.97 303.15C92.93 302.4 93.45 301.93 94.01 301.28C94.27 300.99 94.28 300.98 94.45 300.85L93.87 300.17C93.68 300.23 93.49 300.26 93.19 300.26H91.5V299.43C91.5 299.1 91.51 298.92 91.55 298.73H90.21C90.25 298.94 90.25 299.08 90.26 299.45V300.27H88.59C88.16 300.27 87.78 300.24 87.52 300.18V301.39C87.89 301.35 88 301.34 88.58 301.34C92.18 301.32 92.18 301.32 92.24 301.31C92.37 301.31 92.37 301.31 92.45 301.31C91.59 302.17 90.51 302.9 89.35 303.43C88.34 303.89 87.56 304.15 86.57 304.36C86.88 304.8 86.97 304.97 87.16 305.45C88.38 305.07 89.23 304.73 89.98 304.33C90.11 304.26 90.18 304.22 90.28 304.14C90.28 304.41 90.28 304.58 90.28 304.65V306.75C90.28 307.08 90.26 307.37 90.22 307.64H91.57ZM97.6 301.56C98.05 302.44 98.25 302.97 98.51 303.98L99.64 303.62C99.28 302.5 99.08 302.02 98.66 301.25L97.6 301.56ZM99.74 301.14C100.16 301.96 100.46 302.73 100.65 303.49L101.76 303.14C101.51 302.27 101.32 301.83 100.79 300.84L99.74 301.14ZM103.18 301.04C103.18 301.35 103.13 301.7 103 302.19C102.57 303.79 101.9 304.81 100.73 305.66C100.14 306.09 99.73 306.31 99.03 306.58C99.45 306.98 99.57 307.13 99.83 307.57C101.31 306.82 102.14 306.17 102.88 305.16C103.52 304.29 103.97 303.19 104.26 301.83C104.32 301.52 104.34 301.47 104.4 301.32L103.18 301.04ZM110.02 307.45C109.99 307.12 109.98 306.86 109.98 306.34V303.7C109.98 303.42 109.97 303.3 109.94 303.02C110.02 303.07 110.05 303.08 110.28 303.19C111.95 303.96 112.99 304.53 113.82 305.1L114.52 303.92C112.92 303.02 111.35 302.29 109.98 301.81V299.95C109.98 299.33 109.98 299.2 110.02 298.9H108.65C108.69 299.17 108.71 299.43 108.71 299.92V306.33C108.71 306.86 108.7 307.13 108.65 307.45H110.02Z" fill="#212121"/>
<path d="M109.28 28.796H110.918V36.544H114.831V38H109.28V28.796ZM118.806 28.796H120.223L124.188 38H122.316L121.458 35.894H117.467L116.635 38H114.802L118.806 28.796ZM120.886 34.49L119.469 30.746L118.026 34.49H120.886ZM125.099 28.796H127.27L131.547 35.686H131.573V28.796H133.211V38H131.131L126.763 30.889H126.737V38H125.099V28.796ZM139.337 33.06C139.337 35.842 140.494 37.922 141.898 39.3L143.133 38.754C141.833 37.35 140.806 35.556 140.806 33.06C140.806 30.564 141.833 28.77 143.133 27.366L141.898 26.82C140.494 28.198 139.337 30.278 139.337 33.06ZM144.732 28.796H146.37V36.544H150.283V38H144.732V28.796ZM150.701 34.854C150.701 34.36 150.788 33.9137 150.961 33.515C151.143 33.1077 151.386 32.761 151.689 32.475C151.993 32.189 152.352 31.968 152.768 31.812C153.184 31.656 153.626 31.578 154.094 31.578C154.562 31.578 155.004 31.656 155.42 31.812C155.836 31.968 156.196 32.189 156.499 32.475C156.803 32.761 157.041 33.1077 157.214 33.515C157.396 33.9137 157.487 34.36 157.487 34.854C157.487 35.348 157.396 35.7987 157.214 36.206C157.041 36.6133 156.803 36.9643 156.499 37.259C156.196 37.545 155.836 37.7703 155.42 37.935C155.004 38.0997 154.562 38.182 154.094 38.182C153.626 38.182 153.184 38.0997 152.768 37.935C152.352 37.7703 151.993 37.545 151.689 37.259C151.386 36.9643 151.143 36.6133 150.961 36.206C150.788 35.7987 150.701 35.348 150.701 34.854ZM152.287 34.854C152.287 35.0967 152.322 35.3393 152.391 35.582C152.469 35.8247 152.582 36.0413 152.729 36.232C152.877 36.4227 153.063 36.5787 153.288 36.7C153.514 36.8213 153.782 36.882 154.094 36.882C154.406 36.882 154.675 36.8213 154.9 36.7C155.126 36.5787 155.312 36.4227 155.459 36.232C155.607 36.0413 155.715 35.8247 155.784 35.582C155.862 35.3393 155.901 35.0967 155.901 34.854C155.901 34.6113 155.862 34.373 155.784 34.139C155.715 33.8963 155.607 33.6797 155.459 33.489C155.312 33.2983 155.126 33.1467 154.9 33.034C154.675 32.9127 154.406 32.852 154.094 32.852C153.782 32.852 153.514 32.9127 153.288 33.034C153.063 33.1467 152.877 33.2983 152.729 33.489C152.582 33.6797 152.469 33.8963 152.391 34.139C152.322 34.373 152.287 34.6113 152.287 34.854ZM163.264 33.489C163.143 33.3157 162.961 33.1727 162.718 33.06C162.475 32.9387 162.228 32.878 161.977 32.878C161.691 32.878 161.44 32.9387 161.223 33.06C161.006 33.1727 160.824 33.3243 160.677 33.515C160.538 33.7057 160.434 33.9223 160.365 34.165C160.296 34.399 160.261 34.6373 160.261 34.88C160.261 35.1227 160.296 35.3653 160.365 35.608C160.443 35.842 160.556 36.0543 160.703 36.245C160.85 36.4357 161.032 36.5917 161.249 36.713C161.474 36.8257 161.734 36.882 162.029 36.882C162.272 36.882 162.514 36.8343 162.757 36.739C163 36.6437 163.195 36.505 163.342 36.323L164.317 37.311C164.057 37.5883 163.723 37.805 163.316 37.961C162.917 38.1083 162.484 38.182 162.016 38.182C161.557 38.182 161.119 38.1083 160.703 37.961C160.296 37.8137 159.936 37.597 159.624 37.311C159.321 37.025 159.078 36.6783 158.896 36.271C158.723 35.8637 158.636 35.4 158.636 34.88C158.636 34.3773 158.723 33.9223 158.896 33.515C159.078 33.1077 159.321 32.761 159.624 32.475C159.927 32.189 160.278 31.968 160.677 31.812C161.084 31.656 161.518 31.578 161.977 31.578C162.436 31.578 162.878 31.6647 163.303 31.838C163.736 32.0113 164.079 32.2497 164.33 32.553L163.264 33.489ZM169.221 37.207H169.182C169.026 37.4843 168.775 37.714 168.428 37.896C168.082 38.0693 167.687 38.156 167.245 38.156C166.994 38.156 166.73 38.1213 166.452 38.052C166.184 37.9913 165.932 37.8873 165.698 37.74C165.473 37.584 165.282 37.3847 165.126 37.142C164.979 36.8907 164.905 36.583 164.905 36.219C164.905 35.751 165.035 35.3783 165.295 35.101C165.564 34.8237 165.906 34.6113 166.322 34.464C166.738 34.3167 167.198 34.2213 167.7 34.178C168.212 34.126 168.71 34.1 169.195 34.1V33.944C169.195 33.554 169.052 33.268 168.766 33.086C168.489 32.8953 168.155 32.8 167.765 32.8C167.436 32.8 167.12 32.8693 166.816 33.008C166.513 33.1467 166.262 33.3157 166.062 33.515L165.256 32.566C165.612 32.2367 166.019 31.9897 166.478 31.825C166.946 31.6603 167.419 31.578 167.895 31.578C168.45 31.578 168.905 31.656 169.26 31.812C169.624 31.968 169.91 32.1717 170.118 32.423C170.326 32.6743 170.469 32.956 170.547 33.268C170.634 33.58 170.677 33.892 170.677 34.204V38H169.221V37.207ZM169.195 35.153H168.844C168.593 35.153 168.329 35.166 168.051 35.192C167.774 35.2093 167.518 35.257 167.284 35.335C167.05 35.4043 166.855 35.5083 166.699 35.647C166.543 35.777 166.465 35.959 166.465 36.193C166.465 36.3403 166.496 36.466 166.556 36.57C166.626 36.6653 166.712 36.7433 166.816 36.804C166.92 36.8647 167.037 36.908 167.167 36.934C167.297 36.96 167.427 36.973 167.557 36.973C168.095 36.973 168.502 36.83 168.779 36.544C169.057 36.258 169.195 35.868 169.195 35.374V35.153ZM172.521 28.172H174.081V38H172.521V28.172ZM181.959 28.796H183.376L187.341 38H185.469L184.611 35.894H180.62L179.788 38H177.955L181.959 28.796ZM184.039 34.49L182.622 30.746L181.179 34.49H184.039ZM188.174 31.76H189.669V32.8H189.695C189.868 32.436 190.111 32.1413 190.423 31.916C190.735 31.6907 191.099 31.578 191.515 31.578C191.575 31.578 191.64 31.5823 191.71 31.591C191.779 31.591 191.84 31.5997 191.892 31.617V33.047C191.788 33.021 191.697 33.0037 191.619 32.995C191.549 32.9863 191.48 32.982 191.411 32.982C191.055 32.982 190.769 33.047 190.553 33.177C190.336 33.307 190.167 33.463 190.046 33.645C189.924 33.827 189.842 34.0133 189.799 34.204C189.755 34.3947 189.734 34.5463 189.734 34.659V38H188.174V31.76ZM197.075 34.256C197.075 34.0567 197.044 33.866 196.984 33.684C196.932 33.502 196.845 33.3417 196.724 33.203C196.602 33.0643 196.446 32.956 196.256 32.878C196.074 32.7913 195.857 32.748 195.606 32.748C195.138 32.748 194.739 32.891 194.41 33.177C194.089 33.4543 193.911 33.814 193.877 34.256H197.075ZM198.635 34.958C198.635 35.0273 198.635 35.0967 198.635 35.166C198.635 35.2353 198.63 35.3047 198.622 35.374H193.877C193.894 35.5993 193.95 35.8073 194.046 35.998C194.15 36.18 194.284 36.3403 194.449 36.479C194.613 36.609 194.8 36.713 195.008 36.791C195.216 36.869 195.432 36.908 195.658 36.908C196.048 36.908 196.377 36.8387 196.646 36.7C196.914 36.5527 197.135 36.3533 197.309 36.102L198.349 36.934C197.733 37.766 196.841 38.182 195.671 38.182C195.185 38.182 194.739 38.1083 194.332 37.961C193.924 37.805 193.569 37.5883 193.266 37.311C192.971 37.0337 192.737 36.6957 192.564 36.297C192.399 35.8897 192.317 35.4303 192.317 34.919C192.317 34.4163 192.399 33.9613 192.564 33.554C192.737 33.138 192.971 32.787 193.266 32.501C193.56 32.2063 193.907 31.981 194.306 31.825C194.713 31.6603 195.151 31.578 195.619 31.578C196.052 31.578 196.451 31.6517 196.815 31.799C197.187 31.9377 197.508 32.15 197.777 32.436C198.045 32.7133 198.253 33.0643 198.401 33.489C198.557 33.905 198.635 34.3947 198.635 34.958ZM203.943 37.207H203.904C203.748 37.4843 203.497 37.714 203.15 37.896C202.804 38.0693 202.409 38.156 201.967 38.156C201.716 38.156 201.452 38.1213 201.174 38.052C200.906 37.9913 200.654 37.8873 200.42 37.74C200.195 37.584 200.004 37.3847 199.848 37.142C199.701 36.8907 199.627 36.583 199.627 36.219C199.627 35.751 199.757 35.3783 200.017 35.101C200.286 34.8237 200.628 34.6113 201.044 34.464C201.46 34.3167 201.92 34.2213 202.422 34.178C202.934 34.126 203.432 34.1 203.917 34.1V33.944C203.917 33.554 203.774 33.268 203.488 33.086C203.211 32.8953 202.877 32.8 202.487 32.8C202.158 32.8 201.842 32.8693 201.538 33.008C201.235 33.1467 200.984 33.3157 200.784 33.515L199.978 32.566C200.334 32.2367 200.741 31.9897 201.2 31.825C201.668 31.6603 202.141 31.578 202.617 31.578C203.172 31.578 203.627 31.656 203.982 31.812C204.346 31.968 204.632 32.1717 204.84 32.423C205.048 32.6743 205.191 32.956 205.269 33.268C205.356 33.58 205.399 33.892 205.399 34.204V38H203.943V37.207ZM203.917 35.153H203.566C203.315 35.153 203.051 35.166 202.773 35.192C202.496 35.2093 202.24 35.257 202.006 35.335C201.772 35.4043 201.577 35.5083 201.421 35.647C201.265 35.777 201.187 35.959 201.187 36.193C201.187 36.3403 201.218 36.466 201.278 36.57C201.348 36.6653 201.434 36.7433 201.538 36.804C201.642 36.8647 201.759 36.908 201.889 36.934C202.019 36.96 202.149 36.973 202.279 36.973C202.817 36.973 203.224 36.83 203.501 36.544C203.779 36.258 203.917 35.868 203.917 35.374V35.153ZM210.545 28.796H212.716L216.993 35.686H217.019V28.796H218.657V38H216.577L212.209 30.889H212.183V38H210.545V28.796ZM225.004 34.256C225.004 34.0567 224.974 33.866 224.913 33.684C224.861 33.502 224.775 33.3417 224.653 33.203C224.532 33.0643 224.376 32.956 224.185 32.878C224.003 32.7913 223.787 32.748 223.535 32.748C223.067 32.748 222.669 32.891 222.339 33.177C222.019 33.4543 221.841 33.814 221.806 34.256H225.004ZM226.564 34.958C226.564 35.0273 226.564 35.0967 226.564 35.166C226.564 35.2353 226.56 35.3047 226.551 35.374H221.806C221.824 35.5993 221.88 35.8073 221.975 35.998C222.079 36.18 222.214 36.3403 222.378 36.479C222.543 36.609 222.729 36.713 222.937 36.791C223.145 36.869 223.362 36.908 223.587 36.908C223.977 36.908 224.307 36.8387 224.575 36.7C224.844 36.5527 225.065 36.3533 225.238 36.102L226.278 36.934C225.663 37.766 224.77 38.182 223.6 38.182C223.115 38.182 222.669 38.1083 222.261 37.961C221.854 37.805 221.499 37.5883 221.195 37.311C220.901 37.0337 220.667 36.6957 220.493 36.297C220.329 35.8897 220.246 35.4303 220.246 34.919C220.246 34.4163 220.329 33.9613 220.493 33.554C220.667 33.138 220.901 32.787 221.195 32.501C221.49 32.2063 221.837 31.981 222.235 31.825C222.643 31.6603 223.08 31.578 223.548 31.578C223.982 31.578 224.38 31.6517 224.744 31.799C225.117 31.9377 225.438 32.15 225.706 32.436C225.975 32.7133 226.183 33.0643 226.33 33.489C226.486 33.905 226.564 34.3947 226.564 34.958ZM227.178 33.008V31.76H228.27V29.953H229.804V31.76H231.364V33.008H229.804V35.907C229.804 36.1843 229.852 36.414 229.947 36.596C230.051 36.778 230.276 36.869 230.623 36.869C230.727 36.869 230.84 36.8603 230.961 36.843C231.082 36.817 231.191 36.7823 231.286 36.739L231.338 37.961C231.199 38.013 231.035 38.052 230.844 38.078C230.653 38.1127 230.471 38.13 230.298 38.13C229.882 38.13 229.544 38.0737 229.284 37.961C229.024 37.8397 228.816 37.6793 228.66 37.48C228.513 37.272 228.409 37.038 228.348 36.778C228.296 36.5093 228.27 36.2233 228.27 35.92V33.008H227.178ZM231.609 31.76H233.299L234.599 36.232H234.625L235.964 31.76H237.628L238.98 36.232H239.006L240.332 31.76H241.957L239.799 38H238.213L236.796 33.632H236.77L235.366 38H233.78L231.609 31.76ZM242.577 34.854C242.577 34.36 242.664 33.9137 242.837 33.515C243.019 33.1077 243.262 32.761 243.565 32.475C243.869 32.189 244.228 31.968 244.644 31.812C245.06 31.656 245.502 31.578 245.97 31.578C246.438 31.578 246.88 31.656 247.296 31.812C247.712 31.968 248.072 32.189 248.375 32.475C248.679 32.761 248.917 33.1077 249.09 33.515C249.272 33.9137 249.363 34.36 249.363 34.854C249.363 35.348 249.272 35.7987 249.09 36.206C248.917 36.6133 248.679 36.9643 248.375 37.259C248.072 37.545 247.712 37.7703 247.296 37.935C246.88 38.0997 246.438 38.182 245.97 38.182C245.502 38.182 245.06 38.0997 244.644 37.935C244.228 37.7703 243.869 37.545 243.565 37.259C243.262 36.9643 243.019 36.6133 242.837 36.206C242.664 35.7987 242.577 35.348 242.577 34.854ZM244.163 34.854C244.163 35.0967 244.198 35.3393 244.267 35.582C244.345 35.8247 244.458 36.0413 244.605 36.232C244.753 36.4227 244.939 36.5787 245.164 36.7C245.39 36.8213 245.658 36.882 245.97 36.882C246.282 36.882 246.551 36.8213 246.776 36.7C247.002 36.5787 247.188 36.4227 247.335 36.232C247.483 36.0413 247.591 35.8247 247.66 35.582C247.738 35.3393 247.777 35.0967 247.777 34.854C247.777 34.6113 247.738 34.373 247.66 34.139C247.591 33.8963 247.483 33.6797 247.335 33.489C247.188 33.2983 247.002 33.1467 246.776 33.034C246.551 32.9127 246.282 32.852 245.97 32.852C245.658 32.852 245.39 32.9127 245.164 33.034C244.939 33.1467 244.753 33.2983 244.605 33.489C244.458 33.6797 244.345 33.8963 244.267 34.139C244.198 34.373 244.163 34.6113 244.163 34.854ZM250.876 31.76H252.371V32.8H252.397C252.57 32.436 252.813 32.1413 253.125 31.916C253.437 31.6907 253.801 31.578 254.217 31.578C254.277 31.578 254.342 31.5823 254.412 31.591C254.481 31.591 254.542 31.5997 254.594 31.617V33.047C254.49 33.021 254.399 33.0037 254.321 32.995C254.251 32.9863 254.182 32.982 254.113 32.982C253.757 32.982 253.471 33.047 253.255 33.177C253.038 33.307 252.869 33.463 252.748 33.645C252.626 33.827 252.544 34.0133 252.501 34.204C252.457 34.3947 252.436 34.5463 252.436 34.659V38H250.876V31.76ZM255.637 28.172H257.197V34.386H257.236L259.602 31.76H261.604L258.9 34.581L261.773 38H259.706L257.236 34.802H257.197V38H255.637V28.172ZM266.115 33.06C266.115 30.278 264.958 28.198 263.554 26.82L262.319 27.366C263.619 28.77 264.646 30.564 264.646 33.06C264.646 35.556 263.619 37.35 262.319 38.754L263.554 39.3C264.958 37.922 266.115 35.842 266.115 33.06Z" fill="#212121"/>
<path fill-rule="evenodd" clip-rule="evenodd" d="M96.2542 83.3289H80.4402C79.3235 83.3289 78.4182 84.2341 78.4182 85.3508V116.978C78.4182 118.095 79.3235 119 80.4402 119H104.14C105.257 119 106.162 118.095 106.162 116.978V93.237L96.2542 83.3289Z" fill="#CCE7FF"/>
<path d="M96.2541 83.3289L106.163 93.2375L97.8588 93.2375C96.9725 93.2375 96.2541 92.5191 96.2541 91.6328L96.2541 83.3289Z" fill="#80C4FF"/>
<path d="M56 68.7361C56 67.225 57.225 66 58.7361 66H80.6253C82.1364 66 83.3614 67.225 83.3614 68.7361V116.163C83.3614 117.674 82.1364 118.899 80.6253 118.899H58.7361C57.225 118.899 56 117.674 56 116.163V68.7361Z" fill="#B3B3B3"/>
<ellipse cx="69.6805" cy="97.0093" rx="2.73614" ry="2.73614" fill="#D9D9D9"/>
<rect x="59.6483" y="69.6479" width="20.065" height="4.56024" rx="0.912048" fill="#D9D9D9"/>
<rect x="59.6482" y="77.8579" width="20.065" height="4.56024" rx="0.912048" fill="#D9D9D9"/>
<rect x="59.6482" y="86.0657" width="20.065" height="4.56024" rx="0.912048" fill="#D9D9D9"/>
<rect x="59.6482" y="103.396" width="20.065" height="4.56024" rx="0.912048" fill="#D9D9D9"/>
<rect x="59.6482" y="111.603" width="20.065" height="4.56024" rx="0.912048" fill="#D9D9D9"/>
<path d="M291.91 89.6211V114.541C291.91 116.211 298.305 119.223 305.854 119.223C313.404 119.223 319.18 116.906 319.18 114.541V89.6211H291.91Z" fill="#CCE7FF"/>
<path d="M291.878 113.056C291.808 113.189 291.783 113.458 291.783 114.145C291.783 117.091 297.944 119.501 305.545 119.501C313.146 119.501 319.307 117.091 319.307 114.145C319.307 113.458 319.281 113.19 319.211 113.056C318.364 115.6 312.562 117.742 305.544 117.742C298.527 117.742 292.725 115.6 291.878 113.056Z" fill="#80C4FF"/>
<path d="M319.181 89.5585C319.181 92.0951 313.076 94.151 305.546 94.151C298.015 94.151 291.91 92.0951 291.91 89.5585C291.91 87.0219 298.015 84.9661 305.545 84.9661C313.075 84.9661 319.181 87.0219 319.181 89.5585Z" fill="#80C4FF"/>
<path d="M291.878 104.695C291.807 104.829 291.783 105.517 291.783 105.785C291.783 108.731 297.944 111.141 305.545 111.141C313.146 111.141 319.307 108.731 319.307 105.785C319.307 105.517 319.281 104.83 319.211 104.695C318.364 107.24 312.561 109.382 305.544 109.382C298.527 109.382 292.725 107.24 291.878 104.695Z" fill="#80C4FF"/>
<path d="M291.878 96.3528C291.807 96.4863 291.783 97.1748 291.783 97.4426C291.783 100.388 297.944 102.798 305.545 102.798C313.146 102.798 319.307 100.388 319.307 97.4426C319.307 97.1748 319.281 96.4871 319.211 96.7727C318.364 99.3171 312.561 101.04 305.544 101.04C298.527 101.039 292.725 98.8964 291.878 96.3528Z" fill="#80C4FF"/>
<path d="M269 68.7339C269 67.224 270.224 66 271.734 66H293.606C295.115 66 296.339 67.224 296.339 68.7339V116.114C296.339 117.624 295.115 118.848 293.606 118.848H271.734C270.224 118.848 269 117.624 269 116.114V68.7339Z" fill="#B3B3B3"/>
<circle cx="282.67" cy="96.9805" r="2.73395" fill="#D9D9D9"/>
<rect x="272.646" y="69.6448" width="20.0489" height="4.55658" rx="0.911316" fill="#D9D9D9"/>
<rect x="272.646" y="77.8452" width="20.0489" height="4.55658" rx="0.911316" fill="#D9D9D9"/>
<rect x="272.646" y="86.0464" width="20.0489" height="4.55658" rx="0.911316" fill="#D9D9D9"/>
<rect x="272.646" y="103.358" width="20.0489" height="4.55658" rx="0.911316" fill="#D9D9D9"/>
<rect x="272.646" y="111.559" width="20.0489" height="4.55658" rx="0.911316" fill="#D9D9D9"/>
<path d="M212.574 100.263C212.878 100.393 213.074 100.693 213.072 101.023L213.063 103.573C213.061 103.904 212.863 104.202 212.558 104.33L209.127 105.773C208.902 105.867 208.732 106.058 208.653 106.289C208.423 106.968 208.139 107.624 207.803 108.251C207.684 108.473 207.664 108.736 207.757 108.97L209.075 112.291C209.199 112.603 209.121 112.959 208.879 113.191L206.976 115.009C206.747 115.228 206.412 115.297 206.116 115.185L202.59 113.857C202.37 113.774 202.125 113.79 201.914 113.894C201.247 114.222 200.547 114.501 199.819 114.719C199.585 114.789 199.389 114.953 199.286 115.175L197.765 118.461C197.629 118.753 197.336 118.94 197.013 118.939L194.298 118.928C193.975 118.927 193.683 118.738 193.55 118.444L192.052 115.144C191.952 114.923 191.759 114.759 191.527 114.686C190.801 114.46 190.102 114.179 189.436 113.846C189.225 113.741 188.98 113.722 188.759 113.804L185.232 115.109C184.934 115.22 184.599 115.149 184.371 114.928L182.477 113.089C182.236 112.856 182.161 112.499 182.287 112.188L183.631 108.877C183.726 108.643 183.707 108.38 183.59 108.157C183.259 107.53 182.977 106.872 182.755 106.193C182.678 105.959 182.509 105.765 182.283 105.668L178.872 104.2C178.569 104.069 178.373 103.77 178.374 103.44L178.384 100.89C178.385 100.559 178.584 100.261 178.889 100.133L182.319 98.6899C182.545 98.5952 182.715 98.405 182.793 98.1736C183.024 97.4946 183.308 96.8382 183.643 96.212C183.762 95.9899 183.783 95.7269 183.69 95.4927L182.371 92.1718C182.247 91.8596 182.325 91.5034 182.568 91.2714L184.47 89.4534C184.7 89.2343 185.034 89.1661 185.331 89.2779L188.856 90.6059C189.076 90.6889 189.321 90.6726 189.532 90.5687C190.199 90.2404 190.899 89.9617 191.627 89.7434C191.861 89.6732 192.057 89.5099 192.16 89.2881L193.682 86.0021C193.817 85.7096 194.111 85.5228 194.433 85.5241L197.149 85.5346C197.471 85.5358 197.763 85.7248 197.896 86.0184L199.394 89.3188C199.494 89.5397 199.687 89.704 199.919 89.7763C200.646 90.0029 201.345 90.2841 202.011 90.617C202.221 90.7223 202.466 90.7406 202.687 90.6593L206.222 89.3585C206.52 89.249 206.853 89.3198 207.081 89.5406L208.969 91.3732C209.211 91.6071 209.286 91.9639 209.159 92.2751L207.815 95.5858C207.72 95.8192 207.739 96.0824 207.856 96.3052C208.187 96.933 208.469 97.5905 208.692 98.27C208.768 98.5039 208.937 98.6976 209.163 98.7948L212.574 100.263ZM195.745 96.6348C192.533 96.6224 189.923 99.1159 189.911 102.209C189.899 105.302 192.49 107.816 195.702 107.828C198.913 107.84 201.523 105.347 201.535 102.254C201.547 99.1608 198.957 96.6471 195.745 96.6348Z" fill="#80C4FF"/>
<path d="M163 68.7345C163 67.2243 164.224 66 165.734 66H187.61C189.12 66 190.345 67.2243 190.345 68.7345V116.132C190.345 117.642 189.12 118.866 187.61 118.866H165.734C164.224 118.866 163 117.642 163 116.132V68.7345Z" fill="#B3B3B3"/>
<circle cx="176.672" cy="96.9906" r="2.73446" fill="#D9D9D9"/>
<rect x="166.646" y="69.6465" width="20.0527" height="4.55744" rx="0.911487" fill="#D9D9D9"/>
<rect x="166.646" y="77.8496" width="20.0527" height="4.55744" rx="0.911487" fill="#D9D9D9"/>
<rect x="166.646" y="86.0527" width="20.0527" height="4.55744" rx="0.911487" fill="#D9D9D9"/>
<rect x="166.646" y="103.371" width="20.0527" height="4.55744" rx="0.911487" fill="#D9D9D9"/>
<rect x="166.646" y="111.574" width="20.0527" height="4.55744" rx="0.911487" fill="#D9D9D9"/>
<path d="M144.999 101.8H126.999" stroke="#80C4FF" stroke-width="3"/>
<path d="M141.188 101.793L140.139 97.5608C140.088 97.3535 140.312 97.1874 140.495 97.2973L147.428 101.457C147.687 101.612 147.687 101.988 147.428 102.143L140.499 106.301C140.315 106.411 140.09 106.243 140.143 106.036L141.188 101.909C141.198 101.871 141.198 101.831 141.188 101.793Z" fill="#80C4FF"/>
<path d="M127.812 101.808L128.861 106.04C128.912 106.247 128.688 106.413 128.505 106.303L121.572 102.144C121.313 101.988 121.313 101.613 121.572 101.458L128.501 97.3C128.685 97.1899 128.91 97.3571 128.857 97.5648L127.812 101.691C127.802 101.73 127.802 101.77 127.812 101.808Z" fill="#80C4FF"/>
<path d="M250.999 101.8H232.999" stroke="#80C4FF" stroke-width="3"/>
<path d="M247.188 101.793L246.139 97.5608C246.088 97.3535 246.312 97.1874 246.495 97.2973L253.428 101.457C253.687 101.612 253.687 101.988 253.428 102.143L246.499 106.301C246.315 106.411 246.09 106.243 246.143 106.036L247.188 101.909C247.198 101.871 247.198 101.831 247.188 101.793Z" fill="#80C4FF"/>
<path d="M233.812 101.808L234.861 106.04C234.912 106.247 234.688 106.413 234.505 106.303L227.572 102.144C227.313 101.988 227.313 101.613 227.572 101.458L234.501 97.3C234.685 97.1899 234.91 97.3571 234.857 97.5648L233.812 101.691C233.802 101.73 233.802 101.77 233.812 101.808Z" fill="#80C4FF"/>
<path d="M244.999 268.8H226.999" stroke="#80C4FF" stroke-width="3"/>
<path d="M241.188 268.793L240.139 264.561C240.088 264.354 240.312 264.187 240.495 264.297L247.428 268.457C247.687 268.612 247.687 268.988 247.428 269.143L240.499 273.301C240.315 273.411 240.09 273.243 240.143 273.036L241.188 268.909C241.198 268.871 241.198 268.831 241.188 268.793Z" fill="#80C4FF"/>
<path d="M227.812 268.808L228.861 273.04C228.912 273.247 228.688 273.413 228.505 273.303L221.572 269.144C221.313 268.988 221.313 268.613 221.572 268.458L228.501 264.3C228.685 264.19 228.91 264.357 228.857 264.565L227.812 268.691C227.802 268.73 227.802 268.77 227.812 268.808Z" fill="#80C4FF"/>
<path d="M81 229L81 174" stroke="#82D98E" stroke-width="3"/>
<path d="M81.2073 226.188L85.4392 225.139C85.6465 225.088 85.8126 225.312 85.7027 225.495L81.543 232.428C81.3877 232.687 81.0124 232.687 80.857 232.428L76.6995 225.499C76.5893 225.315 76.7566 225.09 76.9642 225.143L81.0906 226.188C81.1289 226.198 81.169 226.198 81.2073 226.188Z" fill="#82D98E"/>
<path d="M81.1923 174.812L76.9605 175.861C76.7532 175.912 76.587 175.688 76.6969 175.505L80.8566 168.572C81.012 168.313 81.3873 168.313 81.5426 168.572L85.7002 175.501C85.8104 175.685 85.6431 175.91 85.4355 175.857L81.309 174.812C81.2707 174.802 81.2307 174.802 81.1923 174.812Z" fill="#82D98E"/>
<path d="M123 269L171 269" stroke="#82D98E" stroke-width="3"/>
<path d="M123.812 269.207L124.861 273.439C124.912 273.646 124.688 273.813 124.504 273.703L117.572 269.543C117.313 269.388 117.313 269.012 117.572 268.857L124.501 264.699C124.685 264.589 124.91 264.757 124.857 264.964L123.812 269.091C123.802 269.129 123.802 269.169 123.812 269.207Z" fill="#82D98E"/>
<path d="M170.188 269.192L169.139 264.96C169.087 264.753 169.312 264.587 169.495 264.697L176.428 268.856C176.687 269.012 176.687 269.387 176.428 269.542L169.498 273.7C169.315 273.81 169.09 273.643 169.142 273.435L170.187 269.309C170.197 269.27 170.197 269.23 170.188 269.192Z" fill="#82D98E"/>
</svg>
