<svg width="375" height="368" viewBox="0 0 375 368" fill="none" xmlns="http://www.w3.org/2000/svg">
<rect width="375" height="368" fill="#FAFAFA"/>
<rect x="95" y="46" width="252" height="294.279" rx="3" fill="#EBEBEB"/>
<path d="M86 144.279L107 144.279" stroke="#B3B3B3" stroke-width="2.99164"/>
<path d="M88.8107 144.282L89.8649 148.712C89.9145 148.92 89.6867 149.084 89.5053 148.97L82.5412 144.618C82.2912 144.461 82.2912 144.097 82.5412 143.941L89.5018 139.591C89.6838 139.477 89.9119 139.642 89.8612 139.85L88.811 144.17C88.8021 144.207 88.802 144.245 88.8107 144.282Z" fill="#B3B3B3"/>
<path d="M104.189 144.277L103.135 139.847C103.086 139.639 103.313 139.475 103.495 139.589L110.459 143.941C110.709 144.097 110.709 144.461 110.459 144.618L103.498 148.968C103.316 149.082 103.088 148.917 103.139 148.708L104.189 144.388C104.198 144.352 104.198 144.313 104.189 144.277Z" fill="#B3B3B3"/>
<path d="M221.036 227.461L225.097 226.494C225.428 226.415 225.688 226.778 225.508 227.066L221.538 233.418C221.29 233.816 220.71 233.816 220.462 233.418L216.495 227.072C216.314 226.782 216.577 226.419 216.908 226.5L220.858 227.46C220.916 227.474 220.977 227.475 221.036 227.461Z" fill="#0BC1A2"/>
<path d="M39.02 302.189C38.71 302.269 38.51 302.289 37.91 302.289H35C34.46 302.289 34.24 302.269 33.89 302.209V303.479C34.24 303.429 34.45 303.419 35.01 303.419H38.13C37.99 304.789 37.78 306.199 37.5 307.519H34.01C33.3 307.519 33.08 307.509 32.7 307.449V308.709C33.06 308.669 33.29 308.659 33.99 308.659H40.03C40.72 308.659 40.95 308.669 41.31 308.709V307.449C40.93 307.509 40.71 307.519 40.01 307.519H38.83C39.09 306.019 39.2 305.309 39.44 303.539C39.49 303.159 39.54 302.949 39.65 302.709L39.02 302.189ZM42.71 306.139C43.11 306.089 43.22 306.089 44.34 306.089H49.65C50.77 306.089 50.88 306.089 51.28 306.139V304.749C50.84 304.809 50.65 304.819 49.66 304.819H44.33C43.34 304.819 43.15 304.809 42.71 304.749V306.139ZM55.59 303.189V302.149C55.59 301.669 55.59 301.629 55.63 301.299H54.32C54.36 301.549 54.37 301.679 54.37 302.189V303.189H53.78C53.03 303.189 52.84 303.179 52.48 303.119V304.339C52.82 304.299 52.96 304.289 53.76 304.289H54.37V305.759C54.36 306.299 54.36 306.409 54.33 306.619H55.63C55.6 306.379 55.59 306.229 55.59 305.779V304.289H58.18C58.16 305.699 58.1 306.189 57.86 306.789C57.43 307.759 56.59 308.389 55.17 308.789C55.58 309.209 55.75 309.449 55.92 309.849C57.36 309.369 58.34 308.599 58.89 307.519C59.26 306.729 59.36 306.089 59.38 304.289H60.04C60.85 304.289 60.99 304.299 61.33 304.339V303.119C60.97 303.179 60.78 303.189 60.02 303.189H59.39C59.39 302.789 59.4 302.399 59.4 302.029C59.4 301.679 59.4 301.609 59.43 301.369H58.15C58.18 301.599 58.19 301.829 58.19 302.359C58.19 302.379 58.19 302.479 58.19 302.599C58.19 302.689 58.19 302.929 58.19 303.189H55.59ZM59.42 300.979C59.7 301.419 59.91 301.909 60.1 302.549L60.79 302.349C60.62 301.759 60.4 301.279 60.1 300.789L59.42 300.979ZM61.97 302.009C61.77 301.399 61.56 300.929 61.29 300.509L60.65 300.709C60.95 301.199 61.18 301.709 61.33 302.219L61.97 302.009ZM62.71 306.139C63.11 306.089 63.22 306.089 64.34 306.089H69.65C70.77 306.089 70.88 306.089 71.28 306.139V304.749C70.84 304.809 70.65 304.819 69.66 304.819H64.33C63.34 304.819 63.15 304.809 62.71 304.749V306.139Z" fill="black"/>
<path fill-rule="evenodd" clip-rule="evenodd" d="M200.006 38.1958C200.006 38.6565 199.676 39.0567 199.224 39.1452C192.542 40.4543 187.5 46.3423 187.5 53.4078C187.5 61.4348 194.007 67.9419 202.034 67.9419C202.124 67.9419 202.214 67.9411 202.303 67.9395H242.247C242.252 67.9395 242.256 67.9354 242.256 67.9305C242.256 67.9253 242.26 67.9212 242.266 67.9214C242.486 67.9333 242.708 67.9394 242.932 67.9394C249.652 67.9394 255.1 62.4916 255.1 55.7713C255.1 50.0543 251.157 45.2581 245.842 43.9536C245.24 43.8058 244.833 43.2215 244.897 42.6048C244.939 42.2111 244.96 41.8114 244.96 41.4068C244.96 35.1532 239.891 30.0837 233.637 30.0837C231.65 30.0837 229.783 30.5956 228.159 31.4945C227.571 31.8206 226.804 31.6204 226.465 31.0395C224.002 26.8284 219.432 23.9998 214.202 23.9998C206.361 23.9998 200.006 30.3555 200.006 38.1958Z" fill="#BADBFF"/>
<path d="M40.43 173.639C39.92 173.639 39.67 173.629 39.39 173.599V174.519C39.65 174.479 39.93 174.469 40.45 174.469C40.33 175.279 40.05 175.729 39.38 176.249C39.72 176.489 39.92 176.659 40.18 176.939C40.95 176.189 41.28 175.529 41.39 174.469H42.51V175.939C42.51 176.379 42.5 176.559 42.46 176.799H43.51C43.47 176.579 43.46 176.409 43.46 175.949V174.469H43.61C44.09 174.469 44.34 174.479 44.64 174.519V173.599C44.36 173.629 44.11 173.639 43.61 173.639H43.46V172.719C43.96 172.719 44.23 172.729 44.5 172.759V171.859C44.22 171.899 43.95 171.909 43.46 171.909H40.56C40.09 171.909 39.82 171.899 39.55 171.859V172.759C39.82 172.729 40.09 172.719 40.55 172.719C40.55 173.179 40.55 173.289 40.53 173.639H40.43ZM42.51 172.719V173.639H41.46C41.48 173.169 41.48 173.169 41.48 172.719H42.51ZM38.86 171.439H40.72C41.07 171.439 41.38 171.449 41.64 171.469C41.62 171.209 41.61 171.019 41.61 170.569V169.029C41.61 168.679 41.62 168.389 41.64 168.099C41.37 168.129 41.14 168.139 40.62 168.139H38.8C38.31 168.139 38.05 168.129 37.77 168.099C37.8 168.419 37.81 168.699 37.81 169.219V175.819C37.81 176.439 37.79 176.769 37.75 177.059H38.92C38.88 176.769 38.86 176.429 38.86 175.839V171.439ZM38.86 168.889H40.63V169.419H38.86V168.889ZM38.86 170.129H40.63V170.669H38.86V170.129ZM46.22 169.209C46.22 168.709 46.23 168.469 46.26 168.099C45.98 168.129 45.73 168.139 45.23 168.139H43.32C42.81 168.139 42.58 168.129 42.3 168.099C42.32 168.389 42.33 168.649 42.33 169.029V170.569C42.33 171.019 42.33 171.179 42.31 171.469C42.55 171.449 42.87 171.439 43.22 171.439H45.18V175.689C45.18 175.909 45.12 175.949 44.8 175.949C44.56 175.949 44.24 175.919 43.88 175.869C44.04 176.259 44.09 176.479 44.15 176.929C44.48 176.949 44.62 176.949 44.8 176.949C45.92 176.949 46.22 176.719 46.22 175.829V169.209ZM43.32 168.889H45.18V169.419H43.32V168.889ZM43.32 170.129H45.18V170.669H43.32V170.129ZM50.28 172.899C50.28 173.009 50.28 173.079 50.27 173.209H48.84C48.35 173.209 48.1 173.199 47.79 173.149V174.219C48.12 174.169 48.38 174.159 48.84 174.159H50.12C49.97 174.639 49.76 174.959 49.41 175.269C48.97 175.669 48.49 175.899 47.56 176.159C47.88 176.479 48.08 176.769 48.27 177.139C49.5 176.659 50.1 176.259 50.6 175.599C50.9 175.199 51.09 174.759 51.22 174.159H52.51V176.099C52.51 176.799 52.83 176.969 54.19 176.969C56.11 176.969 56.29 176.819 56.51 175.129C56.11 175.069 55.82 174.969 55.43 174.779C55.4 175.329 55.34 175.659 55.25 175.779C55.14 175.919 54.9 175.969 54.35 175.969C54.01 175.969 53.84 175.959 53.71 175.919C53.56 175.879 53.55 175.859 53.55 175.649V174.159H55.14C55.59 174.159 55.88 174.179 56.19 174.219V173.149C55.89 173.199 55.63 173.209 55.14 173.209H53.55V172.129C54.03 172.129 54.21 172.139 54.51 172.169V171.739C55.05 172.099 55.34 172.259 56.16 172.639C56.43 172.059 56.49 171.949 56.72 171.649C55.99 171.369 55.66 171.209 55.12 170.889C55.47 170.579 55.76 170.289 56.02 169.969C56.22 169.749 56.24 169.719 56.3 169.659L55.38 169.139C55.14 169.529 54.77 169.959 54.34 170.349C54.13 170.189 54.02 170.099 53.75 169.869C54 169.639 54.31 169.329 54.49 169.119C54.72 168.849 54.85 168.699 54.88 168.659L53.96 168.149C53.93 168.199 53.93 168.199 53.88 168.279C53.84 168.359 53.81 168.389 53.67 168.569C53.47 168.829 53.4 168.889 53.08 169.209C52.7 168.749 52.56 168.519 52.46 168.119C52.23 168.149 52.07 168.159 51.6 168.159H49.75C49.4 168.159 49.11 168.139 48.92 168.109V169.149C48.76 169.019 48.76 169.019 48.6 168.889L47.78 169.499C48.28 169.849 48.62 170.159 49.18 170.809C48.51 171.249 48.04 171.489 47.27 171.779C47.54 172.099 47.69 172.339 47.86 172.699C48.66 172.339 49.03 172.129 49.62 171.729V172.169C49.87 172.149 49.98 172.139 50.29 172.129L50.28 172.899ZM51.35 172.129H52.51V173.209H51.34C51.34 173.109 51.34 173.069 51.34 172.979L51.35 172.129ZM50.99 169.109C50.69 169.519 50.43 169.799 50.01 170.179C49.68 169.809 49.45 169.589 48.92 169.149C49.13 169.119 49.35 169.109 49.53 169.109H50.99ZM50.61 171.189C50.5 171.189 50.45 171.189 50.34 171.189C51.05 170.609 51.47 170.159 52.03 169.379C52.58 170.149 53.02 170.609 53.73 171.189C53.65 171.189 53.65 171.189 53.52 171.189H50.61ZM61.42 171.699C60.1 172.509 58.82 173.089 57.3 173.539C57.59 173.909 57.72 174.129 57.89 174.539C58.66 174.229 58.87 174.139 59.48 173.839C59.47 174.019 59.47 174.239 59.47 174.399V175.949C59.47 176.389 59.45 176.749 59.41 177.079H60.58V176.649H64.21V177.079H65.37C65.33 176.809 65.31 176.469 65.31 175.949V173.479C65.31 172.919 65.32 172.679 65.35 172.389C65.06 172.409 64.78 172.419 64.3 172.419H62.83C62.57 172.419 62.24 172.419 62.02 172.429C62.47 172.139 62.72 171.969 63.1 171.699H65.25C65.76 171.699 66.16 171.719 66.49 171.759V170.659C66.17 170.699 65.87 170.719 65.35 170.719H64.32C64.85 170.239 65.28 169.809 65.68 169.339C65.91 169.069 66.06 168.899 66.13 168.829L65.14 168.179C64.93 168.589 64.51 169.149 63.98 169.699V168.839C63.69 168.879 63.37 168.899 62.86 168.899H62.14V168.729C62.14 168.319 62.15 168.109 62.2 167.849H60.98C61.02 168.119 61.04 168.339 61.04 168.729V168.899H59.58C59.05 168.899 58.66 168.879 58.4 168.839V169.889C58.69 169.859 59.01 169.849 59.54 169.849H61.04V170.719H58.76C58.19 170.719 57.81 170.699 57.54 170.659V171.759C57.89 171.719 58.24 171.699 58.74 171.699H61.42ZM62.14 170.719V169.849H62.96C63.36 169.849 63.53 169.859 63.8 169.879C63.48 170.199 63.21 170.429 62.84 170.719H62.14ZM60.58 173.329H64.2V174.069H60.58V173.329ZM60.58 174.939H64.2V175.709H60.58V174.939Z" fill="black"/>
<path d="M27 159.379C27 158.827 27.4477 158.379 28 158.379H75C75.5523 158.379 76 158.827 76 159.379C76 159.931 75.5523 160.379 75 160.379H28C27.4477 160.379 27 159.931 27 159.379Z" fill="#9E9E9E"/>
<mask id="mask0" mask-type="alpha" maskUnits="userSpaceOnUse" x="23" y="107" width="56" height="52">
<rect x="23" y="107.379" width="56" height="51" fill="#C4C4C4"/>
</mask>
<g mask="url(#mask0)">
<path d="M59.6882 158.821C63.2548 162.964 68.6913 162.352 71.9194 159.163C74.7787 156.339 74.0325 151.978 72.5833 150.013C69.5678 145.921 64.5 147.184 62.7254 149.266C61.3891 150.837 60.7382 154.768 63.4196 156.308C65.9579 157.771 68.6263 156.499 68.7304 155.558C68.6566 156.964 64.0488 159.61 60.6081 155.471" fill="#7879BA"/>
<path opacity="0.23" d="M66.0102 155.752C65.7282 155.77 64.4091 155.835 63.0034 155.067C62.4393 154.759 62.0271 154.407 61.7625 154.151C62.0141 155.019 62.5304 155.796 63.4242 156.312C65.9625 157.774 68.6308 156.503 68.735 155.561C68.735 155.561 68.735 155.561 68.735 155.557C68.8434 155.063 68.8608 154.807 68.7957 154.781C68.774 154.772 68.748 154.789 68.7089 154.824C68.2881 155.11 67.3422 155.666 66.0102 155.752Z" fill="#615A86"/>
<path opacity="0.23" d="M60.1741 159.338C61.2024 160.37 62.3608 161.043 63.5627 161.411C61.198 160.006 60.9464 156.929 60.8336 156.131C60.6123 157.342 60.378 158.439 60.1741 159.338Z" fill="#615A86"/>
<path d="M34.4545 142.975C32.233 145.157 29.2826 148.494 27.5254 153.679C27.5341 153.674 27.5427 153.666 27.5471 153.661C33.5347 149.47 32.732 151.878 36.1987 150.511C39.5527 149.192 38.4159 147.006 39.5527 145.287C39.4963 145.279 35.4785 143.838 34.4545 142.975Z" fill="#7879BA"/>
<path opacity="0.24" d="M34.6752 145.984C35.7425 147.108 36.1287 148.687 35.9855 150.596C36.0549 150.57 36.1287 150.544 36.2024 150.514C37.9293 149.837 38.463 148.926 38.7363 147.971C37.1049 147.42 35.7642 146.748 34.6752 145.984Z" fill="#615A86"/>
<path d="M33.2392 141.76C30.445 142.984 26.9262 145.514 24.9998 148.225C26.9262 147.752 28.7485 147.648 30.432 147.778C30.432 147.778 32.8965 144.485 34.5712 143.071C34.1808 142.737 33.5863 142.173 33.2392 141.76Z" fill="#646DA9"/>
<path d="M59.5934 142.602C56.6994 140.276 44.4292 140.484 41.1707 142.597C36.1984 145.821 41.1794 161.601 41.1794 161.601C41.1924 161.675 42.4289 165.211 42.4289 165.211C43.1535 167.264 44.6027 167.489 45.3273 165.437C45.3273 165.437 46.3166 161.84 46.3556 161.814C47.9436 162.252 53.5754 161.953 54.5734 161.727C54.6775 161.775 55.4542 165.485 55.4542 165.485C56.1788 167.537 57.7451 167.264 58.4697 165.211L59.5978 161.606C59.5978 161.606 64.0104 146.151 59.5934 142.602Z" fill="#7879BA"/>
<path d="M56.2651 149.778C56.252 152.867 50.412 155.349 50.412 155.349C50.412 155.349 44.5936 152.819 44.6066 149.73C44.6196 146.641 45.8128 144.142 50.4597 144.159C55.3626 144.181 56.2824 146.689 56.2651 149.778Z" fill="#FDFEFF"/>
<mask id="mask1" mask-type="alpha" maskUnits="userSpaceOnUse" x="44" y="144" width="13" height="12">
<path d="M56.2651 149.778C56.252 152.867 50.412 155.349 50.412 155.349C50.412 155.349 44.5936 152.819 44.6066 149.73C44.6196 146.641 45.8128 144.142 50.4597 144.159C55.3626 144.181 56.2824 146.689 56.2651 149.778Z" fill="#FDFEFF"/>
</mask>
<g mask="url(#mask1)">
<path fill-rule="evenodd" clip-rule="evenodd" d="M47.8446 150.919C48.8407 150.264 49.9079 149.526 50.5248 149.038L50.7941 149.378C50.1614 149.879 49.0808 150.625 48.0832 151.282C47.0904 151.935 46.1571 152.515 45.8243 152.675L45.6367 152.284C45.9374 152.139 46.8438 151.578 47.8446 150.919Z" fill="#615A86"/>
<path fill-rule="evenodd" clip-rule="evenodd" d="M51.5756 151.747C53.2324 150.589 54.9256 149.351 55.5451 148.861L55.8144 149.201C55.1843 149.7 53.4823 150.944 51.8242 152.103C50.9946 152.683 50.1736 153.244 49.5012 153.681C49.1651 153.899 48.8645 154.088 48.6178 154.233C48.3758 154.375 48.1717 154.483 48.0343 154.533L47.8875 154.124C47.9822 154.09 48.1544 154.001 48.398 153.858C48.6369 153.718 48.9313 153.534 49.2648 153.317C49.9314 152.884 50.7478 152.326 51.5756 151.747Z" fill="#615A86"/>
<path fill-rule="evenodd" clip-rule="evenodd" d="M52.8885 151.282C51.8909 150.625 50.8103 149.879 50.1776 149.378L50.4469 149.038C51.0638 149.526 52.131 150.264 53.1271 150.919C54.1279 151.578 55.0343 152.139 55.335 152.284L55.1474 152.675C54.8146 152.515 53.8813 151.935 52.8885 151.282Z" fill="#615A86"/>
<path fill-rule="evenodd" clip-rule="evenodd" d="M49.1477 152.106C47.4897 150.946 45.7877 149.702 45.1576 149.203L45.4269 148.863C46.0464 149.354 47.7396 150.592 49.3964 151.75C50.2242 152.329 51.0406 152.886 51.7072 153.32C52.0406 153.536 52.3351 153.721 52.5739 153.861C52.8175 154.004 52.9898 154.093 53.0845 154.127L52.9376 154.535C52.8002 154.486 52.5962 154.377 52.3542 154.235C52.1074 154.09 51.8069 153.902 51.4708 153.683C50.7983 153.246 49.9774 152.686 49.1477 152.106Z" fill="#615A86"/>
</g>
<path opacity="0.3" d="M45.325 156.677C44.4138 157.436 43.4766 156.889 42.5655 156.147C42.5655 156.147 39.9795 153.895 39.0684 151.205C39.1334 151.956 39.2246 152.711 39.333 153.453C39.4328 153.583 39.5326 153.713 39.6367 153.839C40.9254 155.405 42.4744 156.455 42.4744 156.455C43.5677 157.232 44.4746 157.549 45.2816 156.924C45.5896 156.685 45.7025 156.373 45.7068 156.056C45.6591 156.286 45.5419 156.499 45.325 156.677Z" fill="#615A86"/>
<path d="M43.0099 151.596C43.0099 151.596 45.0839 154.399 45.1099 154.421C45.4701 154.677 46.2033 155.948 45.3269 156.681C44.4157 157.44 43.4785 156.894 42.5674 156.152C42.5674 156.152 39.9771 153.896 39.0659 151.206" fill="#7979BA"/>
<path d="M42.6147 156.213C42.6147 156.213 44.4197 153.93 45.1052 154.425C45.4697 154.69 46.2203 155.983 45.3265 156.724C44.4024 157.492 42.9792 156.724 42.6147 156.213Z" fill="#C6CED5"/>
<path opacity="0.3" d="M61.463 151.327C60.5518 154.017 57.9615 156.274 57.9615 156.274C57.0504 157.016 56.1132 157.562 55.202 156.803C54.9851 156.625 54.8679 156.413 54.8202 156.191C54.8245 156.508 54.9373 156.816 55.2454 157.059C56.0524 157.679 56.9592 157.367 58.0526 156.59C58.0526 156.59 59.5973 155.54 60.8902 153.974C61.0074 153.831 61.1245 153.683 61.233 153.536C61.3328 152.803 61.4109 152.065 61.463 151.327C61.4673 151.327 61.463 151.327 61.463 151.327Z" fill="#615A86"/>
<path d="M57.521 151.718C57.521 151.718 55.447 154.521 55.421 154.542C55.0609 154.798 54.3276 156.07 55.204 156.803C56.1152 157.562 57.0524 157.016 57.9635 156.274C57.9635 156.274 60.5538 154.017 61.465 151.327" fill="#7979BA"/>
<path d="M57.9174 156.336C57.9174 156.336 56.1124 154.053 55.4269 154.548C55.0624 154.813 54.3118 156.106 55.2056 156.848C56.1298 157.62 57.5529 156.852 57.9174 156.336Z" fill="#C6CED5"/>
<path opacity="0.3" d="M60.6734 148.16C60.6691 149.006 56.135 152.204 50.3296 152.178C44.5286 152.156 39.9424 149.301 39.9468 148.451C39.9511 147.605 44.3637 148.251 50.1648 148.277C55.9701 148.303 60.6778 147.314 60.6734 148.16Z" fill="#615A86"/>
<path d="M38.068 117.018C39.9424 115.395 45.904 114.51 50.2862 114.527C55.2802 114.545 60.86 115.851 64.3093 117.595C71.9023 114.731 77.6253 123.561 77.9507 125.214C78.211 126.524 74.5837 127.444 68.4182 125.639C68.4182 125.639 69.9368 131.796 70.0236 135.198C70.1407 139.697 69.3684 149.516 50.1083 149.516C30.8482 149.516 29.8112 140.474 29.8025 134.885C29.7982 132.33 30.9696 126.307 31.4946 123.96C28.631 123.218 26.3922 115.352 27.9325 111.772C28.7221 109.937 36.5841 113.564 38.068 117.018Z" fill="#7879BA"/>
<path opacity="0.25" d="M77.9508 125.427C77.5299 125.952 72.6574 126.382 68.0669 124.221C67.0646 123.752 67.364 124.438 68.4617 125.813C68.4357 125.696 68.4183 125.631 68.4183 125.631C74.2367 127.345 77.7902 126.62 77.9508 125.427Z" fill="#615A86"/>
<path opacity="0.25" d="M32.6317 123.169C28.2886 121.342 27.5466 113.624 27.5726 113.125C27.5726 113.112 27.5683 113.103 27.5596 113.099C26.9001 116.991 28.935 123.256 31.4689 123.954C32.7749 123.724 33.3086 123.455 32.6317 123.169Z" fill="#615A86"/>
<path d="M50.0475 128.715C40.8621 128.715 35.4169 132.065 35.4169 138.33C35.4169 144.847 41.3437 146.569 50.0952 146.574C58.8466 146.574 64.7778 144.864 64.7778 138.339C64.7778 131.713 59.2328 128.719 50.0475 128.715Z" fill="#E2C080"/>
<path opacity="0.2" d="M36.2287 134.586L36.1289 134.877C44.3944 132.048 58.5434 132.478 64.2533 135.003C62.3746 131.085 57.0421 128.859 49.9525 128.855C43.0754 128.855 38.1942 130.955 36.2287 134.586Z" fill="#615A86"/>
<path d="M36.3335 134.283L36.3378 134.287C43.8657 132.083 57.5461 132.088 63.9372 134.365C62.0585 130.508 57.1469 128.638 50.0616 128.634C43.1802 128.638 38.299 130.708 36.3335 134.283Z" fill="#D2D2D2"/>
<path d="M46.1448 128.7L50.1075 132.665L54.0725 128.703L50.1098 124.738L46.1448 128.7Z" fill="white"/>
<path opacity="0.23" d="M50.1046 132.664L54.0703 128.703L50.109 124.742L50.1046 132.664Z" fill="#A0A1C2"/>
<path opacity="0.9" d="M42.7202 135.372C42.551 136.123 43.319 136.092 44.0176 136.062C44.7161 136.032 45.5665 136.461 45.3539 135.259C45.2672 134.786 44.7161 134.413 44.0653 134.396C43.1238 134.396 42.8027 135.012 42.7202 135.372Z" fill="white"/>
<path opacity="0.9" d="M57.4719 135.29C57.6932 136.028 56.9253 136.049 56.2224 136.067C55.5238 136.084 54.7038 136.57 54.8339 135.36C54.886 134.882 55.4153 134.474 56.0618 134.414C56.9643 134.318 57.3635 134.934 57.4719 135.29Z" fill="white"/>
<path d="M44.0427 140.25C44.8143 140.25 45.4398 139.624 45.4398 138.853C45.4398 138.081 44.8143 137.456 44.0427 137.456C43.2711 137.456 42.6456 138.081 42.6456 138.853C42.6456 139.624 43.2711 140.25 44.0427 140.25Z" fill="#2C376E"/>
<path d="M43.7155 139.397C43.8179 139.397 43.9009 139.314 43.9009 139.211C43.9009 139.109 43.8179 139.026 43.7155 139.026C43.613 139.026 43.53 139.109 43.53 139.211C43.53 139.314 43.613 139.397 43.7155 139.397Z" fill="white"/>
<path d="M44.4372 138.932C44.6816 138.932 44.8798 138.734 44.8798 138.49C44.8798 138.246 44.6816 138.047 44.4372 138.047C44.1928 138.047 43.9946 138.246 43.9946 138.49C43.9946 138.734 44.1928 138.932 44.4372 138.932Z" fill="white"/>
<path d="M56.1657 140.248C56.9373 140.248 57.5628 139.623 57.5628 138.851C57.5628 138.079 56.9373 137.454 56.1657 137.454C55.3941 137.454 54.7686 138.079 54.7686 138.851C54.7686 139.623 55.3941 140.248 56.1657 140.248Z" fill="#2C376E"/>
<path d="M56.5807 139.396C56.6831 139.396 56.7661 139.313 56.7661 139.211C56.7661 139.108 56.6831 139.025 56.5807 139.025C56.4783 139.025 56.3953 139.108 56.3953 139.211C56.3953 139.313 56.4783 139.396 56.5807 139.396Z" fill="white"/>
<path d="M55.8609 138.934C56.1053 138.934 56.3035 138.736 56.3035 138.491C56.3035 138.247 56.1053 138.049 55.8609 138.049C55.6165 138.049 55.4183 138.247 55.4183 138.491C55.4183 138.736 55.6165 138.934 55.8609 138.934Z" fill="white"/>
<path d="M54.5555 141.692C54.5555 143.398 52.564 144.404 50.1082 144.404C47.6524 144.404 45.6609 143.393 45.6609 141.688C45.6609 139.983 47.6524 138.23 50.1082 138.234C52.564 138.234 54.5555 139.987 54.5555 141.692Z" fill="white"/>
<path d="M51.6707 140.26C51.6707 140.824 50.9722 141.279 50.1087 141.279C49.2453 141.279 48.5468 140.824 48.5468 140.26C48.5468 139.696 49.2453 139.578 50.1087 139.578C50.9722 139.578 51.6707 139.696 51.6707 140.26Z" fill="#2C376E"/>
<path opacity="0.8" d="M50.6515 140.073C50.6515 140.268 50.4085 140.429 50.1091 140.429C49.8097 140.429 49.5668 140.268 49.5668 140.073C49.5668 139.878 49.8097 139.834 50.1091 139.834C50.4085 139.834 50.6515 139.878 50.6515 140.073Z" fill="white"/>
<path d="M52.0177 141.361C51.9005 141.33 51.7834 141.396 51.753 141.513C51.701 141.704 51.4406 141.877 51.1412 141.921C50.9764 141.947 50.5815 141.955 50.3299 141.599V140.723C50.3299 140.602 50.2344 140.506 50.1129 140.506C49.9915 140.506 49.896 140.602 49.896 140.723V141.599C49.6443 141.955 49.2495 141.947 49.0846 141.921C48.7809 141.877 48.5249 141.704 48.4685 141.513C48.4381 141.396 48.3167 141.33 48.2038 141.361C48.0867 141.391 48.0216 141.513 48.052 141.626C48.1518 141.99 48.5423 142.281 49.0239 142.35C49.4187 142.407 49.8222 142.302 50.1129 142.012C50.4817 142.389 50.9286 142.398 51.202 142.35C51.6836 142.272 52.0741 141.99 52.1739 141.626C52.1999 141.508 52.1305 141.391 52.0177 141.361Z" fill="#2C376E"/>
</g>
<path d="M36 142.85C36 141.983 36.7033 141.279 37.571 141.279H62.6482C63.5158 141.279 64.2191 141.983 64.2191 142.85V156.808C64.2191 157.676 63.5158 158.379 62.6482 158.379H37.571C36.7033 158.379 36 157.676 36 156.808V142.85Z" fill="#B2B2B2"/>
<circle cx="50.1099" cy="150.191" r="2.22783" fill="#D9D9D9"/>
<path d="M37.1439 263.849C37.144 264.409 36.9781 264.956 36.6672 265.421C36.3564 265.887 35.9144 266.25 35.3974 266.464C34.8804 266.678 34.3114 266.734 33.7625 266.625C33.2136 266.516 32.7094 266.246 32.3136 265.851C31.9179 265.455 31.6484 264.951 31.5392 264.402C31.43 263.853 31.4861 263.284 31.7003 262.767C31.9146 262.25 32.2773 261.808 32.7427 261.497C33.208 261.186 33.7552 261.02 34.3148 261.02C34.6864 261.02 35.0542 261.093 35.3975 261.236C35.7407 261.378 36.0526 261.586 36.3153 261.849C36.578 262.112 36.7864 262.423 36.9286 262.767C37.0707 263.11 37.1439 263.478 37.1439 263.849Z" fill="#E2BE97"/>
<path d="M70.2611 263.849C70.2612 264.409 70.0953 264.956 69.7844 265.421C69.4735 265.887 69.0316 266.25 68.5146 266.464C67.9975 266.678 67.4286 266.734 66.8797 266.625C66.3308 266.516 65.8265 266.246 65.4308 265.851C65.0351 265.455 64.7656 264.951 64.6564 264.402C64.5472 263.853 64.6033 263.284 64.8175 262.767C65.0317 262.25 65.3945 261.808 65.8599 261.497C66.3252 261.186 66.8724 261.02 67.432 261.02C68.1823 261.02 68.9019 261.318 69.4325 261.849C69.963 262.379 70.2611 263.099 70.2611 263.849Z" fill="#E2BE97"/>
<path d="M51.0001 275.279C39.341 275.279 32.0001 285.28 32.0001 289.922C32.0001 294.565 41.5001 295.279 51.0001 295.279C60.5001 295.279 70.0001 294.565 70.0001 289.922C70.0001 285.28 62.6592 275.279 51.0001 275.279Z" fill="#319BD0"/>
<path d="M68.0701 259.742C68.0701 269.801 61.2903 277.957 51.2314 277.957C41.1725 277.957 33.7061 269.801 33.7061 259.742C33.7061 249.683 41.173 241.528 51.2314 241.528C61.2898 241.528 68.0701 249.682 68.0701 259.742Z" fill="#EAC39B"/>
<path d="M44.9991 262.581C44.9992 262.889 44.9077 263.191 44.7363 263.448C44.5648 263.705 44.3211 263.905 44.0359 264.023C43.7507 264.141 43.4369 264.172 43.134 264.112C42.8312 264.052 42.5531 263.903 42.3348 263.685C42.1164 263.467 41.9677 263.189 41.9075 262.886C41.8472 262.583 41.8781 262.269 41.9962 261.984C42.1143 261.699 42.3144 261.455 42.5711 261.283C42.8278 261.112 43.1296 261.02 43.4383 261.02C43.8522 261.02 44.2491 261.185 44.5418 261.477C44.8345 261.77 44.999 262.167 44.9991 262.581Z" fill="#804C3F"/>
<path d="M60.2647 262.581C60.2648 262.889 60.1733 263.191 60.0019 263.448C59.8304 263.705 59.5866 263.905 59.3014 264.023C59.0162 264.141 58.7023 264.172 58.3995 264.112C58.0967 264.052 57.8185 263.903 57.6002 263.685C57.3819 263.466 57.2332 263.188 57.173 262.885C57.1128 262.583 57.1438 262.269 57.262 261.984C57.3802 261.698 57.5803 261.455 57.837 261.283C58.0938 261.112 58.3956 261.02 58.7044 261.02C59.1182 261.02 59.515 261.185 59.8076 261.477C60.1002 261.77 60.2646 262.167 60.2647 262.581Z" fill="#804C3F"/>
<path d="M47.1942 269.769C48.7203 271.853 53.9326 271.967 55.2693 269.769" stroke="#804C3F" stroke-width="1.0814" stroke-linecap="round" stroke-linejoin="round"/>
<path d="M50.8883 277.956H51.2297C51.115 277.956 51.0021 277.95 50.8883 277.947V277.956Z" fill="#B52A22"/>
<path d="M52.0731 265.41C52.1032 265.712 52.0142 266.013 51.825 266.25C51.6358 266.487 51.3615 266.641 51.0605 266.679C50.773 266.613 50.5162 266.452 50.3323 266.222C50.1484 265.991 50.0482 265.705 50.0482 265.41C50.0482 265.115 50.1484 264.829 50.3323 264.599C50.5162 264.368 50.773 264.207 51.0605 264.141C51.3615 264.179 51.6358 264.333 51.825 264.57C52.0142 264.807 52.1032 265.108 52.0731 265.41Z" fill="#D36744"/>
<path d="M42.693 240.561C38.2571 241.842 30.2857 248.027 33.2951 259.743C35.4402 255.93 40.6354 251.267 44.3102 250.718C43.3914 253.29 44.3747 255.816 45.6993 257.461C48.8232 255.257 51.7632 254.705 55.6224 255.257C59.4817 255.808 64.6259 256.176 65.9126 255.072C65.7291 258.127 67.4955 258.183 68.1343 259.743C69.2367 257.354 69.7714 244.966 61.5024 241.475C53.2334 237.983 45.8354 237.746 43.4942 234.279C41.9419 237.058 42.666 239.27 42.693 240.561Z" fill="#FFD95C"/>
<path d="M36.9999 278.399C36.9999 277.23 37.947 276.283 39.1154 276.283H63.1044C64.2727 276.283 65.2199 277.23 65.2199 278.399V291.248C65.2199 292.417 64.2727 293.364 63.1044 293.364H39.1154C37.947 293.364 36.9999 292.417 36.9999 291.248V278.399Z" fill="#B2B2B2"/>
<circle cx="51.1101" cy="285.195" r="2.22789" fill="#D9D9D9"/>
<path d="M27 294.312C27 293.76 27.4477 293.312 28 293.312H75C75.5523 293.312 76 293.76 76 294.312C76 294.865 75.5523 295.312 75 295.312H28C27.4477 295.312 27 294.865 27 294.312Z" fill="#9E9E9E"/>
<path d="M122.63 80.3993C122.8 80.7393 122.89 80.9693 123 81.3893L123.97 81.0593C123.85 80.8093 123.79 80.6793 123.63 80.3993H124.29C124.46 80.3993 124.57 80.3993 124.74 80.4093L124.59 80.5193C124.79 80.6293 124.84 80.6693 125.05 80.8293H124.36C124.39 80.9793 124.39 81.0893 124.39 81.3093V81.4693H121.8C121.22 81.4693 121.05 81.4593 120.75 81.4393C120.78 81.6293 120.79 81.7793 120.79 82.0793V82.7593C120.79 83.0393 120.77 83.2193 120.75 83.4193H121.81V82.3293H128.26V83.4193H129.34C129.31 83.2293 129.3 83.0593 129.3 82.7593V82.0593C129.3 81.7393 129.3 81.6193 129.33 81.4393C129 81.4593 128.82 81.4693 128.25 81.4693H125.44L125.45 81.3093V81.1093C125.77 80.7793 125.87 80.6693 126.06 80.4093H126.62C126.84 80.7793 126.95 80.9993 127.09 81.3793L128.08 81.0893C127.95 80.8193 127.92 80.7693 127.7 80.4093H128.63C129.07 80.4093 129.29 80.4193 129.56 80.4493V79.4693C129.27 79.5093 129.07 79.5193 128.58 79.5193H126.61C126.7 79.3293 126.72 79.2893 126.88 78.9393L125.81 78.7693C125.67 79.3093 125.39 79.7793 124.94 80.2393V79.4593C124.71 79.4993 124.5 79.5093 124.05 79.5093H122.68C122.8 79.3193 122.84 79.2293 122.98 78.9593L121.91 78.7593C121.67 79.4593 121.14 80.1093 120.39 80.6293C120.79 80.9493 120.85 81.0093 121.12 81.3693C121.57 80.9993 121.77 80.7993 122.09 80.3993H122.63ZM123.16 88.0993V87.6693H127.18V88.0993H128.28C128.24 87.8093 128.23 87.5293 128.23 87.1893V86.1793C128.23 85.8493 128.24 85.5993 128.27 85.3493C128.04 85.3793 127.82 85.3893 127.45 85.3893H123.16V84.9093H127.03C127.37 84.9093 127.6 84.9193 127.85 84.9393C127.82 84.6993 127.82 84.5293 127.82 84.1593V83.4093C127.82 83.1293 127.82 82.9393 127.85 82.7293C127.61 82.7593 127.36 82.7693 126.99 82.7693H122.91C122.57 82.7693 122.31 82.7593 122.07 82.7293C122.1 82.9193 122.11 83.0993 122.11 83.3893V86.9893C122.11 87.4493 122.09 87.7493 122.05 88.0993H123.16ZM123.16 83.5893H126.78V84.1193H123.16V83.5893ZM123.16 86.1893H127.18V86.8393H123.16V86.1893ZM136 86.8093H134.21C133.69 86.8093 133.47 86.7993 133.2 86.7593V87.8293C133.54 87.7893 133.8 87.7793 134.33 87.7793H138.54C139.08 87.7793 139.35 87.7893 139.67 87.8293V86.7593C139.4 86.7993 139.14 86.8093 138.61 86.8093H137V85.7793H138.29C138.8 85.7793 139.05 85.7893 139.34 85.8293V84.7993C139.05 84.8393 138.83 84.8493 138.28 84.8493H137V84.0293H138.15C138.75 84.0293 138.91 84.0293 139.24 84.0593C139.21 83.7693 139.2 83.4193 139.2 82.7193V80.5893C139.2 79.9793 139.21 79.5093 139.24 79.2193C138.99 79.2593 138.69 79.2693 137.95 79.2693H135.19C134.54 79.2693 134.22 79.2593 133.84 79.2193C133.88 79.5493 133.89 79.8793 133.89 80.5593V82.8193C133.87 83.8293 133.87 83.8293 133.85 84.0593C134.15 84.0393 134.38 84.0293 135.05 84.0293H136V84.8493H134.88C134.3 84.8493 134.1 84.8393 133.85 84.7993V85.8193C134.11 85.7893 134.32 85.7793 134.89 85.7793H136V86.8093ZM136 80.2393V81.2393H134.89V80.2393H136ZM137 80.2393H138.16V81.2393H137V80.2393ZM136 82.0793V83.0893H134.89V82.0793H136ZM137 82.0793H138.16V83.0893H137V82.0793ZM131.55 80.3393V82.2893H131.24C130.93 82.2893 130.78 82.2793 130.54 82.2393V83.2693C130.77 83.2293 130.93 83.2193 131.22 83.2193H131.55V85.5993C130.87 85.8393 130.66 85.9093 130.32 85.9793L130.59 87.1093C130.69 87.0693 130.74 87.0493 130.79 87.0293C132.34 86.3993 132.73 86.2293 133.6 85.7993L133.57 84.7393C133.13 84.9593 133.01 85.0093 132.59 85.1893V83.2193H132.82C133.05 83.2193 133.25 83.2293 133.45 83.2593V82.2393C133.23 82.2793 133.08 82.2893 132.82 82.2893H132.59V80.3393H132.89C133.17 80.3393 133.38 80.3493 133.63 80.3793V79.3093C133.38 79.3593 133.14 79.3693 132.74 79.3693H131.33C130.92 79.3693 130.66 79.3493 130.42 79.3093V80.3893C130.67 80.3493 130.85 80.3393 131.17 80.3393H131.55ZM144.48 80.1493V81.0393H143.32C142.96 81.0393 142.73 81.0293 142.5 80.9993C142.53 81.2493 142.54 81.4293 142.54 81.7493V85.3293C142.54 85.6893 142.53 85.8293 142.5 86.0693C142.76 86.0393 142.92 86.0293 143.4 86.0293H146.63C147.09 86.0293 147.25 86.0393 147.51 86.0693C147.48 85.8493 147.47 85.6993 147.47 85.3293V81.7493C147.47 81.4293 147.48 81.2193 147.51 80.9993C147.28 81.0293 147.05 81.0393 146.69 81.0393H145.5V80.1493H148.32C148.73 80.1493 149.18 80.1693 149.54 80.2093V79.1093C149.15 79.1493 148.76 79.1693 148.31 79.1693H141.71C141.24 79.1693 140.87 79.1493 140.5 79.1093V80.2093C140.91 80.1693 141.28 80.1493 141.73 80.1493H144.48ZM144.48 81.9693V83.0193H143.51V81.9693H144.48ZM145.5 81.9693H146.51V83.0193H145.5V81.9693ZM144.48 83.9193V85.1393H143.51V83.9193H144.48ZM145.5 83.9193H146.51V85.1393H145.5V83.9193ZM148.14 81.1893C148.18 81.4393 148.19 81.6593 148.19 82.0593V86.6893H141.83V82.0793C141.83 81.6293 141.84 81.4193 141.87 81.1893H140.71C140.75 81.5493 140.77 81.8993 140.77 82.2993V86.7993C140.77 87.3293 140.75 87.7093 140.71 88.1293H141.85V87.6593H148.16V88.1293H149.32C149.27 87.7093 149.25 87.3093 149.25 86.7893V82.3093C149.25 81.9593 149.27 81.5393 149.31 81.1893H148.14ZM151.98 81.2193C151.47 81.2193 151.11 81.2093 150.8 81.1693C150.84 81.5793 150.86 81.9593 150.86 82.4493V86.7993C150.86 87.4093 150.85 87.7393 150.8 88.1593H151.93V87.6793H158.09V88.1693H159.22C159.18 87.8093 159.16 87.3593 159.16 86.8093V82.4593C159.16 81.8693 159.17 81.5593 159.22 81.1693C158.88 81.2093 158.57 81.2193 158.04 81.2193H155.05C155.21 80.9293 155.39 80.5293 155.49 80.1993H158.3C158.78 80.1993 159.16 80.2193 159.52 80.2593V79.1493C159.16 79.1893 158.75 79.2093 158.3 79.2093H151.71C151.23 79.2093 150.85 79.1893 150.49 79.1493V80.2593C150.85 80.2193 151.22 80.1993 151.72 80.1993H154.27C154.14 80.5893 153.99 80.9093 153.82 81.2193H151.98ZM154.07 86.7093V85.7393H155.88V86.7093H154.07ZM153.08 86.7093H151.93V82.1493H153.08V86.7093ZM154.07 82.1493H155.88V83.0393H154.07V82.1493ZM156.88 82.1493H158.09V86.7093H156.88V82.1493ZM155.88 84.8393H154.07V83.9393H155.88V84.8393Z" fill="black"/>
<path d="M120 108.279H322V209.279C322 210.936 320.657 212.279 319 212.279H123C121.343 212.279 120 210.936 120 209.279V108.279Z" fill="white"/>
<g clip-path="url(#clip0)">
<path d="M120 99.2793C120 97.6224 121.343 96.2793 123 96.2793H319C320.657 96.2793 322 97.6224 322 99.2793V109.279H120V99.2793Z" fill="#4E596D"/>
<circle cx="127.636" cy="103.792" r="1.63555" fill="#FF8A7A"/>
<circle cx="132.776" cy="103.791" r="1.63555" fill="#FFD177"/>
<circle cx="137.916" cy="103.791" r="1.63555" fill="#ACFD76"/>
<path d="M144.132 102.052C144.185 101.579 144.585 101.221 145.061 101.221H167.688C168.164 101.221 168.564 101.579 168.617 102.052L169.459 109.632H143.29L144.132 102.052Z" fill="#E8EBEF"/>
<rect x="146.094" y="104.492" width="16.8228" height="1.8692" rx="0.934598" fill="#D2D5D9"/>
<rect x="163.851" y="104.491" width="1.8692" height="1.8692" rx="0.934598" fill="#D2D5D9"/>
<path d="M170.916 103.14C170.886 102.864 171.103 102.623 171.381 102.623H176.97C177.208 102.623 177.408 102.802 177.434 103.039L177.952 107.712C177.983 107.988 177.766 108.23 177.488 108.23H171.887C171.649 108.23 171.448 108.051 171.423 107.813L170.916 103.14Z" fill="#E8EBEF"/>
<rect x="173.196" y="105.077" width="2.80379" height="0.700949" rx="0.350474" fill="#D1D5D9"/>
<rect x="174.949" y="104.025" width="2.80379" height="0.700949" rx="0.350474" transform="rotate(90 174.949 104.025)" fill="#D1D5D9"/>
</g>
<rect x="181" y="179.279" width="80" height="18" rx="1.91715" fill="#0BC1A2"/>
<path fill-rule="evenodd" clip-rule="evenodd" d="M157.927 125.279C157.415 125.279 157 125.694 157 126.207V148.352C157 148.864 157.415 149.279 157.927 149.279H174.073C174.585 149.279 175 148.864 175 148.352V126.207C175 126.2 175 126.194 175 126.188V131.946L168.333 125.279H174.08C174.078 125.279 174.075 125.279 174.073 125.279H157.927Z" fill="#CCE7FF"/>
<path d="M168.333 125.28L175 131.947L169.069 131.947C168.662 131.947 168.333 131.617 168.333 131.211L168.333 125.28Z" fill="#80C4FF"/>
<rect x="146" y="154.279" width="10" height="10" rx="0.958574" fill="#0BC1A2"/>
<path d="M148.187 159.28L150.062 161.155L153.812 157.405" stroke="white" stroke-width="1.43786" stroke-linecap="round" stroke-linejoin="round"/>
<rect x="160" y="155.279" width="26" height="2" rx="1" fill="#C4C4C4"/>
<rect x="160" y="161.279" width="26" height="2" rx="1" fill="#C4C4C4"/>
<path d="M232.737 135.921C232.874 135.982 232.962 136.118 232.961 136.268L232.953 138.38C232.953 138.53 232.864 138.665 232.726 138.725L230.157 139.847C230.055 139.892 229.978 139.979 229.944 140.086C229.769 140.64 229.547 141.173 229.279 141.678C229.226 141.777 229.217 141.894 229.257 141.998L230.258 144.614C230.311 144.754 230.277 144.913 230.171 145.018L228.673 146.503C228.567 146.609 228.409 146.642 228.269 146.587L225.66 145.567C225.556 145.526 225.439 145.534 225.34 145.586C224.833 145.85 224.297 146.072 223.739 146.24C223.631 146.272 223.542 146.349 223.496 146.452L222.354 149.01C222.293 149.146 222.157 149.234 222.007 149.234L219.899 149.226C219.749 149.225 219.614 149.136 219.554 148.999L218.432 146.431C218.387 146.328 218.299 146.251 218.192 146.218C217.635 146.043 217.101 145.82 216.595 145.552C216.496 145.5 216.38 145.491 216.275 145.531L213.663 146.535C213.523 146.589 213.364 146.555 213.259 146.448L211.769 144.947C211.663 144.841 211.63 144.682 211.685 144.543L212.705 141.934C212.746 141.83 212.738 141.713 212.686 141.614C212.422 141.108 212.2 140.573 212.033 140.018C212 139.911 211.924 139.822 211.821 139.776L209.266 138.635C209.129 138.573 209.041 138.437 209.042 138.288L209.05 136.175C209.051 136.026 209.14 135.89 209.277 135.83L211.846 134.708C211.949 134.663 212.026 134.576 212.059 134.469C212.234 133.915 212.457 133.382 212.725 132.877C212.777 132.778 212.786 132.662 212.746 132.557L211.746 129.941C211.692 129.801 211.726 129.643 211.833 129.537L213.33 128.052C213.436 127.946 213.595 127.913 213.734 127.968L216.344 128.988C216.448 129.029 216.564 129.021 216.663 128.969C217.171 128.705 217.706 128.483 218.264 128.316C218.372 128.283 218.462 128.207 218.508 128.104L219.649 125.546C219.71 125.409 219.846 125.321 219.996 125.321L222.104 125.33C222.254 125.33 222.389 125.419 222.449 125.556L223.572 128.124C223.616 128.227 223.705 128.304 223.811 128.337C224.369 128.512 224.903 128.735 225.409 129.003C225.507 129.056 225.624 129.064 225.728 129.024L228.345 128.024C228.485 127.971 228.644 128.005 228.749 128.111L230.235 129.608C230.34 129.714 230.373 129.873 230.319 130.012L229.298 132.621C229.257 132.725 229.265 132.842 229.317 132.941C229.581 133.448 229.803 133.982 229.971 134.537C230.003 134.644 230.08 134.734 230.183 134.78L232.737 135.921ZM221.017 133.273C218.803 133.264 217.004 135.049 216.996 137.262C216.987 139.475 218.772 141.274 220.986 141.283C223.2 141.291 224.999 139.506 225.008 137.293C225.016 135.08 223.231 133.281 221.017 133.273Z" fill="#80C4FF"/>
<rect x="201" y="154.279" width="10" height="10" rx="0.958574" fill="#0BC1A2"/>
<path d="M203.188 159.279L205.063 161.154L208.813 157.404" stroke="white" stroke-width="1.43786" stroke-linecap="round" stroke-linejoin="round"/>
<rect x="215" y="155.279" width="26" height="2" rx="1" fill="#C4C4C4"/>
<rect x="215" y="161.279" width="26" height="2" rx="1" fill="#C4C4C4"/>
<path d="M267.088 128.268V145.499C267.088 146.653 271.482 148.736 276.668 148.736C281.855 148.736 285.824 147.134 285.824 145.499V128.268H267.088Z" fill="#CCE7FF"/>
<path d="M267.066 144.471C267.018 144.564 267.001 144.749 267.001 145.225C267.001 147.262 271.233 148.928 276.455 148.928C281.678 148.928 285.91 147.262 285.91 145.225C285.91 144.749 285.892 144.564 285.844 144.471C285.263 146.231 281.276 147.712 276.455 147.712C271.634 147.712 267.648 146.231 267.066 144.471Z" fill="#80C4FF"/>
<path d="M285.822 128.225C285.822 129.979 281.628 131.401 276.455 131.401C271.281 131.401 267.087 129.979 267.087 128.225C267.087 126.472 271.28 125.05 276.454 125.05C281.628 125.05 285.822 126.472 285.822 128.225Z" fill="#80C4FF"/>
<path d="M267.066 138.691C267.017 138.784 267 139.26 267 139.445C267 141.482 271.233 143.148 276.455 143.148C281.677 143.148 285.909 141.482 285.909 139.445C285.909 139.26 285.892 138.784 285.844 138.691C285.262 140.451 281.275 141.932 276.454 141.932C271.634 141.932 267.647 140.451 267.066 138.691Z" fill="#80C4FF"/>
<path d="M267.066 132.925C267.017 133.018 267 133.494 267 133.679C267 135.716 271.233 137.382 276.455 137.382C281.677 137.382 285.909 135.716 285.909 133.679C285.909 133.494 285.892 133.018 285.844 133.216C285.262 134.975 281.275 136.166 276.454 136.166C271.634 136.165 267.647 134.684 267.066 132.925Z" fill="#80C4FF"/>
<rect x="256" y="154.279" width="10" height="10" rx="0.958574" fill="#0BC1A2"/>
<path d="M258.187 159.279L260.062 161.154L263.812 157.404" stroke="white" stroke-width="1.43786" stroke-linecap="round" stroke-linejoin="round"/>
<rect x="270" y="155.279" width="26" height="2" rx="1" fill="#C4C4C4"/>
<rect x="270" y="161.279" width="26" height="2" rx="1" fill="#C4C4C4"/>
<path d="M195.042 186.119V185.089C195.042 184.579 195.042 184.559 195.082 184.229H193.772C193.812 184.489 193.822 184.699 193.822 185.119V186.119H193.232C192.522 186.119 192.322 186.109 191.932 186.049V187.269C192.282 187.229 192.552 187.219 193.212 187.219H193.822V188.699C193.822 189.069 193.812 189.339 193.782 189.559H195.082C195.052 189.299 195.042 189.139 195.042 188.719V187.219H197.632C197.612 187.909 197.612 188.149 197.592 188.379C197.502 189.529 197.212 190.189 196.532 190.779C196.052 191.199 195.572 191.439 194.622 191.729C195.052 192.169 195.182 192.359 195.372 192.789C196.292 192.459 196.782 192.199 197.322 191.739C198.192 190.999 198.622 190.149 198.762 188.869C198.812 188.489 198.812 188.419 198.832 187.219H199.502C200.162 187.219 200.432 187.229 200.782 187.269V186.049C200.392 186.109 200.192 186.119 199.482 186.119H198.842C198.852 185.519 198.852 185.519 198.852 184.909C198.852 184.519 198.862 184.469 198.892 184.239H197.602C197.642 184.469 197.652 184.689 197.652 185.349V185.669L197.642 186.119H195.042ZM202.062 189.139C202.462 189.089 202.572 189.089 203.692 189.089H209.002C210.122 189.089 210.232 189.089 210.632 189.139V187.749C210.192 187.809 210.002 187.819 209.012 187.819H203.682C202.692 187.819 202.502 187.809 202.062 187.749V189.139ZM213.819 184.789C213.819 184.849 213.819 184.899 213.819 184.929C213.819 185.149 213.789 185.489 213.729 185.899C213.569 187.159 213.219 188.399 212.789 189.329C212.369 190.249 211.959 190.859 211.359 191.459C211.839 191.719 212.029 191.869 212.499 192.319C213.839 190.779 214.619 188.809 215.039 185.939L215.069 185.699L215.119 185.409L215.139 185.239C215.149 185.159 215.159 185.149 215.189 185.039L213.819 184.789ZM216.789 185.029C216.839 185.179 216.869 185.339 216.929 185.749C217.319 188.439 218.249 190.739 219.579 192.329C219.959 191.899 220.169 191.729 220.679 191.409C219.639 190.289 218.939 188.939 218.449 187.089C218.219 186.229 218.039 185.249 218.029 184.789L216.789 185.029ZM218.129 184.409C218.509 184.969 218.719 185.399 218.949 186.039L219.709 185.799C219.469 185.129 219.249 184.709 218.879 184.189L218.129 184.409ZM221.019 185.399C220.799 184.799 220.579 184.379 220.199 183.849L219.459 184.059C219.779 184.519 220.029 185.019 220.259 185.639L221.019 185.399ZM221.359 189.139C221.759 189.089 221.869 189.089 222.989 189.089H228.299C229.419 189.089 229.529 189.089 229.929 189.139V187.749C229.489 187.809 229.299 187.819 228.309 187.819H222.979C221.989 187.819 221.799 187.809 221.359 187.749V189.139ZM236.129 186.279V191.919C236.129 192.529 236.119 192.829 236.069 193.119H237.279C237.229 192.839 237.209 192.519 237.209 191.919V190.769H238.849C239.229 190.769 239.519 190.789 239.849 190.829V189.739C239.549 189.789 239.279 189.799 238.849 189.799H237.209V188.519H238.829C239.209 188.519 239.509 188.539 239.829 188.579V187.499C239.529 187.539 239.259 187.559 238.839 187.559H237.209V186.279H239.109C239.549 186.279 239.899 186.299 240.189 186.329V185.249C239.909 185.289 239.599 185.309 239.109 185.309H236.389C236.479 185.089 236.489 185.059 236.639 184.639C236.709 184.439 236.739 184.349 236.839 184.109L235.709 183.779C235.659 184.129 235.509 184.629 235.259 185.229C234.829 186.239 234.339 186.999 233.579 187.779C233.919 188.129 234.059 188.309 234.299 188.719C234.979 187.949 235.499 187.169 235.939 186.279H236.129ZM233.199 183.749C233.139 184.139 232.999 184.549 232.779 185.069C232.269 186.219 231.619 187.159 230.879 187.829C231.129 188.249 231.269 188.539 231.409 188.999C231.769 188.629 232.019 188.319 232.369 187.849C232.339 188.689 232.339 188.739 232.339 188.989V191.839C232.339 192.359 232.319 192.699 232.269 193.079H233.469C233.419 192.709 233.399 192.309 233.399 191.839V186.299C233.919 185.129 233.919 185.129 234.079 184.699C234.169 184.459 234.199 184.389 234.309 184.139L233.199 183.749ZM248.569 186.949C248.449 187.649 248.109 188.479 247.609 189.289C247.379 188.529 247.239 187.609 247.149 186.299H248.949C249.459 186.299 249.839 186.319 250.169 186.349V185.249C249.909 185.299 249.639 185.309 249.109 185.309H248.809L249.329 184.949C248.949 184.459 248.779 184.289 248.319 183.899L247.549 184.389C247.959 184.729 248.149 184.939 248.429 185.309H247.109C247.109 185.209 247.109 184.939 247.109 184.849C247.109 184.519 247.129 184.109 247.159 183.899H245.969C246.009 184.119 246.009 184.159 246.019 184.529C246.039 184.969 246.039 185.229 246.049 185.309H243.149C242.629 185.309 242.219 185.289 241.859 185.259C241.909 185.659 241.919 185.909 241.919 186.679C241.919 188.459 241.819 189.789 241.619 190.629C241.489 191.199 241.279 191.669 240.929 192.209C241.289 192.469 241.489 192.659 241.799 193.059C242.239 192.359 242.439 191.909 242.619 191.109C242.769 190.429 242.859 189.739 242.929 188.599H244.389C244.369 189.409 244.319 190.059 244.239 190.409C244.189 190.659 244.099 190.719 243.789 190.719C243.499 190.719 243.349 190.709 242.819 190.639C242.969 191.029 243.029 191.269 243.079 191.699C243.399 191.719 243.559 191.729 243.839 191.729C244.609 191.729 244.969 191.579 245.129 191.179C245.299 190.759 245.359 190.229 245.459 188.429C245.479 188.039 245.499 187.759 245.519 187.579C245.309 187.609 245.159 187.619 244.809 187.619H242.969C242.979 187.259 242.979 187.259 242.989 186.299H246.089C246.199 188.059 246.419 189.259 246.839 190.289C246.079 191.099 245.199 191.699 244.149 192.129C244.489 192.419 244.599 192.539 244.909 192.999C245.799 192.559 246.579 191.989 247.329 191.249C247.909 192.189 248.699 192.859 249.209 192.859C249.759 192.859 250.109 192.269 250.339 190.919C249.909 190.689 249.779 190.589 249.439 190.249C249.319 191.189 249.319 191.189 249.249 191.419C249.199 191.549 249.159 191.609 249.119 191.609C249.059 191.609 248.839 191.429 248.669 191.249C248.459 191.019 248.259 190.739 248.069 190.389C248.579 189.699 248.979 188.969 249.419 187.889C249.579 187.509 249.579 187.509 249.639 187.359L248.569 186.949Z" fill="white"/>
<path fill-rule="evenodd" clip-rule="evenodd" d="M221 201.029C221.69 201.029 222.25 201.589 222.25 202.279L222.25 202.334C222.25 203.024 221.69 203.584 221 203.584C220.31 203.584 219.75 203.024 219.75 202.334L219.75 202.279C219.75 201.589 220.31 201.029 221 201.029ZM221 207.641C221.69 207.641 222.25 208.201 222.25 208.891L222.25 209.001C222.25 209.691 221.69 210.251 221 210.251C220.31 210.251 219.75 209.691 219.75 209.001L219.75 208.891C219.75 208.201 220.31 207.641 221 207.641ZM221 214.308C221.69 214.308 222.25 214.868 222.25 215.558L222.25 215.667C222.25 216.358 221.69 216.917 221 216.917C220.31 216.917 219.75 216.358 219.75 215.667L219.75 215.558C219.75 214.868 220.31 214.308 221 214.308ZM221 220.975C221.69 220.975 222.25 221.534 222.25 222.225L222.25 222.279C222.25 222.97 221.69 223.529 221 223.529C220.31 223.529 219.75 222.97 219.75 222.279L219.75 222.225C219.75 221.534 220.31 220.975 221 220.975Z" fill="#0BC1A2"/>
<rect x="120" y="237.279" width="202" height="78" rx="3" fill="white"/>
<path d="M194.852 283.279H184.034" stroke="#B2B2B2" stroke-width="2.13966"/>
<path d="M193.973 283.27L193.33 280.679C193.294 280.531 193.454 280.413 193.585 280.491L197.823 283.035C198.008 283.145 198.008 283.413 197.823 283.524L193.587 286.066C193.456 286.144 193.296 286.025 193.333 285.877L193.972 283.353C193.979 283.326 193.979 283.297 193.973 283.27Z" fill="#B2B2B2"/>
<path d="M184.768 283.289L185.411 285.879C185.447 286.027 185.287 286.146 185.156 286.067L180.917 283.524C180.733 283.413 180.733 283.145 180.917 283.035L185.154 280.493C185.285 280.414 185.445 280.534 185.408 280.682L184.769 283.206C184.762 283.233 184.762 283.262 184.768 283.289Z" fill="#B2B2B2"/>
<path d="M257.797 283.279H246.978" stroke="#B2B2B2" stroke-width="2.13966"/>
<path d="M256.917 283.27L256.275 280.679C256.238 280.531 256.399 280.413 256.529 280.491L260.768 283.035C260.953 283.145 260.953 283.413 260.768 283.524L256.532 286.066C256.401 286.144 256.24 286.025 256.278 285.877L256.917 283.353C256.924 283.326 256.924 283.297 256.917 283.27Z" fill="#B2B2B2"/>
<path d="M247.713 283.289L248.355 285.879C248.392 286.027 248.232 286.146 248.101 286.067L243.862 283.524C243.677 283.413 243.677 283.145 243.862 283.035L248.098 280.493C248.229 280.414 248.39 280.534 248.352 280.682L247.713 283.206C247.706 283.233 247.706 283.262 247.713 283.289Z" fill="#B2B2B2"/>
<path fill-rule="evenodd" clip-rule="evenodd" d="M168.71 269.639H157.431C156.635 269.639 155.989 270.285 155.989 271.081V293.638C155.989 294.435 156.635 295.081 157.431 295.081H174.334C175.131 295.081 175.777 294.435 175.777 293.638V276.706L168.71 269.639Z" fill="#CCE7FF"/>
<path d="M168.71 269.639L175.777 276.706L169.854 276.706C169.222 276.706 168.71 276.193 168.71 275.561L168.71 269.639Z" fill="#80C4FF"/>
<path d="M140 259.231C140 258.153 140.874 257.279 141.951 257.279H157.563C158.641 257.279 159.515 258.153 159.515 259.231V293.056C159.515 294.134 158.641 295.008 157.563 295.008H141.951C140.874 295.008 140 294.134 140 293.056V259.231Z" fill="#B3B3B3"/>
<ellipse cx="149.757" cy="279.397" rx="1.95147" ry="1.95147" fill="#D9D9D9"/>
<rect x="142.602" y="259.881" width="14.3108" height="3.25245" rx="0.650491" fill="#D9D9D9"/>
<rect x="142.602" y="265.737" width="14.3108" height="3.25245" rx="0.650491" fill="#D9D9D9"/>
<rect x="142.602" y="271.59" width="14.3108" height="3.25245" rx="0.650491" fill="#D9D9D9"/>
<rect x="142.602" y="283.951" width="14.3108" height="3.25245" rx="0.650491" fill="#D9D9D9"/>
<rect x="142.602" y="289.804" width="14.3108" height="3.25245" rx="0.650491" fill="#D9D9D9"/>
<path d="M282.34 273.32V291.094C282.34 292.284 286.901 294.433 292.286 294.433C297.67 294.433 301.79 292.78 301.79 291.094V273.32H282.34Z" fill="#CCE7FF"/>
<path d="M282.318 290.034C282.267 290.129 282.25 290.321 282.25 290.811C282.25 292.912 286.644 294.631 292.065 294.631C297.487 294.631 301.88 292.912 301.88 290.811C301.88 290.321 301.862 290.13 301.812 290.034C301.208 291.849 297.07 293.377 292.064 293.377C287.06 293.377 282.922 291.849 282.318 290.034Z" fill="#80C4FF"/>
<path d="M301.79 273.275C301.79 275.084 297.436 276.551 292.065 276.551C286.694 276.551 282.34 275.084 282.34 273.275C282.34 271.466 286.694 270 292.065 270C297.436 270 301.79 271.466 301.79 273.275Z" fill="#80C4FF"/>
<path d="M282.317 283.877C282.267 283.973 282.249 284.464 282.249 284.655C282.249 286.756 286.644 288.475 292.065 288.475C297.486 288.475 301.88 286.756 301.88 284.655C301.88 284.464 301.862 283.973 301.812 283.877C301.208 285.692 297.069 287.22 292.064 287.22C287.059 287.22 282.921 285.692 282.317 283.877Z" fill="#80C4FF"/>
<path d="M282.317 277.928C282.267 278.023 282.249 278.514 282.249 278.705C282.249 280.806 286.644 282.525 292.065 282.525C297.486 282.525 301.88 280.806 301.88 278.705C301.88 278.514 301.862 278.024 301.812 278.227C301.208 280.042 297.069 281.271 292.064 281.271C287.059 281.27 282.921 279.742 282.317 277.928Z" fill="#80C4FF"/>
<path d="M266 258.95C266 257.873 266.873 257 267.95 257H283.549C284.626 257 285.499 257.873 285.499 258.95V292.742C285.499 293.819 284.626 294.692 283.549 294.692H267.95C266.873 294.692 266 293.819 266 292.742V258.95Z" fill="#B3B3B3"/>
<circle cx="275.75" cy="279.096" r="1.94991" fill="#D9D9D9"/>
<rect x="268.6" y="259.6" width="14.2993" height="3.24984" rx="0.649969" fill="#D9D9D9"/>
<rect x="268.6" y="265.45" width="14.2993" height="3.24984" rx="0.649969" fill="#D9D9D9"/>
<rect x="268.6" y="271.298" width="14.2993" height="3.24984" rx="0.649969" fill="#D9D9D9"/>
<rect x="268.6" y="283.646" width="14.2993" height="3.24984" rx="0.649969" fill="#D9D9D9"/>
<rect x="268.6" y="289.495" width="14.2993" height="3.24984" rx="0.649969" fill="#D9D9D9"/>
<path d="M238.357 281.437C238.574 281.53 238.714 281.744 238.713 281.979L238.706 283.798C238.705 284.034 238.563 284.246 238.346 284.338L235.899 285.367C235.738 285.434 235.617 285.57 235.561 285.735C235.397 286.219 235.194 286.688 234.955 287.134C234.87 287.293 234.855 287.48 234.921 287.647L235.862 290.016C235.95 290.238 235.895 290.492 235.722 290.658L234.365 291.955C234.201 292.111 233.963 292.159 233.751 292.08L231.237 291.133C231.08 291.073 230.905 291.085 230.754 291.159C230.279 291.393 229.779 291.592 229.26 291.748C229.093 291.798 228.954 291.914 228.88 292.072L227.795 294.416C227.698 294.625 227.489 294.758 227.259 294.757L225.322 294.75C225.092 294.749 224.884 294.614 224.789 294.404L223.721 292.051C223.649 291.893 223.512 291.776 223.346 291.724C222.828 291.563 222.33 291.362 221.855 291.125C221.705 291.05 221.53 291.037 221.372 291.095L218.856 292.026C218.644 292.105 218.405 292.054 218.243 291.897L216.891 290.585C216.719 290.418 216.666 290.164 216.756 289.942L217.715 287.581C217.782 287.414 217.769 287.227 217.685 287.068C217.449 286.62 217.248 286.151 217.09 285.666C217.035 285.5 216.914 285.361 216.753 285.292L214.321 284.245C214.104 284.152 213.964 283.939 213.965 283.703L213.972 281.884C213.973 281.648 214.115 281.436 214.332 281.344L216.779 280.315C216.94 280.248 217.061 280.112 217.117 279.947C217.281 279.463 217.484 278.995 217.723 278.548C217.808 278.39 217.823 278.202 217.756 278.035L216.816 275.666C216.728 275.444 216.783 275.19 216.956 275.024L218.313 273.728C218.477 273.571 218.715 273.523 218.927 273.602L221.441 274.55C221.598 274.609 221.773 274.597 221.923 274.523C222.399 274.289 222.899 274.09 223.417 273.934C223.584 273.884 223.724 273.768 223.798 273.61L224.883 271.266C224.98 271.057 225.189 270.924 225.419 270.925L227.356 270.933C227.586 270.933 227.794 271.068 227.889 271.278L228.957 273.632C229.029 273.789 229.166 273.906 229.331 273.958C229.85 274.12 230.349 274.32 230.823 274.557C230.973 274.633 231.148 274.646 231.305 274.588L233.827 273.66C234.039 273.582 234.277 273.632 234.44 273.79L235.786 275.097C235.958 275.264 236.012 275.518 235.922 275.74L234.963 278.101C234.896 278.268 234.909 278.456 234.993 278.614C235.229 279.062 235.43 279.531 235.588 280.016C235.643 280.183 235.764 280.321 235.925 280.39L238.357 281.437ZM226.354 278.849C224.064 278.841 222.202 280.619 222.194 282.825C222.185 285.031 224.033 286.824 226.324 286.833C228.614 286.841 230.476 285.063 230.484 282.857C230.493 280.651 228.645 278.858 226.354 278.849Z" fill="#80C4FF"/>
<path d="M203 258.95C203 257.873 203.873 257 204.95 257H220.552C221.63 257 222.503 257.873 222.503 258.95V292.755C222.503 293.832 221.63 294.705 220.552 294.705H204.95C203.873 294.705 203 293.832 203 292.755V258.95Z" fill="#B3B3B3"/>
<circle cx="212.752" cy="279.103" r="1.95027" fill="#D9D9D9"/>
<rect x="205.6" y="259.601" width="14.302" height="3.25046" rx="0.650091" fill="#D9D9D9"/>
<rect x="205.6" y="265.452" width="14.302" height="3.25046" rx="0.650091" fill="#D9D9D9"/>
<rect x="205.6" y="271.303" width="14.302" height="3.25046" rx="0.650091" fill="#D9D9D9"/>
<rect x="205.6" y="283.654" width="14.302" height="3.25046" rx="0.650091" fill="#D9D9D9"/>
<rect x="205.6" y="289.505" width="14.302" height="3.25046" rx="0.650091" fill="#D9D9D9"/>
<path d="M86 283.279L129 283.279" stroke="#B3B3B3" stroke-width="2.99164"/>
<path d="M88.8107 283.282L89.8649 287.712C89.9145 287.92 89.6867 288.084 89.5053 287.97L82.5412 283.618C82.2912 283.461 82.2912 283.097 82.5412 282.941L89.5018 278.591C89.6838 278.477 89.9119 278.642 89.8612 278.85L88.811 283.17C88.8021 283.207 88.802 283.245 88.8107 283.282Z" fill="#B3B3B3"/>
<path d="M127.43 283.277L126.376 278.847C126.326 278.639 126.554 278.475 126.735 278.589L133.7 282.941C133.949 283.097 133.949 283.461 133.7 283.618L126.739 287.968C126.557 288.082 126.329 287.917 126.379 287.708L127.43 283.388C127.439 283.352 127.439 283.313 127.43 283.277Z" fill="#B3B3B3"/>
<defs>
<clipPath id="clip0">
<rect width="202" height="13" fill="white" transform="translate(120 96.2793)"/>
</clipPath>
</defs>
</svg>
