<svg width="375" height="369" viewBox="0 0 375 369" fill="none" xmlns="http://www.w3.org/2000/svg">
<rect width="375" height="368" transform="translate(0 0.556396)" fill="#FAFAFA"/>
<rect x="95" y="50.8357" width="252" height="290" rx="3" fill="#EBEBEB"/>
<path d="M86 144.836L107 144.836" stroke="#B3B3B3" stroke-width="2.99164"/>
<path d="M88.8107 144.838L89.8649 149.268C89.9145 149.476 89.6867 149.64 89.5053 149.526L82.5412 145.174C82.2912 145.018 82.2912 144.654 82.5412 144.497L89.5018 140.147C89.6838 140.033 89.9119 140.198 89.8612 140.407L88.811 144.727C88.8021 144.763 88.802 144.802 88.8107 144.838Z" fill="#B3B3B3"/>
<path d="M104.189 144.833L103.135 140.403C103.086 140.195 103.313 140.031 103.495 140.145L110.459 144.497C110.709 144.654 110.709 145.018 110.459 145.174L103.498 149.524C103.316 149.638 103.088 149.473 103.139 149.265L104.189 144.945C104.198 144.908 104.198 144.87 104.189 144.833Z" fill="#B3B3B3"/>
<path d="M221.036 228.017L225.097 227.051C225.428 226.972 225.688 227.334 225.508 227.623L221.538 233.975C221.29 234.372 220.71 234.372 220.462 233.975L216.495 227.628C216.314 227.339 216.577 226.976 216.908 227.056L220.858 228.017C220.916 228.031 220.977 228.031 221.036 228.017Z" fill="#0BC1A2"/>
<path d="M39.02 302.746C38.71 302.826 38.51 302.846 37.91 302.846H35C34.46 302.846 34.24 302.826 33.89 302.766V304.036C34.24 303.986 34.45 303.976 35.01 303.976H38.13C37.99 305.346 37.78 306.756 37.5 308.076H34.01C33.3 308.076 33.08 308.066 32.7 308.006V309.266C33.06 309.226 33.29 309.216 33.99 309.216H40.03C40.72 309.216 40.95 309.226 41.31 309.266V308.006C40.93 308.066 40.71 308.076 40.01 308.076H38.83C39.09 306.576 39.2 305.866 39.44 304.096C39.49 303.716 39.54 303.506 39.65 303.266L39.02 302.746ZM42.71 306.696C43.11 306.646 43.22 306.646 44.34 306.646H49.65C50.77 306.646 50.88 306.646 51.28 306.696V305.306C50.84 305.366 50.65 305.376 49.66 305.376H44.33C43.34 305.376 43.15 305.366 42.71 305.306V306.696ZM55.59 303.746V302.706C55.59 302.226 55.59 302.186 55.63 301.856H54.32C54.36 302.106 54.37 302.236 54.37 302.746V303.746H53.78C53.03 303.746 52.84 303.736 52.48 303.676V304.896C52.82 304.856 52.96 304.846 53.76 304.846H54.37V306.316C54.36 306.856 54.36 306.966 54.33 307.176H55.63C55.6 306.936 55.59 306.786 55.59 306.336V304.846H58.18C58.16 306.256 58.1 306.746 57.86 307.346C57.43 308.316 56.59 308.946 55.17 309.346C55.58 309.766 55.75 310.006 55.92 310.406C57.36 309.926 58.34 309.156 58.89 308.076C59.26 307.286 59.36 306.646 59.38 304.846H60.04C60.85 304.846 60.99 304.856 61.33 304.896V303.676C60.97 303.736 60.78 303.746 60.02 303.746H59.39C59.39 303.346 59.4 302.956 59.4 302.586C59.4 302.236 59.4 302.166 59.43 301.926H58.15C58.18 302.156 58.19 302.386 58.19 302.916C58.19 302.936 58.19 303.036 58.19 303.156C58.19 303.246 58.19 303.486 58.19 303.746H55.59ZM59.42 301.536C59.7 301.976 59.91 302.466 60.1 303.106L60.79 302.906C60.62 302.316 60.4 301.836 60.1 301.346L59.42 301.536ZM61.97 302.566C61.77 301.956 61.56 301.486 61.29 301.066L60.65 301.266C60.95 301.756 61.18 302.266 61.33 302.776L61.97 302.566ZM62.71 306.696C63.11 306.646 63.22 306.646 64.34 306.646H69.65C70.77 306.646 70.88 306.646 71.28 306.696V305.306C70.84 305.366 70.65 305.376 69.66 305.376H64.33C63.34 305.376 63.15 305.366 62.71 305.306V306.696Z" fill="black"/>
<path fill-rule="evenodd" clip-rule="evenodd" d="M199.706 36.0318C199.706 36.4923 199.376 36.8924 198.924 36.981C192.242 38.2899 187.2 44.178 187.2 51.2436C187.2 59.2705 193.707 65.7777 201.734 65.7777C201.823 65.7777 201.913 65.7768 202.002 65.7752H241.947C241.952 65.7752 241.956 65.7713 241.956 65.7665C241.956 65.7615 241.96 65.7575 241.965 65.7578C242.186 65.7697 242.408 65.7757 242.632 65.7757C249.352 65.7757 254.8 60.3279 254.8 53.6077C254.8 47.8906 250.857 43.0944 245.542 41.7899C244.94 41.6421 244.532 41.0578 244.597 40.4411C244.639 40.0472 244.66 39.6474 244.66 39.2425C244.66 32.989 239.59 27.9195 233.337 27.9195C231.35 27.9195 229.482 28.4313 227.859 29.3303C227.27 29.6564 226.504 29.4562 226.165 28.8753C223.702 24.6643 219.132 21.8357 213.902 21.8357C206.061 21.8357 199.706 28.1915 199.706 36.0318Z" fill="#BADBFF"/>
<path d="M40.43 174.196C39.92 174.196 39.67 174.186 39.39 174.156V175.076C39.65 175.036 39.93 175.026 40.45 175.026C40.33 175.836 40.05 176.286 39.38 176.806C39.72 177.046 39.92 177.216 40.18 177.496C40.95 176.746 41.28 176.086 41.39 175.026H42.51V176.496C42.51 176.936 42.5 177.116 42.46 177.356H43.51C43.47 177.136 43.46 176.966 43.46 176.506V175.026H43.61C44.09 175.026 44.34 175.036 44.64 175.076V174.156C44.36 174.186 44.11 174.196 43.61 174.196H43.46V173.276C43.96 173.276 44.23 173.286 44.5 173.316V172.416C44.22 172.456 43.95 172.466 43.46 172.466H40.56C40.09 172.466 39.82 172.456 39.55 172.416V173.316C39.82 173.286 40.09 173.276 40.55 173.276C40.55 173.736 40.55 173.846 40.53 174.196H40.43ZM42.51 173.276V174.196H41.46C41.48 173.726 41.48 173.726 41.48 173.276H42.51ZM38.86 171.996H40.72C41.07 171.996 41.38 172.006 41.64 172.026C41.62 171.766 41.61 171.576 41.61 171.126V169.586C41.61 169.236 41.62 168.946 41.64 168.656C41.37 168.686 41.14 168.696 40.62 168.696H38.8C38.31 168.696 38.05 168.686 37.77 168.656C37.8 168.976 37.81 169.256 37.81 169.776V176.376C37.81 176.996 37.79 177.326 37.75 177.616H38.92C38.88 177.326 38.86 176.986 38.86 176.396V171.996ZM38.86 169.446H40.63V169.976H38.86V169.446ZM38.86 170.686H40.63V171.226H38.86V170.686ZM46.22 169.766C46.22 169.266 46.23 169.026 46.26 168.656C45.98 168.686 45.73 168.696 45.23 168.696H43.32C42.81 168.696 42.58 168.686 42.3 168.656C42.32 168.946 42.33 169.206 42.33 169.586V171.126C42.33 171.576 42.33 171.736 42.31 172.026C42.55 172.006 42.87 171.996 43.22 171.996H45.18V176.246C45.18 176.466 45.12 176.506 44.8 176.506C44.56 176.506 44.24 176.476 43.88 176.426C44.04 176.816 44.09 177.036 44.15 177.486C44.48 177.506 44.62 177.506 44.8 177.506C45.92 177.506 46.22 177.276 46.22 176.386V169.766ZM43.32 169.446H45.18V169.976H43.32V169.446ZM43.32 170.686H45.18V171.226H43.32V170.686ZM50.28 173.456C50.28 173.566 50.28 173.636 50.27 173.766H48.84C48.35 173.766 48.1 173.756 47.79 173.706V174.776C48.12 174.726 48.38 174.716 48.84 174.716H50.12C49.97 175.196 49.76 175.516 49.41 175.826C48.97 176.226 48.49 176.456 47.56 176.716C47.88 177.036 48.08 177.326 48.27 177.696C49.5 177.216 50.1 176.816 50.6 176.156C50.9 175.756 51.09 175.316 51.22 174.716H52.51V176.656C52.51 177.356 52.83 177.526 54.19 177.526C56.11 177.526 56.29 177.376 56.51 175.686C56.11 175.626 55.82 175.526 55.43 175.336C55.4 175.886 55.34 176.216 55.25 176.336C55.14 176.476 54.9 176.526 54.35 176.526C54.01 176.526 53.84 176.516 53.71 176.476C53.56 176.436 53.55 176.416 53.55 176.206V174.716H55.14C55.59 174.716 55.88 174.736 56.19 174.776V173.706C55.89 173.756 55.63 173.766 55.14 173.766H53.55V172.686C54.03 172.686 54.21 172.696 54.51 172.726V172.296C55.05 172.656 55.34 172.816 56.16 173.196C56.43 172.616 56.49 172.506 56.72 172.206C55.99 171.926 55.66 171.766 55.12 171.446C55.47 171.136 55.76 170.846 56.02 170.526C56.22 170.306 56.24 170.276 56.3 170.216L55.38 169.696C55.14 170.086 54.77 170.516 54.34 170.906C54.13 170.746 54.02 170.656 53.75 170.426C54 170.196 54.31 169.886 54.49 169.676C54.72 169.406 54.85 169.256 54.88 169.216L53.96 168.706C53.93 168.756 53.93 168.756 53.88 168.836C53.84 168.916 53.81 168.946 53.67 169.126C53.47 169.386 53.4 169.446 53.08 169.766C52.7 169.306 52.56 169.076 52.46 168.676C52.23 168.706 52.07 168.716 51.6 168.716H49.75C49.4 168.716 49.11 168.696 48.92 168.666V169.706C48.76 169.576 48.76 169.576 48.6 169.446L47.78 170.056C48.28 170.406 48.62 170.716 49.18 171.366C48.51 171.806 48.04 172.046 47.27 172.336C47.54 172.656 47.69 172.896 47.86 173.256C48.66 172.896 49.03 172.686 49.62 172.286V172.726C49.87 172.706 49.98 172.696 50.29 172.686L50.28 173.456ZM51.35 172.686H52.51V173.766H51.34C51.34 173.666 51.34 173.626 51.34 173.536L51.35 172.686ZM50.99 169.666C50.69 170.076 50.43 170.356 50.01 170.736C49.68 170.366 49.45 170.146 48.92 169.706C49.13 169.676 49.35 169.666 49.53 169.666H50.99ZM50.61 171.746C50.5 171.746 50.45 171.746 50.34 171.746C51.05 171.166 51.47 170.716 52.03 169.936C52.58 170.706 53.02 171.166 53.73 171.746C53.65 171.746 53.65 171.746 53.52 171.746H50.61ZM61.42 172.256C60.1 173.066 58.82 173.646 57.3 174.096C57.59 174.466 57.72 174.686 57.89 175.096C58.66 174.786 58.87 174.696 59.48 174.396C59.47 174.576 59.47 174.796 59.47 174.956V176.506C59.47 176.946 59.45 177.306 59.41 177.636H60.58V177.206H64.21V177.636H65.37C65.33 177.366 65.31 177.026 65.31 176.506V174.036C65.31 173.476 65.32 173.236 65.35 172.946C65.06 172.966 64.78 172.976 64.3 172.976H62.83C62.57 172.976 62.24 172.976 62.02 172.986C62.47 172.696 62.72 172.526 63.1 172.256H65.25C65.76 172.256 66.16 172.276 66.49 172.316V171.216C66.17 171.256 65.87 171.276 65.35 171.276H64.32C64.85 170.796 65.28 170.366 65.68 169.896C65.91 169.626 66.06 169.456 66.13 169.386L65.14 168.736C64.93 169.146 64.51 169.706 63.98 170.256V169.396C63.69 169.436 63.37 169.456 62.86 169.456H62.14V169.286C62.14 168.876 62.15 168.666 62.2 168.406H60.98C61.02 168.676 61.04 168.896 61.04 169.286V169.456H59.58C59.05 169.456 58.66 169.436 58.4 169.396V170.446C58.69 170.416 59.01 170.406 59.54 170.406H61.04V171.276H58.76C58.19 171.276 57.81 171.256 57.54 171.216V172.316C57.89 172.276 58.24 172.256 58.74 172.256H61.42ZM62.14 171.276V170.406H62.96C63.36 170.406 63.53 170.416 63.8 170.436C63.48 170.756 63.21 170.986 62.84 171.276H62.14ZM60.58 173.886H64.2V174.626H60.58V173.886ZM60.58 175.496H64.2V176.266H60.58V175.496Z" fill="black"/>
<path d="M27 159.935C27 159.383 27.4477 158.935 28 158.935H75C75.5523 158.935 76 159.383 76 159.935C76 160.488 75.5523 160.935 75 160.935H28C27.4477 160.935 27 160.488 27 159.935Z" fill="#9E9E9E"/>
<mask id="mask0" mask-type="alpha" maskUnits="userSpaceOnUse" x="23" y="107" width="56" height="52">
<rect x="23" y="107.935" width="56" height="51" fill="#C4C4C4"/>
</mask>
<g mask="url(#mask0)">
<path d="M59.6882 159.377C63.2548 163.521 68.6913 162.909 71.9194 159.72C74.7787 156.895 74.0325 152.535 72.5833 150.569C69.5678 146.478 64.5 147.74 62.7254 149.823C61.3891 151.394 60.7382 155.325 63.4196 156.865C65.9579 158.327 68.6263 157.056 68.7304 156.114C68.6566 157.52 64.0488 160.167 60.6081 156.027" fill="#7879BA"/>
<path opacity="0.23" d="M66.0102 156.309C65.7282 156.326 64.4091 156.391 63.0034 155.623C62.4393 155.315 62.0271 154.964 61.7625 154.708C62.0141 155.576 62.5304 156.352 63.4242 156.869C65.9625 158.331 68.6308 157.059 68.735 156.118C68.735 156.118 68.735 156.118 68.735 156.114C68.8434 155.619 68.8608 155.363 68.7957 155.337C68.774 155.328 68.748 155.346 68.7089 155.38C68.2881 155.667 67.3422 156.222 66.0102 156.309Z" fill="#615A86"/>
<path opacity="0.23" d="M60.1741 159.894C61.2024 160.927 62.3608 161.599 63.5627 161.968C61.198 160.562 60.9464 157.486 60.8336 156.688C60.6123 157.898 60.378 158.996 60.1741 159.894Z" fill="#615A86"/>
<path d="M34.4545 143.531C32.233 145.714 29.2826 149.05 27.5254 154.235C27.5341 154.231 27.5427 154.222 27.5471 154.218C33.5347 150.027 32.732 152.435 36.1987 151.068C39.5527 149.749 38.4159 147.562 39.5527 145.844C39.4963 145.835 35.4785 144.395 34.4545 143.531Z" fill="#7879BA"/>
<path opacity="0.24" d="M34.6752 146.54C35.7425 147.664 36.1287 149.244 35.9855 151.153C36.0549 151.127 36.1287 151.101 36.2024 151.07C37.9293 150.393 38.463 149.482 38.7363 148.528C37.1049 147.977 35.7642 147.304 34.6752 146.54Z" fill="#615A86"/>
<path d="M33.2392 142.317C30.445 143.541 26.9262 146.07 24.9998 148.782C26.9262 148.309 28.7485 148.205 30.432 148.335C30.432 148.335 32.8965 145.042 34.5712 143.627C34.1808 143.293 33.5863 142.729 33.2392 142.317Z" fill="#646DA9"/>
<path d="M59.5934 143.158C56.6994 140.833 44.4292 141.041 41.1707 143.154C36.1984 146.378 41.1794 162.158 41.1794 162.158C41.1924 162.232 42.4289 165.768 42.4289 165.768C43.1535 167.82 44.6027 168.046 45.3273 165.994C45.3273 165.994 46.3166 162.397 46.3556 162.371C47.9436 162.809 53.5754 162.509 54.5734 162.284C54.6775 162.332 55.4542 166.041 55.4542 166.041C56.1788 168.094 57.7451 167.82 58.4697 165.768L59.5978 162.162C59.5978 162.162 64.0104 146.707 59.5934 143.158Z" fill="#7879BA"/>
<path d="M56.2651 150.334C56.252 153.424 50.412 155.905 50.412 155.905C50.412 155.905 44.5936 153.376 44.6066 150.287C44.6196 147.197 45.8128 144.698 50.4597 144.716C55.3626 144.737 56.2824 147.245 56.2651 150.334Z" fill="#FDFEFF"/>
<mask id="mask1" mask-type="alpha" maskUnits="userSpaceOnUse" x="44" y="144" width="13" height="12">
<path d="M56.2651 150.334C56.252 153.424 50.412 155.905 50.412 155.905C50.412 155.905 44.5936 153.376 44.6066 150.287C44.6196 147.197 45.8128 144.698 50.4597 144.716C55.3626 144.737 56.2824 147.245 56.2651 150.334Z" fill="#FDFEFF"/>
</mask>
<g mask="url(#mask1)">
<path fill-rule="evenodd" clip-rule="evenodd" d="M47.8446 151.476C48.8407 150.82 49.9079 150.083 50.5248 149.594L50.7941 149.934C50.1614 150.435 49.0808 151.182 48.0832 151.838C47.0904 152.492 46.1571 153.072 45.8243 153.231L45.6367 152.84C45.9374 152.696 46.8438 152.135 47.8446 151.476Z" fill="#615A86"/>
<path fill-rule="evenodd" clip-rule="evenodd" d="M51.5756 152.304C53.2324 151.145 54.9256 149.908 55.5451 149.417L55.8144 149.757C55.1843 150.256 53.4823 151.5 51.8242 152.66C50.9946 153.24 50.1736 153.8 49.5012 154.237C49.1651 154.456 48.8645 154.644 48.6178 154.789C48.3758 154.931 48.1717 155.04 48.0343 155.089L47.8875 154.681C47.9822 154.647 48.1544 154.558 48.398 154.415C48.6369 154.275 48.9313 154.09 49.2648 153.873C49.9314 153.44 50.7478 152.883 51.5756 152.304Z" fill="#615A86"/>
<path fill-rule="evenodd" clip-rule="evenodd" d="M52.8885 151.838C51.8909 151.182 50.8103 150.435 50.1776 149.934L50.4469 149.594C51.0638 150.083 52.131 150.82 53.1271 151.476C54.1279 152.135 55.0343 152.696 55.335 152.84L55.1474 153.231C54.8146 153.072 53.8813 152.492 52.8885 151.838Z" fill="#615A86"/>
<path fill-rule="evenodd" clip-rule="evenodd" d="M49.1477 152.662C47.4897 151.503 45.7877 150.259 45.1576 149.76L45.4269 149.42C46.0464 149.91 47.7396 151.148 49.3964 152.307C50.2242 152.886 51.0406 153.443 51.7072 153.876C52.0406 154.093 52.3351 154.277 52.5739 154.418C52.8175 154.561 52.9898 154.65 53.0845 154.684L52.9376 155.092C52.8002 155.042 52.5962 154.934 52.3542 154.792C52.1074 154.647 51.8069 154.458 51.4708 154.24C50.7983 153.803 49.9774 153.242 49.1477 152.662Z" fill="#615A86"/>
</g>
<path opacity="0.3" d="M45.325 157.233C44.4138 157.992 43.4766 157.446 42.5655 156.704C42.5655 156.704 39.9795 154.452 39.0684 151.762C39.1334 152.513 39.2246 153.267 39.333 154.009C39.4328 154.14 39.5326 154.27 39.6367 154.396C40.9254 155.962 42.4744 157.012 42.4744 157.012C43.5677 157.789 44.4746 158.105 45.2816 157.48C45.5896 157.242 45.7025 156.929 45.7068 156.613C45.6591 156.843 45.5419 157.055 45.325 157.233Z" fill="#615A86"/>
<path d="M43.0099 152.153C43.0099 152.153 45.0839 154.955 45.1099 154.977C45.4701 155.233 46.2033 156.504 45.3269 157.238C44.4157 157.997 43.4785 157.45 42.5674 156.708C42.5674 156.708 39.9771 154.452 39.0659 151.762" fill="#7979BA"/>
<path d="M42.6147 156.769C42.6147 156.769 44.4197 154.487 45.1052 154.981C45.4697 155.246 46.2203 156.539 45.3265 157.281C44.4024 158.049 42.9792 157.281 42.6147 156.769Z" fill="#C6CED5"/>
<path opacity="0.3" d="M61.463 151.884C60.5518 154.574 57.9615 156.83 57.9615 156.83C57.0504 157.572 56.1132 158.119 55.202 157.36C54.9851 157.182 54.8679 156.969 54.8202 156.748C54.8245 157.065 54.9373 157.373 55.2454 157.616C56.0524 158.236 56.9592 157.924 58.0526 157.147C58.0526 157.147 59.5973 156.097 60.8902 154.531C61.0074 154.388 61.1245 154.24 61.233 154.093C61.3328 153.359 61.4109 152.622 61.463 151.884C61.4673 151.884 61.463 151.884 61.463 151.884Z" fill="#615A86"/>
<path d="M57.521 152.275C57.521 152.275 55.447 155.077 55.421 155.099C55.0609 155.355 54.3276 156.626 55.204 157.36C56.1152 158.119 57.0524 157.572 57.9635 156.83C57.9635 156.83 60.5538 154.574 61.465 151.884" fill="#7979BA"/>
<path d="M57.9174 156.892C57.9174 156.892 56.1124 154.61 55.4269 155.105C55.0624 155.369 54.3118 156.662 55.2056 157.404C56.1298 158.177 57.5529 157.409 57.9174 156.892Z" fill="#C6CED5"/>
<path opacity="0.3" d="M60.6734 148.717C60.6691 149.563 56.135 152.761 50.3296 152.735C44.5286 152.713 39.9424 149.858 39.9468 149.008C39.9511 148.161 44.3637 148.808 50.1648 148.834C55.9701 148.86 60.6778 147.871 60.6734 148.717Z" fill="#615A86"/>
<path d="M38.068 117.574C39.9424 115.952 45.904 115.067 50.2862 115.084C55.2802 115.101 60.86 116.407 64.3093 118.151C71.9023 115.288 77.6253 124.117 77.9507 125.77C78.211 127.081 74.5837 128.001 68.4182 126.196C68.4182 126.196 69.9368 132.352 70.0236 135.754C70.1407 140.254 69.3684 150.072 50.1083 150.072C30.8482 150.072 29.8112 141.03 29.8025 135.442C29.7982 132.886 30.9696 126.864 31.4946 124.517C28.631 123.775 26.3922 115.908 27.9325 112.329C28.7221 110.493 36.5841 114.121 38.068 117.574Z" fill="#7879BA"/>
<path opacity="0.25" d="M77.9508 125.983C77.5299 126.508 72.6574 126.938 68.0669 124.777C67.0646 124.309 67.364 124.994 68.4617 126.37C68.4357 126.252 68.4183 126.187 68.4183 126.187C74.2367 127.901 77.7902 127.177 77.9508 125.983Z" fill="#615A86"/>
<path opacity="0.25" d="M32.6317 123.726C28.2886 121.899 27.5466 114.18 27.5726 113.681C27.5726 113.668 27.5683 113.659 27.5596 113.655C26.9001 117.547 28.935 123.812 31.4689 124.511C32.7749 124.281 33.3086 124.012 32.6317 123.726Z" fill="#615A86"/>
<path d="M50.0475 129.272C40.8621 129.272 35.4169 132.621 35.4169 138.887C35.4169 145.403 41.3437 147.126 50.0952 147.13C58.8466 147.13 64.7778 145.421 64.7778 138.895C64.7778 132.27 59.2328 129.276 50.0475 129.272Z" fill="#E2C080"/>
<path opacity="0.2" d="M36.2287 135.143L36.1289 135.434C44.3944 132.605 58.5434 133.034 64.2533 135.559C62.3746 131.641 57.0421 129.416 49.9525 129.411C43.0754 129.411 38.1942 131.511 36.2287 135.143Z" fill="#615A86"/>
<path d="M36.3335 134.84L36.3378 134.844C43.8657 132.64 57.5461 132.644 63.9372 134.922C62.0585 131.065 57.1469 129.195 50.0616 129.19C43.1802 129.195 38.299 131.264 36.3335 134.84Z" fill="#D2D2D2"/>
<path d="M46.1448 129.257L50.1075 133.222L54.0725 129.259L50.1098 125.294L46.1448 129.257Z" fill="white"/>
<path opacity="0.23" d="M50.1046 133.221L54.0703 129.26L50.109 125.298L50.1046 133.221Z" fill="#A0A1C2"/>
<path opacity="0.9" d="M42.7202 135.929C42.551 136.679 43.319 136.649 44.0176 136.619C44.7161 136.588 45.5665 137.018 45.3539 135.816C45.2672 135.343 44.7161 134.97 44.0653 134.953C43.1238 134.953 42.8027 135.569 42.7202 135.929Z" fill="white"/>
<path opacity="0.9" d="M57.4719 135.847C57.6932 136.584 56.9253 136.606 56.2224 136.623C55.5238 136.641 54.7038 137.127 54.8339 135.916C54.886 135.439 55.4153 135.031 56.0618 134.97C56.9643 134.875 57.3635 135.491 57.4719 135.847Z" fill="white"/>
<path d="M44.0427 140.806C44.8143 140.806 45.4398 140.181 45.4398 139.409C45.4398 138.638 44.8143 138.012 44.0427 138.012C43.2711 138.012 42.6456 138.638 42.6456 139.409C42.6456 140.181 43.2711 140.806 44.0427 140.806Z" fill="#2C376E"/>
<path d="M43.7155 139.953C43.8179 139.953 43.9009 139.87 43.9009 139.768C43.9009 139.665 43.8179 139.582 43.7155 139.582C43.613 139.582 43.53 139.665 43.53 139.768C43.53 139.87 43.613 139.953 43.7155 139.953Z" fill="white"/>
<path d="M44.4372 139.489C44.6816 139.489 44.8798 139.291 44.8798 139.047C44.8798 138.802 44.6816 138.604 44.4372 138.604C44.1928 138.604 43.9946 138.802 43.9946 139.047C43.9946 139.291 44.1928 139.489 44.4372 139.489Z" fill="white"/>
<path d="M56.1657 140.805C56.9373 140.805 57.5628 140.179 57.5628 139.408C57.5628 138.636 56.9373 138.011 56.1657 138.011C55.3941 138.011 54.7686 138.636 54.7686 139.408C54.7686 140.179 55.3941 140.805 56.1657 140.805Z" fill="#2C376E"/>
<path d="M56.5807 139.953C56.6831 139.953 56.7661 139.87 56.7661 139.767C56.7661 139.665 56.6831 139.582 56.5807 139.582C56.4783 139.582 56.3953 139.665 56.3953 139.767C56.3953 139.87 56.4783 139.953 56.5807 139.953Z" fill="white"/>
<path d="M55.8609 139.49C56.1053 139.49 56.3035 139.292 56.3035 139.048C56.3035 138.803 56.1053 138.605 55.8609 138.605C55.6165 138.605 55.4183 138.803 55.4183 139.048C55.4183 139.292 55.6165 139.49 55.8609 139.49Z" fill="white"/>
<path d="M54.5555 142.249C54.5555 143.954 52.564 144.961 50.1082 144.961C47.6524 144.961 45.6609 143.95 45.6609 142.245C45.6609 140.54 47.6524 138.787 50.1082 138.791C52.564 138.791 54.5555 140.544 54.5555 142.249Z" fill="white"/>
<path d="M51.6707 140.816C51.6707 141.38 50.9722 141.836 50.1087 141.836C49.2453 141.836 48.5468 141.38 48.5468 140.816C48.5468 140.252 49.2453 140.135 50.1087 140.135C50.9722 140.135 51.6707 140.252 51.6707 140.816Z" fill="#2C376E"/>
<path opacity="0.8" d="M50.6515 140.63C50.6515 140.825 50.4085 140.986 50.1091 140.986C49.8097 140.986 49.5668 140.825 49.5668 140.63C49.5668 140.434 49.8097 140.391 50.1091 140.391C50.4085 140.391 50.6515 140.434 50.6515 140.63Z" fill="white"/>
<path d="M52.0177 141.918C51.9005 141.887 51.7834 141.952 51.753 142.069C51.701 142.26 51.4406 142.434 51.1412 142.477C50.9764 142.503 50.5815 142.512 50.3299 142.156V141.28C50.3299 141.158 50.2344 141.063 50.1129 141.063C49.9915 141.063 49.896 141.158 49.896 141.28V142.156C49.6443 142.512 49.2495 142.503 49.0846 142.477C48.7809 142.434 48.5249 142.26 48.4685 142.069C48.4381 141.952 48.3167 141.887 48.2038 141.918C48.0867 141.948 48.0216 142.069 48.052 142.182C48.1518 142.547 48.5423 142.837 49.0239 142.907C49.4187 142.963 49.8222 142.859 50.1129 142.568C50.4817 142.946 50.9286 142.954 51.202 142.907C51.6836 142.829 52.0741 142.547 52.1739 142.182C52.1999 142.065 52.1305 141.948 52.0177 141.918Z" fill="#2C376E"/>
</g>
<path d="M36 143.407C36 142.539 36.7033 141.836 37.571 141.836H62.6482C63.5158 141.836 64.2191 142.539 64.2191 143.407V157.365C64.2191 158.232 63.5158 158.936 62.6482 158.936H37.571C36.7033 158.936 36 158.232 36 157.365V143.407Z" fill="#B2B2B2"/>
<circle cx="50.1099" cy="150.747" r="2.22783" fill="#D9D9D9"/>
<path d="M37.1439 264.406C37.144 264.965 36.9781 265.512 36.6672 265.978C36.3564 266.443 35.9144 266.806 35.3974 267.02C34.8804 267.234 34.3114 267.29 33.7625 267.181C33.2136 267.072 32.7094 266.803 32.3136 266.407C31.9179 266.011 31.6484 265.507 31.5392 264.958C31.43 264.409 31.4861 263.84 31.7003 263.323C31.9146 262.806 32.2773 262.364 32.7427 262.053C33.208 261.742 33.7552 261.576 34.3148 261.577C34.6864 261.577 35.0542 261.65 35.3975 261.792C35.7407 261.934 36.0526 262.142 36.3153 262.405C36.578 262.668 36.7864 262.98 36.9286 263.323C37.0707 263.666 37.1439 264.034 37.1439 264.406Z" fill="#E2BE97"/>
<path d="M70.2611 264.406C70.2612 264.965 70.0953 265.512 69.7844 265.978C69.4735 266.443 69.0316 266.806 68.5146 267.02C67.9975 267.234 67.4286 267.29 66.8797 267.181C66.3308 267.072 65.8265 266.803 65.4308 266.407C65.0351 266.011 64.7656 265.507 64.6564 264.958C64.5472 264.409 64.6033 263.84 64.8175 263.323C65.0317 262.806 65.3945 262.364 65.8599 262.053C66.3252 261.742 66.8724 261.576 67.432 261.577C68.1823 261.577 68.9019 261.875 69.4325 262.405C69.963 262.936 70.2611 263.655 70.2611 264.406Z" fill="#E2BE97"/>
<path d="M51.0001 275.836C39.341 275.836 32.0001 285.836 32.0001 290.479C32.0001 295.121 41.5001 295.836 51.0001 295.836C60.5001 295.836 70.0001 295.121 70.0001 290.479C70.0001 285.836 62.6592 275.836 51.0001 275.836Z" fill="#319BD0"/>
<path d="M68.0701 260.299C68.0701 270.357 61.2903 278.513 51.2314 278.513C41.1725 278.513 33.7061 270.357 33.7061 260.299C33.7061 250.24 41.173 242.084 51.2314 242.084C61.2898 242.084 68.0701 250.238 68.0701 260.299Z" fill="#EAC39B"/>
<path d="M44.9991 263.137C44.9992 263.446 44.9077 263.748 44.7363 264.004C44.5648 264.261 44.3211 264.461 44.0359 264.579C43.7507 264.698 43.4369 264.728 43.134 264.668C42.8312 264.608 42.5531 264.46 42.3348 264.241C42.1164 264.023 41.9677 263.745 41.9075 263.442C41.8472 263.139 41.8781 262.825 41.9962 262.54C42.1143 262.255 42.3144 262.011 42.5711 261.84C42.8278 261.668 43.1296 261.577 43.4383 261.577C43.8522 261.577 44.2491 261.741 44.5418 262.034C44.8345 262.326 44.999 262.723 44.9991 263.137Z" fill="#804C3F"/>
<path d="M60.2647 263.137C60.2648 263.446 60.1733 263.748 60.0019 264.004C59.8304 264.261 59.5866 264.461 59.3014 264.579C59.0162 264.698 58.7023 264.728 58.3995 264.668C58.0967 264.608 57.8185 264.459 57.6002 264.241C57.3819 264.023 57.2332 263.745 57.173 263.442C57.1128 263.139 57.1438 262.825 57.262 262.54C57.3802 262.255 57.5803 262.011 57.837 261.839C58.0938 261.668 58.3956 261.576 58.7044 261.577C59.1182 261.577 59.515 261.741 59.8076 262.034C60.1002 262.326 60.2646 262.723 60.2647 263.137Z" fill="#804C3F"/>
<path d="M47.1942 270.325C48.7203 272.409 53.9326 272.524 55.2693 270.325" stroke="#804C3F" stroke-width="1.0814" stroke-linecap="round" stroke-linejoin="round"/>
<path d="M50.8883 278.513H51.2297C51.115 278.513 51.0021 278.506 50.8883 278.504V278.513Z" fill="#B52A22"/>
<path d="M52.0731 265.966C52.1032 266.268 52.0142 266.57 51.825 266.807C51.6358 267.044 51.3615 267.197 51.0605 267.235C50.773 267.17 50.5162 267.008 50.3323 266.778C50.1484 266.547 50.0482 266.261 50.0482 265.966C50.0482 265.671 50.1484 265.385 50.3323 265.155C50.5162 264.924 50.773 264.763 51.0605 264.698C51.3615 264.735 51.6358 264.889 51.825 265.126C52.0142 265.363 52.1032 265.665 52.0731 265.966Z" fill="#D36744"/>
<path d="M42.693 241.117C38.2571 242.399 30.2857 248.583 33.2951 260.3C35.4402 256.487 40.6354 251.824 44.3102 251.274C43.3914 253.847 44.3747 256.372 45.6993 258.018C48.8232 255.813 51.7632 255.262 55.6224 255.813C59.4817 256.365 64.6259 256.732 65.9126 255.629C65.7291 258.683 67.4955 258.74 68.1343 260.3C69.2367 257.91 69.7714 245.523 61.5024 242.031C53.2334 238.54 45.8354 238.302 43.4942 234.836C41.9419 237.615 42.666 239.826 42.693 241.117Z" fill="#FFD95C"/>
<path d="M36.9999 278.955C36.9999 277.787 37.947 276.84 39.1154 276.84H63.1044C64.2727 276.84 65.2199 277.787 65.2199 278.955V291.805C65.2199 292.973 64.2727 293.92 63.1044 293.92H39.1154C37.947 293.92 36.9999 292.973 36.9999 291.805V278.955Z" fill="#B2B2B2"/>
<circle cx="51.1101" cy="285.751" r="2.22789" fill="#D9D9D9"/>
<path d="M27 294.869C27 294.317 27.4477 293.869 28 293.869H75C75.5523 293.869 76 294.317 76 294.869C76 295.421 75.5523 295.869 75 295.869H28C27.4477 295.869 27 295.421 27 294.869Z" fill="#9E9E9E"/>
<path d="M128.11 80.8057C127.88 80.8857 127.77 80.9057 127.38 80.9057L125.19 80.9357C125 80.9357 124.84 80.9457 124.71 80.9557C124.81 80.7757 124.81 80.7757 124.87 80.6357C124.97 80.4357 124.97 80.4357 125 80.3757C125.1 80.1457 125.1 80.1457 125.13 80.0957C125.24 79.8757 125.24 79.8757 125.3 79.7857L123.93 79.5157C123.89 79.8757 123.73 80.2657 123.42 80.8357C122.69 82.1557 121.97 82.9557 120.83 83.7357C121.35 84.0557 121.5 84.1857 121.8 84.5957C122.75 83.8657 123.53 83.0057 124.14 82.0357L127.15 81.9857C126.6 83.7757 125.66 85.1457 124.23 86.2057C123.6 86.6757 123.04 86.9757 122.04 87.3857C122.48 87.7657 122.61 87.9357 122.89 88.4357C124.43 87.7257 125.53 86.9457 126.45 85.8957C127.33 84.9057 128.04 83.5557 128.5 82.0357C128.61 81.6757 128.65 81.5857 128.75 81.4357L128.11 80.8057ZM132.02 81.2057C132.33 81.1657 132.52 81.1557 133.17 81.1557H136.7C137.35 81.1557 137.54 81.1657 137.85 81.2057V79.9757C137.52 80.0357 137.31 80.0457 136.68 80.0457H133.19C132.56 80.0457 132.35 80.0357 132.02 79.9757V81.2057ZM138.36 82.3657C138.05 82.4357 137.85 82.4557 137.23 82.4557H132.47C131.77 82.4557 131.55 82.4457 131.17 82.3857V83.6057C131.53 83.5657 131.78 83.5557 132.45 83.5557H137.32C136.88 84.6657 136.45 85.2757 135.71 85.8957C134.94 86.5357 134.15 86.9057 132.93 87.2157C133.37 87.7057 133.49 87.8757 133.71 88.3757C134.97 87.9057 135.62 87.5657 136.33 87.0157C137.37 86.2157 138.13 85.1057 138.65 83.6357C138.77 83.3257 138.83 83.1857 138.93 83.0057L138.36 82.3657ZM148.39 81.1557C148.15 81.2357 148.15 81.2357 147.41 81.2357H145.61V80.3757C145.61 80.0957 145.63 79.8257 145.66 79.6557H144.27C144.31 79.8857 144.32 80.0657 144.32 80.3857V81.2457H142.36C141.81 81.2457 141.63 81.2357 141.28 81.1957C141.31 81.4657 141.32 81.7257 141.32 82.1457V83.5957C141.32 83.8757 141.3 84.1857 141.27 84.4357H142.61C142.59 84.2157 142.58 83.9457 142.58 83.6357V82.3457H147.46C147.27 84.1857 146.51 85.4557 145.06 86.3557C144.43 86.7457 143.88 86.9557 142.93 87.1857C143.38 87.6857 143.5 87.8657 143.73 88.3757C144.6 88.0757 145.12 87.8457 145.72 87.4757C146.9 86.7557 147.7 85.8657 148.19 84.7157C148.5 84.0057 148.65 83.4457 148.82 82.2957C148.87 81.9957 148.88 81.9357 148.97 81.7457L148.39 81.1557ZM153.85 88.2857C153.82 87.9957 153.81 87.7157 153.81 87.1757V84.5357C153.81 84.3057 153.8 84.1357 153.77 83.8557C153.85 83.9057 153.88 83.9157 154.11 84.0257C155.53 84.6657 156.95 85.4357 157.65 85.9357L158.35 84.7557C156.77 83.8657 154.97 83.0257 153.81 82.6457V80.7857C153.81 80.1957 153.82 80.0057 153.85 79.7357H152.48C152.52 79.9757 152.53 80.1757 152.54 80.7557V87.1657C152.54 87.7357 152.52 88.0057 152.48 88.2857H153.85ZM155.9 80.6057C156.34 81.0857 156.62 81.4857 156.95 82.0957L157.65 81.7257C157.31 81.1057 157.04 80.7257 156.6 80.2557L155.9 80.6057ZM158.84 81.0757C158.53 80.5057 158.25 80.1257 157.8 79.6657L157.13 80.0157C157.52 80.4457 157.85 80.9157 158.15 81.4657L158.84 81.0757ZM163.69 81.6757V80.6457C163.69 80.1357 163.69 80.1157 163.73 79.7857H162.42C162.46 80.0457 162.47 80.2557 162.47 80.6757V81.6757H161.88C161.17 81.6757 160.97 81.6657 160.58 81.6057V82.8257C160.93 82.7857 161.2 82.7757 161.86 82.7757H162.47V84.2557C162.47 84.6257 162.46 84.8957 162.43 85.1157H163.73C163.7 84.8557 163.69 84.6957 163.69 84.2757V82.7757H166.28C166.26 83.4657 166.26 83.7057 166.24 83.9357C166.15 85.0857 165.86 85.7457 165.18 86.3357C164.7 86.7557 164.22 86.9957 163.27 87.2857C163.7 87.7257 163.83 87.9157 164.02 88.3457C164.94 88.0157 165.43 87.7557 165.97 87.2957C166.84 86.5557 167.27 85.7057 167.41 84.4257C167.46 84.0457 167.46 83.9757 167.48 82.7757H168.15C168.81 82.7757 169.08 82.7857 169.43 82.8257V81.6057C169.04 81.6657 168.84 81.6757 168.13 81.6757H167.49C167.5 81.0757 167.5 81.0757 167.5 80.4657C167.5 80.0757 167.51 80.0257 167.54 79.7957H166.25C166.29 80.0257 166.3 80.2457 166.3 80.9057V81.2257L166.29 81.6757H163.69ZM170.71 84.6957C171.11 84.6457 171.22 84.6457 172.34 84.6457H177.65C178.77 84.6457 178.88 84.6457 179.28 84.6957V83.3057C178.84 83.3657 178.65 83.3757 177.66 83.3757H172.33C171.34 83.3757 171.15 83.3657 170.71 83.3057V84.6957ZM182.99 81.0257C182.99 80.5157 183 80.3357 183.04 80.0957H181.7C181.74 80.3457 181.74 80.5057 181.74 81.0157L181.75 85.6557C181.75 86.2357 181.76 86.4057 181.78 86.5757C181.84 87.0657 181.99 87.3857 182.27 87.5957C182.66 87.8957 183.35 88.0257 184.61 88.0257C185.22 88.0257 186.48 87.9657 187.07 87.9057C188.13 87.8057 188.18 87.7957 188.39 87.7957L188.33 86.4657C187.89 86.5957 187.67 86.6457 187.19 86.7057C186.46 86.8057 185.54 86.8657 184.87 86.8657C183.9 86.8657 183.33 86.7857 183.16 86.6057C183.02 86.4657 182.98 86.2357 182.98 85.6557C182.98 85.6257 182.98 85.5757 182.99 85.5257V84.2057C184.5 83.9257 185.9 83.4757 187.26 82.8257C187.79 82.5657 188.09 82.4257 188.16 82.3957L187.36 81.2657C186.71 81.8757 184.5 82.7657 182.99 83.0457V81.0257ZM187.03 79.9457C187.45 80.4357 187.71 80.8357 188.02 81.4757L188.74 81.1457C188.41 80.4857 188.14 80.0757 187.74 79.6257L187.03 79.9457ZM189.95 80.5357C189.68 79.9757 189.41 79.5857 188.97 79.0857L188.28 79.4057C188.66 79.8657 188.97 80.3457 189.24 80.8957L189.95 80.5357ZM199.33 87.1257C198.12 85.9557 198.12 85.9557 197.87 85.7357C197.19 85.1257 196.65 84.7057 196.02 84.2857C196.63 83.4657 197.12 82.5957 197.58 81.5257C197.69 81.2757 197.77 81.1357 197.9 80.9857L197.24 80.3057C196.99 80.3957 196.91 80.4057 196.35 80.4157L192.83 80.4657C192.71 80.4657 192.63 80.4657 192.59 80.4657C192.18 80.4657 191.99 80.4557 191.71 80.4057L191.75 81.6857C192.09 81.6357 192.36 81.6157 192.84 81.6057C195.99 81.5557 195.99 81.5557 196.15 81.5457L196.04 81.8057C195.39 83.3657 194.19 84.8157 192.68 85.8757C191.93 86.4057 191.45 86.6757 190.68 86.9757C191.09 87.4057 191.21 87.5657 191.49 88.0857C193.02 87.3357 194.17 86.4557 195.3 85.1957C196.39 86.0257 197.54 87.1457 198.37 88.1657L199.33 87.1257ZM205.78 81.4257C206.22 81.4657 206.48 81.5457 206.79 81.7257C207.59 82.2057 208.02 82.9857 208.02 83.9457C208.02 85.0157 207.5 85.9657 206.63 86.4457C206.16 86.7157 205.56 86.8757 204.64 86.9957C204.96 87.4157 205.08 87.6357 205.25 88.1657C205.95 88.0457 206.34 87.9457 206.82 87.7457C208.35 87.1257 209.25 85.7457 209.25 84.0157C209.25 81.7657 207.69 80.3057 205.29 80.3057C203.87 80.3057 202.69 80.7857 201.85 81.7057C201.14 82.4857 200.75 83.5157 200.75 84.6157C200.75 86.2257 201.57 87.3857 202.71 87.3857C203.53 87.3857 204.17 86.7957 204.74 85.5057C205.24 84.3757 205.59 82.9957 205.78 81.4257ZM204.56 81.4357C204.44 82.5657 204.11 83.9157 203.73 84.8157C203.37 85.6757 203.03 86.0957 202.7 86.0957C202.26 86.0957 201.91 85.4457 201.91 84.6257C201.91 83.5557 202.43 82.5257 203.27 81.9257C203.68 81.6357 204.04 81.4957 204.56 81.4357ZM212.63 80.9557C212.8 81.2957 212.89 81.5257 213 81.9457L213.97 81.6157C213.85 81.3657 213.79 81.2357 213.63 80.9557H214.29C214.46 80.9557 214.57 80.9557 214.74 80.9657L214.59 81.0757C214.79 81.1857 214.84 81.2257 215.05 81.3857H214.36C214.39 81.5357 214.39 81.6457 214.39 81.8657V82.0257H211.8C211.22 82.0257 211.05 82.0157 210.75 81.9957C210.78 82.1857 210.79 82.3357 210.79 82.6357V83.3157C210.79 83.5957 210.77 83.7757 210.75 83.9757H211.81V82.8857H218.26V83.9757H219.34C219.31 83.7857 219.3 83.6157 219.3 83.3157V82.6157C219.3 82.2957 219.3 82.1757 219.33 81.9957C219 82.0157 218.82 82.0257 218.25 82.0257H215.44L215.45 81.8657V81.6657C215.77 81.3357 215.87 81.2257 216.06 80.9657H216.62C216.84 81.3357 216.95 81.5557 217.09 81.9357L218.08 81.6457C217.95 81.3757 217.92 81.3257 217.7 80.9657H218.63C219.07 80.9657 219.29 80.9757 219.56 81.0057V80.0257C219.27 80.0657 219.07 80.0757 218.58 80.0757H216.61C216.7 79.8857 216.72 79.8457 216.88 79.4957L215.81 79.3257C215.67 79.8657 215.39 80.3357 214.94 80.7957V80.0157C214.71 80.0557 214.5 80.0657 214.05 80.0657H212.68C212.8 79.8757 212.84 79.7857 212.98 79.5157L211.91 79.3157C211.67 80.0157 211.14 80.6657 210.39 81.1857C210.79 81.5057 210.85 81.5657 211.12 81.9257C211.57 81.5557 211.77 81.3557 212.09 80.9557H212.63ZM213.16 88.6557V88.2257H217.18V88.6557H218.28C218.24 88.3657 218.23 88.0857 218.23 87.7457V86.7357C218.23 86.4057 218.24 86.1557 218.27 85.9057C218.04 85.9357 217.82 85.9457 217.45 85.9457H213.16V85.4657H217.03C217.37 85.4657 217.6 85.4757 217.85 85.4957C217.82 85.2557 217.82 85.0857 217.82 84.7157V83.9657C217.82 83.6857 217.82 83.4957 217.85 83.2857C217.61 83.3157 217.36 83.3257 216.99 83.3257H212.91C212.57 83.3257 212.31 83.3157 212.07 83.2857C212.1 83.4757 212.11 83.6557 212.11 83.9457V87.5457C212.11 88.0057 212.09 88.3057 212.05 88.6557H213.16ZM213.16 84.1457H216.78V84.6757H213.16V84.1457ZM213.16 86.7457H217.18V87.3957H213.16V86.7457ZM226 87.3657H224.21C223.69 87.3657 223.47 87.3557 223.2 87.3157V88.3857C223.54 88.3457 223.8 88.3357 224.33 88.3357H228.54C229.08 88.3357 229.35 88.3457 229.67 88.3857V87.3157C229.4 87.3557 229.14 87.3657 228.61 87.3657H227V86.3357H228.29C228.8 86.3357 229.05 86.3457 229.34 86.3857V85.3557C229.05 85.3957 228.83 85.4057 228.28 85.4057H227V84.5857H228.15C228.75 84.5857 228.91 84.5857 229.24 84.6157C229.21 84.3257 229.2 83.9757 229.2 83.2757V81.1457C229.2 80.5357 229.21 80.0657 229.24 79.7757C228.99 79.8157 228.69 79.8257 227.95 79.8257H225.19C224.54 79.8257 224.22 79.8157 223.84 79.7757C223.88 80.1057 223.89 80.4357 223.89 81.1157V83.3757C223.87 84.3857 223.87 84.3857 223.85 84.6157C224.15 84.5957 224.38 84.5857 225.05 84.5857H226V85.4057H224.88C224.3 85.4057 224.1 85.3957 223.85 85.3557V86.3757C224.11 86.3457 224.32 86.3357 224.89 86.3357H226V87.3657ZM226 80.7957V81.7957H224.89V80.7957H226ZM227 80.7957H228.16V81.7957H227V80.7957ZM226 82.6357V83.6457H224.89V82.6357H226ZM227 82.6357H228.16V83.6457H227V82.6357ZM221.55 80.8957V82.8457H221.24C220.93 82.8457 220.78 82.8357 220.54 82.7957V83.8257C220.77 83.7857 220.93 83.7757 221.22 83.7757H221.55V86.1557C220.87 86.3957 220.66 86.4657 220.32 86.5357L220.59 87.6657C220.69 87.6257 220.74 87.6057 220.79 87.5857C222.34 86.9557 222.73 86.7857 223.6 86.3557L223.57 85.2957C223.13 85.5157 223.01 85.5657 222.59 85.7457V83.7757H222.82C223.05 83.7757 223.25 83.7857 223.45 83.8157V82.7957C223.23 82.8357 223.08 82.8457 222.82 82.8457H222.59V80.8957H222.89C223.17 80.8957 223.38 80.9057 223.63 80.9357V79.8657C223.38 79.9157 223.14 79.9257 222.74 79.9257H221.33C220.92 79.9257 220.66 79.9057 220.42 79.8657V80.9457C220.67 80.9057 220.85 80.8957 221.17 80.8957H221.55ZM234.48 80.7057V81.5957H233.32C232.96 81.5957 232.73 81.5857 232.5 81.5557C232.53 81.8057 232.54 81.9857 232.54 82.3057V85.8857C232.54 86.2457 232.53 86.3857 232.5 86.6257C232.76 86.5957 232.92 86.5857 233.4 86.5857H236.63C237.09 86.5857 237.25 86.5957 237.51 86.6257C237.48 86.4057 237.47 86.2557 237.47 85.8857V82.3057C237.47 81.9857 237.48 81.7757 237.51 81.5557C237.28 81.5857 237.05 81.5957 236.69 81.5957H235.5V80.7057H238.32C238.73 80.7057 239.18 80.7257 239.54 80.7657V79.6657C239.15 79.7057 238.76 79.7257 238.31 79.7257H231.71C231.24 79.7257 230.87 79.7057 230.5 79.6657V80.7657C230.91 80.7257 231.28 80.7057 231.73 80.7057H234.48ZM234.48 82.5257V83.5757H233.51V82.5257H234.48ZM235.5 82.5257H236.51V83.5757H235.5V82.5257ZM234.48 84.4757V85.6957H233.51V84.4757H234.48ZM235.5 84.4757H236.51V85.6957H235.5V84.4757ZM238.14 81.7457C238.18 81.9957 238.19 82.2157 238.19 82.6157V87.2457H231.83V82.6357C231.83 82.1857 231.84 81.9757 231.87 81.7457H230.71C230.75 82.1057 230.77 82.4557 230.77 82.8557V87.3557C230.77 87.8857 230.75 88.2657 230.71 88.6857H231.85V88.2157H238.16V88.6857H239.32C239.27 88.2657 239.25 87.8657 239.25 87.3457V82.8657C239.25 82.5157 239.27 82.0957 239.31 81.7457H238.14ZM241.98 81.7757C241.47 81.7757 241.11 81.7657 240.8 81.7257C240.84 82.1357 240.86 82.5157 240.86 83.0057V87.3557C240.86 87.9657 240.85 88.2957 240.8 88.7157H241.93V88.2357H248.09V88.7257H249.22C249.18 88.3657 249.16 87.9157 249.16 87.3657V83.0157C249.16 82.4257 249.17 82.1157 249.22 81.7257C248.88 81.7657 248.57 81.7757 248.04 81.7757H245.05C245.21 81.4857 245.39 81.0857 245.49 80.7557H248.3C248.78 80.7557 249.16 80.7757 249.52 80.8157V79.7057C249.16 79.7457 248.75 79.7657 248.3 79.7657H241.71C241.23 79.7657 240.85 79.7457 240.49 79.7057V80.8157C240.85 80.7757 241.22 80.7557 241.72 80.7557H244.27C244.14 81.1457 243.99 81.4657 243.82 81.7757H241.98ZM244.07 87.2657V86.2957H245.88V87.2657H244.07ZM243.08 87.2657H241.93V82.7057H243.08V87.2657ZM244.07 82.7057H245.88V83.5957H244.07V82.7057ZM246.88 82.7057H248.09V87.2657H246.88V82.7057ZM245.88 85.3957H244.07V84.4957H245.88V85.3957Z" fill="black"/>
<path d="M120 108.836H322V209.836C322 211.493 320.657 212.836 319 212.836H123C121.343 212.836 120 211.493 120 209.836V108.836Z" fill="white"/>
<g clip-path="url(#clip0)">
<path d="M120 99.8357C120 98.1788 121.343 96.8357 123 96.8357H319C320.657 96.8357 322 98.1788 322 99.8357V109.836H120V99.8357Z" fill="#4E596D"/>
<circle cx="127.636" cy="104.348" r="1.63555" fill="#FF8A7A"/>
<circle cx="132.776" cy="104.347" r="1.63555" fill="#FFD177"/>
<circle cx="137.916" cy="104.347" r="1.63555" fill="#ACFD76"/>
<path d="M144.132 102.608C144.185 102.135 144.585 101.777 145.061 101.777H167.688C168.164 101.777 168.564 102.135 168.617 102.608L169.459 110.188H143.29L144.132 102.608Z" fill="#E8EBEF"/>
<rect x="146.094" y="105.048" width="16.8228" height="1.8692" rx="0.934598" fill="#D2D5D9"/>
<rect x="163.851" y="105.048" width="1.8692" height="1.8692" rx="0.934598" fill="#D2D5D9"/>
<path d="M170.916 103.697C170.886 103.42 171.103 103.179 171.381 103.179H176.97C177.208 103.179 177.408 103.358 177.434 103.595L177.952 108.268C177.983 108.545 177.766 108.787 177.488 108.787H171.887C171.649 108.787 171.448 108.607 171.423 108.37L170.916 103.697Z" fill="#E8EBEF"/>
<rect x="173.196" y="105.633" width="2.80379" height="0.700949" rx="0.350474" fill="#D1D5D9"/>
<rect x="174.949" y="104.581" width="2.80379" height="0.700949" rx="0.350474" transform="rotate(90 174.949 104.581)" fill="#D1D5D9"/>
</g>
<rect x="181" y="179.836" width="80" height="18" rx="1.91715" fill="#0BC1A2"/>
<path fill-rule="evenodd" clip-rule="evenodd" d="M157.927 125.836C157.415 125.836 157 126.251 157 126.763V148.908C157 149.421 157.415 149.836 157.927 149.836H174.073C174.585 149.836 175 149.421 175 148.908V126.763C175 126.757 175 126.75 175 126.744V132.502L168.333 125.836H174.08C174.078 125.836 174.075 125.836 174.073 125.836H157.927Z" fill="#CCE7FF"/>
<path d="M168.333 125.836L175 132.503L169.069 132.503C168.662 132.503 168.333 132.173 168.333 131.767L168.333 125.836Z" fill="#80C4FF"/>
<rect x="146" y="154.836" width="10" height="10" rx="0.958574" fill="#0BC1A2"/>
<path d="M148.187 159.836L150.062 161.711L153.812 157.961" stroke="white" stroke-width="1.43786" stroke-linecap="round" stroke-linejoin="round"/>
<rect x="160" y="155.836" width="26" height="2" rx="1" fill="#C4C4C4"/>
<rect x="160" y="161.836" width="26" height="2" rx="1" fill="#C4C4C4"/>
<path d="M232.737 136.477C232.874 136.538 232.962 136.674 232.961 136.824L232.953 138.936C232.953 139.086 232.864 139.221 232.726 139.281L230.157 140.403C230.055 140.448 229.978 140.536 229.944 140.642C229.769 141.196 229.547 141.73 229.279 142.235C229.226 142.333 229.217 142.45 229.257 142.554L230.258 145.171C230.311 145.311 230.277 145.469 230.171 145.574L228.673 147.06C228.567 147.165 228.409 147.198 228.269 147.144L225.66 146.123C225.556 146.083 225.439 146.09 225.34 146.142C224.833 146.407 224.297 146.628 223.739 146.796C223.631 146.828 223.542 146.905 223.496 147.008L222.354 149.566C222.293 149.703 222.157 149.791 222.007 149.79L219.899 149.782C219.749 149.781 219.614 149.692 219.554 149.555L218.432 146.987C218.387 146.885 218.299 146.807 218.192 146.774C217.635 146.599 217.101 146.376 216.595 146.108C216.496 146.056 216.38 146.047 216.275 146.088L213.663 147.091C213.523 147.145 213.364 147.111 213.259 147.005L211.769 145.503C211.663 145.397 211.63 145.239 211.685 145.099L212.705 142.491C212.746 142.386 212.738 142.27 212.686 142.171C212.422 141.664 212.2 141.129 212.033 140.575C212 140.467 211.924 140.378 211.821 140.332L209.266 139.191C209.129 139.13 209.041 138.994 209.042 138.844L209.05 136.732C209.051 136.582 209.14 136.446 209.277 136.387L211.846 135.264C211.949 135.22 212.026 135.132 212.059 135.026C212.234 134.472 212.457 133.938 212.725 133.433C212.777 133.334 212.786 133.218 212.746 133.113L211.746 130.497C211.692 130.357 211.726 130.199 211.833 130.093L213.33 128.608C213.436 128.503 213.595 128.47 213.734 128.524L216.344 129.545C216.448 129.585 216.564 129.577 216.663 129.526C217.171 129.261 217.706 129.04 218.264 128.872C218.372 128.839 218.462 128.763 218.508 128.66L219.649 126.102C219.71 125.965 219.846 125.877 219.996 125.878L222.104 125.886C222.254 125.886 222.389 125.975 222.449 126.113L223.572 128.681C223.616 128.783 223.705 128.86 223.811 128.894C224.369 129.069 224.903 129.291 225.409 129.56C225.507 129.612 225.624 129.621 225.728 129.581L228.345 128.581C228.485 128.527 228.644 128.561 228.749 128.668L230.235 130.164C230.34 130.271 230.373 130.429 230.319 130.569L229.298 133.177C229.257 133.281 229.265 133.398 229.317 133.497C229.581 134.004 229.803 134.539 229.971 135.093C230.003 135.201 230.08 135.29 230.183 135.336L232.737 136.477ZM221.017 133.829C218.803 133.82 217.004 135.605 216.996 137.818C216.987 140.032 218.772 141.83 220.986 141.839C223.2 141.847 224.999 140.063 225.008 137.849C225.016 135.636 223.231 133.837 221.017 133.829Z" fill="#80C4FF"/>
<rect x="201" y="154.836" width="10" height="10" rx="0.958574" fill="#0BC1A2"/>
<path d="M203.188 159.836L205.063 161.711L208.813 157.961" stroke="white" stroke-width="1.43786" stroke-linecap="round" stroke-linejoin="round"/>
<rect x="215" y="155.836" width="26" height="2" rx="1" fill="#C4C4C4"/>
<rect x="215" y="161.836" width="26" height="2" rx="1" fill="#C4C4C4"/>
<path d="M267.088 128.825V146.055C267.088 147.209 271.482 149.293 276.668 149.293C281.855 149.293 285.824 147.69 285.824 146.055V128.825H267.088Z" fill="#CCE7FF"/>
<path d="M267.066 145.028C267.018 145.12 267.001 145.306 267.001 145.782C267.001 147.818 271.233 149.485 276.455 149.485C281.678 149.485 285.91 147.818 285.91 145.782C285.91 145.306 285.892 145.121 285.844 145.028C285.263 146.787 281.276 148.269 276.455 148.269C271.634 148.269 267.648 146.787 267.066 145.028Z" fill="#80C4FF"/>
<path d="M285.822 128.782C285.822 130.536 281.628 131.957 276.455 131.957C271.281 131.957 267.087 130.536 267.087 128.782C267.087 127.028 271.28 125.607 276.454 125.607C281.628 125.607 285.822 127.028 285.822 128.782Z" fill="#80C4FF"/>
<path d="M267.066 139.248C267.017 139.34 267 139.816 267 140.001C267 142.038 271.233 143.704 276.455 143.704C281.677 143.704 285.909 142.038 285.909 140.001C285.909 139.816 285.892 139.341 285.844 139.248C285.262 141.007 281.275 142.488 276.454 142.488C271.634 142.488 267.647 141.007 267.066 139.248Z" fill="#80C4FF"/>
<path d="M267.066 133.482C267.017 133.574 267 134.05 267 134.235C267 136.272 271.233 137.938 276.455 137.938C281.677 137.938 285.909 136.272 285.909 134.235C285.909 134.05 285.892 133.575 285.844 133.772C285.262 135.531 281.275 136.722 276.454 136.722C271.634 136.722 267.647 135.24 267.066 133.482Z" fill="#80C4FF"/>
<rect x="256" y="154.836" width="10" height="10" rx="0.958574" fill="#0BC1A2"/>
<path d="M258.187 159.836L260.062 161.711L263.812 157.961" stroke="white" stroke-width="1.43786" stroke-linecap="round" stroke-linejoin="round"/>
<rect x="270" y="155.836" width="26" height="2" rx="1" fill="#C4C4C4"/>
<rect x="270" y="161.836" width="26" height="2" rx="1" fill="#C4C4C4"/>
<path d="M195.042 186.676V185.646C195.042 185.136 195.042 185.116 195.082 184.786H193.772C193.812 185.046 193.822 185.256 193.822 185.676V186.676H193.232C192.522 186.676 192.322 186.666 191.932 186.606V187.826C192.282 187.786 192.552 187.776 193.212 187.776H193.822V189.256C193.822 189.626 193.812 189.896 193.782 190.116H195.082C195.052 189.856 195.042 189.696 195.042 189.276V187.776H197.632C197.612 188.466 197.612 188.706 197.592 188.936C197.502 190.086 197.212 190.746 196.532 191.336C196.052 191.756 195.572 191.996 194.622 192.286C195.052 192.726 195.182 192.916 195.372 193.346C196.292 193.016 196.782 192.756 197.322 192.296C198.192 191.556 198.622 190.706 198.762 189.426C198.812 189.046 198.812 188.976 198.832 187.776H199.502C200.162 187.776 200.432 187.786 200.782 187.826V186.606C200.392 186.666 200.192 186.676 199.482 186.676H198.842C198.852 186.076 198.852 186.076 198.852 185.466C198.852 185.076 198.862 185.026 198.892 184.796H197.602C197.642 185.026 197.652 185.246 197.652 185.906V186.226L197.642 186.676H195.042ZM202.062 189.696C202.462 189.646 202.572 189.646 203.692 189.646H209.002C210.122 189.646 210.232 189.646 210.632 189.696V188.306C210.192 188.366 210.002 188.376 209.012 188.376H203.682C202.692 188.376 202.502 188.366 202.062 188.306V189.696ZM213.819 185.346C213.819 185.406 213.819 185.456 213.819 185.486C213.819 185.706 213.789 186.046 213.729 186.456C213.569 187.716 213.219 188.956 212.789 189.886C212.369 190.806 211.959 191.416 211.359 192.016C211.839 192.276 212.029 192.426 212.499 192.876C213.839 191.336 214.619 189.366 215.039 186.496L215.069 186.256L215.119 185.966L215.139 185.796C215.149 185.716 215.159 185.706 215.189 185.596L213.819 185.346ZM216.789 185.586C216.839 185.736 216.869 185.896 216.929 186.306C217.319 188.996 218.249 191.296 219.579 192.886C219.959 192.456 220.169 192.286 220.679 191.966C219.639 190.846 218.939 189.496 218.449 187.646C218.219 186.786 218.039 185.806 218.029 185.346L216.789 185.586ZM218.129 184.966C218.509 185.526 218.719 185.956 218.949 186.596L219.709 186.356C219.469 185.686 219.249 185.266 218.879 184.746L218.129 184.966ZM221.019 185.956C220.799 185.356 220.579 184.936 220.199 184.406L219.459 184.616C219.779 185.076 220.029 185.576 220.259 186.196L221.019 185.956ZM221.359 189.696C221.759 189.646 221.869 189.646 222.989 189.646H228.299C229.419 189.646 229.529 189.646 229.929 189.696V188.306C229.489 188.366 229.299 188.376 228.309 188.376H222.979C221.989 188.376 221.799 188.366 221.359 188.306V189.696ZM236.129 186.836V192.476C236.129 193.086 236.119 193.386 236.069 193.676H237.279C237.229 193.396 237.209 193.076 237.209 192.476V191.326H238.849C239.229 191.326 239.519 191.346 239.849 191.386V190.296C239.549 190.346 239.279 190.356 238.849 190.356H237.209V189.076H238.829C239.209 189.076 239.509 189.096 239.829 189.136V188.056C239.529 188.096 239.259 188.116 238.839 188.116H237.209V186.836H239.109C239.549 186.836 239.899 186.856 240.189 186.886V185.806C239.909 185.846 239.599 185.866 239.109 185.866H236.389C236.479 185.646 236.489 185.616 236.639 185.196C236.709 184.996 236.739 184.906 236.839 184.666L235.709 184.336C235.659 184.686 235.509 185.186 235.259 185.786C234.829 186.796 234.339 187.556 233.579 188.336C233.919 188.686 234.059 188.866 234.299 189.276C234.979 188.506 235.499 187.726 235.939 186.836H236.129ZM233.199 184.306C233.139 184.696 232.999 185.106 232.779 185.626C232.269 186.776 231.619 187.716 230.879 188.386C231.129 188.806 231.269 189.096 231.409 189.556C231.769 189.186 232.019 188.876 232.369 188.406C232.339 189.246 232.339 189.296 232.339 189.546V192.396C232.339 192.916 232.319 193.256 232.269 193.636H233.469C233.419 193.266 233.399 192.866 233.399 192.396V186.856C233.919 185.686 233.919 185.686 234.079 185.256C234.169 185.016 234.199 184.946 234.309 184.696L233.199 184.306ZM248.569 187.506C248.449 188.206 248.109 189.036 247.609 189.846C247.379 189.086 247.239 188.166 247.149 186.856H248.949C249.459 186.856 249.839 186.876 250.169 186.906V185.806C249.909 185.856 249.639 185.866 249.109 185.866H248.809L249.329 185.506C248.949 185.016 248.779 184.846 248.319 184.456L247.549 184.946C247.959 185.286 248.149 185.496 248.429 185.866H247.109C247.109 185.766 247.109 185.496 247.109 185.406C247.109 185.076 247.129 184.666 247.159 184.456H245.969C246.009 184.676 246.009 184.716 246.019 185.086C246.039 185.526 246.039 185.786 246.049 185.866H243.149C242.629 185.866 242.219 185.846 241.859 185.816C241.909 186.216 241.919 186.466 241.919 187.236C241.919 189.016 241.819 190.346 241.619 191.186C241.489 191.756 241.279 192.226 240.929 192.766C241.289 193.026 241.489 193.216 241.799 193.616C242.239 192.916 242.439 192.466 242.619 191.666C242.769 190.986 242.859 190.296 242.929 189.156H244.389C244.369 189.966 244.319 190.616 244.239 190.966C244.189 191.216 244.099 191.276 243.789 191.276C243.499 191.276 243.349 191.266 242.819 191.196C242.969 191.586 243.029 191.826 243.079 192.256C243.399 192.276 243.559 192.286 243.839 192.286C244.609 192.286 244.969 192.136 245.129 191.736C245.299 191.316 245.359 190.786 245.459 188.986C245.479 188.596 245.499 188.316 245.519 188.136C245.309 188.166 245.159 188.176 244.809 188.176H242.969C242.979 187.816 242.979 187.816 242.989 186.856H246.089C246.199 188.616 246.419 189.816 246.839 190.846C246.079 191.656 245.199 192.256 244.149 192.686C244.489 192.976 244.599 193.096 244.909 193.556C245.799 193.116 246.579 192.546 247.329 191.806C247.909 192.746 248.699 193.416 249.209 193.416C249.759 193.416 250.109 192.826 250.339 191.476C249.909 191.246 249.779 191.146 249.439 190.806C249.319 191.746 249.319 191.746 249.249 191.976C249.199 192.106 249.159 192.166 249.119 192.166C249.059 192.166 248.839 191.986 248.669 191.806C248.459 191.576 248.259 191.296 248.069 190.946C248.579 190.256 248.979 189.526 249.419 188.446C249.579 188.066 249.579 188.066 249.639 187.916L248.569 187.506Z" fill="white"/>
<path d="M221 202.836L221 222.836" stroke="#0BC1A2" stroke-width="2.5" stroke-linecap="round" stroke-dasharray="0.1 6"/>
<rect x="120" y="237.836" width="202" height="78" rx="3" fill="white"/>
<path d="M194.852 283.836H184.034" stroke="#B2B2B2" stroke-width="2.13966"/>
<path d="M193.973 283.826L193.33 281.236C193.294 281.088 193.454 280.969 193.585 281.048L197.823 283.591C198.008 283.702 198.008 283.97 197.823 284.08L193.587 286.622C193.456 286.701 193.296 286.581 193.333 286.433L193.972 283.909C193.979 283.882 193.979 283.853 193.973 283.826Z" fill="#B2B2B2"/>
<path d="M184.768 283.845L185.411 286.436C185.447 286.584 185.287 286.702 185.156 286.624L180.917 284.08C180.733 283.97 180.733 283.702 180.917 283.591L185.154 281.049C185.285 280.971 185.445 281.09 185.408 281.238L184.769 283.762C184.762 283.789 184.762 283.818 184.768 283.845Z" fill="#B2B2B2"/>
<path d="M257.797 283.836H246.978" stroke="#B2B2B2" stroke-width="2.13966"/>
<path d="M256.917 283.826L256.275 281.236C256.238 281.088 256.399 280.969 256.529 281.048L260.768 283.591C260.953 283.702 260.953 283.97 260.768 284.08L256.532 286.622C256.401 286.701 256.24 286.581 256.278 286.433L256.917 283.909C256.924 283.882 256.924 283.853 256.917 283.826Z" fill="#B2B2B2"/>
<path d="M247.713 283.845L248.355 286.436C248.392 286.584 248.232 286.702 248.101 286.624L243.862 284.08C243.677 283.97 243.677 283.702 243.862 283.591L248.098 281.049C248.229 280.971 248.39 281.09 248.352 281.238L247.713 283.762C247.706 283.789 247.706 283.818 247.713 283.845Z" fill="#B2B2B2"/>
<path fill-rule="evenodd" clip-rule="evenodd" d="M168.71 270.196H157.431C156.635 270.196 155.989 270.841 155.989 271.638V294.195C155.989 294.991 156.635 295.637 157.431 295.637H174.334C175.131 295.637 175.777 294.991 175.777 294.195V277.262L168.71 270.196Z" fill="#CCE7FF"/>
<path d="M168.71 270.195L175.777 277.262L169.854 277.262C169.222 277.262 168.71 276.75 168.71 276.117L168.71 270.195Z" fill="#80C4FF"/>
<path d="M140 259.787C140 258.709 140.874 257.836 141.951 257.836H157.563C158.641 257.836 159.515 258.709 159.515 259.787V293.613C159.515 294.69 158.641 295.564 157.563 295.564H141.951C140.874 295.564 140 294.69 140 293.613V259.787Z" fill="#B3B3B3"/>
<ellipse cx="149.757" cy="279.953" rx="1.95147" ry="1.95147" fill="#D9D9D9"/>
<rect x="142.602" y="260.437" width="14.3108" height="3.25245" rx="0.650491" fill="#D9D9D9"/>
<rect x="142.602" y="266.293" width="14.3108" height="3.25245" rx="0.650491" fill="#D9D9D9"/>
<rect x="142.602" y="272.147" width="14.3108" height="3.25245" rx="0.650491" fill="#D9D9D9"/>
<rect x="142.602" y="284.507" width="14.3108" height="3.25245" rx="0.650491" fill="#D9D9D9"/>
<rect x="142.602" y="290.361" width="14.3108" height="3.25245" rx="0.650491" fill="#D9D9D9"/>
<path d="M282.34 274.683V292.456C282.34 293.647 286.901 295.796 292.286 295.796C297.67 295.796 301.79 294.143 301.79 292.456V274.683H282.34Z" fill="#CCE7FF"/>
<path d="M282.318 291.397C282.267 291.492 282.25 291.684 282.25 292.174C282.25 294.275 286.644 295.994 292.065 295.994C297.487 295.994 301.88 294.275 301.88 292.174C301.88 291.684 301.862 291.493 301.812 291.397C301.208 293.212 297.07 294.74 292.064 294.74C287.06 294.74 282.922 293.212 282.318 291.397Z" fill="#80C4FF"/>
<path d="M301.79 274.638C301.79 276.447 297.436 277.913 292.065 277.913C286.694 277.913 282.34 276.447 282.34 274.638C282.34 272.829 286.694 271.363 292.065 271.363C297.436 271.363 301.79 272.829 301.79 274.638Z" fill="#80C4FF"/>
<path d="M282.317 285.434C282.267 285.529 282.249 286.02 282.249 286.211C282.249 288.312 286.644 290.031 292.065 290.031C297.486 290.031 301.88 288.312 301.88 286.211C301.88 286.02 301.862 285.53 301.812 285.434C301.208 287.248 297.069 288.776 292.064 288.776C287.059 288.776 282.921 287.248 282.317 285.434Z" fill="#80C4FF"/>
<path d="M282.317 279.484C282.267 279.579 282.249 280.07 282.249 280.261C282.249 282.362 286.644 284.081 292.065 284.081C297.486 284.081 301.88 282.362 301.88 280.261C301.88 280.07 301.862 279.58 301.812 279.784C301.208 281.598 297.069 282.827 292.064 282.827C287.059 282.826 282.921 281.298 282.317 279.484Z" fill="#80C4FF"/>
<path d="M266 259.786C266 258.709 266.873 257.836 267.95 257.836H283.549C284.626 257.836 285.499 258.709 285.499 259.786V293.578C285.499 294.655 284.626 295.528 283.549 295.528H267.95C266.873 295.528 266 294.655 266 293.578V259.786Z" fill="#B3B3B3"/>
<circle cx="275.75" cy="279.932" r="1.94991" fill="#D9D9D9"/>
<rect x="268.6" y="260.436" width="14.2993" height="3.24984" rx="0.649969" fill="#D9D9D9"/>
<rect x="268.6" y="266.285" width="14.2993" height="3.24984" rx="0.649969" fill="#D9D9D9"/>
<rect x="268.6" y="272.134" width="14.2993" height="3.24984" rx="0.649969" fill="#D9D9D9"/>
<rect x="268.6" y="284.481" width="14.2993" height="3.24984" rx="0.649969" fill="#D9D9D9"/>
<rect x="268.6" y="290.33" width="14.2993" height="3.24984" rx="0.649969" fill="#D9D9D9"/>
<path d="M238.357 282.272C238.574 282.366 238.714 282.579 238.713 282.815L238.706 284.634C238.705 284.87 238.563 285.082 238.346 285.173L235.899 286.203C235.738 286.27 235.617 286.406 235.561 286.571C235.397 287.055 235.194 287.523 234.955 287.97C234.87 288.128 234.855 288.316 234.921 288.483L235.862 290.851C235.95 291.074 235.895 291.328 235.722 291.494L234.365 292.79C234.201 292.946 233.963 292.995 233.751 292.915L231.237 291.968C231.08 291.909 230.905 291.921 230.754 291.995C230.279 292.229 229.779 292.428 229.26 292.583C229.093 292.633 228.954 292.75 228.88 292.908L227.795 295.252C227.698 295.46 227.489 295.594 227.259 295.593L225.322 295.585C225.092 295.584 224.884 295.449 224.789 295.24L223.721 292.886C223.649 292.729 223.512 292.611 223.346 292.56C222.828 292.398 222.33 292.198 221.855 291.961C221.705 291.885 221.53 291.872 221.372 291.931L218.856 292.862C218.644 292.94 218.405 292.89 218.243 292.732L216.891 291.421C216.719 291.254 216.666 291 216.756 290.778L217.715 288.416C217.782 288.25 217.769 288.062 217.685 287.903C217.449 287.456 217.248 286.987 217.09 286.502C217.035 286.335 216.914 286.197 216.753 286.128L214.321 285.081C214.104 284.988 213.964 284.774 213.965 284.538L213.972 282.72C213.973 282.484 214.115 282.271 214.332 282.18L216.779 281.151C216.94 281.083 217.061 280.948 217.117 280.783C217.281 280.298 217.484 279.83 217.723 279.384C217.808 279.225 217.823 279.038 217.756 278.871L216.816 276.502C216.728 276.279 216.783 276.025 216.956 275.86L218.313 274.563C218.477 274.407 218.715 274.358 218.927 274.438L221.441 275.385C221.598 275.444 221.773 275.433 221.923 275.359C222.399 275.125 222.899 274.926 223.417 274.77C223.584 274.72 223.724 274.603 223.798 274.445L224.883 272.102C224.98 271.893 225.189 271.76 225.419 271.761L227.356 271.768C227.586 271.769 227.794 271.904 227.889 272.113L228.957 274.467C229.029 274.625 229.166 274.742 229.331 274.793C229.85 274.955 230.349 275.156 230.823 275.393C230.973 275.468 231.148 275.481 231.305 275.423L233.827 274.495C234.039 274.417 234.277 274.468 234.44 274.625L235.786 275.932C235.958 276.099 236.012 276.354 235.922 276.576L234.963 278.937C234.896 279.103 234.909 279.291 234.993 279.45C235.229 279.898 235.43 280.367 235.588 280.851C235.643 281.018 235.764 281.156 235.925 281.226L238.357 282.272ZM226.354 279.685C224.064 279.676 222.202 281.455 222.194 283.661C222.185 285.867 224.033 287.659 226.324 287.668C228.614 287.677 230.476 285.899 230.484 283.693C230.493 281.487 228.645 279.694 226.354 279.685Z" fill="#80C4FF"/>
<path d="M203 259.786C203 258.709 203.873 257.836 204.95 257.836H220.552C221.63 257.836 222.503 258.709 222.503 259.786V293.591C222.503 294.668 221.63 295.541 220.552 295.541H204.95C203.873 295.541 203 294.668 203 293.591V259.786Z" fill="#B3B3B3"/>
<circle cx="212.752" cy="279.939" r="1.95027" fill="#D9D9D9"/>
<rect x="205.6" y="260.437" width="14.302" height="3.25046" rx="0.650091" fill="#D9D9D9"/>
<rect x="205.6" y="266.288" width="14.302" height="3.25046" rx="0.650091" fill="#D9D9D9"/>
<rect x="205.6" y="272.138" width="14.302" height="3.25046" rx="0.650091" fill="#D9D9D9"/>
<rect x="205.6" y="284.49" width="14.302" height="3.25046" rx="0.650091" fill="#D9D9D9"/>
<rect x="205.6" y="290.341" width="14.302" height="3.25046" rx="0.650091" fill="#D9D9D9"/>
<path d="M86 283.836L129 283.836" stroke="#B3B3B3" stroke-width="2.99164"/>
<path d="M88.8107 283.838L89.8649 288.268C89.9145 288.476 89.6867 288.64 89.5053 288.526L82.5412 284.174C82.2912 284.018 82.2912 283.654 82.5412 283.497L89.5018 279.147C89.6838 279.033 89.9119 279.198 89.8612 279.407L88.811 283.727C88.8021 283.763 88.802 283.802 88.8107 283.838Z" fill="#B3B3B3"/>
<path d="M127.43 283.833L126.376 279.403C126.326 279.195 126.554 279.031 126.735 279.145L133.7 283.497C133.949 283.654 133.949 284.018 133.7 284.174L126.739 288.524C126.557 288.638 126.329 288.473 126.379 288.265L127.43 283.945C127.439 283.908 127.439 283.87 127.43 283.833Z" fill="#B3B3B3"/>
<defs>
<clipPath id="clip0">
<rect width="202" height="13" fill="white" transform="translate(120 96.8357)"/>
</clipPath>
</defs>
</svg>
