<svg width="375" height="320" viewBox="0 0 375 320" fill="none" xmlns="http://www.w3.org/2000/svg">
<rect width="375" height="320" fill="#FAFAFA"/>
<path d="M75 38C75 36.3432 76.3431 35 78 35H90.8889H223.5H237C238.657 35 240 36.3431 240 38V282C240 283.657 238.657 285 237 285H78C76.3431 285 75 283.657 75 282V38Z" fill="#CCE7FF"/>
<path d="M90 73C90 71.3431 91.3431 70 93 70H103H211.5H222C223.657 70 225 71.3431 225 73V267C225 268.657 223.657 270 222 270H93C91.3431 270 90 268.657 90 267V73Z" fill="white"/>
<path fill-rule="evenodd" clip-rule="evenodd" d="M70.4 169.001C70.1791 169.001 70 169.18 70 169.401L70 172.601C70 172.822 70.1791 173.001 70.4 173.001L95.6 173.001C95.8209 173.001 96 173.18 96 173.401L96 175.146C96 175.485 96.3955 175.671 96.6561 175.453L101.631 171.307C101.823 171.147 101.823 170.853 101.631 170.693L96.6561 166.547C96.3955 166.33 96 166.515 96 166.854L96 168.601C96 168.822 95.8209 169.001 95.6 169.001L70.4 169.001Z" fill="#83C6FF"/>
<path fill-rule="evenodd" clip-rule="evenodd" d="M142.4 169C142.179 169 142 169.179 142 169.4L142 172.6C142 172.821 142.179 173 142.4 173L162.6 173C162.821 173 163 173.179 163 173.4L163 175.146C163 175.485 163.396 175.671 163.656 175.453L168.631 171.307C168.823 171.147 168.823 170.853 168.631 170.693L163.656 166.547C163.396 166.33 163 166.515 163 166.854L163 168.6C163 168.821 162.821 169 162.6 169L142.4 169Z" fill="#83C6FF"/>
<path fill-rule="evenodd" clip-rule="evenodd" d="M145.351 189.522C145.195 189.365 144.942 189.365 144.785 189.522L142.523 191.784C142.366 191.941 142.366 192.194 142.523 192.35L161.367 211.195C161.523 211.351 161.523 211.604 161.367 211.76L160.132 212.995C159.893 213.235 160.041 213.646 160.379 213.676L166.829 214.263C167.078 214.285 167.286 214.077 167.263 213.828L166.677 207.378C166.646 207.041 166.236 206.892 165.996 207.132L164.761 208.366C164.605 208.522 164.352 208.522 164.196 208.366L145.351 189.522Z" fill="#83C6FF"/>
<path fill-rule="evenodd" clip-rule="evenodd" d="M145.351 149.841C145.195 149.997 144.942 149.997 144.785 149.841L142.523 147.578C142.366 147.422 142.366 147.169 142.523 147.012L161.367 128.168C161.523 128.011 161.523 127.758 161.367 127.602L160.132 126.367C159.893 126.127 160.041 125.717 160.379 125.686L166.829 125.1C167.078 125.077 167.286 125.285 167.263 125.534L166.677 131.984C166.646 132.322 166.236 132.47 165.996 132.23L164.761 130.996C164.605 130.84 164.352 130.84 164.196 130.996L145.351 149.841Z" fill="#D9D9D9"/>
<path d="M175 82.6641C175 81.1928 176.193 80 177.664 80H198.977C200.449 80 201.641 81.1928 201.641 82.6641V128.842C201.641 130.314 200.449 131.507 198.977 131.507H177.664C176.193 131.507 175 130.314 175 128.842V82.6641Z" fill="#B3B3B3"/>
<circle cx="188.321" cy="110.193" r="2.66413" fill="#D9D9D9"/>
<rect x="178.552" y="83.5537" width="19.5369" height="4.44022" rx="0.888043" fill="#D9D9D9"/>
<rect x="178.552" y="91.5449" width="19.5369" height="4.44022" rx="0.888043" fill="#D9D9D9"/>
<rect x="178.552" y="99.5381" width="19.5369" height="4.44022" rx="0.888043" fill="#D9D9D9"/>
<rect x="178.552" y="116.41" width="19.5369" height="4.44022" rx="0.888043" fill="#D9D9D9"/>
<rect x="178.552" y="124.402" width="19.5369" height="4.44022" rx="0.888043" fill="#D9D9D9"/>
<path d="M175 147.664C175 146.193 176.193 145 177.664 145H198.977C200.449 145 201.641 146.193 201.641 147.664V193.842C201.641 195.314 200.449 196.507 198.977 196.507H177.664C176.193 196.507 175 195.314 175 193.842V147.664Z" fill="#B3B3B3"/>
<circle cx="188.321" cy="175.194" r="2.66413" fill="#D9D9D9"/>
<rect x="178.552" y="148.554" width="19.5369" height="4.44022" rx="0.888043" fill="#D9D9D9"/>
<rect x="178.552" y="156.545" width="19.5369" height="4.44022" rx="0.888043" fill="#D9D9D9"/>
<rect x="178.552" y="164.538" width="19.5369" height="4.44022" rx="0.888043" fill="#D9D9D9"/>
<rect x="178.552" y="181.41" width="19.5369" height="4.44022" rx="0.888043" fill="#D9D9D9"/>
<rect x="178.552" y="189.402" width="19.5369" height="4.44022" rx="0.888043" fill="#D9D9D9"/>
<path d="M175 210.303C175 208.831 176.193 207.639 177.664 207.639H198.977C200.449 207.639 201.641 208.831 201.641 210.303V256.481C201.641 257.952 200.449 259.145 198.977 259.145H177.664C176.193 259.145 175 257.952 175 256.481V210.303Z" fill="#B3B3B3"/>
<circle cx="188.321" cy="237.832" r="2.66413" fill="#D9D9D9"/>
<rect x="178.552" y="211.191" width="19.5369" height="4.44022" rx="0.888043" fill="#D9D9D9"/>
<rect x="178.552" y="219.183" width="19.5369" height="4.44022" rx="0.888043" fill="#D9D9D9"/>
<rect x="178.552" y="227.176" width="19.5369" height="4.44022" rx="0.888043" fill="#D9D9D9"/>
<rect x="178.552" y="244.048" width="19.5369" height="4.44022" rx="0.888043" fill="#D9D9D9"/>
<rect x="178.552" y="252.04" width="19.5369" height="4.44022" rx="0.888043" fill="#D9D9D9"/>
<path d="M190.015 92.8749C189.342 91.7084 187.658 91.7084 186.985 92.8749L172.237 118.418C171.564 119.585 172.405 121.043 173.752 121.043H203.248C204.595 121.043 205.436 119.585 204.763 118.418L190.015 92.8749Z" fill="#FFD366"/>
<rect width="3.56404" height="12.0041" rx="1.78202" transform="matrix(-1 0 0 1 190.283 100.393)" fill="#808080"/>
<rect width="3.56404" height="3.51432" rx="1.75716" transform="matrix(-1 0 0 1 190.283 114.276)" fill="#808080"/>
<mask id="mask0" mask-type="alpha" maskUnits="userSpaceOnUse" x="25" y="131" width="40" height="55">
<rect width="39.0775" height="53.7375" transform="matrix(-1 0 0 1 64.0775 131.311)" fill="#C4C4C4"/>
</mask>
<g mask="url(#mask0)">
<path d="M43.0331 167.138C53.0189 167.138 59.3062 177.416 59.3062 182.187C59.3062 186.959 51.1696 187.693 43.0331 187.693C34.8966 187.693 26.7601 186.959 26.7601 182.187C26.7601 177.416 33.0474 167.138 43.0331 167.138Z" fill="#319BD0"/>
<path d="M37.209 182.064C35.2187 182.158 30.9396 183.184 29.7454 186.543" stroke="#1A8AC1" stroke-width="5.99533" stroke-linecap="round"/>
<path d="M35.7158 180.766C35.7157 181.274 35.8663 181.771 36.1486 182.194C36.4309 182.617 36.8322 182.946 37.3017 183.14C37.7712 183.335 38.2879 183.386 38.7864 183.287C39.2848 183.188 39.7427 182.943 40.102 182.584C40.4614 182.224 40.7061 181.766 40.8053 181.268C40.9044 180.769 40.8535 180.253 40.659 179.783C40.4644 179.314 40.135 178.912 39.7124 178.63C39.2898 178.348 38.793 178.197 38.2848 178.197C37.6034 178.197 36.95 178.468 36.4682 178.95C35.9864 179.431 35.7158 180.085 35.7158 180.766Z" fill="#F6D5B3"/>
<path d="M54.1228 158.024C54.1228 158.444 54.2475 158.856 54.4812 159.206C54.715 159.556 55.0472 159.828 55.436 159.989C55.8247 160.15 56.2525 160.193 56.6652 160.11C57.0779 160.028 57.457 159.826 57.7546 159.528C58.0521 159.231 58.2547 158.852 58.3368 158.439C58.4189 158.026 58.3767 157.598 58.2157 157.21C58.0546 156.821 57.7819 156.489 57.432 156.255C57.0821 156.021 56.6707 155.896 56.2499 155.896C55.9706 155.896 55.694 155.952 55.4359 156.058C55.1779 156.165 54.9434 156.322 54.7458 156.519C54.5483 156.717 54.3916 156.951 54.2848 157.21C54.1779 157.468 54.1228 157.744 54.1228 158.024Z" fill="#F6D5B3"/>
<path d="M29.2232 158.024C29.2231 158.444 29.3478 158.856 29.5816 159.206C29.8153 159.556 30.1476 159.828 30.5363 159.989C30.9251 160.15 31.3528 160.193 31.7656 160.11C32.1783 160.028 32.5574 159.826 32.8549 159.528C33.1525 159.231 33.3551 158.852 33.4372 158.439C33.5192 158.026 33.4771 157.598 33.316 157.21C33.155 156.821 32.8822 156.489 32.5323 156.255C32.1824 156.021 31.7711 155.896 31.3503 155.896C30.7861 155.896 30.2451 156.121 29.8462 156.519C29.4473 156.918 29.2232 157.459 29.2232 158.024Z" fill="#F6D5B3"/>
<path d="M30.8697 154.936C30.8697 162.499 35.9672 168.631 43.5302 168.631C51.0931 168.631 56.7069 162.499 56.7069 154.936C56.7069 147.373 51.0928 141.241 43.5302 141.241C35.9676 141.241 30.8697 147.372 30.8697 154.936Z" fill="#F6D5B3"/>
<path d="M48.2162 157.07C48.2161 157.302 48.2849 157.529 48.4138 157.722C48.5427 157.915 48.7259 158.065 48.9404 158.154C49.1548 158.243 49.3908 158.266 49.6184 158.221C49.8461 158.176 50.0552 158.064 50.2194 157.9C50.3835 157.736 50.4953 157.527 50.5407 157.299C50.586 157.071 50.5627 156.835 50.4739 156.621C50.3851 156.407 50.2347 156.223 50.0417 156.094C49.8487 155.965 49.6218 155.896 49.3897 155.896C49.0785 155.896 48.7801 156.02 48.56 156.24C48.3399 156.46 48.2162 156.759 48.2162 157.07Z" fill="#804C3F"/>
<path d="M36.7385 157.07C36.7384 157.302 36.8072 157.529 36.9361 157.722C37.065 157.915 37.2483 158.065 37.4628 158.154C37.6772 158.243 37.9132 158.266 38.1409 158.221C38.3686 158.176 38.5777 158.064 38.7418 157.9C38.906 157.736 39.0178 157.527 39.063 157.299C39.1083 157.071 39.085 156.835 38.9962 156.621C38.9073 156.406 38.7568 156.223 38.5638 156.094C38.3708 155.965 38.1438 155.896 37.9117 155.896C37.6006 155.897 37.3022 156.02 37.0822 156.24C36.8622 156.46 36.7386 156.759 36.7385 157.07Z" fill="#804C3F"/>
<path d="M43.7859 172.201H43.4839C43.5853 172.201 43.6852 172.195 43.7859 172.193V172.201Z" fill="#B52A22"/>
<path d="M40.5033 162.554C41.6532 164.11 45.5763 164.143 46.557 162.486" stroke="#804C3F" stroke-width="0.822689" stroke-miterlimit="10" stroke-linecap="round" stroke-linejoin="round"/>
<path d="M43.3857 160.222C43.7966 160.218 44.1261 159.791 44.1217 159.268C44.1173 158.745 43.7806 158.324 43.3696 158.328C42.9587 158.331 42.6292 158.758 42.6336 159.281C42.6381 159.804 42.9748 160.225 43.3857 160.222Z" fill="#D36744"/>
<path d="M49.9506 140.514C53.2858 141.477 59.2792 146.127 57.0165 154.936C55.4037 152.07 51.4976 148.564 48.7346 148.15C49.4255 150.085 48.6862 151.984 47.6903 153.221C45.3415 151.563 43.131 151.149 40.2294 151.563C37.3277 151.978 33.46 152.254 32.4925 151.425C32.6305 153.721 31.3024 153.764 30.8221 154.936C29.9933 153.14 29.5912 143.826 35.8084 141.201C42.0256 138.576 47.5879 138.397 49.3482 135.791C50.5153 137.88 49.9709 139.543 49.9506 140.514Z" fill="#97735B"/>
<path d="M62.5844 169.976C62.5844 169.233 61.982 168.631 61.2389 168.631H40.0465C39.3034 168.631 38.701 169.233 38.701 169.976V182.212C38.701 182.956 39.3034 183.558 40.0465 183.558H61.2389C61.9819 183.558 62.5844 182.956 62.5844 182.212V169.976Z" fill="#CBCBCB"/>
<path d="M62.5844 182.811C62.5844 182.399 62.2502 182.064 61.838 182.064H31.9839C31.5717 182.064 31.2375 182.399 31.2375 182.811C31.2375 183.223 31.5717 183.557 31.9839 183.557H61.838C62.2502 183.557 62.5844 183.223 62.5844 182.811Z" fill="#CBCBCB"/>
<rect width="39.0775" height="1.49271" rx="0.746353" transform="matrix(-1 0 0 1 64.0779 183.558)" fill="#9E9E9E"/>
<circle r="1.98851" transform="matrix(-1 0 0 1 51.1391 176.589)" fill="#E7E7E7"/>
</g>
<path d="M32.02 193.221C31.71 193.301 31.51 193.321 30.91 193.321H28C27.46 193.321 27.24 193.301 26.89 193.241V194.511C27.24 194.461 27.45 194.451 28.01 194.451H31.13C30.99 195.821 30.78 197.231 30.5 198.551H27.01C26.3 198.551 26.08 198.541 25.7 198.481V199.741C26.06 199.701 26.29 199.691 26.99 199.691H33.03C33.72 199.691 33.95 199.701 34.31 199.741V198.481C33.93 198.541 33.71 198.551 33.01 198.551H31.83C32.09 197.051 32.2 196.341 32.44 194.571C32.49 194.191 32.54 193.981 32.65 193.741L32.02 193.221ZM35.71 197.171C36.11 197.121 36.22 197.121 37.34 197.121H42.65C43.77 197.121 43.88 197.121 44.28 197.171V195.781C43.84 195.841 43.65 195.851 42.66 195.851H37.33C36.34 195.851 36.15 195.841 35.71 195.781V197.171ZM48.59 194.221V193.181C48.59 192.701 48.59 192.661 48.63 192.331H47.32C47.36 192.581 47.37 192.711 47.37 193.221V194.221H46.78C46.03 194.221 45.84 194.211 45.48 194.151V195.371C45.82 195.331 45.96 195.321 46.76 195.321H47.37V196.791C47.36 197.331 47.36 197.441 47.33 197.651H48.63C48.6 197.411 48.59 197.261 48.59 196.811V195.321H51.18C51.16 196.731 51.1 197.221 50.86 197.821C50.43 198.791 49.59 199.421 48.17 199.821C48.58 200.241 48.75 200.481 48.92 200.881C50.36 200.401 51.34 199.631 51.89 198.551C52.26 197.761 52.36 197.121 52.38 195.321H53.04C53.85 195.321 53.99 195.331 54.33 195.371V194.151C53.97 194.211 53.78 194.221 53.02 194.221H52.39C52.39 193.821 52.4 193.431 52.4 193.061C52.4 192.711 52.4 192.641 52.43 192.401H51.15C51.18 192.631 51.19 192.861 51.19 193.391C51.19 193.411 51.19 193.511 51.19 193.631C51.19 193.721 51.19 193.961 51.19 194.221H48.59ZM52.42 192.011C52.7 192.451 52.91 192.941 53.1 193.581L53.79 193.381C53.62 192.791 53.4 192.311 53.1 191.821L52.42 192.011ZM54.97 193.041C54.77 192.431 54.56 191.961 54.29 191.541L53.65 191.741C53.95 192.231 54.18 192.741 54.33 193.251L54.97 193.041ZM55.71 197.171C56.11 197.121 56.22 197.121 57.34 197.121H62.65C63.77 197.121 63.88 197.121 64.28 197.171V195.781C63.84 195.841 63.65 195.851 62.66 195.851H57.33C56.34 195.851 56.15 195.841 55.71 195.781V197.171Z" fill="#212121"/>
<path d="M114.41 203.731V204.421H115.7C115.67 204.191 115.66 203.921 115.66 203.551V197.831C115.66 197.461 115.67 197.261 115.69 197.001C115.46 197.021 115.28 197.031 114.85 197.031H109.17C108.77 197.031 108.56 197.021 108.32 197.001C108.35 197.271 108.36 197.461 108.36 197.841V203.571C108.36 203.951 108.35 204.191 108.32 204.431H109.61V203.731H114.41ZM114.41 202.591H109.61V198.161H114.41V202.591ZM117.71 201.171C118.11 201.121 118.22 201.121 119.34 201.121H124.65C125.77 201.121 125.88 201.121 126.28 201.171V199.781C125.84 199.841 125.65 199.851 124.66 199.851H119.33C118.34 199.851 118.15 199.841 117.71 199.781V201.171ZM130.85 204.761C130.82 204.471 130.81 204.191 130.81 203.651V201.011C130.81 200.781 130.8 200.611 130.77 200.331C130.85 200.381 130.88 200.391 131.11 200.501C132.53 201.141 133.95 201.911 134.65 202.411L135.35 201.231C133.77 200.341 131.97 199.501 130.81 199.121V197.261C130.81 196.671 130.82 196.481 130.85 196.211H129.48C129.52 196.451 129.53 196.651 129.54 197.231V203.641C129.54 204.211 129.52 204.481 129.48 204.761H130.85ZM132.9 197.081C133.34 197.561 133.62 197.961 133.95 198.571L134.65 198.201C134.31 197.581 134.04 197.201 133.6 196.731L132.9 197.081ZM135.84 197.551C135.53 196.981 135.25 196.601 134.8 196.141L134.13 196.491C134.52 196.921 134.85 197.391 135.15 197.941L135.84 197.551ZM104.77 211.821C104.77 211.881 104.77 211.931 104.77 211.961C104.77 212.181 104.74 212.521 104.68 212.931C104.52 214.191 104.17 215.431 103.74 216.361C103.32 217.281 102.91 217.891 102.31 218.491C102.79 218.751 102.98 218.901 103.45 219.351C104.79 217.811 105.57 215.841 105.99 212.971L106.02 212.731L106.07 212.441L106.09 212.271C106.1 212.191 106.11 212.181 106.14 212.071L104.77 211.821ZM107.74 212.061C107.79 212.211 107.82 212.371 107.88 212.781C108.27 215.471 109.2 217.771 110.53 219.361C110.91 218.931 111.12 218.761 111.63 218.441C110.59 217.321 109.89 215.971 109.4 214.121C109.17 213.261 108.99 212.281 108.98 211.821L107.74 212.061ZM109.08 211.441C109.46 212.001 109.67 212.431 109.9 213.071L110.66 212.831C110.42 212.161 110.2 211.741 109.83 211.221L109.08 211.441ZM111.97 212.431C111.75 211.831 111.53 211.411 111.15 210.881L110.41 211.091C110.73 211.551 110.98 212.051 111.21 212.671L111.97 212.431ZM114.02 212.681C114.33 212.641 114.52 212.631 115.17 212.631H118.7C119.35 212.631 119.54 212.641 119.85 212.681V211.451C119.52 211.511 119.31 211.521 118.68 211.521H115.19C114.56 211.521 114.35 211.511 114.02 211.451V212.681ZM120.36 213.841C120.05 213.911 119.85 213.931 119.23 213.931H114.47C113.77 213.931 113.55 213.921 113.17 213.861V215.081C113.53 215.041 113.78 215.031 114.45 215.031H119.32C118.88 216.141 118.45 216.751 117.71 217.371C116.94 218.011 116.15 218.381 114.93 218.691C115.37 219.181 115.49 219.351 115.71 219.851C116.97 219.381 117.62 219.041 118.33 218.491C119.37 217.691 120.13 216.581 120.65 215.111C120.77 214.801 120.83 214.661 120.93 214.481L120.36 213.841ZM123.22 212.891C124.15 213.411 124.97 214.071 125.77 214.921L126.63 213.831C125.86 213.101 125.24 212.641 124.05 211.901L123.22 212.891ZM123.57 219.491C123.8 219.411 123.83 219.401 124.23 219.321C125.78 218.991 127.02 218.501 128.04 217.821C129.41 216.911 130.36 215.731 131.21 213.901C130.7 213.541 130.54 213.391 130.15 212.921C129.85 213.731 129.57 214.281 129.13 214.921C128.34 216.061 127.41 216.831 126.16 217.371C125.25 217.771 124.06 218.061 123.2 218.111L123.57 219.491ZM135.69 213.151V212.121C135.69 211.611 135.69 211.591 135.73 211.261H134.42C134.46 211.521 134.47 211.731 134.47 212.151V213.151H133.88C133.17 213.151 132.97 213.141 132.58 213.081V214.301C132.93 214.261 133.2 214.251 133.86 214.251H134.47V215.731C134.47 216.101 134.46 216.371 134.43 216.591H135.73C135.7 216.331 135.69 216.171 135.69 215.751V214.251H138.28C138.26 214.941 138.26 215.181 138.24 215.411C138.15 216.561 137.86 217.221 137.18 217.811C136.7 218.231 136.22 218.471 135.27 218.761C135.7 219.201 135.83 219.391 136.02 219.821C136.94 219.491 137.43 219.231 137.97 218.771C138.84 218.031 139.27 217.181 139.41 215.901C139.46 215.521 139.46 215.451 139.48 214.251H140.15C140.81 214.251 141.08 214.261 141.43 214.301V213.081C141.04 213.141 140.84 213.151 140.13 213.151H139.49C139.5 212.551 139.5 212.551 139.5 211.941C139.5 211.551 139.51 211.501 139.54 211.271H138.25C138.29 211.501 138.3 211.721 138.3 212.381V212.701L138.29 213.151H135.69Z" fill="#212121"/>
<path d="M108 154.82C108 153.815 108.815 153 109.82 153H134.01C135.015 153 135.829 153.815 135.829 154.82V186.18C135.829 187.185 135.015 188 134.01 188H109.82C108.815 188 108 187.185 108 186.18V154.82Z" fill="#B2B2B2"/>
<rect x="111.423" y="167" width="7" height="7" rx="0.833333" fill="#E7E7E7"/>
<rect x="125.329" y="156.5" width="7" height="7" rx="0.833333" fill="#E7E7E7"/>
<rect x="125.329" y="167" width="7" height="7" rx="0.833333" fill="#E7E7E7"/>
<rect x="125.329" y="177.5" width="7" height="7" rx="0.833333" fill="#E7E7E7"/>
<path d="M125.329 170.5H119.642H118.329" stroke="#E7E7E7" stroke-width="1.75"/>
<path d="M129.827 159.156L120.872 168.373L118.806 170.5" stroke="#E7E7E7" stroke-width="1.75"/>
<path d="M118.806 170.5L127.76 179.814L129.827 181.964" stroke="#E7E7E7" stroke-width="1.75"/>
<rect x="247" y="85" width="100" height="30" rx="3" fill="#CCE7FF"/>
<path d="M262.91 102.19V102.65H261.27C260.8 102.65 260.51 102.64 260.29 102.61V103.66C260.59 103.62 261 103.6 261.42 103.6H262.91V103.86C262.91 104.32 262.9 104.59 262.85 104.85H264.02C263.97 104.57 263.96 104.3 263.96 103.85V103.6H265.5C265.89 103.6 266.42 103.63 266.63 103.66V102.6C266.4 102.64 266.16 102.65 265.58 102.65H263.96V102.19H265.13C265.56 102.19 265.81 102.2 266.05 102.22C266.02 102.01 266.01 101.86 266.01 101.39V99.9C266.01 99.45 266.02 99.27 266.05 99.07C265.83 99.09 265.6 99.1 265.12 99.1H261.89C261.46 99.1 261.15 99.09 260.94 99.07C260.97 99.29 260.98 99.55 260.98 99.94V101.39C260.98 101.77 260.98 101.86 260.95 102.22C261.31 102.2 261.54 102.19 261.86 102.19H262.91ZM261.99 99.89H264.97V100.28H261.99V99.89ZM261.99 101H264.97V101.39H261.99V101ZM263.95 96.24V96.15C263.95 95.92 263.96 95.77 263.99 95.58H262.86C262.89 95.78 262.9 95.94 262.9 96.16V96.24H262.01C261.53 96.24 261.27 96.23 260.94 96.19V97.14C261.1 97.12 261.26 97.11 261.61 97.11C261.7 97.35 261.76 97.54 261.83 97.81H261.14C260.89 97.81 260.67 97.8 260.45 97.77V98.77C260.75 98.74 261.1 98.72 261.46 98.72H265.58C265.95 98.72 266.29 98.74 266.62 98.77V97.76C266.34 97.8 266.08 97.81 265.62 97.81H265.03C265.15 97.55 265.22 97.38 265.32 97.11C265.81 97.11 266.06 97.12 266.37 97.15V96.19C266.09 96.23 265.81 96.24 265.3 96.24H263.95ZM262.88 97.81C262.81 97.55 262.75 97.37 262.65 97.11H264.25C264.17 97.36 264.08 97.59 263.98 97.81H262.88ZM257.78 103.51C257.78 104.17 257.76 104.51 257.72 104.84H258.87C258.82 104.51 258.81 104.22 258.81 103.53V96.8H259.73C259.53 97.55 259.21 98.4 258.84 99.18C259.16 99.59 259.28 99.79 259.41 100.09C259.55 100.42 259.65 100.91 259.65 101.21C259.65 101.68 259.57 101.78 259.18 101.78C259.11 101.78 259.05 101.77 258.87 101.75C259.03 102.04 259.08 102.26 259.1 102.71C259.69 102.7 259.94 102.65 260.17 102.5C260.47 102.31 260.63 101.91 260.63 101.35C260.63 101.09 260.58 100.79 260.49 100.43C260.36 99.96 260.22 99.67 259.86 99.13C260.12 98.57 260.43 97.75 260.78 96.72C260.82 96.6 260.86 96.52 260.91 96.41L260.36 95.8C260.16 95.83 259.99 95.84 259.55 95.84H258.46C258.07 95.84 257.87 95.83 257.74 95.81C257.77 96.11 257.78 96.43 257.78 96.84V103.51ZM272.46 97.9C272.48 97.66 272.48 97.58 272.52 97.42H271.37C271.4 97.57 271.41 97.67 271.42 97.9H269.9C269.41 97.9 269.25 97.89 269.01 97.86V98.79C269.25 98.76 269.52 98.75 269.9 98.75H271.42V99.22H269.37C268.89 99.22 268.72 99.21 268.48 99.18V100.09C268.74 100.06 268.99 100.05 269.37 100.05H271.42V100.51H268.61C268.14 100.51 267.86 100.5 267.6 100.46V101.44C267.9 101.39 268.15 101.38 268.61 101.38H275.41C275.88 101.38 276.13 101.39 276.42 101.44V100.46C276.15 100.5 275.88 100.51 275.41 100.51H272.46V100.05H274.68C275.05 100.05 275.29 100.06 275.55 100.09V99.18C275.34 99.21 275.17 99.22 274.68 99.22H272.46V98.75H274.17C274.53 98.75 274.8 98.76 275.04 98.79V97.86C274.84 97.89 274.64 97.9 274.17 97.9H272.46ZM271.39 96.32H268.79C268.3 96.32 268 96.31 267.69 96.28C267.72 96.51 267.73 96.69 267.73 97.01V97.66C267.73 98.01 267.72 98.2 267.69 98.44H268.77V97.22H275.27V98.44H276.35C276.32 98.2 276.31 97.97 276.31 97.67V97.01C276.31 96.68 276.32 96.5 276.35 96.28C276.04 96.31 275.73 96.32 275.25 96.32H272.51V96.19C272.51 95.93 272.52 95.77 272.56 95.56H271.33C271.37 95.78 271.39 95.95 271.39 96.2V96.32ZM269.7 104.4H274.35V104.83H275.46C275.42 104.55 275.4 104.27 275.4 103.91V102.68C275.4 102.28 275.41 102.06 275.45 101.81C275.22 101.84 275.05 101.85 274.65 101.85H269.38C269.01 101.85 268.82 101.84 268.61 101.81C268.64 102.11 268.65 102.36 268.65 102.68V103.9C268.65 104.18 268.64 104.44 268.6 104.83H269.7V104.4ZM269.7 102.7H274.35V103.51H269.7V102.7ZM282.78 97.59C283.22 97.63 283.48 97.71 283.79 97.89C284.59 98.37 285.02 99.15 285.02 100.11C285.02 101.18 284.5 102.13 283.63 102.61C283.16 102.88 282.56 103.04 281.64 103.16C281.96 103.58 282.08 103.8 282.25 104.33C282.95 104.21 283.34 104.11 283.82 103.91C285.35 103.29 286.25 101.91 286.25 100.18C286.25 97.93 284.69 96.47 282.29 96.47C280.87 96.47 279.69 96.95 278.85 97.87C278.14 98.65 277.75 99.68 277.75 100.78C277.75 102.39 278.57 103.55 279.71 103.55C280.53 103.55 281.17 102.96 281.74 101.67C282.24 100.54 282.59 99.16 282.78 97.59ZM281.56 97.6C281.44 98.73 281.11 100.08 280.73 100.98C280.37 101.84 280.03 102.26 279.7 102.26C279.26 102.26 278.91 101.61 278.91 100.79C278.91 99.72 279.43 98.69 280.27 98.09C280.68 97.8 281.04 97.66 281.56 97.6ZM295.29 101.2C295.11 101.23 294.9 101.24 294.52 101.24H292.61C292.74 101.09 292.78 101.03 292.91 100.86H294.97C295.39 100.86 295.58 100.87 295.83 100.89C295.81 100.64 295.8 100.42 295.8 99.89V98.58C295.8 97.99 295.81 97.8 295.83 97.59C295.56 97.62 295.39 97.63 294.85 97.63H291.84C291.67 97.63 291.62 97.63 291.48 97.63C291.6 97.45 291.64 97.39 291.74 97.23H295.29C295.8 97.23 296.23 97.25 296.48 97.29V96.22C296.21 96.26 295.85 96.28 295.26 96.28H292.27C292.44 95.95 292.48 95.88 292.57 95.74L291.42 95.45C291.21 96.22 290.54 97.23 289.82 97.85C290.17 98.08 290.34 98.25 290.65 98.63C290.79 98.48 290.83 98.43 290.93 98.32C290.93 98.51 290.93 98.53 290.93 98.57V99.91C290.93 100.37 290.92 100.67 290.89 100.89C291.12 100.87 291.29 100.86 291.78 100.86C291.22 101.51 290.65 101.91 289.67 102.33C289.96 102.61 290.12 102.81 290.28 103.16C290.83 102.87 291.06 102.72 291.43 102.43C291.81 102.84 291.97 102.99 292.32 103.25C291.47 103.58 290.79 103.73 289.69 103.84C289.93 104.2 290.05 104.46 290.14 104.81C291.41 104.62 292.32 104.34 293.3 103.86C294.2 104.33 295.01 104.57 296.39 104.79C296.49 104.35 296.6 104.06 296.81 103.7C295.87 103.66 295.11 103.52 294.3 103.24C294.79 102.87 295.14 102.55 295.55 102.1C295.69 101.94 295.73 101.9 295.88 101.75L295.29 101.2ZM294.27 102.05C293.85 102.41 293.63 102.58 293.3 102.78C292.87 102.52 292.57 102.3 292.3 102.05H294.27ZM291.96 98.42H294.76V98.84H291.96V98.42ZM291.96 99.6H294.76V100.04H291.96V99.6ZM289.37 95.49C289.21 95.83 288.89 96.23 288.38 96.7C288.04 97.01 287.82 97.17 287.33 97.44C287.66 97.8 287.79 98 287.95 98.38C288.82 97.81 289.34 97.32 290.16 96.31C290.24 96.21 290.26 96.19 290.32 96.11L289.37 95.49ZM289.46 99.69C289.7 99.37 289.81 99.2 289.92 99.02C290 98.89 290 98.89 290.03 98.85C290.06 98.79 290.09 98.75 290.1 98.73C290.17 98.6 290.17 98.6 290.25 98.5L289.35 97.88C289.29 98.04 289.12 98.34 288.9 98.66C288.41 99.38 287.87 99.97 287.22 100.47C287.45 100.82 287.57 101.12 287.68 101.56C288.01 101.29 288.17 101.12 288.42 100.8C288.4 101.36 288.4 101.5 288.4 101.86V103.52C288.4 104.02 288.38 104.44 288.34 104.77H289.52C289.48 104.41 289.46 104 289.46 103.5V99.69ZM297.9 95.74C297.94 96.14 297.96 96.44 297.96 96.83V103.48C297.96 103.97 297.94 104.31 297.9 104.72H299.17C299.12 104.34 299.11 104.05 299.11 103.5V96.82C299.11 96.35 299.12 96.08 299.17 95.74H297.9ZM300.38 103.4C300.38 104.03 300.37 104.31 300.33 104.61H301.52V104.02H304.96V104.6H306.18C306.14 104.27 306.12 103.84 306.12 103.43V96.97C306.12 96.57 306.13 96.27 306.17 95.96C305.87 95.99 305.56 96 305.09 96H301.42C300.94 96 300.66 95.99 300.35 95.96C300.37 96.3 300.38 96.6 300.38 97.04V103.4ZM301.54 97.07H304.95V99.36H301.54V97.07ZM301.53 100.43H304.94V102.95H301.53V100.43ZM314.13 98.5C314.68 99.23 315.3 100.7 315.5 101.75L316.64 101.18C316.35 100.03 315.83 98.95 315.14 98L314.13 98.5ZM311.19 96.3C311.21 96.2 311.24 96.07 311.27 95.99L309.97 95.86C309.97 95.94 309.97 96 309.97 96.04C309.97 96.38 309.9 96.95 309.71 98.06C308.55 98.21 308.03 98.26 307.58 98.27L307.7 99.45C307.84 99.41 307.95 99.38 308.11 99.35L309.02 99.2C309.34 99.14 309.34 99.14 309.49 99.12C309.02 100.98 308.25 102.78 307.48 103.83L308.64 104.47C309.74 102.29 310.19 101.08 310.68 99.03C310.91 99.01 311.07 99 311.28 99C312.05 99 312.28 99.27 312.28 100.19C312.28 101.04 312.18 101.95 312.02 102.47C311.87 102.96 311.71 103.15 311.42 103.15C311.07 103.15 310.5 102.99 309.96 102.75C310.04 103.14 310.06 103.34 310.06 103.6C310.06 103.7 310.05 103.85 310.04 104.04C310.71 104.26 311.12 104.34 311.58 104.34C312.11 104.34 312.41 104.22 312.69 103.89C313.17 103.34 313.46 101.97 313.46 100.25C313.46 99.34 313.33 98.86 312.99 98.48C312.66 98.13 312.17 97.95 311.51 97.95C311.33 97.95 311.19 97.96 310.89 97.97C310.92 97.84 310.92 97.84 310.95 97.67C311.05 97.13 311.12 96.72 311.17 96.43L311.19 96.3ZM313.51 96.37C313.95 96.85 314.23 97.25 314.56 97.86L315.26 97.49C314.92 96.87 314.65 96.49 314.21 96.02L313.51 96.37ZM316.45 96.84C316.14 96.27 315.86 95.89 315.41 95.43L314.74 95.78C315.13 96.21 315.46 96.68 315.76 97.23L316.45 96.84ZM321.34 100.37V101.36H318.75C318.19 101.36 317.85 101.34 317.53 101.3V102.42C317.87 102.38 318.21 102.36 318.75 102.36H321.34V103.56C321.34 104.15 321.32 104.56 321.28 104.85H322.54C322.49 104.51 322.47 104.15 322.47 103.56V102.36H325.24C325.8 102.36 326.12 102.38 326.46 102.42V101.3C326.13 101.34 325.8 101.36 325.24 101.36H322.47V100.37H324.36C324.9 100.37 325.14 100.38 325.53 100.41C325.49 100.11 325.47 99.85 325.47 99.38V96.95C325.47 96.47 325.48 96.2 325.53 95.89C325.15 95.93 324.91 95.94 324.33 95.94H319.63C319.06 95.94 318.83 95.93 318.46 95.89C318.51 96.21 318.52 96.47 318.52 96.97V99.34C318.52 99.82 318.51 100.09 318.46 100.41C318.83 100.38 319.11 100.37 319.63 100.37H321.34ZM319.58 96.89H324.4V97.69H319.58V96.89ZM319.58 98.6H324.4V99.46H319.58V98.6ZM328.07 96.65C328.1 96.87 328.1 96.94 328.11 97.29C328.15 100.06 328.33 101.51 328.74 102.51C329.14 103.47 329.68 103.96 330.35 103.96C331.2 103.96 331.78 103.15 332.3 101.2C331.81 100.84 331.65 100.69 331.3 100.29C331.19 100.96 331.01 101.56 330.77 102.1C330.65 102.38 330.51 102.53 330.36 102.53C330.04 102.53 329.72 101.89 329.55 100.85C329.44 100.24 329.36 99.04 329.36 98.17C329.36 97.51 329.39 97.02 329.44 96.65H328.07ZM333.12 97.6C333.72 98.34 334.2 99.15 334.54 100.06C334.89 100.97 335.12 102.01 335.18 102.95L336.42 102.48C336.13 100.28 335.43 98.61 334.17 97.1L333.12 97.6Z" fill="#212121"/>
<rect x="247" y="177" width="100" height="51" rx="3" fill="#CCE7FF"/>
<path d="M263.801 197.19V197.65H262.161C261.691 197.65 261.401 197.64 261.181 197.61V198.66C261.481 198.62 261.891 198.6 262.311 198.6H263.801V198.86C263.801 199.32 263.791 199.59 263.741 199.85H264.911C264.861 199.57 264.851 199.3 264.851 198.85V198.6H266.391C266.781 198.6 267.311 198.63 267.521 198.66V197.6C267.291 197.64 267.051 197.65 266.471 197.65H264.851V197.19H266.021C266.451 197.19 266.701 197.2 266.941 197.22C266.911 197.01 266.901 196.86 266.901 196.39V194.9C266.901 194.45 266.911 194.27 266.941 194.07C266.721 194.09 266.491 194.1 266.011 194.1H262.781C262.351 194.1 262.041 194.09 261.831 194.07C261.861 194.29 261.871 194.55 261.871 194.94V196.39C261.871 196.77 261.871 196.86 261.841 197.22C262.201 197.2 262.431 197.19 262.751 197.19H263.801ZM262.881 194.89H265.861V195.28H262.881V194.89ZM262.881 196H265.861V196.39H262.881V196ZM264.841 191.24V191.15C264.841 190.92 264.851 190.77 264.881 190.58H263.751C263.781 190.78 263.791 190.94 263.791 191.16V191.24H262.901C262.421 191.24 262.161 191.23 261.831 191.19V192.14C261.991 192.12 262.151 192.11 262.501 192.11C262.591 192.35 262.651 192.54 262.721 192.81H262.031C261.781 192.81 261.561 192.8 261.341 192.77V193.77C261.641 193.74 261.991 193.72 262.351 193.72H266.471C266.841 193.72 267.181 193.74 267.511 193.77V192.76C267.231 192.8 266.971 192.81 266.511 192.81H265.921C266.041 192.55 266.111 192.38 266.211 192.11C266.701 192.11 266.951 192.12 267.261 192.15V191.19C266.981 191.23 266.701 191.24 266.191 191.24H264.841ZM263.771 192.81C263.701 192.55 263.641 192.37 263.541 192.11H265.141C265.061 192.36 264.971 192.59 264.871 192.81H263.771ZM258.671 198.51C258.671 199.17 258.651 199.51 258.611 199.84H259.761C259.711 199.51 259.701 199.22 259.701 198.53V191.8H260.621C260.421 192.55 260.101 193.4 259.731 194.18C260.051 194.59 260.171 194.79 260.301 195.09C260.441 195.42 260.541 195.91 260.541 196.21C260.541 196.68 260.461 196.78 260.071 196.78C260.001 196.78 259.941 196.77 259.761 196.75C259.921 197.04 259.971 197.26 259.991 197.71C260.581 197.7 260.831 197.65 261.061 197.5C261.361 197.31 261.521 196.91 261.521 196.35C261.521 196.09 261.471 195.79 261.381 195.43C261.251 194.96 261.111 194.67 260.751 194.13C261.011 193.57 261.321 192.75 261.671 191.72C261.711 191.6 261.751 191.52 261.801 191.41L261.251 190.8C261.051 190.83 260.881 190.84 260.441 190.84H259.351C258.961 190.84 258.761 190.83 258.631 190.81C258.661 191.11 258.671 191.43 258.671 191.84V198.51ZM273.351 192.9C273.371 192.66 273.371 192.58 273.411 192.42H272.261C272.291 192.57 272.301 192.67 272.311 192.9H270.791C270.301 192.9 270.141 192.89 269.901 192.86V193.79C270.141 193.76 270.411 193.75 270.791 193.75H272.311V194.22H270.261C269.781 194.22 269.611 194.21 269.371 194.18V195.09C269.631 195.06 269.881 195.05 270.261 195.05H272.311V195.51H269.501C269.031 195.51 268.751 195.5 268.491 195.46V196.44C268.791 196.39 269.041 196.38 269.501 196.38H276.301C276.771 196.38 277.021 196.39 277.311 196.44V195.46C277.041 195.5 276.771 195.51 276.301 195.51H273.351V195.05H275.571C275.941 195.05 276.181 195.06 276.441 195.09V194.18C276.231 194.21 276.061 194.22 275.571 194.22H273.351V193.75H275.061C275.421 193.75 275.691 193.76 275.931 193.79V192.86C275.731 192.89 275.531 192.9 275.061 192.9H273.351ZM272.281 191.32H269.681C269.191 191.32 268.891 191.31 268.581 191.28C268.611 191.51 268.621 191.69 268.621 192.01V192.66C268.621 193.01 268.611 193.2 268.581 193.44H269.661V192.22H276.161V193.44H277.241C277.211 193.2 277.201 192.97 277.201 192.67V192.01C277.201 191.68 277.211 191.5 277.241 191.28C276.931 191.31 276.621 191.32 276.141 191.32H273.401V191.19C273.401 190.93 273.411 190.77 273.451 190.56H272.221C272.261 190.78 272.281 190.95 272.281 191.2V191.32ZM270.591 199.4H275.241V199.83H276.351C276.311 199.55 276.291 199.27 276.291 198.91V197.68C276.291 197.28 276.301 197.06 276.341 196.81C276.111 196.84 275.941 196.85 275.541 196.85H270.271C269.901 196.85 269.711 196.84 269.501 196.81C269.531 197.11 269.541 197.36 269.541 197.68V198.9C269.541 199.18 269.531 199.44 269.491 199.83H270.591V199.4ZM270.591 197.7H275.241V198.51H270.591V197.7ZM283.671 192.59C284.111 192.63 284.371 192.71 284.681 192.89C285.481 193.37 285.911 194.15 285.911 195.11C285.911 196.18 285.391 197.13 284.521 197.61C284.051 197.88 283.451 198.04 282.531 198.16C282.851 198.58 282.971 198.8 283.141 199.33C283.841 199.21 284.231 199.11 284.711 198.91C286.241 198.29 287.141 196.91 287.141 195.18C287.141 192.93 285.581 191.47 283.181 191.47C281.761 191.47 280.581 191.95 279.741 192.87C279.031 193.65 278.641 194.68 278.641 195.78C278.641 197.39 279.461 198.55 280.601 198.55C281.421 198.55 282.061 197.96 282.631 196.67C283.131 195.54 283.481 194.16 283.671 192.59ZM282.451 192.6C282.331 193.73 282.001 195.08 281.621 195.98C281.261 196.84 280.921 197.26 280.591 197.26C280.151 197.26 279.801 196.61 279.801 195.79C279.801 194.72 280.321 193.69 281.161 193.09C281.571 192.8 281.931 192.66 282.451 192.6ZM291.171 195.62C291.171 195.73 291.171 195.8 291.161 195.93H289.731C289.241 195.93 288.991 195.92 288.681 195.87V196.94C289.011 196.89 289.271 196.88 289.731 196.88H291.011C290.861 197.36 290.651 197.68 290.301 197.99C289.861 198.39 289.381 198.62 288.451 198.88C288.771 199.2 288.971 199.49 289.161 199.86C290.391 199.38 290.991 198.98 291.491 198.32C291.791 197.92 291.981 197.48 292.111 196.88H293.401V198.82C293.401 199.52 293.721 199.69 295.081 199.69C297.001 199.69 297.181 199.54 297.401 197.85C297.001 197.79 296.711 197.69 296.321 197.5C296.291 198.05 296.231 198.38 296.141 198.5C296.031 198.64 295.791 198.69 295.241 198.69C294.901 198.69 294.731 198.68 294.601 198.64C294.451 198.6 294.441 198.58 294.441 198.37V196.88H296.031C296.481 196.88 296.771 196.9 297.081 196.94V195.87C296.781 195.92 296.521 195.93 296.031 195.93H294.441V194.85C294.921 194.85 295.101 194.86 295.401 194.89V194.46C295.941 194.82 296.231 194.98 297.051 195.36C297.321 194.78 297.381 194.67 297.611 194.37C296.881 194.09 296.551 193.93 296.011 193.61C296.361 193.3 296.651 193.01 296.911 192.69C297.111 192.47 297.131 192.44 297.191 192.38L296.271 191.86C296.031 192.25 295.661 192.68 295.231 193.07C295.021 192.91 294.911 192.82 294.641 192.59C294.891 192.36 295.201 192.05 295.381 191.84C295.611 191.57 295.741 191.42 295.771 191.38L294.851 190.87C294.821 190.92 294.821 190.92 294.771 191C294.731 191.08 294.701 191.11 294.561 191.29C294.361 191.55 294.291 191.61 293.971 191.93C293.591 191.47 293.451 191.24 293.351 190.84C293.121 190.87 292.961 190.88 292.491 190.88H290.641C290.291 190.88 290.001 190.86 289.811 190.83V191.87C289.651 191.74 289.651 191.74 289.491 191.61L288.671 192.22C289.171 192.57 289.511 192.88 290.071 193.53C289.401 193.97 288.931 194.21 288.161 194.5C288.431 194.82 288.581 195.06 288.751 195.42C289.551 195.06 289.921 194.85 290.511 194.45V194.89C290.761 194.87 290.871 194.86 291.181 194.85L291.171 195.62ZM292.241 194.85H293.401V195.93H292.231C292.231 195.83 292.231 195.79 292.231 195.7L292.241 194.85ZM291.881 191.83C291.581 192.24 291.321 192.52 290.901 192.9C290.571 192.53 290.341 192.31 289.811 191.87C290.021 191.84 290.241 191.83 290.421 191.83H291.881ZM291.501 193.91C291.391 193.91 291.341 193.91 291.231 193.91C291.941 193.33 292.361 192.88 292.921 192.1C293.471 192.87 293.911 193.33 294.621 193.91C294.541 193.91 294.541 193.91 294.411 193.91H291.501ZM302.441 193.56V195.4H300.891C300.341 195.4 300.011 195.38 299.691 195.34V196.44C300.031 196.4 300.431 196.38 300.901 196.38H302.441V198.5H299.871C299.341 198.5 298.911 198.48 298.481 198.43V199.57C298.951 199.52 299.381 199.5 299.901 199.5H306.021C306.551 199.5 306.911 199.52 307.381 199.57V198.43C306.981 198.48 306.561 198.5 305.991 198.5H303.591V196.38H305.321C305.791 196.38 306.191 196.4 306.551 196.44V195.34C306.221 195.38 305.821 195.4 305.321 195.4H303.591V193.56H305.701C306.181 193.56 306.591 193.58 307.021 193.62V192.52C306.611 192.56 306.181 192.58 305.671 192.58H303.591V191.81C303.591 191.28 303.611 190.95 303.651 190.62H302.371C302.421 190.99 302.441 191.3 302.441 191.82V192.58H300.811C300.941 192.23 301.031 191.98 301.081 191.83C301.151 191.58 301.151 191.57 301.181 191.5C301.251 191.32 301.251 191.32 301.271 191.24L300.131 190.96C300.091 191.25 300.041 191.46 299.911 191.89C299.571 193 298.971 194.05 298.221 194.81C298.551 195.04 298.781 195.28 299.041 195.66C299.591 195.02 299.991 194.42 300.401 193.56H302.441ZM313.901 192.6C313.471 192.6 313.291 192.59 313.071 192.57C313.091 192.84 313.101 193.03 313.101 193.51V195.78C312.841 195.36 312.731 195.21 312.271 194.63L311.571 195.1C312.081 195.73 312.341 196.15 312.621 196.77L313.101 196.35V196.96C313.101 197.4 313.091 197.59 313.081 197.88C313.301 197.86 313.521 197.85 313.871 197.85C313.641 198.12 313.561 198.18 313.401 198.31C312.981 198.64 312.591 198.86 311.921 199.13C312.251 199.4 312.411 199.57 312.671 199.94C313.701 199.39 314.131 199.07 314.711 198.39L313.941 197.85H315.861L315.111 198.38C315.651 199.01 316.131 199.42 316.951 199.93C317.191 199.58 317.371 199.37 317.651 199.09C316.801 198.67 316.491 198.44 315.961 197.85H316.211C316.491 197.85 316.801 197.86 317.071 197.88C317.051 197.56 317.041 197.25 317.041 196.85V193.52C317.041 193.14 317.051 192.83 317.071 192.57C316.841 192.59 316.611 192.6 316.091 192.6H315.371C315.491 192.34 315.581 192.09 315.651 191.88H316.351C316.881 191.88 317.121 191.89 317.421 191.93V190.86C317.151 190.91 316.901 190.92 316.351 190.92H313.851C313.351 190.92 313.081 190.9 312.791 190.86V191.93C313.081 191.89 313.341 191.88 313.871 191.88H314.591C314.511 192.14 314.451 192.31 314.331 192.6H313.901ZM314.091 193.42H316.041V194.05H314.091V193.42ZM314.091 194.87H316.041V195.49H314.091V194.87ZM314.091 196.3H316.041V196.97H314.091V196.3ZM311.441 193.45V192.66H311.881C312.211 192.66 312.351 192.67 312.601 192.69V191.67C312.371 191.7 312.191 191.71 311.901 191.71H311.441V191.51C311.441 191.15 311.461 190.91 311.501 190.66H310.411C310.451 190.89 310.471 191.22 310.471 191.56V193.45H309.921V192.22C309.921 191.9 309.941 191.65 309.971 191.45H308.951C308.991 191.69 309.001 191.91 309.001 192.29V193.45C308.631 193.45 308.471 193.44 308.271 193.4V194.5C308.571 194.47 308.771 194.46 309.251 194.46H310.321V196.25C310.321 196.37 310.271 196.41 310.111 196.41C309.941 196.41 309.671 196.38 309.521 196.34C309.761 195.81 309.821 195.61 309.991 195.02L309.131 194.69C309.031 195.09 308.961 195.3 308.791 195.69C308.591 196.15 308.461 196.36 308.151 196.76C308.571 197.15 308.571 197.15 308.851 197.51C309.151 197.08 309.261 196.89 309.491 196.4C309.601 196.65 309.641 196.88 309.661 197.26C309.791 197.26 309.901 197.26 309.961 197.26C311.101 197.26 311.311 197.13 311.311 196.4V194.46H312.361C312.611 194.46 312.751 194.47 312.871 194.49V193.41C312.751 193.44 312.631 193.45 312.361 193.45H311.441ZM311.771 196.19C311.501 196.81 311.071 197.35 310.481 197.83C309.851 198.32 309.351 198.56 308.221 198.91C308.551 199.25 308.691 199.44 308.851 199.82C309.911 199.45 310.661 199.01 311.261 198.43C311.801 197.9 312.161 197.44 312.521 196.79L311.771 196.19ZM321.521 193.86V194.8C321.521 195.01 321.501 195.26 321.481 195.43C321.661 195.42 321.791 195.42 322.181 195.42H324.961C325.361 195.42 325.381 195.42 325.611 195.43C325.591 195.26 325.581 195.05 325.581 194.8V193.86H326.541C327.001 193.86 327.201 193.87 327.431 193.9V192.91C327.171 192.95 326.951 192.96 326.541 192.96H325.581V192.26H326.351C326.821 192.26 327.071 192.27 327.401 192.3V191.26C327.101 191.3 326.751 191.32 326.191 191.32H323.711V191.11C323.711 190.86 323.721 190.7 323.761 190.53H322.571C322.601 190.72 322.621 190.88 322.621 191.1V191.32H320.131C319.701 191.32 319.351 191.3 319.001 191.27C319.031 191.63 319.041 191.89 319.041 192.63C319.041 195 318.971 196.1 318.751 197.14C318.621 197.8 318.461 198.24 318.131 198.85C318.481 199.14 318.691 199.37 318.971 199.77C319.421 198.96 319.641 198.33 319.821 197.39C319.991 196.48 320.081 195.39 320.101 193.86H321.521ZM320.111 192.96V192.26H321.521V192.96H320.111ZM322.571 192.96V192.26H324.531V192.96H322.571ZM322.571 193.86H324.531V194.55H322.571V193.86ZM325.851 195.96C325.611 195.98 325.431 195.99 325.021 195.99H321.531C321.001 195.99 320.711 195.98 320.461 195.94V196.88C320.671 196.86 320.821 196.85 321.171 196.84C321.671 197.53 321.971 197.83 322.531 198.26C321.701 198.57 320.931 198.73 319.671 198.82C319.901 199.26 319.981 199.47 320.061 199.85C321.581 199.62 322.441 199.37 323.481 198.87C324.411 199.36 325.411 199.63 327.091 199.84C327.201 199.4 327.321 199.08 327.511 198.71C326.291 198.69 325.421 198.55 324.551 198.24C325.151 197.83 325.661 197.37 326.201 196.74C326.291 196.64 326.301 196.63 326.391 196.54L325.851 195.96ZM324.781 196.84C324.331 197.27 324.071 197.47 323.541 197.78C323.001 197.46 322.681 197.21 322.381 196.84H324.781ZM335.021 193.5C335.571 194.23 336.191 195.7 336.391 196.75L337.531 196.18C337.241 195.03 336.721 193.95 336.031 193L335.021 193.5ZM332.081 191.3C332.101 191.2 332.131 191.07 332.161 190.99L330.861 190.86C330.861 190.94 330.861 191 330.861 191.04C330.861 191.38 330.791 191.95 330.601 193.06C329.441 193.21 328.921 193.26 328.471 193.27L328.591 194.45C328.731 194.41 328.841 194.38 329.001 194.35L329.911 194.2C330.231 194.14 330.231 194.14 330.381 194.12C329.911 195.98 329.141 197.78 328.371 198.83L329.531 199.47C330.631 197.29 331.081 196.08 331.571 194.03C331.801 194.01 331.961 194 332.171 194C332.941 194 333.171 194.27 333.171 195.19C333.171 196.04 333.071 196.95 332.911 197.47C332.761 197.96 332.601 198.15 332.311 198.15C331.961 198.15 331.391 197.99 330.851 197.75C330.931 198.14 330.951 198.34 330.951 198.6C330.951 198.7 330.941 198.85 330.931 199.04C331.601 199.26 332.011 199.34 332.471 199.34C333.001 199.34 333.301 199.22 333.581 198.89C334.061 198.34 334.351 196.97 334.351 195.25C334.351 194.34 334.221 193.86 333.881 193.48C333.551 193.13 333.061 192.95 332.401 192.95C332.221 192.95 332.081 192.96 331.781 192.97C331.811 192.84 331.811 192.84 331.841 192.67C331.941 192.13 332.011 191.72 332.061 191.43L332.081 191.3ZM334.401 191.37C334.841 191.85 335.121 192.25 335.451 192.86L336.151 192.49C335.811 191.87 335.541 191.49 335.101 191.02L334.401 191.37ZM337.341 191.84C337.031 191.27 336.751 190.89 336.301 190.43L335.631 190.78C336.021 191.21 336.351 191.68 336.651 192.23L337.341 191.84ZM264.311 209.69C264.441 210.72 264.651 211.45 264.991 212.13C265.471 213.06 266.151 213.71 266.661 213.71C266.971 213.71 267.231 213.52 267.371 213.2C267.541 212.81 267.641 212.35 267.711 211.62C267.411 211.44 267.161 211.24 266.901 210.97C266.881 211.3 266.871 211.48 266.871 211.51C266.851 211.86 266.801 212.18 266.751 212.29C266.711 212.39 266.651 212.45 266.591 212.45C266.391 212.45 266.071 212.01 265.781 211.34C265.561 210.84 265.431 210.33 265.341 209.66L266.361 209.63C266.421 209.62 266.501 209.62 266.641 209.62C266.951 209.62 267.061 209.62 267.341 209.64L267.321 208.55C267.031 208.61 266.871 208.62 266.361 208.63L265.251 208.67C265.201 207.73 265.201 207.72 265.191 207.02C265.851 206.89 265.851 206.89 267.081 206.51L266.261 205.53C265.421 206.01 263.251 206.45 261.751 206.45C261.701 206.45 261.611 206.45 261.511 206.45C261.541 206.68 261.551 206.86 261.551 207.36V211.96C260.991 212.06 260.991 212.06 260.691 212.07L260.851 213.2C261.001 213.16 261.081 213.14 261.271 213.1C262.601 212.82 263.201 212.67 264.371 212.29V211.3C263.591 211.53 263.471 211.56 262.601 211.76V209.74L264.311 209.69ZM262.601 208.74V207.37C263.311 207.32 263.531 207.3 264.141 207.21C264.181 208.1 264.191 208.42 264.221 208.7L262.601 208.74ZM259.271 213.66C259.271 214.14 259.261 214.42 259.211 214.83H260.371C260.341 214.45 260.321 214.12 260.321 213.67V208.07C260.721 207.28 260.831 207 261.221 205.79L260.071 205.5C260.011 205.91 259.851 206.45 259.661 206.92C259.261 207.93 258.751 208.73 258.051 209.46C258.271 209.92 258.371 210.17 258.511 210.68C258.841 210.3 259.081 209.97 259.311 209.59C259.281 209.83 259.271 210.21 259.271 210.68V213.66ZM261.221 214.5C261.521 214.45 261.761 214.44 262.211 214.44H264.901C265.321 214.44 265.581 214.45 265.921 214.5V213.42C265.701 213.45 265.361 213.47 264.901 213.47H261.981C261.631 213.47 261.431 213.46 261.221 213.43V214.5ZM268.961 206.65C268.991 206.87 268.991 206.94 269.001 207.29C269.041 210.06 269.221 211.51 269.631 212.51C270.031 213.47 270.571 213.96 271.241 213.96C272.091 213.96 272.671 213.15 273.191 211.2C272.701 210.84 272.541 210.69 272.191 210.29C272.081 210.96 271.901 211.56 271.661 212.1C271.541 212.38 271.401 212.53 271.251 212.53C270.931 212.53 270.611 211.89 270.441 210.85C270.331 210.24 270.251 209.04 270.251 208.17C270.251 207.51 270.281 207.02 270.331 206.65H268.961ZM274.011 207.6C274.611 208.34 275.091 209.15 275.431 210.06C275.781 210.97 276.011 212.01 276.071 212.95L277.311 212.48C277.021 210.28 276.321 208.61 275.061 207.1L274.011 207.6Z" fill="#212121"/>
<path fill-rule="evenodd" clip-rule="evenodd" d="M244.5 101C244.5 101.828 243.828 102.5 243 102.5H242.952C242.124 102.5 241.452 101.828 241.452 101C241.452 100.172 242.124 99.5 242.952 99.5H243C243.828 99.5 244.5 100.172 244.5 101ZM238.714 101C238.714 101.828 238.043 102.5 237.214 102.5H237.119C236.29 102.5 235.619 101.828 235.619 101C235.619 100.172 236.29 99.5 237.119 99.5H237.214C238.043 99.5 238.714 100.172 238.714 101ZM232.881 101C232.881 101.828 232.21 102.5 231.381 102.5H231.286C230.457 102.5 229.786 101.828 229.786 101C229.786 100.172 230.457 99.5 231.286 99.5H231.381C232.21 99.5 232.881 100.172 232.881 101ZM227.048 101C227.048 101.828 226.376 102.5 225.548 102.5H225.452C224.624 102.5 223.952 101.828 223.952 101C223.952 100.172 224.624 99.5 225.452 99.5H225.548C226.376 99.5 227.048 100.172 227.048 101ZM221.214 101C221.214 101.828 220.543 102.5 219.714 102.5H219.619C218.79 102.5 218.119 101.828 218.119 101C218.119 100.172 218.79 99.5 219.619 99.5H219.714C220.543 99.5 221.214 100.172 221.214 101ZM215.381 101C215.381 101.828 214.71 102.5 213.881 102.5H213.786C212.957 102.5 212.286 101.828 212.286 101C212.286 100.172 212.957 99.5 213.786 99.5H213.881C214.71 99.5 215.381 100.172 215.381 101ZM209.548 101C209.548 101.828 208.876 102.5 208.048 102.5H208C207.172 102.5 206.5 101.828 206.5 101C206.5 100.172 207.172 99.5 208 99.5H208.048C208.876 99.5 209.548 100.172 209.548 101Z" fill="#83C6FF"/>
<path fill-rule="evenodd" clip-rule="evenodd" d="M244.5 203C244.5 203.828 243.828 204.5 243 204.5L242.952 204.5C242.124 204.5 241.452 203.828 241.452 203C241.452 202.172 242.124 201.5 242.952 201.5L243 201.5C243.828 201.5 244.5 202.172 244.5 203ZM238.748 203C238.748 203.828 238.076 204.5 237.248 204.5L237.152 204.5C236.324 204.5 235.652 203.828 235.652 203C235.652 202.172 236.324 201.5 237.152 201.5L237.248 201.5C238.076 201.5 238.748 202.172 238.748 203ZM232.948 203C232.948 203.828 232.276 204.5 231.448 204.5L231.352 204.5C230.524 204.5 229.852 203.828 229.852 203C229.852 202.172 230.524 201.5 231.352 201.5L231.448 201.5C232.276 201.5 232.948 202.172 232.948 203ZM227.148 203C227.148 203.828 226.476 204.5 225.648 204.5L225.552 204.5C224.724 204.5 224.052 203.828 224.052 203C224.052 202.172 224.724 201.5 225.552 201.5L225.648 201.5C226.476 201.5 227.148 202.172 227.148 203ZM221.348 203C221.348 203.828 220.676 204.5 219.848 204.5L219.752 204.5C218.924 204.5 218.252 203.828 218.252 203C218.252 202.172 218.924 201.5 219.752 201.5L219.848 201.5C220.676 201.5 221.348 202.172 221.348 203ZM215.548 203C215.548 203.828 214.876 204.5 214.048 204.5L214 204.5C213.172 204.5 212.5 203.828 212.5 203C212.5 202.172 213.172 201.5 214 201.5L214.048 201.5C214.876 201.5 215.548 202.172 215.548 203Z" fill="#83C6FF"/>
<path fill-rule="evenodd" clip-rule="evenodd" d="M206.5 166C206.5 165.172 207.172 164.5 208 164.5H208.049C208.878 164.5 209.549 165.172 209.549 166C209.549 166.828 208.878 167.5 208.049 167.5H208C207.172 167.5 206.5 166.828 206.5 166ZM212.451 166C212.451 165.172 213.122 164.5 213.951 164.5H214C214.828 164.5 215.5 165.172 215.5 166V166.051C215.5 166.879 214.828 167.551 214 167.551C213.566 167.551 213.174 167.366 212.901 167.071C212.623 166.799 212.451 166.419 212.451 166ZM214 170.616C214.828 170.616 215.5 171.288 215.5 172.116V172.217C215.5 173.046 214.828 173.717 214 173.717C213.172 173.717 212.5 173.046 212.5 172.217V172.116C212.5 171.288 213.172 170.616 214 170.616ZM214 176.783C214.828 176.783 215.5 177.454 215.5 178.283V178.384C215.5 179.212 214.828 179.884 214 179.884C213.172 179.884 212.5 179.212 212.5 178.384V178.283C212.5 177.454 213.172 176.783 214 176.783ZM214 182.949C214.828 182.949 215.5 183.621 215.5 184.449V184.551C215.5 185.379 214.828 186.051 214 186.051C213.172 186.051 212.5 185.379 212.5 184.551V184.449C212.5 183.621 213.172 182.949 214 182.949ZM214 189.116C214.828 189.116 215.5 189.788 215.5 190.616V190.717C215.5 191.546 214.828 192.217 214 192.217C213.172 192.217 212.5 191.546 212.5 190.717V190.616C212.5 189.788 213.172 189.116 214 189.116ZM214 195.283C214.828 195.283 215.5 195.954 215.5 196.783V196.884C215.5 197.712 214.828 198.384 214 198.384C213.172 198.384 212.5 197.712 212.5 196.884V196.783C212.5 195.954 213.172 195.283 214 195.283ZM214 201.449C214.828 201.449 215.5 202.121 215.5 202.949V203.051C215.5 203.879 214.828 204.551 214 204.551C213.172 204.551 212.5 203.879 212.5 203.051V202.949C212.5 202.121 213.172 201.449 214 201.449ZM214 207.616C214.828 207.616 215.5 208.288 215.5 209.116V209.217C215.5 210.046 214.828 210.717 214 210.717C213.172 210.717 212.5 210.046 212.5 209.217V209.116C212.5 208.288 213.172 207.616 214 207.616ZM214 213.783C214.828 213.783 215.5 214.454 215.5 215.283V215.384C215.5 216.212 214.828 216.884 214 216.884C213.172 216.884 212.5 216.212 212.5 215.384V215.283C212.5 214.454 213.172 213.783 214 213.783ZM214 219.949C214.828 219.949 215.5 220.621 215.5 221.449V221.551C215.5 222.379 214.828 223.051 214 223.051C213.172 223.051 212.5 222.379 212.5 221.551V221.449C212.5 220.621 213.172 219.949 214 219.949ZM214 226.116C214.828 226.116 215.5 226.788 215.5 227.616V227.717C215.5 228.546 214.828 229.217 214 229.217C213.172 229.217 212.5 228.546 212.5 227.717V227.616C212.5 226.788 213.172 226.116 214 226.116ZM214 232.283C214.828 232.283 215.5 232.954 215.5 233.783V233.884C215.5 234.712 214.828 235.384 214 235.384C213.172 235.384 212.5 234.712 212.5 233.884V233.783C212.5 232.954 213.172 232.283 214 232.283ZM214 238.449C214.828 238.449 215.5 239.121 215.5 239.949V240C215.5 240.828 214.828 241.5 214 241.5H213.951C213.122 241.5 212.451 240.828 212.451 240C212.451 239.581 212.623 239.201 212.901 238.929C213.174 238.634 213.566 238.449 214 238.449ZM206.5 240C206.5 239.172 207.172 238.5 208 238.5H208.049C208.878 238.5 209.549 239.172 209.549 240C209.549 240.828 208.878 241.5 208.049 241.5H208C207.172 241.5 206.5 240.828 206.5 240Z" fill="#83C6FF"/>
<path d="M119.52 51.72V50.17H125.86V51.72H127.01C126.97 51.47 126.95 51.21 126.95 50.89V49.9C126.95 49.58 126.96 49.34 126.99 49.1C126.73 49.12 126.49 49.13 126 49.13H119.41C118.89 49.13 118.63 49.12 118.39 49.1C118.42 49.34 118.43 49.57 118.43 49.93V50.87C118.43 51.21 118.41 51.45 118.37 51.72H119.52ZM123.48 52.26V56.61C123.48 57.42 123.79 57.61 125.12 57.61C127.07 57.61 127.26 57.4 127.33 55.11C126.92 55.03 126.61 54.92 126.25 54.72C126.25 55.69 126.21 56.17 126.13 56.34C126.05 56.51 125.81 56.57 125.25 56.57C124.64 56.57 124.58 56.53 124.58 56.15V52.07C124.58 51.74 124.59 51.47 124.61 51.24C124.43 51.26 124.18 51.27 123.77 51.27H121.36C120.97 51.27 120.7 51.26 120.5 51.24C120.53 51.52 120.55 51.82 120.55 52.22C120.55 53.8 120.34 54.79 119.87 55.49C119.49 56.05 119.04 56.36 118.09 56.72C118.43 57.05 118.61 57.31 118.81 57.78C119.15 57.61 119.3 57.54 119.49 57.43C120.16 57.03 120.67 56.52 121.03 55.88C121.46 55.1 121.62 54.18 121.65 52.26H123.48ZM135.35 54.02H136.29C136.64 54.02 136.94 54.04 137.19 54.08V53C136.92 53.04 136.65 53.06 136.2 53.06H130.87V52.53H135.11C135.52 52.53 135.75 52.54 136.03 52.58V51.66C135.84 51.69 135.51 51.71 135.11 51.71H130.87V51.22H135.11C135.36 51.22 135.83 51.24 136.03 51.27V50.36C135.82 50.39 135.51 50.41 135.11 50.41H130.87V49.91H135.26C135.86 49.91 136.09 49.92 136.41 49.96V48.9C136.11 48.95 135.83 48.96 135.25 48.96H130.77C130.28 48.96 129.98 48.95 129.68 48.91C129.71 49.19 129.72 49.36 129.72 49.9V53.06H129.2C128.74 53.06 128.37 53.04 128.16 53V54.08C128.49 54.03 128.76 54.02 129.18 54.02H129.72V56.51C129.06 56.63 128.62 56.68 128.3 56.69L128.51 57.81C128.69 57.76 128.72 57.76 128.96 57.71C130.73 57.37 131.79 57.11 132.87 56.75L132.86 55.75C132.16 55.98 131.72 56.1 130.85 56.29V54.02H131.72C132.13 54.88 132.53 55.39 133.25 56C134.23 56.82 135.35 57.36 136.85 57.74C137.02 57.24 137.14 56.98 137.38 56.59C136.43 56.42 135.6 56.14 134.76 55.7C135.14 55.47 135.46 55.24 135.72 55.01C136.09 54.68 136.21 54.57 136.29 54.51L135.35 54.02ZM135.24 54.02C134.96 54.36 134.4 54.84 133.9 55.18C133.39 54.81 133.14 54.54 132.85 54.02H135.24ZM143.54 53.37C144.89 52.66 145.83 52.01 146.92 51.03C147.02 50.95 147.06 50.91 147.14 50.85L146.27 49.97C145.72 50.7 144.69 51.51 143.54 52.12V49.89C143.54 49.37 143.56 48.99 143.6 48.69H142.35C142.39 48.98 142.41 49.39 142.41 49.89V56.48C142.41 57.39 142.71 57.56 144.33 57.56C145.95 57.56 146.5 57.45 146.81 57.07C147.05 56.77 147.19 56.11 147.27 54.87C146.92 54.79 146.58 54.67 146.19 54.48C146.14 55.69 146.08 56.08 145.91 56.31C145.78 56.47 145.42 56.53 144.52 56.53C143.72 56.53 143.54 56.47 143.54 56.2V53.37ZM139.58 56.51C139.58 56.99 139.56 57.37 139.51 57.81H140.74C140.7 57.39 140.68 56.94 140.68 56.53V51.16C141.13 50.15 141.17 50.06 141.4 49.42C141.49 49.18 141.53 49.07 141.62 48.87L140.45 48.53C140.34 49.21 139.97 50.13 139.44 51.01C139.01 51.71 138.68 52.14 138.04 52.79C138.34 53.33 138.37 53.38 138.57 53.97C138.96 53.55 139.37 53.03 139.6 52.67C139.58 53.34 139.58 53.44 139.58 53.79V56.51ZM149.02 51.86C149.17 51.84 149.21 51.84 149.46 51.83C150.65 51.81 152.13 51.71 153.01 51.59C153.67 52.82 153.68 52.85 154.09 53.41C153.59 53.21 153.01 53.11 152.36 53.11C151.22 53.11 150.39 53.34 149.81 53.83C149.35 54.22 149.09 54.75 149.09 55.32C149.09 55.82 149.3 56.31 149.68 56.67C150.19 57.16 151.18 57.43 152.46 57.43C153.46 57.43 154.39 57.27 155.63 56.89L155.47 55.61C154.69 56.02 153.52 56.28 152.46 56.28C151.1 56.28 150.36 55.92 150.36 55.27C150.36 54.56 151.16 54.15 152.52 54.15C153.12 54.15 153.65 54.23 154.1 54.38C154.38 54.48 154.54 54.58 154.79 54.81L155.95 54.28C155.6 53.81 155.16 53.16 154.89 52.7C154.79 52.52 154.56 52.1 154.2 51.43C155.03 51.27 155.52 51.17 155.67 51.13C156.01 51.06 156.12 51.03 156.38 50.99L156.24 49.8C155.71 50 154.82 50.21 153.79 50.39C153.48 49.66 153.3 49.13 153.24 48.79L151.95 48.96C152 49.04 152.43 50.1 152.6 50.54C151.98 50.62 150.65 50.71 149.9 50.71C149.49 50.71 149.23 50.7 148.93 50.66L149.02 51.86ZM161.01 52.29C161.02 52.17 161.03 52.11 161.03 52.11L161.05 51.52C161.11 51.44 161.13 51.42 161.17 51.36C161.26 51.23 161.26 51.23 161.31 51.18C161.46 51 161.5 50.96 161.6 50.88L161.23 50.46C161.16 50.48 161.12 50.5 161.11 50.5C161.13 49.89 161.14 49.81 161.15 49.61C161.17 49.41 161.18 49.28 161.18 49.23C161.19 49 161.19 48.98 161.22 48.86L159.95 48.84C159.98 49.07 159.98 49.14 159.98 49.4C159.98 49.63 159.97 49.94 159.97 50.22C159.96 50.45 159.96 50.45 159.95 50.6C159.48 50.63 158.93 50.66 158.74 50.66C158.6 50.66 158.51 50.66 158.33 50.64L158.39 51.77C158.66 51.72 158.86 51.7 159.92 51.63C159.92 51.9 159.91 51.92 159.91 52.15C159.89 52.54 159.89 52.65 159.88 53.13C159.69 53.34 159.69 53.34 158.75 54.27C158.49 54.53 158.33 54.68 158.1 54.84L158.68 56.03C158.78 55.88 158.92 55.71 159.14 55.46C159.65 54.89 159.76 54.76 159.85 54.62L159.87 54.61C159.85 54.88 159.85 54.88 159.85 55.95C159.84 57.13 159.84 57.13 159.78 57.54H161.07C161.03 57.17 161.03 57.14 161.02 55.89C161.01 54.78 161.01 54.78 161.01 54.7C161.01 54.42 161.01 54.14 161.03 53.69C161.41 53.23 162.12 52.6 162.85 52.06C163.34 51.71 163.77 51.52 164.09 51.52C164.36 51.52 164.5 51.65 164.5 51.89C164.5 52.12 164.44 52.51 164.29 53.15C163.92 54.81 163.88 55.08 163.88 55.66C163.88 56.27 164.04 56.64 164.4 56.92C164.62 57.08 164.93 57.18 165.26 57.18C165.81 57.18 166.3 56.95 166.74 56.46C167 56.18 167.14 55.99 167.44 55.47C167.11 55.01 166.99 54.8 166.77 54.27C166.65 54.63 166.43 55.06 166.19 55.41C165.98 55.72 165.71 55.92 165.49 55.92C165.23 55.92 165.08 55.74 165.08 55.42C165.08 55.1 165.16 54.68 165.5 53.17C165.68 52.4 165.75 51.97 165.75 51.64C165.75 50.84 165.19 50.31 164.35 50.31C163.74 50.31 163.11 50.59 162.24 51.25C161.52 51.79 161.31 51.97 161.02 52.29H161.01ZM168.16 51.35C168.55 51.27 169.15 51.2 169.82 51.15C171.99 50.99 172.38 50.96 173.19 50.84C172.54 51.17 172.18 51.43 171.8 51.84C171.19 52.51 170.85 53.35 170.85 54.2C170.85 55.24 171.36 56.09 172.28 56.61C172.89 56.95 173.52 57.13 174.62 57.27C174.79 57.29 174.84 57.3 174.96 57.33L175.14 55.97C175.04 55.98 174.95 55.98 174.94 55.98C174.58 55.98 173.94 55.87 173.45 55.72C172.61 55.47 172.12 54.87 172.12 54.09C172.12 53.08 172.87 52.08 174.14 51.42C174.78 51.08 175.52 50.88 176.12 50.88C176.22 50.88 176.22 50.88 176.33 50.89L176.26 49.61C176.08 49.66 175.93 49.67 175.11 49.71C172.34 49.84 170.68 49.93 170.12 49.96C168.65 50.06 168.65 50.06 168.47 50.06C168.42 50.06 168.31 50.06 168.09 50.05L168.16 51.35ZM178.37 49.65C178.4 49.87 178.4 49.94 178.41 50.29C178.45 53.06 178.63 54.51 179.04 55.51C179.44 56.47 179.98 56.96 180.65 56.96C181.5 56.96 182.08 56.15 182.6 54.2C182.11 53.84 181.95 53.69 181.6 53.29C181.49 53.96 181.31 54.56 181.07 55.1C180.95 55.38 180.81 55.53 180.66 55.53C180.34 55.53 180.02 54.89 179.85 53.85C179.74 53.24 179.66 52.04 179.66 51.17C179.66 50.51 179.69 50.02 179.74 49.65H178.37ZM183.42 50.6C184.02 51.34 184.5 52.15 184.84 53.06C185.19 53.97 185.42 55.01 185.48 55.95L186.72 55.48C186.43 53.28 185.73 51.61 184.47 50.1L183.42 50.6ZM191.24 52.85C191.4 52.76 191.4 52.76 191.65 52.59C191.85 52.46 192.57 51.92 192.75 51.77C193.09 51.48 193.82 50.83 194.32 50.37C194.6 50.11 194.67 50.05 194.84 49.96L194.22 49.08C194.06 49.16 193.95 49.18 193.6 49.21C192.63 49.28 191.41 49.33 190.56 49.33C190.01 49.33 189.72 49.31 189.38 49.27L189.43 50.47C189.62 50.44 189.69 50.43 189.91 50.42C191.72 50.34 192.36 50.3 192.74 50.25L192.75 50.26C192.69 50.32 192.59 50.42 192.57 50.44C191.81 51.21 190.51 52.33 189.58 53.04C188.92 53.54 188.52 53.81 188.17 53.98L188.85 55.06C190.05 53.97 191.51 53.38 192.97 53.38C194.18 53.38 194.95 53.89 194.95 54.67C194.95 55.38 194.59 55.81 193.76 56.12C193.61 55.69 193.5 55.47 193.3 55.22C192.88 54.69 192.27 54.4 191.57 54.4C190.57 54.4 189.85 55 189.85 55.83C189.85 56.28 190.07 56.7 190.45 56.98C190.85 57.28 191.55 57.44 192.39 57.44C193.31 57.44 194.16 57.24 194.81 56.87C195.7 56.37 196.17 55.61 196.17 54.66C196.17 53.29 195.07 52.41 193.36 52.41C192.61 52.41 192.17 52.51 191.26 52.87L191.24 52.85ZM192.68 56.41C192.4 56.45 192.35 56.45 192.16 56.45C191.42 56.45 190.97 56.22 190.97 55.82C190.97 55.54 191.2 55.36 191.56 55.36C192.12 55.36 192.5 55.72 192.68 56.41Z" fill="#212121"/>
</svg>
